<!-- Generated by IcoMoon.io -->
<svg version="1.1" xmlns="http://www.w3.org/2000/svg" width="32" height="32" viewBox="0 0 32 32">
<title>-call</title>
<path d="M31.16 24.686c0.838 0.557 1.089 1.674 0.57 2.536l-1.629 2.707c-0.5 0.851-1.31 1.476-2.261 1.742-0.817 0.221-1.66 0.331-2.506 0.327-3.677 0-9.027-1.933-16.214-9.119-9.034-9.036-9.768-15.168-8.793-18.722 0.267-0.95 0.891-1.761 1.742-2.261l2.708-1.627c0.862-0.518 1.978-0.267 2.535 0.571l4.319 6.477c0.543 0.822 0.364 1.924-0.412 2.531l-2.424 1.886c-0.32 0.244-0.411 0.687-0.213 1.038l0.197 0.359c0.648 1.188 1.457 2.669 4.44 5.653s4.463 3.791 5.652 4.439l0.359 0.198c0.351 0.195 0.791 0.102 1.034-0.218l1.887-2.426c0.608-0.776 1.709-0.955 2.531-0.411zM30.811 26.675c0.225-0.374 0.116-0.859-0.247-1.1l-6.476-4.319c-0.357-0.236-0.835-0.158-1.099 0.178l-1.886 2.425c-0.564 0.738-1.585 0.949-2.395 0.494l-0.35-0.193c-1.249-0.681-2.804-1.529-5.897-4.622s-3.941-4.648-4.622-5.898l-0.192-0.35c-0.454-0.81-0.244-1.831 0.494-2.395l2.425-1.886c0.336-0.264 0.414-0.742 0.178-1.098l-4.316-6.476c-0.242-0.363-0.726-0.472-1.1-0.247l-2.708 1.625c-0.615 0.36-1.067 0.943-1.262 1.629-0.901 3.281-0.155 9.012 8.519 17.685s14.405 9.419 17.685 8.519c0.685-0.195 1.267-0.646 1.626-1.261zM18.132 5.336c-0.295 0-0.533-0.239-0.533-0.533s0.239-0.533 0.533-0.533c5.593 0.006 10.126 4.539 10.132 10.132 0 0.294-0.239 0.533-0.533 0.533s-0.533-0.239-0.533-0.533c-0.006-5.004-4.061-9.060-9.065-9.065zM18.132 8.536c-0.295 0-0.533-0.239-0.533-0.533s0.239-0.533 0.533-0.533c3.827 0.004 6.928 3.106 6.932 6.932 0 0.294-0.239 0.533-0.533 0.533s-0.533-0.239-0.533-0.533c-0.004-3.238-2.628-5.862-5.866-5.866zM18.132 11.735c-0.295 0-0.533-0.239-0.533-0.533s0.239-0.533 0.533-0.533c2.061 0.002 3.73 1.672 3.733 3.733 0 0.294-0.239 0.533-0.533 0.533s-0.533-0.239-0.533-0.533c-0.002-1.472-1.195-2.665-2.666-2.666z"></path>
</svg>
