<!-- Generated by IcoMoon.io -->
<svg version="1.1" xmlns="http://www.w3.org/2000/svg" width="32" height="32" viewBox="0 0 32 32">
<title>-inbound</title>
<path d="M31.912 7.825c0.305 0.423-0.251 0.963-0.665 0.647-2.594-1.98-6.293-1.73-8.604 0.581-0.938 0.938-1.563 2.121-1.807 3.42-0.013 0.068 0.979 0.987 1.007 1.038 0.841 0.823 0.202 2.311-0.952 2.299h-7.186c-1.097 0-1.99-0.893-1.99-1.99l-0-7.186c0-0.555 0.319-1.032 0.831-1.244s1.075-0.101 1.468 0.292l0.903 0.903c0.014 0.014 2.353-1.812 2.867-2.083 0.229-0.12 0.512-0.032 0.633 0.197s0.032 0.513-0.197 0.633c-0.901 0.473-1.727 1.082-2.454 1.809-0.224 0.224-0.477 0.398-0.801 0.398-0.269 0.001-0.52-0.101-0.711-0.292l-0.903-0.903c-0.269-0.269-0.698-0.094-0.698 0.289l0 7.186c0 0.58 0.472 1.053 1.053 1.053h7.186c0.408-0.023 0.568-0.387 0.289-0.698l-0.99-0.99c-0.232-0.233-0.335-0.563-0.275-0.884 0.279-1.486 0.993-2.838 2.065-3.91 1.982-1.982 4.858-2.638 7.423-1.885-2.656-2.209-6.246-2.92-9.584-1.846-0.247 0.079-0.511-0.056-0.59-0.303s0.056-0.51 0.303-0.59c3.976-1.279 8.279-0.24 11.23 2.711 0.42 0.42 0.806 0.873 1.149 1.348zM21 19.080l3.62 3.62c0.644 0.644 0.76 1.635 0.282 2.41-1.381 2.261-3.919 3.674-6.548 3.662-0.552 0-1.109-0.060-1.663-0.183-3.608-0.804-7.312-2.963-10.428-6.079s-5.276-6.82-6.080-10.429c-0.627-2.813 0.387-5.71 2.548-7.536 0.009-0.008 0.018-0.016 0.028-0.023 0.282-0.236 0.582-0.455 0.902-0.652 0.775-0.478 1.766-0.362 2.41 0.282l3.62 3.62c0.426 0.426 0.63 1.013 0.56 1.611s-0.404 1.122-0.916 1.438l-1.479 0.912c-0.428 0.264-0.599 0.792-0.408 1.255 0.82 1.982 2.013 3.736 3.546 5.21 0.716 0.689 1.503 1.31 2.34 1.848 0.218 0.14 0.281 0.43 0.141 0.648s-0.43 0.281-0.648 0.141c-0.889-0.57-1.725-1.23-2.484-1.961-1.627-1.565-2.892-3.425-3.762-5.528-0.368-0.891-0.039-1.905 0.782-2.411l0.653-0.403-4.991-4.991c-1.683 1.61-2.446 4.006-1.927 6.336 0.766 3.437 2.835 6.977 5.827 9.97s6.532 5.061 9.969 5.827c2.33 0.519 4.726-0.245 6.336-1.927l-4.991-4.991-0.403 0.654c-0.506 0.821-1.518 1.151-2.405 0.785-0.35-0.145-0.7-0.303-1.040-0.472-0.232-0.115-0.327-0.396-0.211-0.628s0.396-0.326 0.628-0.211c0.32 0.159 0.65 0.309 0.98 0.445 0.46 0.19 0.986 0.018 1.249-0.41l0.912-1.48c0.316-0.512 0.84-0.846 1.438-0.916s1.185 0.134 1.611 0.56zM4.154 4.668c-0.139 0.086-0.273 0.176-0.404 0.271l5.088 5.088 0.006-0.004c0.267-0.165 0.441-0.438 0.477-0.749s-0.070-0.617-0.292-0.839l-3.62-3.62c-0.335-0.335-0.851-0.396-1.255-0.147zM24.105 24.616c0.248-0.403 0.187-0.918-0.148-1.253l-3.62-3.62c-0.222-0.222-0.527-0.328-0.839-0.291s-0.584 0.21-0.749 0.477l-0.004 0.006 5.087 5.087c0.094-0.131 0.185-0.265 0.271-0.404 0-0.001 0.001-0.001 0.001-0.002z"></path>
</svg>
