<!-- Generated by IcoMoon.io -->
<svg version="1.1" xmlns="http://www.w3.org/2000/svg" width="32" height="32" viewBox="0 0 32 32">
<title>-outbound</title>
<path d="M31.414 7.655c0.378 0.378 0.586 0.881 0.586 1.415s-0.208 1.037-0.586 1.416l-5.111 5.111c-0.395 0.395-0.96 0.507-1.476 0.294s-0.836-0.693-0.836-1.251v-1.408c0-0.019-0.009-0.037-0.022-0.046-1.098-0.751-2.383-1.148-3.718-1.148-3.288 0-6.096 2.453-6.533 5.707-0.031 0.232-0.227 0.406-0.461 0.409h-0.006c-0.231 0-0.428-0.168-0.465-0.396-0.094-0.581-0.141-1.178-0.141-1.776 0-3.598 1.753-6.994 4.689-9.082 0.212-0.151 0.507-0.101 0.658 0.111s0.101 0.507-0.111 0.657c-2.428 1.727-3.972 4.43-4.248 7.365 1.289-2.359 3.8-3.937 6.619-3.937 1.526 0 2.995 0.454 4.25 1.312 0.271 0.185 0.433 0.494 0.433 0.825v1.408c0 0.255 0.194 0.355 0.254 0.38s0.268 0.091 0.448-0.089l5.111-5.111c0.2-0.2 0.31-0.466 0.31-0.749s-0.11-0.549-0.31-0.749l-5.111-5.111c-0.18-0.18-0.389-0.114-0.448-0.089s-0.254 0.125-0.254 0.38v1.284c0 0.27-0.106 0.524-0.298 0.714s-0.442 0.291-0.713 0.288c-1.601-0.023-3.136 0.317-4.562 1.005-0.234 0.113-0.516 0.015-0.63-0.22s-0.015-0.516 0.22-0.63c1.514-0.73 3.139-1.1 4.831-1.1 0.051 0 0.102 0 0.153 0.001 0.015 0.002 0.027-0.005 0.038-0.016 0.008-0.008 0.018-0.022 0.018-0.042v-1.284c0-0.558 0.32-1.038 0.836-1.251s1.081-0.101 1.476 0.294zM21.123 20.107l3.641 3.641c0.648 0.648 0.764 1.645 0.284 2.424-1.389 2.274-3.942 3.696-6.586 3.683-0.555 0-1.115-0.060-1.673-0.184-0.895-0.199-1.813-0.488-2.728-0.858-0.241-0.098-0.358-0.372-0.261-0.614s0.372-0.358 0.614-0.261c0.867 0.35 1.735 0.623 2.58 0.811 2.344 0.522 4.754-0.246 6.373-1.939l-5.020-5.020-0.405 0.657c-0.509 0.825-1.526 1.157-2.419 0.789-1.914-0.789-3.636-1.913-5.118-3.339-1.636-1.574-2.909-3.445-3.784-5.56-0.37-0.896-0.040-1.916 0.787-2.425l0.657-0.405-5.021-5.021c-1.693 1.619-2.461 4.029-1.939 6.373 0.77 3.457 2.852 7.018 5.862 10.028 1.785 1.785 3.832 3.29 5.918 4.352 0.232 0.118 0.324 0.402 0.206 0.634s-0.402 0.324-0.634 0.206c-2.204-1.122-4.276-2.644-6.157-4.525-3.135-3.135-5.307-6.86-6.115-10.49-0.63-2.829 0.389-5.744 2.563-7.58 0.009-0.008 0.018-0.016 0.028-0.023 0.284-0.237 0.586-0.457 0.908-0.656 0.78-0.481 1.777-0.364 2.424 0.284l3.641 3.641c0.428 0.428 0.633 1.019 0.563 1.62s-0.406 1.129-0.922 1.446l-1.488 0.917c-0.43 0.265-0.603 0.796-0.41 1.262 0.825 1.994 2.024 3.757 3.566 5.241 1.397 1.344 3.020 2.403 4.824 3.147 0.463 0.191 0.992 0.018 1.257-0.412l0.918-1.489c0.318-0.515 0.845-0.851 1.446-0.922s1.192 0.135 1.62 0.563zM3.771 5.883l5.118 5.118 0.006-0.004c0.268-0.165 0.443-0.44 0.48-0.753s-0.070-0.621-0.293-0.844l-3.641-3.641c-0.337-0.337-0.856-0.398-1.262-0.148-0.14 0.086-0.275 0.177-0.407 0.272zM24.246 25.675c0.249-0.406 0.188-0.924-0.149-1.261l-3.641-3.641c-0.223-0.223-0.531-0.33-0.844-0.293s-0.588 0.212-0.753 0.48l-0.004 0.006 5.117 5.117c0.095-0.132 0.186-0.267 0.272-0.407 0-0.001 0.001-0.001 0.001-0.002z"></path>
</svg>
