<!-- Generated by IcoMoon.io -->
<svg version="1.1" xmlns="http://www.w3.org/2000/svg" width="32" height="32" viewBox="0 0 32 32">
<title>-telephone</title>
<path d="M29.694 7.795c2.627 2.178 2.301 6.58 2.286 6.766-0.016 0.202-0.15 0.376-0.341 0.444-0.075 0.027-1.881 0.656-5.436 0.656-0.285 0-0.516-0.231-0.516-0.516s0.231-0.516 0.516-0.516c2.517 0 4.114-0.333 4.761-0.502 0.016-1.021-0.103-4.024-1.929-5.538-2.754-2.284-8.539-3.098-13.035-3.098s-10.281 0.814-13.035 3.098c-1.831 1.519-1.947 4.517-1.93 5.538 0.646 0.168 2.243 0.502 4.762 0.502 0.285 0 0.516 0.231 0.516 0.516s-0.231 0.516-0.516 0.516c-3.555 0-5.361-0.63-5.436-0.656-0.191-0.068-0.325-0.242-0.341-0.444-0.015-0.186-0.341-4.588 2.286-6.766 2.966-2.46 9.018-3.336 13.694-3.336s10.728 0.876 13.694 3.336zM16 12.165c2.941 0 5.333 2.392 5.333 5.333s-2.392 5.333-5.333 5.333c-2.941 0-5.333-2.392-5.333-5.333s2.392-5.333 5.333-5.333zM16 21.798c2.371 0 4.301-1.929 4.301-4.301s-1.929-4.301-4.301-4.301c-2.371 0-4.301 1.929-4.301 4.301s1.929 4.301 4.301 4.301zM17.731 16.982c0.285 0 0.516 0.231 0.516 0.516 0 1.239-1.008 2.247-2.247 2.247s-2.247-1.008-2.247-2.247 1.008-2.247 2.247-2.247c0.285 0 0.516 0.231 0.516 0.516s-0.231 0.516-0.516 0.516c-0.67 0-1.215 0.545-1.215 1.215s0.545 1.215 1.215 1.215c0.67 0 1.215-0.545 1.215-1.215 0-0.285 0.231-0.516 0.516-0.516zM25.241 16.758l2.234 2.941c0.479 0.631 0.854 1.745 0.854 2.537v3.55c0 0.968-0.787 1.755-1.755 1.755h-21.15c-0.968 0-1.755-0.787-1.755-1.755v-3.55c0-0.792 0.375-1.906 0.854-2.537l2.234-2.941c0.343-0.452 0.644-1.345 0.644-1.913v-3.030c0-0.901 0.667-1.837 1.518-2.131 0.088-0.030 2.208-0.743 7.078-0.743s6.99 0.713 7.078 0.743c0.852 0.294 1.518 1.23 1.518 2.131v3.030c0 0.567 0.301 1.461 0.644 1.913zM27.297 25.786h0v-3.55c0-0.567-0.301-1.461-0.644-1.913l-2.234-2.941c-0.479-0.631-0.854-1.745-0.854-2.537v-3.030c0-0.464-0.385-1.004-0.823-1.155-0.019-0.006-2.076-0.687-6.741-0.687s-6.722 0.68-6.742 0.687c-0.437 0.151-0.822 0.691-0.822 1.155v3.030c0 0.792-0.375 1.906-0.854 2.537l-2.234 2.941c-0.343 0.452-0.644 1.345-0.644 1.913v3.55c0 0.398 0.324 0.723 0.722 0.723h21.15c0.398 0 0.723-0.324 0.723-0.723z"></path>
</svg>
