<!-- Generated by IcoMoon.io -->
<svg version="1.1" xmlns="http://www.w3.org/2000/svg" width="32" height="32" viewBox="0 0 32 32">
<title>uni2709</title>
<path d="M0.667-3.733h30.667q0.267 0 0.333 0.133t-0.147 0.347l-15.040 15.12q-0.213 0.213-0.48 0.213t-0.48-0.213l-15.040-15.12q-0.213-0.213-0.147-0.347t0.333-0.133zM0.48 2.080l7.040 7.040q0.213 0.213 0.213 0.48t-0.213 0.48l-7.040 7.040q-0.213 0.213-0.347 0.147t-0.133-0.333v-14.667q0-0.267 0.133-0.333t0.347 0.147zM24.48 9.12l7.040-7.040q0.213-0.213 0.347-0.147t0.133 0.333v14.667q0 0.267-0.133 0.333t-0.347-0.147l-7.040-7.040q-0.213-0.213-0.213-0.48t0.213-0.48zM21.813 12.747l9.707 9.707q0.213 0.213 0.147 0.347t-0.333 0.133h-30.667q-0.267 0-0.333-0.133t0.147-0.347l9.707-9.707q0.213-0.213 0.48-0.213t0.48 0.213l4.373 4.373q0.213 0.213 0.48 0.213t0.48-0.213l4.373-4.373q0.213-0.213 0.48-0.213t0.48 0.213z"></path>
</svg>
