<!-- Generated by IcoMoon.io -->
<svg version="1.1" xmlns="http://www.w3.org/2000/svg" width="32" height="32" viewBox="0 0 32 32">
<title>uni231B</title>
<path d="M26.667-6.4v4q0 0.56-0.387 0.947t-0.947 0.387h-1.333v2.667q0 2.427-1.32 4.413t-3.48 2.92q2.16 0.933 3.48 2.92t1.32 4.413v4h1.333q0.56 0 0.947 0.387t0.387 0.947v4h-21.333v-4q0-0.56 0.387-0.947t0.947-0.387h1.333v-4q0-2.427 1.32-4.413t3.48-2.92q-2.16-0.933-3.48-2.92t-1.32-4.413v-2.667h-1.333q-0.56 0-0.947-0.387t-0.387-0.947v-4h21.333zM10.667-1.067v2.667q0 1.6 0.867 2.92t2.333 1.96q0.747 0.32 1.173 0.987t0.427 1.467-0.427 1.467-1.173 0.987q-1.467 0.64-2.333 1.96t-0.867 2.92v4h10.667v-4q0-1.6-0.867-2.92t-2.333-1.96q-0.747-0.32-1.173-0.987t-0.427-1.467 0.427-1.467 1.173-0.987q1.467-0.64 2.333-1.96t0.867-2.92v-2.667h-10.667z"></path>
</svg>
