<!-- Generated by IcoMoon.io -->
<svg version="1.1" xmlns="http://www.w3.org/2000/svg" width="32" height="32" viewBox="0 0 32 32">
<title>uni20AC</title>
<path d="M19.84-6.347q6.453 0 9.44 5.040 1.6 2.773 1.76 5.573h-4.827q0-1.2-0.467-2.2t-1.16-1.64-1.547-1.080-1.613-0.64-1.373-0.2q-0.507 0-1.080 0.147t-1.32 0.547-1.413 1.013-1.307 1.667-1.040 2.387h10.107l-2.667 2.667h-8q-0.16 1.333-0.16 2.667h10.827l-2.667 2.667h-8q0.24 1.973 0.88 3.52t1.4 2.427 1.64 1.453 1.573 0.773 1.253 0.2q0.587 0 1.347-0.2t1.613-0.653 1.547-1.093 1.16-1.627 0.467-2.133h4.64q-0.8 4.56-3.413 7.413-2.853 3.12-7.307 3.12-5.493 0-8.64-4.213-0.96-1.28-1.84-3.547t-1.2-5.44h-5.787l2.667-2.667h2.987q0.027-1.253 0.16-2.667h-5.813l2.667-2.667h3.573q0.533-2.32 1.36-4.093t1.653-2.76q3.12-3.76 7.92-3.76z"></path>
</svg>
