<!-- Generated by IcoMoon.io -->
<svg version="1.1" xmlns="http://www.w3.org/2000/svg" width="32" height="32" viewBox="0 0 32 32">
<title>uni2B</title>
<path d="M12-3.733h5.333q0.56 0 0.947 0.387t0.387 0.947v9.333h9.333q0.56 0 0.947 0.387t0.387 0.947v5.333q0 0.56-0.387 0.947t-0.947 0.387h-9.333v9.333q0 0.56-0.387 0.947t-0.947 0.387h-5.333q-0.56 0-0.947-0.387t-0.387-0.947v-9.333h-9.333q-0.56 0-0.947-0.387t-0.387-0.947v-5.333q0-0.56 0.387-0.947t0.947-0.387h9.333v-9.333q0-0.56 0.387-0.947t0.947-0.387z"></path>
</svg>
