<!-- Generated by IcoMoon.io -->
<svg version="1.1" xmlns="http://www.w3.org/2000/svg" width="32" height="32" viewBox="0 0 32 32">
<title>uni20BD</title>
<path d="M11.413-6.4h9.333q1.787 0 3.2 0.347t2.293 0.827 1.52 1.32 0.933 1.507 0.453 1.72 0.173 1.613 0.013 1.52v0.88q0 0.96-0.013 1.52t-0.173 1.627-0.453 1.733-0.933 1.52-1.52 1.347-2.293 0.84-3.2 0.347h-4.747l-0.053 2.667h7.68q0.267 0 0.347 0.16t-0.080 0.373l-3.2 4.267q-0.16 0.213-0.48 0.373t-0.587 0.16h-3.68v4.667q0 0.293-0.147 0.48t-0.413 0.187h-3.973q-0.267 0-0.467-0.2t-0.2-0.467v-4.667h-7.12q-0.267 0-0.347-0.16t0.080-0.373l3.2-4.267q0.16-0.213 0.48-0.373t0.587-0.16h3.12v-2.667h-7.12q-0.267 0-0.347-0.16t0.080-0.373l3.2-4.267q0.16-0.213 0.48-0.373t0.587-0.16h3.12v-12.667q0-0.267 0.2-0.467t0.467-0.2zM16-1.067v8h5.413q1.707 0 2.307-0.88t0.6-3.173q0-2.24-0.6-3.093t-2.307-0.853h-5.413z"></path>
</svg>
