<!-- Generated by IcoMoon.io -->
<svg version="1.1" xmlns="http://www.w3.org/2000/svg" width="32" height="32" viewBox="0 0 32 32">
<title>uni26FA</title>
<path d="M20.64-6.227q0.427 0.253 0.547 0.72t-0.147 0.893l-3.627 4.987 12.453 19.893h0.8q0.533 0 0.933 0.493t0.4 1.053v1.12h-32v-1.12q0-0.56 0.4-1.053t0.933-0.493h0.8l12.48-19.893-3.6-4.88q-0.267-0.427-0.147-0.907t0.547-0.747 0.907-0.147 0.747 0.547l2.96 3.947 2.987-4q0.24-0.427 0.72-0.547t0.907 0.133zM16 20.267h10.053l-4.853-2.987-5.2-14.24v17.227z"></path>
</svg>
