<!-- Generated by IcoMoon.io -->
<svg version="1.1" xmlns="http://www.w3.org/2000/svg" width="32" height="32" viewBox="0 0 32 32">
<title>uni2A</title>
<path d="M16-3.733q0.4 0 0.907 0.040t0.8 0.093l0.293 0.027q0.267 0.053 0.467 0.28t0.2 0.493v5.973l4.213-4.213q0.187-0.187 0.48-0.213t0.507 0.16l2.827 2.827q0.187 0.213 0.16 0.507t-0.213 0.48l-4.213 4.213h5.973q0.267 0 0.493 0.2t0.28 0.467q0.16 1.093 0.16 2 0 0.4-0.040 0.907t-0.093 0.8l-0.027 0.293q-0.053 0.267-0.28 0.467t-0.493 0.2h-5.973l4.213 4.213q0.187 0.187 0.213 0.48t-0.16 0.507l-2.827 2.827q-0.213 0.187-0.507 0.16t-0.48-0.213l-4.213-4.213v5.973q0 0.267-0.2 0.493t-0.467 0.28q-1.093 0.16-2 0.16-0.4 0-0.907-0.040t-0.8-0.093l-0.293-0.027q-0.267-0.053-0.467-0.28t-0.2-0.493v-5.973l-4.213 4.213q-0.187 0.187-0.48 0.213t-0.507-0.16l-2.827-2.827q-0.187-0.213-0.16-0.507t0.213-0.48l4.213-4.213h-5.973q-0.267 0-0.493-0.2t-0.28-0.467q-0.16-1.093-0.16-2 0-0.4 0.040-0.907t0.093-0.8l0.027-0.293q0.053-0.267 0.28-0.467t0.493-0.2h5.973l-4.213-4.213q-0.187-0.187-0.213-0.48t0.16-0.507l2.827-2.827q0.213-0.187 0.507-0.16t0.48 0.213l4.213 4.213v-5.973q0-0.267 0.2-0.493t0.467-0.28q1.093-0.16 2-0.16z"></path>
</svg>
