<!-- Generated by IcoMoon.io -->
<svg version="1.1" xmlns="http://www.w3.org/2000/svg" width="32" height="32" viewBox="0 0 32 32">
<title>uniA5</title>
<path d="M22-3.733h6.667q0.267 0 0.333 0.133t-0.147 0.347l-9.707 9.707q-0.16 0.16-0.293 0.48h7.147q0.267 0 0.347 0.16t-0.080 0.373l-3.2 4.267q-0.16 0.213-0.48 0.373t-0.587 0.16h-3.333v2.667h7.333q0.267 0 0.347 0.16t-0.080 0.373l-3.2 4.267q-0.16 0.213-0.48 0.373t-0.587 0.16h-3.333v4.64q0 0.293-0.2 0.493t-0.493 0.2h-3.947q-0.293 0-0.493-0.2t-0.2-0.493v-4.64h-7.333q-0.267 0-0.347-0.16t0.080-0.373l3.2-4.267q0.16-0.213 0.48-0.373t0.587-0.16h3.333v-2.667h-7.333q-0.267 0-0.347-0.16t0.080-0.373l3.2-4.267q0.16-0.213 0.48-0.373t0.587-0.16h3.147q-0.133-0.32-0.293-0.48l-9.707-9.707q-0.213-0.213-0.147-0.347t0.333-0.133h6.667q0.667 0 1.147 0.48l4.373 4.373q0.213 0.213 0.48 0.213t0.48-0.213l4.373-4.373q0.48-0.48 1.147-0.48z"></path>
</svg>
