<!-- Generated by IcoMoon.io -->
<svg version="1.1" xmlns="http://www.w3.org/2000/svg" width="32" height="32" viewBox="0 0 32 32">
<title>uniE195</title>
<path d="M16-6.16q3.2 0 6.12 1.253t5.027 3.36 3.36 5.027 1.253 6.12-1.253 6.12-3.36 5.027-5.027 3.36-6.12 1.253-6.12-1.253-5.027-3.36-3.36-5.027-1.253-6.12 1.253-6.12 3.36-5.027 5.027-3.36 6.12-1.253zM16-1.627q-3.040 0-5.627 1.507t-4.093 4.093-1.507 5.627 1.507 5.627 4.093 4.093 5.627 1.507 5.627-1.507 4.093-4.093 1.507-5.627-1.507-5.627-4.093-4.093-5.627-1.507zM21.333 6.933v2.667l-1.333 1.333 2.667 2.667v1.333h-2.667l-2.667-2.667h-4v2.667h-2.667v-10.667h8zM13.333 6.933v2.667h5.333v-2.667h-5.333z"></path>
</svg>
