<!-- Generated by IcoMoon.io -->
<svg version="1.1" xmlns="http://www.w3.org/2000/svg" width="32" height="32" viewBox="0 0 32 32">
<title>uniE042</title>
<path d="M13.333-6.4l18.187 18.187q0.213 0.213 0.213 0.48t-0.213 0.48l-12.373 12.373q-0.213 0.213-0.48 0.213t-0.48-0.213l-18.187-18.187 0.027-12.667q0-0.267 0.2-0.467t0.467-0.2h12.64zM21.333-6.4l18.187 18.187q0.213 0.213 0.213 0.48t-0.213 0.48l-12.373 12.373q-0.213 0.213-0.48 0.213t-0.48-0.213l-1.493-1.493 11.307-11.36-18.667-18.667h4zM8.52-1.72q-0.787-0.787-1.893-0.787t-1.893 0.787-0.787 1.907 0.787 1.907 1.893 0.787 1.893-0.787 0.787-1.907-0.787-1.907z"></path>
</svg>
