<!-- Generated by IcoMoon.io -->
<svg version="1.1" xmlns="http://www.w3.org/2000/svg" width="32" height="32" viewBox="0 0 32 32">
<title>uniE033</title>
<path d="M24 4.267v-5.333q0-2.213-1.56-3.773t-3.773-1.56h-8q-2.187 0-3.76 1.573t-1.573 3.76v5.333h-2.667q-1.093 0-1.88 0.787t-0.787 1.88v16q0 1.093 0.787 1.88t1.88 0.787h24q1.093 0 1.88-0.787t0.787-1.88v-16q0-1.093-0.787-1.88t-1.88-0.787h-2.667zM10.667 4.267v-4q0-0.56 0.4-0.947t0.933-0.387h5.333q0.533 0 0.933 0.387t0.4 0.947v4h-8z"></path>
</svg>
