<!-- Generated by IcoMoon.io -->
<svg version="1.1" xmlns="http://www.w3.org/2000/svg" width="32" height="32" viewBox="0 0 32 32">
<title>uniE081</title>
<path d="M16-5.787q3.12 0 5.973 1.213t4.92 3.28 3.28 4.92 1.213 5.973-1.213 5.973-3.28 4.92-4.92 3.28-5.973 1.213-5.973-1.213-4.92-3.28-3.28-4.92-1.213-5.973 1.213-5.973 3.28-4.92 4.92-3.28 5.973-1.213zM17.333 1.6h-2.667q-0.56 0-0.947 0.387t-0.387 0.947v4h-4q-0.56 0-0.947 0.387t-0.387 0.947v2.667q0 0.56 0.387 0.947t0.947 0.387h4v4q0 0.56 0.387 0.947t0.947 0.387h2.667q0.56 0 0.947-0.387t0.387-0.947v-4h4q0.56 0 0.947-0.387t0.387-0.947v-2.667q0-0.56-0.387-0.947t-0.947-0.387h-4v-4q0-0.56-0.387-0.947t-0.947-0.387z"></path>
</svg>
