<!-- Generated by IcoMoon.io -->
<svg version="1.1" xmlns="http://www.w3.org/2000/svg" width="33" height="32" viewBox="0 0 33 32">
<title>uniE137</title>
<path d="M2.667-6.293h26.667q1.093 0 1.88 0.787t0.787 1.88v2.667q0 1.093-0.787 1.88t-1.88 0.787h-26.667q-1.093 0-1.88-0.787t-0.787-1.88v-2.667q0-1.093 0.787-1.88t1.88-0.787zM29.333-3.627h-5.333v2.667h5.333v-2.667zM2.667 4.373h26.667q1.093 0 1.88 0.787t0.787 1.88v2.667q0 1.093-0.787 1.88t-1.88 0.787h-26.667q-1.093 0-1.88-0.787t-0.787-1.88v-2.667q0-1.093 0.787-1.88t1.88-0.787zM29.333 7.040h-13.333v2.667h13.333v-2.667zM2.667 15.040h26.667q1.093 0 1.88 0.787t0.787 1.88v2.667q0 1.093-0.787 1.88t-1.88 0.787h-26.667q-1.093 0-1.88-0.787t-0.787-1.88v-2.667q0-1.093 0.787-1.88t1.88-0.787zM29.333 17.707h-8v2.667h8v-2.667z"></path>
</svg>
