<!-- Generated by IcoMoon.io -->
<svg version="1.1" xmlns="http://www.w3.org/2000/svg" width="32" height="32" viewBox="0 0 32 32">
<title>uniE230</title>
<path d="M5.653-6.347h20.8q2.293 0 3.92 1.627t1.627 3.92v11.093q0 1.36-0.48 3.8t-0.96 4.2l-0.48 1.76q-0.773 2.32-2.493 3.907t-3.907 1.587h-15.253q-2.187 0-3.92-1.573t-2.48-3.92q-0.213-0.747-0.533-1.947t-0.853-3.827-0.533-3.987v-11.093q0-2.293 1.627-3.92t3.92-1.627zM16-2.267q-1.867 0-3.533 0.307t-2.813 0.813-2.093 1.107-1.52 1.2-0.96 1.093-0.547 0.813l-0.16 0.32 4.16 6.48h14.933l4.16-6.48q-0.053-0.133-0.16-0.333t-0.533-0.787-0.973-1.12-1.52-1.187-2.107-1.12-2.8-0.787-3.533-0.32zM20.32 6.853h-4.187l5.2-6.96z"></path>
</svg>
