<!-- Generated by IcoMoon.io -->
<svg version="1.1" xmlns="http://www.w3.org/2000/svg" width="32" height="32" viewBox="0 0 32 32">
<title>uniE149</title>
<path d="M14.96-6.32q2.24 0 4.28 1.067t3.293 2.92 1.253 3.933h-4.080q0-1.067-0.52-1.907t-1.32-1.293-1.587-0.693-1.48-0.24q-0.987 0-2.107 0.387t-1.653 0.947q-1.093 1.173-1.093 2.693 0 0.693 0.36 1.68t0.707 1.627 0.987 1.76q0.16 0.24 0.24 0.373h6.427v2.667h-5.253q0.213 1.333-0.067 3.067t-0.84 2.533q-1.2 1.653-2.64 2.987 0.907-0.267 2.213-0.467t1.893-0.2q0.853-0.027 2.72 0.427t2.773 0.453q2.213 0 3.627-0.8l1.333 3.92q-0.827 0.507-1.547 0.813t-1.467 0.413-1.12 0.12-1.227 0.013q-0.613 0-2.027-0.453t-2.96-0.867-2.56-0.307q-1.040 0.080-2.187 0.427t-1.787 0.667l-0.613 0.293-1.467-3.867q0.107-0.080 0.427-0.293t0.413-0.28 0.347-0.24 0.413-0.32 0.387-0.373 0.467-0.493q1.28-1.467 1.44-3.373t-0.8-3.8h-5.893v-2.667h4.427q-0.613-1.253-1.173-2.773-0.187-0.533-0.32-1.107t-0.16-1.48 0.16-1.773 0.787-1.88 1.56-1.893q2.587-2.347 7.013-2.347z"></path>
</svg>
