<!-- Generated by IcoMoon.io -->
<svg version="1.1" xmlns="http://www.w3.org/2000/svg" width="32" height="32" viewBox="0 0 32 32">
<title>uniE237</title>
<path d="M9.333-6.4h13.333q4.32 0 6.827 2.493t2.507 6.84v13.333q0 4.4-2.493 6.867t-6.84 2.467h-13.333q-4.4 0-6.867-2.467t-2.467-6.867v-13.333q0-4.4 2.467-6.867t6.867-2.467zM24-1.067h-16q-1.093 0-1.88 0.787t-0.787 1.88v16q0 1.093 0.787 1.88t1.88 0.787h16q1.093 0 1.88-0.787t0.787-1.88v-16q0-1.093-0.787-1.88t-1.88-0.787zM9.333 1.6h13.333q0.56 0 0.947 0.387t0.387 0.947v8q0 0.56-0.387 0.947t-0.947 0.387h-13.333q-0.56 0-0.947-0.387t-0.387-0.947v-8q0-0.56 0.387-0.947t0.947-0.387zM10.667 4.267v5.333h10.667v-5.333h-10.667z"></path>
</svg>
