<!-- Generated by IcoMoon.io -->
<svg version="1.1" xmlns="http://www.w3.org/2000/svg" width="32" height="32" viewBox="0 0 32 32">
<title>uniE009</title>
<path d="M0.667-3.733h30.667q0.267 0 0.467 0.2t0.2 0.467v28q0 0.267-0.2 0.467t-0.467 0.2h-30.667q-0.267 0-0.467-0.2t-0.2-0.467v-28q0-0.267 0.2-0.467t0.467-0.2zM2.667-1.067v2.667h2.667v-2.667h-2.667zM23.333-1.067h-14.667q-0.267 0-0.467 0.2t-0.2 0.467v9.333q0 0.267 0.2 0.467t0.467 0.2h14.667q0.267 0 0.467-0.2t0.2-0.467v-9.333q0-0.267-0.2-0.467t-0.467-0.2zM26.667-1.067v2.667h2.667v-2.667h-2.667zM2.667 4.267v2.667h2.667v-2.667h-2.667zM26.667 4.267v2.667h2.667v-2.667h-2.667zM2.667 9.6v2.667h2.667v-2.667h-2.667zM26.667 9.6v2.667h2.667v-2.667h-2.667zM23.333 12.267h-14.667q-0.267 0-0.467 0.2t-0.2 0.467v9.333q0 0.267 0.2 0.467t0.467 0.2h14.667q0.267 0 0.467-0.2t0.2-0.467v-9.333q0-0.267-0.2-0.467t-0.467-0.2zM2.667 14.933v2.667h2.667v-2.667h-2.667zM26.667 14.933v2.667h2.667v-2.667h-2.667zM2.667 20.267v2.667h2.667v-2.667h-2.667zM26.667 20.267v2.667h2.667v-2.667h-2.667z"></path>
</svg>
