<!-- Generated by IcoMoon.io -->
<svg version="1.1" xmlns="http://www.w3.org/2000/svg" width="32" height="32" viewBox="0 0 32 32">
<title>uniE017</title>
<path d="M14.667-6.4h2.667q0.56 0 0.947 0.387t0.387 0.947v10.667q0 0.56-0.387 0.947t-0.947 0.387h-2.667q-0.56 0-0.947-0.387t-0.387-0.947v-10.667q0-0.56 0.387-0.947t0.947-0.387zM21.333-0.4v-4.427q4.453 1.653 7.253 5.587t2.8 8.84q0 3.12-1.213 5.973t-3.28 4.92-4.92 3.28-5.973 1.213-5.973-1.213-4.92-3.28-3.28-4.92-1.213-5.973q0-4.907 2.8-8.84t7.253-5.587v4.427q-2.747 1.467-4.4 4.133t-1.653 5.867q0 3.093 1.52 5.72t4.147 4.147 5.72 1.52 5.72-1.52 4.147-4.147 1.52-5.72q0-3.2-1.653-5.867t-4.4-4.133z"></path>
</svg>
