<!-- Generated by IcoMoon.io -->
<svg version="1.1" xmlns="http://www.w3.org/2000/svg" width="32" height="32" viewBox="0 0 32 32">
<title>uniE176</title>
<path d="M29.333-1.067v10.667l-4.4-4.4q-0.373-0.4-0.933-0.4t-0.933 0.4l-7.013 7.067h-10.72v10.667h-4q-0.56 0-0.947-0.387t-0.387-0.947v-26.667q0-0.533 0.387-0.933t0.947-0.4h6.667v8h13.333v-8h2.667zM18.667-1.067h-2.667v-5.333h2.667v5.333zM24.933 10.533l6.133 6.107q0.373 0.4 0.267 0.68t-0.667 0.28h-4v6.667q0 0.533-0.387 0.933t-0.947 0.4h-2.667q-0.56 0-0.947-0.4t-0.387-0.933v-6.667h-4q-0.56 0-0.667-0.28t0.267-0.68l6.133-6.107q0.373-0.4 0.933-0.4t0.933 0.4z"></path>
</svg>
