<!-- Generated by IcoMoon.io -->
<svg version="1.1" xmlns="http://www.w3.org/2000/svg" width="32" height="32" viewBox="0 0 32 32">
<title>uniE121</title>
<path d="M31.173 14.933l-4.587-19.52q-0.133-0.613-0.613-1.213t-1.013-0.6h-17.92q-0.533 0-1.013 0.533t-0.613 1.093l-4.587 19.707h30.347zM29.333 17.6h-26.667q-1.093 0-1.88 0.787t-0.787 1.88v2.667q0 1.093 0.787 1.88t1.88 0.787h26.667q1.093 0 1.88-0.787t0.787-1.88v-2.667q0-1.093-0.787-1.88t-1.88-0.787zM21.333 22.933v-2.667h2.667v2.667h-2.667zM26.667 22.933v-2.667h2.667v2.667h-2.667z"></path>
</svg>
