<!-- Generated by IcoMoon.io -->
<svg version="1.1" xmlns="http://www.w3.org/2000/svg" width="32" height="32" viewBox="0 0 32 32">
<title>uniE184</title>
<path d="M29.333 6.933l-5.333 5.333h-16l-5.333-5.333v-13.333h5.333v5.333h5.333v-5.333h5.333v5.333h5.333v-5.333h5.333v13.333zM6.667 14.933h18.667q0.56 0 0.947 0.387t0.387 0.947-0.387 0.947-0.947 0.387h-0.32l3.653 2.667h-25.333l3.653-2.667h-0.32q-0.56 0-0.947-0.387t-0.387-0.947 0.387-0.947 0.947-0.387zM1.333 22.933h29.333q0.56 0 0.947 0.387t0.387 0.947v1.333h-32v-1.333q0-0.56 0.387-0.947t0.947-0.387z"></path>
</svg>
