<!-- Generated by IcoMoon.io -->
<svg version="1.1" xmlns="http://www.w3.org/2000/svg" width="32" height="32" viewBox="0 0 32 32">
<title>uniE102</title>
<path d="M6.933-6.4q0.24 0 0.507 0.053t0.4 0.107l0.133 0.053q0.587 0.267 1.173 0.613l5.227 3.147q0.56 0.347 0.96 0.64 0.773 0.56 0.987 0.32 0.293-0.347 1.307-0.933l5.227-3.147q0.587-0.347 1.2-0.613 0.453-0.187 1.013-0.187 0.613 0 1.253 0.44t0.987 0.893l0.347 0.427q0.373 0.56 0.48 1.2l0.667 3.28 0.213 1.173q0.027 0.24 0.227 0.387t0.467 0.147h1.627q0.267 0 0.467 0.2t0.2 0.467v1.333q0 0.267-0.2 0.467t-0.467 0.2h-1.333q-0.267 0-0.467 0.2t-0.2 0.467v4.667h-10.667v-8h-5.333v8h-10.667v-4.667q0-0.267-0.2-0.467t-0.467-0.2h-1.333q-0.267 0-0.467-0.2t-0.2-0.467v-1.333q0-0.267 0.2-0.467t0.467-0.2h1.627q0.293 0 0.48-0.080t0.187-0.213q0-0.107 0.24-1.387l0.667-3.413q0.133-0.667 0.507-1.2 0.053-0.080 0.133-0.187t0.36-0.4 0.573-0.52 0.707-0.413 0.787-0.187zM24.4-3.173l-4.427 4.32q-0.187 0.187-0.133 0.32t0.32 0.133h5.84q0.267 0 0.4-0.187t0.053-0.453l-1.36-3.973q-0.080-0.267-0.293-0.32t-0.4 0.16zM12.347 1.147l-4.72-4.187q-0.213-0.187-0.427-0.133t-0.293 0.32l-1.36 3.813q-0.080 0.267 0.053 0.453t0.4 0.187h6.16q0.293 0 0.333-0.133t-0.147-0.32zM13.333 25.6h-10q-0.267 0-0.467-0.2t-0.2-0.467v-10h10.667v10.667zM29.333 14.933v10q0 0.267-0.2 0.467t-0.467 0.2h-10v-10.667h10.667z"></path>
</svg>
