<!-- Generated by IcoMoon.io -->
<svg version="1.1" xmlns="http://www.w3.org/2000/svg" width="32" height="32" viewBox="0 0 32 32">
<title>uniE162</title>
<path d="M21.147-5.92l0.24 0.24q0.213 0.267 0.133 0.72-0.080 0.293-2.107 6.013t-2.080 5.907l8-0.027q0.64 0 0.867 0.467t-0.147 0.947q-0.027 0-3.56 4.133t-7.12 8.333-3.693 4.333q-0.32 0.4-0.693 0.4h-0.24l-0.24-0.213q-0.24-0.293-0.107-0.853 0.053-0.24 1.12-3.293t2.107-5.987l1.040-2.933h-8.053q-0.613 0-0.827-0.507-0.267-0.56 0.16-1.093 2-2.293 5.587-6.333t6.080-6.853 2.627-2.973q0.24-0.427 0.667-0.427h0.24z"></path>
</svg>
