<!-- Generated by IcoMoon.io -->
<svg version="1.1" xmlns="http://www.w3.org/2000/svg" width="32" height="32" viewBox="0 0 32 32">
<title>uniE219</title>
<path d="M5.333-3.733h21.333q2.213 0 3.773 1.56t1.56 3.773v5.333h-2.667q0-1.093-0.787-1.88t-1.88-0.787h-6.667q-1.093 0-1.88 0.787t-0.787 1.88h-2.667q0-1.093-0.787-1.88t-1.88-0.787h-6.667q-1.093 0-1.88 0.787t-0.787 1.88h-2.667v-5.333q0-2.213 1.56-3.773t3.773-1.56zM2.667 9.6h26.667q1.093 0 1.88 0.787t0.787 1.88v8h-32v-8q0-1.093 0.787-1.88t1.88-0.787zM8 22.933v1.333q0 0.56-0.387 0.947t-0.947 0.387h-2.667q-0.56 0-0.947-0.387t-0.387-0.947v-1.333h5.333zM29.333 22.933v1.333q0 0.56-0.387 0.947t-0.947 0.387h-2.667q-0.56 0-0.947-0.387t-0.387-0.947v-1.333h5.333z"></path>
</svg>
