<!-- Generated by IcoMoon.io -->
<svg version="1.1" xmlns="http://www.w3.org/2000/svg" width="32" height="32" viewBox="0 0 32 32">
<title>uniE245</title>
<path d="M1.333-6.4h10.667q0.56 0 0.947 0.387t0.387 0.947v24q0 0.56-0.387 0.947t-0.947 0.387h-10.667q-0.56 0-0.947-0.387t-0.387-0.947v-24q0-0.56 0.387-0.947t0.947-0.387zM17.333 6.933h10.667q0.56 0 0.947 0.387t0.387 0.947v10.667q0 0.56-0.387 0.947t-0.947 0.387h-10.667q-0.56 0-0.947-0.387t-0.387-0.947v-10.667q0-0.56 0.387-0.947t0.947-0.387zM18.667 9.6v8h8v-8h-8zM32 25.6h-32v-2.667h32v2.667z"></path>
</svg>
