<!-- Generated by IcoMoon.io -->
<svg version="1.1" xmlns="http://www.w3.org/2000/svg" width="32" height="32" viewBox="0 0 32 32">
<title>uniE126</title>
<path d="M16-3.733h6.667q0.613 0 1.2 0.44t1.013 1.080l6.347 9.173q0.773 0.773 0.773 1.973v2.667q0 1.173-0.8 2.253t-1.867 1.080h-8.747q0.747 3.147 0.747 3.333v4q0 1.173-0.8 2.253t-1.867 1.080h-1.333q-0.72 0-1.373-0.533t-1-1.28l-2.56-5.28-3.867-5.227q-0.533-0.72-0.533-1.68v-10.667q0-1.040 0.733-1.52t1.933-0.48h1.627q3.307-2.667 3.707-2.667zM1.333-1.067h2.667q0.56 0 0.947 0.387t0.387 0.947v13.333q0 0.56-0.387 0.947t-0.947 0.387h-2.667q-0.56 0-0.947-0.387t-0.387-0.947v-13.333q0-0.56 0.387-0.947t0.947-0.387zM16.96-1.067l-3.627 2.667h-2.667v10l4 5.68 2.667 5.653h1.333v-4.667l-1.333-6h12v-3.333l-6.667-10h-5.707z"></path>
</svg>
