<!-- Generated by IcoMoon.io -->
<svg version="1.1" xmlns="http://www.w3.org/2000/svg" width="32" height="32" viewBox="0 0 32 32">
<title>uniE123</title>
<path d="M14.747-6.4h2.507q0.533 0 0.773 0.28t0.080 0.787l-0.48 0.987q2.213 0.507 3.84 2.2t2.027 3.747l1.68 8.72 3.147 4.613h0.453q0.507 0 0.88 0.387t0.373 0.933-0.347 1.080-0.827 0.72q-0.213 0.107-0.613 0.253t-1.733 0.52-2.747 0.667-3.533 0.533-4.227 0.24q-1.52 0-3.067-0.133t-2.773-0.32-2.36-0.413-1.96-0.467-1.453-0.427-0.947-0.32l-0.293-0.107q-0.48-0.213-0.827-0.747t-0.347-1.080 0.373-0.933 0.88-0.387h0.453l3.147-4.613 1.68-8.72q0.4-2.053 2.027-3.733t3.84-2.213l-0.48-0.853q-0.16-0.507 0.093-0.853t0.76-0.347zM13.28 22.667q1.333 0.16 2.72 0.16 1.413 0 2.72-0.16-0.32 1.307-1.053 2.12t-1.667 0.813-1.68-0.813-1.040-2.12z"></path>
</svg>
