<!-- Generated by IcoMoon.io -->
<svg version="1.1" xmlns="http://www.w3.org/2000/svg" width="32" height="32" viewBox="0 0 32 32">
<title>uniE216</title>
<path d="M16-9.067q1.093 0 1.88 0.787t0.787 1.88v2.080q1.227 0.693 1.947 1.92t0.72 2.667v1.333h-10.667v-1.333q0-1.44 0.72-2.667t1.947-1.92v-2.080q0-1.093 0.787-1.88t1.88-0.787zM10.667 4.267h10.667q1.44 0 2.667 0.72t1.92 1.947h-4.587v2.667h5.333v2.667h-5.333v2.667h5.333v2.667h-5.333v2.667h5.333q0 2.213-1.56 3.773t-3.773 1.56h-10.667q-2.213 0-3.773-1.56t-1.56-3.773v-10.667q0-2.213 1.56-3.773t3.773-1.56z"></path>
</svg>
