<!-- Generated by IcoMoon.io -->
<svg version="1.1" xmlns="http://www.w3.org/2000/svg" width="32" height="32" viewBox="0 0 32 32">
<title>uniE096</title>
<path d="M22.667-6.4h8q0.56 0 0.947 0.387t0.387 0.947v8q0 0.56-0.28 0.667t-0.653-0.267l-2.507-2.507-6.64 6.64q-0.213 0.187-0.48 0.187t-0.48-0.187l-2.827-2.827q-0.187-0.213-0.187-0.48t0.187-0.48l6.64-6.64-2.507-2.507q-0.373-0.373-0.267-0.653t0.667-0.28zM9.333 25.6h-8q-0.56 0-0.947-0.387t-0.387-0.947v-8q0-0.56 0.28-0.667t0.653 0.267l2.507 2.507 6.64-6.64q0.213-0.187 0.48-0.187t0.48 0.187l2.827 2.827q0.187 0.213 0.187 0.48t-0.187 0.48l-6.64 6.64 2.507 2.507q0.373 0.373 0.267 0.653t-0.667 0.28z"></path>
</svg>
