<!-- Generated by IcoMoon.io -->
<svg version="1.1" xmlns="http://www.w3.org/2000/svg" width="32" height="32" viewBox="0 0 32 32">
<title>uniE105</title>
<path d="M16-3.573q2.187 0 4.28 0.6t3.733 1.573 3.107 2.2 2.52 2.533 1.813 2.533 1.133 2.2 0.373 1.533-0.373 1.533-1.147 2.2-1.827 2.533-2.52 2.533-3.107 2.2-3.733 1.573-4.253 0.6-4.253-0.6-3.733-1.573-3.107-2.2-2.52-2.533-1.827-2.533-1.147-2.2-0.373-1.533 0.373-1.533 1.133-2.2 1.813-2.533 2.52-2.533 3.107-2.2 3.733-1.573 4.28-0.6zM23.68 3.493q-0.4-0.4-0.48-0.32t0.133 0.587q0.667 1.52 0.667 3.173 0 3.307-2.347 5.653t-5.653 2.347-5.653-2.347-2.347-5.653q0-1.573 0.613-3.040 0.213-0.507 0.12-0.587t-0.467 0.32q-1.867 1.84-4.267 4.907-0.347 0.427-0.4 1.080t0.24 1.133q0.587 0.96 1.253 1.893t1.867 2.187 2.467 2.16 3.013 1.56 3.56 0.653 3.56-0.64 3.013-1.56 2.467-2.173 1.867-2.173 1.253-1.88q0.293-0.48 0.24-1.133t-0.373-1.107q-2.4-3.12-4.347-5.040zM11.947 6.213l-0.933 0.96q-0.4 0.4-0.52 1.027t0.12 1.107q0.987 1.813 2.48 3.093 0.427 0.347 1.027 0.293t0.973-0.453l0.933-0.907q0.373-0.4 0.333-0.893t-0.44-0.893q-1.173-1.173-2.373-3.12-0.293-0.48-0.747-0.533t-0.853 0.32z"></path>
</svg>
