<!-- Generated by IcoMoon.io -->
<svg version="1.1" xmlns="http://www.w3.org/2000/svg" width="32" height="32" viewBox="0 0 32 32">
<title>uniE134</title>
<path d="M16-5.813q3.147 0 6 1.213t4.92 3.28 3.28 4.92 1.213 6-1.213 6-3.28 4.92-4.92 3.28-6 1.213-6-1.213-4.92-3.28-3.28-4.92-1.213-6 1.213-6 3.28-4.92 4.92-3.28 6-1.213zM18 1.6h-4q-0.267 0-0.467 0.2t-0.2 0.467v7.333h-3.653q-0.56 0-0.693 0.307t0.213 0.733l5.947 7.333q0.347 0.427 0.853 0.427t0.853-0.427l5.947-7.333q0.347-0.427 0.213-0.733t-0.693-0.307h-3.653v-7.333q0-0.267-0.2-0.467t-0.467-0.2z"></path>
</svg>
