<!-- Generated by IcoMoon.io -->
<svg version="1.1" xmlns="http://www.w3.org/2000/svg" width="32" height="32" viewBox="0 0 32 32">
<title>uniE110</title>
<path d="M30.267-5.467l6.64 6.133q0.4 0.373 0.4 0.933t-0.4 0.933l-6.64 6.133q-0.373 0.373-0.653 0.267t-0.28-0.667v-4h-4.24l-16 16h-7.76q-0.56 0-0.947-0.387t-0.387-0.947v-2.667q0-0.56 0.387-0.947t0.947-0.387h5.573l16-16h6.427v-4q0-0.56 0.28-0.667t0.653 0.267zM13.92 3.76l-3.76 3.76-3.253-3.253h-5.573q-0.56 0-0.947-0.387t-0.387-0.947v-2.667q0-0.56 0.387-0.947t0.947-0.387h7.76zM30.267 10.533l6.64 6.133q0.4 0.373 0.4 0.933t-0.4 0.933l-6.64 6.133q-0.373 0.373-0.653 0.267t-0.28-0.667v-4h-6.427l-4.827-4.827 3.76-3.76 3.253 3.253h4.24v-4q0-0.56 0.28-0.667t0.653 0.267z"></path>
</svg>
