<!-- Generated by IcoMoon.io -->
<svg version="1.1" xmlns="http://www.w3.org/2000/svg" width="32" height="32" viewBox="0 0 32 32">
<title>uniE086</title>
<path d="M16-5.787q3.12 0 5.973 1.213t4.92 3.28 3.28 4.92 1.213 5.973-1.213 5.973-3.28 4.92-4.92 3.28-5.973 1.213-5.973-1.213-4.92-3.28-3.28-4.92-1.213-5.973 1.213-5.973 3.28-4.92 4.92-3.28 5.973-1.213zM18-1.067h-4q-0.267 0-0.467 0.2t-0.2 0.467v4q0 0.267 0.2 0.467t0.467 0.2h4q0.267 0 0.467-0.2t0.2-0.467v-4q0-0.267-0.2-0.467t-0.467-0.2zM18 6.933h-6.667q-0.267 0-0.467 0.2t-0.2 0.467v1.333q0 0.267 0.2 0.467t0.467 0.2h2v5.333h-2q-0.267 0-0.467 0.2t-0.2 0.467v1.333q0 0.267 0.2 0.467t0.467 0.2h9.333q0.267 0 0.467-0.2t0.2-0.467v-1.333q0-0.267-0.2-0.467t-0.467-0.2h-2v-7.333q0-0.267-0.2-0.467t-0.467-0.2z"></path>
</svg>
