<!-- Generated by IcoMoon.io -->
<svg version="1.1" xmlns="http://www.w3.org/2000/svg" width="32" height="32" viewBox="0 0 32 32">
<title>uniE007</title>
<path d="M10.853 4.267l3.493-9.413q0.187-0.507 0.467-0.507t0.467 0.507l3.44 9.413h11.227q0.56 0 0.64 0.227t-0.373 0.547l-9.12 6.64 3.467 10.693q0.187 0.533-0.013 0.68t-0.653-0.173l-9.147-6.56-9.12 6.587q-0.453 0.32-0.653 0.173t-0.013-0.68l3.467-10.667-9.253-6.693q-0.453-0.32-0.373-0.547t0.613-0.227h11.44zM12.72 6.933h-6.4l5.253 3.787-1.973 6.027 5.147-3.707 5.2 3.733-1.973-6.107 5.12-3.733h-6.24l-2.080-5.627z"></path>
</svg>
