<!-- Generated by IcoMoon.io -->
<svg version="1.1" xmlns="http://www.w3.org/2000/svg" width="32" height="32" viewBox="0 0 32 32">
<title>uniE234</title>
<path d="M6.667 4.267q1.653 0 2.827 1.173t1.173 2.827-1.173 2.827-2.827 1.173-2.827-1.173-1.173-2.827 1.173-2.827 2.827-1.173zM17.333 4.267q1.653 0 2.827 1.173t1.173 2.827-1.173 2.827-2.827 1.173-2.827-1.173-1.173-2.827 1.173-2.827 2.827-1.173zM28 4.267q1.653 0 2.827 1.173t1.173 2.827-1.173 2.827-2.827 1.173-2.827-1.173-1.173-2.827 1.173-2.827 2.827-1.173z"></path>
</svg>
