<!-- Generated by IcoMoon.io -->
<svg version="1.1" xmlns="http://www.w3.org/2000/svg" width="32" height="32" viewBox="0 0 32 32">
<title>uniE152</title>
<path d="M10.667 17.6h4q0.56 0 0.667 0.293t-0.267 0.667l-6.133 6.667q-0.373 0.4-0.933 0.4t-0.933-0.4l-6.133-6.667q-0.373-0.373-0.267-0.667t0.667-0.293h4v-24h5.333v24zM26.667-2.4l-5.333 6.667h5.333v2.667h-8v-4l5.333-6.667h-5.333v-2.667h8v4zM26.667 25.6h-2.667v-2.667h-2.667v2.667h-2.667v-13.333h8v13.333zM21.36 14.933v5.333h2.667v-5.333h-2.667z"></path>
</svg>
