<!-- Generated by IcoMoon.io -->
<svg version="1.1" xmlns="http://www.w3.org/2000/svg" width="32" height="32" viewBox="0 0 32 32">
<title>uniE190</title>
<path d="M5.333-3.733h18.667q3.307 0 5.653 2.347t2.347 5.653v13.333q0 3.307-2.347 5.653t-5.653 2.347h-18.667q-3.307 0-5.653-2.347t-2.347-5.653v-13.333q0-3.307 2.347-5.653t5.653-2.347zM2.667 1.6v18.667h24v-18.667h-24zM24 17.6h-18.667v-13.333h18.667v13.333zM21.333 6.933h-3.467q-1.013 0-1.773 1.147t-0.76 2.88 0.72 2.853 1.813 1.12h3.467v-8zM8 6.933v8h3.467q1.093 0 1.813-1.12t0.72-2.853-0.76-2.88-1.773-1.147h-3.467z"></path>
</svg>
