<!-- Generated by IcoMoon.io -->
<svg version="1.1" xmlns="http://www.w3.org/2000/svg" width="32" height="32" viewBox="0 0 32 32">
<title>uniE139</title>
<path d="M13.333-6.4h5.333q1.093 0 1.88 0.787t0.787 1.88v2.667h8q1.093 0 1.88 0.787t0.787 1.88v10.667h-13.333v-2.667h-5.333v2.667h-13.333v-10.667q0-1.093 0.787-1.88t1.88-0.787h8v-2.667q0-1.093 0.787-1.88t1.88-0.787zM13.333-3.733v2.667h5.333v-2.667h-5.333zM32 14.933v5.333q0 1.093-0.787 1.88t-1.88 0.787h-26.667q-1.093 0-1.88-0.787t-0.787-1.88v-5.333h32z"></path>
</svg>
