<!-- Generated by IcoMoon.io -->
<svg version="1.1" xmlns="http://www.w3.org/2000/svg" width="32" height="32" viewBox="0 0 32 32">
<title>uniE148</title>
<path d="M18.667-7.68v2.080q1.013 0.133 1.933 0.387t2.013 0.84 1.893 1.427 1.387 2.24 0.64 3.16h-4.24q-0.107-0.96-0.28-1.573t-0.56-1.2-1.067-0.947-1.72-0.547v8.187l1.707 0.347q0.907 0.187 1.707 0.44t1.867 0.853 1.8 1.4 1.267 2.133 0.533 2.987q0 3.707-2.373 5.973t-6.507 2.587v2.053h-2.667v-2.107q-4-0.427-6.32-2.747-1.067-1.067-1.4-2.493t-0.413-3.72h3.707q0.133 2.053 1.293 3.36t3.133 1.733v-8.933l-0.72-0.213q-1.227-0.373-2.107-0.707t-1.92-0.96-1.68-1.387-1.067-1.933-0.427-2.613q0-1.867 0.667-3.36t1.8-2.453 2.52-1.52 2.933-0.72v-2.053h2.667zM16 5.493v-7.307q-0.773 0.107-1.333 0.293t-1.12 0.573-0.84 1.107-0.28 1.733q0 0.773 0.187 1.347t0.44 0.907 0.76 0.6 0.84 0.373 1 0.267q0.24 0.080 0.347 0.107zM18.667 11.013v8.267q0.587-0.053 1.133-0.173t1.2-0.413 1.107-0.72 0.773-1.12 0.32-1.587-0.333-1.587-1.013-1.187-1.413-0.827-1.773-0.653z"></path>
</svg>
