<!-- Generated by IcoMoon.io -->
<svg version="1.1" xmlns="http://www.w3.org/2000/svg" width="32" height="32" viewBox="0 0 32 32">
<title>uniE015</title>
<path d="M13.52-5.787q2.613 0 5 1.027t4.12 2.76 2.76 4.12 1.027 5q0 3.76-2.080 6.987l8 7.973q0.213 0.213 0.213 0.493t-0.213 0.493l-2.907 2.88q-0.187 0.213-0.467 0.213t-0.493-0.213l-8-7.973q-3.173 2.053-6.96 2.053-2.613 0-5.013-1.027t-4.12-2.747-2.747-4.12-1.027-5.013 1.027-5 2.747-4.12 4.12-2.76 5.013-1.027zM13.507-1.68q-2.387 0-4.413 1.173t-3.2 3.213-1.173 4.427 1.173 4.413 3.2 3.2 4.413 1.173 4.427-1.173 3.213-3.2 1.173-4.413-1.173-4.427-3.213-3.213-4.427-1.173zM11.333 1.6h4q0.267 0 0.467 0.2t0.2 0.467v2h2q0.267 0 0.467 0.2t0.2 0.467v4q0 0.267-0.2 0.467t-0.467 0.2h-2v2q0 0.267-0.2 0.467t-0.467 0.2h-4q-0.267 0-0.467-0.2t-0.2-0.467v-2h-2q-0.267 0-0.467-0.2t-0.2-0.467v-4q0-0.267 0.2-0.467t0.467-0.2h2v-2q0-0.267 0.2-0.467t0.467-0.2z"></path>
</svg>
