<!-- Generated by IcoMoon.io -->
<svg version="1.1" xmlns="http://www.w3.org/2000/svg" width="32" height="32" viewBox="0 0 32 32">
<title>uniE046</title>
<path d="M13.333-3.733h5.333q1.493 0 2.733 0.547t1.933 1.333 1.173 1.573 0.667 1.347l0.16 0.533h4q1.093 0 1.88 0.787t0.787 1.88v16q0 1.093-0.787 1.88t-1.88 0.787h-26.667q-1.093 0-1.88-0.787t-0.787-1.88v-16q0-1.093 0.787-1.88t1.88-0.787h4q0.053-0.213 0.173-0.573t0.64-1.28 1.2-1.627 1.92-1.28 2.733-0.573zM24 4.267v2.667h2.667v-2.667h-2.667zM16 6.133q-2.533 0-4.333 1.8t-1.8 4.333 1.8 4.333 4.333 1.8 4.333-1.8 1.8-4.333-1.8-4.333-4.333-1.8zM16 9.52q1.147 0 1.947 0.8t0.8 1.947-0.8 1.947-1.947 0.8-1.947-0.8-0.8-1.947 0.8-1.947 1.947-0.8z"></path>
</svg>
