<!-- Generated by IcoMoon.io -->
<svg version="1.1" xmlns="http://www.w3.org/2000/svg" width="32" height="32" viewBox="0 0 32 32">
<title>uniE115</title>
<path d="M10.773-1.067h19.893q0.56 0 0.947 0.387t0.387 0.947v14.693h4q0.56 0 0.667 0.28t-0.267 0.653l-6.133 6.64q-0.373 0.4-0.933 0.4t-0.933-0.4l-6.133-6.64q-0.373-0.373-0.267-0.653t0.667-0.28h4v-10.693h-10.16zM3.6-0.64l6.133 6.64q0.373 0.373 0.267 0.653t-0.667 0.28h-4v10.667h10.267l5.733 5.333h-20q-0.56 0-0.947-0.387t-0.387-0.947v-14.667h-4q-0.56 0-0.667-0.28t0.267-0.653l6.133-6.64q0.373-0.4 0.933-0.4t0.933 0.4z"></path>
</svg>
