<!-- Generated by IcoMoon.io -->
<svg version="1.1" xmlns="http://www.w3.org/2000/svg" width="32" height="32" viewBox="0 0 32 32">
<title>uniE073</title>
<path d="M6.667-1.067h5.333q0.56 0 0.947 0.387t0.387 0.947v21.333q0 0.56-0.387 0.947t-0.947 0.387h-5.333q-0.56 0-0.947-0.387t-0.387-0.947v-21.333q0-0.56 0.387-0.947t0.947-0.387zM17.333-1.067h5.333q0.56 0 0.947 0.387t0.387 0.947v21.333q0 0.56-0.387 0.947t-0.947 0.387h-5.333q-0.56 0-0.947-0.387t-0.387-0.947v-21.333q0-0.56 0.387-0.947t0.947-0.387z"></path>
</svg>
