<!-- Generated by IcoMoon.io -->
<svg version="1.1" xmlns="http://www.w3.org/2000/svg" width="32" height="32" viewBox="0 0 32 32">
<title>uniE157</title>
<path d="M9.333-3.733h10.667q4.32 0 6.827 2.493t2.507 6.84v10.667q0 4.4-2.493 6.867t-6.84 2.467h-10.667q-4.4 0-6.867-2.467t-2.467-6.867v-10.667q0-4.4 2.467-6.867t6.867-2.467zM21.333 1.6h-13.333q-1.093 0-1.88 0.787t-0.787 1.88v13.333q0 1.093 0.787 1.88t1.88 0.787h13.333q1.093 0 1.88-0.787t0.787-1.88v-13.333q0-1.093-0.787-1.88t-1.88-0.787z"></path>
</svg>
