<!-- Generated by IcoMoon.io -->
<svg version="1.1" xmlns="http://www.w3.org/2000/svg" width="32" height="32" viewBox="0 0 32 32">
<title>uniE051</title>
<path d="M29.333 1.6h-1.333q0-0.56-0.107-0.987t-0.253-0.707-0.48-0.467-0.587-0.293-0.76-0.147-0.827-0.053-0.987-0.013h-5.333v17.333q0 0.587 0.667 0.92t1.333 0.36l0.667 0.053v2.667h-10.667v-2.667q0.107 0 0.293-0.013t0.64-0.080 0.8-0.187 0.64-0.4 0.293-0.653v-17.333h-5.333q-0.667 0-0.987 0.013t-0.827 0.053-0.76 0.147-0.587 0.293-0.48 0.467-0.253 0.707-0.107 0.987h-1.333v-8h26.667v8zM31.12 24.267l-4.453 3.333v-2h-21.333v2l-4.453-3.333 4.453-3.333v2h21.333v-2z"></path>
</svg>
