<!-- Generated by IcoMoon.io -->
<svg version="1.1" xmlns="http://www.w3.org/2000/svg" width="32" height="32" viewBox="0 0 32 32">
<title>uniE215</title>
<path d="M16-6.4l8 4.293v3.707h-8q0 1.52 0.493 2.88t1.333 2.44 1.68 1.92 1.867 1.8 1.533 1.627h-14.133q-1.6-2.213-2.413-4.733t-0.813-4.76 0.88-4.387 2.333-3.72 3.36-2.573 3.88-1.107v2.613zM6.667 14.933h18.667q0.56 0 0.947 0.387t0.387 0.947-0.387 0.947-0.947 0.387h-0.347l3.68 2.667h-25.333l3.653-2.667h-0.32q-0.56 0-0.947-0.387t-0.387-0.947 0.387-0.947 0.947-0.387zM1.333 22.933h29.333q0.56 0 0.947 0.387t0.387 0.947v1.333h-32v-1.333q0-0.56 0.387-0.947t0.947-0.387z"></path>
</svg>
