<!-- Generated by IcoMoon.io -->
<svg version="1.1" xmlns="http://www.w3.org/2000/svg" width="32" height="32" viewBox="0 0 32 32">
<title>uniE135</title>
<path d="M16-5.76q3.093 0 5.933 1.227t4.907 3.293 3.293 4.907 1.227 5.933-1.227 5.933-3.293 4.907-4.907 3.293-5.933 1.227-5.933-1.227-4.907-3.293-3.293-4.907-1.227-5.933 1.227-5.933 3.293-4.907 4.907-3.293 5.933-1.227zM16.72-3.76q-0.4 0.32-0.973 0.547t-0.947 0.32-1.147 0.213-1.040 0.173q-0.4 0.080-1.213 0t-1.213 0.053q-0.533 0.187-1.373 0.707t-0.92 0.92q-0.080 0.293 0.173 0.6t0.227 0.493q-0.080 0.907-0.733 2.427t-0.787 2.107q-0.24 0.907 0.133 2.48t0.213 2.32q0 0.24 0.453 1.187t0.427 1.587q0.32 0 0.613 0.133t0.627 0.4 0.52 0.373q0.427 0.213 0.88 0.4t1.080 0.4 0.92 0.32q0.56 0.24 1.4 0.853t1.6 1.013 1.533 0.293q0.187 0.4-0.080 0.907t-0.6 1.067-0.253 1.013q0.347 0.56 0.613 0.92t0.733 0.733 0.973 0.48q0 0.187-0.093 0.427t-0.093 0.373 0.133 0.453q2.773 0.053 5.893-2.987 0.8-0.773 1.24-1.253t0.92-1.307 0.56-1.68q-0.347-0.213-0.987-0.227t-0.96-0.2q-0.4-0.187-1.32-0.4t-1.373-0.507q-0.48 0-1.093 0.013t-1.147 0.040-1.12 0.173-1.013 0.44q-1.36 0.933-1.76 0.32-0.107-0.027-0.093-0.68t0.013-0.68q-0.16-0.347-0.707-0.467t-0.653-0.173q0.027-0.4-0.013-0.813t-0.187-0.747-0.493-0.307-0.827 0.56q-0.613 0.667-1.12-0.107-0.507-0.747-0.213-1.547 0.16-0.427 0.587-0.587 0.16 0.027 0.693 0.040t0.893 0.107 0.52 0.36q0.187 0.32 0.48 0.64t0.573 0.547 0.533 0.4 0.413 0.28l0.133 0.080q0.053-0.32 0.2-0.813t0.213-0.92-0.013-0.853q-0.080-0.48 0.093-0.773t0.48-0.6 0.413-0.653q0.16-0.373 0.28-0.933t0.213-0.827 0.413-0.6 0.907-0.6q-0.16-0.48 0.267-0.96 0.213 0 0.64 0.040t0.653 0.040 0.533-0.12 0.547-0.413q-0.267-0.613-0.827-1.133t-1-0.787-1.307-0.72-1.16-0.613q0-0.027 0.053-0.213t0.080-0.307 0.040-0.28-0.027-0.253-0.12-0.12q0.827 0.347 1.56 0.387t1.027-0.067l0.32-0.133q0.133-0.747-0.253-1.227t-0.973-0.64-1.333-0.4-1.093-0.533q-0.48 0.107-0.987 0zM16.347-0.907q0 0.453 0.213 1.12t0.453 1.2 0.24 0.613q-0.213-0.027-1.053-0.147t-1.4-0.267-0.987-0.44q0.080-0.293 0.427-0.787t0.427-0.68q0.267 0.267 0.507 0.267t0.373-0.16 0.36-0.387 0.44-0.333z"></path>
</svg>
