<!-- Generated by IcoMoon.io -->
<svg version="1.1" xmlns="http://www.w3.org/2000/svg" width="32" height="32" viewBox="0 0 32 32">
<title>uniE213</title>
<path d="M16-5.893q2 0 3.413 1.413t1.413 3.413-1.413 3.413-3.413 1.413-3.413-1.413-1.413-3.413 1.413-3.413 3.413-1.413zM16.053 4.32h1.227q0.907 0 1.48 0.76t0.573 2.307q0 2.027 1.040 4.88h-8.64q1.040-2.853 1.040-4.88 0-1.547 0.573-2.307t1.507-0.76h1.2zM6.667 14.933h18.667q0.56 0 0.947 0.387t0.387 0.947-0.387 0.947-0.947 0.387h-0.347l3.68 2.667h-25.333l3.653-2.667h-0.32q-0.56 0-0.947-0.387t-0.387-0.947 0.387-0.947 0.947-0.387zM1.333 22.933h29.333q0.56 0 0.947 0.387t0.387 0.947v1.333h-32v-1.333q0-0.56 0.387-0.947t0.947-0.387z"></path>
</svg>
