<!-- Generated by IcoMoon.io -->
<svg version="1.1" xmlns="http://www.w3.org/2000/svg" width="32" height="32" viewBox="0 0 32 32">
<title>uniE169</title>
<path d="M3.6-1.68l3.787-3.787q0.373-0.373 0.933-0.373t0.933 0.373l2.053 2.053-5.653 5.653-2.053-2.027q-0.373-0.4-0.373-0.96t0.373-0.933zM17.467 2.8l5.6-5.6q0.373-0.373 0.653-0.267t0.28 0.667l-0.053 15.973q-0.027 0.533-0.413 0.933t-0.947 0.4l-15.92 0.027q-0.56 0-0.667-0.28t0.267-0.653l5.547-5.547-4.107-4.133 5.653-5.653zM1.333 17.6h26.667q0.56 0 0.947 0.387t0.387 0.947v6.667h-29.333v-6.667q0-0.56 0.387-0.947t0.947-0.387zM24 20.267v1.333h2.667v-1.333h-2.667z"></path>
</svg>
