<!-- Generated by IcoMoon.io -->
<svg version="1.1" xmlns="http://www.w3.org/2000/svg" width="32" height="32" viewBox="0 0 32 32">
<title>uniE030</title>
<path d="M25.253-2.667l3.6-3.6q0.187-0.187 0.333-0.133t0.147 0.347v9.653q0 0.267-0.2 0.467t-0.467 0.2h-9.653q-0.293 0-0.347-0.147t0.133-0.333l3.547-3.547q-2.907-2.027-6.347-2.027-3.093 0-5.72 1.52t-4.147 4.147-1.52 5.72 1.52 5.72 4.147 4.147 5.72 1.52 5.72-1.52 4.147-4.147 1.52-5.72h4q0 3.12-1.213 5.973t-3.28 4.92-4.92 3.28-5.973 1.213-5.973-1.213-4.92-3.28-3.28-4.92-1.213-5.973 1.213-5.973 3.28-4.92 4.92-3.28 5.973-1.213q5.12 0 9.253 3.12z"></path>
</svg>
