<!-- Generated by IcoMoon.io -->
<svg version="1.1" xmlns="http://www.w3.org/2000/svg" width="32" height="32" viewBox="0 0 32 32">
<title>uniE129</title>
<path d="M14.667-8.907q1.92 0 2.96 1.467t1.040 3.707v2.827l9.040 3.493q0.56 0.16 1.093 0.52t0.533 0.76v9.12q0 0.187-2.16 2.4t-2.507 2.213h-14q-0.453 0-0.947-0.373t-0.76-0.747l-0.24-0.373-6.133-9.68q-0.427-0.827 0.16-1.413l2.987-2.933q0.347-0.347 0.853-0.36t0.907 0.307l3.227 2.24v-8.053q0-2.24 1.013-3.68t2.933-1.44zM16-0.32v-5.413q0-0.56-0.667-0.813t-1.333-0.013-0.667 0.827v12.653t-0.013 0.16-0.040 0.133-0.053 0.133-0.067 0.107-0.107 0.107-0.12 0.067q-0.667 0.32-1.253-0.133l-4.88-3.893-2.213 2.293 6.293 9.040h13.413l2.373-2.667v-7.813l-9.040-3.493q-0.56-0.16-1.093-0.52t-0.533-0.76zM12 20.267h13.333q0.56 0 0.947 0.387t0.387 0.947v2.667q0 0.56-0.387 0.947t-0.947 0.387h-13.333q-0.56 0-0.947-0.387t-0.387-0.947v-2.667q0-0.56 0.387-0.947t0.947-0.387z"></path>
</svg>
