<!-- Generated by IcoMoon.io -->
<svg version="1.1" xmlns="http://www.w3.org/2000/svg" width="32" height="32" viewBox="0 0 32 32">
<title>uniE170</title>
<path d="M9.333-6.4l15.973 0.053q0.533 0.027 0.933 0.413t0.4 0.947l0.027 15.92q0 0.56-0.28 0.667t-0.653-0.267l-5.547-5.547-4.133 4.107-5.653-5.653 4.133-4.107-5.6-5.6q-0.373-0.373-0.267-0.653t0.667-0.28zM13.973 11.947l-2.027 2.053q-0.4 0.373-0.96 0.373t-0.933-0.373l-3.787-3.787q-0.373-0.373-0.373-0.933t0.373-0.933l2.053-2.053zM1.333 17.6h26.667q0.56 0 0.947 0.387t0.387 0.947v6.667h-29.333v-6.667q0-0.56 0.387-0.947t0.947-0.387zM24 20.267v1.333h2.667v-1.333h-2.667z"></path>
</svg>
