<!-- Generated by IcoMoon.io -->
<svg version="1.1" xmlns="http://www.w3.org/2000/svg" width="32" height="32" viewBox="0 0 32 32">
<title>uniE088</title>
<path d="M16-5.787q3.12 0 5.973 1.213t4.92 3.28 3.28 4.92 1.213 5.973-1.213 5.973-3.28 4.92-4.92 3.28-5.973 1.213-5.973-1.213-4.92-3.28-3.28-4.92-1.213-5.973 1.213-5.973 3.28-4.92 4.92-3.28 5.973-1.213zM16-1.787q-3.093 0-5.72 1.52t-4.147 4.147-1.52 5.72 1.52 5.72 4.147 4.147 5.72 1.52 5.72-1.52 4.147-4.147 1.52-5.72-1.52-5.72-4.147-4.147-5.72-1.52zM20.24 3.653l1.707 1.707q0.187 0.187 0.187 0.467t-0.187 0.467l-3.307 3.307 3.307 3.307q0.187 0.187 0.187 0.467t-0.187 0.467l-1.707 1.707q-0.187 0.187-0.467 0.187t-0.467-0.187l-3.307-3.307-3.307 3.307q-0.187 0.187-0.467 0.187t-0.467-0.187l-1.707-1.707q-0.187-0.187-0.187-0.467t0.187-0.467l3.307-3.307-3.307-3.307q-0.187-0.187-0.187-0.467t0.187-0.467l1.707-1.707q0.187-0.187 0.467-0.187t0.467 0.187l3.307 3.307 3.307-3.307q0.187-0.187 0.467-0.187t0.467 0.187z"></path>
</svg>
