<!-- Generated by IcoMoon.io -->
<svg version="1.1" xmlns="http://www.w3.org/2000/svg" width="32" height="32" viewBox="0 0 32 32">
<title>uniE214</title>
<path d="M16-9.067q1.253 0 2.467 1.427t1.893 3.28 0.68 3.293q0 2.080-1.48 3.56t-3.56 1.48-3.56-1.48-1.48-3.56q0-1.653 0.907-3.813l3.84 3.813 2.96-2.96-4.347-4.347q0.907-0.693 1.68-0.693zM16.053 4.32h1.227q0.907 0 1.48 0.76t0.573 2.307q0 2.027 1.040 4.88h-8.64q1.040-2.853 1.040-4.88 0-1.547 0.573-2.307t1.507-0.76h1.2zM6.667 14.933h18.667q0.56 0 0.947 0.387t0.387 0.947-0.387 0.947-0.947 0.387h-0.347l3.68 2.667h-25.333l3.653-2.667h-0.32q-0.56 0-0.947-0.387t-0.387-0.947 0.387-0.947 0.947-0.387zM1.333 22.933h29.333q0.56 0 0.947 0.387t0.387 0.947v1.333h-32v-1.333q0-0.56 0.387-0.947t0.947-0.387z"></path>
</svg>
