<!-- Generated by IcoMoon.io -->
<svg version="1.1" xmlns="http://www.w3.org/2000/svg" width="32" height="32" viewBox="0 0 32 32">
<title>uniE089</title>
<path d="M16-5.787q3.12 0 5.973 1.213t4.92 3.28 3.28 4.92 1.213 5.973-1.213 5.973-3.28 4.92-4.92 3.28-5.973 1.213-5.973-1.213-4.92-3.28-3.28-4.92-1.213-5.973 1.213-5.973 3.28-4.92 4.92-3.28 5.973-1.213zM16-1.787q-3.093 0-5.72 1.52t-4.147 4.147-1.52 5.72 1.52 5.72 4.147 4.147 5.72 1.52 5.72-1.52 4.147-4.147 1.52-5.72-1.52-5.72-4.147-4.147-5.72-1.52zM20.853 4.587l2.827 2.827q0.187 0.187 0.187 0.467t-0.187 0.467l-8.533 8.56q-0.213 0.187-0.48 0.187t-0.48-0.187l-5.387-5.413q-0.213-0.187-0.213-0.467t0.213-0.467l2.827-2.827q0.187-0.213 0.467-0.213t0.467 0.213l2.107 2.107 5.253-5.253q0.187-0.187 0.467-0.187t0.467 0.187z"></path>
</svg>
