<!-- Generated by IcoMoon.io -->
<svg version="1.1" xmlns="http://www.w3.org/2000/svg" width="32" height="32" viewBox="0 0 32 32">
<title>uniE065</title>
<path d="M26.667-1.413l2.88-3.067q0.053-0.027 0.133-0.053t0.347-0.053 0.547 0.027 0.667 0.253 0.76 0.573q0.587 0.587 0.72 1.147t0 0.853l-0.16 0.267-2.88 3.067zM9.333-3.733h10.667q1.333 0 2.8 0.347l-4.987 4.987h-9.813q-1.093 0-1.88 0.787t-0.787 1.88v13.333q0 1.093 0.787 1.88t1.88 0.787h13.333q1.093 0 1.88-0.787t0.787-1.88v-4.853l5.333-5.333v8.853q0 4.4-2.493 6.867t-6.84 2.467h-10.667q-4.4 0-6.867-2.467t-2.467-6.867v-10.667q0-4.4 2.467-6.867t6.867-2.467zM26.907 4.187l-9.653 9.653-4.293 1.333 1.467-4.533 9.467-9.467z"></path>
</svg>
