<!-- Generated by IcoMoon.io -->
<svg version="1.1" xmlns="http://www.w3.org/2000/svg" width="32" height="32" viewBox="0 0 32 32">
<title>uniE160</title>
<path d="M9.333-3.733h10.667q4.4 0 6.867 2.467t2.467 6.867v10.667q0 4.347-2.467 6.84t-6.867 2.493h-10.667q-4.347 0-6.84-2.507t-2.493-6.827v-10.667q0-4.4 2.467-6.867t6.867-2.467zM21.333 1.6h-13.333q-1.093 0-1.88 0.787t-0.787 1.88v13.333q0 1.093 0.787 1.88t1.88 0.787h13.333q1.093 0 1.88-0.787t0.787-1.88v-13.333q0-1.093-0.787-1.88t-1.88-0.787zM15.467 7.12l5.067 6.747q0.32 0.427 0.173 0.747t-0.707 0.32h-10.667q-0.56 0-0.707-0.32t0.173-0.747l5.067-6.747q0.32-0.453 0.8-0.453t0.8 0.453z"></path>
</svg>
