<!-- Generated by IcoMoon.io -->
<svg version="1.1" xmlns="http://www.w3.org/2000/svg" width="32" height="32" viewBox="0 0 32 32">
<title>uniE020</title>
<path d="M13.333-9.067h8q1.093 0 1.88 0.787t0.787 1.88v2.667h7.333q0.267 0 0.467 0.2t0.2 0.467v2h-29.333v-2q0-0.267 0.2-0.467t0.467-0.2h7.333v-2.667q0-1.093 0.787-1.88t1.88-0.787zM13.333-6.4v2.667h8v-2.667h-8zM29.333 1.6v21.333q0 1.093-0.787 1.88t-1.88 0.787h-18.667q-1.093 0-1.88-0.787t-0.787-1.88v-21.333h24zM8 4.267v18.667h2.667v-18.667h-2.667zM13.333 4.267v18.667h2.667v-18.667h-2.667zM18.667 4.267v18.667h2.667v-18.667h-2.667zM24 4.267v18.667h2.667v-18.667h-2.667z"></path>
</svg>
