<!-- Generated by IcoMoon.io -->
<svg version="1.1" xmlns="http://www.w3.org/2000/svg" width="32" height="32" viewBox="0 0 32 32">
<title>uniE116</title>
<path d="M1.493-6.4h2.507q0.453 0 0.827 0.293t0.48 0.72l1.013 4.32h23.893q0.64 0 1.040 0.493t0.267 1.133l-2.667 12.667q-0.133 0.56-0.72 1.133t-1.467 0.573h-16.88l1.28 5.333h14.267q0.56 0 0.947 0.387t0.387 0.947-0.387 0.947-0.947 0.387h-1.333v1.333q0 0.56-0.387 0.947t-0.947 0.387-0.947-0.387-0.387-0.947v-1.333h-8v1.333q0 0.56-0.387 0.947t-0.947 0.387-0.947-0.387-0.387-0.947v-1.333h-0.827q-0.48 0-0.867-0.267t-0.547-0.507l-0.133-0.267-5.36-25.627h-1.44q-0.533 0-0.933-0.387t-0.4-0.947 0.4-0.947 0.933-0.387z"></path>
</svg>
