<!-- Generated by IcoMoon.io -->
<svg version="1.1" xmlns="http://www.w3.org/2000/svg" width="32" height="32" viewBox="0 0 32 32">
<title>uniE104</title>
<path d="M17.413-7.227q-1.040 1.787-1.453 3.493t-0.28 3.053 0.653 2.573 1.267 2.133 1.693 1.667 1.827 1.24 1.733 0.8q-0.107-0.187-0.467-0.933t-0.493-1.053-0.453-1.053-0.453-1.147-0.347-1.12-0.253-1.187-0.053-1.12 0.107-1.147 0.36-1.040 0.613-1.027q2.56 1.12 4.4 2.867t2.8 3.68 1.387 4.16 0.347 4.24-0.507 3.987q-0.347 1.467-1.173 2.84t-1.813 2.32-2.093 1.72-1.933 1.2-1.413 0.587q-1.92 0.587-3.387 0.293-0.827-0.16-0.347-0.507 0.16-0.080 0.453-0.187 0.347-0.133 0.867-0.56t1.093-1.173 1.027-1.693 0.573-2.173-0.173-2.52-1.333-2.853-2.773-3.080q0.267 2.773-0.013 5.040t-0.987 3.747-1.733 2.48-2.24 1.387-2.493 0.293-2.533-0.653q-2.133-0.96-3.507-3.040t-1.427-4.56q-0.053-0.613 0-1.32t0.12-1.4 0.36-1.493 0.733-1.6 1.227-1.72 1.853-1.827q-0.213 1.413-0.133 2.733t0.467 2.4 0.907 1.827 1.187 1.040 1.307 0.053q0.827-0.347 1.027-0.96t-0.12-1.467-0.773-1.72-0.96-2-0.693-2.013q-0.4-2.267 0.053-4.307t1.427-3.427 2.28-2.467 2.493-1.627 2.173-0.68z"></path>
</svg>
