<!-- Generated by IcoMoon.io -->
<svg version="1.1" xmlns="http://www.w3.org/2000/svg" width="32" height="32" viewBox="0 0 32 32">
<title>uniE174</title>
<path d="M29.333-1.067v7.173l-2.747 2.747-3.573-3.573q-0.4-0.4-0.893-0.44t-0.92 0.333l-7.093 7.093h-8.773v10.667h-4q-0.56 0-0.947-0.387t-0.387-0.947v-26.667q0-0.533 0.387-0.933t0.947-0.4h6.667v8h13.333v-8h2.667zM18.667-1.067h-2.667v-5.333h2.667v5.333zM32.053 10.347l1.867 1.867q0.4 0.4 0.4 0.947t-0.4 0.947l-3.493 3.493 3.493 3.493q0.4 0.4 0.4 0.947t-0.4 0.947l-1.867 1.867q-0.4 0.4-0.947 0.4t-0.947-0.4l-3.493-3.493-3.493 3.493q-0.4 0.4-0.947 0.4t-0.947-0.4l-1.867-1.867q-0.4-0.4-0.4-0.947t0.4-0.947l3.493-3.493-3.493-3.493q-0.4-0.4-0.4-0.947t0.4-0.947l1.867-1.867q0.4-0.4 0.947-0.4t0.947 0.4l3.493 3.493 3.493-3.493q0.4-0.4 0.947-0.4t0.947 0.4z"></path>
</svg>
