<!-- Generated by IcoMoon.io -->
<svg version="1.1" xmlns="http://www.w3.org/2000/svg" width="32" height="32" viewBox="0 0 32 32">
<title>uniE018</title>
<path d="M27.333-6.4h4q0.267 0 0.467 0.2t0.2 0.467v30.667q0 0.267-0.2 0.467t-0.467 0.2h-4q-0.267 0-0.467-0.2t-0.2-0.467v-30.667q0-0.267 0.2-0.467t0.467-0.2zM19.333 4.267h4q0.267 0 0.467 0.2t0.2 0.467v20q0 0.267-0.2 0.467t-0.467 0.2h-4q-0.267 0-0.467-0.2t-0.2-0.467v-20q0-0.267 0.2-0.467t0.467-0.2zM11.333 12.267h4q0.267 0 0.467 0.2t0.2 0.467v12q0 0.267-0.2 0.467t-0.467 0.2h-4q-0.267 0-0.467-0.2t-0.2-0.467v-12q0-0.267 0.2-0.467t0.467-0.2zM3.333 17.6h4q0.267 0 0.467 0.2t0.2 0.467v6.667q0 0.267-0.2 0.467t-0.467 0.2h-4q-0.267 0-0.467-0.2t-0.2-0.467v-6.667q0-0.267 0.2-0.467t0.467-0.2z"></path>
</svg>
