<!-- Generated by IcoMoon.io -->
<svg version="1.1" xmlns="http://www.w3.org/2000/svg" width="32" height="32" viewBox="0 0 32 32">
<title>uniE163</title>
<path d="M9.333-3.733h10.667q0.56 0 0.947 0.387t0.387 0.947v2.667q0 0.56-0.387 0.947t-0.947 0.387h-12q-1.093 0-1.88 0.787t-0.787 1.88v13.333q0 1.093 0.787 1.88t1.88 0.787h12q0.56 0 0.947 0.387t0.387 0.947v2.667q0 0.56-0.387 0.947t-0.947 0.387h-10.667q-4.4 0-6.867-2.467t-2.467-6.867v-10.667q0-4.4 2.467-6.867t6.867-2.467zM25.013 2.48l8.64 7.573q0.427 0.373 0.427 0.88t-0.427 0.88l-8.64 7.573q-0.427 0.373-0.72 0.24t-0.293-0.693v-4h-6.667q-0.56 0-0.947-0.387t-0.387-0.947v-5.333q0-0.56 0.387-0.947t0.947-0.387h6.667v-4q0-0.56 0.293-0.693t0.72 0.24z"></path>
</svg>
