<!-- Generated by IcoMoon.io -->
<svg version="1.1" xmlns="http://www.w3.org/2000/svg" width="32" height="32" viewBox="0 0 32 32">
<title>uniE168</title>
<path d="M10.56 6.32l9.84-9.84q0.187-0.187 0.467-0.187t0.467 0.187l3.707 3.707q0.187 0.213 0.187 0.493t-0.187 0.467l-14 14q-0.187 0.213-0.467 0.213t-0.467-0.213l-7.787-7.76q-0.187-0.213-0.187-0.48t0.187-0.48l3.707-3.707q0.213-0.187 0.493-0.187t0.467 0.187zM1.333 17.6h26.667q0.56 0 0.947 0.387t0.387 0.947v6.667h-29.333v-6.667q0-0.56 0.387-0.947t0.947-0.387zM24 20.267v1.333h2.667v-1.333h-2.667z"></path>
</svg>
