<!-- Generated by IcoMoon.io -->
<svg version="1.1" xmlns="http://www.w3.org/2000/svg" width="32" height="32" viewBox="0 0 32 32">
<title>uniE175</title>
<path d="M29.333-1.067v8h-9.333q-0.56 0-0.947 0.387t-0.387 0.947v4h-13.333v10.667h-4q-0.56 0-0.947-0.387t-0.387-0.947v-26.667q0-0.533 0.387-0.933t0.947-0.4h6.667v8h13.333v-8h2.667zM18.667-1.067h-2.667v-5.333h2.667v5.333zM22.667 9.6h2.667q0.56 0 0.947 0.387t0.387 0.947v6.667h4q0.56 0 0.667 0.28t-0.267 0.653l-6.133 6.133q-0.373 0.373-0.933 0.373t-0.933-0.373l-6.133-6.133q-0.373-0.373-0.267-0.653t0.667-0.28h4v-6.667q0-0.56 0.387-0.947t0.947-0.387z"></path>
</svg>
