<!-- Generated by IcoMoon.io -->
<svg version="1.1" xmlns="http://www.w3.org/2000/svg" width="32" height="32" viewBox="0 0 32 32">
<title>uniE209</title>
<path d="M17.547-6.32l16.987 29.44q0.613 1.013 0.187 1.747t-1.6 0.733h-34.027q-1.173 0-1.6-0.733t0.187-1.747l16.987-29.44q0.587-1.040 1.44-1.040t1.44 1.040zM18.773 4.267h-5.547q-0.533 0-0.853 0.387t-0.213 0.92l1.547 8.053q0.107 0.533 0.573 0.92t1 0.387h1.44q0.533 0 1-0.387t0.573-0.92l1.547-8.053q0.107-0.533-0.213-0.92t-0.853-0.387zM13.333 17.6v2.667h5.333v-2.667h-5.333z"></path>
</svg>
