<!-- Generated by IcoMoon.io -->
<svg version="1.1" xmlns="http://www.w3.org/2000/svg" width="32" height="32" viewBox="0 0 32 32">
<title>uniE183</title>
<path d="M16-3.733q2.453 0 4.667 0.28t3.773 0.72 2.893 0.973 2.173 1.067 1.427 0.987 0.827 0.72l0.24 0.267v5.333q0 0.56-0.387 0.88t-0.92 0.24l-5.387-0.907q-0.533-0.080-0.92-0.533t-0.387-1.013v-3.893q-3.76-0.64-8-0.64t-8 0.64v3.893q0 0.56-0.387 1.013t-0.92 0.533l-5.387 0.907q-0.533 0.080-0.92-0.24t-0.387-0.88v-5.333q0.080-0.107 0.253-0.28t0.827-0.693 1.44-1 2.147-1.053 2.907-1 3.76-0.707 4.667-0.28zM16 4.4q1.493 0 2.587 0.253t1.6 0.627 0.8 0.747 0.32 0.64l0.027 0.267v1.333l9.733 8.080q0.373 0.4 0.653 1.067t0.28 1.2v5.653q0 0.56-0.387 0.947t-0.947 0.387h-29.333q-0.56 0-0.947-0.387t-0.387-0.947v-5.653q0-0.533 0.28-1.2t0.653-1.067l9.733-8.080v-1.333q0-0.107 0.027-0.28t0.32-0.613 0.8-0.773 1.6-0.6 2.587-0.267z"></path>
</svg>
