<!-- Generated by IcoMoon.io -->
<svg version="1.1" xmlns="http://www.w3.org/2000/svg" width="32" height="32" viewBox="0 0 32 32">
<title>uniE227</title>
<path d="M16.667-6.4h4q0.267 0 0.467 0.2t0.2 0.467v2.907q2.107 0.88 3.493 2.333t1.413 3.427q0.027 1.227-0.4 2.253t-1.040 1.627-1.227 1.013-1.040 0.573l-0.453 0.16q0.16 0 0.4 0.040t0.933 0.24 1.333 0.467 1.413 0.8 1.333 1.2 0.947 1.707 0.387 2.24q0 1.573-0.307 2.813t-0.76 2.040-1.173 1.36-1.32 0.84-1.453 0.427-1.32 0.173-1.16 0.027v2q0 0.267-0.2 0.467t-0.467 0.2h-4q-0.267 0-0.467-0.2t-0.2-0.467v-2h-2.667v2q0 0.267-0.2 0.467t-0.467 0.2h-4q-0.267 0-0.467-0.2t-0.2-0.467v-2h-4.667q-0.267 0-0.467-0.2t-0.2-0.467v-4q0-0.267 0.2-0.467t0.467-0.2h2v-16h-2q-0.267 0-0.467-0.2t-0.2-0.467v-4q0-0.267 0.2-0.467t0.467-0.2h4.667v-2q0-0.267 0.2-0.467t0.467-0.2h4q0.267 0 0.467 0.2t0.2 0.467v2h2.667v-2q0-0.267 0.2-0.467t0.467-0.2zM10.667 1.6v5.333h7.013q0.747 0 1.293-0.28t0.8-0.667 0.4-0.773 0.147-0.68l0.027-0.267q0-0.107-0.013-0.293t-0.16-0.64-0.4-0.8-0.8-0.64-1.293-0.293h-7.013zM10.667 12.267v5.333h9.68q0.747 0 1.293-0.28t0.8-0.667 0.4-0.773 0.147-0.68l0.027-0.267q0-0.107-0.013-0.293t-0.16-0.64-0.4-0.8-0.8-0.64-1.293-0.293h-9.68z"></path>
</svg>
