<!-- Generated by IcoMoon.io -->
<svg version="1.1" xmlns="http://www.w3.org/2000/svg" width="32" height="32" viewBox="0 0 32 32">
<title>uniE064</title>
<path d="M14.773-8.933q0.56 1.92 1.533 3.827t2.027 3.467 2.213 3.147 2.2 3.12 1.867 3.093 1.32 3.36 0.493 3.64q0 1.893-0.68 3.6t-1.827 2.96-2.64 2.187-3.16 1.44-3.347 0.613q-2.24-0.133-4.307-0.907t-3.72-2.093-2.64-3.333-0.987-4.387q0-1.84 0.48-3.64t1.32-3.373 1.853-3.107 2.173-3.133 2.227-3.173 2.040-3.493 1.56-3.813zM9.173 6.667q-0.613 0.88-1.16 1.88t-1.080 2.733-0.453 3.28q0.027 0.987 0.387 1.853t0.8 1.387 1.093 0.987 1.027 0.653 0.88 0.4q0.56 0.187 0.853 0.027t0.347-0.587l0.16-0.907q0.053-0.267-0.067-0.587t-0.36-0.507q-0.133-0.107-0.373-0.32t-0.787-1.080-0.867-1.96q-0.693-2.373 0.16-7.227 0.053-0.293-0.16-0.293-0.213-0.027-0.4 0.267z"></path>
</svg>
