<!-- Generated by IcoMoon.io -->
<svg version="1.1" xmlns="http://www.w3.org/2000/svg" width="32" height="32" viewBox="0 0 32 32">
<title>uniE054</title>
<path d="M13.333 0.267v-2.667q0-0.56 0.387-0.947t0.947-0.387h16q0.56 0 0.947 0.387t0.387 0.947v2.667q0 0.56-0.387 0.947t-0.947 0.387h-16q-0.56 0-0.947-0.387t-0.387-0.947zM2.667 8.267v-2.667q0-0.56 0.387-0.947t0.947-0.387h26.667q0.56 0 0.947 0.387t0.387 0.947v2.667q0 0.56-0.387 0.947t-0.947 0.387h-26.667q-0.56 0-0.947-0.387t-0.387-0.947zM8 16.267v-2.667q0-0.56 0.387-0.947t0.947-0.387h21.333q0.56 0 0.947 0.387t0.387 0.947v2.667q0 0.56-0.387 0.947t-0.947 0.387h-21.333q-0.56 0-0.947-0.387t-0.387-0.947zM0 24.267v-2.667q0-0.56 0.387-0.947t0.947-0.387h29.333q0.56 0 0.947 0.387t0.387 0.947v2.667q0 0.56-0.387 0.947t-0.947 0.387h-29.333q-0.56 0-0.947-0.387t-0.387-0.947z"></path>
</svg>
