<!-- Generated by IcoMoon.io -->
<svg version="1.1" xmlns="http://www.w3.org/2000/svg" width="32" height="32" viewBox="0 0 32 32">
<title>uniE180</title>
<path d="M32-3.733v1.493q-0.107 0-0.293 0.013t-0.64 0.080-0.8 0.2-0.64 0.4-0.293 0.64v23.68q0 0.587 0.667 0.92t1.333 0.36l0.667 0.053v1.493h-10.667v-1.493q2 0 2.333-0.173t0.333-1.16v-10.507h-13.333v10.507q0 0.987 0.333 1.16t2.333 0.173v1.493h-10.667v-1.493q0.107 0 0.293-0.013t0.64-0.080 0.8-0.2 0.64-0.4 0.293-0.64v-23.68q0-0.587-0.667-0.92t-1.333-0.36l-0.667-0.053v-1.493h10.667v1.493q-2 0-2.333 0.173t-0.333 1.16v10.507h13.333v-10.507q0-0.987-0.333-1.16t-2.333-0.173v-1.493h10.667z"></path>
</svg>
