<!-- Generated by IcoMoon.io -->
<svg version="1.1" xmlns="http://www.w3.org/2000/svg" width="32" height="32" viewBox="0 0 32 32">
<title>uniE242</title>
<path d="M26.667 17.6v-1.333q-0.667 0-1.467-0.853-0.373-0.373-0.667-0.827t-0.427-0.72l-0.107-0.293-7.707-19.92h-1.84l-8 20.107q-0.48 0.933-1.040 1.493-0.24 0.24-0.653 0.493t-0.707 0.387l-0.293 0.133v1.333h7.28v-1.333q-1.307 0-2.093-0.573t-0.307-1.8l1.84-4.693h7.813l1.627 4.427q0.347 0.907-0.093 1.773t-1.48 0.867v1.333h8.32zM10.987 7.173l3.573-9.12 3.227 9.12h-6.8zM29.333 21.6v2.667q0 0.56-0.387 0.947t-0.947 0.387h-26.667q-0.56 0-0.947-0.387t-0.387-0.947v-2.667q0-0.56 0.387-0.947t0.947-0.387h26.667q0.56 0 0.947 0.387t0.387 0.947z"></path>
</svg>
