<!-- Generated by IcoMoon.io -->
<svg version="1.1" xmlns="http://www.w3.org/2000/svg" width="32" height="32" viewBox="0 0 32 32">
<title>uniE142</title>
<path d="M14.56 20.987l12.507-12.533q2.427-2.427 2.64-5.12 0.187-2.613-1.387-4.68t-4.107-2.52q-0.587-0.107-1.253-0.107-0.907 0-1.773 0.267t-1.507 0.613-1.48 1.013-1.28 1.107-1.293 1.267q-10.027 10-10.427 10.4-0.8 0.72-1.2 1.107t-1 1.093-0.853 1.24-0.427 1.267-0.040 1.507q0.24 1.653 1.427 2.533t2.653 0.88q1.973 0 3.333-1.36l14.613-14.613q0.96-0.96 0.533-2-0.187-0.427-0.573-0.693t-0.867-0.267q-0.693 0-1.333 0.613-0.347 0.32-1.040 1.013l-9.093 9.013q-0.4 0.4-0.947 0.413t-0.92-0.36-0.373-0.92 0.373-0.92q8.72-8.88 9.627-9.787 0.933-0.933 1.8-1.373t2.093-0.44q0.373 0 0.773 0.027 1.173 0.213 1.987 0.947t1.16 1.827q0.373 1.253 0.053 2.573t-1.253 2.253q-0.32 0.293-0.853 0.853t-2.12 2.16-3.053 3.067-3.32 3.293-3.28 3.187-2.573 2.373-1.52 1.2q-1.493 0.72-3.2 0.72-1.867 0-3.44-0.853t-2.48-2.373q-1.28-2.080-0.933-4.613t2.16-4.347l13.627-13.627q1.893-1.92 2.96-2.56 2.427-1.467 5.28-1.467 2.133 0 4.053 0.88 2.080 0.96 3.453 2.747t1.773 4.107q0.453 2.48-0.293 4.893t-2.507 4.173l-12.853 12.693q-0.4 0.4-0.96 0.427t-0.987-0.373-0.467-0.907 0.387-0.933z"></path>
</svg>
