<!-- Generated by IcoMoon.io -->
<svg version="1.1" xmlns="http://www.w3.org/2000/svg" width="32" height="32" viewBox="0 0 32 32">
<title>uniE197</title>
<path d="M13.413-3.44q2.933 0 5.347 1.587t3.587 4.173q1.173-0.373 2.4-0.373 3.2 0 5.467 2.307t2.267 5.52-2.267 5.52-5.467 2.307h-3.413v-6.667q0-0.56-0.387-0.947t-0.947-0.387h-8q-0.56 0-0.947 0.387t-0.387 0.947v6.667h-5.92q-2.133 0-3.627-1.533t-1.493-3.64q0-1.84 1.147-3.267t2.88-1.8q-0.053-0.507-0.053-0.987 0-2.667 1.307-4.933t3.573-3.573 4.933-1.307zM14 12.267h4q0.267 0 0.467 0.2t0.2 0.467v7.333h3.653q0.56 0 0.693 0.307t-0.213 0.733l-5.947 6.507q-0.347 0.427-0.853 0.427t-0.853-0.427l-5.947-6.507q-0.347-0.427-0.213-0.733t0.693-0.307h3.653v-7.333q0-0.267 0.2-0.467t0.467-0.2z"></path>
</svg>
