<!-- Generated by IcoMoon.io -->
<svg version="1.1" xmlns="http://www.w3.org/2000/svg" width="32" height="32" viewBox="0 0 32 32">
<title>uniE087</title>
<path d="M14-6.4h4q0.267 0 0.467 0.2t0.2 0.467v5.173q2.747 0.72 4.76 2.733t2.733 4.76h5.173q0.267 0 0.467 0.2t0.2 0.467v4q0 0.267-0.2 0.467t-0.467 0.2h-5.173q-0.72 2.747-2.733 4.76t-4.76 2.733v5.173q0 0.267-0.2 0.467t-0.467 0.2h-4q-0.267 0-0.467-0.2t-0.2-0.467v-5.173q-2.747-0.72-4.76-2.733t-2.733-4.76h-5.173q-0.267 0-0.467-0.2t-0.2-0.467v-4q0-0.267 0.2-0.467t0.467-0.2h5.173q0.72-2.747 2.733-4.76t4.76-2.733v-5.173q0-0.267 0.2-0.467t0.467-0.2zM18.667 1.787v4.48q0 0.267-0.2 0.467t-0.467 0.2h-4q-0.267 0-0.467-0.2t-0.2-0.467v-4.48q-1.813 0.613-3.173 1.973t-1.973 3.173h4.48q0.267 0 0.467 0.2t0.2 0.467v4q0 0.267-0.2 0.467t-0.467 0.2h-4.48q0.613 1.813 1.973 3.173t3.173 1.973v-4.48q0-0.267 0.2-0.467t0.467-0.2h4q0.267 0 0.467 0.2t0.2 0.467v4.48q1.813-0.613 3.173-1.973t1.973-3.173h-4.48q-0.267 0-0.467-0.2t-0.2-0.467v-4q0-0.267 0.2-0.467t0.467-0.2h4.48q-0.613-1.813-1.973-3.173t-3.173-1.973z"></path>
</svg>
