<!-- Generated by IcoMoon.io -->
<svg version="1.1" xmlns="http://www.w3.org/2000/svg" width="32" height="32" viewBox="0 0 32 32">
<title>uniE039</title>
<path d="M13.333 1.6h2.667v2.667h-2.667v2.667h-10.667v2.667h-2.667v-16h13.333v8zM32 6.933h-5.333v2.667h5.333v5.333h-8v-8h-5.333v-8h-2.667v-5.333h16v13.333zM2.667-3.733v8h8v-8h-8zM21.333-3.733v8h8v-8h-8zM8 1.6h-2.667v-2.667h2.667v2.667zM26.667 1.6h-2.667v-2.667h2.667v2.667zM8 12.267h5.333v13.333h-13.333v-13.333h5.333v-2.667h2.667v2.667zM21.333 17.6h5.333v2.667h-2.667v2.667h-5.333v-2.667h-2.667v-2.667h2.667v-5.333h-5.333v-2.667h8v8zM2.667 14.933v8h8v-8h-8zM8 20.267h-2.667v-2.667h2.667v2.667zM32 20.267h-2.667v-2.667h2.667v2.667zM18.667 25.6h-2.667v-2.667h2.667v2.667zM32 25.6h-8v-2.667h8v2.667z"></path>
</svg>
