<!-- Generated by IcoMoon.io -->
<svg version="1.1" xmlns="http://www.w3.org/2000/svg" width="32" height="32" viewBox="0 0 32 32">
<title>uniE058</title>
<path d="M1.333-3.733h2.667q0.56 0 0.947 0.387t0.387 0.947v2.667q0 0.56-0.387 0.947t-0.947 0.387h-2.667q-0.56 0-0.947-0.387t-0.387-0.947v-2.667q0-0.56 0.387-0.947t0.947-0.387zM24 25.6h-2.667v-29.333h2.667v29.333zM1.333 4.267h13.333q0.56 0 0.947 0.387t0.387 0.947v2.667q0 0.56-0.387 0.947t-0.947 0.387h-13.333q-0.56 0-0.947-0.387t-0.387-0.947v-2.667q0-0.56 0.387-0.947t0.947-0.387zM29.333 9.6h5.333v2.667h-5.333v2l-4.453-3.333 4.453-3.333v2zM1.333 12.267h8q0.56 0 0.947 0.387t0.387 0.947v2.667q0 0.56-0.387 0.947t-0.947 0.387h-8q-0.56 0-0.947-0.387t-0.387-0.947v-2.667q0-0.56 0.387-0.947t0.947-0.387zM1.333 20.267h16q0.56 0 0.947 0.387t0.387 0.947v2.667q0 0.56-0.387 0.947t-0.947 0.387h-16q-0.56 0-0.947-0.387t-0.387-0.947v-2.667q0-0.56 0.387-0.947t0.947-0.387z"></path>
</svg>
