<!-- Generated by IcoMoon.io -->
<svg version="1.1" xmlns="http://www.w3.org/2000/svg" width="32" height="32" viewBox="0 0 32 32">
<title>uniE223</title>
<path d="M28.187 8.347l-5.040-13.493q-0.213-0.507-0.733-0.88t-1.080-0.373h-10.667q-0.56 0-1.080 0.373t-0.733 0.88l-5.040 13.493q-0.213 0.507 0.040 0.88t0.813 0.373h16.667v4q0 0.56 0.387 0.947t0.947 0.387 0.947-0.387 0.387-0.947v-4h3.333q0.56 0 0.813-0.373t0.040-0.88zM23.92 25.6h-15.867v-1.333q0-0.56 0.387-0.947t0.947-0.387h1.333v-1.333q0-0.56 0.387-0.947t0.947-0.387h1.28v-8h5.333v8h1.253q0.56 0 0.947 0.387t0.387 0.947v1.333h1.333q0.56 0 0.947 0.387t0.387 0.947v1.333z"></path>
</svg>
