<!-- Generated by IcoMoon.io -->
<svg version="1.1" xmlns="http://www.w3.org/2000/svg" width="32" height="32" viewBox="0 0 32 32">
<title>uniE178</title>
<path d="M24.933-5.467l6.613 6.133q0.373 0.373 0.373 0.933t-0.373 0.933l-6.613 6.133q-0.373 0.373-0.653 0.267t-0.28-0.667v-4h-10.667v-5.333h10.667v-4q0-0.56 0.28-0.667t0.653 0.267zM5.333 4.267h-1.333q-0.56 0-0.947-0.387t-0.387-0.947v-2.667q0-0.56 0.387-0.947t0.947-0.387h1.333v5.333zM10.667 4.267h-2.667v-5.333h2.667v5.333zM0.48 14l6.587-6.133q0.373-0.373 0.653-0.267t0.28 0.667v4h10.667v5.333h-10.667v4q0 0.56-0.28 0.667t-0.653-0.267l-6.587-6.133q-0.4-0.373-0.4-0.933t0.4-0.933zM24 17.6h-2.667v-5.333h2.667v5.333zM26.667 12.267h1.36q0.533 0 0.92 0.387t0.387 0.947v2.667q0 0.56-0.387 0.947t-0.92 0.387h-1.36v-5.333z"></path>
</svg>
