<!-- Generated by IcoMoon.io -->
<svg version="1.1" xmlns="http://www.w3.org/2000/svg" width="32" height="32" viewBox="0 0 32 32">
<title>uniE128</title>
<path d="M12.667-3.813l9.76 6.133q0.053 0.027 0.16 0.093t0.373 0.28 0.48 0.44 0.387 0.533 0.173 0.6v14q0 0.347-2.293 2.507t-2.48 2.16h-9.12q-0.4 0-0.76-0.533t-0.52-1.093l-3.493-9.040h-2.827q-2.267 0-3.72-1.040t-1.453-2.96 1.44-2.933 3.68-1.013h8.053l-2.267-3.227q-0.293-0.4-0.28-0.907t0.36-0.853l2.933-2.987q0.587-0.587 1.413-0.16zM9.867 0.4l3.893 4.88q0.453 0.587 0.133 1.253-0.053 0.053-0.093 0.12t-0.107 0.107-0.107 0.067-0.133 0.053-0.133 0.040-0.16 0.013h-13.16v2.667h5.893q0.4 0 0.773 0.533t0.533 1.093l3.467 9.040h7.84l2.827-2.373v-13.413l-9.12-6.293zM28 4.267h2.667q0.56 0 0.947 0.387t0.387 0.947v13.333q0 0.56-0.387 0.947t-0.947 0.387h-2.667q-0.56 0-0.947-0.387t-0.387-0.947v-13.333q0-0.56 0.387-0.947t0.947-0.387z"></path>
</svg>
