<!-- Generated by IcoMoon.io -->
<svg version="1.1" xmlns="http://www.w3.org/2000/svg" width="32" height="32" viewBox="0 0 32 32">
<title>uniE025</title>
<path d="M14.667-6.4h5.333q0.56 0 0.947 0.387t0.387 0.947v12h5.093q0.533 0 0.68 0.307t-0.2 0.733l-8.72 10.667q-0.347 0.427-0.853 0.427t-0.853-0.427l-8.72-10.667q-0.347-0.427-0.2-0.733t0.68-0.307h5.093v-12q0-0.56 0.387-0.947t0.947-0.387zM30 14.933h1.333q0.267 0 0.467 0.2t0.2 0.467v9.333q0 0.267-0.2 0.467t-0.467 0.2h-28q-0.267 0-0.467-0.2t-0.2-0.467v-9.333q0-0.267 0.2-0.467t0.467-0.2h1.333q0.267 0 0.467 0.2t0.2 0.467v4.667h24v-4.667q0-0.267 0.2-0.467t0.467-0.2z"></path>
</svg>
