<!-- Generated by IcoMoon.io -->
<svg version="1.1" xmlns="http://www.w3.org/2000/svg" width="32" height="32" viewBox="0 0 32 32">
<title>uniE243</title>
<path d="M1.333-6.4h29.333q0.56 0 0.947 0.387t0.387 0.947v29.333q0 0.56-0.387 0.947t-0.947 0.387h-29.333q-0.56 0-0.947-0.387t-0.387-0.947v-29.333q0-0.56 0.387-0.947t0.947-0.387zM16.293-4.213h-1.867q-0.347 0-0.48 0.32l-7.973 20.080q-0.453 0.853-0.933 1.36-0.48 0.48-1.493 0.907-0.32 0.133-0.32 0.48v1.333q0 0.213 0.147 0.373t0.387 0.16h7.28q0.213 0 0.373-0.16t0.16-0.373v-1.333q0-0.213-0.16-0.373t-0.373-0.16q-1.467 0-1.893-0.613-0.267-0.373 0-1.040l1.68-4.347h7.093l1.52 4.080q0.293 0.827-0.16 1.467-0.32 0.453-0.96 0.453-0.213 0-0.373 0.16t-0.16 0.373v1.333q0 0.213 0.16 0.373t0.373 0.16h8.347q0.213 0 0.373-0.16t0.16-0.373v-1.333q0-0.187-0.147-0.347t-0.36-0.187q-0.453 0-1.12-0.667-0.667-0.72-1.067-1.68h-0.027l-7.68-19.947q-0.133-0.32-0.507-0.32zM17.040 9.307h-5.253l2.747-7.040z"></path>
</svg>
