<!-- Generated by IcoMoon.io -->
<svg version="1.1" xmlns="http://www.w3.org/2000/svg" width="32" height="32" viewBox="0 0 32 32">
<title>uniE122</title>
<path d="M30.667-3.733q0.56 0 0.947 0.387t0.387 0.947v22.667q0 0.56-0.387 0.947t-0.947 0.387-0.947-0.387-0.387-0.947v-22.667q0-0.56 0.387-0.947t0.947-0.387zM26.667 20.267l-18-5.333h-1.013l1.253 7.36q0.080 0.427-0.147 0.533t-0.787 0.107h-2.427q-0.533 0-0.92-0.373t-0.493-0.933q-1.467-8.987-1.467-9.36v-6.827q0-0.427 0.027-0.627t0.173-0.373 0.467-0.173h5.333l18-6.667v22.667zM0 5.6v6.667q-0.107 0-0.293-0.013t-0.64-0.16-0.8-0.4-0.64-0.8-0.293-1.293v-1.333q0-0.693 0.28-1.227t0.667-0.8 0.773-0.427 0.68-0.187z"></path>
</svg>
