<!-- Generated by IcoMoon.io -->
<svg version="1.1" xmlns="http://www.w3.org/2000/svg" width="32" height="32" viewBox="0 0 32 32">
<title>uniE236</title>
<path d="M3.333-3.733h25.333q0.267 0 0.467 0.2t0.2 0.467v4q0 0.267-0.2 0.467t-0.467 0.2h-25.333q-0.267 0-0.467-0.2t-0.2-0.467v-4q0-0.267 0.2-0.467t0.467-0.2zM3.333 6.933h25.333q0.267 0 0.467 0.2t0.2 0.467v4q0 0.267-0.2 0.467t-0.467 0.2h-25.333q-0.267 0-0.467-0.2t-0.2-0.467v-4q0-0.267 0.2-0.467t0.467-0.2zM3.333 17.6h25.333q0.267 0 0.467 0.2t0.2 0.467v4q0 0.267-0.2 0.467t-0.467 0.2h-25.333q-0.267 0-0.467-0.2t-0.2-0.467v-4q0-0.267 0.2-0.467t0.467-0.2z"></path>
</svg>
