<!-- Generated by IcoMoon.io -->
<svg version="1.1" xmlns="http://www.w3.org/2000/svg" width="32" height="32" viewBox="0 0 32 32">
<title>uniE050</title>
<path d="M34.667 1.6h-1.333q0-0.56-0.107-0.987t-0.253-0.707-0.48-0.467-0.587-0.293-0.76-0.147-0.827-0.053-0.987-0.013h-5.333v22.667q0 0.587 0.667 0.92t1.333 0.36l0.667 0.053v2.667h-10.667v-2.667q0.107 0 0.293-0.013t0.64-0.080 0.8-0.187 0.64-0.4 0.293-0.653v-22.667h-5.333q-0.667 0-0.987 0.013t-0.827 0.053-0.76 0.147-0.587 0.293-0.48 0.467-0.253 0.707-0.107 0.987h-1.333v-8h26.667v8zM4.667-1.067h-2v21.333h2l-3.333 4.453-3.333-4.453h2v-21.333h-2l3.333-4.453z"></path>
</svg>
