<!-- Generated by IcoMoon.io -->
<svg version="1.1" xmlns="http://www.w3.org/2000/svg" width="32" height="32" viewBox="0 0 32 32">
<title>uniE035</title>
<path d="M16-5.733q3.093 0 6.053 1.32t5.133 3.493 3.493 5.133 1.32 6.053v8q0 0.267-0.2 0.467t-0.467 0.2h-1.333q-0.267 0-0.467-0.2t-0.2-0.467v-8q0-3.387-1.88-6.173t-4.92-4.307-6.533-1.52-6.533 1.52-4.92 4.307-1.88 6.173v8q0 0.267-0.2 0.467t-0.467 0.2h-1.333q-0.267 0-0.467-0.2t-0.2-0.467v-8q0-3.093 1.32-6.053t3.493-5.133 5.133-3.493 6.053-1.32zM5.867 12.267h4.267q0.213 0 0.373 0.16t0.16 0.373v12.267q0 0.213-0.16 0.373t-0.373 0.16h-4.267q-0.213 0-0.373-0.16t-0.16-0.373v-12.267q0-0.213 0.16-0.373t0.373-0.16zM21.867 12.267h4.267q0.213 0 0.373 0.16t0.16 0.373v12.267q0 0.213-0.16 0.373t-0.373 0.16h-4.267q-0.213 0-0.373-0.16t-0.16-0.373v-12.267q0-0.213 0.16-0.373t0.373-0.16z"></path>
</svg>
