<!-- Generated by IcoMoon.io -->
<svg version="1.1" xmlns="http://www.w3.org/2000/svg" width="32" height="32" viewBox="0 0 32 32">
<title>uniE165</title>
<path d="M16-6.027q3.173 0 6.067 1.24t4.987 3.333 3.333 4.987 1.24 6.067-1.24 6.067-3.333 4.987-4.987 3.333-6.067 1.24-6.067-1.24-4.987-3.333-3.333-4.987-1.24-6.067 1.24-6.067 3.333-4.987 4.987-3.333 6.067-1.24zM16-1.653q-3.067 0-5.653 1.507t-4.093 4.093-1.507 5.653 1.507 5.653 4.093 4.093 5.653 1.507 5.653-1.507 4.093-4.093 1.507-5.653-1.507-5.653-4.093-4.093-5.653-1.507zM16 4.427q2.133 0 3.653 1.52t1.52 3.653-1.52 3.653-3.653 1.52-3.653-1.52-1.52-3.653 1.52-3.653 3.653-1.52z"></path>
</svg>
