<!-- Generated by IcoMoon.io -->
<svg version="1.1" xmlns="http://www.w3.org/2000/svg" width="32" height="32" viewBox="0 0 32 32">
<title>uniE191</title>
<path d="M5.333-3.733h18.667q3.307 0 5.653 2.347t2.347 5.653v13.333q0 3.307-2.347 5.653t-5.653 2.347h-18.667q-3.307 0-5.653-2.347t-2.347-5.653v-13.333q0-3.307 2.347-5.653t5.653-2.347zM2.667 1.6v18.667h24v-18.667h-24zM13.333 6.933h-5.333v2.667h5.333v8h-8v-2.667h5.333v-2.667h-5.333v-8h8v2.667zM24 17.6h-2.667v-10.667h-2.667v-2.667h5.333v13.333zM18.667 17.6h-2.667v-2.667h2.667v2.667z"></path>
</svg>
