<!-- Generated by IcoMoon.io -->
<svg version="1.1" xmlns="http://www.w3.org/2000/svg" width="32" height="32" viewBox="0 0 32 32">
<title>uniE043</title>
<path d="M8-6.4h22q2 0 2 2v24q0 0.667-0.48 1.147l-1.707 1.707q-0.213 0.213-0.347 0.147t-0.133-0.333v-25.333q0-0.267-0.2-0.467t-0.467-0.2h-18.667q-0.667 0-1.147 0.48l-1.707 1.707q-0.213 0.213-0.147 0.347t0.333 0.133h18.667q0.267 0 0.467 0.2t0.2 0.467v25.333q0 0.267-0.2 0.467t-0.467 0.2h-22.667q-0.267 0-0.467-0.2t-0.2-0.467v-26q0-0.667 0.48-1.147l3.707-3.707q0.48-0.48 1.147-0.48z"></path>
</svg>
