<!-- Generated by IcoMoon.io -->
<svg version="1.1" xmlns="http://www.w3.org/2000/svg" width="32" height="32" viewBox="0 0 32 32">
<title>uniE034</title>
<path d="M3.333-3.733h1.333q0.267 0 0.467 0.2t0.2 0.467v28.667h-2.667v-28.667q0-0.267 0.2-0.467t0.467-0.2zM28.667-2.453q0.107 0 0.24 0.053 0.427 0.16 0.427 0.613v11.227q0 0.16-0.080 0.32-0.88 1.573-1.773 2.64t-1.747 1.547-1.507 0.653-1.4 0.173q-0.693 0-1.533-0.173t-1.4-0.36-1.6-0.56q-1.093-0.4-1.68-0.6t-1.533-0.4-1.747-0.2q-2.267 0-4.267 1.52-0.187 0.133-0.4 0.133-0.16 0-0.293-0.080-0.373-0.187-0.373-0.587v-11.68q0.587-1.467 2.187-2.627t3.173-1.24q0.613-0.053 1.147-0.013t1.147 0.187 0.867 0.227 1.013 0.347 0.867 0.293q1.093 0.373 1.693 0.56t1.52 0.373 1.693 0.187q2.747 0 4.88-2.32 0.187-0.213 0.48-0.213z"></path>
</svg>
