<!-- Generated by IcoMoon.io -->
<svg version="1.1" xmlns="http://www.w3.org/2000/svg" width="32" height="32" viewBox="0 0 32 32">
<title>uniE047</title>
<path d="M18.16-6.373l10.267 26.613q0.533 1.333 1.6 2.453 0.48 0.507 0.973 0.787t0.733 0.307l0.267 0.053v1.76h-11.12v-1.76q1.413 0 2-1.16t0.133-2.36l-2.187-5.92h-10.427q-1.547 3.867-2.453 6.24-0.293 0.907-0.173 1.52t0.68 0.987 1.227 0.533 1.467 0.16v1.76h-9.733v-1.76q1.493-0.64 2.24-1.387 0.32-0.32 0.667-0.813t0.533-0.84l0.187-0.347 10.64-26.827h2.48zM11.093 11.707h9.067l-4.32-12.187z"></path>
</svg>
