<!-- Generated by IcoMoon.io -->
<svg version="1.1" xmlns="http://www.w3.org/2000/svg" width="32" height="32" viewBox="0 0 32 32">
<title>uniE037</title>
<path d="M8.56 3.893l6.88-4.587q0.24-0.16 0.4-0.067t0.16 0.36v20q0 0.267-0.16 0.36t-0.4-0.067l-6.88-4.587q-0.56-0.373-1.227-0.373h-6.667q-0.267 0-0.467-0.2t-0.2-0.467v-9.333q0-0.267 0.2-0.467t0.467-0.2h6.667q0.667 0 1.227-0.373zM20.427 1.6h0.107q0.267 0.027 0.427 0.267 2.56 3.44 2.56 7.733 0 4.107-2.4 7.493-0.16 0.24-0.453 0.267l-0.080 0.027q-0.24 0-0.427-0.16l-0.773-0.613q-0.187-0.187-0.227-0.44t0.12-0.467q1.92-2.747 1.92-6.107 0-3.52-2.080-6.347-0.16-0.213-0.12-0.48t0.253-0.453l0.773-0.587q0.187-0.133 0.4-0.133z"></path>
</svg>
