<!-- Generated by IcoMoon.io -->
<svg version="1.1" xmlns="http://www.w3.org/2000/svg" width="32" height="32" viewBox="0 0 32 32">
<title>uniE106</title>
<path d="M15.787 25.6h-3.947l0.827-3.2q-2.427-0.533-4.68-1.827t-3.827-2.84-2.76-3.173-1.773-2.933-0.587-2.027q0-0.56 0.373-1.533t1.133-2.2 1.813-2.533 2.52-2.533 3.107-2.2 3.733-1.573 4.28-0.6q1.627 0 3.36 0.4l0.853-3.227h3.947zM25.173 5.067l1.253-4.827q2.88 2.267 4.707 5.12t1.827 4.24q0 0.693-0.52 1.893t-1.587 2.72-2.48 2.987-3.44 2.787-4.213 2.013l1.227-4.613q2.053-1.307 3.627-3.12t2.587-3.493q0.293-0.48 0.24-1.133t-0.373-1.107q-1.44-1.867-2.853-3.467zM8.267 3.627q-1.867 1.84-4.267 4.907-0.347 0.427-0.4 1.080t0.24 1.133q0.48 0.8 1.040 1.6t1.52 1.88 1.973 1.947 2.4 1.627 2.8 1.107l1.093-4.107q-2.853-0.48-4.76-2.707t-1.907-5.16q0-1.573 0.613-3.040 0.213-0.507 0.12-0.587t-0.467 0.32zM11.947 6.213l-0.933 0.96q-0.4 0.4-0.52 1.027t0.12 1.107q0.987 1.813 2.48 3.093 0.427 0.347 1.027 0.293t0.973-0.453l0.32-0.293 0.587-2.293-0.080-0.107q-1.173-1.173-2.373-3.12-0.293-0.48-0.747-0.533t-0.853 0.32z"></path>
</svg>
