<!-- Generated by IcoMoon.io -->
<svg version="1.1" xmlns="http://www.w3.org/2000/svg" width="32" height="32" viewBox="0 0 32 32">
<title>uniE206</title>
<path d="M12-3.733h2.667q0.56 0 0.947 0.387t0.387 0.947v1.333h1.333q0.56 0 0.947 0.387t0.387 0.947v2.667q0 0.56-0.387 0.947t-0.947 0.387h-8q-0.56 0-0.947-0.387t-0.387-0.947v-2.667q0-0.56 0.387-0.947t0.947-0.387h1.333v-1.333q0-0.56 0.387-0.947t0.947-0.387zM21.333 2.933v-4q1.093 0 1.88 0.787t0.787 1.88v13.333h-5.333v8h5.333q0 0.96-0.187 1.533t-0.627 0.8-0.787 0.28-1.067 0.053h-16q-1.093 0-1.88-0.787t-0.787-1.88v-21.333q0-1.093 0.787-1.88t1.88-0.787v4q0 1.653 1.173 2.827t2.827 1.173h8q1.653 0 2.827-1.173t1.173-2.827zM32.32 18.933l-5.653 5.653v-4.32h-5.333v-2.667h5.333v-4.32z"></path>
</svg>
