<!-- Generated by IcoMoon.io -->
<svg version="1.1" xmlns="http://www.w3.org/2000/svg" width="32" height="32" viewBox="0 0 32 32">
<title>uniE166</title>
<path d="M12-6.4h5.333q0.56 0 0.947 0.387t0.387 0.947v9.333h6.533q0.533 0 0.667 0.293t-0.24 0.693l-10.213 11.36q-0.373 0.4-0.893 0.4t-0.867-0.4l-10.107-11.36q-0.347-0.4-0.227-0.693t0.68-0.293h6.667v-9.333q0-0.56 0.387-0.947t0.947-0.387zM1.333 17.6h26.667q0.56 0 0.947 0.387t0.387 0.947v6.667h-29.333v-6.667q0-0.56 0.387-0.947t0.947-0.387zM24 20.267v1.333h2.667v-1.333h-2.667z"></path>
</svg>
