<!-- Generated by IcoMoon.io -->
<svg version="1.1" xmlns="http://www.w3.org/2000/svg" width="32" height="32" viewBox="0 0 32 32">
<title>uniE225</title>
<path d="M12.907-3.6h5.2q2 0 3.893 0.867t3.307 2.293 2.387 3.267 1.293 3.787q0.48 0.373 0.933 0.533 0.827 0.267 1.72-0.173t1.16-1.293q0.267-0.907-0.4-1.893-0.507-0.72-0.24-1.147 0.133-0.213 0.333-0.293t0.507 0.027 0.627 0.427q1.093 1.173 1.040 2.8-0.080 1.68-1.227 2.84t-2.773 1.16h-1.653q-0.187 1.467-0.933 3.12t-1.493 2.667l-1.040 6.24q-0.080 0.533-0.533 0.92t-1.013 0.387h-2.667q-0.56 0-0.88-0.387t-0.24-0.92l0.32-1.867q-1.307 0.373-2.427 0.373h-5.2q-0.64 0-1.733-0.213l-0.293 1.707q-0.080 0.533-0.533 0.92t-1.013 0.387h-2.667q-0.56 0-0.88-0.387t-0.24-0.92l0.693-4.187q-2.24-1.973-3.413-4.667l-4.24-1.413q-0.507-0.187-0.88-0.693t-0.373-1.067v-1.333q0-0.56 0.387-0.947t0.947-0.387h3.307q0.293-2.32 1.493-4.427l-2.96-2.533q-0.427-0.373-0.333-0.627t0.653-0.253h5.413q3.093-2.693 6.667-2.693zM18-1.067h-6.667q-0.267 0-0.467 0.2t-0.2 0.467v1.333q0 0.267 0.2 0.467t0.467 0.2h6.667q0.267 0 0.467-0.2t0.2-0.467v-1.333q0-0.267-0.2-0.467t-0.467-0.2z"></path>
</svg>
