<!-- Generated by IcoMoon.io -->
<svg version="1.1" xmlns="http://www.w3.org/2000/svg" width="32" height="32" viewBox="0 0 32 32">
<title>uniE076</title>
<path d="M27.947-3.787l2.667-0.027q0.533 0 0.933 0.387t0.4 0.947l0.133 26.667q0 0.56-0.387 0.947t-0.947 0.387l-2.667 0.027q-0.56 0-0.947-0.387t-0.387-0.947l-0.053-11.653-12.347 12.107q-0.373 0.4-0.653 0.28t-0.28-0.68l-0.053-11.653-12.32 12.133q-0.4 0.373-0.68 0.253t-0.28-0.653l-0.133-26.667q0-0.56 0.28-0.68t0.68 0.28l12.427 12-0.053-11.68q0-0.533 0.28-0.653t0.68 0.253l12.427 12.027-0.053-11.68q0-0.56 0.387-0.947t0.947-0.387z"></path>
</svg>
