<!-- Generated by IcoMoon.io -->
<svg version="1.1" xmlns="http://www.w3.org/2000/svg" width="32" height="32" viewBox="0 0 32 32">
<title>uniE141</title>
<path d="M15.893-6.187q3.227 0 6.173 1.267t5.067 3.387 3.387 5.067 1.267 6.173-1.267 6.173-3.387 5.080-5.067 3.387-6.173 1.253-6.173-1.253-5.080-3.387-3.387-5.080-1.253-6.173 1.253-6.173 3.387-5.067 5.080-3.387 6.173-1.267zM15.893-1.333q-2.987 0-5.533 1.48t-4.027 4.027-1.48 5.533 1.48 5.533 4.027 4.027 5.533 1.48 5.533-1.48 4.027-4.027 1.48-5.533-1.48-5.533-4.027-4.027-5.533-1.48zM12.12 1.467q0.6 0 1.027 0.427t0.427 1.027-0.427 1.040-1.027 0.44-1.027-0.44-0.427-1.040 0.427-1.027 1.027-0.427zM20.12 1.467q0.6 0 1.027 0.427t0.427 1.027-0.427 1.040-1.013 0.44q-0.373 0-0.773-0.267l-1.467 3.867q0.453 0.613 0.453 1.36 0 0.96-0.68 1.64t-1.64 0.68-1.64-0.68-0.68-1.64q0-0.853 0.547-1.507t1.373-0.787l3.28-3.387q-0.24-0.373-0.24-0.747 0-0.613 0.427-1.040t1.027-0.427zM9.213 6.693q0.6 0 1.027 0.427t0.427 1.027-0.427 1.027-1.027 0.427-1.027-0.427-0.427-1.027 0.427-1.027 1.027-0.427zM22.787 6.693q0.6 0 1.027 0.427t0.427 1.027-0.427 1.027-1.027 0.427-1.027-0.427-0.427-1.027 0.427-1.027 1.027-0.427z"></path>
</svg>
