<!-- Generated by IcoMoon.io -->
<svg version="1.1" xmlns="http://www.w3.org/2000/svg" width="32" height="32" viewBox="0 0 32 32">
<title>uniE179</title>
<path d="M22.987-3.013l7.36-3.093q0.667-0.48 1.16-0.213t0.493 1.093v29.493q0 0.56-0.387 0.947t-0.947 0.387h-5.333q-0.56 0-0.947-0.387t-0.387-0.947v-10.587q-0.107-0.027-0.293-0.133t-0.64-0.467-0.8-0.773-0.64-1.12-0.293-1.507v-9.573q0-0.827 0.493-1.733t1.16-1.387zM14.667-6.4q0.587 0 0.92 0.333t0.387 0.653l0.027 0.347v12q0 0.747-0.28 1.587t-0.667 1.493-0.773 1.2-0.68 0.84l-0.267 0.293v11.92q0 0.56-0.387 0.947t-0.947 0.387h-5.333q-0.56 0-0.947-0.387t-0.387-0.947v-11.92q-0.107-0.107-0.293-0.307t-0.64-0.813-0.8-1.227-0.64-1.467-0.293-1.6v-12q0-0.053 0.013-0.147t0.107-0.32 0.227-0.4 0.387-0.32 0.6-0.147q0.533 0 0.867 0.333t0.387 0.653l0.080 0.347v9.333h2.667v-9.48t0.067-0.32 0.187-0.4 0.4-0.32 0.68-0.147q0.613 0 0.947 0.333t0.36 0.653l0.027 0.347v9.333h2.667v-9.333q0-0.053 0.013-0.147t0.080-0.32 0.187-0.4 0.4-0.32 0.653-0.147z"></path>
</svg>
