<!-- Generated by IcoMoon.io -->
<svg version="1.1" xmlns="http://www.w3.org/2000/svg" width="32" height="32" viewBox="0 0 32 32">
<title>uniE132</title>
<path d="M16-5.813q3.147 0 6 1.213t4.92 3.28 3.28 4.92 1.213 6-1.213 6-3.28 4.92-4.92 3.28-6 1.213-6-1.213-4.92-3.28-3.28-4.92-1.213-6 1.213-6 3.28-4.92 4.92-3.28 6-1.213zM14.96 2.8l-7.333 5.947q-0.427 0.347-0.427 0.853t0.427 0.853l7.333 5.947q0.427 0.347 0.733 0.213t0.307-0.693v-3.653h7.333q0.267 0 0.467-0.2t0.2-0.467v-4q0-0.267-0.2-0.467t-0.467-0.2h-7.333v-3.653q0-0.56-0.307-0.693t-0.733 0.213z"></path>
</svg>
