<!-- Generated by IcoMoon.io -->
<svg version="1.1" xmlns="http://www.w3.org/2000/svg" width="32" height="32" viewBox="0 0 32 32">
<title>uniE182</title>
<path d="M0.453-1.253l4.32-4.32q0.453-0.453 1.067-0.373t0.987 0.587l3.707 5.173q0.373 0.533 0.293 1.187t-0.533 1.107l-3.173 3.147q2.72 3.787 6.080 7.147t7.12 6.053l3.173-3.147q0.453-0.453 1.133-0.507t1.187 0.32l5.12 3.627q0.507 0.373 0.6 1t-0.36 1.080l-4.347 4.32q-0.080 0.027-0.253 0.027t-0.787-0.053-1.267-0.16-1.667-0.387-2.067-0.707-2.4-1.133-2.707-1.6-2.96-2.213-3.173-2.893q-1.973-1.973-3.56-4.013t-2.52-3.693-1.6-3.187-0.92-2.667-0.4-1.987-0.12-1.28z"></path>
</svg>
