<!-- Generated by IcoMoon.io -->
<svg version="1.1" xmlns="http://www.w3.org/2000/svg" width="32" height="32" viewBox="0 0 32 32">
<title>uniE218</title>
<path d="M4-3.733h24q0.56 0 0.947 0.387t0.387 0.947v13.333q0 0.56-0.387 0.947t-0.947 0.387h-24q-0.56 0-0.947-0.387t-0.387-0.947v-13.333q0-0.56 0.387-0.947t0.947-0.387zM3.333 14.933h25.333q0.267 0 0.467 0.2t0.2 0.467v1.333q0 0.267-0.2 0.467t-0.467 0.2h-7.547l5.973 5.973q0.347 0.347 0.347 0.84t-0.347 0.853-0.84 0.36-0.84-0.347l-2.347-2.347h-13.973l-2.32 2.347q-0.347 0.347-0.853 0.347t-0.853-0.36-0.347-0.853 0.347-0.84l5.973-5.973h-7.707q-0.267 0-0.467-0.2t-0.2-0.467v-1.333q0-0.267 0.2-0.467t0.467-0.2zM14.427 17.6l-2.667 2.667h8.64l-2.667-2.667h-3.307z"></path>
</svg>
