<!-- Generated by IcoMoon.io -->
<svg version="1.1" xmlns="http://www.w3.org/2000/svg" width="32" height="32" viewBox="0 0 32 32">
<title>uniE026</title>
<path d="M16-5.787q3.12 0 5.973 1.213t4.92 3.28 3.28 4.92 1.213 5.973-1.213 5.973-3.28 4.92-4.92 3.28-5.973 1.213-5.973-1.213-4.92-3.28-3.28-4.92-1.213-5.973 1.213-5.973 3.28-4.92 4.92-3.28 5.973-1.213zM16-1.787q-3.093 0-5.72 1.52t-4.147 4.147-1.52 5.72 1.52 5.72 4.147 4.147 5.72 1.52 5.72-1.52 4.147-4.147 1.52-5.72-1.52-5.72-4.147-4.147-5.72-1.52zM14 1.6h4q0.267 0 0.467 0.2t0.2 0.467v7.333h3.653q0.56 0 0.693 0.307t-0.213 0.733l-5.947 7.333q-0.347 0.427-0.853 0.427t-0.853-0.427l-5.947-7.333q-0.347-0.427-0.213-0.733t0.693-0.307h3.653v-7.333q0-0.267 0.2-0.467t0.467-0.2z"></path>
</svg>
