<!-- Generated by IcoMoon.io -->
<svg version="1.1" xmlns="http://www.w3.org/2000/svg" width="32" height="32" viewBox="0 0 32 32">
<title>uniE201</title>
<path d="M26.933-1.333q2.96 2.96 4.013 6.947t0 7.973-4.013 6.947q-2.213 2.213-5.107 3.373t-5.827 1.16-5.827-1.16-5.107-3.373q-2.96-2.96-4.013-6.947t0-7.973 4.013-6.947q2.213-2.213 5.107-3.373t5.827-1.16 5.827 1.16 5.107 3.373zM12.693-2.8q-0.107 0-0.213 0.027-3.227 0.907-5.587 3.267t-3.267 5.587q-0.107 0.32 0.067 0.613t0.493 0.373l0.96 0.24q0.080 0.027 0.187 0.027 0.613 0 0.773-0.587 0.72-2.56 2.613-4.427 1.867-1.893 4.427-2.613 0.293-0.080 0.467-0.36t0.093-0.6l-0.24-0.933q-0.080-0.347-0.373-0.507-0.187-0.107-0.4-0.107zM13.653 1.067q-0.107 0-0.24 0.053-2.133 0.64-3.693 2.2t-2.2 3.693q-0.107 0.347 0.053 0.64t0.507 0.373l0.907 0.24q0.107 0.027 0.213 0.027 0.587 0 0.747-0.56 0.48-1.547 1.56-2.627t2.6-1.56q0.32-0.080 0.48-0.36t0.080-0.573l-0.24-0.933q-0.080-0.32-0.373-0.507-0.187-0.107-0.4-0.107zM19.187 6.413q-1.32-1.32-3.187-1.32t-3.187 1.32-1.32 3.187 1.32 3.187 3.187 1.32 3.187-1.32 1.32-3.187-1.32-3.187zM22.8 10.907q-0.587 0-0.747 0.56-0.48 1.547-1.56 2.627t-2.627 1.533q-0.293 0.107-0.453 0.387t-0.080 0.573l0.24 0.933q0.080 0.32 0.373 0.507 0.187 0.107 0.4 0.107 0.107 0 0.24-0.053 2.133-0.64 3.693-2.2t2.2-3.693q0.107-0.347-0.067-0.64t-0.493-0.373l-0.907-0.24q-0.107-0.027-0.213-0.027zM26.667 11.867q-0.613 0-0.773 0.587-0.72 2.56-2.613 4.427-1.867 1.893-4.427 2.613-0.293 0.080-0.467 0.36t-0.093 0.6l0.24 0.933q0.080 0.347 0.373 0.507 0.187 0.107 0.4 0.107 0.107 0 0.213-0.027 3.227-0.907 5.587-3.267t3.267-5.587q0.107-0.32-0.067-0.613t-0.493-0.373l-0.96-0.24q-0.080-0.027-0.187-0.027z"></path>
</svg>
