<!-- Generated by IcoMoon.io -->
<svg version="1.1" xmlns="http://www.w3.org/2000/svg" width="32" height="32" viewBox="0 0 32 32">
<title>uniE014</title>
<path d="M24.107-3.28l4.747 4.773q0.213 0.213 0.213 0.493t-0.213 0.467l-7.12 7.147 7.12 7.147q0.213 0.187 0.213 0.467t-0.213 0.493l-4.747 4.747q-0.213 0.213-0.493 0.213t-0.467-0.213l-7.147-7.12-7.147 7.12q-0.187 0.213-0.467 0.213t-0.493-0.213l-4.747-4.747q-0.213-0.213-0.213-0.493t0.213-0.467l7.12-7.147-7.12-7.147q-0.213-0.187-0.213-0.467t0.213-0.493l4.747-4.747q0.213-0.213 0.493-0.213t0.467 0.213l7.147 7.12 7.147-7.147q0.187-0.187 0.467-0.187t0.493 0.187z"></path>
</svg>
