<!-- Generated by IcoMoon.io -->
<svg version="1.1" xmlns="http://www.w3.org/2000/svg" width="32" height="32" viewBox="0 0 32 32">
<title>uniE010</title>
<path d="M1.333-3.733h10.667q0.56 0 0.947 0.387t0.387 0.947v10.667q0 0.56-0.387 0.947t-0.947 0.387h-10.667q-0.56 0-0.947-0.387t-0.387-0.947v-10.667q0-0.56 0.387-0.947t0.947-0.387zM17.333-3.733h10.667q0.56 0 0.947 0.387t0.387 0.947v10.667q0 0.56-0.387 0.947t-0.947 0.387h-10.667q-0.56 0-0.947-0.387t-0.387-0.947v-10.667q0-0.56 0.387-0.947t0.947-0.387zM1.333 12.267h10.667q0.56 0 0.947 0.387t0.387 0.947v10.667q0 0.56-0.387 0.947t-0.947 0.387h-10.667q-0.56 0-0.947-0.387t-0.387-0.947v-10.667q0-0.56 0.387-0.947t0.947-0.387zM17.333 12.267h10.667q0.56 0 0.947 0.387t0.387 0.947v10.667q0 0.56-0.387 0.947t-0.947 0.387h-10.667q-0.56 0-0.947-0.387t-0.387-0.947v-10.667q0-0.56 0.387-0.947t0.947-0.387z"></path>
</svg>
