<!-- Generated by IcoMoon.io -->
<svg version="1.1" xmlns="http://www.w3.org/2000/svg" width="32" height="32" viewBox="0 0 32 32">
<title>uniE238</title>
<path d="M4-3.733h26.667q0.56 0 0.947 0.387t0.387 0.947-0.387 0.947-0.947 0.387h-1.333v5.333h1.333q0.56 0 0.947 0.387t0.387 0.947-0.387 0.947-0.947 0.387h-1.333v5.333h1.333q0.56 0 0.947 0.387t0.387 0.947-0.387 0.947-0.947 0.387h-1.333v5.333h1.333q0.56 0 0.947 0.387t0.387 0.947-0.387 0.947-0.947 0.387h-26.667q-0.56 0-0.947-0.387t-0.387-0.947 0.387-0.947 0.947-0.387h1.333v-5.333h-1.333q-0.56 0-0.947-0.387t-0.387-0.947 0.387-0.947 0.947-0.387h1.333v-5.333h-1.333q-0.56 0-0.947-0.387t-0.387-0.947 0.387-0.947 0.947-0.387h1.333v-5.333h-1.333q-0.56 0-0.947-0.387t-0.387-0.947 0.387-0.947 0.947-0.387z"></path>
</svg>
