<!-- Generated by IcoMoon.io -->
<svg version="1.1" xmlns="http://www.w3.org/2000/svg" width="32" height="32" viewBox="0 0 32 32">
<title>uniE101</title>
<path d="M16-5.787q3.12 0 5.973 1.213t4.92 3.28 3.28 4.92 1.213 5.973-1.213 5.973-3.28 4.92-4.92 3.28-5.973 1.213-5.973-1.213-4.92-3.28-3.28-4.92-1.213-5.973 1.213-5.973 3.28-4.92 4.92-3.28 5.973-1.213zM18.773 1.6h-5.547q-0.533 0-0.853 0.387t-0.213 0.92l1.547 8.053q0.107 0.533 0.573 0.92t1 0.387h1.44q0.533 0 1-0.387t0.573-0.92l1.547-8.053q0.107-0.533-0.213-0.92t-0.853-0.387zM18 14.933h-4q-0.267 0-0.467 0.2t-0.2 0.467v4q0 0.267 0.2 0.467t0.467 0.2h4q0.267 0 0.467-0.2t0.2-0.467v-4q0-0.267-0.2-0.467t-0.467-0.2z"></path>
</svg>
