<!-- Generated by IcoMoon.io -->
<svg version="1.1" xmlns="http://www.w3.org/2000/svg" width="32" height="32" viewBox="0 0 32 32">
<title>uniE028</title>
<path d="M6-6.4h20q0.267 0 0.52 0.187t0.333 0.453l4.96 17.387q0.187 0.64 0.187 1.307v11.333q0 0.32-0.107 0.72t-0.24 0.453q-0.32 0.16-0.987 0.16h-29.333q-0.32 0-0.72-0.107t-0.453-0.213q-0.16-0.347-0.16-1.013l0.027-11.333q0-0.667 0.187-1.307l4.933-17.387q0.080-0.267 0.333-0.453t0.52-0.187zM23.413-1.067h-14.827q-0.267 0-0.507 0.187t-0.293 0.48l-2.32 12q-0.053 0.293 0.107 0.48t0.427 0.187h4q0.267 0 0.52 0.187t0.307 0.453l1.013 4.053q0.053 0.267 0.307 0.453t0.52 0.187h6.667q0.267 0 0.52-0.187t0.307-0.453l1.013-4.053q0.053-0.267 0.307-0.453t0.52-0.187h4q0.267 0 0.427-0.187t0.107-0.48l-2.32-12q-0.053-0.293-0.293-0.48t-0.507-0.187z"></path>
</svg>
