<!-- Generated by IcoMoon.io -->
<svg version="1.1" xmlns="http://www.w3.org/2000/svg" width="32" height="32" viewBox="0 0 32 32">
<title>uniE198</title>
<path d="M13.387-3.44q2.933 0 5.36 1.587t3.6 4.173q1.147-0.4 2.373-0.4 3.227 0 5.493 2.307t2.293 5.507q0 2.64-1.6 4.827t-4 2.933l-10.080-9.6q-0.347-0.427-0.84-0.427t-0.84 0.427l-10.16 9.733h-0.24q-2.107 0-3.613-1.533t-1.507-3.64q0-1.84 1.147-3.267t2.88-1.8q-0.053-0.507-0.053-1.013 0-2.667 1.307-4.92t3.56-3.573 4.92-1.32zM16.853 13.147l5.947 6.080q0.347 0.427 0.213 0.733t-0.693 0.307h-3.653v7.333q0 0.267-0.2 0.467t-0.467 0.2h-4q-0.267 0-0.467-0.2t-0.2-0.467v-7.333h-3.653q-0.56 0-0.693-0.307t0.213-0.733q5.307-5.44 5.947-6.080 0.507-0.507 0.84-0.507t0.867 0.507z"></path>
</svg>
