<!-- Generated by IcoMoon.io -->
<svg version="1.1" xmlns="http://www.w3.org/2000/svg" width="32" height="32" viewBox="0 0 32 32">
<title>uniE107</title>
<path d="M-2.4 22.933l17.12-28.427q0.533-0.827 1.28-0.76t1.28 0.947l17.12 28.16q0.56 0.853 0.2 1.8t-1.347 0.947h-34.507q-0.987 0-1.347-0.907t0.2-1.76zM4.133 20.267h9.2v-2q0-0.267 0.2-0.467t0.467-0.2h4q0.267 0 0.467 0.2t0.2 0.467v2h9.2l-11.867-19.28zM13.227 6.933h5.547q0.533 0 0.853 0.387t0.213 0.92l-1.547 6.72q-0.107 0.533-0.573 0.92t-1 0.387h-1.44q-0.533 0-1-0.387t-0.573-0.92l-1.547-6.72q-0.107-0.533 0.213-0.92t0.853-0.387z"></path>
</svg>
