<!-- Generated by IcoMoon.io -->
<svg version="1.1" xmlns="http://www.w3.org/2000/svg" width="32" height="32" viewBox="0 0 32 32">
<title>uniE239</title>
<path d="M17.333-6.053q2.32 1.787 3.16 4.16t0 4.747-3.16 4.133q-2.32-1.76-3.16-4.133t0-4.747 3.16-4.16zM8 4.267q3.307 0 5.653 2.347t2.347 5.653q-3.307 0-5.653-2.347t-2.347-5.653zM26.667 4.267q0 3.307-2.347 5.653t-5.653 2.347q0-3.307 2.347-5.653t5.653-2.347zM8 12.267q3.307 0 5.653 2.347t2.347 5.653q-3.307 0-5.653-2.347t-2.347-5.653zM26.667 12.267q0 3.307-2.347 5.653t-5.653 2.347q0-3.307 2.347-5.653t5.653-2.347zM18.667 20.293v3.84q0 0.56-0.387 0.947t-0.947 0.387-0.947-0.387-0.387-0.947v-3.787q1.067 0.107 1.147 0.107 0.453 0 1.52-0.16z"></path>
</svg>
