<!-- Generated by IcoMoon.io -->
<svg version="1.1" xmlns="http://www.w3.org/2000/svg" width="32" height="32" viewBox="0 0 32 32">
<title>uniE200</title>
<path d="M16-5.84q2.507 0 4.467 1.507t2.653 3.88q2.373 0.16 4.013 1.907t1.64 4.147q0 1.627-0.787 3t-2.12 2.2q0.24 0.773 0.24 1.467 0 1.973-1.4 3.373t-3.373 1.4q-1.467 0-2.667-0.8v6.693q0.56 0 0.947 0.387t0.387 0.947v1.333h-8v-1.333q0-0.56 0.387-0.947t0.947-0.387v-6.693q-1.2 0.8-2.667 0.8-1.973 0-3.373-1.4t-1.4-3.373q0-0.48 0.107-1.013-1.253-0.56-2.013-1.733t-0.76-2.587q0-1.973 1.4-3.373t3.373-1.4q0.133 0 0.613 0.053 0-0.053-0.027-0.267t-0.027-0.347q0-3.093 2.173-5.267t5.267-2.173z"></path>
</svg>
