<!-- Generated by IcoMoon.io -->
<svg version="1.1" xmlns="http://www.w3.org/2000/svg" width="32" height="32" viewBox="0 0 32 32">
<title>uniE036</title>
<path d="M8.56 3.893l6.88-4.587q0.24-0.16 0.4-0.067t0.16 0.36v20q0 0.267-0.16 0.36t-0.4-0.067l-6.88-4.587q-0.56-0.373-1.227-0.373h-6.667q-0.267 0-0.467-0.2t-0.2-0.467v-9.333q0-0.267 0.2-0.467t0.467-0.2h6.667q0.667 0 1.227-0.373zM24 7.787l3.2-3.2q0.187-0.187 0.453-0.187t0.453 0.187l0.907 0.907q0.187 0.187 0.187 0.453t-0.187 0.453l-3.2 3.2 3.2 3.2q0.187 0.187 0.187 0.453t-0.187 0.453l-0.907 0.907q-0.187 0.187-0.453 0.187t-0.453-0.187l-3.2-3.173-3.2 3.173q-0.187 0.187-0.453 0.187t-0.453-0.187l-0.907-0.907q-0.187-0.187-0.187-0.453t0.187-0.453l3.173-3.2-3.173-3.2q-0.187-0.187-0.187-0.453t0.187-0.453l0.907-0.907q0.187-0.213 0.453-0.213t0.453 0.213z"></path>
</svg>
