<!-- Generated by IcoMoon.io -->
<svg version="1.1" xmlns="http://www.w3.org/2000/svg" width="32" height="32" viewBox="0 0 32 32">
<title>uniE038</title>
<path d="M25.787-1.173h0.080q0.293 0.027 0.453 0.267 3.6 4.773 3.6 10.56 0 2.8-0.907 5.507t-2.613 4.947q-0.187 0.24-0.453 0.267h-0.080q-0.24 0-0.427-0.16l-1.12-0.907q-0.213-0.16-0.24-0.427t0.133-0.48q2.96-4 2.96-8.747 0-2.4-0.787-4.693t-2.253-4.187q-0.16-0.24-0.133-0.507t0.267-0.427l1.12-0.88q0.187-0.133 0.4-0.133zM8.56 3.893l6.88-4.587q0.24-0.16 0.4-0.067t0.16 0.36v20q0 0.267-0.16 0.36t-0.4-0.067l-6.88-4.587q-0.56-0.373-1.227-0.373h-6.667q-0.267 0-0.467-0.2t-0.2-0.467v-9.333q0-0.267 0.2-0.467t0.467-0.2h6.667q0.667 0 1.227-0.373zM20.427 1.6h0.107q0.267 0.027 0.427 0.267 2.56 3.44 2.56 7.733 0 4.107-2.4 7.493-0.16 0.24-0.453 0.267l-0.080 0.027q-0.24 0-0.427-0.16l-0.773-0.613q-0.187-0.187-0.227-0.44t0.12-0.467q1.92-2.747 1.92-6.107 0-3.52-2.080-6.347-0.16-0.213-0.12-0.493t0.253-0.44l0.773-0.587q0.187-0.133 0.4-0.133z"></path>
</svg>
