<!-- Generated by IcoMoon.io -->
<svg version="1.1" xmlns="http://www.w3.org/2000/svg" width="32" height="32" viewBox="0 0 32 32">
<title>uniE167</title>
<path d="M15.547-5.92l10.080 11.6q0.373 0.4 0.24 0.827t-0.693 0.427h-6.507v6.667q0 0.533-0.453 0.933t-1.040 0.4h-5.333q-0.533 0-0.853-0.387t-0.32-0.947v-6.667h-6.667q-0.533 0-0.68-0.44t0.227-0.84l10.213-11.493q0.373-0.427 0.893-0.453t0.893 0.373zM1.333 17.6h26.667q0.56 0 0.947 0.387t0.387 0.947v6.667h-29.333v-6.667q0-0.56 0.387-0.947t0.947-0.387zM24 20.267v1.333h2.667v-1.333h-2.667z"></path>
</svg>
