<!-- Generated by IcoMoon.io -->
<svg version="1.1" xmlns="http://www.w3.org/2000/svg" width="32" height="32" viewBox="0 0 32 32">
<title>uniE143</title>
<path d="M17.307 0.293q1.28-1.813 2.92-2.773t3.24-1.027 3.16 0.533 2.733 1.707 1.893 2.68 0.72 3.28q0 1.52-0.893 3.133t-2.507 3.32-3.373 3.4-4 4.067-3.893 4.64q-1.653-2.267-3.88-4.64t-4-4.067-3.373-3.4-2.493-3.32-0.893-3.133q0-1.707 0.747-3.28t1.947-2.68 2.773-1.707 3.173-0.533 3.213 1.027 2.787 2.773zM23.893-0.32q-0.88 0-1.72 0.507t-1.507 1.227-1.267 1.427-1.16 1.213-1 0.507-0.96-0.507-1.067-1.213-1.147-1.427-1.44-1.227-1.747-0.507q-1.787 0-3.267 1.48t-1.48 3.533q0 0.613 0.36 1.36t1.227 1.733 1.533 1.68 2.027 2l0.587 0.587q0.4 0.373 1.173 1.173t1.347 1.36 1.227 1.173 1.093 0.933 0.613 0.32 0.627-0.32 1.133-0.96 1.227-1.173 1.4-1.387 1.173-1.147q0.107-0.107 0.32-0.347 1.147-1.093 1.693-1.653t1.387-1.467 1.227-1.467 0.693-1.227 0.307-1.173q0-2.107-1.413-3.56t-3.2-1.453z"></path>
</svg>
