<!-- Generated by IcoMoon.io -->
<svg version="1.1" xmlns="http://www.w3.org/2000/svg" width="32" height="32" viewBox="0 0 32 32">
<title>uniE145</title>
<path d="M16.080-6.4q2.267 0 4.32 0.4t3.387 1.013 2.107 1.28 0.773 1.227v25.413q0 1.093-0.787 1.88t-1.88 0.787h-16q-1.093 0-1.88-0.787t-0.787-1.88v-25.413q0-0.56 0.8-1.24t2.16-1.28 3.44-1 4.347-0.4zM8-1.067v18.667h16v-18.667h-16zM16 18.827q-1.147 0-1.96 0.813t-0.813 1.96 0.813 1.96 1.96 0.813 1.96-0.813 0.813-1.96-0.813-1.96-1.96-0.813z"></path>
</svg>
