<!-- Generated by IcoMoon.io -->
<svg version="1.1" xmlns="http://www.w3.org/2000/svg" width="32" height="32" viewBox="0 0 32 32">
<title>uniE212</title>
<path d="M16-9.067q1.067 0 1.827 0.787t0.76 1.88h-5.173q0-1.093 0.76-1.88t1.827-0.787zM11.813-3.733h8.373q0.48 0.987 0.48 2 0 0.213-0.080 0.667h8.747q1.093 0 1.187 0.44t-0.813 1.027l-4.667 3.867h-18.080l-4.747-3.867q-0.907-0.587-0.773-1.027t1.227-0.44h8.747q-0.080-0.453-0.080-0.667 0-1.013 0.48-2zM6.667 6.933h18.667q0.56 0 0.947 0.387t0.387 0.947-0.387 0.947-0.947 0.387h-4v5.333l7.333 5.333h-25.333l7.333-5.333v-5.333h-4q-0.56 0-0.947-0.387t-0.387-0.947 0.387-0.947 0.947-0.387zM1.333 22.933h29.333q0.56 0 0.947 0.387t0.387 0.947v1.333h-32v-1.333q0-0.56 0.387-0.947t0.947-0.387z"></path>
</svg>
