<!-- Generated by IcoMoon.io -->
<svg version="1.1" xmlns="http://www.w3.org/2000/svg" width="32" height="32" viewBox="0 0 32 32">
<title>uniE103</title>
<path d="M31.067-6.133q0.213-0.080 0.56 0.173t0.347 0.467q-0.053 4.747-0.653 8.627t-1.48 6.547-2.32 4.653-2.733 3.16-3.147 1.827-3.16 0.88-3.2 0.12-2.8-0.253-2.4-0.44q-1.627-0.32-2.080-0.293-0.107-0.027-0.333 0t-0.907 0.387-1.4 1.080l-4.080 4.080q-0.693 0.64-0.987 0.387t-0.293-1.16q0-1.707 1.12-2.72 0.213-0.213 1.347-1.2t1.773-1.547q0.507-0.453 0.933-1.253t0.347-1.627q-0.24-1.467-0.267-2.733t0.187-2.96 0.987-3.467 2.080-3.453q1.040-1.36 2.133-2.347t2.387-1.693 2.52-1.2 3.027-0.96 3.44-0.827 4.2-0.987 4.853-1.267zM29.76-3.68q-0.213-0.24-0.6 0.080t-1.213 1.333q-1.013 1.253-3.173 2.76t-3.787 2.387l-1.653 0.88q-1.493 0.8-2.72 1.52t-2.773 1.813-2.733 2.147-2.28 2.427-1.707 2.787q-0.64 1.493-0.827 2.293t0.053 0.853 0.84-0.467 1.48-1.587q0.667-0.8 2.507-2.013t3.347-2.067 3.933-2.16q1.867-0.987 3.16-1.84t2.72-2.12 2.64-2.96 2.307-3.96q0.587-1.333 0.64-1.6t-0.16-0.507z"></path>
</svg>
