<!-- Generated by IcoMoon.io -->
<svg version="1.1" xmlns="http://www.w3.org/2000/svg" width="32" height="32" viewBox="0 0 32 32">
<title>uniE144</title>
<path d="M20.707-6.773q2.493 0 4.253 1.76l3.76 3.76q1.76 1.76 1.76 4.267 0 1.12-0.747 2.547t-1.653 2.333l-0.773 0.773q-0.827-1.413-2.053-2.64l-0.48-0.48 2.533-2.533-6.587-6.613-10.373 10.373 5.653 5.653-2.8 2.827-0.507-0.48-3.76-3.76q-1.76-1.76-1.76-4.24t1.76-4.24l7.547-7.547q1.733-1.76 4.227-1.76zM16 6.773l2.8-2.8q0.267 0.213 0.507 0.453l3.76 3.76q1.76 1.76 1.76 4.24t-1.76 4.24l-7.547 7.547q-1.76 1.76-4.24 1.76t-4.24-1.76l-3.76-3.76q-1.76-1.76-1.76-4.253t1.76-4.253l1.467-1.467q0.773 1.467 2 2.72l0.48 0.453-2.533 2.533 6.587 6.613 10.373-10.373z"></path>
</svg>
