<!-- Generated by IcoMoon.io -->
<svg version="1.1" xmlns="http://www.w3.org/2000/svg" width="32" height="32" viewBox="0 0 32 32">
<title>uniE127</title>
<path d="M9.493 2.32l9.68-6.133q0.827-0.427 1.413 0.16l2.933 2.987q0.347 0.347 0.36 0.853t-0.307 0.907l-2.24 3.227h8.053q2.24 0 3.68 1.013t1.44 2.933-1.467 2.96-3.707 1.040h-2.827l-3.493 9.040q-0.16 0.56-0.52 1.093t-0.76 0.533h-9.12q-0.187 0-2.4-2.16t-2.213-2.507v-14q0-0.453 0.373-0.947t0.747-0.76zM10.667 4.48v13.413l2.667 2.373h7.813l3.493-9.040q0.16-0.56 0.52-1.093t0.76-0.533h5.413q0.56 0 0.813-0.667t0.013-1.333-0.827-0.667h-12.653t-0.16-0.013-0.133-0.040-0.133-0.053-0.107-0.067-0.107-0.107-0.067-0.12q-0.32-0.667 0.133-1.253l3.893-4.88-2.293-2.213zM1.333 4.267h2.667q0.56 0 0.947 0.387t0.387 0.947v13.333q0 0.56-0.387 0.947t-0.947 0.387h-2.667q-0.56 0-0.947-0.387t-0.387-0.947v-13.333q0-0.56 0.387-0.947t0.947-0.387z"></path>
</svg>
