<!-- Generated by IcoMoon.io -->
<svg version="1.1" xmlns="http://www.w3.org/2000/svg" width="32" height="32" viewBox="0 0 32 32">
<title>uniE205</title>
<path d="M17.333-3.733h2.667q0.56 0 0.947 0.387t0.387 0.947v1.333h1.333q0.56 0 0.947 0.387t0.387 0.947v2.667q0 0.56-0.387 0.947t-0.947 0.387h-8q-0.56 0-0.947-0.387t-0.387-0.947v-2.667q0-0.56 0.387-0.947t0.947-0.387h1.333v-1.333q0-0.56 0.387-0.947t0.947-0.387zM26.667 2.933v-4q1.093 0 1.88 0.787t0.787 1.88v21.333q0 1.093-0.787 1.88t-1.88 0.787h-16q-0.027 0-0.533-0.107l6.56-6.56-8.693-8.693v-8.64q0-1.093 0.787-1.88t1.88-0.787v4q0 1.653 1.173 2.827t2.827 1.173h8q1.653 0 2.827-1.173t1.173-2.827zM10.987 18.933l-5.653 5.653v-4.32h-5.333v-2.667h5.333v-4.32z"></path>
</svg>
