<!-- Generated by IcoMoon.io -->
<svg version="1.1" xmlns="http://www.w3.org/2000/svg" width="32" height="32" viewBox="0 0 32 32">
<title>uniE133</title>
<path d="M16-5.813q3.147 0 6 1.213t4.92 3.28 3.28 4.92 1.213 6-1.213 6-3.28 4.92-4.92 3.28-6 1.213-6-1.213-4.92-3.28-3.28-4.92-1.213-6 1.213-6 3.28-4.92 4.92-3.28 6-1.213zM22.8 8.56l-5.947-7.333q-0.347-0.427-0.853-0.427t-0.853 0.427l-5.947 7.333q-0.347 0.427-0.213 0.733t0.693 0.307h3.653v7.333q0 0.267 0.2 0.467t0.467 0.2h4q0.267 0 0.467-0.2t0.2-0.467v-7.333h3.653q0.56 0 0.693-0.307t-0.213-0.733z"></path>
</svg>
