<!-- Generated by IcoMoon.io -->
<svg version="1.1" xmlns="http://www.w3.org/2000/svg" width="32" height="32" viewBox="0 0 32 32">
<title>uniE211</title>
<path d="M18.667-6.4h2.667v5.333h-2.667v2.667h9.333q1.653 0 2.307 1.053t-0.093 2.52l-1.76 3.52q-1.093 2.213-2.16 3.573h-20.587q-1.067-1.36-2.16-3.573l-1.76-3.52q-0.747-1.467-0.093-2.52t2.307-1.053h9.333v-2.667h-2.667v-5.333h2.667v-2.667h5.333v2.667zM6.667 14.933h18.667q0.56 0 0.947 0.387t0.387 0.947-0.387 0.947-0.947 0.387h-0.32l3.653 2.667h-25.333l3.68-2.667h-0.347q-0.56 0-0.947-0.387t-0.387-0.947 0.387-0.947 0.947-0.387zM1.333 22.933h29.333q0.56 0 0.947 0.387t0.387 0.947v1.333h-32v-1.333q0-0.56 0.387-0.947t0.947-0.387z"></path>
</svg>
