<!-- Generated by IcoMoon.io -->
<svg version="1.1" xmlns="http://www.w3.org/2000/svg" width="32" height="32" viewBox="0 0 32 32">
<title>uniE008</title>
<path d="M16-6.4q3.307 0 5.653 2.347t2.347 5.653v6.667q0 1.227-0.827 2.613t-1.84 1.387v2q0 0.267 0.16 0.573t0.4 0.467l9.547 6.133q0.24 0.133 0.4 0.44t0.16 0.573v2.48q0 0.267-0.2 0.467t-0.467 0.2h-30.667q-0.267 0-0.467-0.2t-0.2-0.467v-2.48q0-0.267 0.16-0.573t0.4-0.44l9.547-6.133q0.24-0.16 0.4-0.467t0.16-0.573v-2q-1.013 0-1.84-1.387t-0.827-2.613v-6.667q0-3.307 2.347-5.653t5.653-2.347z"></path>
</svg>
