<!-- Generated by IcoMoon.io -->
<svg version="1.1" xmlns="http://www.w3.org/2000/svg" width="32" height="32" viewBox="0 0 32 32">
<title>uniE164</title>
<path d="M20-6.4h10.667q0.56 0 0.947 0.387t0.387 0.947v10.667q0 0.56-0.28 0.667t-0.653-0.267l-2.907-2.907-8.32 8.32q-0.4 0.4-0.947 0.4t-0.947-0.4l-3.76-3.76q-0.4-0.4-0.4-0.947t0.4-0.947l8.32-8.32-2.907-2.907q-0.373-0.373-0.267-0.653t0.667-0.28zM12.16 1.6h-4.16q-1.093 0-1.88 0.787t-0.787 1.88v13.333q0 1.093 0.787 1.88t1.88 0.787h13.333q1.093 0 1.88-0.787t0.787-1.88v-3.947l5.333-5.333v7.947q0 4.4-2.493 6.867t-6.84 2.467h-10.667q-4.4 0-6.867-2.467t-2.467-6.867v-10.667q0-4.4 2.467-6.867t6.867-2.467h8z"></path>
</svg>
