<!-- Generated by IcoMoon.io -->
<svg version="1.1" xmlns="http://www.w3.org/2000/svg" width="32" height="32" viewBox="0 0 32 32">
<title>uniE032</title>
<path d="M3.333-6.4h28q0.267 0 0.467 0.2t0.2 0.467v30.667q0 0.267-0.2 0.467t-0.467 0.2h-28q-0.267 0-0.467-0.2t-0.2-0.467v-30.667q0-0.267 0.2-0.467t0.467-0.2zM28.667-1.067h-22.667q-0.267 0-0.467 0.2t-0.2 0.467v22.667q0 0.267 0.2 0.467t0.467 0.2h22.667q0.267 0 0.467-0.2t0.2-0.467v-22.667q0-0.267-0.2-0.467t-0.467-0.2zM8.667 1.6h1.333q0.267 0 0.467 0.2t0.2 0.467v1.333q0 0.267-0.2 0.467t-0.467 0.2h-1.333q-0.267 0-0.467-0.2t-0.2-0.467v-1.333q0-0.267 0.2-0.467t0.467-0.2zM14 1.6h12q0.267 0 0.467 0.2t0.2 0.467v1.333q0 0.267-0.2 0.467t-0.467 0.2h-12q-0.267 0-0.467-0.2t-0.2-0.467v-1.333q0-0.267 0.2-0.467t0.467-0.2zM8.667 6.933h1.333q0.267 0 0.467 0.2t0.2 0.467v1.333q0 0.267-0.2 0.467t-0.467 0.2h-1.333q-0.267 0-0.467-0.2t-0.2-0.467v-1.333q0-0.267 0.2-0.467t0.467-0.2zM14 6.933h12q0.267 0 0.467 0.2t0.2 0.467v1.333q0 0.267-0.2 0.467t-0.467 0.2h-12q-0.267 0-0.467-0.2t-0.2-0.467v-1.333q0-0.267 0.2-0.467t0.467-0.2zM8.667 12.267h1.333q0.267 0 0.467 0.2t0.2 0.467v1.333q0 0.267-0.2 0.467t-0.467 0.2h-1.333q-0.267 0-0.467-0.2t-0.2-0.467v-1.333q0-0.267 0.2-0.467t0.467-0.2zM14 12.267h12q0.267 0 0.467 0.2t0.2 0.467v1.333q0 0.267-0.2 0.467t-0.467 0.2h-12q-0.267 0-0.467-0.2t-0.2-0.467v-1.333q0-0.267 0.2-0.467t0.467-0.2zM8.667 17.6h1.333q0.267 0 0.467 0.2t0.2 0.467v1.333q0 0.267-0.2 0.467t-0.467 0.2h-1.333q-0.267 0-0.467-0.2t-0.2-0.467v-1.333q0-0.267 0.2-0.467t0.467-0.2zM14 17.6h12q0.267 0 0.467 0.2t0.2 0.467v1.333q0 0.267-0.2 0.467t-0.467 0.2h-12q-0.267 0-0.467-0.2t-0.2-0.467v-1.333q0-0.267 0.2-0.467t0.467-0.2z"></path>
</svg>
