<!-- Generated by IcoMoon.io -->
<svg version="1.1" xmlns="http://www.w3.org/2000/svg" width="32" height="32" viewBox="0 0 32 32">
<title>uniE048</title>
<path d="M20.080 8.507q0.133 0.027 0.387 0.12t0.96 0.413 1.347 0.707 1.427 1.067 1.347 1.453 0.947 1.867 0.387 2.32q0 1.787-0.733 3.347t-1.907 2.6-2.627 1.773-2.893 1.080-2.72 0.347h-13.333v-2.373q1.093-0.187 1.88-0.867t0.787-1.747v-22.053q0-0.64-0.013-0.907t-0.093-0.64-0.227-0.52-0.453-0.36-0.747-0.333-1.133-0.307v-1.893l12.56 0.027q1.52 0 3.080 0.547t2.88 1.52 2.147 2.507 0.827 3.32q0 1.36-0.413 2.573t-1.013 1.987-1.2 1.347-1.027 0.813zM10.667 6.933h3.707q2.080 0 3.48-1.293t1.4-3.267q0-1.093-0.227-1.88t-0.787-1.48-1.667-1.053-2.76-0.36h-3.147v9.333zM10.667 20.267h5.76q2.133 0 3.227-1.347t1.093-3.48q0-2.4-1.667-4.12t-4.173-1.72h-4.24v10.667z"></path>
</svg>
