<!-- Generated by IcoMoon.io -->
<svg version="1.1" xmlns="http://www.w3.org/2000/svg" width="32" height="32" viewBox="0 0 32 32">
<title>uniE067</title>
<path d="M9.333-3.733h9.333q1.6 0 3.387 0.613l-4.747 4.72h-9.307q-1.093 0-1.88 0.787t-0.787 1.88v13.333q0 1.093 0.787 1.88t1.88 0.787h13.333q1.093 0 1.88-0.787t0.787-1.88v-1.84l5.333-5.333v5.84q0 4.4-2.467 6.867t-6.867 2.467h-10.667q-4.4 0-6.867-2.467t-2.467-6.867v-10.667q0-4.4 2.467-6.867t6.867-2.467zM17.147 8.56l10.533-10.533q0.187-0.187 0.467-0.187t0.467 0.187l2.693 2.693q0.187 0.187 0.187 0.467t-0.187 0.467l-14.16 14.187q-0.187 0.187-0.467 0.187t-0.467-0.187l-6.613-6.613q-0.187-0.187-0.187-0.467t0.187-0.467l2.693-2.693q0.187-0.187 0.467-0.187t0.467 0.187l2.96 2.96q0.213 0.187 0.48 0.187t0.48-0.187z"></path>
</svg>
