<!-- Generated by IcoMoon.io -->
<svg version="1.1" xmlns="http://www.w3.org/2000/svg" width="32" height="32" viewBox="0 0 32 32">
<title>uniE083</title>
<path d="M16-5.787q3.12 0 5.973 1.213t4.92 3.28 3.28 4.92 1.213 5.973-1.213 5.973-3.28 4.92-4.92 3.28-5.973 1.213-5.973-1.213-4.92-3.28-3.28-4.92-1.213-5.973 1.213-5.973 3.28-4.92 4.92-3.28 5.973-1.213zM19.773 1.253q-0.333 0-0.573 0.24l-3.2 3.2-3.2-3.2q-0.24-0.24-0.573-0.24t-0.573 0.24l-3.76 3.76q-0.24 0.24-0.24 0.573t0.24 0.573l3.2 3.2-3.2 3.2q-0.24 0.24-0.24 0.573t0.24 0.573l3.76 3.76q0.24 0.24 0.573 0.24t0.573-0.24l3.2-3.2 3.2 3.2q0.24 0.24 0.573 0.24t0.573-0.24l3.76-3.76q0.24-0.24 0.24-0.573t-0.24-0.573l-3.2-3.2 3.2-3.2q0.24-0.24 0.24-0.573t-0.24-0.573l-3.76-3.76q-0.24-0.24-0.573-0.24z"></path>
</svg>
