<!-- Generated by IcoMoon.io -->
<svg version="1.1" xmlns="http://www.w3.org/2000/svg" width="32" height="32" viewBox="0 0 32 32">
<title>uniE108</title>
<path d="M17.333-6.4q1.653 0 2.827 1.173t1.173 2.827v9.040l9.68 8.667q0.4 0.373 0.693 1.027t0.293 1.187v1.093q0 0.533-0.32 0.707t-0.773-0.147l-9.573-6.64v7.013q2.667 2.48 2.667 3.013v1.707q0 0.56-0.347 0.773t-0.853-0.027l-5.467-3.413-5.467 3.413q-0.507 0.24-0.853 0.027t-0.347-0.773v-1.707q0-0.533 2.667-3.013v-7.013l-9.573 6.64q-0.453 0.32-0.773 0.147t-0.32-0.707v-1.093q0-0.533 0.293-1.187t0.693-1.027l9.68-8.667v-9.040q0-1.653 1.173-2.827t2.827-1.173z"></path>
</svg>
