<!-- Generated by IcoMoon.io -->
<svg version="1.1" xmlns="http://www.w3.org/2000/svg" width="32" height="32" viewBox="0 0 32 32">
<title>uniE002</title>
<path d="M9.813-1.52l17.2-4.347q1.040-0.4 1.68 0t0.64 1.307v22.16q0 1.467-1.107 2.547t-2.973 1.693q-2.107 0.667-3.92 0.12t-2.293-2 0.68-2.973 3.267-2.187q1.92-0.64 3.68-0.213v-13.893l-16 4.133v16.16q0 1.12-1.173 2.4t-2.907 1.84q-2.107 0.693-3.92 0.147t-2.293-2.013 0.68-2.973 3.267-2.2q1.92-0.64 3.68-0.187v-17.040q0-1.013 0.387-1.573t1.427-0.907z"></path>
</svg>
