<!-- Generated by IcoMoon.io -->
<svg version="1.1" xmlns="http://www.w3.org/2000/svg" width="32" height="32" viewBox="0 0 32 32">
<title>uniE070</title>
<path d="M1.333-3.733h2.667q0.56 0 0.947 0.387t0.387 0.947v11.68l12.373-12.080q0.4-0.373 0.68-0.267t0.28 0.667v11.68l12.373-12.080q0.4-0.373 0.68-0.267t0.28 0.667v26.667q0 0.56-0.28 0.667t-0.68-0.267l-12.373-12.080v11.68q0 0.56-0.28 0.667t-0.68-0.267l-12.373-12.080v11.68q0 0.56-0.387 0.947t-0.947 0.387h-2.667q-0.56 0-0.947-0.387t-0.387-0.947v-26.667q0-0.56 0.387-0.947t0.947-0.387z"></path>
</svg>
