<!-- Generated by IcoMoon.io -->
<svg version="1.1" xmlns="http://www.w3.org/2000/svg" width="32" height="32" viewBox="0 0 32 32">
<title>uniE066</title>
<path d="M9.333-3.733h9.627q-4.373 3.893-5.76 5.333h-5.2q-1.093 0-1.88 0.787t-0.787 1.88v13.333q0 1.093 0.787 1.88t1.88 0.787h13.333q1.093 0 1.88-0.787t0.787-1.88l5.333-4.080v2.747q0 4.4-2.467 6.867t-6.867 2.467h-10.667q-4.4 0-6.867-2.467t-2.467-6.867v-10.667q0-4.4 2.467-6.867t6.867-2.467zM21.973-3.013l9.040 8.027q0.213 0.187 0.213 0.467t-0.213 0.467l-9.067 8.16q-0.187 0.16-0.333 0.107t-0.173-0.293v-5.413q-0.693-0.027-1.453 0t-2.093 0.2-2.453 0.467-2.293 0.933-1.867 1.52q0.267-1.573 0.88-2.88t1.373-2.173 1.733-1.56 1.827-1.080 1.787-0.653 1.493-0.36 1.067-0.12v-5.6q0.027-0.267 0.173-0.333t0.36 0.12z"></path>
</svg>
