<!-- Generated by IcoMoon.io -->
<svg version="1.1" xmlns="http://www.w3.org/2000/svg" width="32" height="32" viewBox="0 0 32 32">
<title>uniE173</title>
<path d="M29.333-1.067l-0.053 3.973-7.973 7.973-2.533-2.533q-0.24-0.24-0.573-0.24t-0.573 0.24l-3.973 3.92h-8.32v10.667h-4q-0.56 0-0.947-0.387t-0.387-0.947v-26.667q0-0.533 0.387-0.933t0.947-0.4h6.667v8h13.333v-8h2.667zM18.667-1.067h-2.667v-5.333h2.667v5.333zM30.187 8.587l2.827 2.827q0.187 0.187 0.187 0.467t-0.187 0.467l-11.2 11.227q-0.213 0.187-0.48 0.187t-0.48-0.187l-5.387-5.413q-0.213-0.187-0.213-0.467t0.213-0.467l2.827-2.827q0.187-0.213 0.467-0.213t0.467 0.213l2.107 2.107 7.92-7.92q0.187-0.187 0.467-0.187t0.467 0.187z"></path>
</svg>
