<!-- Generated by IcoMoon.io -->
<svg version="1.1" xmlns="http://www.w3.org/2000/svg" width="32" height="32" viewBox="0 0 32 32">
<title>uniE246</title>
<path d="M1.333-1.067h10.667q0.56 0 0.947 0.387t0.387 0.947v9.333h2.667v-4q0-0.56 0.387-0.947t0.947-0.387h10.667q0.56 0 0.947 0.387t0.387 0.947v4h2.667v2.667h-2.667v4q0 0.56-0.387 0.947t-0.947 0.387h-10.667q-0.56 0-0.947-0.387t-0.387-0.947v-4h-2.667v9.333q0 0.56-0.387 0.947t-0.947 0.387h-10.667q-0.56 0-0.947-0.387t-0.387-0.947v-21.333q0-0.56 0.387-0.947t0.947-0.387zM18.667 6.933v8h8v-8h-8z"></path>
</svg>
