<!-- Generated by IcoMoon.io -->
<svg version="1.1" xmlns="http://www.w3.org/2000/svg" width="32" height="32" viewBox="0 0 32 32">
<title>uniE181</title>
<path d="M18-1.067h10q0.56 0 0.947 0.387t0.387 0.947v4h-2.8l-7.867 2.613v-2.613l-5.333-5.333h-10.667l2.667-2.667h10zM2.667 1.6h8q1.093 0 1.88 0.787t0.787 1.88v13.333q0 1.093-0.787 1.88t-1.88 0.787h-8q-1.093 0-1.88-0.787t-0.787-1.88v-13.333q0-1.093 0.787-1.88t1.88-0.787zM2.667 4.267v5.333h8v-5.333h-8zM29.333 11.333l-10.667 3.547v-4.347l10.667-3.547v4.347zM2.667 12.267v5.333h8v-5.333h-8zM29.333 14.987v6.613q0 0.56-0.387 0.947t-0.947 0.387h-10l-2.667 2.667h-10l-2.667-2.667h10.667l5.333-5.333h2.8z"></path>
</svg>
