<!-- Generated by IcoMoon.io -->
<svg version="1.1" xmlns="http://www.w3.org/2000/svg" width="32" height="32" viewBox="0 0 32 32">
<title>uniE112</title>
<path d="M4-6.4h5.333q0.56 0 0.947 0.387t0.387 0.947v6.667h-8v-6.667q0-0.56 0.387-0.947t0.947-0.387zM22.667-6.4h5.333q0.56 0 0.947 0.387t0.387 0.947v6.667h-8v-6.667q0-0.56 0.387-0.947t0.947-0.387zM29.333 4.267v8q0 1.093-0.080 2.067t-0.4 2.387-0.853 2.56-1.547 2.373-2.373 2.053-3.44 1.36-4.64 0.533-4.64-0.533-3.44-1.36-2.373-2.053-1.547-2.373-0.853-2.56-0.4-2.387-0.080-2.067v-8h8v8.52t0.040 1.093 0.133 1.013 0.267 0.933 0.44 0.8 0.68 0.653 0.933 0.507 1.24 0.32 1.6 0.107 1.6-0.12 1.24-0.333 0.933-0.52 0.667-0.68 0.453-0.813 0.267-0.933 0.133-1.013 0.053-1.080-0.013-1.12v-7.333h8z"></path>
</svg>
