<!-- Generated by IcoMoon.io -->
<svg version="1.1" xmlns="http://www.w3.org/2000/svg" width="32" height="32" viewBox="0 0 32 32">
<title>uniE045</title>
<path d="M21.92-6.4h-11.84q-0.293 0-0.507 0.2t-0.24 0.467l-2.080 8.027q-0.187 0.64 0.187 1.2l1.52 2.88q0.16 0.24 0.467 0.4t0.573 0.16h12q0.267 0 0.573-0.16t0.467-0.4l1.653-2.88q0.373-0.56 0.187-1.2l-2.213-8.027q-0.027-0.267-0.24-0.467t-0.507-0.2zM31.333 4.267h-4q-0.267 0-0.56 0.173t-0.4 0.413l-2.080 4.16q-0.107 0.24-0.4 0.413t-0.56 0.173h-14.667q-0.267 0-0.56-0.173t-0.4-0.413l-2.080-4.16q-0.107-0.24-0.4-0.413t-0.56-0.173h-4q-0.267 0-0.467 0.2t-0.2 0.467v17.333q0 0.267 0.2 0.467t0.467 0.2h4q0.267 0 0.467-0.2t0.2-0.467v-4q0-0.267 0.2-0.467t0.467-0.2h20q0.267 0 0.467 0.2t0.2 0.467v4q0 0.267 0.2 0.467t0.467 0.2h4q0.267 0 0.467-0.2t0.2-0.467v-17.333q0-0.267-0.2-0.467t-0.467-0.2zM22.667 20.267h-13.333q-0.267 0-0.52 0.187t-0.307 0.453l-1.013 4.053q-0.053 0.267 0.093 0.453t0.413 0.187h16q0.267 0 0.413-0.187t0.093-0.453l-1.013-4.053q-0.053-0.267-0.307-0.453t-0.52-0.187z"></path>
</svg>
