<!-- Generated by IcoMoon.io -->
<svg version="1.1" xmlns="http://www.w3.org/2000/svg" width="32" height="32" viewBox="0 0 32 32">
<title>uniE060</title>
<path d="M1.173-3.733h29.653q0.48 0 0.827 0.347t0.347 0.827v26.987q0 0.48-0.347 0.827t-0.827 0.347h-29.653q-0.48 0-0.827-0.347t-0.347-0.827v-26.987q0-0.48 0.347-0.827t0.827-0.347zM2.667-1.067v19.653l6.587-4.853 7.947 3.493-1.973-4.16 7.813-8.48 6.293 7.68v-13.333h-26.667zM9.12 2.027q1.493 0 2.533 1.040t1.040 2.52-1.040 2.533-2.533 1.053-2.533-1.053-1.040-2.533 1.040-2.52 2.533-1.040z"></path>
</svg>
