<!-- Generated by IcoMoon.io -->
<svg version="1.1" xmlns="http://www.w3.org/2000/svg" width="32" height="32" viewBox="0 0 32 32">
<title>uniE248</title>
<path d="M16-3.733h4q0.56 0 0.947 0.387t0.387 0.947v10.667q0 0.56-0.387 0.947t-0.947 0.387h-4v2.667h12q0.56 0 0.947 0.387t0.387 0.947v10.667q0 0.56-0.387 0.947t-0.947 0.387h-24q-0.56 0-0.947-0.387t-0.387-0.947v-10.667q0-0.56 0.387-0.947t0.947-0.387h9.333v-2.667h-4q-0.56 0-0.947-0.387t-0.387-0.947v-10.667q0-0.56 0.387-0.947t0.947-0.387h4v-2.667h2.667v2.667zM10.667-1.067v8h8v-8h-8z"></path>
</svg>
