<!-- Generated by IcoMoon.io -->
<svg version="1.1" xmlns="http://www.w3.org/2000/svg" width="32" height="32" viewBox="0 0 32 32">
<title>uniE084</title>
<path d="M16-5.787q3.12 0 5.973 1.213t4.92 3.28 3.28 4.92 1.213 5.973-1.213 5.973-3.28 4.92-4.92 3.28-5.973 1.213-5.973-1.213-4.92-3.28-3.28-4.92-1.213-5.973 1.213-5.973 3.28-4.92 4.92-3.28 5.973-1.213zM14.56 8.987l-2.24-2.267q-0.187-0.187-0.467-0.187t-0.493 0.187l-3.707 3.707q-0.187 0.213-0.187 0.48t0.187 0.48l6.453 6.427q0.187 0.213 0.467 0.213t0.467-0.213l10-10q0.187-0.187 0.187-0.467t-0.187-0.493l-3.707-3.707q-0.187-0.187-0.467-0.187t-0.467 0.187z"></path>
</svg>
