<!-- Generated by IcoMoon.io -->
<svg version="1.1" xmlns="http://www.w3.org/2000/svg" width="32" height="32" viewBox="0 0 32 32">
<title>uniE003</title>
<path d="M13.333-6.16q2.667 0 5.093 1.040t4.173 2.787 2.787 4.173 1.040 5.093l-0.027 0.053 0.027 0.133q0 3.76-2.080 6.987l7.333 7.307q0.613 0.693 0.6 1.187t-0.6 1.133l-1.573 1.547q-0.693 0.533-1.24 0.533t-1.053-0.533l-7.333-7.307q-3.173 2.053-6.96 2.053l-0.133-0.027-0.053 0.027q-2.667 0-5.093-1.040t-4.173-2.787-2.787-4.173-1.040-5.093 1.040-5.093 2.787-4.173 4.173-2.787 5.093-1.040zM13.333-1.653q-2.347 0-4.32 1.147t-3.12 3.12-1.147 4.32 1.147 4.32 3.12 3.12 4.32 1.147 4.32-1.147 3.12-3.12 1.147-4.32-1.147-4.32-3.12-3.12-4.32-1.147z"></path>
</svg>
