<!-- Generated by IcoMoon.io -->
<svg version="1.1" xmlns="http://www.w3.org/2000/svg" width="32" height="32" viewBox="0 0 32 32">
<title>uniE090</title>
<path d="M16-5.787q3.12 0 5.973 1.213t4.92 3.28 3.28 4.92 1.213 5.973-1.213 5.973-3.28 4.92-4.92 3.28-5.973 1.213-5.973-1.213-4.92-3.28-3.28-4.92-1.213-5.973 1.213-5.973 3.28-4.92 4.92-3.28 5.973-1.213zM16-1.787q-3.093 0-5.72 1.52t-4.147 4.147-1.52 5.72q0 3.2 1.733 6l15.653-15.653q-2.8-1.733-6-1.733zM25.733 3.76l-15.573 15.573q2.773 1.653 5.84 1.653 3.093 0 5.72-1.52t4.147-4.147 1.52-5.72q0-3.067-1.653-5.84z"></path>
</svg>
