<!-- Generated by IcoMoon.io -->
<svg version="1.1" xmlns="http://www.w3.org/2000/svg" width="32" height="32" viewBox="0 0 32 32">
<title>uniE210</title>
<path d="M11.333-3.733h6.667q0.267 0 0.467 0.2t0.2 0.467v4q0 0.267-0.2 0.467t-0.467 0.2h-6.667q-0.267 0-0.467-0.2t-0.2-0.467v-4q0-0.267 0.2-0.467t0.467-0.2zM11.333 4.267h6.667q0.267 0 0.467 0.2t0.2 0.467v4q0 0.267-0.2 0.467t-0.467 0.2h-6.667q-0.267 0-0.467-0.2t-0.2-0.467v-4q0-0.267 0.2-0.467t0.467-0.2zM22 4.267h6.667q0.267 0 0.467 0.2t0.2 0.467v4q0 0.267-0.2 0.467t-0.467 0.2h-6.667q-0.267 0-0.467-0.2t-0.2-0.467v-4q0-0.267 0.2-0.467t0.467-0.2zM0.667 12.267h6.667q0.267 0 0.467 0.2t0.2 0.467v4q0 0.267-0.2 0.467t-0.467 0.2h-6.667q-0.267 0-0.467-0.2t-0.2-0.467v-4q0-0.267 0.2-0.467t0.467-0.2zM11.333 12.267h6.667q0.267 0 0.467 0.2t0.2 0.467v4q0 0.267-0.2 0.467t-0.467 0.2h-6.667q-0.267 0-0.467-0.2t-0.2-0.467v-4q0-0.267 0.2-0.467t0.467-0.2zM22 12.267h6.667q0.267 0 0.467 0.2t0.2 0.467v4q0 0.267-0.2 0.467t-0.467 0.2h-6.667q-0.267 0-0.467-0.2t-0.2-0.467v-4q0-0.267 0.2-0.467t0.467-0.2zM0.667 20.267h6.667q0.267 0 0.467 0.2t0.2 0.467v4q0 0.267-0.2 0.467t-0.467 0.2h-6.667q-0.267 0-0.467-0.2t-0.2-0.467v-4q0-0.267 0.2-0.467t0.467-0.2zM11.333 20.267h6.667q0.267 0 0.467 0.2t0.2 0.467v4q0 0.267-0.2 0.467t-0.467 0.2h-6.667q-0.267 0-0.467-0.2t-0.2-0.467v-4q0-0.267 0.2-0.467t0.467-0.2zM22 20.267h6.667q0.267 0 0.467 0.2t0.2 0.467v4q0 0.267-0.2 0.467t-0.467 0.2h-6.667q-0.267 0-0.467-0.2t-0.2-0.467v-4q0-0.267 0.2-0.467t0.467-0.2z"></path>
</svg>
