<!-- Generated by IcoMoon.io -->
<svg version="1.1" xmlns="http://www.w3.org/2000/svg" width="32" height="32" viewBox="0 0 32 32">
<title>uniE085</title>
<path d="M16-5.787q3.12 0 5.973 1.213t4.92 3.28 3.28 4.92 1.213 5.973-1.213 5.973-3.28 4.92-4.92 3.28-5.973 1.213-5.973-1.213-4.92-3.28-3.28-4.92-1.213-5.973 1.213-5.973 3.28-4.92 4.92-3.28 5.973-1.213zM15.68 0.507q-0.773 0-1.573 0.147t-1.68 0.547-1.547 1.027-1.107 1.68-0.44 2.387q0 0.667 0.533 0.667h3.493q0.8 0.133 0.933-0.293 0.16-0.533 0.547-0.747t1.213-0.213q0.533 0 0.84 0.28t0.307 0.76q0 0.613-0.187 0.907t-0.693 0.48q-0.027 0-0.36 0.107t-0.52 0.2-0.533 0.28-0.587 0.453-0.493 0.64-0.413 0.933-0.213 1.227q-0.027 0.213 0.147 0.44t0.547 0.227h4.613q0.187 0 0.587-0.213t0.933-0.747 1-1.28 0.787-1.973 0.32-2.667q0-1.253-0.453-2.213t-1.133-1.52-1.587-0.92-1.707-0.48-1.573-0.12zM18 14.933h-4q-0.267 0-0.467 0.2t-0.2 0.467v4q0 0.267 0.2 0.467t0.467 0.2h4q0.267 0 0.467-0.2t0.2-0.467v-4q0-0.267-0.2-0.467t-0.467-0.2z"></path>
</svg>
