<!-- Generated by IcoMoon.io -->
<svg version="1.1" xmlns="http://www.w3.org/2000/svg" width="32" height="32" viewBox="0 0 32 32">
<title>uniE226</title>
<path d="M17.093 1.6l11.28-6.587q0.507-0.213 1.12-0.067t0.987 0.573l0.853 1.013q0.373 0.4 0.333 0.96t-0.467 0.907l-3.707 3.2h-10.4zM1.333-3.733h2.827q1.787 0 2.747 0.453t1.76 1.893l2.72 5.653h21.947q0.56 0 0.947 0.387t0.387 0.947v1.333q0 0.56-0.373 1.067t-0.88 0.693l-19.653 3.52q-0.613 0.107-1.067-0.16t-0.693-0.667q-1.12-1.787-2.667-1.787h-8q-1.653 0-2.827-1.173t-1.173-2.827v-5.333q0-1.653 1.173-2.827t2.827-1.173zM4.613 0.853h-2.133q-0.507 0-0.747 0.373t-0.24 0.933v1.493q0 1.36 1.12 1.36h3.573q0.427 0 0.573-0.213t0.147-0.64q0-0.293-0.427-1.2t-0.72-1.36q-0.48-0.747-1.147-0.747zM14.667 6.213q-0.853 0-1.453 0.6t-0.6 1.453 0.6 1.453 1.453 0.6 1.453-0.6 0.6-1.453-0.6-1.453-1.453-0.6zM3.467 15.227l4.053-3.467q0.48-0.507 0.907-0.64t0.827 0.093 0.653 0.467 0.68 0.747q0.747 0.933 1.347 1.36t1.293 0.347l1.68-0.133 1.28 4.773q0.347 1.627-0.093 2.6t-1.8 2.12l-2.133 1.84q-1.253 1.067-2.907 0.947t-2.747-1.373l-3.467-4.027q-1.067-1.253-0.947-2.92t1.373-2.733zM10.133 15.547l-2.72 2.347q-0.827 0.72 0.053 1.733l0.987 1.147q0.347 0.4 0.733 0.52t0.84-0.173l1.627-1.413q0.507-0.427 0.373-1.307-0.053-0.533-0.32-1.493t-0.453-1.2q-0.293-0.32-0.507-0.373t-0.613 0.213z"></path>
</svg>
