<!-- Generated by IcoMoon.io -->
<svg version="1.1" xmlns="http://www.w3.org/2000/svg" width="32" height="32" viewBox="0 0 32 32">
<title>uniF8FF</title>
<path d="M26.667-6.4q0 3.307-2.347 5.653t-5.653 2.347q0-3.307 2.347-5.653t5.653-2.347zM12-1.067h2.667q0.56 0 1.067 0.373t0.693 0.88l2.107 5.173q0.133-0.027 0.427-0.080 0.907-0.16 1.44-0.253t1.6-0.187 1.747-0.027 1.627 0.267 1.507 0.613 1.133 1.12 0.773 1.707 0.133 2.453-0.52 3.24q-0.027 0.187-0.080 0.52t-0.293 1.333-0.547 1.947-0.867 2.173-1.24 2.213-1.707 1.867-2.2 1.333q-0.347 0.133-1.12 0.133t-1.747-0.067-1.267-0.067q-0.373 0-1.32 0.093t-1.68 0.093-1.16-0.187q-1.52-0.667-2.787-2.093t-2-2.973-1.24-2.987-0.693-2.4l-0.187-0.933q-0.4-1.68-0.48-3.067t0.12-2.36 0.693-1.707 1.053-1.16 1.387-0.68 1.56-0.347 1.667-0.053 1.587 0.12 1.48 0.213l-3.92-5.12q-0.32-0.48-0.147-0.8t0.733-0.32z"></path>
</svg>
