<!-- Generated by IcoMoon.io -->
<svg version="1.1" xmlns="http://www.w3.org/2000/svg" width="32" height="32" viewBox="0 0 32 32">
<title>gi-issue</title>
<path d="M17.504 9.504c0.128 0 0.224 0 0.288 0 1.024 0 2.080 0 3.104 0 1.312 0 2.4 0.736 2.848 1.888 0.512 1.312 0.032 2.752-1.152 3.52-0.064 0.032-0.128 0.064-0.192 0.128 0.704 0.704 1.024 1.536 0.896 2.528-0.128 0.96-0.672 1.696-1.504 2.208 0.032 0.064 0.064 0.096 0.128 0.128 0.832 0.928 1.056 2.016 0.544 3.168s-1.44 1.728-2.688 1.792c-0.608 0.032-1.216 0-1.824 0-1.12 0-1.92 0.768-1.92 1.888 0 1.024 0 2.048 0 3.040 0 0.448-0.384 0.736-0.768 0.576-0.224-0.096-0.352-0.256-0.352-0.512 0-1.184-0.032-2.336 0.032-3.52 0.064-1.44 1.376-2.624 2.848-2.656 0.64 0 1.28 0 1.952 0 0.928 0 1.696-0.64 1.824-1.536s-0.416-1.728-1.312-1.984c-0.192-0.064-0.416-0.064-0.608-0.064-2.432 0-4.832 0-7.264 0-0.416 0-0.672-0.224-0.64-0.608 0-0.256 0.224-0.512 0.48-0.544 0.096 0 0.192 0 0.288 0 2.624 0 5.248 0 7.84 0 1.056 0 1.888-0.832 1.856-1.856-0.032-0.896-0.768-1.696-1.664-1.728-0.608-0.032-1.216 0-1.824 0-2.304 0-4.64 0-6.944 0-0.448 0-0.736-0.288-0.672-0.672 0.032-0.256 0.224-0.448 0.48-0.48 0.096 0 0.192 0 0.288 0 3.008 0 6.048 0 9.056 0 0.928 0 1.664-0.544 1.856-1.44 0.224-0.992-0.544-2.048-1.536-2.144-0.128 0-0.288 0-0.416 0-3.2 0-6.368 0-9.568 0-0.096 0-0.192 0-0.288-0.032-0.288-0.064-0.48-0.288-0.48-0.576s0.192-0.48 0.48-0.544c0.096-0.032 0.192-0.032 0.288-0.032 0.992 0 1.952 0 2.944 0 2.112 0 3.808-1.44 4.16-3.488 0.032-0.256 0.064-0.512 0.064-0.768 0-1.024 0-2.016 0-3.040-0.064-0.32 0.128-0.544 0.48-0.544s0.608 0.192 0.608 0.544c0 1.248 0.032 2.496-0.032 3.712-0.096 1.376-0.736 2.496-1.728 3.424-0.096 0.096-0.16 0.128-0.256 0.224zM14.496 22.464c-0.288 0-0.512 0-0.736 0-0.672 0-1.344 0.032-2.016-0.064-1.44-0.192-2.528-1.536-2.432-3.008 0.032-0.704 0.288-1.312 0.768-1.824 0.032-0.064 0.096-0.096 0.16-0.16-0.832-0.512-1.376-1.216-1.504-2.208s0.192-1.824 0.896-2.528c-0.544-0.32-0.96-0.736-1.248-1.312-0.896-1.792 0.32-3.968 2.304-4.192 0.192-0.032 0.384-0.032 0.576-0.032 0.992 0 1.952 0 2.944 0 1.024 0 1.792-0.8 1.792-1.792 0-1.024 0-2.080 0-3.104 0-0.416 0.224-0.64 0.64-0.64 0.256 0 0.448 0.192 0.512 0.448 0 0.064 0.032 0.096 0.032 0.16 0 1.152 0.032 2.272-0.032 3.424-0.064 1.376-1.28 2.592-2.656 2.656-1.088 0.064-2.208 0.032-3.328 0.032-0.512 0-0.96 0.128-1.312 0.48-0.544 0.512-0.736 1.12-0.512 1.856s0.768 1.152 1.536 1.248c0.128 0.032 0.288 0.032 0.416 0.032 3.2 0 6.368 0 9.568 0 0.096 0 0.192 0 0.32 0.032 0.256 0.032 0.448 0.256 0.48 0.512 0.032 0.288-0.128 0.512-0.416 0.608-0.096 0.032-0.224 0.032-0.352 0.032-3.040 0-6.048 0-9.088 0-0.832 0-1.504 0.448-1.76 1.152-0.448 1.152 0.384 2.368 1.664 2.432 0.096 0 0.16 0 0.256 0 2.784 0 5.568 0 8.32 0 0.128 0 0.256 0 0.384 0.064 0.224 0.096 0.352 0.352 0.32 0.576-0.032 0.256-0.256 0.48-0.544 0.512-0.064 0-0.16 0-0.224 0-2.624 0-5.248 0-7.84 0-0.832 0-1.504 0.48-1.76 1.216-0.384 1.152 0.48 2.368 1.728 2.368 2.432 0 4.864 0 7.296 0 0.064 0 0.16 0 0.224 0 0.256 0.032 0.448 0.192 0.48 0.416 0.064 0.224-0.032 0.48-0.256 0.608-0.128 0.064-0.256 0.096-0.384 0.096-0.768 0.032-1.568-0.032-2.336 0.032-1.792 0.128-3.392 1.728-3.616 3.488-0.032 0.256-0.064 0.544-0.064 0.8 0 0.992 0 1.984 0 2.976 0 0.48-0.384 0.768-0.768 0.608-0.256-0.096-0.384-0.288-0.384-0.544 0-1.248-0.032-2.464 0.032-3.712 0.096-1.376 0.736-2.528 1.76-3.456 0-0.128 0.064-0.192 0.16-0.288z"></path>
</svg>
