<!-- Generated by IcoMoon.io -->
<svg version="1.1" xmlns="http://www.w3.org/2000/svg" width="32" height="32" viewBox="0 0 32 32">
<title>kidney</title>
<path d="M11.84 20.096c-1.088 0.416-1.568 1.184-1.504 2.208 0.128 1.792 0.32 3.584 0.48 5.408 0.064 0.672 0.128 1.344 0.096 2.016-0.032 0.256-0.384 0.448-0.608 0.672-0.192-0.224-0.544-0.416-0.576-0.672-0.256-2.080-0.448-4.192-0.64-6.304-0.064-0.608-0.032-1.216 0.064-1.792 0.256-1.504 1.152-2.464 2.656-2.848 0.864-0.224 0.864-0.256 0.48-1.024-0.832-1.6-0.96-3.264-0.448-4.992 0.16-0.48 0.448-0.928 0.736-1.472-0.512-0.992-0.512-0.992-1.6-0.448-2.304 1.184-3.424 3.136-3.744 5.664-0.256 2.112 0.192 4.16 0.448 6.208 0.288 2.144 0.48 4.32 0.672 6.496 0.032 0.192 0.064 0.448-0.032 0.608-0.128 0.224-0.384 0.544-0.576 0.544s-0.544-0.32-0.576-0.544c-0.448-3.808-0.896-7.616-1.248-11.456-0.192-2.016 0.224-3.968 1.312-5.728 0.992-1.632 2.432-2.72 4.16-3.296-0.16-0.896-0.416-1.728-0.48-2.592-0.096-3.136 2.624-5.536 5.728-5.088 4.32 0.608 7.040 3.136 8.384 7.136 1.504 4.544 1.312 9.152-0.32 13.632-0.992 2.656-2.784 4.576-5.632 5.28-1.248 0.32-2.496 0.256-3.712-0.096-2.688-0.864-4.16-3.36-3.712-6.272 0.032-0.384 0.128-0.768 0.192-1.248zM24.864 14.944c-0.224-1.536-0.288-3.104-0.672-4.576-0.96-3.904-3.2-6.624-7.36-7.424-3.040-0.576-5.28 1.856-4.384 4.864 0.32 1.088 0.896 2.112 1.408 3.136 0.224 0.448 0.256 0.736-0.128 1.152-0.352 0.352-0.608 0.832-0.736 1.312-0.416 1.536-0.128 2.976 0.736 4.32 0.288 0.448 0.288 0.8-0.032 1.248-0.896 1.408-1.056 2.944-0.736 4.544 0.224 1.216 0.96 2.080 2.080 2.624 1.056 0.512 2.176 0.64 3.328 0.448 2.496-0.416 4.032-2.016 5.056-4.224 1.024-2.368 1.28-4.864 1.44-7.424z"></path>
</svg>
