<!-- Generated by IcoMoon.io -->
<svg version="1.1" xmlns="http://www.w3.org/2000/svg" width="32" height="32" viewBox="0 0 32 32">
<title>muscle</title>
<path d="M30.56 4.672c-0.48 0.544-0.96 1.12-1.472 1.632-0.992 0.928-1.472 1.984-1.44 3.392 0.096 3.808-1.696 6.944-3.968 9.792-2.656 3.328-5.824 6.016-9.92 7.456-1.28 0.448-2.656 0.768-3.968 0.768-1.6 0-2.848 0.448-3.84 1.632-0.256 0.32-0.544 0.64-0.896 0.832-0.256 0.16-0.608 0.096-0.928 0.128 0.064-0.288 0.064-0.64 0.224-0.832 1.408-1.664 2.976-2.848 5.44-2.816 3.744 0.064 6.784-1.888 9.536-4.224 3.584-3.040 6.368-6.592 7.264-11.392 0.096-0.544 0.192-1.088 0.128-1.632-0.256-2.4 1.344-3.744 2.944-5.056 0.128-0.096 0.416-0.064 0.608-0.064 0.096 0.128 0.192 0.256 0.288 0.384zM27.936 2.112c-1.472 1.856-3.008 3.232-5.76 3.168-3.872-0.096-7.040 1.952-9.888 4.384-3.488 3.008-6.208 6.528-7.072 11.2-0.096 0.48-0.224 1.024-0.128 1.472 0.416 2.464-1.12 3.904-2.72 5.312-0.192 0.16-0.544 0.128-0.832 0.16 0.064-0.256 0-0.608 0.128-0.8 0.256-0.384 0.608-0.672 0.96-0.992 1.152-0.992 1.6-2.176 1.568-3.744-0.096-4.128 1.952-7.424 4.512-10.4 2.88-3.392 6.304-6.048 10.688-7.232 0.864-0.224 1.824-0.448 2.688-0.384 1.824 0.192 3.136-0.544 4.32-1.824 0.32-0.384 0.896-0.544 1.344-0.832 0.032 0.16 0.128 0.352 0.192 0.512zM22.464 9.024c-0.416 0.224-0.896 0.352-1.216 0.672-3.936 3.872-7.84 7.776-11.776 11.712-0.224 0.224-0.416 0.512-0.672 0.672-0.192 0.096-0.48 0.064-0.704-0.032-0.064-0.032-0.064-0.416 0-0.576 0.16-0.288 0.384-0.512 0.608-0.736 3.904-3.968 7.84-7.872 11.776-11.776 0.352-0.352 0.96-0.48 1.44-0.704 0.192 0.256 0.384 0.512 0.544 0.768zM11.712 25.472c-0.16-0.096-0.416-0.256-0.416-0.288 0.096-0.256 0.16-0.608 0.384-0.736 1.248-0.896 2.56-1.728 3.776-2.656 3.392-2.656 6.272-5.792 8.576-9.44 0.224-0.352 0.704-0.512 1.088-0.768-0.064 0.448-0.032 0.96-0.256 1.312-3.136 4.992-7.264 9.056-12.256 12.16-0.288 0.16-0.576 0.256-0.896 0.416zM20.384 6.912c-3.008 2.592-5.984 5.152-8.96 7.712-0.096 0.064-0.32-0.032-0.512-0.064 0.288-2.112 8-8.256 9.472-7.648zM18.72 15.744c-0.288 0.416-0.416 0.672-0.576 0.864-2.432 2.272-4.832 4.544-7.296 6.752-0.256 0.224-0.768 0.192-1.152 0.288 0.192-0.352 0.288-0.8 0.544-1.056 2.336-2.208 4.704-4.384 7.072-6.56 0.256-0.224 0.576-0.384 0.896-0.48 0.096-0.064 0.32 0.128 0.512 0.192zM23.904 23.392c1.088 1.088 2.208 2.144 3.264 3.264 0.096 0.096 0.032 0.416-0.064 0.608-0.064 0.096-0.32 0.128-0.48 0.096-0.64-0.128-3.008-2.944-3.072-3.648 0.16-0.128 0.256-0.224 0.352-0.32zM7.84 8.672c-1.088-1.088-2.176-2.144-3.232-3.264-0.032-0.032 0.288-0.64 0.448-0.672 0.576-0.032 3.040 2.848 3.104 3.552-0.096 0.16-0.192 0.288-0.32 0.384zM20.832 26.016c0.256 0.256 0.448 0.352 0.512 0.48 0.544 1.088 1.056 2.208 1.568 3.328 0.064 0.16-0.064 0.544-0.16 0.544-0.224 0.032-0.64 0-0.704-0.16-0.576-1.12-1.12-2.272-1.6-3.456-0.064-0.128 0.224-0.416 0.384-0.736zM20.192 13.6c0.096-0.32 0.096-0.672 0.288-0.928 0.704-0.832 1.408-1.664 2.176-2.432 0.192-0.192 0.608-0.16 0.896-0.224-0.032 0.288 0.032 0.64-0.128 0.832-0.896 1.056-1.856 2.080-2.784 3.104-0.16-0.128-0.288-0.256-0.448-0.352zM9.568 16.8c-0.832 1.312-1.568 2.496-2.336 3.616-0.096 0.128-0.448 0.192-0.576 0.128s-0.32-0.416-0.256-0.512c0.736-1.12 1.504-2.208 2.304-3.296 0.064-0.096 0.384 0.032 0.864 0.064zM26.080 20.8c0.256-0.064 0.544-0.224 0.704-0.16 1.12 0.48 2.24 0.992 3.328 1.536 0.16 0.064 0.128 0.448 0.192 0.672-0.192 0.032-0.448 0.192-0.608 0.128-1.28-0.544-2.528-1.12-3.776-1.696 0.064-0.16 0.128-0.32 0.16-0.48zM11.488 5.312c-0.224 0.192-0.384 0.416-0.544 0.448-0.16 0-0.448-0.128-0.544-0.288-0.544-1.056-1.024-2.112-1.504-3.168-0.064-0.16 0.032-0.48 0.16-0.576s0.544-0.064 0.608 0.064c0.608 1.12 1.184 2.304 1.824 3.52zM5.728 11.2c-0.224 0.096-0.512 0.352-0.672 0.256-1.12-0.448-2.24-0.96-3.36-1.504-0.16-0.064-0.288-0.384-0.256-0.544 0.032-0.128 0.384-0.352 0.48-0.32 1.312 0.544 2.592 1.12 3.904 1.696-0.032 0.16-0.064 0.288-0.096 0.416z"></path>
</svg>
