<!-- Generated by IcoMoon.io -->
<svg version="1.1" xmlns="http://www.w3.org/2000/svg" width="32" height="32" viewBox="0 0 32 32">
<title>others</title>
<path d="M16 30.4c-7.936 0-14.4-6.464-14.4-14.4s6.464-14.4 14.4-14.4 14.4 6.464 14.4 14.4-6.464 14.4-14.4 14.4zM16 2.72c-7.328 0-13.28 5.952-13.28 13.28s5.952 13.28 13.28 13.28 13.28-5.952 13.28-13.28-5.952-13.28-13.28-13.28zM17.088 10.112c0.032 0.608-0.416 1.088-1.12 1.088-0.608 0-1.056-0.48-1.056-1.088s0.448-1.088 1.088-1.088c0.672-0.032 1.088 0.448 1.088 1.088zM15.104 22.528v-9.696h1.76v9.696h-1.76z"></path>
</svg>
