<!-- Generated by IcoMoon.io -->
<svg version="1.1" xmlns="http://www.w3.org/2000/svg" width="32" height="32" viewBox="0 0 32 32">
<title>excellent-icon</title>
<path d="M16.078 31.981c-8.769 0-15.903-7.134-15.903-15.904s7.134-15.903 15.903-15.903 15.903 7.134 15.903 15.903c0 8.769-7.134 15.904-15.903 15.904zM16.078 0.815c-8.416 0-15.263 6.847-15.263 15.263s6.847 15.264 15.263 15.264 15.263-6.847 15.263-15.264c0-8.416-6.847-15.263-15.263-15.263zM10.15 14.387c-1.007 0-1.827-0.819-1.827-1.826s0.82-1.827 1.827-1.827 1.827 0.82 1.827 1.827c-0 1.007-0.82 1.826-1.827 1.826zM10.15 11.374c-0.654 0-1.187 0.532-1.187 1.187s0.532 1.186 1.187 1.186 1.187-0.532 1.187-1.186c-0-0.655-0.532-1.187-1.187-1.187zM20.837 14.387c-1.008 0-1.827-0.819-1.827-1.826s0.82-1.827 1.827-1.827c1.007 0 1.826 0.82 1.826 1.827s-0.819 1.826-1.826 1.826zM20.837 11.374c-0.655 0-1.187 0.532-1.187 1.187s0.532 1.186 1.187 1.186c0.654 0 1.186-0.532 1.186-1.186s-0.532-1.187-1.186-1.187zM15.726 24.669c-3.382 0-6.134-2.752-6.134-6.134 0-0.487 0.064-0.989 0.191-1.493l0.061-0.242h11.765l0.060 0.243c0.126 0.506 0.19 1.008 0.19 1.492 0 3.382-2.751 6.134-6.133 6.134zM10.348 17.44c-0.077 0.371-0.116 0.738-0.116 1.095 0 3.029 2.464 5.494 5.494 5.494s5.494-2.465 5.494-5.494c0-0.356-0.039-0.723-0.116-1.095h-10.756z"></path>
</svg>
