<!-- Generated by IcoMoon.io -->
<svg version="1.1" xmlns="http://www.w3.org/2000/svg" width="32" height="32" viewBox="0 0 32 32">
<title>ok-icon</title>
<path d="M16.078 31.981c-8.769 0-15.903-7.134-15.903-15.903s7.134-15.903 15.903-15.903c8.769 0 15.903 7.134 15.903 15.903s-7.134 15.903-15.903 15.903zM16.078 0.815c-8.416 0-15.263 6.847-15.263 15.263s6.847 15.263 15.263 15.263 15.263-6.847 15.263-15.263-6.847-15.263-15.263-15.263zM10.15 14.387c-1.007 0-1.827-0.82-1.827-1.827s0.82-1.827 1.827-1.827 1.827 0.82 1.827 1.827-0.82 1.827-1.827 1.827zM10.15 11.374c-0.654 0-1.187 0.532-1.187 1.187s0.532 1.187 1.187 1.187 1.187-0.532 1.187-1.187-0.532-1.187-1.187-1.187zM20.837 14.387c-1.008 0-1.827-0.819-1.827-1.826s0.82-1.827 1.827-1.827c1.007 0 1.826 0.82 1.826 1.827s-0.819 1.826-1.826 1.826zM20.837 11.374c-0.655 0-1.187 0.532-1.187 1.187s0.532 1.186 1.187 1.186c0.654 0 1.186-0.532 1.186-1.186s-0.532-1.187-1.186-1.187zM15.52 25.703c-2.627 0-4.765-2.138-4.765-4.766s2.137-4.765 4.765-4.765c2.628 0 4.766 2.138 4.766 4.765s-2.138 4.766-4.766 4.766zM15.52 16.812c-2.274 0-4.125 1.851-4.125 4.125s1.85 4.126 4.125 4.126c2.275 0 4.126-1.851 4.126-4.126s-1.851-4.125-4.126-4.125z"></path>
</svg>
