<!-- Generated by IcoMoon.io -->
<svg version="1.1" xmlns="http://www.w3.org/2000/svg" width="32" height="32" viewBox="0 0 32 32">
<title>thumbs-up-icon</title>
<path d="M6.779 23.89c0-3.305 0-6.561 0-9.867 0.123 0 0.239 0 0.353 0 1.374-0.002 2.747-0.012 4.12 0 0.71 0.006 1.33-0.201 1.791-0.74 0.977-1.143 1.929-2.307 2.89-3.463 0.16-0.192 0.307-0.396 0.467-0.59 0.573-0.694 1.624-0.859 2.397-0.387 0.469 0.288 0.629 0.73 0.536 1.23-0.12 0.642-0.315 1.27-0.477 1.904-0.118 0.462-0.236 0.924-0.351 1.387-0.122 0.492 0.009 0.659 0.507 0.659 1.313 0 2.627 0 3.941 0 0.47 0 0.896 0.131 1.254 0.443 0.608 0.53 0.679 1.36 0.175 1.989-0.059 0.074-0.124 0.143-0.204 0.234 0.336 0.358 0.577 0.753 0.532 1.27-0.043 0.506-0.324 0.856-0.713 1.134 0.69 1.133 0.425 1.908-0.851 2.485 0.301 0.523 0.337 1.056-0.017 1.569-0.382 0.551-0.941 0.743-1.584 0.743-3.033 0.001-6.067 0.001-9.101 0.001-1.743 0-3.487 0-5.23 0-0.13 0-0.26 0-0.434 0l-0.001-0.001zM22.993 16.279c0.172-0.048 0.316-0.074 0.446-0.128 0.298-0.122 0.506-0.337 0.508-0.671 0.001-0.336-0.198-0.566-0.505-0.668-0.197-0.066-0.42-0.088-0.631-0.089-1.337-0.007-2.675-0-4.012-0.004-0.546-0.001-0.837-0.184-0.981-0.708-0.081-0.295-0.11-0.641-0.040-0.935 0.224-0.927 0.513-1.836 0.763-2.757 0.189-0.694-0.142-1.072-0.855-0.933-0.246 0.049-0.522 0.206-0.682 0.399-0.734 0.88-1.412 1.807-2.147 2.684-0.856 1.019-1.647 2.142-3.109 2.329 0 2.793 0 5.546 0 8.301 0.055 0.010 0.089 0.021 0.122 0.021 3.261 0.001 6.521 0.005 9.782-0.005 0.204-0.001 0.431-0.069 0.607-0.174 0.494-0.296 0.477-0.901-0.025-1.188-0.162-0.091-0.351-0.132-0.546-0.204 0-0.223 0-0.455 0-0.721 0.184 0 0.348 0 0.512 0 0.168 0 0.335 0.007 0.501-0.003 0.49-0.027 0.87-0.327 0.907-0.711 0.035-0.36-0.245-0.652-0.73-0.8-0.090-0.026-0.191-0.15-0.21-0.244-0.034-0.167-0.010-0.344-0.010-0.539 0.19 0 0.321 0.009 0.449-0.003 0.467-0.042 0.828-0.358 0.847-0.732 0.017-0.354-0.261-0.664-0.725-0.759-0.176-0.037-0.25-0.096-0.237-0.275 0.011-0.154 0.001-0.309 0.001-0.483l-0 0.001zM10.919 23.109c0-2.783 0-5.535 0-8.29-1.138 0-2.254 0-3.379 0 0 2.775 0 5.526 0 8.29 1.133 0 2.241 0 3.379 0zM16.078 31.981c-8.769 0-15.903-7.134-15.903-15.903s7.134-15.903 15.903-15.903c8.769 0 15.903 7.134 15.903 15.903s-7.134 15.903-15.903 15.903zM16.078 0.815c-8.416 0-15.263 6.847-15.263 15.263s6.847 15.263 15.263 15.263 15.263-6.847 15.263-15.263-6.847-15.263-15.263-15.263z"></path>
</svg>
