<?xml version="1.0" encoding="iso-8859-1"?>
<!-- Generator: Adobe Illustrator 19.0.0, SVG Export Plug-In . SVG Version: 6.00 Build 0)  -->
<svg version="1.1" id="Capa_1" xmlns="http://www.w3.org/2000/svg" xmlns:xlink="http://www.w3.org/1999/xlink" x="0px" y="0px"
	 viewBox="0 0 453.672 453.672" style="enable-background:new 0 0 453.672 453.672;" xml:space="preserve">
<g>
	<g>
		<rect x="272.01" y="67.532" transform="matrix(0.7071 -0.7071 0.7071 0.7071 26.2617 221.0898)" width="16" height="22.624"/>
	</g>
</g>
<g>
	<g>
		<rect x="248.01" y="91.505" transform="matrix(0.7071 -0.7071 0.7071 0.7071 2.2806 211.1408)" width="16" height="22.624"/>
	</g>
</g>
<g>
	<g>
		<rect x="280.017" y="123.505" transform="matrix(0.7071 -0.7071 0.7071 0.7071 -10.9722 243.1458)" width="16" height="22.624"/>
	</g>
</g>
<g>
	<g>
		<rect x="312.016" y="155.505" transform="matrix(0.7071 -0.7071 0.7071 0.7071 -24.227 275.146)" width="16" height="22.624"/>
	</g>
</g>
<g>
	<g>
		<rect x="256.017" y="147.527" transform="matrix(0.7071 -0.7071 0.7071 0.7071 -34.9874 233.2101)" width="16" height="22.624"/>
	</g>
</g>
<g>
	<g>
		<rect x="288.04" y="179.527" transform="matrix(0.7071 -0.7071 0.7071 0.7071 -48.2355 265.2263)" width="16" height="22.624"/>
	</g>
</g>
<g>
	<g>
		<rect x="344.015" y="187.505" transform="matrix(0.7071 -0.7071 0.7071 0.7071 -37.4824 307.1444)" width="16" height="22.624"/>
	</g>
</g>
<g>
	<g>
		<rect x="304.017" y="99.532" transform="matrix(0.7071 -0.7071 0.7071 0.7071 13.0089 253.0947)" width="16" height="22.624"/>
	</g>
</g>
<g>
	<g>
		<rect x="368.015" y="163.532" transform="matrix(0.7071 -0.7071 0.7071 0.7071 -13.5013 317.0934)" width="16" height="22.624"/>
	</g>
</g>
<g>
	<g>
		<rect x="296.01" y="43.535" transform="matrix(0.7071 -0.7071 0.7071 0.7071 50.2598 231.0317)" width="16" height="22.624"/>
	</g>
</g>
<g>
	<g>
		<rect x="328.017" y="75.535" transform="matrix(0.7071 -0.7071 0.7071 0.7071 37.007 263.0367)" width="16" height="22.624"/>
	</g>
</g>
<g>
	<g>
		<rect x="336.016" y="131.532" transform="matrix(0.7071 -0.7071 0.7071 0.7071 -0.2458 285.095)" width="16" height="22.624"/>
	</g>
</g>
<g>
	<g>
		<rect x="360.016" y="107.535" transform="matrix(0.7071 -0.7071 0.7071 0.7071 23.7524 295.0369)" width="16" height="22.624"/>
	</g>
</g>
<g>
	<g>
		<rect x="392.015" y="139.535" transform="matrix(0.7071 -0.7071 0.7071 0.7071 10.4968 327.0353)" width="16" height="22.624"/>
	</g>
</g>
<g>
	<g>
		<rect x="352.017" y="51.522" transform="matrix(0.7071 -0.7071 0.7071 0.7071 61.0164 272.9739)" width="16" height="22.624"/>
	</g>
</g>
<g>
	<g>
		<rect x="384.016" y="83.522" transform="matrix(0.7071 -0.7071 0.7071 0.7071 47.7619 304.9741)" width="16" height="22.624"/>
	</g>
</g>
<g>
	<g>
		<rect x="376.017" y="27.5" transform="matrix(0.7071 -0.7071 0.7071 0.7071 85.0315 282.9088)" width="16" height="22.624"/>
	</g>
</g>
<g>
	<g>
		<rect x="400.017" y="3.535" transform="matrix(0.7071 -0.7071 0.7071 0.7071 109.0069 292.86)" width="16" height="22.624"/>
	</g>
</g>
<g>
	<g>
		<rect x="408.016" y="59.5" transform="matrix(0.7071 -0.7071 0.7071 0.7071 71.777 314.909)" width="16" height="22.624"/>
	</g>
</g>
<g>
	<g>
		<rect x="432.016" y="35.535" transform="matrix(0.7071 -0.7071 0.7071 0.7071 95.7525 324.8603)" width="16" height="22.624"/>
	</g>
</g>
<g>
	<g>
		<rect x="416.015" y="115.522" transform="matrix(0.7071 -0.7071 0.7071 0.7071 34.5062 336.9725)" width="16" height="22.624"/>
	</g>
</g>
<g>
	<g>
		<rect x="436.014" y="93.188" transform="matrix(0.7071 -0.7071 0.7071 0.7071 60.1552 342.9162)" width="16" height="11.312"/>
	</g>
</g>
<g>
	<g>
		<rect x="320.01" y="19.522" transform="matrix(0.7071 -0.7071 0.7071 0.7071 74.2692 240.9689)" width="16" height="22.624"/>
	</g>
</g>
<g>
	<g>
		<rect x="347.987" y="5.188" transform="matrix(0.7071 -0.7071 0.7071 0.7071 96.5986 254.8975)" width="16" height="11.312"/>
	</g>
</g>
<g>
	<g>
		<path d="M377.917,247.138c-0.628-0.658-1.263-1.31-1.905-1.955c-45.49-45.335-117.142-50.993-169.184-13.36
			c27.939-75.493-10.612-159.34-86.104-187.279C86.37,31.831,48.489,32.519,14.62,46.472c-4.109,1.623-6.125,6.27-4.502,10.379
			c1.22,3.089,4.221,5.102,7.542,5.061c4.056,0,8.048,0.272,12,0.608c35.3,3.502,65.782,26.21,79.24,59.032
			c15.93,36.495,7.713,79.033-20.664,106.968l-60.224,60.64c-37.359,37.372-37.348,97.953,0.024,135.312
			c37.372,37.359,97.953,37.348,135.312-0.024l65.992-65.984c30.045-30.027,78.743-30.013,108.77,0.032
			c13.936,13.944,21.985,32.708,22.486,52.416l-0.584,11.536c-0.221,4.413,3.177,8.169,7.59,8.39
			c2.259,0.113,4.46-0.735,6.058-2.334C424.918,379.596,426.824,298.396,377.917,247.138z M60.524,51.816
			c71.56-5.254,133.831,48.497,139.085,120.058c2.729,37.163-10.631,73.709-36.685,100.35c8.418-21.801,12.717-44.974,12.68-68.344
			C175.517,133.176,128.544,71.108,60.524,51.816z M198.156,252.391c-0.344,0.136-0.664,0.328-1.008,0.464
			c0.176-0.312,0.376-0.608,0.552-0.92L198.156,252.391z M162.812,274.047c-0.344,0.296-0.672,0.624-1.024,0.928
			c0.184-0.456,0.432-0.88,0.616-1.336L162.812,274.047z M39.372,300.448l60.248-60.656c33.008-32.513,42.567-82.005,24.04-124.472
			c-1.78-4.153-3.794-8.202-6.032-12.128c26.896,26.6,42.024,62.86,42.008,100.688c0.13,45.934-18.126,90.01-50.696,122.4
			L31.524,404C8.16,372.294,11.496,328.269,39.372,300.448z M324.252,329.247c-35.553-17.627-78.409-10.407-106.224,17.896
			l-66.016,66.016c-29.944,30.173-78.354,31.37-109.752,2.712l50.976-51.2l0.408,0.408l72.64-72.64
			c21.507-21.623,50.77-33.742,81.266-33.656c59.037,0.045,108.457,44.771,114.374,103.512
			C352.627,348.041,339.596,336.61,324.252,329.247z M247.126,242.79c-11.779,0.02-23.501,1.627-34.85,4.778
			c45.75-36.031,111.209-32.198,152.44,8.928h-0.024c38.284,38.248,43.548,98.474,12.48,142.784l1.288-25.6
			C378.337,301.268,319.537,242.667,247.126,242.79z"/>
	</g>
</g>
<g>
</g>
<g>
</g>
<g>
</g>
<g>
</g>
<g>
</g>
<g>
</g>
<g>
</g>
<g>
</g>
<g>
</g>
<g>
</g>
<g>
</g>
<g>
</g>
<g>
</g>
<g>
</g>
<g>
</g>
</svg>
