<?xml version="1.0" encoding="iso-8859-1"?>
<!-- Generator: Adobe Illustrator 19.0.0, SVG Export Plug-In . SVG Version: 6.00 Build 0)  -->
<svg version="1.1" id="Capa_1" xmlns="http://www.w3.org/2000/svg" xmlns:xlink="http://www.w3.org/1999/xlink" x="0px" y="0px"
	 viewBox="0 0 480.005 480.005" style="enable-background:new 0 0 480.005 480.005;" xml:space="preserve">
<g>
	<g>
		<path d="M432.022,224.005l-5.12-6.152l-8.8,7.312l0.248-0.8l-33.296-10.24l14.528-43.584c1.398-4.191-0.866-8.721-5.056-10.12
			l-33.208-11.072l14.264-42.808c1.398-4.191-0.866-8.721-5.056-10.12l-53.184-17.744l-13.736-41.2
			c-0.482-1.464-1.38-2.757-2.584-3.72l-40-32c-3.448-2.762-8.483-2.206-11.245,1.242c-0.355,0.443-0.661,0.922-0.915,1.43
			l-22.032,44.08l-24.28-8.096c-4.191-1.392-8.717,0.875-10.112,5.064l-14.272,42.808l-23.616-7.872
			c-2.072-0.682-4.333-0.494-6.264,0.52c-1.944,1.008-3.39,2.769-4,4.872l-14.24,49.848l-23.712-7.296
			c-4.222-1.301-8.7,1.067-10.001,5.29c-0.016,0.053-0.032,0.105-0.047,0.158l-13.704,48l-16.072-5.36
			c-4.191-1.392-8.717,0.875-10.112,5.064l-14.536,43.688l-1.688,0.328l0.576,3l-0.312,0.952l0.528,0.176l47.2,243.872
			c0.728,3.76,4.018,6.477,7.848,6.48h280.008c3.742,0.002,6.985-2.59,7.808-6.24l56-248L432.022,224.005z M404.214,236.757
			l-10.64,8.856l-23.152-19.256L404.214,236.757z M258.75,20.437l30.4,24.336l9.192,27.584l-56.184-18.736L258.75,20.437z
			 M205.086,58.125l152.8,50.936l-11.736,35.2l-152.8-50.944L205.086,58.125z M157.422,98.237l224.48,74.824l-12.112,36.352
			l-224.408-69.048L157.422,98.237z M109.478,146.053l238.592,73.416l-31.368,26.088l-33.256-27.728
			c-2.969-2.48-7.287-2.48-10.256,0l-33.256,27.728l-33.272-27.696c-1.51-1.242-3.422-1.888-5.376-1.816L97.91,186.509
			L109.478,146.053z M69.086,194.125l16.408,5.472v-0.064c0.12,0,0.2,0.128,0.32,0.16l98.584,28.168l-21.248,17.696l-33.272-27.728
			c-2.968-2.475-7.28-2.475-10.248,0l-33.208,27.728l-26.96-22.496L69.086,194.125z M369.622,464.005h-267l-42.48-219.472
			l21.112,17.6c2.969,2.48,7.287,2.48,10.256,0l33.248-27.728l33.264,27.728c2.968,2.475,7.28,2.475,10.248,0l33.264-27.728
			l33.28,27.728c2.968,2.475,7.28,2.475,10.248,0l33.256-27.728l33.256,27.728c2.968,2.475,7.28,2.475,10.248,0l33.304-27.744
			l33.336,27.744c2.965,2.466,7.267,2.466,10.232,0l20.336-16.904L369.622,464.005z"/>
	</g>
</g>
<g>
	<g>
		<rect x="264.022" y="40.005" width="16" height="16"/>
	</g>
</g>
<g>
	<g>
		<rect x="224.022" y="80.037" width="16" height="16"/>
	</g>
</g>
<g>
	<g>
		<rect x="320.022" y="112.037" width="16" height="16"/>
	</g>
</g>
<g>
	<g>
		<rect x="272.022" y="96.037" width="16" height="16"/>
	</g>
</g>
<g>
	<g>
		<rect x="111.341" y="356.109" transform="matrix(0.9823 -0.1872 0.1872 0.9823 -73.2166 29.4477)" width="16" height="92.712"/>
	</g>
</g>
<g>
	<g>
		
			<rect x="92.726" y="279.447" transform="matrix(0.9823 -0.1871 0.1871 0.9823 -55.2409 24.2227)" width="15.994" height="50.718"/>
	</g>
</g>
<g>
	<g>
		
			<rect x="168.022" y="279.641" transform="matrix(0.9955 -0.0948 0.0948 0.9955 -33.7147 18.3259)" width="15.992" height="168.721"/>
	</g>
</g>
<g>
	<g>
		<rect x="319.304" y="400.5" transform="matrix(0.187 -0.9824 0.9824 0.187 -108.9848 685.3124)" width="80.48" height="16"/>
	</g>
</g>
<g>
	<g>
		<rect x="353.905" y="296.851" transform="matrix(0.187 -0.9824 0.9824 0.187 8.8759 620.4261)" width="50.736" height="16"/>
	</g>
</g>
<g>
	<g>
		
			<rect x="283.324" y="426.044" transform="matrix(0.0948 -0.9955 0.9955 0.0948 -162.8821 688.9555)" width="28.128" height="15.992"/>
	</g>
</g>
<g>
	<g>
		
			<rect x="244.679" y="333.253" transform="matrix(0.0948 -0.9955 0.9955 0.0948 -62.5435 613.7181)" width="123.016" height="15.992"/>
	</g>
</g>
<g>
	<g>
		<rect x="232.022" y="280.037" width="16" height="168"/>
	</g>
</g>
<g>
</g>
<g>
</g>
<g>
</g>
<g>
</g>
<g>
</g>
<g>
</g>
<g>
</g>
<g>
</g>
<g>
</g>
<g>
</g>
<g>
</g>
<g>
</g>
<g>
</g>
<g>
</g>
<g>
</g>
</svg>
