<?xml version="1.0" encoding="iso-8859-1"?>
<!-- Generator: Adobe Illustrator 19.0.0, SVG Export Plug-In . SVG Version: 6.00 Build 0)  -->
<svg version="1.1" id="Capa_1" xmlns="http://www.w3.org/2000/svg" xmlns:xlink="http://www.w3.org/1999/xlink" x="0px" y="0px"
	 viewBox="0 0 480 480" style="enable-background:new 0 0 480 480;" xml:space="preserve">
<g>
	<g>
		<path d="M472,228h-10.312L407.032,70.848c-5.61-16.069-20.764-26.837-37.784-26.848H110.752
			c-17.023,0.01-32.179,10.782-37.784,26.856L18.312,228H8c-4.418,0-8,3.582-8,8v32c0,4.418,3.582,8,8,8h25.752l32.424,129.696
			c4.434,17.82,20.445,30.322,38.808,30.304h278.032c18.363,0.018,34.374-12.484,38.808-30.304L454.248,276H472c4.418,0,8-3.582,8-8
			v-32C480,231.582,476.418,228,472,228z M88.08,76.12c3.355-9.652,12.454-16.121,22.672-16.12h258.496
			c10.216-0.002,19.314,6.463,22.672,16.112L444.752,228H35.248L88.08,76.12z M464,260h-16c-3.672,0.001-6.871,2.501-7.76,6.064
			l-33.936,135.76c-2.673,10.684-12.274,18.178-23.288,18.176H104.984c-11.014,0.002-20.615-7.492-23.288-18.176L47.76,266.064
			c-0.889-3.563-4.088-6.063-7.76-6.064H16v-16h448V260z"/>
	</g>
</g>
<g>
	<g>
		<rect x="72" y="260" width="312" height="16"/>
	</g>
</g>
<g>
	<g>
		<rect x="400" y="260" width="16" height="16"/>
	</g>
</g>
<g>
</g>
<g>
</g>
<g>
</g>
<g>
</g>
<g>
</g>
<g>
</g>
<g>
</g>
<g>
</g>
<g>
</g>
<g>
</g>
<g>
</g>
<g>
</g>
<g>
</g>
<g>
</g>
<g>
</g>
</svg>
