<?xml version="1.0" encoding="iso-8859-1"?>
<!-- Generator: Adobe Illustrator 19.0.0, SVG Export Plug-In . SVG Version: 6.00 Build 0)  -->
<svg version="1.1" id="Capa_1" xmlns="http://www.w3.org/2000/svg" xmlns:xlink="http://www.w3.org/1999/xlink" x="0px" y="0px"
	 viewBox="0 0 480.147 480.147" style="enable-background:new 0 0 480.147 480.147;" xml:space="preserve">
<g>
	<g>
		<path d="M479.661,189.535c-2.885-19.546-18.233-34.895-37.78-37.78c0.921-3.553,1.389-7.209,1.392-10.88
			c0.089-24.654-19.824-44.712-44.478-44.801c-10.136-0.037-19.984,3.378-27.922,9.681c-7.034-5.603-15.598-8.95-24.568-9.6
			c-1.843-20.626-17.555-37.316-38.032-40.4c0.928-3.552,1.398-7.209,1.4-10.88c0.089-24.654-19.824-44.712-44.478-44.801
			c-10.136-0.037-19.984,3.378-27.922,9.681c-19.307-15.332-47.387-12.109-62.719,7.198c-6.304,7.938-9.718,17.785-9.681,27.922
			c0.003,3.671,0.471,7.327,1.392,10.88c-20.775,3.128-36.599,20.251-38.08,41.208c-6.909,1.404-13.388,4.419-18.912,8.8
			c-19.298-15.336-47.374-12.124-62.71,7.174c-6.311,7.941-9.728,17.795-9.69,27.938c0.003,3.671,0.471,7.327,1.392,10.88
			c-24.477,3.612-41.392,26.383-37.78,50.86c2.884,19.546,18.233,34.895,37.78,37.78c-0.921,3.553-1.389,7.209-1.392,10.88
			c-0.089,24.654,19.824,44.712,44.478,44.801c10.136,0.037,19.984-3.378,27.922-9.681c17.333,13.817,42.202,12.732,58.264-2.544
			c10.378,9.03,16.396,22.068,16.536,35.824l-12.232,116.216c-2.311,21.97,13.626,41.654,35.597,43.965
			c1.388,0.146,2.783,0.219,4.179,0.219h56.912c22.091-0.003,39.998-17.913,39.995-40.005c0-1.396-0.073-2.791-0.219-4.179
			l-12.232-116.216c0.14-13.756,6.158-26.794,16.536-35.824c16.062,15.276,40.931,16.361,58.264,2.544
			c19.307,15.332,47.387,12.109,62.719-7.198c6.304-7.938,9.718-17.785,9.681-27.922c-0.003-3.671-0.471-7.327-1.392-10.88
			C466.359,236.783,483.273,214.012,479.661,189.535z M280.074,320.075c0.001,0.267,0.017,0.534,0.048,0.8l12.28,116.656
			c1.405,13.18-8.141,25.004-21.321,26.409c-0.847,0.09-1.699,0.135-2.551,0.135h-56.912c-13.255,0.002-24.002-10.741-24.004-23.996
			c0-0.84,0.044-1.68,0.132-2.516l12.28-116.688c0.031-0.266,0.047-0.533,0.048-0.8c-0.047-18.961-8.482-36.93-23.04-49.08
			c2.571-5.197,4.096-10.848,4.488-16.632c21.526,14.975,34.416,39.49,34.552,65.712h16c0.013-16.067-3.997-31.881-11.664-46h10.328
			v-79.472c2.294-1.213,4.478-2.624,6.528-4.216c3.294,2.587,6.931,4.703,10.808,6.288v75.4h12.8
			c-8.411,14.597-12.826,31.153-12.8,48h16c0.002-26.288,12.918-50.898,34.552-65.832c0.376,5.826,1.901,11.519,4.488,16.752
			C288.556,283.145,280.121,301.114,280.074,320.075z M187.186,238.747c12.32-3.924,22.358-12.959,27.552-24.8v50.848
			C207.399,254.348,198.028,245.489,187.186,238.747z M264.074,267.091v-57c4.509,13.659,15.294,24.327,29,28.688
			C281.502,246.045,271.615,255.698,264.074,267.091z M435.302,224.875c-0.01,0-0.019,0-0.029,0
			c-1.418-0.049-2.83-0.204-4.224-0.464c-4.372-0.638-8.433,2.39-9.071,6.762c-0.268,1.835,0.111,3.707,1.071,5.294
			c2.752,4.45,4.214,9.576,4.224,14.808c0,15.906-12.894,28.8-28.8,28.8c-8.311,0.005-16.207-3.636-21.6-9.96
			c-2.907-3.327-7.961-3.667-11.288-0.76c-0.27,0.236-0.524,0.49-0.76,0.76c-5.381,6.313-13.257,9.953-21.552,9.96
			c-5.702-0.004-11.273-1.709-16-4.896c2.323-0.899,4.715-1.611,7.152-2.128l-3.2-15.672c-5.016,1.035-9.887,2.679-14.504,4.896
			c-1.472-3.481-2.236-7.221-2.248-11c0.02-1.952,0.25-3.897,0.688-5.8c4.648-1.809,9.456-3.175,14.36-4.08l-2.896-15.72
			c-2.88,0.528-5.712,1.192-8.488,1.968c-1.79-2.409-4.759-3.639-7.728-3.2c-1.3,0.237-2.615,0.376-3.936,0.416
			c-15.906,0-28.8-12.894-28.8-28.8c0.028-0.804,0.108-1.606,0.24-2.4l0.152-1.128c0.216-2.503-0.742-4.965-2.592-6.664
			c-1.888-1.739-4.459-2.536-7-2.168c-9.478,1.288-18.961-2.329-25.176-9.6c-2.907-3.327-7.961-3.667-11.288-0.76
			c-0.27,0.236-0.524,0.49-0.76,0.76c-5.316,6.243-13.073,9.881-21.272,9.976c-4.418,0.048-7.96,3.669-7.912,8.087
			c0.003,0.265,0.019,0.53,0.048,0.793l0.176,1.392c0.102,0.579,0.163,1.164,0.184,1.752c0.494,15.412-11.6,28.306-27.012,28.8
			c-2.009,0.064-4.02-0.088-5.996-0.456c-2.938-0.449-5.88,0.787-7.616,3.2c-3.598-1.012-7.252-1.814-10.944-2.4l-2.448,15.808
			c5.667,0.907,11.218,2.434,16.552,4.552c0.421,1.87,0.644,3.779,0.664,5.696c0.001,3.777-0.75,7.516-2.208,11
			c-4.617-2.217-9.488-3.861-14.504-4.896l-3.2,15.672c2.437,0.517,4.829,1.229,7.152,2.128c-4.727,3.187-10.298,4.892-16,4.896
			c-8.312,0.008-16.209-3.633-21.6-9.96c-2.907-3.327-7.961-3.667-11.288-0.76c-0.27,0.236-0.524,0.49-0.76,0.76
			c-5.396,6.313-13.287,9.944-21.592,9.936c-15.906,0-28.8-12.894-28.8-28.8c0.017-5.234,1.488-10.361,4.248-14.808
			c1.553-2.674,1.425-6.004-0.328-8.552c-1.782-2.592-4.891-3.936-8-3.456c-1.295,0.236-2.605,0.375-3.92,0.416
			c-15.906,0.008-28.806-12.88-28.814-28.786c-0.008-15.906,12.88-28.806,28.786-28.814c0.01,0,0.019,0,0.029,0
			c1.422,0.049,2.84,0.202,4.24,0.456c4.372,0.638,8.433-2.39,9.071-6.762c0.268-1.835-0.111-3.707-1.071-5.294
			c-2.758-4.445-4.226-9.569-4.24-14.8c0-15.906,12.894-28.8,28.8-28.8c8.311-0.005,16.207,3.636,21.6,9.96
			c3.131,3.327,8.366,3.486,11.693,0.355c0.122-0.115,0.24-0.233,0.355-0.355c5.314-6.229,13.06-9.86,21.248-9.96
			c4.418-0.048,7.96-3.669,7.912-8.087c-0.003-0.265-0.019-0.53-0.048-0.793l-0.184-1.392c-0.094-0.572-0.153-1.149-0.176-1.728
			c0-15.906,12.894-28.8,28.8-28.8c1.423,0.049,2.84,0.202,4.24,0.456c4.372,0.638,8.433-2.39,9.071-6.762
			c0.268-1.835-0.111-3.707-1.071-5.294c-2.758-4.445-4.226-9.569-4.24-14.8c0-15.906,12.894-28.8,28.8-28.8
			c8.311-0.005,16.207,3.636,21.6,9.96c3.131,3.327,8.366,3.486,11.693,0.355c0.122-0.115,0.24-0.233,0.355-0.355
			c5.38-6.314,13.257-9.954,21.552-9.96c15.906,0,28.8,12.894,28.8,28.8c-0.023,5.232-1.49,10.357-4.24,14.808
			c-1.554,2.674-1.417,6.007,0.352,8.544c1.789,2.583,4.893,3.924,8,3.456c1.284-0.234,2.584-0.37,3.888-0.408
			c15.906,0,28.8,12.894,28.8,28.8c-0.028,0.804-0.108,1.606-0.24,2.4l-0.152,1.128c-0.216,2.503,0.742,4.964,2.592,6.664
			c1.885,1.746,4.459,2.543,7,2.168c9.478-1.283,18.959,2.332,25.176,9.6c2.907,3.327,7.961,3.667,11.288,0.76
			c0.27-0.236,0.524-0.49,0.76-0.76c5.388-6.318,13.273-9.958,21.576-9.96c15.906,0,28.8,12.894,28.8,28.8
			c-0.016,5.232-1.487,10.356-4.248,14.8c-1.54,2.679-1.4,6.005,0.36,8.544c1.796,2.576,4.893,3.916,8,3.464
			c1.284-0.234,2.584-0.37,3.888-0.408c15.906-0.008,28.806,12.88,28.814,28.786C464.096,211.967,451.208,224.867,435.302,224.875z"
			/>
	</g>
</g>
<g>
	<g>
		<path d="M392.074,184.075c0,13.255-10.745,24-24,24v16c22.08-0.026,39.974-17.92,40-40H392.074z"/>
	</g>
</g>
<g>
	<g>
		<path d="M216.074,96.075v-16c-22.08,0.026-39.974,17.92-40,40c0.026,22.08,17.92,39.974,40,40v-16c-13.255,0-24-10.745-24-24
			S202.819,96.075,216.074,96.075z"/>
	</g>
</g>
<g>
	<g>
		<path d="M136.074,200.075c0,13.255-10.745,24-24,24s-24-10.745-24-24h-16c0,22.091,17.909,40,40,40s40-17.909,40-40H136.074z"/>
	</g>
</g>
<g>
</g>
<g>
</g>
<g>
</g>
<g>
</g>
<g>
</g>
<g>
</g>
<g>
</g>
<g>
</g>
<g>
</g>
<g>
</g>
<g>
</g>
<g>
</g>
<g>
</g>
<g>
</g>
<g>
</g>
</svg>
