<?xml version="1.0" encoding="iso-8859-1"?>
<!-- Generator: Adobe Illustrator 19.0.0, SVG Export Plug-In . SVG Version: 6.00 Build 0)  -->
<svg version="1.1" id="Capa_1" xmlns="http://www.w3.org/2000/svg" xmlns:xlink="http://www.w3.org/1999/xlink" x="0px" y="0px"
	 viewBox="0 0 480.43 480.43" style="enable-background:new 0 0 480.43 480.43;" xml:space="preserve">
<g>
	<g>
		<path d="M164.295,108.215c-72.902,0-132,59.098-132,132c0,72.902,59.098,132,132,132s132-59.098,132-132
			C296.211,167.348,237.162,108.299,164.295,108.215z M164.295,356.215c-64.065,0-116-51.935-116-116c0-64.065,51.935-116,116-116
			s116,51.935,116,116C280.22,304.249,228.329,356.14,164.295,356.215z"/>
	</g>
</g>
<g>
	<g>
		<path d="M392.579,94.983c-23.532-12.344-49.711-18.784-76.284-18.768c-26.503,0.022-52.607,6.462-76.08,18.768
			c-80.209-42.074-179.34-11.159-221.414,69.05c-42.074,80.209-11.159,179.34,69.05,221.414c47.705,25.024,104.658,25.024,152.364,0
			c80.209,42.074,179.34,11.159,221.414-69.05C503.703,236.187,472.788,137.057,392.579,94.983z M164.295,388.215
			c-81.738,0-148-66.262-148-148s66.262-148,148-148s148,66.262,148,148C312.203,321.915,245.995,388.123,164.295,388.215z
			 M376.168,375.615c-18.862,8.324-39.255,12.616-59.873,12.6c-20.537-0.023-40.846-4.311-59.64-12.592
			c74.782-50.891,94.149-152.769,43.258-227.55c-11.574-17.008-26.25-31.683-43.258-43.258
			c74.779-33.003,162.154,0.864,195.156,75.644S450.947,342.613,376.168,375.615z"/>
	</g>
</g>
<g>
	<g>
		<rect x="368.295" y="140.215" width="16" height="16"/>
	</g>
</g>
<g>
	<g>
		<rect x="312.295" y="116.215" width="16" height="16"/>
	</g>
</g>
<g>
	<g>
		<rect x="416.295" y="204.215" width="16" height="16"/>
	</g>
</g>
<g>
	<g>
		<rect x="408.295" y="268.215" width="16" height="16"/>
	</g>
</g>
<g>
	<g>
		<rect x="352.295" y="236.215" width="16" height="16"/>
	</g>
</g>
<g>
	<g>
		<rect x="336.295" y="340.215" width="16" height="16"/>
	</g>
</g>
<g>
	<g>
		<rect x="156.295" y="164.215" width="16" height="24"/>
	</g>
</g>
<g>
	<g>
		<rect x="156.295" y="292.215" width="16" height="24"/>
	</g>
</g>
<g>
	<g>
		<rect x="124.291" y="172.779" transform="matrix(0.8661 -0.4999 0.4999 0.8661 -74.6574 90.8825)" width="16" height="24"/>
	</g>
</g>
<g>
	<g>
		<rect x="188.295" y="283.64" transform="matrix(0.8661 -0.4999 0.4999 0.8661 -121.5072 137.7267)" width="16" height="24"/>
	</g>
</g>
<g>
	<g>
		<rect x="100.866" y="196.22" transform="matrix(0.4999 -0.8661 0.8661 0.4999 -125.8913 198.4122)" width="16" height="24"/>
	</g>
</g>
<g>
	<g>
		<rect x="211.718" y="260.212" transform="matrix(0.4999 -0.8661 0.8661 0.4999 -125.879 326.419)" width="16" height="24"/>
	</g>
</g>
<g>
	<g>
		<rect x="88.295" y="232.215" width="24" height="16"/>
	</g>
</g>
<g>
	<g>
		<rect x="216.295" y="232.215" width="24" height="16"/>
	</g>
</g>
<g>
	<g>
		<rect x="96.856" y="264.219" transform="matrix(0.8661 -0.4999 0.4999 0.8661 -121.5085 90.8767)" width="24" height="16"/>
	</g>
</g>
<g>
	<g>
		<rect x="207.717" y="200.215" transform="matrix(0.8661 -0.4999 0.4999 0.8661 -74.6647 137.7275)" width="24" height="16"/>
	</g>
</g>
<g>
	<g>
		<rect x="120.305" y="287.646" transform="matrix(0.4999 -0.8661 0.8661 0.4999 -189.8871 262.4328)" width="24" height="16"/>
	</g>
</g>
<g>
	<g>
		<rect x="184.292" y="176.794" transform="matrix(0.4999 -0.8661 0.8661 0.4999 -61.8832 262.4148)" width="24" height="16"/>
	</g>
</g>
<g>
</g>
<g>
</g>
<g>
</g>
<g>
</g>
<g>
</g>
<g>
</g>
<g>
</g>
<g>
</g>
<g>
</g>
<g>
</g>
<g>
</g>
<g>
</g>
<g>
</g>
<g>
</g>
<g>
</g>
</svg>
