<?xml version="1.0" encoding="iso-8859-1"?>
<!-- Generator: Adobe Illustrator 19.0.0, SVG Export Plug-In . SVG Version: 6.00 Build 0)  -->
<svg version="1.1" id="Capa_1" xmlns="http://www.w3.org/2000/svg" xmlns:xlink="http://www.w3.org/1999/xlink" x="0px" y="0px"
	 viewBox="0 0 480.001 480.001" style="enable-background:new 0 0 480.001 480.001;" xml:space="preserve">
<g>
	<g>
		<path d="M464,354.792c10.079-7.559,16.008-19.425,16-32.024c0.022-22.091-17.868-40.018-39.96-40.04
			c-19.038-0.019-35.452,13.383-39.24,32.04h-39.36l-206.168-76.68c-35.144-11.803-73.78-6.572-104.52,14.152
			c-29.282,19.24-47.932,51.021-50.448,85.968C0.102,341.019,0,343.872,0,346.768c-0.089,31.896,12.61,62.498,35.256,84.96
			c21.394,20.948,50.219,32.561,80.16,32.296c10.675-0.009,21.303-1.41,31.616-4.168l214.152-65.064H400.8
			c4.422,21.644,25.553,35.605,47.198,31.183c21.644-4.422,35.605-25.553,31.183-47.198
			C477.223,369.196,471.823,360.663,464,354.792z M46.552,420.4C26.928,400.932,15.923,374.411,16,346.768
			c0-2.496,0.088-4.976,0.264-7.424c2.183-30.015,18.221-57.301,43.384-73.808c23.66-16.057,52.956-21.49,80.8-14.984
			L68.872,436.616C60.662,432.36,53.137,426.894,46.552,420.4z M142.648,444.448c-19.411,5.183-39.912,4.605-59-1.664
			l72.088-187.448l194.232,72.232l-20,60L142.648,444.448z M440,410.768c-13.255,0-24-10.745-24-24c0-4.418-3.582-8-8-8h-48
			c-0.789-0.002-1.573,0.114-2.328,0.344l-8.92,2.712l17.016-51.056H408c4.418,0,8-3.582,8-8c0-13.255,10.745-24,24-24
			s24,10.745,24,24s-10.745,24-24,24c-4.418,0-8,3.582-8,8s3.582,8,8,8c13.255,0,24,10.745,24,24S453.255,410.768,440,410.768z"/>
	</g>
</g>
<g>
	<g>
		<rect x="152" y="306.744" width="16" height="16"/>
	</g>
</g>
<g>
	<g>
		<rect x="160" y="274.744" width="16" height="16"/>
	</g>
</g>
<g>
	<g>
		<rect x="168" y="362.744" width="16" height="16"/>
	</g>
</g>
<g>
	<g>
		<rect x="208" y="312.024" width="16" height="16"/>
	</g>
</g>
<g>
	<g>
		<rect x="240" y="346.744" width="16" height="16"/>
	</g>
</g>
<g>
	<g>
		<rect x="112" y="402.744" width="16" height="16"/>
	</g>
</g>
<g>
	<g>
		<path d="M479.697,122.296c-2.514-34.95-21.164-66.734-50.448-85.976c-30.829-20.773-69.585-25.974-104.8-14.064L118.56,98.848
			H79.2c-4.422-21.644-25.553-35.605-47.198-31.183C10.359,72.087-3.603,93.219,0.82,114.863
			c1.958,9.582,7.358,18.115,15.181,23.985c-17.669,13.26-21.243,38.333-7.983,56.002c13.26,17.669,38.333,21.243,56.002,7.983
			c7.822-5.87,13.223-14.403,15.181-23.986h39.624l214.4,65.136c10.221,2.736,20.756,4.121,31.336,4.12
			c29.944,0.256,58.771-11.355,80.176-32.296c22.649-22.461,35.35-53.062,35.264-84.96C480,127.968,479.899,125.118,479.697,122.296
			z M122.328,163.224c-0.753-0.241-1.538-0.367-2.328-0.376H72c-4.418,0-8,3.582-8,8c0,13.255-10.745,24-24,24s-24-10.745-24-24
			c0-13.255,10.745-24,24-24c4.418,0,8-3.582,8-8s-3.582-8-8-8c-13.255,0-24-10.745-24-24c0-13.255,10.745-24,24-24s24,10.745,24,24
			c0,4.418,3.582,8,8,8h42.232l17.016,51.056L122.328,163.224z M337.6,228.6l-187.6-57l-20-59.952l194.224-72.24l72.104,187.464
			C377.336,233.141,356.929,233.742,337.6,228.6z M433.448,204.48h-0.016c-6.585,6.494-14.109,11.96-22.32,16.216l-71.52-186.008
			c27.827-6.425,57.072-1.016,80.76,14.936c25.163,16.507,41.201,43.793,43.384,73.808c0.176,2.448,0.264,4.928,0.264,7.424
			C464.075,158.496,453.071,185.014,433.448,204.48z"/>
	</g>
</g>
<g>
	<g>
		<rect x="312" y="90.848" width="16" height="16"/>
	</g>
</g>
<g>
	<g>
		<rect x="304" y="58.848" width="16" height="16"/>
	</g>
</g>
<g>
	<g>
		<rect x="296" y="146.848" width="16" height="16"/>
	</g>
</g>
<g>
	<g>
		<rect x="256" y="74.848" width="16" height="16"/>
	</g>
</g>
<g>
	<g>
		<rect x="224" y="130.848" width="16" height="16"/>
	</g>
</g>
<g>
	<g>
		<rect x="352" y="186.848" width="16" height="16"/>
	</g>
</g>
<g>
</g>
<g>
</g>
<g>
</g>
<g>
</g>
<g>
</g>
<g>
</g>
<g>
</g>
<g>
</g>
<g>
</g>
<g>
</g>
<g>
</g>
<g>
</g>
<g>
</g>
<g>
</g>
<g>
</g>
</svg>
