<?xml version="1.0" encoding="iso-8859-1"?>
<!-- Generator: Adobe Illustrator 19.0.0, SVG Export Plug-In . SVG Version: 6.00 Build 0)  -->
<svg version="1.1" id="Capa_1" xmlns="http://www.w3.org/2000/svg" xmlns:xlink="http://www.w3.org/1999/xlink" x="0px" y="0px"
	 viewBox="0 0 480.032 480.032" style="enable-background:new 0 0 480.032 480.032;" xml:space="preserve">
<g>
	<g>
		<path d="M400.832,173.785c-9.99,0.145-19.709,3.277-27.904,8.992c-11.021-13.715-27.422-22.01-45-22.76
			c-11.261,0.18-22.19,3.847-31.28,10.496l-10.4-46.344c-4.155-18.377,0.312-37.645,12.128-52.32
			c12.091-15.13,30.432-23.907,49.8-23.832c4.418,0,8-3.582,8-8v-32c0-4.418-3.582-8-8-8
			c-78.498-0.376-146.069,55.354-160.64,132.488l-6.688,36.32c-8.557-5.636-18.555-8.69-28.8-8.8
			c-17.567,0.748-33.958,9.034-44.976,22.736c-8.186-5.708-17.894-8.834-27.872-8.976c-44.424,0-79.2,62.472-79.2,142.232
			s34.776,142.232,79.2,142.232c11.346-0.216,22.307-4.151,31.2-11.2c10.749,11.764,25.793,18.687,41.72,19.2
			c13.285-0.31,26.034-5.299,36-14.088c13.299,16.85,33.31,27.029,54.76,27.856c20.219-0.707,39.209-9.888,52.32-25.296
			c9.382,7.258,20.853,11.3,32.712,11.528c15.926-0.515,30.97-7.439,41.72-19.2c8.894,7.047,19.854,10.982,31.2,11.2
			c44.392,0,79.2-62.472,79.2-142.232S445.256,173.785,400.832,173.785z M203.272,135.401
			c12.581-66.61,69.196-115.905,136.904-119.2v16.208c-21.347,2.059-40.948,12.681-54.328,29.44
			c-14.863,18.467-20.475,42.712-15.24,65.832l8,35.568c-10.549-7.169-22.974-11.075-35.728-11.232
			c-17.252,0.375-33.736,7.21-46.192,19.152L203.272,135.401z M79.2,442.209C44.928,442.249,16,384.441,16,316.017
			s28.928-126.232,63.2-126.232c6.438,0.09,12.717,2.01,18.104,5.536c-18.52,27.872-30.144,69.928-30.144,117.816
			c0,50.184,12.8,93.88,32.904,121.6C94.094,439.406,86.777,442.026,79.2,442.209z M152.072,450.249
			c-37.376,0-68.944-62.792-68.944-137.112s31.568-137.12,68.944-137.12c10.876,0.52,21.145,5.163,28.72,12.984
			c-21.504,29.848-35,75.28-35,127.016c0,49.752,12.552,93.552,32.632,123.392C171.242,446.094,161.879,449.945,152.072,450.249z
			 M242.88,464.017c-44,0-81.088-67.776-81.088-148s37.128-148,81.088-148c44.72,0,81.12,66.4,81.12,148
			S287.6,464.017,242.88,464.017z M327.928,450.249c-8.148-0.193-16.025-2.96-22.504-7.904C326.656,412.489,340,367.377,340,316.017
			c0-53.6-14.536-100.248-37.376-129.992c7.003-6.196,15.958-9.738,25.304-10.008c37.376,0,68.944,62.792,68.944,137.12
			S365.304,450.249,327.928,450.249z M400.8,442.249c-7.577-0.184-14.893-2.804-20.864-7.472
			c20.104-27.76,32.904-71.456,32.904-121.6c0-47.872-11.616-89.912-30.128-117.784c5.376-3.547,11.649-5.492,18.088-5.608
			c34.24,0,63.2,57.808,63.2,126.232S435.072,442.249,400.8,442.249z"/>
	</g>
</g>
<g>
</g>
<g>
</g>
<g>
</g>
<g>
</g>
<g>
</g>
<g>
</g>
<g>
</g>
<g>
</g>
<g>
</g>
<g>
</g>
<g>
</g>
<g>
</g>
<g>
</g>
<g>
</g>
<g>
</g>
</svg>
