<?xml version="1.0" encoding="iso-8859-1"?>
<!-- Generator: Adobe Illustrator 19.0.0, SVG Export Plug-In . SVG Version: 6.00 Build 0)  -->
<svg version="1.1" id="Capa_1" xmlns="http://www.w3.org/2000/svg" xmlns:xlink="http://www.w3.org/1999/xlink" x="0px" y="0px"
	 viewBox="0 0 480 480" style="enable-background:new 0 0 480 480;" xml:space="preserve">
<g>
	<g>
		<path d="M240,0C107.452,0,0,107.452,0,240c0.15,132.486,107.514,239.85,240,240c132.548,0,240-107.452,240-240S372.548,0,240,0z
			 M240,464C116.288,464,16,363.712,16,240C16.137,116.345,116.345,16.137,240,16c123.712,0,224,100.288,224,224
			S363.712,464,240,464z"/>
	</g>
</g>
<g>
	<g>
		<path d="M439.96,240.04c0.367-8.321,1.608-16.579,3.704-24.64c4.329-13.63,4.931-28.171,1.744-42.112
			c-5.715-13.502-14.996-25.194-26.848-33.824c-6.183-5.032-11.815-10.707-16.8-16.928c-4.458-6.756-8.183-13.967-11.112-21.512
			c-4.561-13.8-12.751-26.119-23.712-35.664c-12.393-7.455-26.562-11.442-41.024-11.544c-8.153-0.485-16.232-1.825-24.104-4
			c-7.32-2.807-14.321-6.382-20.888-10.664c-11.997-8.707-26.148-13.964-40.92-15.2c-14.769,1.238-28.918,6.494-40.912,15.2
			c-6.566,4.259-13.565,7.809-20.88,10.592c-7.873,2.171-15.952,3.512-24.104,4c-14.464,0.106-28.635,4.093-41.032,11.544
			c-10.958,9.548-19.147,21.866-23.712,35.664c-2.927,7.542-6.649,14.751-11.104,21.504c-5,6.222-10.644,11.896-16.84,16.928
			c-11.852,8.633-21.135,20.324-26.856,33.824c-3.188,13.945-2.583,28.488,1.752,42.12c2.087,8.062,3.323,16.32,3.688,24.64
			c-0.364,8.32-1.603,16.579-3.696,24.64c-4.329,13.63-4.931,28.171-1.744,42.112c5.719,13.499,14.999,25.191,26.848,33.824
			c6.197,5.03,11.843,10.704,16.84,16.928c4.456,6.754,8.181,13.962,11.112,21.504c4.553,13.815,12.744,26.149,23.712,35.704
			c12.393,7.455,26.562,11.442,41.024,11.544c8.153,0.485,16.232,1.825,24.104,4c7.318,2.781,14.32,6.331,20.888,10.592
			c11.994,8.706,26.143,13.962,40.912,15.2c14.771-1.238,28.923-6.494,40.92-15.2c6.566-4.259,13.565-7.809,20.88-10.592
			c7.873-2.171,15.952-3.512,24.104-4c14.464-0.106,28.635-4.093,41.032-11.544c10.959-9.55,19.149-21.87,23.712-35.672
			c2.929-7.526,6.652-14.718,11.104-21.456c4.987-6.22,10.618-11.894,16.8-16.928c11.852-8.633,21.135-20.324,26.856-33.824
			c3.188-13.944,2.583-28.488-1.752-42.12C441.567,256.618,440.328,248.36,439.96,240.04z M428.064,268.096
			c3.545,10.888,4.288,22.493,2.16,33.744c-4.978,10.682-12.627,19.898-22.208,26.76c-7.085,5.795-13.523,12.34-19.2,19.52
			c-5.161,7.682-9.475,15.9-12.864,24.512c-3.578,11.117-9.93,21.139-18.456,29.12c-10.162,5.613-21.583,8.556-33.192,8.552
			c-9.3,0.581-18.51,2.161-27.472,4.712c-8.44,3.13-16.514,7.17-24.08,12.048c-9.604,7.087-20.89,11.546-32.744,12.936
			c-11.854-1.392-23.14-5.851-32.744-12.936c-7.575-4.881-15.66-8.921-24.112-12.048c-8.967-2.552-18.183-4.132-27.488-4.712
			c-11.602,0.002-23.014-2.941-33.168-8.552c-8.53-7.979-14.885-18.002-18.464-29.12c-3.387-8.628-7.706-16.861-12.88-24.552
			c-5.673-7.184-12.111-13.729-19.2-19.52c-9.58-6.86-17.227-16.077-22.2-26.76c-2.128-11.248-1.385-22.851,2.16-33.736
			c2.356-9.182,3.719-18.591,4.064-28.064c-0.333-9.466-1.682-18.87-4.024-28.048c-3.545-10.888-4.288-22.493-2.16-33.744
			c4.962-10.682,12.595-19.904,22.16-26.776c7.085-5.795,13.523-12.34,19.2-19.52c5.158-7.692,9.466-15.922,12.848-24.544
			c3.574-11.119,9.927-21.142,18.456-29.12c10.16-5.612,21.577-8.555,33.184-8.552c9.313-0.579,18.537-2.158,27.512-4.712
			c8.447-3.132,16.529-7.172,24.104-12.048c9.602-7.085,20.885-11.544,32.736-12.936c11.859,1.389,23.151,5.848,32.76,12.936
			c7.574,4.878,15.656,8.918,24.104,12.048c8.964,2.552,18.177,4.132,27.48,4.712c11.618-0.01,23.047,2.933,33.216,8.552
			c8.527,7.982,14.881,18.003,18.464,29.12c3.364,8.636,7.658,16.879,12.808,24.584c5.673,7.184,12.111,13.729,19.2,19.52
			c9.581,6.86,17.227,16.077,22.2,26.76c2.128,11.248,1.385,22.851-2.16,33.736c-2.359,9.182-3.724,18.59-4.072,28.064
			C424.34,249.506,425.705,258.914,428.064,268.096z"/>
	</g>
</g>
<g>
	<g>
		<path d="M240,128c-61.856,0-112,50.144-112,112c0.066,61.828,50.172,111.934,112,112c61.856,0,112-50.144,112-112
			S301.856,128,240,128z M240,336c-53.019,0-96-42.981-96-96c0.057-52.996,43.004-95.943,96-96v0c53.019,0,96,42.981,96,96
			C336,293.019,293.019,336,240,336z"/>
	</g>
</g>
<g>
	<g>
		<rect x="183.647" y="88.004" transform="matrix(0.53 -0.848 0.848 0.53 13.7755 216.8542)" width="37.736" height="15.992"/>
	</g>
</g>
<g>
	<g>
		<rect x="111.152" y="127.152" width="32" height="16"/>
	</g>
</g>
<g>
	<g>
		<rect x="83.153" y="202.213" transform="matrix(0.7071 -0.7071 0.7071 0.7071 -128.2891 128.6525)" width="16" height="33.944"/>
	</g>
</g>
<g>
	<g>
		<rect x="101.288" y="319.15" transform="matrix(0.4472 -0.8944 0.8944 0.4472 -226.7327 287.44)" width="35.776" height="16"/>
	</g>
</g>
<g>
	<g>
		<rect x="181.265" y="375.151" transform="matrix(0.8944 -0.4472 0.4472 0.8944 -150.3239 129.5126)" width="35.776" height="16"/>
	</g>
</g>
<g>
	<g>
		<rect x="303.154" y="348.725" transform="matrix(0.8321 -0.5547 0.5547 0.8321 -149.1806 233.5878)" width="16" height="28.848"/>
	</g>
</g>
<g>
	<g>
		<rect x="372.731" y="247.155" transform="matrix(0.832 -0.5547 0.5547 0.832 -76.5119 257.6087)" width="28.848" height="16"/>
	</g>
</g>
<g>
	<g>
		<rect x="343.152" y="143.152" width="32" height="16"/>
	</g>
</g>
<g>
	<g>
		<rect x="287.152" y="87.152" width="16" height="24"/>
	</g>
</g>
<g>
</g>
<g>
</g>
<g>
</g>
<g>
</g>
<g>
</g>
<g>
</g>
<g>
</g>
<g>
</g>
<g>
</g>
<g>
</g>
<g>
</g>
<g>
</g>
<g>
</g>
<g>
</g>
<g>
</g>
</svg>
