<?xml version="1.0" encoding="iso-8859-1"?>
<!-- Generator: Adobe Illustrator 19.0.0, SVG Export Plug-In . SVG Version: 6.00 Build 0)  -->
<svg version="1.1" id="Capa_1" xmlns="http://www.w3.org/2000/svg" xmlns:xlink="http://www.w3.org/1999/xlink" x="0px" y="0px"
	 viewBox="0 0 478.026 478.026" style="enable-background:new 0 0 478.026 478.026;" xml:space="preserve">
<g>
	<g>
		<rect x="58.021" y="246" width="16" height="16"/>
	</g>
</g>
<g>
	<g>
		<rect x="284.021" y="56" width="16" height="16"/>
	</g>
</g>
<g>
	<g>
		<rect x="324.021" y="56" width="16" height="16"/>
	</g>
</g>
<g>
	<g>
		<rect x="364.021" y="56" width="16" height="16"/>
	</g>
</g>
<g>
	<g>
		<rect x="284.021" y="96" width="16" height="16"/>
	</g>
</g>
<g>
	<g>
		<rect x="324.021" y="96" width="16" height="16"/>
	</g>
</g>
<g>
	<g>
		<rect x="364.021" y="96" width="16" height="16"/>
	</g>
</g>
<g>
	<g>
		<rect x="284.021" y="136" width="16" height="16"/>
	</g>
</g>
<g>
	<g>
		<rect x="324.021" y="136" width="16" height="16"/>
	</g>
</g>
<g>
	<g>
		<rect x="364.021" y="136" width="16" height="16"/>
	</g>
</g>
<g>
	<g>
		<rect x="284.021" y="176" width="16" height="16"/>
	</g>
</g>
<g>
	<g>
		<rect x="244.021" y="96" width="16" height="16"/>
	</g>
</g>
<g>
	<g>
		<rect x="244.021" y="136" width="16" height="16"/>
	</g>
</g>
<g>
	<g>
		<rect x="244.021" y="176" width="16" height="16"/>
	</g>
</g>
<g>
	<g>
		<rect x="324.021" y="176" width="16" height="16"/>
	</g>
</g>
<g>
	<g>
		<rect x="364.021" y="176" width="16" height="16"/>
	</g>
</g>
<g>
	<g>
		<rect x="404.021" y="96" width="16" height="16"/>
	</g>
</g>
<g>
	<g>
		<rect x="404.021" y="136" width="16" height="16"/>
	</g>
</g>
<g>
	<g>
		<rect x="404.021" y="176" width="16" height="16"/>
	</g>
</g>
<g>
	<g>
		<rect x="324.021" y="216" width="16" height="16"/>
	</g>
</g>
<g>
	<g>
		<rect x="364.021" y="216" width="16" height="16"/>
	</g>
</g>
<g>
	<g>
		<rect x="58.021" y="286" width="16" height="16"/>
	</g>
</g>
<g>
	<g>
		<rect x="58.021" y="326" width="16" height="16"/>
	</g>
</g>
<g>
	<g>
		<rect x="58.021" y="366" width="16" height="16"/>
	</g>
</g>
<g>
	<g>
		<rect x="58.021" y="406" width="16" height="16"/>
	</g>
</g>
<g>
	<g>
		<rect x="98.021" y="246" width="16" height="16"/>
	</g>
</g>
<g>
	<g>
		<rect x="98.021" y="286" width="16" height="16"/>
	</g>
</g>
<g>
	<g>
		<rect x="98.021" y="326" width="16" height="16"/>
	</g>
</g>
<g>
	<g>
		<rect x="98.021" y="366" width="16" height="16"/>
	</g>
</g>
<g>
	<g>
		<rect x="98.021" y="406" width="16" height="16"/>
	</g>
</g>
<g>
	<g>
		<rect x="138.021" y="246" width="16" height="16"/>
	</g>
</g>
<g>
	<g>
		<rect x="138.021" y="286" width="16" height="16"/>
	</g>
</g>
<g>
	<g>
		<rect x="138.021" y="326" width="16" height="16"/>
	</g>
</g>
<g>
	<g>
		<rect x="138.021" y="366" width="16" height="16"/>
	</g>
</g>
<g>
	<g>
		<rect x="138.021" y="406" width="16" height="16"/>
	</g>
</g>
<g>
	<g>
		<rect x="178.021" y="246" width="16" height="16"/>
	</g>
</g>
<g>
	<g>
		<rect x="178.021" y="286" width="16" height="16"/>
	</g>
</g>
<g>
	<g>
		<rect x="178.021" y="326" width="16" height="16"/>
	</g>
</g>
<g>
	<g>
		<rect x="178.021" y="366" width="16" height="16"/>
	</g>
</g>
<g>
	<g>
		<rect x="178.021" y="406" width="16" height="16"/>
	</g>
</g>
<g>
	<g>
		<rect x="218.021" y="246" width="16" height="16"/>
	</g>
</g>
<g>
	<g>
		<rect x="218.021" y="286" width="16" height="16"/>
	</g>
</g>
<g>
	<g>
		<rect x="218.021" y="326" width="16" height="16"/>
	</g>
</g>
<g>
	<g>
		<rect x="218.021" y="366" width="16" height="16"/>
	</g>
</g>
<g>
	<g>
		<rect x="218.021" y="406" width="16" height="16"/>
	</g>
</g>
<g>
	<g>
		<path d="M300.021,232v-16h-10.192c0.361-2.357-0.369-4.75-1.984-6.504l-16-16.984c-2.963-3.16-7.903-3.387-11.144-0.512
			l-12.496,11.128l-11.632-10.976c-3.082-2.906-7.894-2.906-10.976,0l-11.504,10.84l-11.504-10.832
			c-3.081-2.901-7.887-2.901-10.968,0l-11.512,10.848l-11.512-10.848c-3.081-2.901-7.887-2.901-10.968,0l-11.512,10.848
			l-11.512-10.848c-3.082-2.906-7.894-2.906-10.976,0l-11.48,10.832l-11.504-10.84c-3.081-2.901-7.887-2.901-10.968,0L78.149,203
			l-11.536-10.848c-3.08-2.896-7.88-2.896-10.96,0L43.949,203.2L31.325,192c-3.168-2.803-7.97-2.656-10.96,0.336l-16,16
			c-3.009,2.991-3.16,7.811-0.344,10.984l11.128,12.496L4.197,243.448c-2.906,3.082-2.906,7.894,0,10.976l10.832,11.512
			L4.197,277.432c-2.901,3.081-2.901,7.887,0,10.968l10.832,11.512L4.197,311.424c-2.901,3.081-2.901,7.887,0,10.968l10.84,11.512
			l-10.84,11.52c-2.901,3.081-2.901,7.887,0,10.968l10.832,11.48L4.197,379.384c-2.901,3.081-2.901,7.887,0,10.968l10.848,11.52
			L4.189,413.416c-2.891,3.078-2.891,7.874,0,10.952l10.856,11.544L4.189,447.48c-2.954,3.149-2.876,8.074,0.176,11.128
			l17.048,17.048c3.054,3.052,7.979,3.13,11.128,0.176l11.568-10.856l11.544,10.856c3.08,2.896,7.88,2.896,10.96,0l11.536-10.848
			l11.528,10.848c3.081,2.901,7.887,2.901,10.968,0l11.504-10.84l11.48,10.832c3.082,2.906,7.894,2.906,10.976,0l11.512-10.848
			l11.504,10.856c3.081,2.901,7.887,2.901,10.968,0l11.512-10.848l11.512,10.848c3.081,2.901,7.887,2.901,10.968,0L214.085,465
			l11.536,10.832c3.082,2.906,7.894,2.906,10.976,0l11.632-10.976L260.701,476c3.238,2.884,8.183,2.664,11.152-0.496l16-17.048
			c2.891-3.078,2.891-7.874,0-10.952l-10.856-11.568l10.856-11.544c2.891-3.078,2.891-7.873,0-10.952l-10.848-11.544l10.848-11.52
			c2.901-3.081,2.901-7.887,0-10.968l-10.832-11.512l10.832-11.48c2.901-3.081,2.901-7.887,0-10.968l-10.84-11.52l10.832-11.528
			c2.901-3.081,2.901-7.887,0-10.968l-10.832-11.512l10.832-11.512c2.901-3.081,2.901-7.887,0-10.968l-10.832-11.496l10.832-11.544
			c2.906-3.082,2.906-7.894,0-10.976L277.013,232l7.008-7.48V232H300.021z M265.525,458.808L253.373,448
			c-3.097-2.759-7.789-2.693-10.808,0.152l-11.488,10.832l-11.504-10.84c-3.081-2.901-7.887-2.901-10.968,0l-11.504,10.832
			l-11.48-10.808c-3.081-2.901-7.887-2.901-10.968,0l-11.504,10.848l-11.512-10.848c-3.081-2.901-7.887-2.901-10.968,0
			l-11.512,10.84l-11.536-10.832c-3.081-2.901-7.887-2.901-10.968,0l-11.512,10.848l-11.528-10.848c-3.08-2.896-7.88-2.896-10.96,0
			l-11.536,10.848l-11.496-10.856c-3.08-2.896-7.88-2.896-10.96,0l-11.44,10.688l-6.088-6.08l10.696-11.392
			c2.891-3.078,2.891-7.873,0-10.952l-10.824-11.544l10.848-11.536c2.896-3.08,2.896-7.88,0-10.96l-10.848-11.528l10.84-11.504
			c2.901-3.081,2.901-7.887,0-10.968l-10.832-11.496l10.832-11.504c2.901-3.081,2.901-7.887,0-10.968l-10.832-11.52L31.845,305.4
			c2.901-3.081,2.901-7.887,0-10.968l-10.832-11.52l10.832-11.488c2.901-3.081,2.901-7.887,0-10.968l-10.832-11.512l10.832-11.48
			c2.857-3.013,2.933-7.711,0.176-10.816l-11-12.328l5.336-5.344L38.813,220c3.096,2.742,7.771,2.673,10.784-0.16l11.536-10.848
			l11.536,10.848c3.08,2.896,7.88,2.896,10.96,0l11.528-10.848l11.512,10.848c3.081,2.901,7.887,2.901,10.968,0l11.488-10.832
			l11.512,10.84c3.081,2.901,7.887,2.901,10.968,0L163.117,209l11.504,10.848c3.081,2.901,7.887,2.901,10.968,0l11.512-10.84
			l11.504,10.832c3.081,2.901,7.887,2.901,10.968,0L231.077,209l11.488,10.832c3.018,2.845,7.711,2.911,10.808,0.152l12.16-10.824
			l5.496,5.824l-10.832,11.512c-2.906,3.082-2.906,7.894,0,10.976l10.832,11.48l-10.832,11.512c-2.901,3.081-2.901,7.887,0,10.968
			l10.832,11.488l-10.832,11.48c-2.901,3.081-2.901,7.887,0,10.968l10.832,11.504l-10.832,11.52c-2.901,3.081-2.901,7.887,0,10.968
			l10.832,11.504L260.197,362.4c-2.901,3.081-2.901,7.887,0,10.968l10.84,11.504L260.189,396.4c-2.896,3.08-2.896,7.88,0,10.96
			l10.848,11.536L260.189,430.4c-2.891,3.078-2.891,7.874,0,10.952l10.856,11.568L265.525,458.808z"/>
	</g>
</g>
<g>
	<g>
		<path d="M476.021,148c-0.462-5.743-2.651-11.212-6.28-15.688c-1.46-1.88-2.615-3.978-3.424-6.216
			c0.057-2.48,0.52-4.933,1.368-7.264c2.059-5.281,2.453-11.065,1.128-16.576c-2.209-5.294-5.968-9.795-10.784-12.912
			c-1.999-1.348-3.769-3.009-5.24-4.92c-0.701-2.347-1.017-4.792-0.936-7.24c0.292-5.684-1.135-11.324-4.096-16.184
			c-3.711-4.319-8.637-7.419-14.136-8.896c-2.338-0.675-4.553-1.72-6.56-3.096c-1.379-2.005-2.425-4.221-3.096-6.56
			c-1.47-5.516-4.571-10.459-8.896-14.184c-4.86-2.961-10.5-4.388-16.184-4.096c-2.451,0.081-4.898-0.235-7.248-0.936
			c-1.906-1.474-3.564-3.243-4.912-5.24c-3.128-4.823-7.644-8.586-12.952-10.792c-5.517-1.322-11.306-0.925-16.592,1.136
			c-2.336,0.819-4.782,1.28-7.256,1.368c-2.239-0.811-4.337-1.969-6.216-3.432c-4.478-3.623-9.946-5.809-15.688-6.272
			c-5.745,0.465-11.216,2.654-15.696,6.28c-1.872,1.463-3.965,2.619-6.2,3.424c-2.481-0.042-4.936-0.502-7.264-1.36
			c-5.281-2.067-11.069-2.466-16.584-1.144c-5.296,2.208-9.8,5.968-12.92,10.784c-1.343,1.998-2.999,3.767-4.904,5.24
			c-2.352,0.701-4.803,1.017-7.256,0.936c-5.68-0.294-11.317,1.13-16.176,4.088c-4.325,3.727-7.427,8.669-8.904,14.184
			c-0.669,2.339-1.712,4.554-3.088,6.56c-2.004,1.375-4.216,2.417-6.552,3.088c-5.516,1.473-10.46,4.576-14.184,8.904
			c-2.967,4.855-4.397,10.494-4.104,16.176c0.084,2.456-0.232,4.909-0.936,7.264c-1.474,1.906-3.243,3.564-5.24,4.912
			c-4.816,3.119-8.577,7.619-10.792,12.912c-1.325,5.514-0.931,11.301,1.128,16.584c0.849,2.331,1.311,4.784,1.368,7.264
			c-0.809,2.238-1.964,4.336-3.424,6.216c-3.626,4.477-5.812,9.946-6.272,15.688c0.462,5.743,2.651,11.212,6.28,15.688
			c1.462,1.882,2.617,3.982,3.424,6.224c-0.058,2.474-0.518,4.921-1.36,7.248l-0.224,0.8l15.616,3.576
			c1.626-4.513,2.23-9.33,1.768-14.104c-1.025-4.602-3.055-8.921-5.944-12.648c-1.622-2.005-2.832-4.31-3.56-6.784
			c0.729-2.471,1.939-4.774,3.56-6.776c2.889-3.727,4.919-8.046,5.944-12.648c0.455-4.777-0.151-9.596-1.776-14.112
			c-0.878-2.326-1.318-4.794-1.296-7.28c0.432-1.336,3.32-3.6,5.424-5.248c3.909-2.668,7.186-6.161,9.6-10.232
			c1.9-4.385,2.813-9.135,2.672-13.912c-0.117-2.505,0.239-5.01,1.048-7.384c2.02-1.513,4.308-2.629,6.744-3.288
			c4.573-1.333,8.796-3.657,12.368-6.808c3.153-3.574,5.477-7.8,6.808-12.376c0.664-2.433,1.776-4.72,3.28-6.744
			c2.376-0.798,4.88-1.148,7.384-1.032c4.777,0.141,9.527-0.771,13.912-2.672c4.073-2.411,7.566-5.689,10.232-9.6
			c1.648-2.104,3.912-4.992,5.256-5.424c2.484-0.028,4.951,0.412,7.272,1.296c4.514,1.644,9.34,2.251,14.12,1.776
			c4.602-1.021,8.919-3.051,12.64-5.944c2.01-1.635,4.324-2.856,6.808-3.592c2.47,0.731,4.773,1.94,6.776,3.56
			c3.725,2.894,8.044,4.927,12.648,5.952c4.778,0.442,9.595-0.167,14.112-1.784c2.325-0.864,4.784-1.314,7.264-1.328
			c1.336,0.432,3.6,3.328,5.256,5.432c2.666,3.911,6.159,7.189,10.232,9.6c4.382,1.902,9.129,2.814,13.904,2.672
			c2.505-0.118,5.009,0.234,7.384,1.04c1.51,2.022,2.625,4.31,3.288,6.744c1.326,4.576,3.648,8.803,6.8,12.376
			c3.577,3.148,7.802,5.472,12.376,6.808c2.436,0.659,4.724,1.775,6.744,3.288c0.807,2.374,1.159,4.879,1.04,7.384
			c-0.141,4.775,0.771,9.522,2.672,13.904c2.414,4.071,5.691,7.564,9.6,10.232c2.104,1.648,4.992,3.912,5.432,5.256
			c0.014,2.481-0.428,4.943-1.304,7.264c-1.625,4.518-2.231,9.34-1.776,14.12c1.025,4.602,3.055,8.921,5.944,12.648
			c1.645,2.015,2.871,4.338,3.608,6.832c-0.729,2.471-1.939,4.774-3.56,6.776c-2.889,3.727-4.919,8.046-5.944,12.648
			c-0.456,4.777,0.151,9.596,1.776,14.112c0.878,2.326,1.318,4.794,1.296,7.28c-0.432,1.336-3.32,3.6-5.424,5.248
			c-3.909,2.668-7.186,6.161-9.6,10.232c-1.9,4.385-2.813,9.135-2.672,13.912c0.117,2.505-0.239,5.01-1.048,7.384
			c-2.02,1.513-4.308,2.629-6.744,3.288c-4.573,1.333-8.796,3.657-12.368,6.808c-3.153,3.574-5.477,7.8-6.808,12.376
			c-0.664,2.433-1.776,4.72-3.28,6.744c-2.376,0.798-4.88,1.148-7.384,1.032c-9.752-0.921-19.158,3.873-24.144,12.304
			c-1.648,2.104-3.912,4.992-5.256,5.424c-2.484,0.032-4.952-0.408-7.272-1.296c-4.516-1.636-9.34-2.243-14.12-1.776
			c-4.602,1.021-8.919,3.051-12.64,5.944c-2.013,1.623-4.326,2.833-6.808,3.56c-2.47-0.731-4.773-1.94-6.776-3.56
			c-3.723-2.892-8.039-4.925-12.64-5.952c-5.005-0.437-10.044,0.235-14.76,1.968l2.176,7.696l2.84,7.504
			c2.336-0.817,4.782-1.278,7.256-1.368c2.239,0.811,4.337,1.969,6.216,3.432c4.477,3.626,9.945,5.815,15.688,6.28
			c5.745-0.465,11.216-2.654,15.696-6.28c1.872-1.463,3.965-2.619,6.2-3.424c2.481,0.041,4.937,0.501,7.264,1.36
			c5.283,2.061,11.07,2.458,16.584,1.136c5.296-2.208,9.8-5.968,12.92-10.784c1.343-1.998,2.999-3.767,4.904-5.24
			c2.352-0.701,4.803-1.017,7.256-0.936c5.68,0.294,11.317-1.13,16.176-4.088c4.318-3.716,7.42-8.644,8.904-14.144
			c0.669-2.339,1.712-4.554,3.088-6.56c2.004-1.375,4.216-2.417,6.552-3.088c5.516-1.473,10.46-4.576,14.184-8.904
			c2.967-4.855,4.397-10.494,4.104-16.176c-0.084-2.456,0.232-4.909,0.936-7.264c1.474-1.906,3.243-3.564,5.24-4.912
			c4.821-3.127,8.583-7.639,10.792-12.944c1.325-5.514,0.931-11.301-1.128-16.584c-0.848-2.331-1.311-4.784-1.368-7.264
			c0.809-2.238,1.964-4.336,3.424-6.216C473.375,159.211,475.562,153.742,476.021,148z"/>
	</g>
</g>
<g>
</g>
<g>
</g>
<g>
</g>
<g>
</g>
<g>
</g>
<g>
</g>
<g>
</g>
<g>
</g>
<g>
</g>
<g>
</g>
<g>
</g>
<g>
</g>
<g>
</g>
<g>
</g>
<g>
</g>
</svg>
