<svg viewBox="-24 0 512 512.00179" xmlns="http://www.w3.org/2000/svg"><path d="m279.503906 168.355469c-3.910156 3.90625-3.910156 10.238281 0 14.144531 3.898438 3.898438 10.238282 3.898438 14.136719 0 3.910156-3.90625 3.910156-10.238281 0-14.144531-3.898437-3.902344-10.238281-3.902344-14.136719 0zm0 0"/><path d="m435.03125 83.519531-22.035156-22.035156c-10.738282-10.738281-22.378906-20.777344-34.601563-29.839844-.105469-.082031-.214843-.15625-.324219-.234375-.019531-.015625-.035156-.03125-.054687-.042968-14.488281-10.722657-30.046875-20.257813-46.253906-28.332032-11.3125-5.632812-25.046875-3.289062-34.222657 5.890625l-.6875.699219c-8.707031 8.707031-14.773437 20.578125-18.039062 35.292969-1.875 8.457031-5.949219 16.308593-11.78125 22.707031-.03125.035156-.066406.070312-.09375.105469-.445312.5-.960938 1.042969-1.570312 1.652343-3.425782 3.429688-7.304688 6.324219-11.519532 8.613282-.011718.007812-.019531.011718-.03125.019531-.007812.003906-.015625.007813-.027344.011719-14.242187 7.710937-31.417968 8.019531-45.910156.851562l-1.117187-.550781c-.003907 0-.003907 0-.003907 0l-.136718-.066406c-.035156-.019531-.074219-.039063-.113282-.054688-4.355468-2.113281-9.601562-4.429687-15.476562-5.609375l-4.710938-.9375c-3.738281-.746094-7.542968-1.125-11.3125-1.125-15.1875 0-30.0625 6.167969-40.808593 16.910156-8.089844 8.078126-13.550781 18.277344-15.796875 29.5l-27.226563 136.113282c-2.183593 10.910156-6.019531 23.367187-11.402343 37.011718-14.492188 36.71875-37.375 75.886719-57.5625 110.441407-4.996094 8.554687-9.714844 16.632812-14.039063 24.226562-13.65625 23.988281-9.910156 54.652344 9.109375 74.625.347656.386719.710938.75 1.085938 1.128907 8.25 8.246093 19.425781 11.507812 31.960937 11.507812 22.464844 0 49.289063-10.488281 71.390625-21.601562 43.0625-21.648438 90.265625-56.570313 129.5-95.804688 47.710938-47.703125 83.074219-102.097656 94.59375-145.496094 1.136719-4.257812 4.9375-7.117187 9.46875-7.117187 13.074219 0 25.363281-5.085938 34.601562-14.324219l59.285157-59.296875c9.449219-9.441406 14.652343-21.992187 14.652343-35.347656 0-13.351563-5.203124-25.90625-14.648437-35.351563zm-21.207031 7.070313-117.238281 117.234375c-5.953126 5.957031-10.238282 13.640625-12.730469 22.824219-4.359375 15.980468-12.574219 34.273437-23.871094 53.265624-5.71875-2.421874-10.753906-6.21875-14.792969-11.210937-7.078125-8.742187-9.605468-21.332031-6.9375-34.546875l29.214844-144.988281c3.152344-2 6.140625-4.261719 8.949219-6.75 9.914062 4.203125 20.6875 6.382812 31.488281 6.382812 3.621094 0 7.246094-.246093 10.839844-.742187 17.386718-2.394532 33.152344-10.234375 45.589844-22.675782 4.414062-4.410156 8.234374-9.257812 11.460937-14.464843 8.054687 6.496093 15.785156 13.425781 23.0625 20.703125zm-115.492188-41.34375c2.460938-11.089844 6.601563-19.425782 12.707031-25.53125l.6875-.699219c2.996094-2.992187 7.566407-3.851563 11.117188-2.078125 12.808594 6.378906 25.171875 13.738281 36.878906 21.914062-2.601562 4.492188-5.777344 8.648438-9.523437 12.394532-15.847657 15.847656-39.308594 21.292968-60.207031 14.867187 3.875-6.4375 6.707031-13.488281 8.339843-20.867187zm-53.113281 53.113281-26.566406 131.84375c-3.851563 19.070313.15625 37.6875 10.996094 51.078125 5.414062 6.691406 12.023437 11.972656 19.492187 15.65625-10.847656 16.007812-23.617187 32.167969-37.734375 47.765625-4.71875-20.910156-14.367188-39.011719-28.457031-53.101563-4.617188-4.605468-9.554688-8.84375-14.738281-12.683593.921874-1.871094 1.734374-3.804688 2.425781-5.796875 5.640625-16.3125 10.101562-32.597656 13.269531-48.417969l25.554688-127.757813c11.625 3.566407 23.964843 4.03125 35.757812 1.414063zm-96.890625-.769531c7.03125-7.027344 16.753906-11.058594 26.675781-11.058594 2.460938 0 4.953125.246094 7.402344.734375l4.699219.9375c1.179687.234375 2.351562.570313 3.515625.960937l-26.320313 131.613282c-2.992187 14.933594-7.21875 30.347656-12.5625 45.796875-1.128906 3.257812-2.785156 6.265625-4.921875 8.945312-5.347656 6.710938-13.296875 10.90625-21.816406 11.503907-11.773438.824218-19.070312-.230469-23.574219-1.710938 4.234375-11.652344 7.386719-22.503906 9.355469-32.335938l3.640625-18.195312 20.972656 3.695312c.585938.105469 1.171875.152344 1.746094.152344 4.761719 0 8.980469-3.414062 9.835937-8.265625.957032-5.4375-2.675781-10.621093-8.113281-11.582031l-20.519531-3.613281 4.753906-23.765625 22.777344 4.011718c.585938.105469 1.167969.152344 1.746094.152344 4.761718 0 8.976562-3.414062 9.835937-8.265625.957031-5.433593-2.675781-10.621093-8.113281-11.582031l-22.324219-3.933594 4.753907-23.765625 22.765624 4.011719c.589844.105469 1.171876.152344 1.75.152344 4.761719 0 8.980469-3.410156 9.835938-8.261719.957031-5.4375-2.675781-10.625-8.113281-11.582031l-22.3125-3.933594 2.308593-11.542969c1.46875-7.332031 5.035157-13.996093 10.320313-19.273437zm-121.6875 377.410156c-8.355469-13.222656-9.023437-30.445312-1.097656-44.371094 4.269531-7.496094 8.960937-15.527344 13.929687-24.03125 17.753906-30.390625 39.429688-67.527344 54.542969-102.6875 6.324219 2.269532 14.015625 3.402344 23.191406 3.402344 2.914063 0 5.980469-.113281 9.199219-.339844 10.953125-.769531 21.320312-5.140625 29.546875-12.246094 4.527344 3.320313 8.835937 7.003907 12.859375 11.019532 14.289062 14.289062 22.984375 33.964844 25.300781 57.117187-55.09375 54.917969-129.433593 104.421875-167.472656 112.136719zm408.390625-324.785156-59.289062 59.300781c-5.382813 5.382813-12.84375 8.46875-20.464844 8.46875-13.503906 0-25.339844 9.03125-28.789063 21.96875-10.660156 40.15625-44.082031 91.179687-89.410156 136.5-68.171875 68.171875-146.425781 110.347656-185.03125 111.546875 47.292969-18.628906 111.863281-66.660156 156.765625-111.550781l.160156-.160157c.902344-.902343 1.796875-1.800781 2.605469-2.636718 23.933594-24.296875 45.113281-50.71875 61.261719-76.425782.03125-.046874.0625-.097656.09375-.144531 14.394531-22.960937 24.839844-45.492187 30.214844-65.183593 1.570312-5.785157 4.121093-10.476563 7.578124-13.933594l117.234376-117.234375 7.070312 7.066406c5.667969 5.667969 8.789062 13.203125 8.789062 21.214844.003907 8.007812-3.117187 15.539062-8.789062 21.203125zm0 0"/><path d="m336.058594 111.804688-28.273438 28.273437c-3.902344 3.90625-3.902344 10.234375 0 14.140625 1.953125 1.953125 4.511719 2.929688 7.070313 2.929688 2.558593 0 5.117187-.976563 7.070312-2.929688l28.273438-28.273438c3.90625-3.90625 3.90625-10.234374 0-14.140624-3.90625-3.902344-10.234375-3.902344-14.140625 0zm0 0"/></svg>