<?xml version="1.0" encoding="iso-8859-1"?>
<!-- Generator: Adobe Illustrator 19.0.0, SVG Export Plug-In . SVG Version: 6.00 Build 0)  -->
<svg version="1.1" id="Capa_1" xmlns="http://www.w3.org/2000/svg" xmlns:xlink="http://www.w3.org/1999/xlink" x="0px" y="0px"
	 viewBox="0 0 480 480" style="enable-background:new 0 0 480 480;" xml:space="preserve">
<g>
	<g>
		<path d="M360,112H120C53.757,112.075,0.075,165.757,0,232v8c0.026,22.08,17.92,39.974,40,40h7.896l-0.616,47.48
			c-0.287,22.09,17.387,40.229,39.477,40.517c0.174,0.002,0.349,0.003,0.523,0.003H400c22.08-0.026,39.974-17.92,40-40v-48
			c22.08-0.026,39.974-17.92,40-40v-8C479.925,165.757,426.243,112.075,360,112z M424,328c0,13.255-10.745,24-24,24H87.272
			c-13.255,0.001-24.001-10.743-24.002-23.998c0-0.105,0.001-0.209,0.002-0.314l0.624-48c18.953-1.398,36.202-11.457,46.752-27.264
			c8.503-12.779,22.843-20.447,38.192-20.424H323.2c15.72,0,38.032,8.208,46.184,20.44c11.454,17.224,30.771,27.57,51.456,27.56H424
			V328z M464,240c0,13.255-10.745,24-24,24h-19.2c-15.349,0.017-29.686-7.658-38.184-20.44C370.728,225.664,343.096,216,323.2,216
			H148.84c-20.699-0.023-40.034,10.324-51.496,27.56C88.854,256.33,74.535,264.003,59.2,264H40c-13.255,0-24-10.745-24-24v-8
			c0.085-48.017,33.003-89.746,79.68-101.008l66.664,66.664l11.312-11.312l-58.12-58.12c1.496-0.064,2.96-0.224,4.464-0.224h28.688
			l69.656,69.656l11.312-11.312L171.312,128h33.376l69.656,69.656l11.312-11.312L227.312,128h33.376l69.656,69.656l11.312-11.312
			L283.312,128h33.376l69.656,69.656l11.312-11.312L339.312,128H360c57.41,0.066,103.934,46.59,104,104V240z"/>
	</g>
</g>
<g>
	<g>
		
			<rect x="377.691" y="300.103" transform="matrix(0.5549 -0.8319 0.8319 0.5549 -81.7913 463.3285)" width="28.852" height="16.002"/>
	</g>
</g>
<g>
	<g>
		
			<rect x="187.505" y="264.017" transform="matrix(0.2428 -0.9701 0.9701 0.2428 -109.4035 403.8703)" width="32.984" height="15.992"/>
	</g>
</g>
<g>
	<g>
		
			<rect x="275.512" y="304.009" transform="matrix(0.2428 -0.9701 0.9701 0.2428 -81.5573 519.5274)" width="32.984" height="15.992"/>
	</g>
</g>
<g>
	<g>
		<rect x="87.996" y="301.6" transform="matrix(0.8321 -0.5547 0.5547 0.8321 -159.1757 106.3251)" width="16" height="28.848"/>
	</g>
</g>
<g>
	<g>
		<rect x="123.023" y="291.995" transform="matrix(0.7071 -0.7071 0.7071 0.7071 -171.125 186.858)" width="33.944" height="16"/>
	</g>
</g>
<g>
	<g>
		<rect x="291.035" y="251.991" transform="matrix(0.7071 -0.7071 0.7071 0.7071 -93.628 293.9432)" width="33.944" height="16"/>
	</g>
</g>
<g>
	<g>
		
			<rect x="148.055" y="241.684" transform="matrix(0.5549 -0.8319 0.8319 0.5549 -143.6007 243.8088)" width="16.002" height="28.852"/>
	</g>
</g>
<g>
	<g>
		<rect x="346.08" y="266.72" transform="matrix(0.5549 -0.8319 0.8319 0.5549 -76.2941 419.688)" width="16.002" height="28.852"/>
	</g>
</g>
<g>
	<g>
		<rect x="232.001" y="286.1" transform="matrix(0.8944 -0.4472 0.4472 0.8944 -110.6089 139.4221)" width="16" height="35.776"/>
	</g>
</g>
<g>
	<g>
		
			<rect x="332.002" y="295.506" transform="matrix(0.9701 -0.2425 0.2425 0.9701 -65.5181 91.7753)" width="15.992" height="32.984"/>
	</g>
</g>
<g>
	<g>
		<rect x="184" y="299.485" transform="matrix(0.2425 -0.9701 0.9701 0.2425 -161.1087 425.6117)" width="16" height="32.984"/>
	</g>
</g>
<g>
	<g>
		<rect x="240" y="246.089" transform="matrix(0.4472 -0.8944 0.8944 0.4472 -99.0167 367.7419)" width="16" height="35.776"/>
	</g>
</g>
<g>
</g>
<g>
</g>
<g>
</g>
<g>
</g>
<g>
</g>
<g>
</g>
<g>
</g>
<g>
</g>
<g>
</g>
<g>
</g>
<g>
</g>
<g>
</g>
<g>
</g>
<g>
</g>
<g>
</g>
</svg>
