<?xml version="1.0" encoding="iso-8859-1"?>
<!-- Generator: Adobe Illustrator 19.0.0, SVG Export Plug-In . SVG Version: 6.00 Build 0)  -->
<svg version="1.1" id="Capa_1" xmlns="http://www.w3.org/2000/svg" xmlns:xlink="http://www.w3.org/1999/xlink" x="0px" y="0px"
	 viewBox="0 0 492.968 492.968" style="enable-background:new 0 0 492.968 492.968;" xml:space="preserve">
<g>
	<g>
		<path d="M445.585,315.496l-21.952-209.864l17.544-8.8c3.948-1.984,5.539-6.793,3.554-10.741c-0.146-0.291-0.31-0.572-0.49-0.843
			l-22.2-33.256L398.513,4.464c-1.345-2.722-4.116-4.448-7.152-4.456c-3.029,0.002-5.798,1.714-7.152,4.424l-5.024,10.056
			l-49.6-14.176c-4.247-1.218-8.677,1.238-9.895,5.485c-0.649,2.262-0.268,4.695,1.039,6.651l10.536,15.792l-30.888,12.336
			c-4.108,1.625-6.122,6.273-4.496,10.382c0.672,1.699,1.906,3.117,3.496,4.018l48.496,27.704l-7.368,14.744
			c-0.32,0.64-0.552,1.321-0.688,2.024l-21.208,107.68h-56l-42.744-85.496c-1.355-2.712-4.128-4.425-7.16-4.424h-78.72
			c-1.667,0-3.292,0.52-4.648,1.488l-78.64,56.16c-2.104,1.502-3.352,3.927-3.352,6.512v157.44c0.001,4.418,3.584,7.999,8.002,7.998
			c1.019,0,2.028-0.195,2.974-0.574l54.728-21.904h38.008l20.544,51.2c0.776,1.931,2.274,3.483,4.176,4.328l96.904,43.112
			l6.712,62.848c0.433,4.066,3.863,7.151,7.952,7.152h24c4.302,0.003,7.837-3.397,8-7.696l2.4-64.304l19.912-19.912l100.8-78.4
			C444.673,320.975,445.858,318.264,445.585,315.496z M321.705,49.28l24.616-9.84c4.102-1.641,6.097-6.297,4.456-10.399
			c-0.207-0.517-0.467-1.01-0.776-1.473l-3.92-5.888l35.064,10.016c3.703,1.062,7.637-0.667,9.36-4.112l0.8-1.6l10.912,22.024
			h-32.072c-3.028,0-5.796,1.709-7.152,4.416l-7.952,15.904L321.705,49.28z M331.473,388.728c-0.261,0.206-0.509,0.428-0.744,0.664
			l-22.48,22.48c-1.425,1.426-2.26,3.337-2.336,5.352l-2.272,59.744h-9.104l-6.4-60.296c-0.305-2.837-2.097-5.297-4.704-6.456
			l-98.192-43.648l-21.352-53.232c-1.219-3.031-4.157-5.017-7.424-5.016h-44.96c-1.017-0.002-2.025,0.194-2.968,0.576
			l-45.192,18.088V185.48l73.2-52.272h71.2l42.744,85.496c1.355,2.712,4.128,4.425,7.16,4.424h67.52
			c3.822-0.001,7.11-2.705,7.848-6.456l22.272-113.104l19.776-39.56h35.744l15.096,22.56l-14.4,7.2
			c-2.981,1.495-4.722,4.684-4.368,8l22.024,210.944L331.473,388.728z"/>
	</g>
</g>
<g>
	<g>
		<path d="M327.353,245.137c-0.364-0.082-0.732-0.139-1.104-0.169l-192-16c-4.403-0.37-8.272,2.899-8.642,7.302
			c-0.123,1.465,0.16,2.935,0.818,4.25l24,48c1.349,2.722,4.122,4.445,7.16,4.448h35.472l21.672,36.12
			c1.446,2.407,4.048,3.879,6.856,3.88h88c3.749-0.001,6.995-2.604,7.808-6.264l16-72
			C334.366,250.394,331.662,246.111,327.353,245.137z M303.185,316.968h-77.072l-21.672-36.12c-1.446-2.407-4.048-3.879-6.856-3.88
			h-35.056l-15.424-30.84l168.68,14.04L303.185,316.968z"/>
	</g>
</g>
<g>
</g>
<g>
</g>
<g>
</g>
<g>
</g>
<g>
</g>
<g>
</g>
<g>
</g>
<g>
</g>
<g>
</g>
<g>
</g>
<g>
</g>
<g>
</g>
<g>
</g>
<g>
</g>
<g>
</g>
</svg>
