<?xml version="1.0" encoding="iso-8859-1"?>
<!-- Generator: Adobe Illustrator 19.0.0, SVG Export Plug-In . SVG Version: 6.00 Build 0)  -->
<svg version="1.1" id="Capa_1" xmlns="http://www.w3.org/2000/svg" xmlns:xlink="http://www.w3.org/1999/xlink" x="0px" y="0px"
	 viewBox="0 0 476.24 476.24" style="enable-background:new 0 0 476.24 476.24;" xml:space="preserve">
<g>
	<g>
		<path d="M424.224,180.48c0.136-0.216,0.272-0.408,0.416-0.624C458.375,128.897,476.32,69.114,476.224,8c0-4.418-3.582-8-8-8
			c-58.762-0.038-116.327,16.607-166,48l-51.912-27.696c-3.899-2.079-8.744-0.604-10.823,3.295c-0.235,0.44-0.428,0.901-0.577,1.377
			l-40,128l0.736,0.224c-4.68,7.936-8.64,15.456-12.16,22.8h-55.264c-4.418,0.001-7.999,3.583-7.998,8.002
			c0,2.121,0.843,4.154,2.342,5.654l40.568,40.552c-6.503,24.17-10.078,49.033-10.648,74.056
			c-55.356,1.273-109.371,17.29-156.472,46.4l8.416,13.6c44.453-27.522,95.415-42.75,147.68-44.128
			c-0.654,25.13-4.517,50.074-11.496,74.224c-7.46,25.861-18.437,50.575-32.624,73.448l13.6,8.432
			c14.959-24.113,26.534-50.168,34.4-77.432c7.372-25.688,11.406-52.218,12-78.936c27.911-0.659,55.606-5.077,82.336-13.136
			l31.496,42.064c1.511,2.014,3.882,3.2,6.4,3.2c0.859-0.002,1.712-0.14,2.528-0.408c3.268-1.089,5.473-4.147,5.472-7.592v-55.2
			c31.368-15.202,59.969-35.55,84.616-60.2c10.561-10.576,20.359-21.887,29.32-33.848L422.096,208h-1.872v16h16
			c4.418-0.003,7.997-3.588,7.994-8.006c-0.001-1.446-0.394-2.865-1.138-4.106L424.224,180.48z M251.304,38.968l35.792,19.096
			c-21.889,15.647-41.675,34.043-58.872,54.736L251.304,38.968z M151.536,192H180.4c-2.864,6.784-5.501,13.768-7.912,20.952
			L151.536,192z M284.224,320l-13.96-18.64c4.712-1.696,9.352-3.488,13.96-5.4V320z M373.528,217.304
			c-24.532,24.569-53.192,44.634-84.672,59.28c-36.58,16.927-76.228,26.218-116.52,27.304c0.637-25.009,4.443-49.837,11.328-73.888
			c4.221-14.633,9.598-28.907,16.08-42.688c4.305-9.382,9.132-18.516,14.456-27.36c21.026-34.902,48.983-65.124,82.144-88.8
			c17.337,51.236,57.564,91.463,108.8,108.8C395.647,193.248,385.072,205.741,373.528,217.304z M414.376,166L414.376,166
			c-49.845-15.302-88.863-54.317-104.168-104.16c44.916-28.512,96.721-44.315,149.904-45.728
			C458.696,69.291,442.89,121.09,414.376,166z"/>
	</g>
</g>
<g>
	<g>
		<path d="M131.06,338.223c-0.66-0.082-1.328-0.082-1.988,0.001c-25.661,3.205-50.75,9.969-74.544,20.096l6.264,14.72
			c19.176-8.161,39.256-14.008,59.816-17.416c-3.415,20.554-9.264,40.629-17.424,59.8l14.72,6.264
			c10.126-23.793,16.892-48.879,20.104-74.536C138.555,342.768,135.444,338.77,131.06,338.223z"/>
	</g>
</g>
<g>
	<g>
		<rect x="396.224" y="48" width="16" height="16"/>
	</g>
</g>
<g>
	<g>
		<path d="M244.224,160h-16c0.026,22.08,17.92,39.974,40,40v-16C254.969,184,244.224,173.255,244.224,160z"/>
	</g>
</g>
<g>
	<g>
		<path d="M268.224,216h-16c0.026,22.08,17.92,39.974,40,40v-16C278.969,240,268.224,229.255,268.224,216z"/>
	</g>
</g>
<g>
	<g>
		<path d="M324.224,184h-16c0.026,22.08,17.92,39.974,40,40v-16C334.969,208,324.224,197.255,324.224,184z"/>
	</g>
</g>
<g>
	<g>
		<path d="M212.224,240h-16c0.026,22.08,17.92,39.974,40,40v-16C222.969,264,212.224,253.255,212.224,240z"/>
	</g>
</g>
<g>
	<g>
		<path d="M330.912,152.112L307.536,156l14.344-14.344l-11.312-11.312l-32,32c-3.124,3.125-3.123,8.19,0.002,11.314
			c1.5,1.499,3.534,2.342,5.654,2.342c0.44,0.002,0.879-0.035,1.312-0.112l48-8L330.912,152.112z"/>
	</g>
</g>
<g>
</g>
<g>
</g>
<g>
</g>
<g>
</g>
<g>
</g>
<g>
</g>
<g>
</g>
<g>
</g>
<g>
</g>
<g>
</g>
<g>
</g>
<g>
</g>
<g>
</g>
<g>
</g>
<g>
</g>
</svg>
