<?xml version="1.0" encoding="iso-8859-1"?>
<!-- Generator: Adobe Illustrator 19.0.0, SVG Export Plug-In . SVG Version: 6.00 Build 0)  -->
<svg version="1.1" id="Capa_1" xmlns="http://www.w3.org/2000/svg" xmlns:xlink="http://www.w3.org/1999/xlink" x="0px" y="0px"
	 viewBox="0 0 480.001 480.001" style="enable-background:new 0 0 480.001 480.001;" xml:space="preserve">
<g>
	<g>
		<path d="M379.14,420.425l-16-32c-1.362-2.725-4.153-4.441-7.2-4.424h-40c-3.047-0.017-5.838,1.699-7.2,4.424l-13.704,27.576
			h-21.72l-33.336-80h15.056l13.784,27.576c1.362,2.725,4.153,4.441,7.2,4.424h40c3.047,0.017,5.838-1.699,7.2-4.424l16-32
			c1.125-2.251,1.125-4.901,0-7.152l-16-32c-1.362-2.725-4.153-4.441-7.2-4.424h-40c-3.047-0.017-5.838,1.699-7.2,4.424
			l-13.784,27.576H234.78l-13.36-80h17.6l13.784,27.576c1.362,2.725,4.153,4.441,7.2,4.424h40c3.047,0.017,5.838-1.699,7.2-4.424
			l16-32c1.125-2.251,1.125-4.901,0-7.152l-16-32c-1.362-2.725-4.153-4.441-7.2-4.424h-40c-3.047-0.017-5.838,1.699-7.2,4.424
			l-13.768,27.576H219.98v-80h19.056l13.784,27.576c1.362,2.725,4.153,4.441,7.2,4.424h40c3.047,0.017,5.838-1.699,7.2-4.424l16-32
			c1.125-2.251,1.125-4.901,0-7.152l-16-32c-1.362-2.725-4.153-4.441-7.2-4.424h-40c-3.047-0.017-5.838,1.699-7.2,4.424
			l-13.784,27.576h-17.6l13.344-80h20.28l13.784,27.576c1.362,2.725,4.153,4.441,7.2,4.424h40c3.047,0.017,5.838-1.699,7.2-4.424
			l16-32c1.125-2.251,1.125-4.901,0-7.152l-16-32c-1.372-2.746-4.194-4.465-7.264-4.424h-40c-3.047-0.017-5.838,1.699-7.2,4.424
			l-13.744,27.576h-54.112L187.14,4.425c-1.355-2.712-4.128-4.425-7.16-4.424h-40c-3.032-0.001-5.805,1.712-7.16,4.424l-16,32
			c-1.125,2.251-1.125,4.901,0,7.152l16,32c1.355,2.712,4.128,4.425,7.16,4.424h40c3.032,0.001,5.805-1.712,7.16-4.424
			l13.784-27.576h17.6l-13.344,80h-20.256l-13.784-27.576c-1.355-2.712-4.128-4.425-7.16-4.424h-40
			c-3.032-0.001-5.805,1.712-7.16,4.424l-16,32c-1.125,2.251-1.125,4.901,0,7.152l16,32c1.355,2.712,4.128,4.425,7.16,4.424h40
			c3.032,0.001,5.805-1.712,7.16-4.424l13.784-27.576h19.056v80h-19.056l-13.784-27.576c-1.355-2.712-4.128-4.425-7.16-4.424h-40
			c-3.032-0.001-5.805,1.712-7.16,4.424l-16,32c-1.125,2.251-1.125,4.901,0,7.152l16,32c1.355,2.712,4.128,4.425,7.16,4.424h40
			c3.032,0.001,5.805-1.712,7.16-4.424l13.784-27.576h20.256l13.36,80h-17.6l-13.784-27.576c-1.358-2.718-4.138-4.432-7.176-4.424
			h-40c-3.032-0.001-5.805,1.712-7.16,4.424l-16,32c-1.125,2.251-1.125,4.901,0,7.152l16,32c1.355,2.712,4.128,4.425,7.16,4.424h40
			c3.032,0.001,5.805-1.712,7.16-4.424l13.784-27.576h21.72l33.336,80h-15.056l-13.784-27.576c-1.355-2.712-4.128-4.425-7.16-4.424
			h-40c-3.032-0.001-5.805,1.712-7.16,4.424l-16,32c-1.125,2.251-1.125,4.901,0,7.152l16,32c1.355,2.712,4.128,4.425,7.16,4.424h40
			c3.032,0.001,5.805-1.712,7.16-4.424l13.784-27.576h19.056v48h16v-48h19.056l13.784,27.576c1.362,2.725,4.153,4.441,7.2,4.424h40
			c3.047,0.017,5.838-1.699,7.2-4.424l16-32C380.32,425.313,380.29,422.663,379.14,420.425z M280.924,304.001h30.112l12,24l-12,24
			h-30.112l-12-24L280.924,304.001z M264.924,208.001h30.112l12,24l-12,24h-30.112l-12-24L264.924,208.001z M264.924,112.001h30.112
			l12,24l-12,24h-30.112l-12-24L264.924,112.001z M280.924,16.001h30.112l12,24l-12,24h-30.112l-12-24L280.924,16.001z
			 M175.036,64.001h-30.112l-12-24l12-24h30.112l12,24L175.036,64.001z M159.036,160.001h-30.112l-12-24l12-24h30.112l12,24
			L159.036,160.001z M159.036,256.001h-30.112l-12-24l12-24h30.112l12,24L159.036,256.001z M175.036,352.001h-30.112l-12-24l12-24
			h30.112l12,24L175.036,352.001z M215.036,448.001h-30.112l-12-24l12-24h30.112l12,24L215.036,448.001z M351.036,448.001h-30.112
			l-12-24l12-24h30.112l12,24L351.036,448.001z"/>
	</g>
</g>
<g>
</g>
<g>
</g>
<g>
</g>
<g>
</g>
<g>
</g>
<g>
</g>
<g>
</g>
<g>
</g>
<g>
</g>
<g>
</g>
<g>
</g>
<g>
</g>
<g>
</g>
<g>
</g>
<g>
</g>
</svg>
