<?xml version="1.0" encoding="iso-8859-1"?>
<!-- Generator: Adobe Illustrator 19.0.0, SVG Export Plug-In . SVG Version: 6.00 Build 0)  -->
<svg version="1.1" id="Capa_1" xmlns="http://www.w3.org/2000/svg" xmlns:xlink="http://www.w3.org/1999/xlink" x="0px" y="0px"
	 viewBox="0 0 480.024 480.024" style="enable-background:new 0 0 480.024 480.024;" xml:space="preserve">
<g>
	<g>
		<path d="M100.412,167.144c-30.437,1.009-54.329,26.439-53.44,56.88h16c-0.877-21.601,15.845-39.86,37.44-40.88
			c21.618,0.995,38.379,19.256,37.52,40.88h16C154.798,193.561,130.871,168.131,100.412,167.144z"/>
	</g>
</g>
<g>
	<g>
		<path d="M240.012,224.024c-30.911,0.04-55.96,25.089-56,56h16c0-22.091,17.909-40,40-40c22.091,0,40,17.909,40,40h16
			C295.972,249.112,270.923,224.063,240.012,224.024z"/>
	</g>
</g>
<g>
	<g>
		<path d="M479.748,200.024c-1.371-22.467-15.828-42.026-36.904-49.928c4.273-31.144-17.509-59.856-48.654-64.13
			c-0.035-0.005-0.071-0.01-0.106-0.015c-4.127-31.097-32.682-52.961-63.779-48.834c-7.971,1.058-15.627,3.796-22.461,8.034
			c-6.44-30.702-36.549-50.37-67.25-43.93c-12.561,2.635-23.859,9.445-32.054,19.323c-26.856-16.323-61.859-7.784-78.182,19.071
			c-4.694,7.722-7.48,16.451-8.13,25.465c-5.6-1.814-11.45-2.737-17.336-2.736c-31.423,0.008-56.889,25.488-56.881,56.911
			c0.001,5.238,0.726,10.45,2.153,15.489c-28.573,3.414-50.1,27.623-50.152,56.4v176.88h0.296c6.104,59.248,117.6,112,239.704,112
			c130.744,0,233.944-41.792,239.72-96h0.28v-184H479.748z M464.012,379.224c0,40.96-90.008,84.8-224,84.8
			c-124.08,0-224-55.32-224-101.12v-122.72c35.688,43.76,126.44,77.44,224,77.44c103.488,0,189.672-26.2,224-64V379.224z
			 M464.012,216.824c0,40.952-90.008,84.8-224,84.8c-124.08,0-224-55.32-224-101.12v-9.36c0.049-22.544,18.336-40.796,40.88-40.8
			c1.424,0,2.92,0.064,4.336,0.2c4.397,0.43,8.31-2.787,8.74-7.184c0.157-1.608-0.176-3.225-0.956-4.64
			c-3.314-5.99-5.036-12.73-5-19.576c0.049-22.544,18.336-40.796,40.88-40.8c3.421,0.021,6.824,0.481,10.128,1.368
			c-16.771,10.332-26.991,28.614-27.008,48.312h16c-0.01-22.555,18.266-40.848,40.822-40.858
			c22.555-0.01,40.848,18.266,40.858,40.822c0,0.012,0,0.025,0,0.037h16c0.173-31.241-25.014-56.707-56.255-56.88
			c-2.372-0.013-4.742,0.123-7.097,0.408c-0.056-0.8-0.248-1.68-0.248-2.488c0.054-22.582,18.403-40.844,40.985-40.791
			c9.593,0.023,18.872,3.418,26.215,9.591c3.38,2.845,8.427,2.412,11.272-0.968c0.269-0.319,0.512-0.659,0.728-1.016
			c11.617-19.308,36.686-25.543,55.994-13.926c12.262,7.378,19.762,20.64,19.766,34.95c0.001,1.264-0.066,2.527-0.2,3.784
			c-0.473,4.393,2.705,8.337,7.098,8.81c2.602,0.28,5.177-0.731,6.894-2.706c14.714-17.066,40.476-18.973,57.542-4.259
			c4.736,4.083,8.47,9.2,10.914,14.955c-28.245-13.403-62.007-1.372-75.411,26.873c-2.47,5.205-4.131,10.757-4.925,16.463
			c-27.121,4.304-47.055,27.739-46.952,55.2h16c-0.075-21.566,17.036-39.269,38.592-39.928c0.28,0,1.136,0,1.408-0.072
			c22.08,0.026,39.974,17.92,40,40h16c-0.049-28.116-20.92-51.844-48.8-55.48c4.437-22.092,25.943-36.405,48.035-31.968
			c19.176,3.851,32.922,20.769,32.765,40.328h16c-0.011-8.361-1.878-16.615-5.464-24.168c18.909,8.118,28.872,28.994,23.288,48.8
			c-1.203,4.251,1.268,8.673,5.519,9.876c0.164,0.047,0.33,0.088,0.497,0.124c18.73,4.111,32.096,20.672,32.16,39.848V216.824z"/>
	</g>
</g>
<g>
	<g>
		<path d="M52.62,370.736l-9.216,13.112c13.003,8.987,26.875,16.646,41.408,22.864l6.4-14.688
			C77.67,386.233,64.742,379.101,52.62,370.736z"/>
	</g>
</g>
<g>
	<g>
		<path d="M114.596,401.096l-5.168,15.136c42.102,14.023,86.209,21.087,130.584,20.912v-16
			C197.395,421.319,155.034,414.548,114.596,401.096z"/>
	</g>
</g>
<g>
	<g>
		<rect x="344.012" y="192.024" width="16" height="16"/>
	</g>
</g>
<g>
</g>
<g>
</g>
<g>
</g>
<g>
</g>
<g>
</g>
<g>
</g>
<g>
</g>
<g>
</g>
<g>
</g>
<g>
</g>
<g>
</g>
<g>
</g>
<g>
</g>
<g>
</g>
<g>
</g>
</svg>
