<?xml version="1.0" encoding="iso-8859-1"?>
<!-- Generator: Adobe Illustrator 19.0.0, SVG Export Plug-In . SVG Version: 6.00 Build 0)  -->
<svg version="1.1" id="Capa_1" xmlns="http://www.w3.org/2000/svg" xmlns:xlink="http://www.w3.org/1999/xlink" x="0px" y="0px"
	 viewBox="0 0 440 440" style="enable-background:new 0 0 440 440;" xml:space="preserve">
<g>
	<g>
		<path d="M440,199.43c0-32.664-20.672-63.512-58.2-87.056c-6-34.232-24.312-68.928-53.208-72.56
			c-19.432-2.48-40.52,10.76-57.152,35.256c-12.127-1.718-24.336-2.805-36.576-3.256c-20.904-26.4-52.88-47.824-79.608-37.872
			c-16.904,6.4-28.8,24.8-33.256,50.824C46.648,106.382,0,149.982,0,199.43c0.012,3.46,0.279,6.915,0.8,10.336l-0.416,0.136
			l0.848,2.68C2.467,219.976,4.745,227.157,8,233.91l40.368,127.92c0.62,1.962,1.973,3.609,3.776,4.6
			c102.022,56.15,225.69,56.15,327.712,0c1.687-0.928,2.982-2.434,3.648-4.24l44.536-120.864c5.464-9.093,9.164-19.135,10.904-29.6
			l0.584-1.6l-0.32-0.112C439.736,206.511,440.001,202.973,440,199.43z M373.896,159.758c4.475,0.516,8.744,2.168,12.4,4.8
			c21.992,16.552,12.064,70.6-11.2,101.6c-3.488,4.781-7.586,9.084-12.192,12.8c-5.184,2.832-10.208,5.312-15.328,7.56
			c-12.8,3.024-27.2-1.376-42.88-13.136c-28-20.992-32.176-43.76-12.8-69.6c1.096-1.464,2.208-2.864,3.472-4.36
			c19.448-23.048,51.072-39.992,73.368-39.992C370.461,159.424,372.185,159.534,373.896,159.758z M264,136.494
			c2.522-17.299,8.643-33.877,17.968-48.664l-6.744-4.216v-0.048l6.832,4.256c13.44-21.6,30.552-33.864,44.528-32.136
			c20.736,2.608,35.88,33.928,40.12,63.528c1.176,8.028,1.532,16.155,1.064,24.256c-28.288,0.272-60.704,19.808-80.64,41.136
			C268.728,176.182,261.064,160.454,264,136.494z M262.4,90.07c-2.75,5.349-5.178,10.858-7.272,16.496
			c-2.461-6.254-5.425-12.298-8.864-18.072C251.704,88.878,257.064,89.43,262.4,90.07z M250.312,166.414
			c4.287,13.495,13.857,24.679,26.528,31c-5.869,8.121-9.958,17.39-12,27.2c-1.914-18.673-12.905-35.204-29.384-44.192h-0.016
			C241.121,176.587,246.144,171.856,250.312,166.414z M239.776,259.846l-0.016,0c-5.605,12.099-15.157,21.933-27.088,27.888
			c-13.361,4.591-28.098,2.704-39.872-5.104c-14.553-8.24-27.301-19.321-37.488-32.584c-16.304-21.024-22.072-42.112-15.048-55.04
			c5.845-8.566,15.016-14.286,25.28-15.768c6.347-1.376,12.826-2.046,19.32-2c2.12,0,4.296,0.064,6.512,0.192
			c2.216,0.128,4.504,0.288,6.8,0.504c13.29,1.468,26.275,4.976,38.496,10.4l0.368,0.176c0.152,0.08,0.296,0.16,0.448,0.224
			c1.168,0.536,2.264,1.104,3.344,1.664l1.6,0.8C250.8,206.71,256.48,229.142,239.776,259.846z M136.976,92.038
			c2.856-22.4,11.8-38.552,23.888-43.104c17.04-6.344,43.144,8.248,63.544,35.464c6.674,8.747,12.091,18.384,16.096,28.632
			c10.056,26.936,2.864,46.184-21.936,58.872c-12.463-5.071-25.564-8.401-38.936-9.896c-0.568-0.056-1.096-0.072-1.664-0.12
			c-6.859-17.098-22.048-29.453-40.184-32.688c-0.16-0.96-0.32-2.008-0.504-3.2C135.682,114.741,135.58,103.322,136.976,92.038z
			 M127.832,143.79L127.832,143.79c12.875,0.385,24.78,6.933,32,17.6c-5.974,0.21-11.917,0.949-17.76,2.208
			c-14.864,2.27-27.978,10.958-35.864,23.76c-8.624,15.864-5.496,37.6,7.896,59.832C76.376,244.918,32,221.566,32,195.43
			c0-27.512,49.208-52,88-52C122.792,143.43,125.44,143.582,127.832,143.79z M120.168,101.974c-0.339,8.525,0.06,17.064,1.192,25.52
			c-0.472,0-0.88-0.064-1.36-0.064c-40.48,0-88.08,22.4-100.704,52.624C29.992,147.566,66.936,118.63,120.168,101.974z
			 M16.8,208.798c-0.532-3.094-0.8-6.228-0.8-9.368c0-0.8,0.128-1.6,0.152-2.336C17.816,233.982,73.6,263.43,120,263.43
			c1.872,0,3.56-0.184,5.328-0.288c11.062,13.568,24.563,24.947,39.808,33.552c10.358,6.052,22.072,9.4,34.064,9.736
			c6.751,0.014,13.437-1.321,19.664-3.928c15.333-7.309,27.685-19.67,34.984-35.008c5.079-8.982,8.595-18.761,10.4-28.92
			c1.536,17.096,11.84,33.272,30.904,47.568c6.309,4.827,13.18,8.87,20.464,12.04c-31.073,8.972-63.274,13.434-95.616,13.248
			c-92.256,0-173.216-34.328-197.16-83.536L16.8,208.798z M369.536,353.83c-95.782,51.579-211.063,51.618-306.88,0.104L36.08,269.83
			c39.848,35.104,108.504,57.6,183.92,57.6c45.59,0.578,90.815-8.197,132.88-25.784c6.797-1.862,13.176-5.006,18.792-9.264
			c9.589-5.214,18.692-11.275,27.2-18.112L369.536,353.83z M423.344,207.79v-0.008l-9.84,26.704
			c-2.899,4.713-6.214,9.157-9.904,13.28c14.896-35.768,15.792-78.4-7.72-96.056c-3.708-2.698-7.843-4.753-12.232-6.08
			c0.288-4.064,0.392-8.232,0.272-12.504C409.88,152.382,424,175.55,424,199.43C423.994,202.23,423.775,205.024,423.344,207.79z"/>
	</g>
</g>
<g>
	<g>
		<path d="M302.576,347.39c-20.872,6.46-42.395,10.586-64.176,12.304l1.248,15.952c22.965-1.81,45.659-6.162,67.664-12.976
			L302.576,347.39z"/>
	</g>
</g>
<g>
	<g>
		<path d="M346.648,329.646c-7.264,3.664-15.04,7.144-23.112,10.344l5.888,14.88c8.528-3.376,16.744-7.056,24.424-10.936
			L346.648,329.646z"/>
	</g>
</g>
<g>
</g>
<g>
</g>
<g>
</g>
<g>
</g>
<g>
</g>
<g>
</g>
<g>
</g>
<g>
</g>
<g>
</g>
<g>
</g>
<g>
</g>
<g>
</g>
<g>
</g>
<g>
</g>
<g>
</g>
</svg>
