<?xml version="1.0" encoding="iso-8859-1"?>
<!-- Generator: Adobe Illustrator 19.0.0, SVG Export Plug-In . SVG Version: 6.00 Build 0)  -->
<svg version="1.1" id="Capa_1" xmlns="http://www.w3.org/2000/svg" xmlns:xlink="http://www.w3.org/1999/xlink" x="0px" y="0px"
	 viewBox="0 0 480.073 480.073" style="enable-background:new 0 0 480.073 480.073;" xml:space="preserve">
<g>
	<g>
		<path d="M432.177,387.888l-24-40c-1.496-2.563-4.311-4.062-7.272-3.872c-2.951,0.152-5.577,1.917-6.832,4.592l-10.68,22.736
			c-14.175-11.513-34.335-12.007-49.056-1.2c-71.889,51.386-171.822,34.765-223.208-37.124
			c-14.214-19.885-23.683-42.762-27.68-66.876c-1.516-9.43-6.268-18.037-13.44-24.344c-7.217-6.304-16.473-9.783-26.056-9.792h-0.36
			l6.056-30.96c0.522-2.696-0.375-5.472-2.376-7.352c-2.004-1.883-4.835-2.605-7.496-1.912l-32.48,8.48
			c-4.275,1.115-6.837,5.485-5.721,9.761c0.249,0.955,0.673,1.855,1.249,2.655l18.808,26.208
			c-13.029,8.604-19.797,24.053-17.288,39.464C25.506,409.2,148.734,498.12,279.582,476.959
			c36.819-5.954,71.744-20.408,102.003-42.215c12.554-8.937,18.808-24.327,16.048-39.488l26.296,4.632
			c0.457,0.079,0.92,0.119,1.384,0.12c4.418,0.004,8.003-3.575,8.006-7.994C433.321,390.561,432.926,389.134,432.177,387.888z
			 M31.505,210.48l-2.256,11.528l-6.632-9.208L31.505,210.48z M382.217,404.096c-0.572,7.071-4.223,13.533-9.984,17.672
			c-100.375,72.315-240.368,49.567-312.683-50.809c-20.342-28.235-33.825-60.822-39.381-95.175
			c-2.063-13.116,6.896-25.421,20.012-27.484c1.248-0.196,2.509-0.294,3.772-0.292c5.72,0.016,11.242,2.102,15.544,5.872
			c4.369,3.856,7.254,9.116,8.16,14.872c15.888,95.895,106.506,160.753,202.401,144.865c26.539-4.397,51.717-14.819,73.599-30.465
			c9.537-7.169,22.876-6.316,31.424,2.008c0.216,0.223,0.445,0.431,0.688,0.624C380.427,390.692,382.772,397.352,382.217,404.096z
			 M397.481,378.984l4.696-9.992l7.256,12.096L397.481,378.984z"/>
	</g>
</g>
<g>
	<g>
		<path d="M477.353,67.176c-1.402-13.831-9.926-25.925-22.48-31.896l16.84-22.48c2.651-3.535,1.935-8.549-1.6-11.2
			c-1.385-1.039-3.069-1.6-4.8-1.6h-48c-3.029,0.002-5.798,1.714-7.152,4.424c-1.355,2.709-1.064,5.952,0.752,8.376l15.2,20.248
			c-18.627,5.667-30.52,23.864-28.232,43.2c9.177,87.839-54.59,166.486-142.429,175.663c-24.422,2.552-49.103-0.555-72.131-9.079
			c-4.607-1.717-9.484-2.592-14.4-2.584c-13.985-0.026-26.968,7.254-34.24,19.2l-23.536-24.944
			c-3.029-3.216-8.092-3.368-11.309-0.339c-1.608,1.514-2.519,3.626-2.515,5.835v48c-0.007,4.418,3.57,8.005,7.988,8.012
			c1.105,0.002,2.199-0.226,3.212-0.668l20.888-9.04c2.151,14.257,11.861,26.227,25.368,31.272
			c27.07,10.179,55.751,15.406,84.672,15.432c86.131-0.07,165.554-46.505,207.864-121.528
			C472.293,167.75,482.807,117.242,477.353,67.176z M113.313,275.824v-15.688l10.512,11.144L113.313,275.824z M449.313,16.008
			l-8,10.688l-8-10.688H449.313z M433.401,203.584c-54.06,95.919-170.059,137.992-273.04,99.032
			c-10.948-4.094-17.314-15.521-15.032-26.984l0.04-0.216c0.445-2.54,1.344-4.979,2.656-7.2c4.258-7.505,12.26-12.102,20.888-12
			c3.006-0.001,5.987,0.541,8.8,1.6c91.125,33.703,192.318-12.847,226.021-103.972c9.355-25.295,12.77-52.403,9.979-79.228
			c-1.488-11.97,5.99-23.232,17.6-26.504c2.686-0.752,5.493-0.975,8.264-0.656c0.602,0.18,1.222,0.298,1.848,0.352h0.36
			c10.551,1.793,18.6,10.422,19.656,21.072C466.538,115.615,456.723,162.765,433.401,203.584z"/>
	</g>
</g>
<g>
	<g>
		<path d="M344.032,73.29c-1.451,0-2.875,0.395-4.118,1.142l-29.48,17.704c-6.089-25.115-28.558-42.812-54.4-42.848h-96
			c-14.85-0.068-29.104,5.839-39.552,16.392c-7.325,7.251-12.469,16.411-14.848,26.44L76.145,74.432
			c-3.79-2.271-8.703-1.04-10.974,2.75c-0.743,1.241-1.137,2.659-1.138,4.106v48c0.001,4.418,3.583,7.999,8.002,7.998
			c1.451,0,2.875-0.395,4.118-1.142l29.48-17.704c6.089,25.115,28.558,42.812,54.4,42.848h96
			c25.845-0.014,48.323-17.712,54.4-42.832l29.488,17.688c3.79,2.271,8.703,1.04,10.974-2.75c0.743-1.241,1.137-2.659,1.138-4.106
			v-48C352.032,76.87,348.45,73.289,344.032,73.29z M80.033,115.16V95.416l16.448,9.872L80.033,115.16z M256.033,145.288h-96
			c-22.08-0.026-39.974-17.92-40-40c0.04-22.075,17.925-39.96,40-40h96c22.08,0.026,39.974,17.92,40,40
			C295.994,127.363,278.108,145.248,256.033,145.288z M336.033,115.16l-16.448-9.872l16.448-9.872V115.16z"/>
	</g>
</g>
<g>
</g>
<g>
</g>
<g>
</g>
<g>
</g>
<g>
</g>
<g>
</g>
<g>
</g>
<g>
</g>
<g>
</g>
<g>
</g>
<g>
</g>
<g>
</g>
<g>
</g>
<g>
</g>
<g>
</g>
</svg>
