<?xml version="1.0" encoding="iso-8859-1"?>
<!-- Generator: Adobe Illustrator 19.0.0, SVG Export Plug-In . SVG Version: 6.00 Build 0)  -->
<svg version="1.1" id="Capa_1" xmlns="http://www.w3.org/2000/svg" xmlns:xlink="http://www.w3.org/1999/xlink" x="0px" y="0px"
	 viewBox="0 0 472 472" style="enable-background:new 0 0 472 472;" xml:space="preserve">
<g>
	<g>
		<rect x="152" y="219.697" width="16" height="16"/>
	</g>
</g>
<g>
	<g>
		<rect x="184" y="203.697" width="16" height="16"/>
	</g>
</g>
<g>
	<g>
		<rect x="168" y="179.697" width="16" height="16"/>
	</g>
</g>
<g>
	<g>
		<rect x="296" y="155.697" width="16" height="16"/>
	</g>
</g>
<g>
	<g>
		<rect x="328" y="187.697" width="16" height="16"/>
	</g>
</g>
<g>
	<g>
		<rect x="360" y="219.697" width="16" height="16"/>
	</g>
</g>
<g>
	<g>
		<rect x="328" y="219.697" width="16" height="16"/>
	</g>
</g>
<g>
	<g>
		<rect x="296" y="187.697" width="16" height="16"/>
	</g>
</g>
<g>
	<g>
		<path d="M402.4,340.305l26.016-17.344c2.224-1.472,3.568-3.957,3.584-6.624v-80c-0.001-2.026-0.77-3.975-2.152-5.456l-112-120
			c-1.512-1.622-3.63-2.543-5.848-2.544H128.8l-36.848-7.368L72,81.025V52.337c0.001-4.354-3.479-7.909-7.832-8l-32-0.64
			c-2.151-0.036-4.227,0.787-5.768,2.288c-1.535,1.504-2.4,3.563-2.4,5.712v16.208l-16.208,0.44c-4.337,0.113-7.793,3.662-7.792,8
			v32c0.004,4.415,3.585,7.992,8,7.992h28.688l19.944,19.944L72,213.129v99.928c0,2.546,1.212,4.941,3.264,6.448l28.352,20.8H8v16
			h57.496l13.712,65.6c0.76,3.722,4.033,6.397,7.832,6.4h305.92c3.799-0.003,7.072-2.678,7.832-6.4l13.704-65.6H472v-16H402.4z
			 M64,121.025l-18.344-18.344c-1.5-1.5-3.534-2.344-5.656-2.344H16V84.129l16.208-0.432c4.337-0.113,7.793-3.662,7.792-8v-15.84
			l16,0.32v24.16c0,2.122,0.844,4.156,2.344,5.656l18.344,18.344L64,121.025z M72.688,134.969l17.944-17.944l73.424,14.672
			L216,183.649v49.376l-27.312,27.312h-49.376l-51.944-51.944L72.688,134.969z M386.464,412.337H93.536l-11.696-56h316.32
			L386.464,412.337z M373.6,340.337H130.616L88,309.009v-77.36l42.344,42.344c1.5,1.5,3.534,2.344,5.656,2.344h56
			c2.122,0,4.156-0.844,5.656-2.344l32-32c1.5-1.5,2.344-3.534,2.344-5.656v-56c0-2.122-0.844-4.156-2.344-5.656l-50.344-50.344
			H308.52L416,239.489v72.568L373.6,340.337z"/>
	</g>
</g>
<g>
</g>
<g>
</g>
<g>
</g>
<g>
</g>
<g>
</g>
<g>
</g>
<g>
</g>
<g>
</g>
<g>
</g>
<g>
</g>
<g>
</g>
<g>
</g>
<g>
</g>
<g>
</g>
<g>
</g>
</svg>
