<?xml version="1.0" encoding="iso-8859-1"?>
<!-- Generator: Adobe Illustrator 19.0.0, SVG Export Plug-In . SVG Version: 6.00 Build 0)  -->
<svg version="1.1" id="Capa_1" xmlns="http://www.w3.org/2000/svg" xmlns:xlink="http://www.w3.org/1999/xlink" x="0px" y="0px"
	 viewBox="0 0 471.092 471.092" style="enable-background:new 0 0 471.092 471.092;" xml:space="preserve">
<g>
	<g>
		<path d="M446.824,235.546c22.919-18.184,30.621-49.577,18.72-76.304l-10.24-22.96c-1.106-2.481-3.396-4.231-6.08-4.648
			c-2.683-0.401-5.388,0.573-7.2,2.592l-57.704,64.92C307.821,110.82,196.848,59.913,80,59.546v0.328
			c-1.325-0.195-2.661-0.305-4-0.328c-42.616,0-76,77.304-76,176s33.384,176,76,176c1.338-0.002,2.674-0.093,4-0.272v0.272
			c174.136,0,278.168-114.52,304.16-147l57.6,72c1.763,2.152,4.501,3.258,7.264,2.936c2.769-0.356,5.152-2.13,6.288-4.68
			l10.24-22.96C477.379,285.11,469.685,253.764,446.824,235.546z M78.44,395.37c-0.793,0.128-1.596,0.187-2.4,0.176
			c-28.416,0-60.04-65.712-60.04-160s31.624-160,60-160c0.804-0.011,1.607,0.048,2.4,0.176l0.384,0.064
			C106.4,79.634,136,144.738,136,235.546S106.4,391.458,78.44,395.37z M450.968,305.362l-4.896,10.968l-55.792-69.752
			c-1.605-1.973-4.033-3.093-6.576-3.032c-2.533,0.093-4.871,1.381-6.304,3.472c-0.96,1.4-93.744,133.488-267.952,147.272
			C134.952,366.138,152,306.162,152,235.546s-17.072-130.688-42.6-158.824c104.6,8.199,201.378,58.556,268.12,139.512
			c1.423,1.963,3.659,3.175,6.08,3.296c2.426,0.113,4.775-0.867,6.4-2.672l55.76-62.736l5.184,11.624
			c10.473,23.538,0.554,51.148-22.504,62.64c-3.952,1.975-5.555,6.78-3.579,10.733c0.774,1.549,2.03,2.805,3.579,3.579
			c16.377,8.156,26.702,24.904,26.632,43.2C455.091,292.603,453.692,299.236,450.968,305.362z"/>
	</g>
</g>
<g>
	<g>
		<path d="M79.92,92.898c-2.434-1.368-5.406-1.368-7.84,0C58.104,100.754,32,150.682,32,235.546s26.104,134.792,40.08,142.648
			c2.434,1.368,5.406,1.368,7.84,0C93.896,370.338,120,320.41,120,235.546S93.896,100.754,79.92,92.898z M76,360.114
			c-9.464-12.976-28-54.696-28-124.568s18.536-111.592,28-124.568v0.016c9.464,12.96,28,54.68,28,124.552S85.464,347.138,76,360.114
			z"/>
	</g>
</g>
<g>
	<g>
		<path d="M76,209.546c-11.2,0-20,11.424-20,26s8.8,26,20,26s20-11.424,20-26S87.2,209.546,76,209.546z M76,245.546
			c-0.8,0-4-3.336-4-10s3.2-10,4-10s4,3.336,4,10S76.8,245.546,76,245.546z"/>
	</g>
</g>
<g>
	<g>
		<path d="M181.096,117.89l-11.312,11.312c18.938,18.98,18.938,49.708,0,68.688l11.312,11.312
			C206.271,183.97,206.271,143.122,181.096,117.89z"/>
	</g>
</g>
<g>
	<g>
		<path d="M213.656,253.89l-11.312,11.312c18.938,18.98,18.938,49.708,0,68.688l11.312,11.312
			C238.831,319.97,238.831,279.122,213.656,253.89z"/>
	</g>
</g>
<g>
	<g>
		<path d="M277.656,157.89l-11.312,11.312c18.938,18.98,18.938,49.708,0,68.688l11.312,11.312
			C302.831,223.97,302.831,183.122,277.656,157.89z"/>
	</g>
</g>
<g>
	<g>
		<path d="M331.752,213.906l-11.344,11.28c10.064,10.171,10.064,26.549,0,36.72l11.344,11.28
			C348.002,256.767,348.002,230.325,331.752,213.906z"/>
	</g>
</g>
<g>
</g>
<g>
</g>
<g>
</g>
<g>
</g>
<g>
</g>
<g>
</g>
<g>
</g>
<g>
</g>
<g>
</g>
<g>
</g>
<g>
</g>
<g>
</g>
<g>
</g>
<g>
</g>
<g>
</g>
</svg>
