<?xml version="1.0" encoding="iso-8859-1"?>
<!-- Generator: Adobe Illustrator 19.0.0, SVG Export Plug-In . SVG Version: 6.00 Build 0)  -->
<svg version="1.1" id="Capa_1" xmlns="http://www.w3.org/2000/svg" xmlns:xlink="http://www.w3.org/1999/xlink" x="0px" y="0px"
	 viewBox="0 0 480 480" style="enable-background:new 0 0 480 480;" xml:space="preserve">
<g>
	<g>
		<path d="M125.004,353.448c23.141-63.032,34.97-129.655,34.944-196.8c0-16.208-0.64-31.136-1.944-45.48
			c-2.731-35.589-8.838-70.839-18.24-105.272c-0.949-3.482-4.111-5.897-7.72-5.896h-16.24c-2.129,0-4.171,0.85-5.672,2.36
			c-96.61,97.096-98.822,253.311-5,353.104C75.929,387.05,59.738,428.503,59.804,471.52c0,4.403,3.557,7.978,7.96,8l96.16,0.48
			c4.4,0,7.974-3.552,8-7.952C172.241,427.929,155.419,385.409,125.004,353.448z M119.164,16h6.728
			c7.773,29.849,13.007,60.301,15.648,91.032c-21.486,20.843-55.085,22.553-78.576,4C73.985,75.386,93.237,42.832,119.164,16z
			 M58.5,127.48c25.76,17.001,59.287,16.553,84.584-1.128c0.576,9.696,0.88,19.688,0.88,30.288
			c0.054,62.556-10.479,124.67-31.152,183.712C61.192,282.436,40.936,203.047,58.5,127.48z M76.004,463.6
			c1.714-35.866,15.853-70.018,39.992-96.6c24.2,26.686,38.288,61.007,39.816,97L76.004,463.6z"/>
	</g>
</g>
<g>
	<g>
		<rect x="108.284" y="56" width="16" height="16"/>
	</g>
</g>
<g>
	<g>
		<g>
			<path d="M73.46,154.312l-11.312,11.312c11.977,11.86,31.265,11.87,43.255,0.031L94.18,154.312
				C88.444,160,79.195,160,73.46,154.312z"/>
			<path d="M105.436,165.624c-0.011,0.011-0.022,0.02-0.033,0.031l0.033,0.033V165.624z"/>
		</g>
	</g>
</g>
<g>
	<g>
		<path d="M127.004,185.768c-6.504,4.815-15.392,4.815-21.896,0L94.98,198.184c12.384,9.626,29.72,9.626,42.104,0L127.004,185.768z"
			/>
	</g>
</g>
<g>
	<g>
		<path d="M110.148,219.68c-2.746,2.777-6.494,4.334-10.4,4.32c-3.854,0.002-7.547-1.546-10.248-4.296l-11.376,11.288
			c5.694,5.773,13.468,9.018,21.576,9.008h0.072c8.144,0.024,15.957-3.221,21.688-9.008L110.148,219.68z"/>
	</g>
</g>
<g>
	<g>
		<path d="M110.412,258.32c-5.74,5.67-14.972,5.67-20.712,0l-11.312,11.312c11.986,11.875,31.302,11.875,43.288,0L110.412,258.32z"
			/>
	</g>
</g>
<g>
	<g>
		<path d="M122.964,396.424c-2.353-3.952-7.464-5.249-11.416-2.896c-1.191,0.709-2.187,1.705-2.896,2.896
			c-1.728,3.44-16.848,34.192-16.848,51.576h16c1.147-9.851,3.847-19.458,8-28.464c4.125,9.016,6.824,18.619,8,28.464h16
			C139.804,430.616,124.684,399.864,122.964,396.424z"/>
	</g>
</g>
<g>
	<g>
		<path d="M261.004,353.448c23.147-63.034,34.982-129.659,34.96-196.808c0-16.208-0.64-31.136-1.944-45.48
			c-2.736-35.587-8.849-70.834-18.256-105.264c-0.949-3.482-4.111-5.897-7.72-5.896h-16.24c-2.129,0-4.171,0.85-5.672,2.36
			c-96.61,97.096-98.822,253.311-5,353.104c-29.203,31.586-45.393,73.039-45.328,116.056c0,4.418,3.582,8,8,8l96.16,0.48
			c4.4,0,7.974-3.552,8-7.952C308.27,427.923,291.434,385.403,261.004,353.448z M255.164,16h6.728
			c7.773,29.849,13.007,60.301,15.648,91.032c-21.486,20.843-55.085,22.553-78.576,4C209.985,75.386,229.237,42.832,255.164,16z
			 M194.5,127.48c25.76,17.001,59.287,16.553,84.584-1.128c0.576,9.696,0.88,19.688,0.88,30.288
			c0.054,62.556-10.479,124.67-31.152,183.712C197.192,282.436,176.936,203.047,194.5,127.48z M212.004,463.6
			c1.726-35.853,15.867-69.989,40-96.56c24.189,26.677,38.273,60.982,39.808,96.96L212.004,463.6z"/>
	</g>
</g>
<g>
	<g>
		<rect x="244.284" y="56" width="16" height="16"/>
	</g>
</g>
<g>
	<g>
		<g>
			<path d="M209.46,154.312l-11.312,11.312c11.977,11.86,31.265,11.87,43.255,0.031l-11.223-11.343
				C224.444,160,215.195,160,209.46,154.312z"/>
			<path d="M241.436,165.624c-0.011,0.011-0.022,0.02-0.033,0.031l0.033,0.033V165.624z"/>
		</g>
	</g>
</g>
<g>
	<g>
		<path d="M263.004,185.768c-6.504,4.815-15.392,4.815-21.896,0l-10.128,12.416c12.384,9.626,29.72,9.626,42.104,0L263.004,185.768z
			"/>
	</g>
</g>
<g>
	<g>
		<path d="M246.148,219.68c-2.746,2.777-6.494,4.334-10.4,4.32c-3.854,0.002-7.547-1.546-10.248-4.296l-11.376,11.288
			c5.694,5.773,13.468,9.018,21.576,9.008h0.072c8.144,0.024,15.957-3.221,21.688-9.008L246.148,219.68z"/>
	</g>
</g>
<g>
	<g>
		<path d="M246.412,258.32c-5.74,5.67-14.972,5.67-20.712,0l-11.312,11.312c11.986,11.875,31.302,11.875,43.288,0L246.412,258.32z"
			/>
	</g>
</g>
<g>
	<g>
		<path d="M258.964,396.424c-2.353-3.952-7.464-5.249-11.416-2.896c-1.191,0.709-2.187,1.705-2.896,2.896
			c-1.728,3.44-16.848,34.192-16.848,51.576h16c1.147-9.851,3.847-19.458,8-28.464c4.125,9.016,6.824,18.619,8,28.464h16
			C275.804,430.616,260.684,399.864,258.964,396.424z"/>
	</g>
</g>
<g>
	<g>
		<path d="M396.86,353.44c23.068-62.994,34.869-129.556,34.864-196.64c0-16.344-0.64-31.312-1.944-45.64
			c-2.751-35.583-8.863-70.825-18.256-105.256C410.577,2.419,407.414,0,403.804,0h-16.24c-2.129,0-4.171,0.85-5.672,2.36
			c-96.615,97.085-98.809,253.303-4.96,353.064c-29.225,31.591-45.431,73.06-45.368,116.096c0,4.403,3.557,7.978,7.96,8l96.24,0.48
			h0.04c4.418,0,8-3.582,8-8C444.049,427.901,427.227,385.417,396.86,353.44z M390.924,16h6.728
			c7.763,29.853,12.998,60.308,15.648,91.04c-21.472,20.866-55.087,22.577-78.568,4C345.745,75.39,364.995,42.832,390.924,16z
			 M330.26,127.48c25.744,17.035,59.284,16.607,84.584-1.08c0.576,9.704,0.88,19.736,0.88,30.4
			c0.033,62.497-10.477,124.552-31.088,183.552C332.977,282.456,312.695,203.058,330.26,127.48z M347.764,463.56
			c1.711-35.868,15.853-70.022,40-96.6c24.18,26.72,38.281,61.039,39.872,97.04L347.764,463.56z"/>
	</g>
</g>
<g>
	<g>
		<rect x="380.124" y="56" width="16" height="16"/>
	</g>
</g>
<g>
	<g>
		<path d="M365.908,154.344c-5.738,5.674-14.974,5.674-20.712,0l-11.264,11.36c11.986,11.875,31.302,11.875,43.288,0v-0.048
			L365.908,154.344z"/>
	</g>
</g>
<g>
	<g>
		<path d="M398.74,185.84c-6.504,4.815-15.392,4.815-21.896,0l-10.08,12.368c12.384,9.626,29.72,9.626,42.104,0L398.74,185.84z"/>
	</g>
</g>
<g>
	<g>
		<path d="M381.892,219.704c-2.702,2.757-6.403,4.306-10.264,4.296c-3.906,0.013-7.653-1.543-10.4-4.32l-11.312,11.312
			c5.727,5.783,13.533,9.027,21.672,9.008h0.072c8.12,0.006,15.902-3.248,21.6-9.032L381.892,219.704z"/>
	</g>
</g>
<g>
	<g>
		<path d="M382.148,258.344c-5.717,5.702-14.971,5.702-20.688,0l-11.312,11.312c11.971,11.935,31.341,11.935,43.312,0
			L382.148,258.344z"/>
	</g>
</g>
<g>
	<g>
		<path d="M394.756,396.424c-2.334-3.963-7.439-5.284-11.402-2.95c-1.218,0.717-2.233,1.732-2.95,2.95
			c-1.72,3.44-16.8,34.192-16.8,51.576h16c1.147-9.851,3.847-19.458,8-28.464c4.125,9.016,6.824,18.619,8,28.464h16
			C411.604,430.616,396.484,399.864,394.756,396.424z"/>
	</g>
</g>
<g>
</g>
<g>
</g>
<g>
</g>
<g>
</g>
<g>
</g>
<g>
</g>
<g>
</g>
<g>
</g>
<g>
</g>
<g>
</g>
<g>
</g>
<g>
</g>
<g>
</g>
<g>
</g>
<g>
</g>
</svg>
