<!-- Generated by IcoMoon.io -->
<svg version="1.1" xmlns="http://www.w3.org/2000/svg" width="32" height="32" viewBox="0 0 32 32">
<title>redo</title>
<path d="M3.984 7.184c2.568-2.568 5.984-3.984 9.616-3.984s7.048 1.414 9.616 3.984 3.984 5.984 3.984 9.616v2.069l3.434-3.434c0.312-0.312 0.819-0.312 1.131 0s0.312 0.819 0 1.131l-4.8 4.8c-0.157 0.157-0.362 0.234-0.566 0.234s-0.41-0.078-0.566-0.234l-4.8-4.8c-0.312-0.312-0.312-0.819 0-1.131s0.819-0.312 1.131 0l3.434 3.434v-2.069c0-6.618-5.382-12-12-12s-12 5.382-12 12c0 6.618 5.382 12 12 12 0.442 0 0.8 0.358 0.8 0.8s-0.358 0.8-0.8 0.8c-3.632 0-7.048-1.414-9.616-3.984s-3.984-5.984-3.984-9.616c0-3.632 1.414-7.048 3.984-9.616z"></path>
</svg>
