<?xml version="1.0" encoding="iso-8859-1"?>
<!-- Generator: Adobe Illustrator 19.0.0, SVG Export Plug-In . SVG Version: 6.00 Build 0)  -->
<svg version="1.1" id="Capa_1" xmlns="http://www.w3.org/2000/svg" xmlns:xlink="http://www.w3.org/1999/xlink" x="0px" y="0px"
	 viewBox="0 0 512 512" style="enable-background:new 0 0 512 512;" xml:space="preserve">
<circle style="fill:#B9A096;" cx="256" cy="256" r="248.5"/>
<path style="fill:#A58C82;" d="M340.435,460.057l-52.48-176.078c-0.988-3.314-5.491-3.78-7.135-0.737l-49.839,92.162l16.295-71.317
	c0.77-3.372-2.92-5.992-5.849-4.152l-34.035,21.375l42.801-52.604c2.183-2.683,0.032-6.666-3.408-6.312l-75.536,7.762l53.172-30.417
	c3.003-1.718,2.429-6.208-0.908-7.116L46.239,184.364c-2.109-0.574-4.327,0.692-4.859,2.812
	c-11.643,46.435-6.488,97.15,18.152,142.282c1.045,1.916,3.511,2.595,5.405,1.511l5.736-3.281c7.478,21,18.471,40.909,33.093,58.7
	L85.84,397.646c-1.851,1.162-2.422,3.652-1.223,5.479c26.271,40.021,67.069,70.584,116.959,83.031
	c2.118,0.528,4.287-0.825,4.773-2.953l5.765-25.23c38.688,15.499,82.522,18.92,125.616,7.004
	C339.835,464.395,341.058,462.149,340.435,460.057z"/>
<circle style="fill:#FF8782;" cx="329.5" cy="340.39" r="18.467"/>
<circle style="fill:#ADDF6E;" cx="342.23" cy="383.46" r="22.11"/>
<path style="fill:#FBE6A5;" d="M214.499,432.207c42.56,21.921,93.115,28.46,142.674,14.756c2.104-0.582,3.326-2.827,2.703-4.919
	l-52.48-176.078c-0.988-3.315-5.49-3.78-7.135-0.738l-87.393,161.607C211.828,428.758,212.556,431.206,214.499,432.207z"/>
<g>
	<path style="fill:#FFDC8C;" d="M272.312,380.595c3.168-13.533-4.606-26.949-17.498-31.329l-25.023,46.273
		c2.97,2.325,6.43,4.109,10.344,5.026C254.536,403.936,268.942,394.995,272.312,380.595z"/>
	<path style="fill:#FFDC8C;" d="M300.261,265.229l-30.041,55.553c6.343,14.119,18.912,25.249,35.147,29.049
		c9.179,2.149,18.341,1.644,26.746-0.937l-24.716-82.927C306.408,262.651,301.906,262.186,300.261,265.229z"/>
</g>
<g>
	<circle style="fill:#FFCD6E;" cx="280.26" cy="381.9" r="22.494"/>
	<circle style="fill:#FFCD6E;" cx="298.73" cy="314.73" r="8.06"/>
</g>
<path style="fill:#FFDC8C;" d="M311.17,390.044c-3.867,16.519,6.39,33.046,22.909,36.913c7.225,1.691,14.387,0.556,20.555-2.499
	l-17.229-57.806C324.966,368.161,314.192,377.135,311.17,390.044z"/>
<circle style="fill:#87CD6E;" cx="256.54" cy="356.69" r="20.02"/>
<circle style="fill:#FF8782;" cx="246.54" cy="388.46" r="20.02"/>
<path style="fill:#FBE6A5;" d="M104.059,385.111c26.271,40.021,67.069,70.584,116.959,83.031c2.118,0.528,4.287-0.825,4.773-2.953
	l40.925-179.116c0.77-3.372-2.92-5.992-5.849-4.152l-155.586,97.711C103.431,380.794,102.86,383.284,104.059,385.111z"/>
<g>
	<path style="fill:#FFDC8C;" d="M260.867,281.921l-53.483,33.588c-1.423,15.413,4.045,31.286,16.311,42.581
		c6.934,6.386,15.16,10.453,23.747,12.341l19.275-84.358C267.488,282.701,263.796,280.081,260.867,281.921z"/>
	<path style="fill:#FFDC8C;" d="M208.966,395.956c-11.493,12.48-10.693,31.914,1.787,43.407c5.458,5.027,12.252,7.561,19.125,7.936
		l13.436-58.803C231.743,383.691,217.947,386.204,208.966,395.956z"/>
</g>
<circle style="fill:#ADDF6E;" cx="181.56" cy="372.39" r="22.494"/>
<circle style="fill:#FF8782;" cx="199.77" cy="338.12" r="22.494"/>
<path style="fill:#FBE6A5;" d="M79.943,267.531c5.85,47.514,28.913,92.975,68.145,126.214c1.665,1.411,4.21,1.157,5.587-0.536
	l115.958-142.517c2.183-2.683,0.032-6.666-3.408-6.312L83.464,263.16C81.29,263.383,79.676,265.362,79.943,267.531z"/>
<g>
	<path style="fill:#FFDC8C;" d="M155.149,286.246c12.967-5.002,19.676-18.982,16.037-32.101l-52.33,5.377
		c-0.249,3.764,0.225,7.628,1.672,11.378C125.851,284.698,141.351,291.569,155.149,286.246z"/>
	<path style="fill:#FFDC8C;" d="M266.225,244.379l-62.825,6.456c-8.096,13.192-10.216,29.846-4.215,45.402
		c3.393,8.795,8.969,16.082,15.835,21.575l54.613-67.121C271.816,248.009,269.665,244.026,266.225,244.379z"/>
</g>
<g>
	<circle style="fill:#FFCD6E;" cx="158.54" cy="293.55" r="22.494"/>
	<circle style="fill:#FFCD6E;" cx="224.46" cy="270.99" r="8.06"/>
</g>
<path style="fill:#FFDC8C;" d="M169.221,323.678c-15.829,6.106-23.711,23.888-17.604,39.717c2.671,6.923,7.642,12.202,13.64,15.579
	l38.069-46.788C195.074,322.757,181.591,318.906,169.221,323.678z"/>
<circle style="fill:#ADDF6E;" cx="143" cy="186.56" r="22.494"/>
<circle style="fill:#87CD6E;" cx="165.54" cy="270.76" r="22.494"/>
<circle style="fill:#FF8782;" cx="137.69" cy="282.01" r="19.19"/>
<path style="fill:#FBE6A5;" d="M60.822,169.162c-11.643,46.436-6.488,97.151,18.152,142.282c1.046,1.916,3.511,2.594,5.406,1.511
	l159.481-91.231c3.002-1.717,2.429-6.207-0.908-7.116L65.68,166.35C63.572,165.776,61.353,167.042,60.822,169.162z"/>
<g>
	<path style="fill:#FFDC8C;" d="M124.252,213.691c13.898,0,25.19-10.628,26.516-24.178l-50.758-13.818
		c-1.587,3.422-2.536,7.198-2.536,11.217C97.474,201.702,109.463,213.691,124.252,213.691z"/>
	<path style="fill:#FFDC8C;" d="M242.953,214.608l-60.938-16.589c-12.302,9.394-20.273,24.169-20.273,40.843
		c0,9.427,2.58,18.233,7.008,25.829l75.111-42.967C246.863,220.007,246.29,215.517,242.953,214.608z"/>
</g>
<g>
	<circle style="fill:#FFCD6E;" cx="124.79" cy="221.72" r="22.494"/>
	<circle style="fill:#FFCD6E;" cx="194.41" cy="224.4" r="8.06"/>
</g>
<path style="fill:#FFDC8C;" d="M123.909,253.679c-16.966,0-30.719,13.754-30.719,30.719c0,7.42,2.738,14.135,7.118,19.444
	l52.357-29.951C148.361,262.124,137.167,253.679,123.909,253.679z"/>
<circle style="fill:#A58C82;" cx="247.43" cy="136.03" r="68.55"/>
<circle style="fill:#FFFFFF;" cx="264.57" cy="118.9" r="68.55"/>
<circle style="fill:#FF8782;" cx="264.57" cy="118.9" r="34.28"/>
<path style="fill:#FF6464;" d="M264.569,84.621c-13.143,0-24.544,7.405-30.295,18.262c4.781-2.533,10.226-3.981,16.013-3.981
	c18.93,0,34.276,15.346,34.276,34.276c0,5.788-1.448,11.232-3.981,16.013c10.858-5.751,18.262-17.153,18.262-30.295
	C298.845,99.966,283.499,84.621,264.569,84.621z"/>
<circle style="fill:#A58C82;" cx="367.4" cy="213.16" r="68.55"/>
<circle style="fill:#FFFFFF;" cx="384.53" cy="196.02" r="68.55"/>
<circle style="fill:#ADDF6E;" cx="384.53" cy="196.02" r="34.28"/>
<path style="fill:#87CD6E;" d="M384.534,161.741c-13.142,0-24.544,7.405-30.295,18.262c4.781-2.533,10.226-3.981,16.013-3.981
	c18.93,0,34.276,15.346,34.276,34.276c0,5.788-1.448,11.232-3.981,16.013c10.858-5.751,18.262-17.153,18.262-30.295
	C418.81,177.087,403.465,161.741,384.534,161.741z"/>
<path d="M437.02,74.98C388.667,26.629,324.38,0,256,0S123.333,26.629,74.98,74.98C26.629,123.333,0,187.62,0,256
	s26.629,132.667,74.98,181.02C123.333,485.371,187.62,512,256,512s132.667-26.629,181.02-74.98C485.371,388.667,512,324.38,512,256
	S485.371,123.333,437.02,74.98z M426.413,426.413C380.894,471.932,320.374,497,256,497s-124.894-25.068-170.413-70.587
	S15,320.374,15,256S40.068,131.106,85.587,85.587S191.626,15,256,15s124.894,25.068,170.413,70.587S497,191.626,497,256
	S471.932,380.894,426.413,426.413z"/>
<path d="M384.535,119.966c-17.144,0-32.977,5.707-45.711,15.314c1.164-5.281,1.797-10.758,1.797-16.384
	c0-41.935-34.117-76.052-76.052-76.052s-76.052,34.117-76.052,76.052s34.117,76.052,76.052,76.052
	c17.144,0,32.977-5.708,45.711-15.314c-1.164,5.28-1.797,10.758-1.797,16.384c0,41.935,34.117,76.051,76.052,76.051
	s76.052-34.117,76.052-76.051C460.586,154.082,426.47,119.966,384.535,119.966z M264.569,179.948
	c-33.664,0-61.052-27.388-61.052-61.052s27.388-61.052,61.052-61.052s61.052,27.388,61.052,61.052S298.233,179.948,264.569,179.948z
	 M384.535,257.069c-33.664,0-61.052-27.388-61.052-61.051c0-33.664,27.388-61.052,61.052-61.052s61.052,27.388,61.052,61.052
	C445.586,229.681,418.199,257.069,384.535,257.069z"/>
<path d="M415.719,179.909c-4.002,1.067-6.382,5.176-5.315,9.179c2.458,9.217-0.201,19.127-6.936,25.863
	c-5.057,5.057-11.781,7.842-18.933,7.842s-13.876-2.785-18.934-7.843c-5.057-5.057-7.843-11.781-7.843-18.933
	s2.786-13.876,7.843-18.934c6.739-6.739,16.655-9.395,25.873-6.934c4,1.067,8.112-1.31,9.181-5.312
	c1.068-4.002-1.31-8.112-5.312-9.181c-14.376-3.838-29.836,0.308-40.349,10.819c-7.891,7.891-12.236,18.381-12.236,29.541
	c0,11.158,4.346,21.649,12.236,29.54c7.89,7.89,18.381,12.236,29.54,12.236s21.649-4.346,29.54-12.236
	c10.507-10.507,14.655-25.962,10.824-40.333C423.831,181.221,419.718,178.842,415.719,179.909z"/>
<path d="M295.754,102.788c-4.002,1.067-6.382,5.176-5.315,9.179c2.458,9.217-0.201,19.128-6.936,25.863
	c-10.44,10.44-27.428,10.439-37.867,0c-10.439-10.44-10.439-27.427,0-37.867c6.739-6.738,16.652-9.395,25.874-6.934
	c3.998,1.067,8.112-1.31,9.181-5.311c1.068-4.002-1.31-8.113-5.312-9.181c-14.376-3.838-29.837,0.308-40.349,10.819
	c-16.288,16.289-16.288,42.792,0,59.08c8.144,8.145,18.842,12.216,29.54,12.216c10.698,0,21.396-4.072,29.54-12.216
	c10.507-10.507,14.655-25.962,10.824-40.333C303.866,104.101,299.752,101.721,295.754,102.788z"/>
<path d="M368.683,399.402c5.133-5.773,7.711-13.2,7.258-20.913c-0.688-11.705-8.286-21.388-18.587-25.327
	c2.749-4.765,4.153-10.346,3.81-16.188c-0.453-7.712-3.882-14.787-9.655-19.92c-5.773-5.133-13.207-7.713-20.913-7.258
	c-0.604,0.036-1.206,0.094-1.806,0.167l-6.243-22.402l5.826-6.722c2.713-3.13,2.375-7.867-0.755-10.58
	c-2.877-2.493-7.104-2.403-9.877,0.055l-1.893-6.792c-1.24-4.451-5.005-7.687-9.592-8.244c-4.582-0.558-9.017,1.682-11.287,5.706
	l-26.508,46.989l4.469-19.978c1.009-4.508-0.781-9.139-4.56-11.796c-2.258-1.587-4.938-2.261-7.562-2.025l14.86-18.206
	c2.922-3.579,3.395-8.521,1.206-12.59c-2.188-4.068-6.57-6.398-11.169-5.932l-41.584,4.207l23.462-13.421
	c4.01-2.294,6.224-6.738,5.639-11.321s-3.843-8.329-8.301-9.542l-46.394-12.63l0.921-0.629c3.421-2.336,4.301-7.002,1.965-10.423
	c-2.335-3.421-7.001-4.301-10.423-1.965l-11.483,7.84l-8.545-2.326c0.291-1.959,0.382-3.949,0.264-5.958
	c-0.453-7.712-3.882-14.786-9.656-19.919c-5.773-5.133-13.19-7.713-20.912-7.258c-11.221,0.659-20.989,7.858-25.124,18.047
	l-9.769-2.659l-0.224-10.363c-0.089-4.141-3.506-7.429-7.66-7.336c-4.141,0.09-7.426,3.519-7.336,7.66l0.128,5.931l-23.027-6.269
	c-2.948-0.803-6.157-0.375-8.803,1.173c-2.669,1.563-4.552,4.066-5.3,7.051l0,0c-12.542,50.017-5.849,102.471,18.844,147.701
	c1.476,2.702,3.929,4.654,6.909,5.498c1.018,0.288,2.067,0.43,3.114,0.43c1.21,0,2.41-0.213,3.561-0.586
	c6.679,16.611,15.543,32.257,26.286,46.531l-11.672,7.405c-2.581,1.637-4.428,4.295-5.067,7.294
	c-0.646,3.025-0.064,6.104,1.636,8.668c28.492,42.979,71.75,73.393,121.803,85.641c0.901,0.22,1.812,0.33,2.717,0.33
	c2.098,0,4.163-0.586,6.001-1.727c2.603-1.615,4.477-4.248,5.144-7.225l4.085-18.259c22.348,8.068,45.592,12.141,68.969,12.141
	c17.081,0,34.231-2.167,51.15-6.521c2.981-0.767,5.477-2.667,7.024-5.349c1.531-2.653,1.94-5.859,1.121-8.798l-2.219-7.964
	l2.458-0.351c4.101-0.585,6.95-4.384,6.365-8.484c-0.586-4.101-4.385-6.951-8.484-6.365l-4.4,0.628l-2.865-10.282
	C360.861,406.127,365.216,403.302,368.683,399.402z M357.473,389.436c-1.522,1.712-3.4,2.991-5.484,3.776l-7.443-26.709
	c0.561-0.102,1.128-0.182,1.706-0.216c7.66-0.446,14.265,5.419,14.714,13.083C361.185,383.082,359.944,386.657,357.473,389.436z
	 M341.542,328.266c2.779,2.471,4.43,5.876,4.647,9.589c0.298,5.067-2.133,9.722-6.171,12.401l-7.104-25.492
	C336.105,324.901,339.124,326.116,341.542,328.266z M253.463,375.025c4.017,2.259,6.767,6.438,7.053,11.314
	c0.446,7.592-5.312,14.132-12.871,14.691L253.463,375.025z M267.942,357.47c0.17,2.885-0.561,5.701-2.031,8.095
	c-2.635-2.354-5.712-4.227-9.103-5.493l0.359-1.604c0.108-0.161,0.216-0.323,0.313-0.494l5.725-10.149
	C265.932,350.221,267.718,353.652,267.942,357.47z M212.059,337.682c0.218,3.712-1.022,7.288-3.494,10.067s-5.876,4.43-9.589,4.647
	c-0.67,0.039-1.333,0.02-1.988-0.033l14.521-17.789C211.802,335.576,211.996,336.614,212.059,337.682z M195.292,371.928
	c0.218,3.712-1.022,7.288-3.494,10.067c-2.471,2.779-5.876,4.43-9.589,4.647c-3.807,0.227-7.486-1.126-10.23-3.642l14.678-17.981
	c2.385,1.033,4.899,1.737,7.475,2.101C194.801,368.629,195.193,370.239,195.292,371.928z M150.185,385.981
	c-22.541-19.922-40.046-44.984-50.95-72.884l10.653-6.094l-0.611,3.239c-0.768,4.07,1.91,7.992,5.98,8.759
	c0.47,0.088,0.937,0.131,1.398,0.131c3.535,0,6.683-2.511,7.362-6.112l0.865-4.587c4.152,2.233,8.844,3.472,13.696,3.472
	c0.561,0,1.124-0.016,1.688-0.049c9.307-0.546,17.584-5.489,22.522-13.065c1.133,0.135,2.278,0.224,3.438,0.224
	c0.569,0,1.143-0.017,1.717-0.051c7.712-0.452,14.787-3.881,19.92-9.655s7.711-13.201,7.258-20.913
	c-0.174-2.957-0.791-5.831-1.818-8.547l65.225-6.598L150.185,385.981z M179.819,267c0.168,0.744,0.282,1.503,0.327,2.277
	c0.218,3.712-1.022,7.288-3.494,10.067c-2.471,2.779-5.876,4.43-9.589,4.648c-3.922,0.227-7.635-1.2-10.362-3.767L179.819,267z
	 M143.407,287.829c1.462,1.885,3.131,3.577,4.984,5.029c-2.361,2.347-5.534,3.82-9.004,4.023c-2.918,0.17-5.757-0.598-8.157-2.087
	L143.407,287.829z M141.541,169.077c3.709-0.218,7.287,1.022,10.066,3.494s4.43,5.876,4.647,9.588
	c0.021,0.361,0.016,0.72,0.01,1.078l-26.031-7.086C132.522,172.116,136.752,169.358,141.541,169.077z M67.24,174.548l165.315,45.003
	l-148.72,85.075C62.936,264.54,57.077,218.629,67.24,174.548z M218.983,460.447c-43.698-11.582-81.56-38.201-107.271-75.422
	l10.079-6.394c6.604,7.547,13.755,14.641,21.442,21.174c2.075,1.763,4.653,2.705,7.354,2.705c0.354,0,0.709-0.016,1.065-0.049
	c3.05-0.278,5.906-1.792,7.835-4.156l3.006-3.683c5.198,4.488,11.883,7.045,18.895,7.045c0.565,0,1.133-0.017,1.701-0.05
	c7.712-0.453,14.787-3.882,19.92-9.655s7.71-13.2,7.258-20.913c-0.116-1.98-0.45-3.94-0.965-5.849
	c3.963-1.65,7.537-4.182,10.473-7.484c5.133-5.773,7.711-13.2,7.258-20.913c-0.113-1.923-0.411-3.806-0.884-5.629l1.082,0.041
	c0.097,0.004,0.193,0.006,0.289,0.006c4.011,0,7.337-3.174,7.49-7.217c0.157-4.139-3.072-7.621-7.211-7.778l-1.273-0.048
	l6.752-8.271l23.11-14.66L218.983,460.447z M240.208,434.28l4.094-18.302c0.762,0.061,1.526,0.101,2.294,0.101
	c0.571,0,1.145-0.017,1.718-0.05c15.632-0.918,27.659-14.156,27.206-29.705c0.922,0.377,1.88,0.569,2.826,0.569
	c2.783,0,5.456-1.555,6.753-4.227c1.808-3.727,0.253-8.214-3.473-10.022l-1.959-0.951c2.397-4.579,3.561-9.781,3.249-15.102
	c-0.529-9.01-5.251-16.986-12.277-21.944l33.104-58.683l45.994,165.046C313.102,449.708,275.416,447.383,240.208,434.28z"/>
<g>
</g>
<g>
</g>
<g>
</g>
<g>
</g>
<g>
</g>
<g>
</g>
<g>
</g>
<g>
</g>
<g>
</g>
<g>
</g>
<g>
</g>
<g>
</g>
<g>
</g>
<g>
</g>
<g>
</g>
</svg>
