<?xml version="1.0" encoding="iso-8859-1"?>
<!-- Generator: Adobe Illustrator 19.0.0, SVG Export Plug-In . SVG Version: 6.00 Build 0)  -->
<svg version="1.1" id="Layer_1" xmlns="http://www.w3.org/2000/svg" xmlns:xlink="http://www.w3.org/1999/xlink" x="0px" y="0px"
	 viewBox="0 0 512.001 512.001" style="enable-background:new 0 0 512.001 512.001;" xml:space="preserve">
<path style="fill:#F65200;" d="M256,26.5c-126.548,0-229.502,102.954-229.502,229.502s102.955,229.5,229.502,229.5
	S485.501,382.548,485.501,256S382.547,26.5,256,26.5z M466.282,273.18c-4.01,49.729-25.709,96.607-61.102,132
	s-82.27,57.093-131.999,61.103c-0.226,0.019-0.45,0.027-0.672,0.027c-4.26,0-7.874-3.275-8.223-7.594
	c-0.014-0.173-0.012-0.344-0.015-0.514c-2.744,0.11-5.499,0.182-8.27,0.182c-2.771,0-5.525-0.072-8.269-0.182
	c-0.003,0.171-0.001,0.341-0.015,0.514c-0.348,4.32-3.963,7.594-8.223,7.594c-0.222,0-0.446-0.009-0.672-0.027
	c-52.669-4.247-101.528-28.005-137.578-66.896C64.992,360.279,45.028,309.357,45.028,256C45.028,139.67,139.67,45.029,256,45.029
	c53.357,0,104.278,19.964,143.386,56.214c38.891,36.05,62.649,84.909,66.896,137.578c0.367,4.545-3.021,8.529-7.568,8.894
	c-0.173,0.013-0.342,0.012-0.513,0.014c0.11,2.744,0.182,5.499,0.182,8.27c0,2.771-0.072,5.525-0.182,8.269
	c0.171,0.003,0.34,0.002,0.513,0.017C463.261,264.651,466.649,268.634,466.282,273.18z"/>
<path d="M509.582,88.74l-12.333-12.333l7.605-7.605c1.548-1.548,2.418-3.649,2.418-5.839s-0.87-4.291-2.418-5.839L454.877,7.147
	c-3.226-3.225-8.454-3.225-11.679,0l-7.604,7.604L423.26,2.419c-3.224-3.225-8.453-3.225-11.678,0l-37.593,37.593
	C338.226,20.411,297.918,9.984,256,9.984c-65.714,0-127.493,25.59-173.96,72.057S9.983,190.287,9.983,256
	c0,41.917,10.428,82.225,30.029,117.988L2.419,411.582c-3.225,3.225-3.225,8.454,0,11.678l12.333,12.333l-7.605,7.605
	c-1.548,1.548-2.418,3.649-2.418,5.839c0,2.19,0.87,4.291,2.418,5.839l49.977,49.976c1.613,1.612,3.727,2.419,5.84,2.419
	c2.113,0,4.227-0.806,5.84-2.419l7.604-7.604l12.334,12.333c1.612,1.612,3.726,2.419,5.839,2.419s4.227-0.806,5.84-2.419
	l37.593-37.593c35.762,19.601,76.071,30.03,117.988,30.03c65.714,0,127.493-25.59,173.96-72.057s72.057-108.247,72.057-173.96
	c0-41.917-10.428-82.225-30.029-117.988l37.592-37.595C512.807,97.194,512.807,91.965,509.582,88.74z M449.038,24.665l38.298,38.298
	l-12.541,12.54l-38.297-38.298L449.038,24.665z M256,485.502C129.452,485.502,26.498,382.548,26.498,256S129.453,26.5,256,26.5
	S485.501,129.452,485.501,256S382.547,485.502,256,485.502z M62.963,487.335l-38.298-38.298l12.541-12.54l38.296,38.298
	L62.963,487.335z M94.58,492.064l-6.494-6.494l4.935-4.935c3.225-3.225,3.225-8.454,0-11.678L43.045,418.98
	c-3.225-3.225-8.453-3.225-11.679,0l-4.935,4.935l-6.494-6.494l28.781-28.781c9.487,14.761,20.619,28.616,33.322,41.32
	s26.559,23.835,41.32,33.322L94.58,492.064z M463.283,123.36c-9.487-14.761-20.619-28.616-33.322-41.32s-26.559-23.835-41.32-33.322
	l28.78-28.781l6.494,6.494l-4.935,4.935c-3.225,3.225-3.225,8.454,0,11.678l49.976,49.977c1.613,1.613,3.726,2.419,5.84,2.419
	c2.113,0,4.227-0.806,5.84-2.419l4.935-4.935l6.494,6.494L463.283,123.36z"/>
<g>
	
		<rect x="434.837" y="41.226" transform="matrix(0.7071 0.7071 -0.7071 0.7071 170.7152 -311.9528)" style="fill:#F67E42;" width="54.161" height="17.738"/>
	
		<rect x="23.012" y="453.046" transform="matrix(-0.7071 -0.7071 0.7071 -0.7071 -241.1095 823.96)" style="fill:#F67E42;" width="54.161" height="17.738"/>
</g>
<path style="fill:#D4C3DD;" d="M271.854,449.82c95.426-7.695,170.272-82.541,177.966-177.967c0.351-4.373,4.048-7.671,8.381-7.584
	c0.11-2.744,0.182-5.498,0.182-8.269c0-2.771-0.072-5.526-0.182-8.27c-4.339,0.078-8.03-3.209-8.381-7.582
	C441.745,139.996,356.608,61.545,256,61.545C148.776,61.545,61.544,148.777,61.544,256c0,100.609,78.452,185.744,178.603,193.82
	c4.373,0.352,7.665,4.053,7.583,8.381c2.744,0.11,5.498,0.182,8.269,0.182s5.526-0.072,8.27-0.182
	C264.19,453.873,267.481,450.173,271.854,449.82z M256,375.462c-2.566,1.724-5.305,3.192-8.196,4.39
	c-5.7,2.362-11.697,3.559-17.823,3.559c-18.927,0-35.839-11.299-43.082-28.787l-40-96.568c-7.506-18.123-7.506-38.084,0-56.207
	c7.506-18.123,21.622-32.237,39.744-39.743c8.979-3.719,18.423-5.606,28.07-5.606c11.503,0,22.83,2.745,33.029,7.869v-27.525
	c0-4.561,3.696-8.258,8.258-8.258c4.562,0,8.258,3.697,8.258,8.258v27.525c10.199-5.123,21.526-7.869,33.029-7.869
	c9.646,0,19.09,1.886,28.07,5.606c37.411,15.495,55.24,58.539,39.744,95.95l-40,96.568c-7.242,17.486-24.154,28.787-43.081,28.787
	c-0.001,0,0,0-0.001,0c-6.126,0-12.124-1.197-17.824-3.558C261.305,378.656,258.565,377.188,256,375.462z"/>
<path style="fill:#F60A00;" d="M282.019,366.895c12.225,0,23.146-7.297,27.824-18.591l40-96.568
	c12.009-28.997-1.81-62.359-30.807-74.37c-6.965-2.886-14.284-4.349-21.75-4.349c-13.092,0-25.898,4.568-36.067,12.865
	c-0.008,0.007-0.017,0.01-0.024,0.017c-0.35,0.284-0.726,0.537-1.121,0.762c-0.025,0.014-0.05,0.032-0.076,0.046
	c-0.371,0.206-0.763,0.379-1.167,0.526c-0.058,0.022-0.117,0.044-0.175,0.064c-0.386,0.131-0.784,0.235-1.194,0.308
	c-0.068,0.012-0.137,0.021-0.206,0.031c-0.412,0.063-0.829,0.106-1.259,0.106s-0.847-0.043-1.259-0.106
	c-0.068-0.011-0.137-0.019-0.206-0.031c-0.41-0.074-0.807-0.176-1.194-0.308c-0.059-0.02-0.117-0.043-0.175-0.064
	c-0.404-0.148-0.796-0.32-1.167-0.526c-0.025-0.014-0.05-0.032-0.076-0.046c-0.394-0.225-0.77-0.478-1.121-0.762
	c-0.008-0.007-0.017-0.01-0.024-0.017c-10.167-8.296-22.975-12.865-36.067-12.865c-7.465,0-14.784,1.463-21.75,4.349
	c-14.048,5.818-24.987,16.758-30.806,30.805c-5.819,14.046-5.819,29.519-0.001,43.565l40,96.568
	c4.678,11.293,15.599,18.591,27.824,18.591c3.946,0,7.817-0.774,11.502-2.301c3.31-1.371,6.308-3.287,8.912-5.693
	c1.583-1.462,3.594-2.193,5.606-2.193c2.012,0,4.022,0.731,5.606,2.193c2.604,2.407,5.602,4.323,8.911,5.694
	C274.202,366.121,278.073,366.895,282.019,366.895z M214.713,206.051c-3.105,0-6.17,0.618-9.109,1.834
	c-5.883,2.437-10.469,7.03-12.915,12.934c-2.445,5.904-2.451,12.395-0.014,18.278c1.746,4.214-0.254,9.044-4.469,10.789
	c-1.033,0.428-2.104,0.631-3.157,0.631c-3.24,0-6.315-1.919-7.633-5.1c-4.126-9.958-4.12-20.939,0.013-30.918
	c4.133-9.98,11.895-17.748,21.853-21.873c4.954-2.051,10.145-3.092,15.43-3.092c4.562,0,8.258,3.697,8.258,8.258
	C222.971,202.354,219.274,206.051,214.713,206.051z"/>
<path d="M282.02,383.411c18.926,0,35.839-11.3,43.081-28.787l40-96.568c15.495-37.411-2.333-80.454-39.744-95.95
	c-8.979-3.719-18.423-5.606-28.07-5.606c-11.503,0-22.83,2.745-33.029,7.869v-27.525c0-4.561-3.696-8.258-8.258-8.258
	s-8.258,3.697-8.258,8.258v27.525c-10.199-5.123-21.526-7.869-33.029-7.869c-9.647,0-19.09,1.886-28.07,5.606
	c-18.123,7.506-32.237,21.621-39.744,39.743s-7.506,38.083,0,56.207l40,96.568c7.243,17.487,24.154,28.787,43.082,28.787
	c6.125,0,12.123-1.197,17.823-3.559c2.891-1.198,5.631-2.666,8.196-4.39c2.566,1.724,5.304,3.193,8.195,4.391
	C269.895,382.214,275.893,383.411,282.02,383.411C282.02,383.411,282.019,383.411,282.02,383.411z M256,356.708
	c-2.012,0-4.022,0.731-5.606,2.193c-2.603,2.407-5.602,4.322-8.912,5.693c-3.686,1.527-7.556,2.301-11.502,2.301
	c-12.225,0-23.146-7.297-27.824-18.591l-40-96.568c-5.818-14.046-5.818-29.519,0.001-43.565
	c5.818-14.046,16.758-24.987,30.806-30.805c6.965-2.886,14.284-4.349,21.75-4.349c13.092,0,25.898,4.568,36.067,12.865
	c0.008,0.007,0.017,0.01,0.024,0.017c0.35,0.284,0.726,0.537,1.121,0.762c0.025,0.014,0.05,0.032,0.076,0.046
	c0.371,0.206,0.763,0.379,1.167,0.526c0.058,0.022,0.117,0.044,0.175,0.064c0.386,0.131,0.784,0.235,1.194,0.308
	c0.068,0.012,0.137,0.021,0.206,0.031c0.412,0.063,0.829,0.106,1.259,0.106c0.429,0,0.847-0.043,1.259-0.106
	c0.068-0.011,0.137-0.019,0.206-0.031c0.41-0.074,0.807-0.176,1.194-0.308c0.059-0.02,0.117-0.043,0.175-0.064
	c0.404-0.148,0.796-0.32,1.167-0.526c0.025-0.014,0.05-0.032,0.076-0.046c0.394-0.225,0.77-0.478,1.121-0.762
	c0.008-0.007,0.017-0.01,0.024-0.017c10.167-8.296,22.975-12.865,36.067-12.865c7.465,0,14.784,1.463,21.75,4.349
	c28.997,12.011,42.816,45.373,30.807,74.37l-40,96.568c-4.678,11.294-15.599,18.591-27.824,18.591c-3.946,0-7.818-0.774-11.503-2.3
	c-3.309-1.371-6.307-3.287-8.911-5.694C260.023,357.439,258.011,356.708,256,356.708z"/>
<path style="fill:#FFFFFF;" d="M214.713,189.535c-5.285,0-10.477,1.041-15.43,3.092c-9.958,4.125-17.72,11.893-21.853,21.873
	c-4.133,9.979-4.139,20.96-0.013,30.918c1.317,3.181,4.391,5.1,7.633,5.1c1.053,0,2.124-0.203,3.157-0.631
	c4.214-1.745,6.216-6.577,4.469-10.789c-2.437-5.883-2.431-12.374,0.014-18.278s7.031-10.498,12.915-12.934
	c2.939-1.217,6.004-1.834,9.109-1.834c4.562,0,8.258-3.697,8.258-8.258S219.274,189.535,214.713,189.535z"/>
<path d="M458.714,264.286c-0.173-0.014-0.342-0.012-0.513-0.017c-4.334-0.088-8.03,3.21-8.381,7.584
	c-7.693,95.426-82.54,170.272-177.966,177.967c-4.373,0.352-7.665,4.053-7.583,8.381c0.003,0.171,0.001,0.341,0.015,0.514
	c0.348,4.321,3.963,7.594,8.223,7.594c0.221,0,0.446-0.009,0.672-0.028c49.729-4.01,96.606-25.71,131.999-61.103
	c35.394-35.393,57.093-82.271,61.102-132C466.649,268.634,463.261,264.651,458.714,264.286z"/>
<path d="M240.148,449.82C139.996,441.744,61.544,356.609,61.544,256c0-107.223,87.233-194.455,194.455-194.455
	c100.609,0,185.744,78.452,193.819,178.603c0.351,4.375,4.042,7.66,8.381,7.582c0.171-0.003,0.34-0.001,0.513-0.014
	c4.546-0.367,7.934-4.349,7.568-8.894c-4.246-52.669-28.005-101.528-66.896-137.578C360.278,64.992,309.357,45.029,256,45.029
	C139.67,45.029,45.028,139.67,45.028,256c0,53.356,19.964,104.278,56.214,143.386c36.05,38.892,84.909,62.649,137.578,66.896
	c0.226,0.019,0.449,0.028,0.672,0.028c4.26,0,7.874-3.275,8.223-7.594c0.014-0.173,0.012-0.344,0.015-0.514
	C247.812,453.873,244.521,450.173,240.148,449.82z"/>
<g>
</g>
<g>
</g>
<g>
</g>
<g>
</g>
<g>
</g>
<g>
</g>
<g>
</g>
<g>
</g>
<g>
</g>
<g>
</g>
<g>
</g>
<g>
</g>
<g>
</g>
<g>
</g>
<g>
</g>
</svg>
