<?xml version="1.0" encoding="iso-8859-1"?>
<!-- Generator: Adobe Illustrator 19.0.0, SVG Export Plug-In . SVG Version: 6.00 Build 0)  -->
<svg version="1.1" id="Capa_1" xmlns="http://www.w3.org/2000/svg" xmlns:xlink="http://www.w3.org/1999/xlink" x="0px" y="0px"
	 viewBox="0 0 512 512" style="enable-background:new 0 0 512 512;" xml:space="preserve">
<circle style="fill:#F7F0E6;" cx="256" cy="256" r="248.5"/>
<path style="fill:#EEE2D4;" d="M258.74,120.169c-1.404-3.744-5.633-5.678-9.344-4.186c-36.386,14.631-70.501,36.617-99.984,66.099
	s-51.468,63.597-66.099,99.983c-1.492,3.71,0.442,7.939,4.186,9.344l259.279,97.229c5.739,2.152,11.343-3.452,9.191-9.191
	L258.74,120.169z"/>
<circle style="fill:#BE6C84;" cx="277.18" cy="277.18" r="103.61"/>
<path style="fill:#B45573;" d="M346.451,354.064L278.795,173.65c-0.544-0.008-1.072-0.082-1.619-0.082
	c-57.222,0-103.609,46.387-103.609,103.609c0,18.864,5.122,36.497,13.93,51.732l123.236,46.214
	C324.094,370.545,336.185,363.32,346.451,354.064z"/>
<path style="fill:#FBE6A5;" d="M276.949,105.709c-1.404-3.744-5.633-5.678-9.344-4.186c-36.386,14.631-70.501,36.617-99.984,66.099
	s-51.468,63.597-66.099,99.983c-1.492,3.71,0.442,7.939,4.186,9.344l259.279,97.229c5.739,2.152,11.343-3.452,9.191-9.191
	L276.949,105.709z"/>
<path style="fill:#D79D8C;" d="M341.183,280.956c0.186-0.871,0.353-1.747,0.499-2.627l-22.513-60.035
	c-13.302-9.275-30.8-12.211-48.841-6.393c-18.677,6.024-33.947,20.116-42.924,37.419c-0.351-0.015-0.682-0.105-1.038-0.105
	c-13.212,0-23.922,10.71-23.922,23.922c0,10.914,7.354,20.019,17.345,22.891c2.088,11.587,7.068,21.416,14.047,28.968l43.882,16.456
	c4.386-0.405,8.855-1.278,13.362-2.731c10.511-3.39,19.871-9.403,27.704-17.036c3.241,1.415,6.984,1.891,10.922,0.95
	c6.202-1.482,11.287-6.617,12.64-12.848c0.599-2.758,0.526-5.422-0.08-7.874C340.556,295,339.7,287.922,341.183,280.956z"/>
<g>
	<circle style="fill:#B45573;" cx="257.17" cy="284.62" r="17.14"/>
	<circle style="fill:#B45573;" cx="276.69" cy="246.39" r="21.422"/>
</g>
<path style="fill:#D0A56C;" d="M276.949,105.709c-1.404-3.744-5.633-5.678-9.344-4.186c-36.386,14.631-70.501,36.617-99.983,66.099
	s-51.468,63.597-66.099,99.983c-1.492,3.71,0.442,7.939,4.186,9.344l26.599,9.974c0.776-8.283-1.132-17.774,2.445-24.897
	c4.462-8.886,17.286-13.106,22.746-21.577c5.377-8.345,3.902-21.766,10.251-29.626c6.223-7.704,19.645-9.106,26.806-16.267
	c7.162-7.162,8.564-20.585,16.268-26.808c7.86-6.349,21.28-4.872,29.623-10.249c4.235-2.729,7.408-7.3,10.632-11.746
	s6.5-8.767,10.943-10.998c7.124-3.577,16.618-1.671,24.901-2.447L276.949,105.709z"/>
<path style="fill:#A04B69;" d="M272.965,250.114c-6.342-6.342-7.853-15.663-4.579-23.45c-2.485,1.044-4.822,2.555-6.846,4.579
	c-8.366,8.366-8.366,21.93,0,30.296s21.93,8.366,30.296,0c2.023-2.024,3.534-4.361,4.578-6.846
	C288.626,257.967,279.307,256.456,272.965,250.114z"/>
<circle style="fill:#B45573;" cx="298.68" cy="284.62" r="17.14"/>
<path d="M437.019,74.981C388.667,26.629,324.38,0,256,0S123.333,26.629,74.981,74.981S0,187.62,0,256s26.629,132.667,74.981,181.019
	S187.62,512,256,512s132.667-26.629,181.019-74.981S512,324.38,512,256S485.371,123.333,437.019,74.981z M426.413,426.413
	C380.894,471.932,320.374,497,256,497s-124.894-25.068-170.413-70.587S15,320.374,15,256S40.068,131.106,85.587,85.587
	S191.626,15,256,15s124.894,25.068,170.413,70.587S497,191.626,497,256S471.932,380.894,426.413,426.413z"/>
<path d="M312.287,265.324c-2.829-2.829-6.187-4.802-9.754-5.964c5.426-10.836,3.634-24.392-5.394-33.42
	c-5.463-5.463-12.726-8.472-20.451-8.472c-7.726,0-14.989,3.009-20.451,8.472c-5.463,5.462-8.472,12.726-8.472,20.451
	c0,4.57,1.061,8.974,3.052,12.944c-3.626,1.188-6.952,3.213-9.728,5.989c-9.606,9.606-9.606,25.237,0,34.843
	c4.653,4.653,10.841,7.216,17.422,7.216c6.581,0,12.769-2.563,17.421-7.216c0.269-0.269,0.502-0.559,0.756-0.837
	c0.254,0.278,0.487,0.568,0.756,0.837c4.803,4.803,11.112,7.205,17.421,7.205c6.31,0,12.619-2.401,17.422-7.205
	C321.893,290.562,321.893,274.931,312.287,265.324C312.287,265.325,312.287,265.325,312.287,265.324z M266.843,236.547
	c2.63-2.63,6.126-4.078,9.845-4.078s7.215,1.449,9.845,4.078c5.428,5.428,5.428,14.261,0,19.689c-5.429,5.428-14.262,5.428-19.689,0
	c-2.629-2.63-4.078-6.126-4.078-9.845S264.213,239.177,266.843,236.547z M265.324,289.562c-1.82,1.82-4.24,2.823-6.814,2.823
	s-4.995-1.002-6.815-2.823c-3.758-3.758-3.758-9.873,0-13.63c1.879-1.879,4.347-2.818,6.815-2.818s4.936,0.939,6.815,2.818
	C269.083,279.689,269.083,285.804,265.324,289.562z M301.68,289.562c-3.757,3.757-9.872,3.758-13.63,0s-3.758-9.873,0-13.63
	c1.879-1.879,4.347-2.818,6.815-2.818c2.468,0,4.937,0.939,6.815,2.818C305.438,279.689,305.438,285.804,301.68,289.562z"/>
<path d="M355.234,199.61c-12.661-12.661-28.307-22.085-45.311-27.33l-28.509-76.025c-1.454-3.877-5.775-5.841-9.651-4.391
	c-41.347,15.475-78.169,39.18-109.444,70.454c-31.274,31.274-54.979,68.096-70.454,109.444c-1.452,3.877,0.514,8.198,4.391,9.651
	l76.012,28.504c5.255,17.027,14.659,32.632,27.343,45.316c17.91,17.911,41.63,29.162,66.789,31.681
	c3.646,0.365,7.294,0.546,10.939,0.546c20.417,0,40.584-5.692,57.928-16.418l41.794,15.673c0.857,0.321,1.748,0.478,2.632,0.478
	c1.955,0,3.873-0.765,5.305-2.197c2.08-2.08,2.752-5.183,1.719-7.937l-15.676-41.802
	C397.686,292.198,391.277,235.653,355.234,199.61z M172.925,172.925c27.974-27.974,60.615-49.58,97.109-64.297l7.608,20.29
	c-1.121,0.005-2.276-0.01-3.453-0.028c-6.028-0.096-12.857-0.201-19.002,2.88c-6.041,3.029-10.083,8.607-13.035,12.68l-0.518,0.715
	c-2.528,3.497-4.916,6.8-7.5,8.464c-2.496,1.607-6.435,2.399-10.606,3.238c-5.924,1.192-12.639,2.543-18.014,6.883
	c-5.255,4.243-7.964,10.44-10.354,15.908c-1.738,3.976-3.379,7.73-5.576,9.927s-5.952,3.838-9.927,5.576
	c-5.467,2.39-11.664,5.098-15.907,10.352c-4.34,5.375-5.691,12.091-6.884,18.016c-0.839,4.171-1.632,8.111-3.239,10.607
	c-1.664,2.585-4.969,4.974-8.467,7.503c-4.851,3.507-10.35,7.482-13.393,13.552c-3.081,6.145-2.974,12.974-2.879,19
	c0.019,1.177,0.034,2.332,0.029,3.452l-20.289-7.608C123.346,233.54,144.952,200.899,172.925,172.925z M267.894,371.99
	c-21.724-2.175-42.208-11.893-57.677-27.362c-8.047-8.047-14.565-17.451-19.256-27.7l125.601,47.1
	C301.434,370.843,284.586,373.662,267.894,371.99z M330.894,228.2c-1.454-3.879-5.779-5.842-9.656-4.389
	c-3.878,1.455-5.844,5.777-4.389,9.656l50.029,133.41l-223.232-83.712c0.323-3.153,0.288-6.29,0.242-9.209
	c-0.074-4.722-0.144-9.182,1.291-12.042c1.397-2.788,4.979-5.377,8.772-8.119c4.263-3.082,9.095-6.576,12.291-11.54
	c3.141-4.878,4.305-10.663,5.332-15.767c0.936-4.647,1.819-9.037,3.85-11.552c1.939-2.401,5.973-4.165,10.244-6.031
	c4.84-2.115,10.325-4.513,14.526-8.713c4.2-4.201,6.598-9.687,8.713-14.526c1.867-4.271,3.631-8.305,6.033-10.245
	c2.514-2.03,6.903-2.913,11.55-3.848c5.104-1.027,10.888-2.191,15.767-5.332c4.962-3.195,8.455-8.025,11.536-12.288l0.507-0.701
	c2.651-3.658,5.054-6.79,7.613-8.073c2.861-1.434,7.323-1.364,12.044-1.292c2.919,0.045,6.057,0.08,9.21-0.242l21.625,57.669
	c1.454,3.879,5.779,5.843,9.656,4.389c3.878-1.455,5.844-5.777,4.389-9.656l-1.902-5.071c10.245,4.694,19.664,11.211,27.694,19.24
	c28.198,28.198,35.395,70.921,19.405,106.355L330.894,228.2z"/>
<g>
</g>
<g>
</g>
<g>
</g>
<g>
</g>
<g>
</g>
<g>
</g>
<g>
</g>
<g>
</g>
<g>
</g>
<g>
</g>
<g>
</g>
<g>
</g>
<g>
</g>
<g>
</g>
<g>
</g>
</svg>
