<?xml version="1.0" encoding="iso-8859-1"?>
<!-- Generator: Adobe Illustrator 19.0.0, SVG Export Plug-In . SVG Version: 6.00 Build 0)  -->
<svg version="1.1" id="Capa_1" xmlns="http://www.w3.org/2000/svg" xmlns:xlink="http://www.w3.org/1999/xlink" x="0px" y="0px"
	 viewBox="0 0 512 512" style="enable-background:new 0 0 512 512;" xml:space="preserve">
<circle style="fill:#F7F0E6;" cx="256" cy="256" r="248.5"/>
<g>
	<circle style="fill:#EEE2D4;" cx="141.74" cy="218.34" r="94.26"/>
	<circle style="fill:#EEE2D4;" cx="330.25" cy="218.34" r="94.26"/>
	<circle style="fill:#EEE2D4;" cx="235.97" cy="381.69" r="94.26"/>
</g>
<g>
	<path style="fill:#E7E185;" d="M213.869,87.678l78.929,33.361c4.994-21.402-4.957-43.436-24.639-51.755
		S225.739,69.182,213.869,87.678z"/>
	<path style="fill:#E7E185;" d="M374.913,317.805l34.463,78.454c18.327-12.127,26.226-34.978,17.632-54.541
		C418.414,322.154,396.243,312.512,374.913,317.805z"/>
	<path style="fill:#E7E185;" d="M127.644,290.269l-42.996,74.122c20.606,7.638,43.714,0.529,54.436-17.954
		C149.806,327.953,144.505,304.365,127.644,290.269z"/>
</g>
<circle style="fill:#FDE185;" cx="255.97" cy="361.69" r="94.26"/>
<path style="fill:#FFCD6E;" d="M308.556,420.551c22.689-27.207,17.542-75.616-11.498-108.124
	c-29.04-32.508-70.974-36.806-93.664-9.599s-17.542,75.616,11.498,108.124C243.931,443.461,285.866,447.758,308.556,420.551z"/>
<path style="fill:#C9E66E;" d="M246.437,390.601l-17.098,1.168c-4.722,0.322-8.81-3.244-9.133-7.965l-1.168-17.098
	c-0.322-4.722,3.244-8.81,7.965-9.133l17.098-1.168c4.722-0.322,8.81,3.244,9.133,7.965l1.168,17.098
	C254.725,386.189,251.158,390.278,246.437,390.601z"/>
<path style="fill:#FFAF5D;" d="M247.637,346.78l-15.633,7.023c-4.317,1.939-9.389,0.012-11.328-4.305l-7.023-15.633
	c-1.939-4.317-0.012-9.389,4.305-11.328l15.633-7.023c4.317-1.939,9.389-0.012,11.328,4.305l7.023,15.633
	C253.882,339.768,251.954,344.84,247.637,346.78z"/>
<path style="fill:#FFBE50;" d="M289.944,354.26l-8.977,14.599c-2.479,4.031-7.757,5.29-11.788,2.811l-14.599-8.977
	c-4.031-2.479-5.29-7.757-2.811-11.788l8.977-14.599c2.479-4.031,7.757-5.29,11.788-2.811l14.599,8.977
	C291.165,344.951,292.423,350.228,289.944,354.26z"/>
<circle style="fill:#C9E66E;" cx="261.89" cy="314.91" r="15.531"/>
<path style="fill:#FFAF5D;" d="M287.683,406.046l-15.995,6.155c-4.417,1.7-9.375-0.503-11.075-4.92l-6.155-15.995
	c-1.7-4.417,0.503-9.375,4.92-11.075l15.995-6.155c4.417-1.7,9.375,0.503,11.075,4.92l6.155,15.995
	C294.302,399.388,292.1,404.346,287.683,406.046z"/>
<circle style="fill:#FFBE50;" cx="242.61" cy="407.56" r="15.531"/>
<circle style="fill:#FDE185;" cx="350.26" cy="198.34" r="94.26"/>
<path style="fill:#FFCD6E;" d="M425.284,229.526c9.43-34.148-15.248-76.112-55.12-93.727c-39.872-17.616-79.839-4.213-89.269,29.935
	c-9.43,34.149,15.248,76.112,55.12,93.727C375.887,277.077,415.854,263.675,425.284,229.526z"/>
<path style="fill:#C9E66E;" d="M356.341,227.899l-15.09,8.124c-4.167,2.243-9.364,0.684-11.607-3.483l-8.124-15.09
	c-2.243-4.167-0.684-9.364,3.483-11.607l15.09-8.124c4.167-2.243,9.364-0.684,11.607,3.483l8.124,15.09
	C362.068,220.459,360.508,225.656,356.341,227.899z"/>
<path style="fill:#FFAF5D;" d="M339.339,187.493l-11.337,12.852c-3.131,3.549-8.546,3.888-12.095,0.757l-12.852-11.337
	c-3.549-3.131-3.888-8.546-0.757-12.095l11.337-12.852c3.131-3.549,8.546-3.888,12.095-0.757l12.852,11.337
	C342.131,178.529,342.47,183.944,339.339,187.493z"/>
<path style="fill:#FFBE50;" d="M380.959,176.835l-2.148,17.003c-0.593,4.695-4.88,8.021-9.575,7.428l-17.003-2.148
	c-4.695-0.593-8.021-4.88-7.428-9.575l2.148-17.003c0.593-4.695,4.88-8.021,9.575-7.428l17.003,2.148
	C378.227,167.853,381.552,172.14,380.959,176.835z"/>
<circle style="fill:#C9E66E;" cx="339.16" cy="152.58" r="15.531"/>
<path style="fill:#FFAF5D;" d="M400.284,224.934l-12.026,12.21c-3.321,3.372-8.746,3.413-12.118,0.092l-12.21-12.026
	c-3.372-3.321-3.413-8.746-0.092-12.118l12.026-12.21c3.321-3.372,8.746-3.413,12.118-0.092l12.21,12.026
	C403.564,216.137,403.605,221.562,400.284,224.934z"/>
<circle style="fill:#FFBE50;" cx="359.86" cy="244.93" r="15.531"/>
<circle style="fill:#FDE185;" cx="161.74" cy="198.34" r="94.26"/>
<path style="fill:#FFCD6E;" d="M162.034,276.376c35.083-4.919,63.782-44.243,64.099-87.831
	c0.318-43.589-27.866-74.937-62.949-70.018s-63.782,44.243-64.099,87.831C98.767,249.947,126.95,281.295,162.034,276.376z"/>
<path style="fill:#C9E66E;" d="M136.125,212.466l-13.452-10.618c-3.715-2.932-4.349-8.32-1.417-12.035l10.618-13.452
	c2.932-3.715,8.32-4.349,12.035-1.417l13.452,10.618c3.715,2.932,4.349,8.32,1.417,12.035l-10.618,13.452
	C145.228,214.763,139.84,215.398,136.125,212.466z"/>
<path style="fill:#FFAF5D;" d="M166.446,180.805l-16.299-5.296c-4.501-1.462-6.964-6.297-5.502-10.797l5.296-16.299
	c1.462-4.501,6.297-6.964,10.797-5.502l16.299,5.296c4.501,1.462,6.964,6.297,5.502,10.797l-5.296,16.299
	C175.781,179.804,170.946,182.267,166.446,180.805z"/>
<path style="fill:#FFBE50;" d="M192.767,214.761l-16.456,4.787c-4.544,1.322-9.299-1.29-10.621-5.834l-4.787-16.456
	c-1.322-4.544,1.29-9.299,5.834-10.621l16.456-4.787c4.544-1.322,9.299,1.29,10.621,5.834l4.787,16.456
	C199.923,208.684,197.311,213.439,192.767,214.761z"/>
<circle style="fill:#C9E66E;" cx="198.41" cy="166.77" r="15.531"/>
<path style="fill:#FFAF5D;" d="M156.311,251.611l-15.984-6.182c-4.414-1.707-6.608-6.669-4.901-11.083l6.182-15.984
	c1.707-4.414,6.669-6.608,11.083-4.901l15.984,6.182c4.414,1.707,6.608,6.669,4.901,11.083l-6.182,15.984
	C165.687,251.123,160.725,253.318,156.311,251.611z"/>
<circle style="fill:#FFBE50;" cx="121.9" cy="222.46" r="15.531"/>
<path d="M437.02,74.98C388.667,26.629,324.38,0,256,0S123.333,26.629,74.98,74.98C26.629,123.333,0,187.62,0,256
	s26.629,132.667,74.98,181.02C123.333,485.371,187.62,512,256,512s132.667-26.629,181.02-74.98C485.371,388.667,512,324.38,512,256
	S485.371,123.333,437.02,74.98z M426.413,426.413C380.894,471.932,320.374,497,256,497s-124.894-25.068-170.413-70.587
	S15,320.374,15,256S40.068,131.106,85.587,85.587S191.626,15,256,15s124.894,25.068,170.413,70.587S497,191.626,497,256
	S471.932,380.894,426.413,426.413z"/>
<path d="M373.212,309.704c-2.147,0.529-3.952,1.98-4.931,3.963c-0.979,1.984-1.032,4.298-0.145,6.325l34.346,78.505
	c0.887,2.026,2.623,3.558,4.743,4.186c0.698,0.207,1.415,0.308,2.127,0.308c1.453,0,2.891-0.422,4.13-1.239
	c21.746-14.343,30.348-41.167,20.455-63.782C424.044,315.354,398.501,303.465,373.212,309.704z M412.25,383.397l-26.395-60.332
	c14.878-0.288,28.543,7.663,34.341,20.915C425.994,357.235,422.589,372.657,412.25,383.397z"/>
<path d="M416.027,120.657c-3.16-2.678-7.893-2.286-10.57,0.874c-2.678,3.16-2.287,7.893,0.874,10.57
	c26.909,22.799,37.319,59.226,26.52,92.801c-14.648,45.542-63.616,70.674-109.157,56.027
	c-45.541-14.648-70.674-63.615-56.027-109.156c14.648-45.541,63.616-70.675,109.156-56.027c3.941,1.268,8.168-0.9,9.436-4.843
	c1.269-3.943-0.9-8.168-4.843-9.436c-27.862-8.961-56.813-5.221-80.579,7.982c0.638-21.348-11.083-41.02-30.473-49.215
	c-22.736-9.608-49.451-0.672-63.521,21.251c-1.195,1.861-1.507,4.155-0.853,6.269c0.654,2.113,2.207,3.829,4.245,4.69l71.86,30.374
	c-11.125,10.008-20.168,22.575-26.096,37.179c-19.722-48.583-73.961-74.738-124.83-58.715
	c-25.925,8.166-47.118,25.939-59.675,50.045c-12.558,24.106-14.976,51.66-6.81,77.584c8.166,25.925,25.939,47.118,50.045,59.676
	c1.144,0.596,2.298,1.161,3.456,1.711l-39.508,70.673c-1.08,1.931-1.251,4.239-0.47,6.309s2.436,3.688,4.522,4.424
	c6.158,2.172,12.44,3.212,18.59,3.212c18.384,0,35.569-9.297,44.595-25.442c8.927-15.971,7.957-35.227-1.384-50.799
	c5.647,0.975,11.361,1.475,17.093,1.475c4.88,0,9.772-0.367,14.645-1.081c-13.783,17.364-22.027,39.313-22.027,63.153
	c0,4.142,3.358,7.5,7.5,7.5s7.5-3.358,7.5-7.5c0-47.839,38.92-86.758,86.759-86.758s86.759,38.919,86.759,86.758
	s-38.92,86.759-86.759,86.759c-17.759,0-34.829-5.326-49.364-15.402c-14.212-9.852-25.062-23.526-31.379-39.545
	c-1.52-3.854-5.875-5.747-9.729-4.226c-3.853,1.52-5.745,5.875-4.226,9.729c7.408,18.788,20.129,34.822,36.788,46.37
	c17.058,11.825,37.083,18.075,57.91,18.075c56.11,0,101.759-45.649,101.759-101.759c0-23.849-8.25-45.805-22.042-63.172
	c4.839,0.701,9.674,1.059,14.473,1.059c43.013-0.003,83.08-27.518,96.94-70.61C459.795,190.118,447.586,147.396,416.027,120.657z
	 M264.524,74.05c13.325,5.632,21.461,19.168,21.344,34.077l-60.657-25.638C235.821,72.015,251.199,68.417,264.524,74.05z
	 M132.822,342.152c-7.06,12.628-21.408,19.229-36.211,17.479l32.133-57.48C137.99,313.845,139.88,329.525,132.822,342.152z
	 M121.659,275.283c-20.553-10.707-35.706-28.776-42.668-50.879s-4.9-45.595,5.806-66.147c10.706-20.553,28.775-35.706,50.879-42.668
	c8.642-2.722,17.397-4.016,26.012-4.016c36.871,0,71.154,23.714,82.805,60.701c6.962,22.104,4.9,45.595-5.806,66.148
	s-28.776,35.706-50.879,42.668C165.704,288.051,142.212,285.99,121.659,275.283z M241.546,261.492
	c3.934-4.993,7.442-10.38,10.443-16.142c1.496-2.872,2.832-5.796,4.039-8.758c3.632,8.927,8.505,17.324,14.493,24.908
	c-4.744-0.681-9.591-1.041-14.521-1.041C251.093,260.461,246.269,260.817,241.546,261.492z"/>
<path d="M206.449,324.646c-1.525,4.012-1.396,8.378,0.363,12.293l7.023,15.633c0.473,1.052,1.05,2.025,1.707,2.92
	c-0.021,0.024-0.044,0.044-0.065,0.068c-2.821,3.235-4.214,7.375-3.921,11.657l1.167,17.098c0.292,4.282,2.234,8.194,5.469,11.016
	c1.106,0.965,2.318,1.762,3.605,2.382c-1.42,2.989-2.218,6.328-2.218,9.852c0,12.7,10.332,23.031,23.031,23.031
	c5.548,0,10.643-1.972,14.623-5.251l1.826,5.479c1.048,3.143,3.974,5.13,7.114,5.13c0.786,0,1.586-0.125,2.373-0.387
	c3.929-1.31,6.053-5.558,4.743-9.487l-2.011-6.033c1.048-0.179,2.087-0.454,3.102-0.845l8.13-3.128l2.38,3.059
	c1.479,1.901,3.69,2.896,5.925,2.896c1.609,0,3.231-0.516,4.6-1.581c3.27-2.543,3.858-7.255,1.315-10.525l-0.57-0.733
	c4.188-4.359,5.752-10.905,3.441-16.91l-6.018-15.638l3.405,0.358c0.267,0.028,0.531,0.042,0.794,0.042
	c3.79,0,7.044-2.863,7.45-6.716c0.433-4.119-2.555-7.81-6.674-8.244l-4.338-0.457l2.112-3.435c2.249-3.656,2.938-7.969,1.942-12.145
	c-0.996-4.175-3.557-7.713-7.213-9.961l-11.149-6.856c3.131-3.934,5.009-8.908,5.009-14.316c0-12.7-10.332-23.031-23.031-23.031
	c-9.345,0-17.401,5.597-21.009,13.612l-5.3-8.48c-2.195-3.512-6.823-4.581-10.335-2.385c-3.512,2.195-4.58,6.822-2.385,10.335
	l3.489,5.582l-11.467,5.152C210.969,317.455,207.973,320.634,206.449,324.646z M226.782,365.418
	c0.133-0.152,0.368-0.339,0.733-0.364l17.098-1.168c0.027-0.001,0.053-0.002,0.078-0.002c0.324,0,0.557,0.141,0.698,0.264
	c0.152,0.132,0.339,0.367,0.364,0.733l1.168,17.098c0.025,0.365-0.128,0.624-0.261,0.776c-0.132,0.152-0.367,0.339-0.732,0.364
	l-17.099,1.167c-0.371,0.019-0.624-0.128-0.775-0.261s-0.339-0.368-0.364-0.732l-1.167-17.099
	C226.496,365.829,226.649,365.571,226.782,365.418z M242.611,415.595c-4.428,0-8.031-3.603-8.031-8.031s3.603-8.031,8.031-8.031
	s8.031,3.603,8.031,8.031S247.039,415.595,242.611,415.595z M268.995,405.201c-0.341,0.13-0.632,0.062-0.818-0.021
	c-0.185-0.082-0.432-0.251-0.563-0.592l-6.155-15.995c-0.131-0.341-0.061-0.633,0.021-0.818s0.251-0.432,0.593-0.563l15.994-6.155
	c0.125-0.049,0.255-0.072,0.383-0.072c0.43,0,0.835,0.261,0.999,0.686l6.155,15.994c0.212,0.55-0.063,1.17-0.614,1.382l0,0
	L268.995,405.201z M283.685,349.523c0.047,0.196,0.062,0.496-0.129,0.808l-8.978,14.599c-0.191,0.312-0.465,0.433-0.662,0.479
	c-0.197,0.047-0.497,0.062-0.808-0.129l-14.599-8.977c-0.502-0.309-0.659-0.969-0.351-1.471l8.977-14.599
	c0.192-0.312,0.466-0.433,0.663-0.48c0.072-0.017,0.158-0.03,0.254-0.03c0.165,0,0.357,0.039,0.554,0.16l14.599,8.977
	C283.517,349.052,283.638,349.327,283.685,349.523z M261.891,306.88c4.428,0,8.031,3.603,8.031,8.031s-3.603,8.031-8.031,8.031
	s-8.031-3.603-8.031-8.031S257.463,306.88,261.891,306.88z M220.47,329.974c0.072-0.188,0.228-0.445,0.562-0.595l15.633-7.023
	c0.156-0.07,0.303-0.096,0.436-0.096c0.151,0,0.282,0.033,0.382,0.071c0.188,0.072,0.445,0.228,0.595,0.562l7.023,15.633
	c0.242,0.538,0.001,1.171-0.537,1.413l-15.633,7.023c-0.537,0.242-1.171,0.001-1.413-0.537l-7.023-15.633
	C220.345,330.458,220.399,330.163,220.47,329.974z"/>
<path d="M201.45,360.08c-4.027-0.965-8.076,1.52-9.04,5.548l-1.544,6.45c-0.964,4.028,1.52,8.076,5.548,9.04
	c0.587,0.141,1.174,0.208,1.752,0.208c3.39,0,6.464-2.314,7.288-5.756l1.544-6.45C207.962,365.091,205.478,361.044,201.45,360.08z"
	/>
<path d="M306.925,356.652l2.678,4.284c1.423,2.276,3.867,3.526,6.367,3.526c1.357,0,2.732-0.369,3.968-1.141
	c3.513-2.195,4.58-6.823,2.385-10.335l-2.678-4.284c-2.195-3.512-6.822-4.58-10.335-2.385S304.73,353.14,306.925,356.652z"/>
<path d="M307.593,320.323c-1.004-4.019-5.079-6.463-9.095-5.457c-4.019,1.004-6.462,5.077-5.457,9.095l0.536,2.143
	c0.852,3.408,3.91,5.683,7.27,5.683c0.602,0,1.214-0.073,1.825-0.226c4.019-1.004,6.462-5.077,5.457-9.095L307.593,320.323z"/>
<path d="M189.201,238.329c1.811,0,3.627-0.652,5.066-1.972c3.053-2.799,3.259-7.544,0.46-10.597l-2.948-3.215l3.858-1.175
	c4.106-1.25,7.479-4.024,9.499-7.812c2.019-3.787,2.442-8.134,1.192-12.24l-3.811-12.517c5.113-0.897,9.744-3.465,13.232-7.412l0,0
	c8.41-9.515,7.512-24.099-2.003-32.51c-7.003-6.189-16.746-7.319-24.758-3.7l1.648-9.879c0.681-4.085-2.078-7.95-6.164-8.632
	c-4.085-0.678-7.95,2.078-8.632,6.164l-1.083,6.493l-12.002-3.734c-4.098-1.276-8.448-0.878-12.248,1.118
	c-3.8,1.997-6.595,5.353-7.87,9.452l-5.091,16.365c-0.344,1.104-0.555,2.217-0.655,3.325c-4.114,0.513-8.03,2.599-10.751,6.137
	l-10.449,13.584c-3.652,4.748-4.221,10.901-2.045,16.062c-3.052,1.298-5.877,3.252-8.216,5.898
	c-8.411,9.516-7.512,24.099,2.003,32.509c4.047,3.578,9.108,5.562,14.438,5.741l-2.264,5.323c-1.621,3.812,0.155,8.216,3.966,9.837
	c0.958,0.407,1.953,0.6,2.932,0.6c2.917,0,5.691-1.712,6.905-4.566l2.488-5.849c0.896,0.558,1.859,1.036,2.885,1.418l8.164,3.041
	l-0.243,3.867c-0.26,4.134,2.88,7.696,7.015,7.956c0.16,0.01,0.319,0.015,0.478,0.015c3.927,0,7.228-3.056,7.478-7.03l0.057-0.912
	c6.026-0.491,11.533-4.376,13.779-10.406l5.848-15.702l2.313,2.523C185.15,237.511,187.172,238.329,189.201,238.329z M191.9,206.501
	c-0.095,0.178-0.282,0.413-0.632,0.52l0,0l-16.394,4.993c-0.563,0.171-1.163-0.147-1.334-0.711l-4.992-16.395
	c-0.106-0.35-0.016-0.636,0.079-0.814s0.282-0.413,0.632-0.52l16.395-4.992c0.112-0.034,0.217-0.048,0.315-0.048
	c0.207,0,0.378,0.063,0.499,0.127c0.179,0.095,0.414,0.282,0.52,0.632l4.992,16.395C192.085,206.037,191.995,206.323,191.9,206.501z
	 M192.477,160.816c1.585-1.793,3.798-2.708,6.022-2.708c1.891,0,3.79,0.662,5.314,2.01c3.318,2.933,3.631,8.019,0.698,11.337l0,0
	c-2.933,3.317-8.019,3.63-11.336,0.698c-1.607-1.421-2.565-3.383-2.697-5.524S191.056,162.423,192.477,160.816z M151.87,166.98
	l5.091-16.365c0.108-0.349,0.344-0.534,0.523-0.628c0.179-0.095,0.463-0.184,0.815-0.074l16.364,5.091
	c0.349,0.108,0.534,0.345,0.628,0.523c0.094,0.179,0.183,0.465,0.074,0.814l-5.091,16.364c-0.175,0.563-0.778,0.875-1.338,0.704
	l-16.365-5.092C152.01,168.144,151.694,167.543,151.87,166.98z M127.58,194.716l10.449-13.584c0.223-0.29,0.508-0.382,0.709-0.408
	c0.043-0.005,0.092-0.009,0.144-0.009c0.187,0,0.419,0.048,0.646,0.222l13.583,10.449c0.467,0.36,0.555,1.032,0.196,1.5
	l-10.449,13.584c-0.223,0.29-0.509,0.382-0.709,0.408c-0.203,0.026-0.5,0.01-0.79-0.212l0,0l-13.584-10.449
	C127.308,195.855,127.221,195.183,127.58,194.716z M116.668,217.465c1.421-1.607,3.383-2.565,5.524-2.697
	c0.168-0.011,0.336-0.016,0.504-0.016c1.959,0,3.828,0.706,5.308,2.015c1.607,1.42,2.565,3.382,2.697,5.523
	s-0.578,4.205-1.999,5.812c-2.933,3.317-8.019,3.631-11.336,0.698C114.048,225.869,113.735,220.783,116.668,217.465z
	 M167.435,227.781l-5.981,16.06c-0.206,0.552-0.821,0.834-1.375,0.629l-16.06-5.981c-0.552-0.206-0.834-0.823-0.629-1.375
	l5.982-16.061c0.127-0.343,0.373-0.515,0.557-0.599s0.474-0.158,0.817-0.03l16.06,5.981
	C167.358,226.612,167.64,227.229,167.435,227.781z"/>
<path d="M111.733,175.565c1.488,0,2.991-0.441,4.302-1.361l5.429-3.81c3.391-2.379,4.21-7.057,1.831-10.447
	c-2.379-3.391-7.057-4.21-10.447-1.831l-5.429,3.81c-3.391,2.379-4.21,7.057-1.831,10.447
	C107.047,174.453,109.372,175.565,111.733,175.565z"/>
<path d="M213.223,221.07c-4.088-0.678-7.95,2.078-8.632,6.164l-0.832,4.983c-0.682,4.085,2.078,7.95,6.164,8.632
	c0.418,0.069,0.833,0.103,1.243,0.103c3.6,0,6.777-2.599,7.389-6.267l0.832-4.983C220.068,225.617,217.309,221.752,213.223,221.07z"
	/>
<path d="M215.84,193.545l-1.018,1.96c-1.909,3.676-0.476,8.204,3.2,10.112c1.105,0.574,2.286,0.845,3.45,0.845
	c2.71,0,5.328-1.474,6.663-4.045l1.018-1.96c1.909-3.676,0.476-8.204-3.2-10.112C222.275,188.436,217.749,189.87,215.84,193.545z"/>
<path d="M385.655,163.165c-2.557-3.447-6.304-5.692-10.55-6.321l-12.942-1.917c1.379-5.005,1.042-10.29-1.029-15.133
	c-2.419-5.656-6.897-10.031-12.607-12.32c-5.711-2.289-11.971-2.217-17.627,0.203c-8.591,3.676-13.797,11.99-13.962,20.778
	l-8.208-5.712c-3.399-2.366-8.074-1.529-10.44,1.872c-2.366,3.4-1.528,8.074,1.872,10.44l5.404,3.76l-8.516,9.246
	c-2.908,3.157-4.413,7.258-4.237,11.547c0.177,4.288,2.012,8.251,5.169,11.16l12.605,11.61c0.842,0.775,1.757,1.439,2.719,2.01
	c-0.01,0.031-0.024,0.06-0.034,0.091c-1.322,4.083-0.974,8.438,0.979,12.259l7.798,15.261c2.722,5.326,8.026,8.479,13.614,8.731
	c-0.134,3.312,0.447,6.703,1.835,9.948c2.419,5.656,6.896,10.031,12.607,12.32c2.772,1.111,5.673,1.666,8.572,1.666
	c3.073,0,6.144-0.624,9.054-1.869c4.965-2.124,8.941-5.834,11.387-10.571l3.826,4.311c1.482,1.669,3.542,2.521,5.612,2.521
	c1.771,0,3.548-0.623,4.976-1.891c3.098-2.75,3.38-7.49,0.63-10.588l-4.219-4.752c0.888-0.571,1.732-1.237,2.517-2l6.245-6.074
	l3.39,1.876c1.151,0.637,2.396,0.939,3.625,0.939c2.64,0,5.2-1.396,6.569-3.869c2.006-3.624,0.694-8.188-2.93-10.194l-0.806-0.446
	c0.656-1.73,1.028-3.573,1.055-5.478c0.06-4.292-1.556-8.35-4.549-11.427l-11.683-12.011l3.27-1.009
	c3.958-1.221,6.176-5.42,4.955-9.378c-1.222-3.958-5.422-6.178-9.378-4.955l-4.169,1.286l0.591-3.99
	C389.273,170.849,388.212,166.612,385.655,163.165z M373.608,172.102c0.12,0.162,0.252,0.432,0.199,0.793l0,0l-2.512,16.953
	c-0.086,0.583-0.632,0.986-1.214,0.901l-16.954-2.512c-0.362-0.054-0.581-0.258-0.702-0.42c-0.12-0.162-0.252-0.432-0.199-0.793
	l2.512-16.954c0.054-0.362,0.258-0.581,0.42-0.701c0.136-0.101,0.349-0.211,0.629-0.211c0.052,0,0.107,0.004,0.165,0.012
	l16.952,2.512C373.268,171.735,373.487,171.94,373.608,172.102z M336.799,141.467c1.015-0.434,2.085-0.651,3.157-0.651
	c1.011,0,2.022,0.193,2.989,0.581c1.991,0.798,3.553,2.324,4.396,4.296s0.869,4.155,0.071,6.146
	c-0.798,1.991-2.324,3.553-4.296,4.396c-4.073,1.741-8.801-0.155-10.543-4.226C330.832,147.939,332.728,143.209,336.799,141.467z
	 M308.144,179.734c-0.27-0.249-0.336-0.542-0.344-0.743s0.034-0.499,0.282-0.768l11.61-12.605c0.211-0.229,0.499-0.345,0.788-0.345
	c0.259,0,0.519,0.093,0.724,0.282l12.605,11.611c0.269,0.248,0.335,0.541,0.344,0.742s-0.034,0.499-0.282,0.768l-11.611,12.605
	c-0.248,0.269-0.541,0.335-0.742,0.344c-0.2,0.011-0.499-0.035-0.768-0.282L308.144,179.734z M327.607,209.912
	c-0.167-0.326-0.127-0.623-0.065-0.815s0.205-0.456,0.53-0.623l15.261-7.798c0.172-0.088,0.337-0.119,0.482-0.119
	c0.129,0,0.243,0.024,0.333,0.053c0.192,0.062,0.456,0.205,0.623,0.531l7.798,15.261c0.167,0.326,0.127,0.624,0.065,0.816
	s-0.205,0.456-0.531,0.623l-15.261,7.798c-0.525,0.27-1.171,0.06-1.438-0.465L327.607,209.912z M366.126,244.607
	c-0.798,1.991-2.324,3.553-4.296,4.396s-4.155,0.869-6.146,0.071s-3.553-2.324-4.396-4.296c-1.742-4.071,0.154-8.801,4.225-10.543
	c1.027-0.439,2.095-0.647,3.147-0.647c3.12,0,6.093,1.828,7.396,4.873C366.899,240.433,366.924,242.616,366.126,244.607z
	 M394.608,216.37c-0.003,0.202-0.061,0.497-0.324,0.751l0,0L382,229.071c-0.262,0.254-0.557,0.314-0.76,0.302
	c-0.202-0.002-0.497-0.061-0.752-0.323l-11.95-12.285c-0.255-0.262-0.305-0.558-0.302-0.76s0.061-0.497,0.324-0.752l12.285-11.949
	c0.256-0.249,0.543-0.303,0.745-0.303c0.005,0,0.01,0,0.016,0c0.202,0.003,0.496,0.062,0.751,0.324l11.95,12.285
	C394.561,215.872,394.611,216.168,394.608,216.37z"/>
<path d="M302.152,214.151c-4.083,0.698-6.828,4.574-6.13,8.657l1.118,6.537c0.625,3.656,3.796,6.238,7.384,6.238
	c0.419,0,0.845-0.035,1.272-0.108c4.083-0.698,6.828-4.574,6.13-8.657l-1.118-6.537C310.11,216.198,306.236,213.456,302.152,214.151
	z"/>
<path d="M397.779,169.517l4.147,2.886c1.306,0.908,2.799,1.344,4.277,1.344c2.372,0,4.706-1.122,6.163-3.216
	c2.366-3.4,1.528-8.074-1.872-10.44l-4.147-2.886c-3.401-2.366-8.074-1.528-10.44,1.872
	C393.541,162.476,394.379,167.15,397.779,169.517z"/>
<path d="M384.106,135.852c-2.504-3.3-7.209-3.944-10.508-1.441c-3.3,2.504-3.945,7.208-1.441,10.508l1.335,1.759
	c1.475,1.944,3.714,2.967,5.98,2.967c1.58,0,3.173-0.498,4.528-1.526c3.3-2.504,3.945-7.208,1.441-10.508L384.106,135.852z"/>
<g>
</g>
<g>
</g>
<g>
</g>
<g>
</g>
<g>
</g>
<g>
</g>
<g>
</g>
<g>
</g>
<g>
</g>
<g>
</g>
<g>
</g>
<g>
</g>
<g>
</g>
<g>
</g>
<g>
</g>
</svg>
