<!-- Generated by IcoMoon.io -->
<svg version="1.1" xmlns="http://www.w3.org/2000/svg" width="32" height="32" viewBox="0 0 32 32">
<title>accordion-vertical</title>
<path d="M4 0c-0.276 0-0.5 0.224-0.5 0.5s0.224 0.5 0.5 0.5h23c0.276 0 0.5-0.224 0.5-0.5s-0.224-0.5-0.5-0.5h-23zM30.5 5h-29c-0.827 0-1.5 0.673-1.5 1.5v19c0 0.827 0.673 1.5 1.5 1.5h29c0.827 0 1.5-0.673 1.5-1.5v-19c0-0.827-0.673-1.5-1.5-1.5zM31 25.5c0 0.275-0.225 0.5-0.5 0.5h-29c-0.275 0-0.5-0.225-0.5-0.5v-19c0-0.275 0.225-0.5 0.5-0.5h29c0.275 0 0.5 0.225 0.5 0.5v19zM27 31h-23c-0.276 0-0.5 0.224-0.5 0.5s0.224 0.5 0.5 0.5h23c0.276 0 0.5-0.224 0.5-0.5s-0.224-0.5-0.5-0.5z"></path>
</svg>
