<!-- Generated by IcoMoon.io -->
<svg version="1.1" xmlns="http://www.w3.org/2000/svg" width="44" height="32" viewBox="0 0 44 32">
<title>accordion-horizontal</title>
<path d="M6.851 30.939c0.188 0.629 0.781 1.068 1.44 1.068 0.138 0 0.276-0.020 0.409-0.058l8.215-2.348c0.389-0.111 0.71-0.368 0.904-0.723 0.193-0.354 0.236-0.763 0.12-1.148l-6.793-22.654c-0.228-0.761-1.082-1.229-1.849-1.011l-8.215 2.347c-0.389 0.111-0.71 0.367-0.904 0.723-0.194 0.354-0.237 0.763-0.121 1.149l6.794 22.655zM1.056 7.614c0.064-0.118 0.171-0.204 0.3-0.241l8.215-2.347c0.044-0.012 0.089-0.018 0.135-0.018 0.221 0 0.419 0.146 0.482 0.355l6.794 22.655c0.039 0.129 0.024 0.264-0.040 0.382-0.065 0.118-0.172 0.204-0.301 0.241l-8.215 2.348c-0.256 0.074-0.541-0.086-0.616-0.337l-6.795-22.655c-0.038-0.129-0.024-0.265 0.041-0.383zM42.946 6.522l-8.014-2.446c-0.767-0.233-1.633 0.229-1.87 0.99l-6.987 22.555c-0.119 0.383-0.080 0.79 0.108 1.146 0.188 0.354 0.503 0.615 0.886 0.732l8.015 2.447c0.142 0.043 0.289 0.065 0.437 0.065 0.661 0 1.236-0.425 1.432-1.056l6.987-22.555c0.119-0.383 0.080-0.79-0.108-1.146-0.188-0.355-0.503-0.614-0.886-0.732zM42.985 8.104l-6.987 22.555c-0.081 0.258-0.366 0.408-0.623 0.33l-8.015-2.447c-0.127-0.038-0.231-0.125-0.294-0.244-0.063-0.118-0.076-0.254-0.037-0.381l6.987-22.555c0.064-0.207 0.261-0.351 0.479-0.351 0.048 0 0.097 0.007 0.144 0.021l8.015 2.446c0.127 0.038 0.231 0.125 0.294 0.243 0.064 0.121 0.076 0.257 0.037 0.383zM22 30v-29c0-0.276-0.224-0.5-0.5-0.5s-0.5 0.224-0.5 0.5v29c0 0.276 0.224 0.5 0.5 0.5s0.5-0.224 0.5-0.5z"></path>
</svg>
