<!-- Generated by IcoMoon.io -->
<svg version="1.1" xmlns="http://www.w3.org/2000/svg" width="32" height="32" viewBox="0 0 32 32">
<title>alarm-clock</title>
<path d="M16.011 4.969c-7.444 0-13.5 6.056-13.5 13.5 0 3.452 1.313 6.595 3.452 8.984l-3.659 3.659c-0.195 0.195-0.195 0.512 0 0.707 0.098 0.098 0.226 0.146 0.354 0.146s0.256-0.049 0.354-0.146l3.642-3.642c2.429 2.342 5.725 3.792 9.358 3.792 3.631 0 6.924-1.448 9.353-3.787l3.552 3.666c0.098 0.101 0.228 0.152 0.358 0.152 0.125 0 0.251-0.047 0.348-0.141 0.198-0.192 0.203-0.508 0.012-0.707l-3.58-3.694c2.141-2.39 3.456-5.535 3.456-8.989 0-7.444-6.056-13.5-13.5-13.5zM16.011 30.969c-6.893 0-12.5-5.607-12.5-12.5s5.607-12.5 12.5-12.5 12.5 5.607 12.5 12.5-5.608 12.5-12.5 12.5zM8.775 1c1.671 0 3.116 1.087 3.596 2.704 0.078 0.265 0.354 0.417 0.622 0.337 0.265-0.079 0.415-0.357 0.337-0.622-0.606-2.044-2.436-3.419-4.555-3.419-2.63 0-4.77 2.14-4.77 4.77 0 1.129 0.397 2.192 1.149 3.076 0.099 0.116 0.239 0.176 0.381 0.176 0.115 0 0.23-0.039 0.324-0.119 0.21-0.179 0.235-0.495 0.057-0.705-0.596-0.7-0.911-1.54-0.911-2.428 0.001-2.079 1.692-3.77 3.77-3.77zM26.083 7.831c0.093 0.075 0.204 0.111 0.314 0.111 0.146 0 0.29-0.063 0.389-0.186 0.704-0.87 1.076-1.903 1.076-2.987 0-2.63-2.14-4.77-4.77-4.77-2.098 0-3.923 1.358-4.542 3.379-0.080 0.264 0.068 0.543 0.332 0.625 0.267 0.081 0.544-0.068 0.625-0.332 0.49-1.597 1.931-2.671 3.586-2.671 2.078 0 3.77 1.691 3.77 3.77 0 0.853-0.295 1.668-0.854 2.358-0.174 0.215-0.141 0.529 0.074 0.703zM16.5 8.5c-0.276 0-0.5 0.224-0.5 0.5v8.92l-4.321 4.028c-0.202 0.188-0.213 0.505-0.025 0.707 0.099 0.106 0.232 0.159 0.366 0.159 0.122 0 0.244-0.044 0.341-0.134l4.48-4.176c0.101-0.096 0.159-0.228 0.159-0.367v-9.137c0-0.276-0.224-0.5-0.5-0.5z"></path>
</svg>
