<!-- Generated by IcoMoon.io -->
<svg version="1.1" xmlns="http://www.w3.org/2000/svg" width="28" height="32" viewBox="0 0 28 32">
<title>alien</title>
<path d="M15.769 22.985c0.367 0.044 0.727 0.065 1.079 0.065 2.237 0 4.27-0.881 5.722-2.481 1.706-1.878 2.486-4.545 2.193-7.572-0.048-0.46-0.386-0.82-0.878-0.882-2.693-0.323-5.119 0.564-6.801 2.417-1.706 1.878-2.486 4.545-2.193 7.571 0.046 0.459 0.384 0.82 0.878 0.882zM17.823 15.204c1.261-1.389 3.030-2.153 4.982-2.153 0.313 0 0.633 0.019 0.967 0.106 0.259 2.68-0.431 5.073-1.944 6.741-1.261 1.388-3.030 2.153-4.981 2.153-0.313 0-0.633-0.019-0.968-0.106-0.259-2.68 0.431-5.073 1.944-6.741zM11.085 30.795c0.779 0.777 1.814 1.205 2.915 1.205s2.136-0.428 2.915-1.205l6.984-6.967c2.67-2.664 4.127-6.207 4.101-9.974-0.026-3.768-1.533-7.291-4.242-9.919-2.615-2.538-6.081-3.935-9.758-3.935s-7.143 1.397-9.757 3.935c-2.71 2.628-4.217 6.151-4.243 9.919s1.43 7.31 4.101 9.974l6.984 6.967zM4.939 4.652c2.427-2.355 5.645-3.652 9.061-3.652s6.634 1.297 9.061 3.652c2.516 2.441 3.914 5.711 3.938 9.208s-1.328 6.786-3.807 9.259l-6.984 6.967c-1.18 1.177-3.237 1.177-4.417 0l-6.984-6.966c-2.479-2.473-3.831-5.762-3.807-9.259s1.423-6.768 3.939-9.209zM10.932 23.050c0.352 0 0.712-0.021 1.136-0.072 0.436-0.056 0.773-0.416 0.827-0.938 0.287-2.964-0.494-5.631-2.199-7.509-1.452-1.6-3.484-2.481-5.722-2.481-0.352 0-0.712 0.021-1.134 0.072-0.437 0.055-0.775 0.414-0.829 0.937-0.287 2.964 0.494 5.631 2.199 7.51 1.452 1.6 3.484 2.481 5.722 2.481zM4.015 13.109c0.326-0.039 0.646-0.058 0.959-0.058 1.952 0 3.721 0.765 4.982 2.153 1.513 1.667 2.204 4.061 1.936 6.788-2.355 0.284-4.478-0.484-5.941-2.095-1.514-1.667-2.205-4.061-1.936-6.788z"></path>
</svg>
