<!-- Generated by IcoMoon.io -->
<svg version="1.1" xmlns="http://www.w3.org/2000/svg" width="39" height="32" viewBox="0 0 39 32">
<title>alien-gun</title>
<path d="M2.489 18c1.378 0 2.5-1.122 2.5-2.5s-1.122-2.5-2.5-2.5-2.5 1.122-2.5 2.5 1.121 2.5 2.5 2.5zM2.489 14c0.827 0 1.5 0.673 1.5 1.5s-0.673 1.5-1.5 1.5-1.5-0.673-1.5-1.5 0.673-1.5 1.5-1.5zM23.926 12c-1.93 0-3.5 1.57-3.5 3.5s1.57 3.5 3.5 3.5 3.5-1.57 3.5-3.5-1.57-3.5-3.5-3.5zM23.926 18c-1.378 0-2.5-1.122-2.5-2.5s1.122-2.5 2.5-2.5 2.5 1.122 2.5 2.5-1.121 2.5-2.5 2.5zM36.009 13c-0.017 0-0.031 0.008-0.047 0.009-1.241-3.357-4.913-5.977-9.537-6.761 0.043-0.074 0.075-0.155 0.075-0.248v-2c0-0.276-0.224-0.5-0.5-0.5s-0.5 0.224-0.5 0.5v2c0 0.044 0.014 0.084 0.025 0.125-0.649-0.075-1.309-0.125-1.986-0.125-0.013 0-0.039 0.001-0.039 0.001v-5.001c0-0.276-0.224-0.5-0.5-0.5s-0.5 0.224-0.5 0.5v5c0 0.011 0.006 0.021 0.006 0.032-0.719 0.043-1.425 0.134-2.113 0.263 0.063-0.084 0.107-0.182 0.107-0.295v-2c0-0.276-0.224-0.5-0.5-0.5s-0.5 0.224-0.5 0.5v2c0 0.184 0.104 0.339 0.253 0.425-3.468 0.792-6.396 2.643-7.935 5.121-0.82-0.796-1.882-1.359-3.106-1.534-0.73-0.102-1.212 0.406-1.212 1.154v3.834h-1c-0.276 0-0.5 0.224-0.5 0.5s0.224 0.5 0.5 0.5h1v3.834c0 0.806 0.497 1.166 0.988 1.166 0.024 0 0.147-0.009 0.17-0.012 1.243-0.178 2.32-0.746 3.151-1.548 2.072 3.349 6.68 5.56 11.73 5.56 0.297 0 0.588-0.018 0.88-0.033 0.004 0.060 0.016 0.122 0.043 0.18l2.239 4.839c0.565 1.255 1.864 2.012 3.226 2.012 0.449 0 0.905-0.083 1.343-0.256 0.888-0.353 1.568-1.017 1.913-1.869 0.328-0.809 0.31-1.692-0.057-2.507l-2.047-4.089c-0.012-0.024-0.033-0.040-0.048-0.061 1.992-1.054 3.559-2.512 4.479-4.215h0.5c1.656 0 3.002-1.346 3.002-3s-1.347-3.001-3.003-3.001zM8.489 20.5v-0.5c0 0 0.015 0.011 0.027 0.021l-0.027 0.479zM8.519 19.998c-0.010-0.033-0.019-0.086-0.019-0.164v-8.668c0-0.11 0.029-0.164 0.070-0.164 2.277 0.326 3.93 2.217 3.93 4.498 0 2.275-1.674 4.167-3.981 4.498zM30.183 23.724l2.039 4.071c0.246 0.545 0.257 1.15 0.034 1.703-0.242 0.597-0.723 1.064-1.355 1.315-1.277 0.505-2.753-0.048-3.29-1.241l-2.168-4.687c1.705-0.187 3.298-0.619 4.718-1.249 0.007 0.029 0.008 0.059 0.022 0.088zM23.539 24c-4.854 0-9.243-2.148-11.039-5.365 0.624-0.895 1-1.968 1-3.135 0-1.172-0.373-2.248-0.995-3.145 1.8-3.212 6.185-5.355 11.034-5.355 6.555 0 11.888 3.813 11.888 8.5s-5.334 8.5-11.888 8.5zM36.009 18h-0.050c0.296-0.798 0.468-1.634 0.468-2.5 0-0.503-0.069-0.993-0.172-1.475 0.987 0.123 1.757 0.956 1.757 1.975-0.001 1.103-0.899 2-2.003 2z"></path>
</svg>
