<!-- Generated by IcoMoon.io -->
<svg version="1.1" xmlns="http://www.w3.org/2000/svg" width="34" height="32" viewBox="0 0 34 32">
<title>anchor</title>
<path d="M0.5 17h2.52c0.203 7.372 6.123 13.325 13.48 13.586v0.414c0 0.276 0.224 0.5 0.5 0.5s0.5-0.224 0.5-0.5v-0.414c7.357-0.261 13.277-6.214 13.48-13.586h2.52c0.202 0 0.385-0.122 0.462-0.309s0.034-0.402-0.108-0.545l-3-3c-0.195-0.195-0.512-0.195-0.707 0l-3 3c-0.143 0.143-0.186 0.358-0.108 0.545s0.259 0.309 0.461 0.309h2.48c-0.203 6.82-5.675 12.326-12.48 12.586v-18.586h3c0.276 0 0.5-0.224 0.5-0.5s-0.224-0.5-0.5-0.5h-3v-2.847c1.705-0.234 3.027-1.684 3.027-3.452 0-1.93-1.57-3.5-3.5-3.5s-3.5 1.57-3.5 3.5c0 1.749 1.294 3.19 2.973 3.447v2.852h-3c-0.276 0-0.5 0.224-0.5 0.5s0.224 0.5 0.5 0.5h3v18.586c-6.806-0.26-12.277-5.766-12.48-12.586h2.48c0.202 0 0.385-0.122 0.462-0.309s0.034-0.402-0.108-0.545l-3-3c-0.195-0.195-0.512-0.195-0.707 0l-3 3c-0.143 0.143-0.186 0.358-0.108 0.545s0.259 0.309 0.461 0.309zM30.5 14.207l1.793 1.793h-3.586l1.793-1.793zM14.527 3.701c0-1.378 1.121-2.5 2.5-2.5s2.5 1.122 2.5 2.5-1.121 2.5-2.5 2.5-2.5-1.122-2.5-2.5zM3.5 14.207l1.793 1.793h-3.586l1.793-1.793z"></path>
</svg>
