<!-- Generated by IcoMoon.io -->
<svg version="1.1" xmlns="http://www.w3.org/2000/svg" width="27" height="32" viewBox="0 0 27 32">
<title>android</title>
<path d="M20 9h-13c-0.827 0-1.5 0.673-1.5 1.5v13c0 0.827 0.673 1.5 1.5 1.5h1.5v5c0 1.103 0.897 2 2 2s2-0.897 2-2v-5h2v5c0 1.103 0.897 2 2 2s2-0.897 2-2v-5h1.5c0.827 0 1.5-0.673 1.5-1.5v-13c0-0.827-0.673-1.5-1.5-1.5zM11.5 30c0 0.551-0.448 1-1 1s-1-0.449-1-1v-5h2v5zM17.5 30c0 0.551-0.448 1-1 1s-1-0.449-1-1v-5h2v5zM20.5 23.5c0 0.276-0.225 0.5-0.5 0.5h-13c-0.275 0-0.5-0.224-0.5-0.5v-13c0-0.276 0.225-0.5 0.5-0.5h13c0.275 0 0.5 0.224 0.5 0.5v13zM13.5 0c-4.411 0-8 3.589-8 8h1c0-3.86 3.141-7 7-7s7 3.14 7 7h1c0-4.411-3.589-8-8-8zM2.5 9c-1.103 0-2 0.897-2 2v7c0 1.103 0.897 2 2 2s2-0.897 2-2v-7c0-1.103-0.897-2-2-2zM3.5 18c0 0.551-0.448 1-1 1s-1-0.449-1-1v-7c0-0.551 0.448-1 1-1s1 0.449 1 1v7zM24.5 9c-1.103 0-2 0.897-2 2v7c0 1.103 0.897 2 2 2s2-0.897 2-2v-7c0-1.103-0.897-2-2-2zM25.5 18c0 0.551-0.448 1-1 1s-1-0.449-1-1v-7c0-0.551 0.448-1 1-1s1 0.449 1 1v7zM12.8 5.5c0-0.992-0.808-1.8-1.8-1.8s-1.8 0.808-1.8 1.8 0.808 1.8 1.8 1.8 1.8-0.808 1.8-1.8zM10.2 5.5c0-0.441 0.358-0.8 0.8-0.8s0.8 0.359 0.8 0.8-0.359 0.8-0.8 0.8-0.8-0.359-0.8-0.8zM17.8 5.5c0-0.992-0.808-1.8-1.8-1.8s-1.8 0.808-1.8 1.8 0.808 1.8 1.8 1.8 1.8-0.808 1.8-1.8zM15.2 5.5c0-0.441 0.358-0.8 0.8-0.8s0.8 0.359 0.8 0.8-0.359 0.8-0.8 0.8-0.8-0.359-0.8-0.8z"></path>
</svg>
