<!-- Generated by IcoMoon.io -->
<svg version="1.1" xmlns="http://www.w3.org/2000/svg" width="32" height="32" viewBox="0 0 32 32">
<title>apple</title>
<path d="M16-0.035c-8.842 0-16.034 7.194-16.034 16.035s7.192 16.035 16.034 16.035 16.034-7.194 16.034-16.035-7.192-16.035-16.034-16.035zM16 30.965c-8.252 0-14.966-6.713-14.966-14.965s6.714-14.965 14.966-14.965 14.966 6.713 14.966 14.965-6.714 14.965-14.966 14.965zM23.738 19.036c-1.299-0.677-2.060-1.692-2.142-2.857-0.083-1.171 0.547-2.327 1.731-3.174 0.121-0.084 0.228-0.238 0.249-0.383 0.022-0.147-0.026-0.318-0.12-0.435-1.265-1.577-2.892-1.908-4.035-1.908-0.646 0-1.317 0.112-1.89 0.317-0.162 0.058-0.311 0.115-0.449 0.168-0.522 0.202-0.821 0.32-1.194 0.212-0.122-0.035-0.263-0.095-0.425-0.163-0.516-0.214-1.294-0.538-2.312-0.538-0.521 0-1.061 0.085-1.603 0.253-1.625 0.501-2.88 1.854-3.357 3.622-0.481 1.782-0.23 4.094 0.669 6.185 0.367 0.853 0.817 1.658 1.337 2.393 0.967 1.368 1.979 2.033 3.097 2.033 0.088 0 0.178-0.004 0.268-0.013 0.504-0.049 0.861-0.197 1.207-0.341 0.291-0.121 0.593-0.246 1.029-0.33 0.775-0.148 1.227 0.021 1.841 0.257 0.356 0.137 0.761 0.291 1.267 0.387 2.212 0.418 4.295-2.807 5.036-4.8l0.042-0.11c0.206-0.523-0.179-0.743-0.246-0.775zM19.104 23.67c-0.411-0.078-0.752-0.208-1.082-0.334-0.667-0.255-1.428-0.496-2.423-0.308-0.545 0.104-0.914 0.257-1.239 0.393-0.311 0.129-0.555 0.23-0.9 0.264-0.827 0.082-1.581-0.433-2.388-1.573-0.477-0.674-0.89-1.415-1.228-2.199-0.796-1.849-1.033-3.95-0.62-5.483 0.382-1.411 1.369-2.487 2.642-2.879 0.44-0.136 0.873-0.206 1.287-0.206 0.805 0 1.412 0.253 1.9 0.456 0.207 0.086 0.387 0.16 0.541 0.203 0.652 0.189 1.228 0.009 1.874-0.242 0.132-0.051 0.271-0.105 0.425-0.16 0.459-0.164 1.002-0.254 1.529-0.254 0.809 0 1.919 0.207 2.854 1.124-1.213 1.034-1.845 2.388-1.746 3.783 0.098 1.399 0.936 2.656 2.326 3.511-0.728 1.799-2.358 4.168-3.752 3.904zM16.309 10h0.006c2.079 0 3.958-1.8 4.104-3.974 0.015-0.218 0.011-0.713-0.032-0.868-0.051-0.178-0.188-0.319-0.366-0.37-0.049-0.014-0.107-0.024-0.157-0.024-0.074 0-0.452 0.048-0.484 0.054-1.719 0.308-3.604 1.575-3.682 3.651-0.008 0.21 0.010 0.858 0.040 1.098 0.032 0.269 0.301 0.433 0.571 0.433zM16.765 8.53c0.050-1.348 1.311-2.306 2.591-2.606-0.001 0.024-0.003 0.047-0.004 0.069-0.097 1.443-1.253 2.727-2.582 2.972-0.006-0.18-0.008-0.355-0.005-0.435z"></path>
</svg>
