<!-- Generated by IcoMoon.io -->
<svg version="1.1" xmlns="http://www.w3.org/2000/svg" width="32" height="32" viewBox="0 0 32 32">
<title>arrow-left-square</title>
<path d="M18.069 21.2c0.098 0.098 0.226 0.146 0.354 0.146s0.256-0.049 0.354-0.146c0.195-0.195 0.195-0.512 0-0.707l-4.493-4.493 4.492-4.493c0.195-0.195 0.195-0.512 0-0.707s-0.512-0.195-0.707 0l-4.846 4.846c-0.195 0.195-0.195 0.512 0 0.707l4.846 4.847zM30.5 32c0.827 0 1.5-0.673 1.5-1.5v-29c0-0.827-0.673-1.5-1.5-1.5h-29c-0.827 0-1.5 0.673-1.5 1.5v29c0 0.827 0.673 1.5 1.5 1.5h29zM1 30.5v-29c0-0.276 0.225-0.5 0.5-0.5h29c0.275 0 0.5 0.224 0.5 0.5v29c0 0.276-0.225 0.5-0.5 0.5h-29c-0.275 0-0.5-0.224-0.5-0.5z"></path>
</svg>
