<!-- Generated by IcoMoon.io -->
<svg version="1.1" xmlns="http://www.w3.org/2000/svg" width="32" height="32" viewBox="0 0 32 32">
<title>arrow-right-square</title>
<path d="M13.224 21.2c0.098 0.098 0.226 0.146 0.354 0.146s0.256-0.049 0.354-0.146l4.846-4.846c0.195-0.195 0.195-0.512 0-0.707l-4.847-4.847c-0.195-0.195-0.512-0.195-0.707 0s-0.195 0.512 0 0.707l4.492 4.493-4.492 4.493c-0.196 0.195-0.196 0.511 0 0.707zM0 1.5v29c0 0.827 0.673 1.5 1.5 1.5h29c0.827 0 1.5-0.673 1.5-1.5v-29c0-0.827-0.673-1.5-1.5-1.5h-29c-0.827 0-1.5 0.673-1.5 1.5zM31 1.5v29c0 0.276-0.225 0.5-0.5 0.5h-29c-0.275 0-0.5-0.224-0.5-0.5v-29c0-0.276 0.225-0.5 0.5-0.5h29c0.275 0 0.5 0.224 0.5 0.5z"></path>
</svg>
