<!-- Generated by IcoMoon.io -->
<svg version="1.1" xmlns="http://www.w3.org/2000/svg" width="32" height="32" viewBox="0 0 32 32">
<title>arrow-right-rounded</title>
<path d="M16 32c8.822 0 16-7.178 16-16s-7.178-16-16-16-16 7.178-16 16 7.178 16 16 16zM16 1c8.271 0 15 6.729 15 15s-6.729 15-15 15-15-6.729-15-15 6.729-15 15-15zM13.224 21.2c0.098 0.098 0.226 0.146 0.354 0.146s0.256-0.049 0.354-0.146l4.846-4.846c0.195-0.195 0.195-0.512 0-0.707l-4.847-4.847c-0.195-0.195-0.512-0.195-0.707 0s-0.195 0.512 0 0.707l4.492 4.493-4.492 4.493c-0.196 0.195-0.196 0.511 0 0.707z"></path>
</svg>
