<!-- Generated by IcoMoon.io -->
<svg version="1.1" xmlns="http://www.w3.org/2000/svg" width="38" height="32" viewBox="0 0 38 32">
<title>article</title>
<path d="M36.5 0h-35c-0.827 0-1.5 0.673-1.5 1.5v29c0 0.827 0.673 1.5 1.5 1.5h35c0.827 0 1.5-0.673 1.5-1.5v-29c0-0.827-0.673-1.5-1.5-1.5zM37 30.5c0 0.275-0.225 0.5-0.5 0.5h-35c-0.275 0-0.5-0.225-0.5-0.5v-29c0-0.275 0.225-0.5 0.5-0.5h35c0.275 0 0.5 0.225 0.5 0.5v29zM17.5 16h-11c-0.827 0-1.5 0.673-1.5 1.5v8c0 0.827 0.673 1.5 1.5 1.5h11c0.827 0 1.5-0.673 1.5-1.5v-8c0-0.827-0.673-1.5-1.5-1.5zM18 25.5c0 0.275-0.225 0.5-0.5 0.5h-11c-0.275 0-0.5-0.225-0.5-0.5v-8c0-0.275 0.225-0.5 0.5-0.5h11c0.275 0 0.5 0.225 0.5 0.5v8zM31.5 5h-25c-0.827 0-1.5 0.673-1.5 1.5v5c0 0.827 0.673 1.5 1.5 1.5h25c0.827 0 1.5-0.673 1.5-1.5v-5c0-0.827-0.673-1.5-1.5-1.5zM32 11.5c0 0.275-0.225 0.5-0.5 0.5h-25c-0.275 0-0.5-0.225-0.5-0.5v-5c0-0.275 0.225-0.5 0.5-0.5h25c0.275 0 0.5 0.225 0.5 0.5v5zM32 17h-10c-0.276 0-0.5 0.224-0.5 0.5s0.224 0.5 0.5 0.5h10c0.276 0 0.5-0.224 0.5-0.5s-0.224-0.5-0.5-0.5zM32 21h-10c-0.276 0-0.5 0.224-0.5 0.5s0.224 0.5 0.5 0.5h10c0.276 0 0.5-0.224 0.5-0.5s-0.224-0.5-0.5-0.5zM32 25h-10c-0.276 0-0.5 0.224-0.5 0.5s0.224 0.5 0.5 0.5h10c0.276 0 0.5-0.224 0.5-0.5s-0.224-0.5-0.5-0.5z"></path>
</svg>
