<!-- Generated by IcoMoon.io -->
<svg version="1.1" xmlns="http://www.w3.org/2000/svg" width="27" height="32" viewBox="0 0 27 32">
<title>bamboo</title>
<path d="M16.811 14.26c-1.321-5.995 0.020-13.594 0.033-13.671 0.026-0.146-0.014-0.296-0.108-0.41s-0.236-0.179-0.384-0.179h-6c-0.15 0-0.293 0.068-0.389 0.185s-0.132 0.271-0.101 0.418c0.013 0.060 1.238 6.049-0.005 13.818-0.022 0.145 0.019 0.292 0.113 0.403 0.096 0.112 0.235 0.176 0.382 0.176h6c0.007 0.001 0.015 0 0.020 0 0.276 0 0.5-0.224 0.5-0.5-0.001-0.087-0.022-0.169-0.061-0.24zM15.734 14h-4.801c0.929-6.329 0.295-11.319 0.017-13h4.812c-0.286 1.877-1.045 7.829-0.028 13zM9.971 31.824c0.095 0.112 0.234 0.176 0.381 0.176h6c0.007 0.001 0.015 0 0.020 0 0.276 0 0.5-0.224 0.5-0.5 0-0.087-0.021-0.169-0.061-0.24-1.321-5.995 0.020-13.594 0.033-13.671 0.026-0.146-0.014-0.296-0.108-0.41-0.095-0.113-0.236-0.179-0.384-0.179h-6c-0.15 0-0.293 0.068-0.389 0.185s-0.132 0.271-0.101 0.418c0.013 0.060 1.238 6.049-0.005 13.818-0.022 0.144 0.019 0.292 0.114 0.403zM10.95 18h4.812c-0.287 1.877-1.046 7.829-0.028 13h-4.801c0.929-6.329 0.296-11.319 0.017-13zM8.878 14.917c0.14-0.093 0.224-0.249 0.224-0.417 0-0.049-0.055-4.881-4.783-6.413-0.14-0.046-0.29-0.027-0.416 0.049-0.124 0.075-0.209 0.202-0.232 0.345-0.007 0.042-0.627 4.228 4.737 6.479 0.063 0.027 0.128 0.040 0.194 0.040 0.096 0 0.193-0.028 0.276-0.083zM4.647 9.28c2.437 1.073 3.154 3.212 3.366 4.394-2.763-1.435-3.289-3.395-3.366-4.394zM3.609 13.763c-1.056 0-2.107 0.264-3.126 0.784-0.13 0.066-0.224 0.186-0.259 0.328-0.034 0.142-0.005 0.291 0.080 0.41 0.059 0.081 1.457 1.979 4.467 1.979 1.085 0 2.251-0.251 3.465-0.748 0.154-0.063 0.268-0.2 0.301-0.364s-0.018-0.335-0.137-0.453c-0.079-0.079-1.968-1.936-4.791-1.936zM4.771 16.263c-1.623 0-2.668-0.644-3.209-1.105 0.677-0.262 1.362-0.395 2.047-0.395 1.507 0 2.726 0.642 3.428 1.124-0.794 0.25-1.553 0.376-2.266 0.376zM17.79 2.784c-0.14 0.093-0.224 0.249-0.224 0.417 0 0.049 0.055 4.881 4.783 6.413 0.051 0.017 0.103 0.024 0.154 0.024 0.091 0 0.181-0.025 0.261-0.073 0.124-0.076 0.209-0.202 0.232-0.346 0.007-0.042 0.627-4.228-4.737-6.479-0.155-0.067-0.329-0.049-0.469 0.044zM22.021 8.42c-2.437-1.073-3.154-3.212-3.366-4.394 2.762 1.434 3.289 3.394 3.366 4.394zM23.129 3.937c1.138 0 2.272-0.261 3.372-0.776 0.138-0.064 0.239-0.188 0.274-0.336s0.001-0.305-0.093-0.425c-0.062-0.080-1.575-1.963-4.822-1.963-1.172 0-2.433 0.25-3.747 0.742-0.162 0.061-0.282 0.202-0.315 0.373-0.033 0.17 0.025 0.346 0.153 0.464 0.086 0.078 2.131 1.921 5.178 1.921-0.001 0-0.001 0 0 0zM21.86 1.437c1.774 0 2.923 0.638 3.524 1.103-0.745 0.264-1.501 0.397-2.256 0.397h-0.001c-1.647 0-2.982-0.637-3.759-1.122 0.873-0.252 1.708-0.378 2.492-0.378z"></path>
</svg>
