<!-- Generated by IcoMoon.io -->
<svg version="1.1" xmlns="http://www.w3.org/2000/svg" width="35" height="32" viewBox="0 0 35 32">
<title>battery</title>
<path d="M1.5 25h9.5c0.276 0 0.5-0.224 0.5-0.5s-0.224-0.5-0.5-0.5h-9.5c-0.275 0-0.5-0.224-0.5-0.5v-15c0-0.276 0.225-0.5 0.5-0.5h9.5c0.276 0 0.5-0.224 0.5-0.5s-0.224-0.5-0.5-0.5h-9.5c-0.827 0-1.5 0.673-1.5 1.5v15c0 0.827 0.673 1.5 1.5 1.5zM31 12v-3.5c0-0.827-0.673-1.5-1.5-1.5h-9.5c-0.276 0-0.5 0.224-0.5 0.5s0.224 0.5 0.5 0.5h9.5c0.275 0 0.5 0.224 0.5 0.5v15c0 0.276-0.225 0.5-0.5 0.5h-10.5c-0.276 0-0.5 0.224-0.5 0.5s0.224 0.5 0.5 0.5h10.5c0.827 0 1.5-0.673 1.5-1.5v-2.5h2.5c0.827 0 1.5-0.673 1.5-1.5v-6c0-0.827-0.673-1.5-1.5-1.5h-2.5zM34 13.5v6c0 0.276-0.225 0.5-0.5 0.5h-2.5v-7h2.5c0.275 0 0.5 0.224 0.5 0.5zM12.909 31.733c0.060 0.023 0.122 0.035 0.183 0.035 0.176 0 0.344-0.093 0.435-0.253l10.65-18.768c0.088-0.155 0.087-0.344-0.003-0.498-0.089-0.154-0.254-0.249-0.432-0.249h-7.076l3.062-11.605c0.062-0.236-0.056-0.483-0.278-0.583-0.221-0.099-0.484-0.025-0.621 0.178l-11.503 17.232c-0.103 0.154-0.112 0.351-0.024 0.514 0.087 0.162 0.256 0.264 0.44 0.264h7.947l-3.084 13.153c-0.057 0.243 0.073 0.49 0.304 0.58zM16.807 17.614c0.035-0.149 0-0.305-0.095-0.425s-0.239-0.189-0.392-0.189h-7.643l9.32-13.961-2.464 9.334c-0.040 0.15-0.008 0.31 0.087 0.433s0.241 0.194 0.397 0.194h6.867l-8.512 14.999 2.435-10.385z"></path>
</svg>
