<!-- Generated by IcoMoon.io -->
<svg version="1.1" xmlns="http://www.w3.org/2000/svg" width="39" height="32" viewBox="0 0 39 32">
<title>beach-seat</title>
<path d="M39 31.5c0-0.276-0.224-0.5-0.5-0.5h-10.813l2.701-7.264c0.006-0.016 0.003-0.032 0.008-0.048 0.964-0.32 1.858-0.837 2.619-1.541l3.881-3.591c0.202-0.188 0.215-0.504 0.027-0.707-0.188-0.204-0.504-0.215-0.707-0.028l-3.881 3.56c-1.148 1.065-2.645 1.619-4.212 1.619h-16.149c-0.017 0-0.033 0.035-0.049 0.035-0.022 0-0.043 0.018-0.065 0.021-1.555 0.025-3.081 0.56-4.307 1.515l-4.303 3.35c-0.219 0.169-0.258 0.485-0.088 0.704 0.099 0.126 0.246 0.194 0.395 0.194 0.107 0 0.216-0.034 0.307-0.105l4.303-3.346c0.871-0.677 1.919-1.095 3.010-1.239l-2.557 6.871h-8.12c-0.276 0-0.5 0.224-0.5 0.5s0.224 0.5 0.5 0.5h38c0.276 0 0.5-0.224 0.5-0.5zM29.234 23.938l-2.614 7.062h-7.933l2.579-7h6.856c0.376 0 0.747-0.005 1.112-0.062zM12.267 24h7.933l-2.579 7h-7.934l2.58-7zM26.024 0c-3.738 0-7.709 1.415-10.362 3.692-0.388 0.333-0.565 0.834-0.476 1.34 0.093 0.524 0.447 0.95 0.948 1.138l10.049 3.781-4.723 10.909c-0.109 0.253 0.007 0.548 0.261 0.658 0.064 0.028 0.132 0.041 0.198 0.041 0.193 0 0.377-0.113 0.459-0.301l4.743-10.952 10.012 3.767c0.172 0.064 0.351 0.097 0.532 0.097 0.425 0 0.833-0.181 1.12-0.496 0.278-0.307 0.411-0.703 0.372-1.114-0.707-7.395-6.107-12.56-13.133-12.56zM38.045 13.001c-0.096 0.105-0.238 0.168-0.38 0.168-0.061 0-0.121-0.011-0.181-0.033l-20.998-7.901c-0.167-0.062-0.284-0.203-0.315-0.376-0.016-0.092-0.020-0.268 0.143-0.407 2.48-2.13 6.201-3.452 9.71-3.452 6.49 0 11.481 4.792 12.137 11.654 0.016 0.163-0.055 0.279-0.116 0.347z"></path>
</svg>
