<!-- Generated by IcoMoon.io -->
<svg version="1.1" xmlns="http://www.w3.org/2000/svg" width="53" height="32" viewBox="0 0 53 32">
<title>bicycle</title>
<path d="M42.5 11.151c-1.189 0-2.327 0.208-3.394 0.574l-0.823-1.971c4.061-1.454 8.543-0.875 12.068 1.605 0.087 0.062 0.188 0.091 0.287 0.091 0.157 0 0.312-0.074 0.41-0.212 0.159-0.227 0.104-0.538-0.122-0.697-3.805-2.676-8.649-3.296-13.029-1.71l-3.268-7.831h4.371c0.276 0 0.5-0.224 0.5-0.5s-0.224-0.5-0.5-0.5h-5.122c-0.167 0-0.323 0.084-0.416 0.223-0.093 0.14-0.11 0.315-0.045 0.47l3.051 7.307h-16.413c-0.019 0-0.036 0.011-0.055 0.013v-4.013h2c0.276 0 0.5-0.224 0.5-0.5s-0.224-0.5-0.5-0.5h-5c-0.276 0-0.5 0.224-0.5 0.5s0.224 0.5 0.5 0.5h2v4.996c0 0.019 0.013 0.035 0.015 0.053l-0.95 1.26c-5.601-3.694-13.025-2.989-17.819 1.761-0.196 0.194-0.197 0.512-0.003 0.707 0.098 0.099 0.226 0.148 0.355 0.148 0.127 0 0.254-0.048 0.352-0.145 4.442-4.402 11.311-5.067 16.511-1.672l-1.294 1.716c-1.637-1.055-3.579-1.674-5.667-1.674-5.79 0-10.5 4.71-10.5 10.5s4.71 10.5 10.5 10.5c5.672 0 10.296-4.523 10.482-10.151h5.989c0 0 0 0 0 0s0 0 0 0c0.001 0 0.002-0.001 0.003-0.001 0.084-0.001 0.163-0.025 0.235-0.065 0.006-0.003 0.012-0.002 0.018-0.005 0.050-0.030 0.089-0.071 0.124-0.113 0.005-0.006 0.014-0.009 0.019-0.016l0.004-0.005c0 0 0 0 0-0.001l9.56-12.676 1.242 2.974c-3.636 1.654-6.176 5.313-6.176 9.56 0 5.79 4.71 10.5 10.5 10.5s10.5-4.71 10.5-10.5-4.71-10.5-10.5-10.5zM19.532 10.024l6.558 10.976h-5.123c-0.19-3.077-1.704-5.796-3.986-7.594l2.551-3.382zM19.967 21h-8.714l5.126-6.796c2.041 1.614 3.4 4.045 3.588 6.796zM10.5 31.151c-5.238 0-9.5-4.262-9.5-9.5s4.262-9.5 9.5-9.5c1.862 0 3.595 0.546 5.062 1.475l-5.712 7.573c-0.114 0.151-0.133 0.354-0.048 0.523 0.085 0.171 0.259 0.278 0.448 0.278h9.732c-0.185 5.076-4.361 9.151-9.482 9.151zM27.020 20.606l-6.838-11.444 0.122-0.162h15.469l-8.753 11.606zM42.5 31.151c-5.238 0-9.5-4.262-9.5-9.5 0-3.833 2.286-7.134 5.562-8.635l3.714 8.896c0.080 0.192 0.266 0.308 0.461 0.308 0.064 0 0.13-0.013 0.193-0.039 0.254-0.105 0.375-0.398 0.269-0.653l-3.708-8.881c0.947-0.317 1.956-0.496 3.008-0.496 5.238 0 9.5 4.262 9.5 9.5s-4.261 9.5-9.499 9.5z"></path>
</svg>
