<!-- Generated by IcoMoon.io -->
<svg version="1.1" xmlns="http://www.w3.org/2000/svg" width="32" height="32" viewBox="0 0 32 32">
<title>blog</title>
<path d="M30.5 0h-29c-0.827 0-1.5 0.673-1.5 1.5v8c0 0.827 0.673 1.5 1.5 1.5h29c0.827 0 1.5-0.673 1.5-1.5v-8c0-0.827-0.673-1.5-1.5-1.5zM31 9.5c0 0.275-0.225 0.5-0.5 0.5h-29c-0.275 0-0.5-0.225-0.5-0.5v-8c0-0.275 0.225-0.5 0.5-0.5h29c0.275 0 0.5 0.225 0.5 0.5v8zM31.5 12.5c-0.276 0-0.5 0.224-0.5 0.5v17.5c0 0.275-0.225 0.5-0.5 0.5h-29c-0.275 0-0.5-0.225-0.5-0.5v-17.5c0-0.276-0.224-0.5-0.5-0.5s-0.5 0.224-0.5 0.5v17.5c0 0.827 0.673 1.5 1.5 1.5h29c0.827 0 1.5-0.673 1.5-1.5v-17.5c0-0.276-0.224-0.5-0.5-0.5zM13.5 27c0.827 0 1.5-0.673 1.5-1.5v-8c0-0.827-0.673-1.5-1.5-1.5h-8c-0.827 0-1.5 0.673-1.5 1.5v8c0 0.827 0.673 1.5 1.5 1.5h8zM5 25.5v-8c0-0.275 0.225-0.5 0.5-0.5h8c0.275 0 0.5 0.225 0.5 0.5v8c0 0.275-0.225 0.5-0.5 0.5h-8c-0.275 0-0.5-0.225-0.5-0.5zM18 18h9c0.276 0 0.5-0.224 0.5-0.5s-0.224-0.5-0.5-0.5h-9c-0.276 0-0.5 0.224-0.5 0.5s0.224 0.5 0.5 0.5zM18 22h9c0.276 0 0.5-0.224 0.5-0.5s-0.224-0.5-0.5-0.5h-9c-0.276 0-0.5 0.224-0.5 0.5s0.224 0.5 0.5 0.5zM18 26h9c0.276 0 0.5-0.224 0.5-0.5s-0.224-0.5-0.5-0.5h-9c-0.276 0-0.5 0.224-0.5 0.5s0.224 0.5 0.5 0.5z"></path>
</svg>
