<!-- Generated by IcoMoon.io -->
<svg version="1.1" xmlns="http://www.w3.org/2000/svg" width="19" height="32" viewBox="0 0 19 32">
<title>blue-tooth</title>
<path d="M9.5 15.949v0.323l-9.287 8.976c-0.198 0.192-0.204 0.508-0.012 0.707s0.508 0.204 0.707 0.012l8.592-8.304v12.835c0 0.617 0.37 1.164 0.943 1.393 0.183 0.073 0.373 0.108 0.56 0.108 0.402 0 0.794-0.163 1.084-0.467l6.16-6.476c0.566-0.596 0.546-1.544-0.046-2.114l-7.093-6.833 7.098-6.86c0.583-0.564 0.608-1.506 0.056-2.1l-6.163-6.627c-0.423-0.456-1.071-0.601-1.647-0.375-0.578 0.228-0.952 0.776-0.952 1.397v13.017l-8.62-8.304c-0.198-0.19-0.515-0.186-0.707 0.014-0.192 0.199-0.186 0.515 0.014 0.707l9.313 8.971zM10.5 1.544c0-0.316 0.243-0.436 0.317-0.465 0.034-0.013 0.105-0.036 0.193-0.036 0.107 0 0.238 0.034 0.356 0.161l6.163 6.627c0.184 0.198 0.175 0.512-0.019 0.7l-7.010 6.775v-13.762zM10.5 16.912l7.007 6.75c0.197 0.19 0.204 0.506 0.015 0.705l-6.16 6.476c-0.216 0.227-0.474 0.15-0.548 0.12s-0.314-0.15-0.314-0.464v-13.587z"></path>
</svg>
