<!-- Generated by IcoMoon.io -->
<svg version="1.1" xmlns="http://www.w3.org/2000/svg" width="32" height="32" viewBox="0 0 32 32">
<title>board</title>
<path d="M32 19.5v-18c0-0.827-0.673-1.5-1.5-1.5h-29c-0.827 0-1.5 0.673-1.5 1.5v18c0 0.827 0.673 1.5 1.5 1.5h4.002l-4.953 10.283c-0.12 0.249-0.015 0.547 0.234 0.667 0.070 0.034 0.144 0.050 0.217 0.050 0.186 0 0.365-0.104 0.451-0.283l5-10.382c0.052-0.109 0.055-0.226 0.028-0.335h20.038c-0.024 0.096-0.028 0.198 0.010 0.297l4 10.382c0.077 0.199 0.266 0.32 0.467 0.32 0.060 0 0.121-0.011 0.18-0.033 0.258-0.1 0.386-0.389 0.287-0.646l-3.977-10.32h3.016c0.827 0 1.5-0.673 1.5-1.5zM1 19.5v-18c0-0.276 0.224-0.5 0.5-0.5h29c0.276 0 0.5 0.224 0.5 0.5v18c0 0.276-0.224 0.5-0.5 0.5h-29c-0.276 0-0.5-0.224-0.5-0.5z"></path>
</svg>
