<!-- Generated by IcoMoon.io -->
<svg version="1.1" xmlns="http://www.w3.org/2000/svg" width="33" height="32" viewBox="0 0 33 32">
<title>body</title>
<path d="M0.695 19.055c0.271-0.052 0.449-0.314 0.397-0.585-0.007-0.036-0.663-3.624 1.642-6.402 0.115-0.139 0.146-0.329 0.083-0.498-0.013-0.034-1.298-3.479 0.344-6.048 1.077-1.685 3.188-2.647 6.274-2.86 0.113-0.008 0.22-0.054 0.303-0.131 0.016-0.014 1.58-1.434 3.134-1.531 0.276-0.018 0.485-0.255 0.468-0.53s-0.269-0.5-0.53-0.468c-1.627 0.102-3.156 1.288-3.612 1.674-3.33 0.261-5.644 1.373-6.879 3.307-1.638 2.564-0.832 5.72-0.531 6.668-2.392 3.098-1.708 6.846-1.678 7.007 0.046 0.24 0.255 0.406 0.491 0.406 0.031-0.001 0.063-0.003 0.094-0.009zM8.304 31.844c0.098 0.103 0.23 0.156 0.363 0.156 0.123 0 0.247-0.045 0.343-0.137 0.201-0.189 0.21-0.506 0.020-0.707-0.733-0.776-0.587-3.29-0.315-4.762 0.005-0.106 0.107-2.643-0.826-4.94-0.649-1.598-0.728-3.738-0.728-4.674 0.007-0.164 0.010-0.33 0.008-0.498-0.003-0.271-0.22-0.49-0.491-0.495-0.258 0-0.496 0.206-0.509 0.477-0.001 0.030-0.010 0.218-0.010 0.518-0.148 3.026-1.881 5.393-1.899 5.417-0.165 0.222-0.119 0.535 0.103 0.699 0.221 0.167 0.534 0.12 0.699-0.102 0.053-0.069 0.81-1.099 1.402-2.686 0.117 0.587 0.278 1.177 0.499 1.721 0.84 2.069 0.756 4.449 0.762 4.448-0.081 0.425-0.743 4.165 0.579 5.565zM30.682 4.982c-1.236-1.934-3.55-3.046-6.879-3.307-0.457-0.386-1.985-1.572-3.612-1.675-0.257-0.031-0.513 0.192-0.53 0.468-0.018 0.275 0.192 0.513 0.468 0.53 1.547 0.098 3.119 1.518 3.134 1.532 0.083 0.076 0.19 0.122 0.303 0.13 3.083 0.213 5.193 1.174 6.271 2.855 1.641 2.561 0.36 6.020 0.347 6.054-0.064 0.168-0.032 0.358 0.083 0.497 2.295 2.767 1.649 6.366 1.642 6.402-0.051 0.271 0.127 0.533 0.398 0.585 0.032 0.006 0.063 0.009 0.094 0.009 0.235 0 0.444-0.167 0.49-0.406 0.031-0.161 0.714-3.909-1.678-7.007 0.301-0.947 1.107-4.102-0.531-6.667zM26.536 20.11c0.592 1.587 1.349 2.616 1.402 2.686 0.166 0.222 0.479 0.269 0.699 0.102 0.222-0.164 0.267-0.478 0.103-0.699-0.019-0.024-1.751-2.391-1.899-5.417 0-0.3-0.009-0.487-0.010-0.518-0.013-0.271-0.235-0.475-0.509-0.477-0.271 0.005-0.488 0.225-0.491 0.495-0.001 0.17 0.001 0.338 0.008 0.504 0 0.938-0.078 3.071-0.728 4.668-0.933 2.298-0.831 4.834-0.817 5.011 0.265 1.401 0.412 3.913-0.323 4.691-0.19 0.201-0.181 0.518 0.020 0.707 0.095 0.092 0.218 0.137 0.342 0.137 0.133 0 0.265-0.053 0.363-0.156 1.322-1.399 0.659-5.143 0.587-5.494-0.001-0.023-0.095-2.429 0.753-4.519 0.222-0.544 0.383-1.134 0.5-1.721zM26.631 10.403c-0.276 0-0.5 0.224-0.5 0.5 0 2.741-2.274 4.972-5.070 4.972-1.613 0-3.095-0.732-4.064-2.011-0.189-0.248-0.607-0.249-0.797 0.001-0.969 1.277-2.451 2.010-4.064 2.010-2.795 0-5.070-2.23-5.070-4.972 0-0.276-0.224-0.5-0.5-0.5s-0.5 0.224-0.5 0.5c0 3.293 2.723 5.972 6.070 5.972 1.72 0 3.315-0.697 4.463-1.932 1.148 1.234 2.743 1.932 4.463 1.932 3.347 0 6.070-2.679 6.070-5.972-0.001-0.276-0.224-0.5-0.501-0.5zM20.935 5.419c-1.57 0.411-3.463 1.74-4.235 2.317-1.874-1.713-4.342-2.296-4.452-2.321-0.271-0.061-0.538 0.106-0.6 0.375s0.106 0.538 0.375 0.6c0.026 0.006 2.583 0.61 4.28 2.354 0.098 0.101 0.228 0.151 0.358 0.151 0.11 0 0.22-0.036 0.312-0.109 0.024-0.020 2.434-1.934 4.214-2.4 0.267-0.069 0.427-0.343 0.357-0.61-0.069-0.267-0.341-0.43-0.609-0.357z"></path>
</svg>
