<!-- Generated by IcoMoon.io -->
<svg version="1.1" xmlns="http://www.w3.org/2000/svg" width="32" height="32" viewBox="0 0 32 32">
<title>bond</title>
<path d="M6.414 3c0 1.654 1.346 3 3 3s3-1.346 3-3-1.346-3-3-3-3 1.346-3 3zM11.414 3c0 1.103-0.897 2-2 2s-2-0.897-2-2 0.897-2 2-2 2 0.897 2 2zM0.946 13.467c0 1.378 1.122 2.5 2.5 2.5 1.008 0 1.873-0.602 2.268-1.463l4.358 0.83c-0.082 0.358-0.134 0.728-0.134 1.111 0 2.757 2.243 5 5 5 2.088 0 3.877-1.289 4.624-3.112l5.895 1.965c0.053 0.018 0.106 0.026 0.158 0.026 0.209 0 0.404-0.132 0.474-0.342 0.087-0.262-0.054-0.545-0.316-0.632l-5.929-1.976c0.057-0.302 0.094-0.61 0.094-0.928 0-2.757-2.243-5-5-5-0.481 0-0.937 0.090-1.377 0.217l-1.911-4.781c-0.103-0.257-0.395-0.382-0.65-0.279s-0.381 0.394-0.279 0.65l1.912 4.781c-0.981 0.515-1.772 1.333-2.235 2.344l-4.458-0.85c0.001-0.021 0.006-0.040 0.006-0.062 0-1.378-1.122-2.5-2.5-2.5s-2.5 1.122-2.5 2.501zM14.938 12.444c2.206 0 4 1.794 4 4s-1.794 4-4 4-4-1.794-4-4 1.795-4 4-4zM3.446 11.967c0.827 0 1.5 0.673 1.5 1.5s-0.673 1.5-1.5 1.5-1.5-0.673-1.5-1.5 0.673-1.5 1.5-1.5zM5 32c2.757 0 5-2.243 5-5 0-1.277-0.496-2.432-1.287-3.317l2.463-2.562c0.191-0.199 0.185-0.516-0.014-0.707s-0.516-0.185-0.707 0.014l-2.479 2.578c-0.834-0.623-1.857-1.006-2.976-1.006-2.757 0-5 2.243-5 5s2.243 5 5 5zM5 23c2.206 0 4 1.794 4 4s-1.794 4-4 4-4-1.794-4-4 1.794-4 4-4zM29.5 23.925c1.378 0 2.5-1.122 2.5-2.5s-1.122-2.5-2.5-2.5-2.5 1.122-2.5 2.5 1.122 2.5 2.5 2.5zM29.5 19.925c0.827 0 1.5 0.673 1.5 1.5s-0.673 1.5-1.5 1.5-1.5-0.673-1.5-1.5 0.673-1.5 1.5-1.5zM19.899 12.684c0.128 0 0.256-0.049 0.354-0.146l1.799-1.799c0.684 0.546 1.539 0.886 2.48 0.886 2.206 0 4-1.794 4-4s-1.794-4-4-4-4 1.794-4 4c0 0.904 0.313 1.729 0.82 2.4l-1.806 1.806c-0.195 0.195-0.195 0.512 0 0.707 0.097 0.097 0.225 0.146 0.353 0.146zM24.531 4.625c1.654 0 3 1.346 3 3s-1.346 3-3 3-3-1.346-3-3 1.346-3 3-3z"></path>
</svg>
