<!-- Generated by IcoMoon.io -->
<svg version="1.1" xmlns="http://www.w3.org/2000/svg" width="23" height="32" viewBox="0 0 23 32">
<title>book</title>
<path d="M0 30.5c0 0.827 0.673 1.5 1.5 1.5h20c0.827 0 1.5-0.673 1.5-1.5v-23c0-0.827-0.673-1.5-1.5-1.5h-18c-1.379 0-2.5-1.121-2.5-2.5s1.121-2.5 2.5-2.5h18.5c0.276 0 0.5-0.224 0.5-0.5s-0.224-0.5-0.5-0.5h-18.5c-1.93 0-3.5 1.57-3.5 3.5 0 0.123 0.007 0.244 0.019 0.364-0.012 0.043-0.019 0.089-0.019 0.136v26.5zM1 5.947c0.636 0.65 1.521 1.053 2.5 1.053h18c0.275 0 0.5 0.225 0.5 0.5v23c0 0.275-0.225 0.5-0.5 0.5h-20c-0.275 0-0.5-0.225-0.5-0.5v-24.553zM22 3h-18c-0.276 0-0.5 0.224-0.5 0.5s0.224 0.5 0.5 0.5h18c0.276 0 0.5-0.224 0.5-0.5s-0.224-0.5-0.5-0.5z"></path>
</svg>
