<!-- Generated by IcoMoon.io -->
<svg version="1.1" xmlns="http://www.w3.org/2000/svg" width="36" height="32" viewBox="0 0 36 32">
<title>bowl</title>
<path d="M34.473 11h-16.368l10.153-10.152c0.195-0.195 0.195-0.512 0-0.707s-0.512-0.195-0.707 0l-10.86 10.859h-15.164c-0.413 0-0.812 0.171-1.098 0.471-0.28 0.295-0.424 0.679-0.403 1.081 0.331 6.594 3.825 12.717 8.984 15.895-0.001 0.018-0.010 0.034-0.010 0.053v2c0 0.827 0.673 1.5 1.5 1.5h15c0.827 0 1.5-0.673 1.5-1.5v-2c0-0.015-0.007-0.028-0.009-0.042 5.158-3.177 8.652-9.307 8.982-15.905 0.021-0.402-0.123-0.786-0.403-1.082-0.285-0.3-0.684-0.471-1.097-0.471zM1.024 12.501c-0.006-0.125 0.040-0.247 0.13-0.342 0.097-0.101 0.233-0.159 0.373-0.159h6.681c-0.002 0.018-0.010 0.033-0.010 0.051 0 7.594 2.306 13.161 6.536 15.949h-4.508c-5.263-2.868-8.872-8.934-9.202-15.499zM26 30.5c0 0.276-0.225 0.5-0.5 0.5h-15c-0.275 0-0.5-0.224-0.5-0.5v-1.5h16v1.5zM25.796 28h-8.98c-6.622-2.924-7.617-11.238-7.617-15.949 0-0.018-0.008-0.034-0.010-0.051h25.285c0.141 0 0.276 0.058 0.373 0.16 0.090 0.095 0.136 0.216 0.13 0.342-0.33 6.56-3.93 12.627-9.181 15.498z"></path>
</svg>
