<!-- Generated by IcoMoon.io -->
<svg version="1.1" xmlns="http://www.w3.org/2000/svg" width="42" height="32" viewBox="0 0 42 32">
<title>brick-wall</title>
<path d="M1.5 9h11c0.827 0 1.5-0.673 1.5-1.5v-6c0-0.827-0.673-1.5-1.5-1.5h-11c-0.827 0-1.5 0.673-1.5 1.5v6c0 0.827 0.673 1.5 1.5 1.5zM1 1.5c0-0.276 0.224-0.5 0.5-0.5h11c0.276 0 0.5 0.224 0.5 0.5v6c0 0.276-0.224 0.5-0.5 0.5h-11c-0.276 0-0.5-0.224-0.5-0.5v-6zM31 7.5v-6c0-0.827-0.673-1.5-1.5-1.5h-11c-0.827 0-1.5 0.673-1.5 1.5v6c0 0.827 0.673 1.5 1.5 1.5h11c0.827 0 1.5-0.673 1.5-1.5zM18 7.5v-6c0-0.276 0.224-0.5 0.5-0.5h11c0.276 0 0.5 0.224 0.5 0.5v6c0 0.276-0.224 0.5-0.5 0.5h-11c-0.276 0-0.5-0.224-0.5-0.5zM35.5 1h5.5c0.276 0 0.5-0.224 0.5-0.5s-0.224-0.5-0.5-0.5h-5.5c-0.827 0-1.5 0.673-1.5 1.5v6c0 0.827 0.673 1.5 1.5 1.5h5.5c0.276 0 0.5-0.224 0.5-0.5s-0.224-0.5-0.5-0.5h-5.5c-0.276 0-0.5-0.224-0.5-0.5v-6c0-0.276 0.224-0.5 0.5-0.5zM40.5 12h-11c-0.827 0-1.5 0.673-1.5 1.5v5c0 0.827 0.673 1.5 1.5 1.5h11c0.827 0 1.5-0.673 1.5-1.5v-5c0-0.827-0.673-1.5-1.5-1.5zM41 18.5c0 0.276-0.224 0.5-0.5 0.5h-11c-0.276 0-0.5-0.224-0.5-0.5v-5c0-0.276 0.224-0.5 0.5-0.5h11c0.276 0 0.5 0.224 0.5 0.5v5zM23.5 12h-11c-0.827 0-1.5 0.673-1.5 1.5v5c0 0.827 0.673 1.5 1.5 1.5h11c0.827 0 1.5-0.673 1.5-1.5v-5c0-0.827-0.673-1.5-1.5-1.5zM24 18.5c0 0.276-0.224 0.5-0.5 0.5h-11c-0.276 0-0.5-0.224-0.5-0.5v-5c0-0.276 0.224-0.5 0.5-0.5h11c0.276 0 0.5 0.224 0.5 0.5v5zM6.5 19h-5.5c-0.276 0-0.5 0.224-0.5 0.5s0.224 0.5 0.5 0.5h5.5c0.827 0 1.5-0.673 1.5-1.5v-5c0-0.827-0.673-1.5-1.5-1.5h-5.5c-0.276 0-0.5 0.224-0.5 0.5s0.224 0.5 0.5 0.5h5.5c0.276 0 0.5 0.224 0.5 0.5v5c0 0.276-0.224 0.5-0.5 0.5zM1.5 32h11c0.827 0 1.5-0.673 1.5-1.5v-6c0-0.827-0.673-1.5-1.5-1.5h-11c-0.827 0-1.5 0.673-1.5 1.5v6c0 0.827 0.673 1.5 1.5 1.5zM1 24.5c0-0.276 0.224-0.5 0.5-0.5h11c0.276 0 0.5 0.224 0.5 0.5v6c0 0.276-0.224 0.5-0.5 0.5h-11c-0.276 0-0.5-0.224-0.5-0.5v-6zM17 24.5v6c0 0.827 0.673 1.5 1.5 1.5h11c0.827 0 1.5-0.673 1.5-1.5v-6c0-0.827-0.673-1.5-1.5-1.5h-11c-0.827 0-1.5 0.673-1.5 1.5zM30 24.5v6c0 0.276-0.224 0.5-0.5 0.5h-11c-0.276 0-0.5-0.224-0.5-0.5v-6c0-0.276 0.224-0.5 0.5-0.5h11c0.276 0 0.5 0.224 0.5 0.5zM35.5 24h5.5c0.276 0 0.5-0.224 0.5-0.5s-0.224-0.5-0.5-0.5h-5.5c-0.827 0-1.5 0.673-1.5 1.5v6c0 0.827 0.673 1.5 1.5 1.5h5.5c0.276 0 0.5-0.224 0.5-0.5s-0.224-0.5-0.5-0.5h-5.5c-0.276 0-0.5-0.224-0.5-0.5v-6c0-0.276 0.224-0.5 0.5-0.5z"></path>
</svg>
