<!-- Generated by IcoMoon.io -->
<svg version="1.1" xmlns="http://www.w3.org/2000/svg" width="23" height="32" viewBox="0 0 23 32">
<title>brush</title>
<path d="M0 1.5v8c0 0.827 0.673 1.5 1.5 1.5h20c0.827 0 1.5-0.673 1.5-1.5v-8c0-0.827-0.673-1.5-1.5-1.5h-4c-0.276 0-0.5 0.224-0.5 0.5v2.236l-1.301-2.469c-0.087-0.164-0.257-0.267-0.443-0.267h-13.756c-0.827 0-1.5 0.673-1.5 1.5zM4.5 5.5c0.276 0 0.5-0.224 0.5-0.5v-4h3v6c0 0.276 0.224 0.5 0.5 0.5s0.5-0.224 0.5-0.5v-6h5.955l2.103 3.99c0.107 0.203 0.34 0.307 0.562 0.252 0.223-0.054 0.38-0.255 0.38-0.485v-3.757h3.5c0.276 0 0.5 0.224 0.5 0.5v8c0 0.276-0.224 0.5-0.5 0.5h-20c-0.276 0-0.5-0.224-0.5-0.5v-8c0-0.276 0.224-0.5 0.5-0.5h2.5v4c0 0.276 0.224 0.5 0.5 0.5zM0 16.5c0 0.827 0.673 1.5 1.5 1.5h5.823c0.729 0 1.43 0.316 1.922 0.868 0.481 0.538 0.712 1.239 0.635 1.926l-0.866 7.837c0 1.843 1.564 3.343 3.486 3.343s3.486-1.517 3.483-3.438l-0.863-7.737c-0.078-0.688 0.155-1.392 0.637-1.932 0.493-0.551 1.193-0.867 1.92-0.867h3.823c0.827 0 1.5-0.673 1.5-1.5v-3.5c0-0.276-0.224-0.5-0.5-0.5s-0.5 0.224-0.5 0.5v3.5c0 0.276-0.224 0.5-0.5 0.5h-3.823c-1.012 0-1.983 0.438-2.666 1.201-0.672 0.752-0.995 1.739-0.886 2.709l0.86 7.682c0 1.291-1.139 2.382-2.486 2.382-1.371 0-2.486-1.051-2.489-2.288l0.863-7.782c0.109-0.968-0.213-1.954-0.883-2.703-0.681-0.763-1.654-1.201-2.667-1.201h-5.823c-0.276 0-0.5-0.224-0.5-0.5v-3.5c0-0.276-0.224-0.5-0.5-0.5s-0.5 0.224-0.5 0.5v3.5z"></path>
</svg>
