<!-- Generated by IcoMoon.io -->
<svg version="1.1" xmlns="http://www.w3.org/2000/svg" width="28" height="32" viewBox="0 0 28 32">
<title>brush-roll</title>
<path d="M24 7.5v-6c0-0.827-0.673-1.5-1.5-1.5h-16c-0.827 0-1.5 0.673-1.5 1.5v6c0 0.827 0.673 1.5 1.5 1.5h16c0.827 0 1.5-0.673 1.5-1.5zM6 7.5v-6c0-0.276 0.224-0.5 0.5-0.5h16c0.276 0 0.5 0.224 0.5 0.5v6c0 0.276-0.224 0.5-0.5 0.5h-16c-0.276 0-0.5-0.224-0.5-0.5zM1.5 5h1.059c0.276 0 0.5-0.224 0.5-0.5s-0.224-0.5-0.5-0.5h-1.059c-0.827 0-1.5 0.613-1.5 1.44v7.178c0 0.827 0.673 1.382 1.5 1.382h12c0.276 0 0.5 0.342 0.5 0.618v1.822c0 0.276 0.224 0.5 0.5 0.5s0.5-0.224 0.5-0.5v-1.822c0-0.827-0.673-1.618-1.5-1.618h-12c-0.276 0-0.5-0.106-0.5-0.382v-7.178c0-0.276 0.224-0.44 0.5-0.44zM26.5 3.928c-0.276 0-0.5 0.224-0.5 0.5s0.224 0.5 0.5 0.5h1c0.276 0 0.5-0.224 0.5-0.5s-0.224-0.5-0.5-0.5h-1zM18 20.5c0-0.828-0.672-1.5-1.5-1.5h-4c-0.828 0-1.5 0.672-1.5 1.5v10c0 0.828 0.672 1.5 1.5 1.5h4c0.828 0 1.5-0.672 1.5-1.5v-10zM17 30.5c0 0.276-0.224 0.5-0.5 0.5h-4c-0.276 0-0.5-0.224-0.5-0.5v-10c0-0.276 0.224-0.5 0.5-0.5h4c0.276 0 0.5 0.224 0.5 0.5v10z"></path>
</svg>
