<!-- Generated by IcoMoon.io -->
<svg version="1.1" xmlns="http://www.w3.org/2000/svg" width="35" height="32" viewBox="0 0 35 32">
<title>brush-paint</title>
<path d="M30.418 0.632l-14.233 11.58c-0.214 0.174-0.247 0.489-0.072 0.703s0.489 0.248 0.703 0.072l14.233-11.58c0.71-0.577 1.744-0.538 2.407 0.091 0.656 0.623 0.729 1.626 0.168 2.333l-11.384 14.358c-0.172 0.216-0.135 0.531 0.081 0.702 0.092 0.074 0.201 0.109 0.31 0.109 0.147 0 0.293-0.065 0.392-0.189l11.384-14.358c0.885-1.115 0.772-2.697-0.263-3.68-1.026-0.975-2.629-1.035-3.726-0.141zM9.282 32c2.244 0 4.372-0.512 6.154-1.479 4.446-2.416 5.367-7.193 5.557-9.135 0.050-0.513-0.136-1.016-0.509-1.378l-4.623-4.496c-0.292-0.286-0.674-0.457-1.075-0.481-7.506-0.462-8.796 4.778-9.65 8.201l-0.044 0.18c-0.569 2.275-2.868 3.028-4.188 3.273-0.396 0.074-0.71 0.344-0.842 0.722-0.132 0.381-0.051 0.792 0.217 1.099 1.884 2.154 5.333 3.494 9.003 3.494zM1.006 27.732c0.019-0.055 0.065-0.063 0.081-0.066 1.556-0.29 4.271-1.197 4.975-4.014l0.045-0.18c0.83-3.329 1.864-7.472 7.759-7.472 0.276 0 0.561 0.009 0.858 0.027 0.159 0.010 0.319 0.083 0.439 0.2l4.623 4.497c0.154 0.15 0.231 0.356 0.211 0.564-0.174 1.783-1.014 6.167-5.039 8.354-1.636 0.888-3.599 1.358-5.676 1.358-3.338 0-6.576-1.238-8.25-3.154-0.039-0.044-0.035-0.086-0.026-0.114z"></path>
</svg>
