<!-- Generated by IcoMoon.io -->
<svg version="1.1" xmlns="http://www.w3.org/2000/svg" width="32" height="32" viewBox="0 0 32 32">
<title>bug</title>
<path d="M-0.5 18.5c0 0.276 0.224 0.5 0.5 0.5h4c0.276 0 0.5-0.224 0.5-0.5s-0.224-0.5-0.5-0.5h-4c-0.276 0-0.5 0.224-0.5 0.5zM8 8.281l-3.167-2.98c-0.201-0.188-0.517-0.18-0.707 0.021s-0.179 0.518 0.022 0.707l3.188 3c0.018 0.017 0.041 0.025 0.061 0.039-1.831 2.49-2.909 5.715-2.909 9.129 0 2.811 0.708 5.426 1.915 7.61l-2.959 2.959c-0.195 0.195-0.195 0.512 0 0.707 0.098 0.098 0.226 0.146 0.354 0.146s0.256-0.049 0.354-0.146l2.788-2.788c2.106 3.229 5.374 5.315 9.048 5.315s6.943-2.087 9.050-5.316l2.816 2.816c0.098 0.098 0.226 0.146 0.354 0.146s0.256-0.049 0.354-0.146c0.195-0.195 0.195-0.512 0-0.707l-2.987-2.987c1.091-1.973 1.759-4.301 1.88-6.806h3.545c0.276 0 0.5-0.224 0.5-0.5s-0.224-0.5-0.5-0.5h-3.523c-0.040-3.368-1.109-6.527-2.921-8.969 0.022-0.015 0.047-0.023 0.067-0.042l3.209-3c0.202-0.188 0.212-0.505 0.024-0.707s-0.505-0.212-0.707-0.024l-3.194 2.986c-0.615-0.709-1.311-1.323-2.057-1.862 0.001-0.014 0.008-0.028 0.008-0.042 0-0.926-0.484-1.766-1.299-2.425 0.031-0.020 0.065-0.034 0.092-0.061l3.015-3c0.196-0.195 0.197-0.511 0.002-0.707s-0.513-0.198-0.707-0.002l-3.015 3c-0.077 0.076-0.114 0.172-0.131 0.271-1.050-0.588-2.426-0.942-3.958-0.942-1.497 0-2.847 0.338-3.888 0.901-0.023-0.088-0.061-0.173-0.132-0.24l-3.181-3c-0.201-0.19-0.518-0.181-0.707 0.021s-0.18 0.518 0.021 0.707l3.181 3c0.011 0.011 0.025 0.014 0.037 0.024-0.833 0.663-1.33 1.514-1.33 2.453 0 0.051 0.011 0.101 0.026 0.149-0.699 0.523-1.351 1.117-1.932 1.792zM15.906 3.475c2.593 0 4.801 1.201 4.987 2.666-1.636 1.549-3.326 2.335-5.026 2.335 0 0 0 0 0 0-2.559 0-4.455-1.796-4.951-2.317 0.171-1.473 2.387-2.684 4.99-2.684zM10.591 7.241c0.892 0.825 2.779 2.234 5.277 2.234 0 0 0 0 0 0 0.045 0 0.088-0.007 0.132-0.008v1.533c0 0.276 0.224 0.5 0.5 0.5s0.5-0.224 0.5-0.5v-1.634c1.457-0.253 2.884-0.994 4.26-2.216 3.227 2.295 5.228 6.477 5.228 11.047 0 6.643-4.172 12.117-9.488 12.74v-15.937c0-0.276-0.224-0.5-0.5-0.5s-0.5 0.224-0.5 0.5v16c-0.004 0-0.008 0-0.012 0-5.79 0-10.5-5.743-10.5-12.803 0-4.493 1.953-8.642 5.103-10.956z"></path>
</svg>
