<!-- Generated by IcoMoon.io -->
<svg version="1.1" xmlns="http://www.w3.org/2000/svg" width="22" height="32" viewBox="0 0 22 32">
<title>bulb</title>
<path d="M16 27h-9c-0.276 0-0.5 0.224-0.5 0.5s0.224 0.5 0.5 0.5h9c0.276 0 0.5-0.224 0.5-0.5s-0.224-0.5-0.5-0.5zM16.5 29.5c0-0.276-0.224-0.5-0.5-0.5h-9c-0.276 0-0.5 0.224-0.5 0.5s0.224 0.5 0.5 0.5h9c0.276 0 0.5-0.224 0.5-0.5zM9 31c-0.276 0-0.5 0.224-0.5 0.5s0.224 0.5 0.5 0.5h5c0.276 0 0.5-0.224 0.5-0.5s-0.224-0.5-0.5-0.5h-5zM17 25.5v-0.611c0-2.534 0.926-5.049 2.677-7.274 1.52-1.93 2.323-4.245 2.323-6.697 0-6.021-4.935-10.918-11-10.918-0.415 0-0.838 0.023-1.255 0.069-4.872 0.536-8.92 4.41-9.625 9.212-0.495 3.374 0.566 6.709 2.913 9.15 1.913 1.992 2.967 4.466 2.967 6.967v0.102c0 0.276 0.224 0.5 0.5 0.5h10c0.276 0 0.5-0.224 0.5-0.5zM9 14h-1.75c-0.965 0-1.75-0.893-1.75-1.84s0.785-1.779 1.75-1.779 1.75 0.709 1.75 1.656v1.963zM12 25h-2v-10h2v10zM16 25h-3v-10h1.75c1.517 0 2.75-1.341 2.75-2.84s-1.233-2.779-2.75-2.779-2.75 1.157-2.75 2.656v1.963h-2v-1.963c0-1.499-1.233-2.718-2.75-2.718s-2.75 1.342-2.75 2.841 1.233 2.84 2.75 2.84h1.75v10h-2.008c-0.105-2.623-1.246-5.188-3.238-7.262-2.131-2.217-3.094-5.246-2.644-8.312 0.64-4.359 4.318-7.876 8.744-8.363 6.044-0.672 11.146 4.012 11.146 9.854 0 2.226-0.729 4.327-2.108 6.078-1.892 2.404-2.892 5.133-2.892 7.894v0.111zM13 14v-1.963c0-0.947 0.785-1.718 1.75-1.718s1.75 0.893 1.75 1.84-0.785 1.841-1.75 1.841h-1.75z"></path>
</svg>
