<!-- Generated by IcoMoon.io -->
<svg version="1.1" xmlns="http://www.w3.org/2000/svg" width="32" height="32" viewBox="0 0 32 32">
<title>calculation</title>
<path d="M0 13.5c0 0.827 0.673 1.5 1.5 1.5h12c0.827 0 1.5-0.673 1.5-1.5v-12c0-0.827-0.673-1.5-1.5-1.5h-12c-0.827 0-1.5 0.673-1.5 1.5v12zM1 1.5c0-0.275 0.225-0.5 0.5-0.5h12c0.275 0 0.5 0.225 0.5 0.5v12c0 0.275-0.225 0.5-0.5 0.5h-12c-0.275 0-0.5-0.225-0.5-0.5v-12zM32 1.5c0-0.827-0.673-1.5-1.5-1.5h-12c-0.827 0-1.5 0.673-1.5 1.5v12c0 0.827 0.673 1.5 1.5 1.5h12c0.827 0 1.5-0.673 1.5-1.5v-12zM31 13.5c0 0.275-0.225 0.5-0.5 0.5h-12c-0.275 0-0.5-0.225-0.5-0.5v-12c0-0.275 0.225-0.5 0.5-0.5h12c0.275 0 0.5 0.225 0.5 0.5v12zM0 30.5c0 0.827 0.673 1.5 1.5 1.5h12c0.827 0 1.5-0.673 1.5-1.5v-12c0-0.827-0.673-1.5-1.5-1.5h-12c-0.827 0-1.5 0.673-1.5 1.5v12zM1 18.5c0-0.275 0.225-0.5 0.5-0.5h12c0.275 0 0.5 0.225 0.5 0.5v12c0 0.275-0.225 0.5-0.5 0.5h-12c-0.275 0-0.5-0.225-0.5-0.5v-12zM18.5 32h12c0.827 0 1.5-0.673 1.5-1.5v-12c0-0.827-0.673-1.5-1.5-1.5h-12c-0.827 0-1.5 0.673-1.5 1.5v12c0 0.827 0.673 1.5 1.5 1.5zM18 18.5c0-0.275 0.225-0.5 0.5-0.5h12c0.275 0 0.5 0.225 0.5 0.5v12c0 0.275-0.225 0.5-0.5 0.5h-12c-0.275 0-0.5-0.225-0.5-0.5v-12zM5 8h2v2c0 0.276 0.224 0.5 0.5 0.5s0.5-0.224 0.5-0.5v-2h2c0.276 0 0.5-0.224 0.5-0.5s-0.224-0.5-0.5-0.5h-2v-2c0-0.276-0.224-0.5-0.5-0.5s-0.5 0.224-0.5 0.5v2h-2c-0.276 0-0.5 0.224-0.5 0.5s0.224 0.5 0.5 0.5zM27 7h-5c-0.276 0-0.5 0.224-0.5 0.5s0.224 0.5 0.5 0.5h5c0.276 0 0.5-0.224 0.5-0.5s-0.224-0.5-0.5-0.5zM22 24h5c0.276 0 0.5-0.224 0.5-0.5s-0.224-0.5-0.5-0.5h-5c-0.276 0-0.5 0.224-0.5 0.5s0.224 0.5 0.5 0.5zM22 26h5c0.276 0 0.5-0.224 0.5-0.5s-0.224-0.5-0.5-0.5h-5c-0.276 0-0.5 0.224-0.5 0.5s0.224 0.5 0.5 0.5zM5.038 27.5c0.098 0.098 0.226 0.146 0.354 0.146s0.256-0.049 0.354-0.146l1.988-1.988 1.988 1.988c0.098 0.098 0.226 0.146 0.354 0.146s0.256-0.049 0.354-0.146c0.195-0.195 0.195-0.512 0-0.707l-1.99-1.988 1.988-1.988c0.195-0.195 0.195-0.512 0-0.707s-0.512-0.195-0.707 0l-1.988 1.988-1.988-1.988c-0.195-0.195-0.512-0.195-0.707 0s-0.195 0.512 0 0.707l1.988 1.988-1.988 1.988c-0.195 0.195-0.195 0.512 0 0.707z"></path>
</svg>
