<!-- Generated by IcoMoon.io -->
<svg version="1.1" xmlns="http://www.w3.org/2000/svg" width="32" height="32" viewBox="0 0 32 32">
<title>calendar</title>
<path d="M1.5 4h2.5c0.276 0 0.5-0.224 0.5-0.5s-0.224-0.5-0.5-0.5h-2.5c-0.827 0-1.5 0.673-1.5 1.5v26c0 0.827 0.673 1.5 1.5 1.5h29c0.827 0 1.5-0.673 1.5-1.5v-26c0-0.827-0.673-1.5-1.5-1.5h-2.5c-0.276 0-0.5 0.224-0.5 0.5s0.224 0.5 0.5 0.5h2.5c0.276 0 0.5 0.224 0.5 0.5v5.5h-30v-5.5c0-0.276 0.224-0.5 0.5-0.5zM31 11v19.5c0 0.276-0.224 0.5-0.5 0.5h-29c-0.276 0-0.5-0.224-0.5-0.5v-19.5h30zM19 4c0.276 0 0.5-0.224 0.5-0.5s-0.224-0.5-0.5-0.5h-6c-0.276 0-0.5 0.224-0.5 0.5s0.224 0.5 0.5 0.5h6zM10.5 27h3c0.386 0 0.734-0.15 1-0.39 0.266 0.24 0.614 0.39 1 0.39h3c0.827 0 1.5-0.673 1.5-1.5v-3c0-0.238-0.061-0.46-0.159-0.659 0.199 0.098 0.421 0.159 0.659 0.159h3c0.827 0 1.5-0.673 1.5-1.5v-3c0-0.827-0.673-1.5-1.5-1.5h-3c-0.386 0-0.734 0.15-1 0.39-0.266-0.24-0.614-0.39-1-0.39h-3c-0.386 0-0.734 0.15-1 0.39-0.266-0.24-0.614-0.39-1-0.39h-3c-0.827 0-1.5 0.673-1.5 1.5v3c0 0.386 0.15 0.734 0.39 1-0.24 0.266-0.39 0.614-0.39 1v3c0 0.827 0.673 1.5 1.5 1.5zM13.5 26h-3c-0.276 0-0.5-0.224-0.5-0.5v-3c0-0.276 0.224-0.5 0.5-0.5h3c0.276 0 0.5 0.224 0.5 0.5v3c0 0.276-0.224 0.5-0.5 0.5zM19 25.5c0 0.276-0.224 0.5-0.5 0.5h-3c-0.276 0-0.5-0.224-0.5-0.5v-3c0-0.276 0.224-0.5 0.5-0.5h3c0.276 0 0.5 0.224 0.5 0.5v3zM20.5 17h3c0.276 0 0.5 0.224 0.5 0.5v3c0 0.276-0.224 0.5-0.5 0.5h-3c-0.276 0-0.5-0.224-0.5-0.5v-3c0-0.276 0.224-0.5 0.5-0.5zM15.5 17h3c0.276 0 0.5 0.224 0.5 0.5v3c0 0.276-0.224 0.5-0.5 0.5h-3c-0.276 0-0.5-0.224-0.5-0.5v-3c0-0.276 0.224-0.5 0.5-0.5zM10 17.5c0-0.276 0.224-0.5 0.5-0.5h3c0.276 0 0.5 0.224 0.5 0.5v3c0 0.276-0.224 0.5-0.5 0.5h-3c-0.276 0-0.5-0.224-0.5-0.5v-3zM11 4.5v-2c0-1.378-1.122-2.5-2.5-2.5s-2.5 1.122-2.5 2.5v2c0 1.378 1.122 2.5 2.5 2.5s2.5-1.122 2.5-2.5zM7 4.5v-2c0-0.827 0.673-1.5 1.5-1.5s1.5 0.673 1.5 1.5v2c0 0.827-0.673 1.5-1.5 1.5s-1.5-0.673-1.5-1.5zM26 4.5v-2c0-1.378-1.122-2.5-2.5-2.5s-2.5 1.122-2.5 2.5v2c0 1.378 1.122 2.5 2.5 2.5s2.5-1.122 2.5-2.5zM22 4.5v-2c0-0.827 0.673-1.5 1.5-1.5s1.5 0.673 1.5 1.5v2c0 0.827-0.673 1.5-1.5 1.5s-1.5-0.673-1.5-1.5z"></path>
</svg>
