<!-- Generated by IcoMoon.io -->
<svg version="1.1" xmlns="http://www.w3.org/2000/svg" width="38" height="32" viewBox="0 0 38 32">
<title>camera</title>
<path d="M1.5 32h35c0.827 0 1.5-0.673 1.5-1.5v-25c0-0.827-0.673-1.5-1.5-1.5h-35c-0.827 0-1.5 0.673-1.5 1.5v25c0 0.827 0.673 1.5 1.5 1.5zM1 5.5c0-0.276 0.225-0.5 0.5-0.5h35c0.275 0 0.5 0.224 0.5 0.5v25c0 0.276-0.225 0.5-0.5 0.5h-35c-0.275 0-0.5-0.224-0.5-0.5v-25zM19 25.988c4.963 0 9-4.038 9-9s-4.037-9-9-9-9 4.038-9 9c0 4.962 4.037 9 9 9zM19 8.987c4.411 0 8 3.589 8 8s-3.589 8-8 8-8-3.589-8-8c0-4.411 3.589-8 8-8zM19 23.318c0.276 0 0.5-0.224 0.5-0.5s-0.224-0.5-0.5-0.5c-2.939 0-5.33-2.391-5.33-5.331 0-0.276-0.224-0.5-0.5-0.5s-0.5 0.224-0.5 0.5c0 3.491 2.84 6.331 6.33 6.331zM16.234 3.071c0.276 0 0.5-0.224 0.5-0.5 0-0.866 0.705-1.571 1.572-1.571h5.389c0.866 0 1.571 0.705 1.571 1.571 0 0.276 0.224 0.5 0.5 0.5s0.5-0.224 0.5-0.5c0-1.418-1.154-2.571-2.572-2.571h-5.389c-1.418 0-2.571 1.153-2.571 2.571 0 0.277 0.224 0.5 0.5 0.5zM6.5 3c0.276 0 0.5-0.224 0.5-0.5 0-0.827 0.673-1.5 1.5-1.5s1.5 0.673 1.5 1.5c0 0.276 0.224 0.5 0.5 0.5s0.5-0.224 0.5-0.5c0-1.378-1.121-2.5-2.5-2.5s-2.5 1.122-2.5 2.5c0 0.276 0.224 0.5 0.5 0.5z"></path>
</svg>
