<!-- Generated by IcoMoon.io -->
<svg version="1.1" xmlns="http://www.w3.org/2000/svg" width="21" height="32" viewBox="0 0 21 32">
<title>candle</title>
<path d="M0 27.5v3c0 0.827 0.673 1.5 1.5 1.5h18c0.827 0 1.5-0.673 1.5-1.5v-3c0-0.827-0.673-1.5-1.5-1.5h-0.592c0.056-0.157 0.092-0.324 0.092-0.5v-12c0-0.827-0.673-1.5-1.5-1.5h-6.5v-3c0-0.276-0.224-0.5-0.5-0.5s-0.5 0.224-0.5 0.5v3h-6.5c-0.827 0-1.5 0.673-1.5 1.5v12c0 0.176 0.036 0.343 0.092 0.5h-0.592c-0.827 0-1.5 0.673-1.5 1.5zM20 27.5v3c0 0.276-0.225 0.5-0.5 0.5h-18c-0.275 0-0.5-0.224-0.5-0.5v-3c0-0.276 0.225-0.5 0.5-0.5h18c0.275 0 0.5 0.224 0.5 0.5zM3 25.5v-12c0-0.276 0.225-0.5 0.5-0.5h9.5v2c0 0.276 0.224 0.5 0.5 0.5s0.5-0.224 0.5-0.5v-2h3.5c0.275 0 0.5 0.224 0.5 0.5v12c0 0.276-0.225 0.5-0.5 0.5h-14c-0.275 0-0.5-0.224-0.5-0.5zM8.284 10.866c0.185-0.069 0.311-0.239 0.324-0.435 0.173-2.577 1.336-3.889 1.896-4.377 1.716 1.771 2.158 4.396 2.162 4.423 0.032 0.196 0.177 0.355 0.369 0.405 0.188 0.051 0.396-0.018 0.518-0.174 1.239-1.573 1.735-3.235 1.477-4.94-0.514-3.381-3.816-5.686-3.957-5.782-0.171-0.118-0.397-0.117-0.568 0.001-2.71 1.877-4.186 3.94-4.386 6.131-0.247 2.704 1.559 4.555 1.636 4.632 0.096 0.096 0.224 0.147 0.354 0.147 0.059 0 0.119-0.010 0.175-0.031zM7.116 6.196c0.17-1.802 1.402-3.543 3.665-5.18 0.766 0.603 2.891 2.473 3.26 4.901 0.169 1.107-0.055 2.204-0.663 3.271-0.346-1.133-1.075-2.886-2.501-4.164-0.095-0.084-0.214-0.127-0.334-0.127-0.089 0-0.179 0.024-0.259 0.072-0.087 0.053-1.899 1.185-2.503 4.121-0.388-0.686-0.777-1.699-0.665-2.894zM5.5 14.5c-0.276 0-0.5 0.224-0.5 0.5v9c0 0.276 0.224 0.5 0.5 0.5s0.5-0.224 0.5-0.5v-9c0-0.276-0.224-0.5-0.5-0.5z"></path>
</svg>
