<!-- Generated by IcoMoon.io -->
<svg version="1.1" xmlns="http://www.w3.org/2000/svg" width="32" height="32" viewBox="0 0 32 32">
<title>candles</title>
<path d="M6.763 3.321c-0.691 1.335 0.325 2.523 0.96 2.965 0.086 0.060 0.186 0.089 0.285 0.089 0.146 0 0.292-0.065 0.391-0.188 0.988-1.237 1.415-2.463 1.272-3.645-0.19-1.552-1.312-2.427-1.359-2.464-0.166-0.126-0.394-0.138-0.57-0.026-0.178 0.111-0.266 0.321-0.223 0.525 0.19 0.919-0.087 1.455-0.695 2.628l-0.061 0.116zM7.651 3.781l0.060-0.116c0.349-0.671 0.623-1.201 0.765-1.74 0.096 0.22 0.171 0.472 0.204 0.752 0.090 0.774-0.16 1.599-0.746 2.458-0.277-0.311-0.566-0.809-0.283-1.354zM19.762 9.718c-0.691 1.335 0.325 2.523 0.96 2.964 0.086 0.060 0.186 0.089 0.285 0.089 0.146 0 0.292-0.065 0.391-0.188 0.988-1.236 1.417-2.463 1.272-3.645-0.189-1.552-1.312-2.427-1.359-2.464-0.165-0.126-0.394-0.137-0.569-0.026-0.178 0.111-0.267 0.32-0.224 0.525 0.19 0.92-0.087 1.456-0.695 2.628l-0.061 0.117zM20.65 10.178l0.060-0.116c0.349-0.671 0.623-1.201 0.765-1.741 0.096 0.221 0.172 0.473 0.204 0.753 0.091 0.773-0.16 1.598-0.745 2.457-0.276-0.311-0.566-0.81-0.284-1.353zM1.181 30.225l-0.71 0.982c-0.11 0.152-0.125 0.353-0.040 0.521 0.086 0.167 0.257 0.272 0.445 0.272h29.624c0.276 0 0.5-0.249 0.5-0.525 0-0.101-0.030-0.2-0.088-0.283-1.41-2.050-2.57-3.221-3.798-3.779 1.9-1.79 2.951-4.175 2.951-6.76 0-3.26-1.55-6.34-3.77-7.491-0.207-0.107-0.441-0.162-0.695-0.162h-9.4c-0.252 0-0.493 0.056-0.696 0.163-2.22 1.149-3.77 4.225-3.77 7.478 0 2.401 0.869 4.624 2.464 6.359h-3.198v-18.5c0-0.827-0.673-1.5-1.5-1.5h-4c-0.827 0-1.5 0.673-1.5 1.5v18.5c0 0.136 0.055 0.258 0.143 0.348-0.988 0.409-2.049 1.248-2.962 2.877zM15.572 26.951c-1.831-1.623-2.839-3.864-2.839-6.31 0-2.85 1.358-5.621 3.229-6.591 0.063-0.033 0.145-0.050 0.236-0.050h3.802v6c0 0.276 0.224 0.5 0.5 0.5s0.5-0.224 0.5-0.5v-6h2v3c0 0.276 0.224 0.5 0.5 0.5s0.5-0.224 0.5-0.5v-3h1.6c0.091 0 0.173 0.018 0.236 0.050 1.871 0.97 3.229 3.747 3.229 6.603 0 2.43-0.979 4.582-2.832 6.224-0.066 0.059-0.106 0.132-0.133 0.21-0.285-0.053-0.576-0.087-0.881-0.087h-9.609c-0.014-0.016-0.022-0.035-0.038-0.049zM5 27v-18.5c0-0.276 0.225-0.5 0.5-0.5h2.5v2c0 0.276 0.224 0.5 0.5 0.5s0.5-0.224 0.5-0.5v-2h0.5c0.275 0 0.5 0.224 0.5 0.5v18.5h-4.132c-0.273 0-0.574 0.034-0.888 0.096 0.007-0.032 0.020-0.062 0.020-0.096zM5.868 28h19.351c1.522 0 2.709 0.802 4.33 3h-27.697l0.17-0.237c1.031-1.833 2.325-2.763 3.846-2.763z"></path>
</svg>
