<!-- Generated by IcoMoon.io -->
<svg version="1.1" xmlns="http://www.w3.org/2000/svg" width="44" height="32" viewBox="0 0 44 32">
<title>car</title>
<path d="M40.849 11.529c1.106-0.509 2.095-1.066 2.942-1.666 0.226-0.16 0.278-0.472 0.119-0.697-0.159-0.226-0.472-0.279-0.697-0.119-1.053 0.747-2.34 1.424-3.807 2.021l-1.857-7.148c-0.703-2.345-2.82-3.92-5.268-3.92h-20.56c-2.448 0-4.565 1.575-5.273 3.938l-1.839 7.082c-0.037 0.003-0.075 0.002-0.111 0.006-1.427-0.588-2.681-1.25-3.71-1.98-0.226-0.16-0.538-0.107-0.698 0.118s-0.107 0.538 0.118 0.697c0.795 0.564 1.719 1.088 2.744 1.572-1.827 0.837-2.952 2.793-2.952 5.067v4c0 2.528 1.717 4.657 4.044 5.298-0.027 0.062-0.044 0.13-0.044 0.202v1.371c0 2.552 2.019 4.629 4.5 4.629s4.5-2.077 4.5-4.629v-1.371h18v1.371c0 2.552 2.019 4.629 4.5 4.629s4.5-2.077 4.5-4.629v-1.371c0-0.072-0.017-0.14-0.044-0.202 2.327-0.64 4.044-2.77 4.044-5.298v-4c0-2.196-1.054-4.089-3.151-4.971zM7.411 4.207c0.575-1.918 2.307-3.207 4.31-3.207h20.56c2.002 0 3.735 1.289 4.306 3.189l1.772 6.825c-0.12-0.005-0.236-0.014-0.359-0.014v0.596c-4.365 1.514-10.027 2.389-15.999 2.389-6.188 0-12.040-0.94-16.465-2.558l1.875-7.22zM12 27.371c0 2.001-1.57 3.629-3.5 3.629s-3.5-1.628-3.5-3.629v-1.371c0-0.009-0.005-0.017-0.005-0.026 0.167 0.016 0.335 0.026 0.506 0.026h6.499v1.371zM39 26v1.371c0 2.001-1.57 3.629-3.5 3.629s-3.5-1.628-3.5-3.629v-1.371h6.501c0.17 0 0.338-0.010 0.504-0.026 0 0.009-0.005 0.017-0.005 0.026zM43 20.5c0 2.481-2.018 4.5-4.499 4.5h-33c-2.482 0-4.501-2.019-4.501-4.5v-4c0-2.243 1.635-4.092 3.426-4.43 4.631 1.838 10.926 2.914 17.575 2.914 6.536 0 12.727-1.042 17.335-2.823 2.237 0.506 3.664 2.251 3.664 4.339v4zM7.154 15.5c-1.654 0-3 1.346-3 3s1.346 3 3 3 3-1.346 3-3-1.345-3-3-3zM7.154 20.5c-1.103 0-2-0.897-2-2s0.897-2 2-2 2 0.897 2 2-0.897 2-2 2zM37.154 15.5c-1.654 0-3 1.346-3 3s1.346 3 3 3 3-1.346 3-3-1.345-3-3-3zM37.154 20.5c-1.103 0-2-0.897-2-2s0.897-2 2-2 2 0.897 2 2-0.897 2-2 2zM18.654 8c0.128 0 0.256-0.049 0.354-0.146l2.656-2.656c0.195-0.195 0.195-0.512 0-0.707s-0.512-0.195-0.707 0l-2.656 2.656c-0.195 0.195-0.195 0.512 0 0.707 0.097 0.097 0.225 0.146 0.353 0.146zM18.654 12.29c0.128 0 0.256-0.049 0.354-0.146l7.075-7.075c0.195-0.195 0.195-0.512 0-0.707s-0.512-0.195-0.707 0l-7.075 7.075c-0.195 0.195-0.195 0.512 0 0.707 0.097 0.097 0.225 0.146 0.353 0.146zM21.5 17.5c-0.276 0-0.5 0.224-0.5 0.5v3c0 0.276 0.224 0.5 0.5 0.5s0.5-0.224 0.5-0.5v-3c0-0.276-0.224-0.5-0.5-0.5zM17.5 17.5c-0.276 0-0.5 0.224-0.5 0.5v3c0 0.276 0.224 0.5 0.5 0.5s0.5-0.224 0.5-0.5v-3c0-0.276-0.224-0.5-0.5-0.5zM25.5 17.5c-0.276 0-0.5 0.224-0.5 0.5v3c0 0.276 0.224 0.5 0.5 0.5s0.5-0.224 0.5-0.5v-3c0-0.276-0.224-0.5-0.5-0.5z"></path>
</svg>
