<!-- Generated by IcoMoon.io -->
<svg version="1.1" xmlns="http://www.w3.org/2000/svg" width="33" height="32" viewBox="0 0 33 32">
<title>carousal</title>
<path d="M24.5 0h-16c-0.827 0-1.5 0.673-1.5 1.5v29c0 0.827 0.673 1.5 1.5 1.5h16c0.827 0 1.5-0.673 1.5-1.5v-29c0-0.827-0.673-1.5-1.5-1.5zM25 30.5c0 0.275-0.224 0.5-0.5 0.5h-16c-0.276 0-0.5-0.225-0.5-0.5v-29c0-0.275 0.224-0.5 0.5-0.5h16c0.276 0 0.5 0.225 0.5 0.5v29zM31.697 28.356c-0.072 0.030-0.32 0.113-0.542-0.097l-2.062-1.957c-0.201-0.19-0.516-0.183-0.707 0.018-0.19 0.201-0.182 0.518 0.019 0.707l2.061 1.957c0.288 0.273 0.652 0.416 1.025 0.416 0.201 0 0.404-0.041 0.599-0.125 0.562-0.24 0.91-0.768 0.91-1.378v-23.848c0-0.604-0.343-1.13-0.896-1.373s-1.174-0.141-1.618 0.269l-2.179 2c-0.204 0.187-0.217 0.503-0.030 0.706s0.502 0.216 0.706 0.030l2.179-2c0.224-0.205 0.47-0.119 0.54-0.090 0.069 0.031 0.298 0.155 0.298 0.458v23.849c0 0.305-0.232 0.428-0.303 0.458zM1.289 3.463c0.067-0.030 0.306-0.12 0.532 0.070l2.608 2.185c0.213 0.18 0.527 0.15 0.705-0.062s0.149-0.527-0.062-0.704l-2.609-2.184c-0.452-0.379-1.064-0.461-1.597-0.211-0.534 0.25-0.866 0.77-0.866 1.36v24.127c0 0.594 0.335 1.116 0.875 1.364 0.204 0.093 0.417 0.139 0.629 0.139 0.35 0 0.694-0.125 0.975-0.366l2.453-2.114c0.209-0.181 0.232-0.496 0.052-0.705-0.181-0.211-0.497-0.232-0.706-0.053l-2.453 2.114c-0.224 0.195-0.465 0.107-0.534 0.076-0.067-0.031-0.291-0.157-0.291-0.455v-24.127c0-0.296 0.221-0.422 0.289-0.454z"></path>
</svg>
