<!-- Generated by IcoMoon.io -->
<svg version="1.1" xmlns="http://www.w3.org/2000/svg" width="37" height="32" viewBox="0 0 37 32">
<title>caution</title>
<path d="M18.5 26.908c-1.383 0-2.508 1.127-2.508 2.513s1.125 2.514 2.508 2.514 2.508-1.127 2.508-2.514c0-1.385-1.125-2.513-2.508-2.513zM18.5 30.935c-0.832 0-1.508-0.679-1.508-1.514s0.676-1.513 1.508-1.513 1.508 0.679 1.508 1.513-0.676 1.514-1.508 1.514zM18.5 8.7c-1.654 0-3 1.265-2.999 2.85l0.655 11.036c0 1.166 1.005 2.115 2.24 2.115s2.24-0.949 2.238-2.076l0.866-11.105c0-1.555-1.346-2.82-3-2.82zM19.636 22.585c0 0.615-0.556 1.115-1.24 1.115s-1.24-0.5-1.241-1.145l-0.655-11.035c0-1.003 0.897-1.82 2-1.82s2 0.816 2.001 1.781l-0.865 11.104zM3.591 30h8.843c0.276 0 0.5-0.224 0.5-0.5s-0.224-0.5-0.5-0.5h-8.843c-0.969 0-1.821-0.504-2.279-1.349-0.45-0.83-0.411-1.799 0.105-2.591l14.909-22.888c0.478-0.734 1.291-1.172 2.174-1.172s1.696 0.438 2.174 1.172l14.909 22.888c0.516 0.792 0.555 1.761 0.105 2.591-0.458 0.845-1.31 1.349-2.279 1.349h-8.843c-0.276 0-0.5 0.224-0.5 0.5s0.224 0.5 0.5 0.5h8.843c1.342 0 2.522-0.7 3.158-1.873 0.628-1.158 0.573-2.509-0.146-3.614l-14.909-22.887c-0.663-1.019-1.789-1.626-3.012-1.626s-2.349 0.608-3.012 1.626l-14.909 22.888c-0.72 1.105-0.774 2.456-0.146 3.614 0.635 1.172 1.816 1.872 3.158 1.872z"></path>
</svg>
