<!-- Generated by IcoMoon.io -->
<svg version="1.1" xmlns="http://www.w3.org/2000/svg" width="28" height="32" viewBox="0 0 28 32">
<title>chair1</title>
<path d="M20.407 16.426c-0.041 0.273 0.148 0.527 0.421 0.568 0.025 0.004 0.050 0.006 0.074 0.006 0.244 0 0.457-0.178 0.494-0.426l1.625-10.893c0.187-1.424-0.252-2.863-1.203-3.947-0.967-1.102-2.367-1.734-3.842-1.734h-7.824c-1.474 0-2.875 0.632-3.841 1.734-0.952 1.084-1.391 2.523-1.203 3.955l1.624 10.884c0.042 0.273 0.297 0.459 0.568 0.421 0.273-0.041 0.461-0.295 0.421-0.568l-1.622-10.875c-0.149-1.139 0.202-2.29 0.963-3.157 0.777-0.886 1.904-1.394 3.090-1.394h7.824c1.187 0 2.313 0.508 3.090 1.393 0.762 0.868 1.113 2.019 0.965 3.149l-1.624 10.884zM20.853 31.976c0.051 0.016 0.103 0.024 0.154 0.024 0.211 0 0.407-0.134 0.476-0.346 0.085-0.263-0.309-0.545-0.571-0.63-2.304-0.746-3.912-1.008-6.912-1.026v-1.987c0-0.276-0.224-0.5-0.5-0.5s-0.5 0.224-0.5 0.5v1.995c-3 0.108-6.213 0.96-6.395 1.017-0.263 0.084-0.283 0.365-0.2 0.628s0.425 0.408 0.691 0.325c0.069-0.021 7.055-2.171 13.757 0zM1.976 12h1.591c0.276 0 0.5-0.224 0.5-0.5s-0.224-0.5-0.5-0.5h-1.591c-0.561 0-1.078 0.395-1.455 0.819-0.394 0.443-0.578 1.122-0.506 1.722 0.872 7.24 6.884 12.74 13.985 12.74s13.113-5.439 13.985-12.68c0.072-0.6-0.112-1.349-0.506-1.792-0.376-0.425-0.894-0.809-1.455-0.809h-1.548c-0.276 0-0.5 0.224-0.5 0.5s0.224 0.5 0.5 0.5h1.548c0.271 0 0.522 0.275 0.707 0.483 0.204 0.229 0.299 0.623 0.261 0.939-0.811 6.738-6.397 11.859-12.992 11.859s-12.181-5.061-12.992-11.799c-0.038-0.316 0.057-0.78 0.261-1.009 0.184-0.208 0.435-0.473 0.707-0.473z"></path>
</svg>
