<!-- Generated by IcoMoon.io -->
<svg version="1.1" xmlns="http://www.w3.org/2000/svg" width="35" height="32" viewBox="0 0 35 32">
<title>chat-bubble-single</title>
<path d="M26.057 9.459c-1.378 0-2.5 1.121-2.5 2.5s1.122 2.5 2.5 2.5 2.5-1.121 2.5-2.5-1.121-2.5-2.5-2.5zM26.057 13.459c-0.827 0-1.5-0.673-1.5-1.5s0.673-1.5 1.5-1.5 1.5 0.673 1.5 1.5-0.673 1.5-1.5 1.5zM18.5 9.459c-1.378 0-2.5 1.121-2.5 2.5s1.122 2.5 2.5 2.5 2.5-1.121 2.5-2.5-1.122-2.5-2.5-2.5zM18.5 13.459c-0.827 0-1.5-0.673-1.5-1.5s0.673-1.5 1.5-1.5 1.5 0.673 1.5 1.5-0.673 1.5-1.5 1.5zM10.943 9.459c-1.378 0-2.5 1.121-2.5 2.5s1.122 2.5 2.5 2.5 2.5-1.121 2.5-2.5-1.122-2.5-2.5-2.5zM10.943 13.459c-0.827 0-1.5-0.673-1.5-1.5s0.673-1.5 1.5-1.5 1.5 0.673 1.5 1.5-0.673 1.5-1.5 1.5zM33.5 0h-32c-0.827 0-1.5 0.673-1.5 1.5v22c0 0.827 0.673 1.5 1.5 1.5h6c0.276 0 0.5 0.225 0.5 0.5v6c0 0.188 0.105 0.359 0.272 0.445 0.072 0.036 0.15 0.055 0.228 0.055 0.103 0 0.205-0.031 0.292-0.094l9.481-6.812c0.086-0.062 0.187-0.094 0.292-0.094h14.935c0.827 0 1.5-0.673 1.5-1.5v-22c0-0.827-0.673-1.5-1.5-1.5zM34 23.5c0 0.275-0.224 0.5-0.5 0.5h-14.935c-0.315 0-0.618 0.098-0.875 0.281l-8.69 6.244v-5.025c0-0.827-0.673-1.5-1.5-1.5h-6c-0.276 0-0.5-0.225-0.5-0.5v-22c0-0.275 0.224-0.5 0.5-0.5h32c0.276 0 0.5 0.225 0.5 0.5v22z"></path>
</svg>
