<!-- Generated by IcoMoon.io -->
<svg version="1.1" xmlns="http://www.w3.org/2000/svg" width="37" height="32" viewBox="0 0 37 32">
<title>chat-bubble</title>
<path d="M6.371 20.055l-1.924 4.103c-0.089 0.189-0.050 0.416 0.098 0.564 0.096 0.097 0.224 0.147 0.354 0.147 0.071 0 0.143-0.015 0.21-0.046l6.774-3.139c0.777 0.095 1.489 0.141 2.17 0.141 7.779 0 14.107-4.896 14.107-10.913 0.001-6.016-6.327-10.912-14.106-10.912s-14.107 4.896-14.107 10.912c0 3.733 2.391 7.12 6.424 9.143zM14.054 1c7.227 0 13.107 4.446 13.107 9.912s-5.88 9.913-13.107 9.913c-0.681 0-1.396-0.049-2.187-0.15-0.092-0.011-0.188 0.004-0.273 0.042l-5.658 2.621 1.551-3.307c0.057-0.12 0.062-0.258 0.017-0.383s-0.139-0.228-0.26-0.283c-3.943-1.823-6.297-4.983-6.297-8.453 0-5.466 5.88-9.912 13.107-9.912zM7.197 13.328c0.162 0.039 0.327 0.059 0.491 0.059 0.617 0 1.19-0.278 1.572-0.763s0.517-1.115 0.369-1.728c-0.171-0.71-0.74-1.279-1.451-1.451-0.775-0.188-1.58 0.091-2.062 0.705-0.382 0.485-0.517 1.115-0.369 1.727 0.17 0.71 0.739 1.279 1.45 1.451zM6.901 10.77c0.191-0.243 0.478-0.383 0.787-0.383 0.084 0 0.17 0.011 0.255 0.031 0.344 0.083 0.63 0.369 0.713 0.713 0.076 0.317 0.011 0.628-0.183 0.874-0.244 0.31-0.645 0.445-1.042 0.351-0.344-0.083-0.63-0.369-0.713-0.713-0.076-0.317-0.011-0.627 0.183-0.873zM13.098 13.328c0.162 0.039 0.327 0.059 0.491 0.059 0.617 0 1.189-0.278 1.571-0.763s0.517-1.115 0.369-1.728c-0.171-0.71-0.74-1.279-1.451-1.451-0.774-0.188-1.579 0.091-2.062 0.705-0.382 0.485-0.517 1.114-0.37 1.727 0.171 0.709 0.741 1.279 1.452 1.451zM12.802 10.77c0.191-0.243 0.478-0.383 0.787-0.383 0.084 0 0.17 0.011 0.255 0.031 0.344 0.083 0.631 0.369 0.713 0.713 0.077 0.317 0.012 0.628-0.183 0.874-0.243 0.311-0.644 0.446-1.042 0.351-0.344-0.083-0.631-0.369-0.714-0.713-0.076-0.317-0.011-0.627 0.184-0.873zM18.998 13.328c0.162 0.039 0.327 0.059 0.491 0.059 0.617 0 1.19-0.278 1.572-0.763s0.517-1.115 0.369-1.728c-0.171-0.71-0.74-1.279-1.451-1.451-0.774-0.188-1.58 0.091-2.062 0.705-0.382 0.485-0.517 1.114-0.369 1.727 0.171 0.71 0.74 1.279 1.45 1.451zM18.702 10.77c0.191-0.243 0.478-0.383 0.787-0.383 0.084 0 0.17 0.011 0.255 0.031 0.344 0.083 0.63 0.369 0.713 0.713 0.076 0.317 0.011 0.628-0.183 0.874-0.244 0.31-0.646 0.445-1.042 0.351-0.344-0.083-0.631-0.369-0.714-0.713-0.075-0.317-0.010-0.627 0.184-0.873zM29.908 12.218c-0.268-0.075-0.543 0.073-0.622 0.337-0.079 0.265 0.071 0.543 0.336 0.622 3.847 1.146 6.431 4.009 6.431 7.121 0 2.683-1.917 5.206-5.003 6.585-0.214 0.096-0.333 0.327-0.286 0.557l0.59 2.861-3.17-2.395c-0.107-0.080-0.24-0.11-0.373-0.096-0.652 0.094-1.296 0.142-1.916 0.142-3.661 0-7.203-1.87-8.613-4.548-0.128-0.245-0.432-0.338-0.675-0.21-0.244 0.129-0.338 0.431-0.209 0.675 1.575 2.993 5.481 5.083 9.498 5.083 0.601 0 1.223-0.041 1.851-0.123l4.065 3.070c0.088 0.067 0.194 0.101 0.301 0.101 0.093 0 0.186-0.025 0.267-0.077 0.176-0.111 0.265-0.32 0.223-0.523l-0.779-3.774c3.236-1.577 5.229-4.354 5.229-7.327 0-3.615-2.804-6.786-7.145-8.081z"></path>
</svg>
