<!-- Generated by IcoMoon.io -->
<svg version="1.1" xmlns="http://www.w3.org/2000/svg" width="39" height="32" viewBox="0 0 39 32">
<title>cheese</title>
<path d="M36.224 3.039l-3-1.982c-1.754-1.083-3.941-1.353-6.009-0.735l-23.533 7.661c-0.011 0.004-0.019 0.013-0.030 0.017h-2.152c-0.827 0-1.5 0.673-1.5 1.5v9.658c0 0.276 0.224 0.5 0.5 0.5 2.449 0 3.912 1.463 3.912 3.912s-1.463 3.911-3.912 3.911c-0.276 0-0.5 0.224-0.5 0.5v2.007c0 2.012 1.296 2.012 1.993 2.012h35.507c0.827 0 1.5-0.673 1.5-1.5v-21c0-0.087-0.011-0.172-0.026-0.255 0.012-0.042 0.026-0.082 0.026-0.128 0-2.816-0.934-4.861-2.776-6.078zM27.512 1.276c1.787-0.531 3.675-0.302 5.173 0.623l2.987 1.974c1.315 0.869 2.073 2.283 2.271 4.201-0.141-0.044-0.288-0.074-0.443-0.074h-30.638l20.65-6.724zM38 30.5c0 0.275-0.224 0.5-0.5 0.5h-35.507c-0.702 0-0.993 0-0.993-1.012v-1.525c2.697-0.205 4.412-2.079 4.412-4.893s-1.715-4.688-4.412-4.893v-9.177c0-0.275 0.224-0.5 0.5-0.5h36c0.276 0 0.5 0.225 0.5 0.5v21zM15.991 18.849c-2.746 0-4.98 2.237-4.98 4.988s2.234 4.988 4.98 4.988c2.746 0 4.979-2.237 4.979-4.988s-2.234-4.988-4.979-4.988zM15.991 27.825c-2.194 0-3.98-1.789-3.98-3.988s1.786-3.988 3.98-3.988 3.979 1.789 3.979 3.988-1.785 3.988-3.979 3.988zM12.134 13.835c0-1.343-1.091-2.435-2.431-2.435s-2.431 1.092-2.431 2.435 1.091 2.436 2.431 2.436 2.431-1.093 2.431-2.436zM9.703 15.271c-0.789 0-1.431-0.644-1.431-1.436s0.642-1.435 1.431-1.435 1.431 0.644 1.431 1.435c0 0.792-0.642 1.436-1.431 1.436zM23.463 14.367c-1.025 0-1.859 0.835-1.859 1.861 0 1.027 0.834 1.862 1.859 1.862s1.859-0.835 1.859-1.862c0-1.026-0.834-1.861-1.859-1.861zM23.463 17.091c-0.474 0-0.859-0.387-0.859-0.862s0.385-0.861 0.859-0.861 0.859 0.387 0.859 0.861c0 0.475-0.385 0.862-0.859 0.862zM28.883 22.136c-1.341 0-2.432 1.092-2.432 2.435s1.091 2.435 2.432 2.435c1.34 0 2.431-1.092 2.431-2.435s-1.090-2.435-2.431-2.435zM28.883 26.005c-0.79 0-1.432-0.644-1.432-1.435s0.642-1.435 1.432-1.435c0.789 0 1.431 0.644 1.431 1.435s-0.642 1.435-1.431 1.435zM32.646 12.046c-1.801 0-3.267 1.468-3.267 3.271s1.465 3.271 3.267 3.271 3.267-1.468 3.267-3.271-1.466-3.271-3.267-3.271zM32.646 17.589c-1.25 0-2.267-1.019-2.267-2.271s1.017-2.271 2.267-2.271 2.267 1.019 2.267 2.271-1.017 2.271-2.267 2.271z"></path>
</svg>
