<!-- Generated by IcoMoon.io -->
<svg version="1.1" xmlns="http://www.w3.org/2000/svg" width="33" height="32" viewBox="0 0 33 32">
<title>clip</title>
<path d="M20.219 8.125c0.198-0.193 0.202-0.51 0.009-0.707-0.193-0.198-0.509-0.201-0.707-0.009l-12.196 11.904c-0.799 0.78-1.239 1.822-1.239 2.934s0.44 2.154 1.239 2.934c1.647 1.608 4.329 1.608 5.976 0l13.892-13.561c1.313-1.282 2.036-2.993 2.036-4.819s-0.723-3.538-2.036-4.819c-2.712-2.647-7.127-2.647-9.838 0l-14.591 14.244c-1.783 1.739-2.764 4.062-2.764 6.54 0 2.479 0.981 4.802 2.764 6.542 1.842 1.798 4.263 2.698 6.683 2.698s4.841-0.899 6.683-2.698l16.72-16.321c0.198-0.193 0.202-0.51 0.009-0.707s-0.509-0.201-0.707-0.009l-16.72 16.321c-3.3 3.222-8.67 3.222-11.969 0-1.589-1.55-2.463-3.619-2.463-5.825s0.875-4.275 2.462-5.825l14.591-14.244c2.327-2.272 6.114-2.273 8.442 0 1.118 1.092 1.734 2.549 1.734 4.104 0 1.554-0.616 3.011-1.734 4.103l-13.892 13.561c-1.263 1.232-3.317 1.232-4.58 0-0.604-0.59-0.938-1.378-0.938-2.218s0.333-1.628 0.938-2.218l12.196-11.905z"></path>
</svg>
