<!-- Generated by IcoMoon.io -->
<svg version="1.1" xmlns="http://www.w3.org/2000/svg" width="23" height="32" viewBox="0 0 23 32">
<title>clip-board</title>
<path d="M19 14h-8c-0.276 0-0.5 0.224-0.5 0.5s0.224 0.5 0.5 0.5h8c0.276 0 0.5-0.224 0.5-0.5s-0.224-0.5-0.5-0.5zM19 19h-8c-0.276 0-0.5 0.224-0.5 0.5s0.224 0.5 0.5 0.5h8c0.276 0 0.5-0.224 0.5-0.5s-0.224-0.5-0.5-0.5zM19 24h-8c-0.276 0-0.5 0.224-0.5 0.5s0.224 0.5 0.5 0.5h8c0.276 0 0.5-0.224 0.5-0.5s-0.224-0.5-0.5-0.5zM21.5 4h-2.5v-0.5c0-0.827-0.673-1.5-1.5-1.5h-2.5v-1.5c0-0.276-0.224-0.5-0.5-0.5h-6c-0.276 0-0.5 0.224-0.5 0.5v1.5h-2.5c-0.827 0-1.5 0.673-1.5 1.5v0.5h-2.5c-0.827 0-1.5 0.673-1.5 1.5v25c0 0.827 0.673 1.5 1.5 1.5h20c0.827 0 1.5-0.673 1.5-1.5v-25c0-0.827-0.673-1.5-1.5-1.5zM5 3.5c0-0.275 0.225-0.5 0.5-0.5h3c0.276 0 0.5-0.224 0.5-0.5v-1.5h5v1.5c0 0.276 0.224 0.5 0.5 0.5h3c0.275 0 0.5 0.225 0.5 0.5v2c0 0.275-0.225 0.5-0.5 0.5h-12c-0.275 0-0.5-0.225-0.5-0.5v-2zM22 30.5c0 0.275-0.225 0.5-0.5 0.5h-20c-0.275 0-0.5-0.225-0.5-0.5v-25c0-0.275 0.225-0.5 0.5-0.5h2.5v0.5c0 0.827 0.673 1.5 1.5 1.5h12c0.827 0 1.5-0.673 1.5-1.5v-0.5h2.5c0.275 0 0.5 0.225 0.5 0.5v25zM8.166 13.605l-1.436 1.436-0.613-0.614c-0.195-0.195-0.512-0.195-0.707 0s-0.195 0.512 0 0.707l0.967 0.968c0.094 0.094 0.221 0.146 0.354 0.146s0.26-0.053 0.354-0.146l1.789-1.789c0.195-0.195 0.195-0.512 0-0.707s-0.513-0.196-0.708-0.001zM8.166 17.885l-1.436 1.435-0.613-0.614c-0.195-0.195-0.512-0.195-0.707 0s-0.195 0.512 0 0.707l0.967 0.968c0.094 0.094 0.221 0.146 0.354 0.146s0.26-0.053 0.354-0.146l1.789-1.789c0.195-0.195 0.195-0.512 0-0.707s-0.513-0.196-0.708 0zM8.166 23.164l-1.436 1.436-0.613-0.614c-0.195-0.195-0.512-0.195-0.707 0s-0.195 0.512 0 0.707l0.967 0.968c0.094 0.094 0.221 0.146 0.354 0.146s0.26-0.053 0.354-0.146l1.789-1.789c0.195-0.195 0.195-0.512 0-0.707s-0.513-0.196-0.708-0.001z"></path>
</svg>
