<!-- Generated by IcoMoon.io -->
<svg version="1.1" xmlns="http://www.w3.org/2000/svg" width="49" height="32" viewBox="0 0 49 32">
<title>cloud-up</title>
<path d="M37.088 8.718l-0.283-0.003c-0.156-0.001-0.319-0.004-0.477-0.001-1.553-5.152-6.345-8.714-11.792-8.714-6.79 0-12.314 5.534-12.314 12.337 0 0.058 0.001 0.115 0.002 0.174-1.422-0.287-2.877-0.267-4.335 0.064-4.067 0.922-7.019 3.875-7.704 7.706-0.533 2.981 0.206 5.856 2.081 8.096 1.927 2.303 4.82 3.623 7.936 3.623h5.649c4.743 0 9.648-3.164 9.648-8.458v-3.298l2.275 2.372c0.192 0.2 0.508 0.206 0.707 0.016s0.206-0.508 0.016-0.707l-3.137-3.271c-0.001-0.001-0.003-0.002-0.004-0.003-0.090-0.093-0.216-0.151-0.356-0.151-0.067 0-0.133 0.014-0.193 0.039s-0.116 0.063-0.162 0.109c0 0-0.001 0-0.001 0.001l-3.235 3.271c-0.194 0.196-0.192 0.513 0.004 0.707 0.098 0.097 0.225 0.145 0.352 0.145 0.129 0 0.258-0.050 0.355-0.148l2.38-2.406v3.326c0 4.666-4.397 7.456-8.648 7.456h-5.649c-2.819 0-5.433-1.189-7.17-3.265-1.682-2.009-2.343-4.594-1.863-7.278 0.613-3.429 3.272-6.075 6.94-6.907 1.523-0.343 3.040-0.316 4.512 0.082 0.155 0.044 0.323 0.008 0.448-0.096s0.192-0.26 0.182-0.422c-0.018-0.254-0.029-0.52-0.029-0.777-0.001-6.251 5.074-11.337 11.313-11.337 5.13 0 9.626 3.437 10.935 8.357 0.479 1.956 0.42 4.156-0.164 6.037-0.082 0.264 0.065 0.544 0.329 0.626 0.050 0.016 0.1 0.022 0.148 0.022 0.214 0 0.411-0.138 0.478-0.352 0.578-1.862 0.659-4 0.283-5.972 0.084 0 0.164-0.005 0.247-0.005l0.296 0.003c3.132 0 5.996 1.215 8.064 3.422 2.005 2.139 3.001 4.971 2.807 7.975-0.365 5.637-5.235 9.887-11.33 9.887h-8.129c-0.276 0-0.5 0.224-0.5 0.5s0.224 0.5 0.5 0.5h8.129c6.629 0 11.929-4.652 12.328-10.821 0.213-3.282-0.88-6.381-3.075-8.724-2.227-2.375-5.432-3.737-8.794-3.737z"></path>
</svg>
