<!-- Generated by IcoMoon.io -->
<svg version="1.1" xmlns="http://www.w3.org/2000/svg" width="49" height="32" viewBox="0 0 49 32">
<title>cloud</title>
<path d="M37.088 8.861l-0.602 0.139c-0.033 0-0.066 0-0.098 0-0.029-0.053-0.064-0.099-0.109-0.137-1.598-4.932-6.346-8.72-11.742-8.72-6.791 0-12.315 5.391-12.315 12.194 0 0.058 0 0.116 0.001 0.174-1.417-0.286-2.891-0.263-4.335 0.064-4.067 0.922-7.019 3.875-7.704 7.706-0.533 2.981 0.206 5.856 2.081 8.096 1.928 2.303 4.821 3.623 7.938 3.623h26.426c6.629 0 11.929-4.616 12.328-10.785 0.212-3.282-0.88-6.345-3.076-8.688-2.227-2.375-5.431-3.666-8.793-3.666zM47.959 21.114c-0.364 5.636-5.235 9.886-11.33 9.886h-26.426c-2.82 0-5.434-1.189-7.17-3.265-1.681-2.009-2.343-4.593-1.863-7.278 0.613-3.429 3.272-6.075 6.94-6.907 0.7-0.158 1.409-0.238 2.108-0.238 0.812 0 1.62 0.107 2.403 0.32 0.156 0.044 0.322 0.008 0.447-0.096s0.193-0.259 0.183-0.42c-0.017-0.255-0.029-0.521-0.029-0.779 0-6.251 5.075-11.337 11.315-11.337 5.13 0 9.626 3.437 10.934 8.357 0.48 1.956 0.42 4.155-0.164 6.037-0.082 0.264 0.065 0.544 0.329 0.626 0.050 0.016 0.1 0.022 0.148 0.022 0.213 0 0.411-0.138 0.478-0.352 0.579-1.865 0.66-4.005 0.282-5.978l0.544 0.004c3.132 0 5.995 1.215 8.063 3.421 2.005 2.141 3.002 4.973 2.808 7.977z"></path>
</svg>
