<!-- Generated by IcoMoon.io -->
<svg version="1.1" xmlns="http://www.w3.org/2000/svg" width="36" height="32" viewBox="0 0 36 32">
<title>code-browser</title>
<path d="M14.191 16.087c-0.195-0.195-0.512-0.195-0.707 0l-3.517 3.516c-0.094 0.094-0.146 0.221-0.146 0.354s0.053 0.26 0.146 0.354l3.517 3.517c0.098 0.098 0.226 0.146 0.354 0.146s0.256-0.049 0.354-0.146c0.195-0.195 0.195-0.512 0-0.707l-3.163-3.163 3.163-3.163c0.194-0.196 0.194-0.512-0.001-0.708zM19.857 23.827c0.098 0.098 0.226 0.146 0.354 0.146s0.256-0.049 0.354-0.146l3.516-3.517c0.195-0.195 0.195-0.512 0-0.707l-3.516-3.516c-0.195-0.195-0.512-0.195-0.707 0s-0.195 0.512 0 0.707l3.163 3.163-3.163 3.163c-0.196 0.195-0.196 0.512-0.001 0.707zM17.383 16.325l-1.671 7.033c-0.064 0.269 0.102 0.539 0.371 0.602 0.039 0.009 0.078 0.014 0.116 0.014 0.226 0 0.431-0.155 0.486-0.384l1.671-7.033c0.064-0.269-0.102-0.539-0.371-0.602-0.267-0.063-0.537 0.102-0.602 0.37zM0 30.5c0 0.827 0.673 1.5 1.5 1.5h33c0.827 0 1.5-0.673 1.5-1.5v-18c0-0.276-0.224-0.5-0.5-0.5s-0.5 0.224-0.5 0.5v18c0 0.276-0.224 0.5-0.5 0.5h-33c-0.276 0-0.5-0.224-0.5-0.5v-18c0-0.276-0.224-0.5-0.5-0.5s-0.5 0.224-0.5 0.5v18zM34.5 0h-33c-0.827 0-1.5 0.673-1.5 1.5v8c0 0.827 0.673 1.5 1.5 1.5h33c0.827 0 1.5-0.673 1.5-1.5v-8c0-0.827-0.673-1.5-1.5-1.5zM35 9.5c0 0.276-0.224 0.5-0.5 0.5h-33c-0.276 0-0.5-0.224-0.5-0.5v-8c0-0.276 0.224-0.5 0.5-0.5h33c0.276 0 0.5 0.224 0.5 0.5v8zM5 5.5c0 0.552-0.448 1-1 1s-1-0.448-1-1c0-0.552 0.448-1 1-1s1 0.448 1 1zM8 5.5c0 0.552-0.448 1-1 1s-1-0.448-1-1c0-0.552 0.448-1 1-1s1 0.448 1 1zM11 5.5c0 0.552-0.448 1-1 1s-1-0.448-1-1c0-0.552 0.448-1 1-1s1 0.448 1 1z"></path>
</svg>
