<!-- Generated by IcoMoon.io -->
<svg version="1.1" xmlns="http://www.w3.org/2000/svg" width="32" height="32" viewBox="0 0 32 32">
<title>code</title>
<path d="M1.5 32h29c0.827 0 1.5-0.673 1.5-1.5v-29c0-0.827-0.673-1.5-1.5-1.5h-29c-0.827 0-1.5 0.673-1.5 1.5v29c0 0.827 0.673 1.5 1.5 1.5zM1 1.5c0-0.276 0.224-0.5 0.5-0.5h29c0.276 0 0.5 0.224 0.5 0.5v29c0 0.276-0.224 0.5-0.5 0.5h-29c-0.276 0-0.5-0.224-0.5-0.5v-29zM20.224 20.367c0.098 0.098 0.226 0.146 0.354 0.146s0.256-0.049 0.354-0.146l4.014-4.014c0.195-0.195 0.195-0.512 0-0.707l-4.014-4.014c-0.195-0.195-0.512-0.195-0.707 0s-0.195 0.512 0 0.707l3.66 3.66-3.66 3.66c-0.197 0.196-0.197 0.513-0.001 0.708zM10.865 20.372c0.089 0.066 0.194 0.098 0.297 0.098 0.153 0 0.304-0.070 0.402-0.203 0.165-0.222 0.118-0.535-0.104-0.699l-4.161-3.079 3.079-4.161c0.165-0.222 0.118-0.535-0.104-0.699-0.222-0.166-0.535-0.117-0.699 0.104l-3.376 4.563c-0.165 0.222-0.118 0.535 0.104 0.699l4.562 3.377zM14.014 21.978c0.049 0.015 0.1 0.022 0.148 0.022 0.213 0 0.411-0.137 0.478-0.352l3.415-11c0.082-0.264-0.065-0.544-0.329-0.626-0.265-0.082-0.544 0.065-0.626 0.329l-3.415 11c-0.082 0.265 0.065 0.545 0.329 0.627z"></path>
</svg>
