<!-- Generated by IcoMoon.io -->
<svg version="1.1" xmlns="http://www.w3.org/2000/svg" width="34" height="32" viewBox="0 0 34 32">
<title>color-plate</title>
<path d="M10.832 5.735c-1.378 0-2.5 1.122-2.5 2.5s1.122 2.5 2.5 2.5 2.5-1.122 2.5-2.5-1.122-2.5-2.5-2.5zM10.832 9.735c-0.827 0-1.5-0.673-1.5-1.5s0.673-1.5 1.5-1.5 1.5 0.673 1.5 1.5-0.673 1.5-1.5 1.5zM21.474 9.246c0-1.378-1.122-2.5-2.5-2.5s-2.5 1.122-2.5 2.5 1.122 2.5 2.5 2.5 2.5-1.121 2.5-2.5zM17.474 9.246c0-0.827 0.673-1.5 1.5-1.5s1.5 0.673 1.5 1.5-0.673 1.5-1.5 1.5-1.5-0.673-1.5-1.5zM22.867 13.593c-1.378 0-2.5 1.122-2.5 2.5s1.122 2.5 2.5 2.5 2.5-1.122 2.5-2.5-1.122-2.5-2.5-2.5zM22.867 17.593c-0.827 0-1.5-0.673-1.5-1.5s0.673-1.5 1.5-1.5 1.5 0.673 1.5 1.5-0.673 1.5-1.5 1.5zM20.387 21.047c-1.654 0-3 1.346-3 3s1.346 3 3 3 3-1.346 3-3-1.345-3-3-3zM20.387 26.047c-1.103 0-2-0.897-2-2s0.897-2 2-2 2 0.897 2 2-0.897 2-2 2zM17 0c-9.374 0-17 7.729-17 17.228 0 4.675 1.817 9.117 4.985 12.188 0.949 0.92 1.903 1.406 2.761 1.406 0.778 0 1.428-0.402 1.783-1.103 0.556-1.098 0.274-2.681-0.718-4.033-0.483-0.657-0.614-1.439-0.334-1.991 0.198-0.39 0.581-0.605 1.078-0.605 0.581 0 2.188 0.324 4.549 3.322 3.636 4.618 7.030 5.588 9.238 5.588 1.854 0 3.639-0.697 5.027-1.962 3.578-3.265 5.631-7.934 5.631-12.81 0-9.499-7.626-17.228-17-17.228zM27.695 29.298c-1.203 1.098-2.749 1.702-4.353 1.702-1.986 0-5.064-0.903-8.453-5.207-1.881-2.389-3.775-3.704-5.335-3.704-0.881 0-1.599 0.42-1.97 1.154-0.455 0.898-0.294 2.061 0.42 3.034 0.877 1.195 0.95 2.363 0.632 2.99-0.128 0.253-0.386 0.555-0.89 0.555-0.584 0-1.317-0.399-2.064-1.124-2.976-2.884-4.682-7.064-4.682-11.47 0-8.948 7.178-16.228 16-16.228s16 7.28 16 16.228c0 4.596-1.934 8.995-5.305 12.070z"></path>
</svg>
