<!-- Generated by IcoMoon.io -->
<svg version="1.1" xmlns="http://www.w3.org/2000/svg" width="25" height="32" viewBox="0 0 25 32">
<title>compass-math</title>
<path d="M12.658 9.38c0.827 0 1.5-0.673 1.5-1.5s-0.673-1.5-1.5-1.5-1.5 0.673-1.5 1.5 0.673 1.5 1.5 1.5zM12.658 7.38c0.275 0 0.5 0.225 0.5 0.5s-0.225 0.5-0.5 0.5-0.5-0.225-0.5-0.5 0.225-0.5 0.5-0.5zM0.309 31.9c0.065 0.028 0.134 0.042 0.201 0.042 0.191 0 0.375-0.111 0.458-0.299l4.354-9.879c2.076 1.292 4.472 1.996 6.982 1.996 2.684 0 5.242-0.793 7.412-2.263l4.314 10.14c0.081 0.19 0.266 0.305 0.46 0.305 0.065 0 0.132-0.013 0.195-0.040 0.255-0.108 0.373-0.401 0.265-0.655l-4.409-10.362c0.391-0.312 0.771-0.64 1.129-0.999 0.811-0.81 0.811-2.129 0-2.94-0.756-0.754-2.042-0.777-2.84-0.081l-2.647-6.223c0.601-0.765 1.145-1.716 1.145-2.763 0.001-1.759-1.328-3.27-2.328-4.009v-1.812c0-1.103-0.897-2-2-2s-2 0.897-2 2v1.812c-2 0.739-2.671 2.25-2.671 4.010 0 1.045 0.287 1.996 0.887 2.76l-2.957 6.614c-0.113-0.103-0.252-0.199-0.361-0.308-0.787-0.785-2.164-0.785-2.951 0-0.811 0.812-0.816 2.131-0.005 2.94 0.482 0.482 1.001 0.909 1.541 1.306l-4.43 10.048c-0.111 0.253 0.003 0.548 0.256 0.66zM12 2.058c0-0.552 0.448-1 1-1s1 0.448 1 1v1.443c-1-0.074-0.655-0.121-1-0.121s-1 0.047-1 0.121v-1.443zM12.658 4.38c1.93 0 3.5 1.57 3.5 3.5s-1.57 3.5-3.5 3.5-3.5-1.57-3.5-3.5 1.571-3.5 3.5-3.5zM9.889 11.4c0.766 0.604 1.72 0.98 2.769 0.98 1.047 0 1.998-0.374 2.764-0.975l2.621 6.162c-1.615 1.319-3.621 2.037-5.739 2.037-1.925 0-3.751-0.6-5.282-1.697l2.867-6.507zM3.644 17.653c0.204-0.203 0.475-0.315 0.764-0.315 0.288 0 0.559 0.112 0.763 0.315 1.903 1.902 4.438 2.95 7.135 2.95 2.492 0 4.837-0.904 6.68-2.54 0.008-0.008 0.018-0.015 0.025-0.023 0.143-0.128 0.29-0.25 0.427-0.387 0.409-0.407 1.119-0.405 1.526 0 0.42 0.421 0.421 1.105 0 1.526-2.31 2.31-5.385 3.581-8.66 3.581-2.463 0-4.812-0.719-6.807-2.058-0.050-0.062-0.109-0.117-0.187-0.152-0.009-0.004-0.019-0.003-0.028-0.006-0.577-0.406-1.129-0.855-1.638-1.364-0.421-0.421-0.42-1.106 0-1.527z"></path>
</svg>
