<!-- Generated by IcoMoon.io -->
<svg version="1.1" xmlns="http://www.w3.org/2000/svg" width="27" height="32" viewBox="0 0 27 32">
<title>compass</title>
<path d="M15.56 5.172c0.576-0.547 0.94-1.315 0.94-2.17 0-1.654-1.346-3-3-3s-3 1.346-3 3c0 0.855 0.364 1.623 0.94 2.17-6.467 0.997-11.44 6.584-11.44 13.326 0 7.444 6.056 13.5 13.5 13.5s13.5-6.056 13.5-13.5c0-6.742-4.973-12.329-11.44-13.326zM11.5 3.002c0-1.103 0.897-2 2-2s2 0.897 2 2c0 1.094-0.884 1.983-1.974 1.997-0.009 0-0.017-0.001-0.026-0.001s-0.017 0.001-0.026 0.001c-1.090-0.014-1.974-0.903-1.974-1.997zM14 30.973v-1.973c0-0.276-0.224-0.5-0.5-0.5s-0.5 0.224-0.5 0.5v1.973c-6.492-0.259-11.715-5.481-11.975-11.973h1.975c0.276 0 0.5-0.224 0.5-0.5s-0.224-0.5-0.5-0.5h-1.975c0.258-6.494 5.482-11.718 11.975-11.977v1.977c0 0.276 0.224 0.5 0.5 0.5s0.5-0.224 0.5-0.5v-1.977c6.493 0.259 11.717 5.483 11.975 11.977h-1.975c-0.276 0-0.5 0.224-0.5 0.5s0.224 0.5 0.5 0.5h1.975c-0.26 6.492-5.483 11.714-11.975 11.973zM20.287 11.045l-8.841 4.16c-0.105 0.050-0.19 0.134-0.239 0.24l-4.159 8.84c-0.090 0.191-0.051 0.417 0.099 0.566 0.096 0.096 0.224 0.146 0.354 0.146 0.072 0 0.145-0.016 0.213-0.047l8.84-4.16c0.105-0.050 0.19-0.134 0.239-0.24l4.16-8.84c0.090-0.191 0.051-0.417-0.099-0.566s-0.375-0.187-0.567-0.099zM15.964 19.962l-7.42 3.492 3.491-7.421 7.421-3.492-3.492 7.421zM12.586 19.412c0.378 0.378 0.88 0.586 1.414 0.586s1.036-0.208 1.414-0.586 0.586-0.88 0.586-1.414c0-0.535-0.208-1.037-0.586-1.414-0.756-0.756-2.072-0.756-2.828 0-0.378 0.377-0.586 0.879-0.586 1.414 0 0.534 0.208 1.036 0.586 1.414zM13.293 17.291c0.189-0.189 0.44-0.293 0.707-0.293s0.518 0.104 0.707 0.293c0.189 0.189 0.293 0.44 0.293 0.707s-0.104 0.518-0.293 0.707c-0.379 0.378-1.035 0.378-1.414 0-0.189-0.189-0.293-0.44-0.293-0.707s0.104-0.518 0.293-0.707z"></path>
</svg>
