<!-- Generated by IcoMoon.io -->
<svg version="1.1" xmlns="http://www.w3.org/2000/svg" width="32" height="32" viewBox="0 0 32 32">
<title>cross-gap</title>
<path d="M16 0c-8.822 0-16 7.178-16 16s7.178 16 16 16 16-7.178 16-16-7.178-16-16-16zM16 31c-8.271 0-15-6.729-15-15s6.729-15 15-15 15 6.729 15 15-6.729 15-15 15zM17.657 16.95c-0.195-0.195-0.512-0.195-0.707 0s-0.195 0.512 0 0.707l4.243 4.242c0.098 0.098 0.226 0.146 0.354 0.146s0.256-0.049 0.354-0.146c0.195-0.195 0.195-0.512 0-0.707l-4.244-4.242zM10.808 10.101c-0.195-0.195-0.512-0.195-0.707 0s-0.195 0.512 0 0.707l4.243 4.242c0.098 0.098 0.226 0.146 0.354 0.146s0.256-0.049 0.354-0.146c0.195-0.195 0.195-0.512 0-0.707l-4.244-4.242zM14.343 16.95l-4.243 4.242c-0.195 0.195-0.195 0.512 0 0.707 0.098 0.098 0.226 0.146 0.354 0.146s0.256-0.049 0.354-0.146l4.243-4.242c0.195-0.195 0.195-0.512 0-0.707s-0.512-0.195-0.708 0zM21.192 10.101l-4.243 4.242c-0.195 0.195-0.195 0.512 0 0.707 0.098 0.098 0.226 0.146 0.354 0.146s0.256-0.049 0.354-0.146l4.243-4.242c0.195-0.195 0.195-0.512 0-0.707s-0.512-0.196-0.708 0z"></path>
</svg>
