<!-- Generated by IcoMoon.io -->
<svg version="1.1" xmlns="http://www.w3.org/2000/svg" width="32" height="32" viewBox="0 0 32 32">
<title>cross-game</title>
<path d="M12.734 7.854c0.098 0.097 0.226 0.146 0.354 0.146s0.256-0.049 0.354-0.146l3.146-3.146 3.146 3.146c0.098 0.097 0.226 0.146 0.354 0.146s0.256-0.049 0.354-0.146c0.195-0.195 0.195-0.512 0-0.707l-3.147-3.147 3.146-3.146c0.195-0.195 0.195-0.512 0-0.707s-0.512-0.195-0.707 0l-3.146 3.146-3.146-3.146c-0.195-0.195-0.512-0.195-0.707 0s-0.195 0.512 0 0.707l3.146 3.146-3.146 3.146c-0.196 0.196-0.196 0.512-0.001 0.708zM0.146 20.286c0.098 0.098 0.226 0.146 0.354 0.146s0.256-0.049 0.354-0.146l3.146-3.147 3.146 3.146c0.098 0.098 0.226 0.146 0.354 0.146s0.256-0.049 0.354-0.146c0.195-0.195 0.195-0.512 0-0.707l-3.146-3.146 3.146-3.146c0.195-0.195 0.195-0.512 0-0.707s-0.512-0.195-0.707 0l-3.147 3.146-3.146-3.146c-0.195-0.195-0.512-0.195-0.707 0s-0.195 0.512 0 0.707l3.146 3.146-3.146 3.146c-0.196 0.196-0.196 0.512-0.001 0.708zM24.146 20.286c0.098 0.098 0.226 0.146 0.354 0.146s0.256-0.049 0.354-0.146l3.146-3.147 3.146 3.146c0.098 0.098 0.226 0.146 0.354 0.146s0.256-0.049 0.354-0.146c0.195-0.195 0.195-0.512 0-0.707l-3.146-3.146 3.146-3.146c0.195-0.195 0.195-0.512 0-0.707s-0.512-0.195-0.707 0l-3.147 3.146-3.146-3.146c-0.195-0.195-0.512-0.195-0.707 0s-0.195 0.512 0 0.707l3.146 3.146-3.146 3.146c-0.196 0.196-0.196 0.512-0.001 0.708zM4 8c2.206 0 4-1.794 4-4s-1.794-4-4-4-4 1.794-4 4 1.794 4 4 4zM4 1c1.654 0 3 1.346 3 3s-1.346 3-3 3-3-1.346-3-3 1.346-3 3-3zM28 8c2.206 0 4-1.794 4-4s-1.794-4-4-4-4 1.794-4 4 1.794 4 4 4zM28 1c1.654 0 3 1.346 3 3s-1.346 3-3 3-3-1.346-3-3 1.346-3 3-3zM12.734 31.854c0.098 0.097 0.226 0.146 0.354 0.146s0.256-0.049 0.354-0.146l3.146-3.146 3.146 3.146c0.098 0.097 0.226 0.146 0.354 0.146s0.256-0.049 0.354-0.146c0.195-0.195 0.195-0.512 0-0.707l-3.147-3.147 3.146-3.146c0.195-0.195 0.195-0.512 0-0.707s-0.512-0.195-0.707 0l-3.146 3.146-3.146-3.146c-0.195-0.195-0.512-0.195-0.707 0s-0.195 0.512 0 0.707l3.146 3.146-3.146 3.146c-0.196 0.196-0.196 0.512-0.001 0.708zM28 32c2.206 0 4-1.794 4-4s-1.794-4-4-4-4 1.794-4 4 1.794 4 4 4zM28 25c1.654 0 3 1.346 3 3s-1.346 3-3 3-3-1.346-3-3 1.346-3 3-3zM4 32c2.206 0 4-1.794 4-4s-1.794-4-4-4-4 1.794-4 4 1.794 4 4 4zM4 25c1.654 0 3 1.346 3 3s-1.346 3-3 3-3-1.346-3-3 1.346-3 3-3zM16.588 20.432c2.206 0 4-1.794 4-4s-1.794-4-4-4-4 1.794-4 4 1.794 4 4 4zM16.588 13.432c1.654 0 3 1.346 3 3s-1.346 3-3 3-3-1.346-3-3 1.346-3 3-3z"></path>
</svg>
