<!-- Generated by IcoMoon.io -->
<svg version="1.1" xmlns="http://www.w3.org/2000/svg" width="32" height="32" viewBox="0 0 32 32">
<title>cross</title>
<path d="M16 0c-4.274 0-8.292 1.664-11.313 4.687-3.022 3.021-4.687 7.040-4.687 11.313s1.665 8.292 4.687 11.313c3.021 3.023 7.039 4.687 11.313 4.687s8.292-1.664 11.313-4.687c3.022-3.021 4.687-7.040 4.687-11.313s-1.665-8.292-4.687-11.313c-3.021-3.023-7.039-4.687-11.313-4.687zM26.606 26.606c-2.833 2.833-6.599 4.394-10.606 4.394s-7.773-1.561-10.606-4.394-4.394-6.599-4.394-10.606 1.561-7.773 4.394-10.606 6.599-4.394 10.606-4.394 7.773 1.561 10.606 4.394 4.394 6.599 4.394 10.606-1.561 7.773-4.394 10.606zM22.010 9.989c-0.195-0.195-0.512-0.195-0.707 0l-5.303 5.304-5.303-5.304c-0.195-0.195-0.512-0.195-0.707 0s-0.195 0.512 0 0.707l5.303 5.304-5.303 5.304c-0.195 0.195-0.195 0.512 0 0.707 0.098 0.098 0.226 0.146 0.354 0.146s0.256-0.049 0.354-0.146l5.302-5.304 5.303 5.304c0.098 0.098 0.226 0.146 0.354 0.146s0.256-0.049 0.354-0.146c0.195-0.195 0.195-0.512 0-0.707l-5.304-5.304 5.303-5.304c0.196-0.195 0.196-0.511 0-0.707z"></path>
</svg>
