<!-- Generated by IcoMoon.io -->
<svg version="1.1" xmlns="http://www.w3.org/2000/svg" width="37" height="32" viewBox="0 0 37 32">
<title>crown</title>
<path d="M34.055 10.038c1.654 0 3-1.346 3-3s-1.346-3-3-3-3 1.346-3 3c0 0.8 0.32 1.525 0.832 2.063-1.564 0.562-4.817 2.016-7.544 5.013l-5.446-8.211c1.243-0.367 2.158-1.505 2.158-2.865 0-1.654-1.346-3-3-3s-3 1.346-3 3c0 1.376 0.936 2.525 2.2 2.878l-4.7 8.046c-2.697-2.892-5.863-4.309-7.4-4.861 0.513-0.538 0.832-1.263 0.832-2.063 0-1.654-1.346-3-3-3s-3 1.346-3 3 1.346 3 3 3c0.253 0 0.495-0.041 0.729-0.1l2.811 16.062h-3.527c-1.654 0-3 1.346-3 3s1.346 3 3 3h31c1.654 0 3-1.346 3-3s-1.346-3-3-3h-3.485l2.811-16.062c0.234 0.059 0.476 0.1 0.729 0.1zM34.055 5.038c1.103 0 2 0.897 2 2s-0.897 2-2 2-2-0.897-2-2 0.897-2 2-2zM16.055 3.038c0-1.103 0.897-2 2-2s2 0.897 2 2-0.897 2-2 2-2-0.897-2-2zM0.987 7.038c0-1.103 0.897-2 2-2s2 0.897 2 2-0.897 2-2 2-2-0.897-2-2zM36 29c0 1.103-0.897 2-2 2h-31c-1.103 0-2-0.897-2-2s0.897-2 2-2h31c1.103 0 2 0.897 2 2zM29.5 26h-21.958l-2.796-15.978c2.102 0.763 7.975 3.418 10.339 9.915 0.095 0.26 0.38 0.394 0.641 0.299s0.394-0.381 0.299-0.641c-0.7-1.923-1.681-3.511-2.775-4.84l4.832-8.272 5.558 8.381c0.010 0.015 0.025 0.023 0.037 0.036-1.046 1.3-1.984 2.841-2.659 4.695-0.095 0.26 0.039 0.546 0.299 0.641 0.261 0.096 0.546-0.039 0.641-0.299 2.359-6.484 8.236-9.147 10.339-9.913l-2.797 15.976z"></path>
</svg>
