<!-- Generated by IcoMoon.io -->
<svg version="1.1" xmlns="http://www.w3.org/2000/svg" width="27" height="32" viewBox="0 0 27 32">
<title>cube</title>
<path d="M0 24.206c0 0.181 0.098 0.348 0.255 0.437l13 7.294c0.076 0.042 0.161 0.063 0.245 0.063s0.169-0.021 0.245-0.063l13-7.294c0.157-0.089 0.255-0.256 0.255-0.437v-16.412c0-0.015-0.010-0.027-0.011-0.041-0.005-0.058-0.019-0.113-0.044-0.166-0.010-0.021-0.017-0.041-0.029-0.060-0.039-0.062-0.090-0.298-0.156-0.339-0.003-0.001-0.004-0.188-0.007-0.188-0.001 0-0.001 0-0.002 0l-12.499-7.113c-0.151-0.089-0.335 0-0.487 0.081l-13.5 7.264c-0.187 0.1-0.282 0.323-0.26 0.52 0 0.007-0.005 0.035-0.005 0.042v16.412zM26 23.913l-12.5 7.014-12.5-7.014v-15.266l12 6.734v12.619c0 0.276 0.224 0.5 0.5 0.5s0.5-0.224 0.5-0.5v-12.619l12-6.734v15.266zM13.989 1.072l11.504 6.713-11.974 6.719c-0.007 0-0.012-0.004-0.019-0.004s-0.012 0.004-0.019 0.004l-12.008-6.738 12.516-6.694z"></path>
</svg>
