<!-- Generated by IcoMoon.io -->
<svg version="1.1" xmlns="http://www.w3.org/2000/svg" width="33" height="32" viewBox="0 0 33 32">
<title>cup-coffee</title>
<path d="M9.5 7.5c0.276 0 0.5-0.224 0.5-0.5v-4c0-0.276-0.224-0.5-0.5-0.5s-0.5 0.224-0.5 0.5v4c0 0.276 0.224 0.5 0.5 0.5zM13.5 7.5c0.276 0 0.5-0.224 0.5-0.5v-6c0-0.276-0.224-0.5-0.5-0.5s-0.5 0.224-0.5 0.5v6c0 0.276 0.224 0.5 0.5 0.5zM17.5 7.5c0.276 0 0.5-0.224 0.5-0.5v-4c0-0.276-0.224-0.5-0.5-0.5s-0.5 0.224-0.5 0.5v4c0 0.276 0.224 0.5 0.5 0.5zM1 31c-0.276 0-0.5 0.224-0.5 0.5s0.224 0.5 0.5 0.5h26c0.276 0 0.5-0.224 0.5-0.5s-0.224-0.5-0.5-0.5h-26zM12.631 28h-3.631c-0.276 0-0.5 0.224-0.5 0.5s0.224 0.5 0.5 0.5h9c0.276 0 0.5-0.224 0.5-0.5s-0.224-0.5-0.5-0.5h-2.689c3.27-0.267 6.107-1.491 8.259-3.402 0.984 1.047 2.326 1.641 3.758 1.641 2.868 0 5.201-2.338 5.201-5.212 0-2.705-2.074-4.909-4.708-5.162 0.030-0.386 0.056-0.773 0.056-1.171l0.036-4.189c0.001-0.133-0.051-0.262-0.145-0.356-0.094-0.096-0.221-0.149-0.355-0.149h-26.913c-0.276 0-0.5 0.224-0.5 0.5v4.004c0 7.298 5.345 12.894 12.631 13.496zM31.529 21.026c0 2.323-1.885 4.212-4.201 4.212-1.156 0-2.227-0.501-3.022-1.351 1.789-1.87 2.984-4.276 3.396-7.036 2.139 0.194 3.827 1.981 3.827 4.175zM1 11h25.909l-0.032 3.689c0 7.168-5.441 12.371-12.938 12.371-7.377 0-12.939-5.398-12.939-12.556v-3.504z"></path>
</svg>
