<!-- Generated by IcoMoon.io -->
<svg version="1.1" xmlns="http://www.w3.org/2000/svg" width="37" height="32" viewBox="0 0 37 32">
<title>cup</title>
<path d="M25 32c0.276 0 0.5-0.224 0.5-0.5s-0.224-0.5-0.5-0.5h-13c-0.276 0-0.5 0.224-0.5 0.5s0.224 0.5 0.5 0.5h13zM2.199 13c0.057 0 0.114-0.009 0.17-0.030 0.26-0.094 0.395-0.38 0.3-0.64l-0.924-2.557c-0.428-1.094-0.293-2.278 0.37-3.248s1.715-1.525 2.89-1.525h0.995v7.5c0 6.726 5.343 12.212 12.005 12.475 0 0.009-0.005 0.016-0.005 0.025v3h-3c-0.276 0-0.5 0.224-0.5 0.5s0.224 0.5 0.5 0.5h7c0.276 0 0.5-0.224 0.5-0.5s-0.224-0.5-0.5-0.5h-3v-3c0-0.009-0.005-0.016-0.005-0.025 6.662-0.263 12.005-5.749 12.005-12.475v-7.5h1.032c1.186 0 2.28 0.592 2.929 1.584s0.753 2.233 0.282 3.308l-1.122 2.396c-0.117 0.25-0.009 0.548 0.241 0.665 0.069 0.032 0.141 0.047 0.212 0.047 0.188 0 0.368-0.106 0.453-0.288l1.127-2.408c0.611-1.396 0.478-2.992-0.356-4.267s-2.242-2.037-3.766-2.037h-1.032v-2.5c0-0.827-0.673-1.5-1.5-1.5h-22c-0.827 0-1.5 0.673-1.5 1.5v2.5h-0.995c-1.487 0-2.877 0.733-3.716 1.962s-1.017 2.79-0.479 4.164l0.919 2.544c0.074 0.204 0.265 0.33 0.47 0.33zM7 1.5c0-0.276 0.225-0.5 0.5-0.5h22c0.275 0 0.5 0.224 0.5 0.5v11c0 6.341-5.159 11.5-11.5 11.5s-11.5-5.159-11.5-11.5v-11z"></path>
</svg>
