<!-- Generated by IcoMoon.io -->
<svg version="1.1" xmlns="http://www.w3.org/2000/svg" width="40" height="32" viewBox="0 0 40 32">
<title>delivery-van</title>
<path d="M22.5 0h-21c-0.827 0-1.5 0.673-1.5 1.5v22c0 0.827 0.673 1.5 1.5 1.5h21c0.827 0 1.5-0.673 1.5-1.5v-22c0-0.827-0.673-1.5-1.5-1.5zM23 23.5c0 0.275-0.225 0.5-0.5 0.5h-21c-0.275 0-0.5-0.225-0.5-0.5v-22c0-0.275 0.225-0.5 0.5-0.5h21c0.275 0 0.5 0.225 0.5 0.5v22zM36.225 5.811c-0.259-0.5-0.77-0.811-1.333-0.811h-6.392c-0.827 0-1.5 0.673-1.5 1.5v8c0 0.827 0.673 1.5 1.5 1.5h6.5c0.276 0 0.5-0.224 0.5-0.5s-0.224-0.5-0.5-0.5h-6.5c-0.275 0-0.5-0.225-0.5-0.5v-8c0-0.275 0.225-0.5 0.5-0.5h6.392c0.188 0 0.358 0.104 0.444 0.271l3.609 6.96c0.035 0.068 0.055 0.147 0.055 0.227v10.042c0 0.275-0.225 0.5-0.5 0.5h-11.5c-0.276 0-0.5 0.224-0.5 0.5s0.224 0.5 0.5 0.5h11.5c0.827 0 1.5-0.673 1.5-1.5v-10.042c0-0.241-0.059-0.48-0.168-0.69l-3.607-6.957zM20 14h-15c-0.276 0-0.5 0.224-0.5 0.5s0.224 0.5 0.5 0.5h15c0.276 0 0.5-0.224 0.5-0.5s-0.224-0.5-0.5-0.5zM36.5 27c-0.276 0-0.5 0.224-0.5 0.5 0 1.93-1.57 3.5-3.5 3.5s-3.5-1.57-3.5-3.5c0-0.276-0.224-0.5-0.5-0.5s-0.5 0.224-0.5 0.5c0 2.481 2.019 4.5 4.5 4.5s4.5-2.019 4.5-4.5c0-0.276-0.224-0.5-0.5-0.5zM11.5 27c-0.276 0-0.5 0.224-0.5 0.5 0 1.93-1.57 3.5-3.5 3.5s-3.5-1.57-3.5-3.5c0-0.276-0.224-0.5-0.5-0.5s-0.5 0.224-0.5 0.5c0 2.481 2.019 4.5 4.5 4.5s4.5-2.019 4.5-4.5c0-0.276-0.224-0.5-0.5-0.5z"></path>
</svg>
