<!-- Generated by IcoMoon.io -->
<svg version="1.1" xmlns="http://www.w3.org/2000/svg" width="32" height="32" viewBox="0 0 32 32">
<title>direction-both</title>
<path d="M27.336 12c0.133 0 0.26-0.053 0.354-0.146l3.99-4c0.195-0.195 0.195-0.512 0-0.707l-3.99-4c-0.094-0.094-0.221-0.147-0.354-0.147h-9.336v-2.5c0-0.276-0.224-0.5-0.5-0.5h-3c-0.276 0-0.5 0.224-0.5 0.5v2.5h-3.703c-0.776 0-1.297 0.603-1.297 1.5v6c0 0.897 0.521 1.5 1.297 1.5h3.703v1h-9.218c-0.14 0-0.273 0.059-0.368 0.162l-4.108 4.472c-0.175 0.19-0.176 0.482-0.002 0.674l4.108 4.528c0.095 0.104 0.229 0.164 0.37 0.164h9.218v8c0 0.276 0.224 0.5 0.5 0.5s0.5-0.224 0.5-0.5v-8h2v5c0 0.276 0.224 0.5 0.5 0.5s0.5-0.224 0.5-0.5v-5h4.674c0.781 0 1.326-0.617 1.326-1.5v-7c0-0.883-0.545-1.5-1.326-1.5h-4.674v-1h9.336zM15 1h2v2h-2v-2zM10.297 11c-0.246 0-0.297-0.271-0.297-0.5v-6c0-0.229 0.051-0.5 0.297-0.5h16.832l3.491 3.5-3.492 3.5h-16.831zM22.674 14c0.269 0 0.326 0.271 0.326 0.5v7c0 0.229-0.057 0.5-0.326 0.5h-17.67l-3.652-4.026 3.65-3.974h17.672zM17 13h-2v-1h2v1zM17.849 19.472c0.827 0 1.5-0.673 1.5-1.5s-0.673-1.5-1.5-1.5-1.5 0.673-1.5 1.5 0.673 1.5 1.5 1.5zM17.849 17.472c0.276 0 0.5 0.225 0.5 0.5s-0.224 0.5-0.5 0.5-0.5-0.225-0.5-0.5 0.224-0.5 0.5-0.5zM13.47 19.472c0.827 0 1.5-0.673 1.5-1.5s-0.673-1.5-1.5-1.5-1.5 0.673-1.5 1.5 0.673 1.5 1.5 1.5zM13.47 17.472c0.276 0 0.5 0.225 0.5 0.5s-0.224 0.5-0.5 0.5-0.5-0.225-0.5-0.5 0.224-0.5 0.5-0.5zM9.091 19.472c0.827 0 1.5-0.673 1.5-1.5s-0.673-1.5-1.5-1.5-1.5 0.673-1.5 1.5 0.673 1.5 1.5 1.5zM9.091 17.472c0.276 0 0.5 0.225 0.5 0.5s-0.224 0.5-0.5 0.5-0.5-0.225-0.5-0.5 0.224-0.5 0.5-0.5zM17 7h-2c-0.276 0-0.5 0.224-0.5 0.5s0.224 0.5 0.5 0.5h2c0.276 0 0.5-0.224 0.5-0.5s-0.224-0.5-0.5-0.5zM23 7h-3c-0.276 0-0.5 0.224-0.5 0.5s0.224 0.5 0.5 0.5h3c0.276 0 0.5-0.224 0.5-0.5s-0.224-0.5-0.5-0.5z"></path>
</svg>
