<!-- Generated by IcoMoon.io -->
<svg version="1.1" xmlns="http://www.w3.org/2000/svg" width="21" height="32" viewBox="0 0 21 32">
<title>direction-right</title>
<path d="M11 4.5c-0.276 0-0.5-0.224-0.5-0.5v-3c0-0.276 0.224-0.5 0.5-0.5s0.5 0.224 0.5 0.5v3c0 0.276-0.224 0.5-0.5 0.5zM11 32.5c-0.276 0-0.5-0.224-0.5-0.5v-16c0-0.276 0.224-0.5 0.5-0.5s0.5 0.224 0.5 0.5v16c0 0.276-0.224 0.5-0.5 0.5zM16.909 14h-15.409c-0.827 0-1.5-0.673-1.5-1.5v-5c0-0.827 0.673-1.5 1.5-1.5h15.328c0.441 0 0.858 0.192 1.143 0.529l2.55 3.002c0.151 0.178 0.159 0.437 0.019 0.623l-2.43 3.245c-0.283 0.376-0.732 0.601-1.201 0.601zM1.5 7c-0.276 0-0.5 0.225-0.5 0.5v5c0 0.275 0.224 0.5 0.5 0.5h15.409c0.157 0 0.306-0.075 0.4-0.2l2.191-2.926-2.292-2.698c-0.094-0.112-0.233-0.176-0.38-0.176h-15.328z"></path>
</svg>
