<!-- Generated by IcoMoon.io -->
<svg version="1.1" xmlns="http://www.w3.org/2000/svg" width="32" height="32" viewBox="0 0 32 32">
<title>disc</title>
<path d="M16 5.465c0.276 0 0.5-0.224 0.5-0.5s-0.224-0.5-0.5-0.5c-6.511 0-11.808 5.297-11.808 11.809 0 0.276 0.224 0.5 0.5 0.5s0.5-0.224 0.5-0.5c0-5.961 4.849-10.809 10.808-10.809zM16 32c8.822 0 16-7.178 16-16s-7.178-16-16-16-16 7.178-16 16 7.178 16 16 16zM16 1c8.271 0 15 6.729 15 15s-6.729 15-15 15-15-6.729-15-15 6.729-15 15-15zM10.5 16c0 3.033 2.468 5.5 5.5 5.5s5.5-2.467 5.5-5.5-2.468-5.5-5.5-5.5-5.5 2.467-5.5 5.5zM20.5 16c0 2.481-2.019 4.5-4.5 4.5s-4.5-2.019-4.5-4.5 2.019-4.5 4.5-4.5 4.5 2.019 4.5 4.5z"></path>
</svg>
