<!-- Generated by IcoMoon.io -->
<svg version="1.1" xmlns="http://www.w3.org/2000/svg" width="32" height="32" viewBox="0 0 32 32">
<title>dislike</title>
<path d="M28.974 2.732c-0.4-1.609-1.828-2.732-3.474-2.732h-7.939c-0.045 0-0.090 0.006-0.133 0.019l-7.169 1.981h-2.259c-0.276 0-0.5 0.224-0.5 0.5s0.224 0.5 0.5 0.5h2.327c0.045 0 0.090-0.006 0.133-0.019l7.168-1.981h7.872c1.185 0 2.214 0.812 2.503 1.973l2.701 10.954c0.171 0.691 0.050 1.405-0.343 2.013-0.398 0.615-1.040 1.043-1.758 1.173l-6.536 1.167c-1.199 0.215-2.065 1.255-2.060 2.472l0.033 7.848c0 0.718-0.25 1.329-0.722 1.768-0.496 0.46-1.201 0.691-1.984 0.623-1.309-0.097-2.334-1.237-2.334-2.594v-2.202c0-1.365-0.495-2.683-1.394-3.709l-1.37-1.564c-1.069-1.222-2.613-1.922-4.236-1.922-0.276 0-0.5 0.224-0.5 0.5s0.224 0.5 0.5 0.5c1.334 0 2.604 0.576 3.484 1.58l1.37 1.564c0.739 0.845 1.146 1.928 1.146 3.051v2.202c0 1.877 1.432 3.454 3.26 3.591 0.108 0.008 0.214 0.012 0.319 0.012 0.938 0 1.789-0.314 2.419-0.9 0.672-0.624 1.042-1.512 1.042-2.502l-0.033-7.851c-0.003-0.73 0.517-1.354 1.236-1.483l6.537-1.167c0.991-0.179 1.873-0.768 2.421-1.614 0.544-0.841 0.713-1.834 0.474-2.796l-2.701-10.955zM2.5 0c-1.378 0-2.5 1.121-2.5 2.5v16c0 1.379 1.122 2.5 2.5 2.5s2.5-1.121 2.5-2.5v-16c0-1.379-1.122-2.5-2.5-2.5zM4 18.5c0 0.827-0.673 1.5-1.5 1.5s-1.5-0.673-1.5-1.5v-16c0-0.827 0.673-1.5 1.5-1.5s1.5 0.673 1.5 1.5v16z"></path>
</svg>
