<!-- Generated by IcoMoon.io -->
<svg version="1.1" xmlns="http://www.w3.org/2000/svg" width="32" height="32" viewBox="0 0 32 32">
<title>door-path</title>
<path d="M22.5 5h-13c-0.827 0-1.5 0.673-1.5 1.5v19c0 0.827 0.673 1.5 1.5 1.5h13c0.827 0 1.5-0.673 1.5-1.5v-19c0-0.827-0.673-1.5-1.5-1.5zM23 25.5c0 0.276-0.224 0.5-0.5 0.5h-13c-0.276 0-0.5-0.224-0.5-0.5v-19c0-0.276 0.224-0.5 0.5-0.5h13c0.276 0 0.5 0.224 0.5 0.5v19zM4 3v26c0 0.276 0.224 0.5 0.5 0.5s0.5-0.224 0.5-0.5v-26c0-0.276-0.224-0.5-0.5-0.5s-0.5 0.224-0.5 0.5zM0.5 31.5c0.276 0 0.5-0.224 0.5-0.5v-30c0-0.276-0.224-0.5-0.5-0.5s-0.5 0.224-0.5 0.5v30c0 0.276 0.224 0.5 0.5 0.5zM31 1v30c0 0.276 0.224 0.5 0.5 0.5s0.5-0.224 0.5-0.5v-30c0-0.276-0.224-0.5-0.5-0.5s-0.5 0.224-0.5 0.5zM27 3v26c0 0.276 0.224 0.5 0.5 0.5s0.5-0.224 0.5-0.5v-26c0-0.276-0.224-0.5-0.5-0.5s-0.5 0.224-0.5 0.5z"></path>
</svg>
