<!-- Generated by IcoMoon.io -->
<svg version="1.1" xmlns="http://www.w3.org/2000/svg" width="32" height="32" viewBox="0 0 32 32">
<title>drag</title>
<path d="M22.038 9.254l-9.998 10c-0.195 0.195-0.195 0.512 0 0.707 0.098 0.098 0.226 0.146 0.354 0.146s0.256-0.049 0.354-0.146l9.998-10c0.195-0.195 0.195-0.512 0-0.707s-0.513-0.195-0.708 0zM31.5 7c0.276 0 0.5-0.224 0.5-0.5v-6c0-0.065-0.013-0.13-0.038-0.191-0.051-0.122-0.148-0.22-0.271-0.271-0.061-0.025-0.126-0.038-0.191-0.038h-6c-0.276 0-0.5 0.224-0.5 0.5s0.224 0.5 0.5 0.5h4.793l-4.146 4.146c-0.001 0.001-0.002 0.003-0.003 0.004-0.196-0.093-0.413-0.15-0.644-0.15h-15c-0.827 0-1.5 0.673-1.5 1.5v15c0 0.296 0.089 0.571 0.238 0.804-0.139-0.010-0.282 0.033-0.388 0.14l-6 6c-0.195 0.195-0.195 0.512 0 0.707 0.098 0.098 0.226 0.146 0.354 0.146s0.256-0.049 0.354-0.146l6-6c0.107-0.107 0.15-0.249 0.14-0.388 0.231 0.148 0.506 0.237 0.802 0.237h15c0.827 0 1.5-0.673 1.5-1.5v-15c0-0.231-0.057-0.448-0.151-0.644 0.001-0.001 0.003-0.002 0.004-0.003l4.147-4.146v4.793c0 0.276 0.224 0.5 0.5 0.5zM26 21.5c0 0.276-0.225 0.5-0.5 0.5h-15c-0.275 0-0.5-0.224-0.5-0.5v-15c0-0.276 0.225-0.5 0.5-0.5h15c0.275 0 0.5 0.224 0.5 0.5v15zM1.5 15h3.532c0.276 0 0.5-0.224 0.5-0.5s-0.223-0.5-0.5-0.5h-3.532c-0.827 0-1.5 0.673-1.5 1.5v15c0 0.827 0.673 1.5 1.5 1.5h15c0.827 0 1.5-0.673 1.5-1.5v-3.756c0-0.276-0.224-0.5-0.5-0.5s-0.5 0.224-0.5 0.5v3.756c0 0.276-0.225 0.5-0.5 0.5h-15c-0.275 0-0.5-0.224-0.5-0.5v-15c0-0.276 0.225-0.5 0.5-0.5z"></path>
</svg>
