<!-- Generated by IcoMoon.io -->
<svg version="1.1" xmlns="http://www.w3.org/2000/svg" width="32" height="32" viewBox="0 0 32 32">
<title>drag-inside</title>
<path d="M25.5 8h5c0.827 0 1.5-0.673 1.5-1.5v-5c0-0.827-0.673-1.5-1.5-1.5h-5c-0.827 0-1.5 0.673-1.5 1.5v5c0 0.24 0.062 0.464 0.163 0.665l-11.163 12.093v-7.258c0-0.276-0.224-0.5-0.5-0.5s-0.5 0.224-0.5 0.5v8.5c0 0.276 0.224 0.5 0.5 0.5h7.5c0.276 0 0.5-0.224 0.5-0.5s-0.224-0.5-0.5-0.5h-6.324l11.204-12.138c0.19 0.087 0.398 0.138 0.62 0.138zM25 1.5c0-0.276 0.224-0.5 0.5-0.5h5c0.276 0 0.5 0.224 0.5 0.5v5c0 0.276-0.224 0.5-0.5 0.5h-5c-0.276 0-0.5-0.224-0.5-0.5v-5zM1.5 32h29c0.827 0 1.5-0.673 1.5-1.5v-17.5c0-0.276-0.224-0.5-0.5-0.5s-0.5 0.224-0.5 0.5v17.5c0 0.276-0.224 0.5-0.5 0.5h-29c-0.276 0-0.5-0.224-0.5-0.5v-29c0-0.276 0.224-0.5 0.5-0.5h17.5c0.276 0 0.5-0.224 0.5-0.5s-0.224-0.5-0.5-0.5h-17.5c-0.827 0-1.5 0.673-1.5 1.5v29c0 0.827 0.673 1.5 1.5 1.5z"></path>
</svg>
