<!-- Generated by IcoMoon.io -->
<svg version="1.1" xmlns="http://www.w3.org/2000/svg" width="32" height="32" viewBox="0 0 32 32">
<title>drag-outside</title>
<path d="M0 1.5v29c0 0.827 0.673 1.5 1.5 1.5h29c0.827 0 1.5-0.673 1.5-1.5v-17.5c0-0.276-0.224-0.5-0.5-0.5s-0.5 0.224-0.5 0.5v17.5c0 0.276-0.224 0.5-0.5 0.5h-29c-0.276 0-0.5-0.224-0.5-0.5v-29c0-0.276 0.224-0.5 0.5-0.5h16.5c0.276 0 0.5-0.224 0.5-0.5s-0.224-0.5-0.5-0.5h-16.5c-0.827 0-1.5 0.673-1.5 1.5zM32 0.5c0-0.276-0.224-0.5-0.5-0.5h-8.5c-0.276 0-0.5 0.224-0.5 0.5s0.224 0.5 0.5 0.5h7.197l-10.896 10.896c-0.076 0.076-0.113 0.171-0.13 0.269-0.203-0.102-0.429-0.165-0.671-0.165h-5c-0.827 0-1.5 0.673-1.5 1.5v5c0 0.827 0.673 1.5 1.5 1.5h5c0.827 0 1.5-0.673 1.5-1.5v-5c0-0.284-0.084-0.547-0.222-0.774 0.084-0.022 0.164-0.057 0.23-0.122l10.992-10.993v6.389c0 0.276 0.224 0.5 0.5 0.5s0.5-0.224 0.5-0.5v-7.5zM19 18.5c0 0.276-0.224 0.5-0.5 0.5h-5c-0.276 0-0.5-0.224-0.5-0.5v-5c0-0.276 0.224-0.5 0.5-0.5h5c0.276 0 0.5 0.224 0.5 0.5v5z"></path>
</svg>
