<!-- Generated by IcoMoon.io -->
<svg version="1.1" xmlns="http://www.w3.org/2000/svg" width="32" height="32" viewBox="0 0 32 32">
<title>dribbble</title>
<path d="M16-0.035c-8.841 0-16.035 7.194-16.035 16.035s7.194 16.035 16.035 16.035 16.035-7.194 16.035-16.035-7.194-16.035-16.035-16.035zM16 30.965c-8.252 0-14.965-6.713-14.965-14.965s6.713-14.965 14.965-14.965 14.965 6.713 14.965 14.965-6.713 14.965-14.965 14.965zM16 8.037c-4.414 0-8.005 3.591-8.005 8.005s3.591 8.005 8.005 8.005 8.005-3.591 8.005-8.005-3.591-8.005-8.005-8.005zM16 9.037c1.88 0 3.585 0.748 4.844 1.957-1.214 1.555-2.73 2.541-4.287 3.139-1.096-2.224-2.158-3.885-2.744-4.742 0.69-0.227 1.423-0.354 2.187-0.354zM12.868 9.785c0.512 0.741 1.592 2.396 2.723 4.671-2.769 0.802-5.447 0.562-6.49 0.414 0.378-2.23 1.809-4.101 3.767-5.085zM11.216 21.146c-1.364-1.279-2.222-3.091-2.222-5.104 0-0.058 0.007-0.113 0.009-0.171 0.539 0.079 1.417 0.175 2.488 0.175 1.315 0 2.922-0.145 4.555-0.644 0.304 0.654 0.605 1.35 0.895 2.080-3.134 0.806-5.004 2.76-5.725 3.664zM16 23.048c-1.492 0-2.874-0.473-4.012-1.271 0.619-0.789 2.345-2.629 5.31-3.352 0.475 1.299 0.897 2.689 1.22 4.148-0.783 0.302-1.63 0.475-2.518 0.475zM19.443 22.136c-0.314-1.371-0.705-2.678-1.144-3.902 1.237-0.173 2.66-0.135 4.271 0.218-0.577 1.566-1.693 2.871-3.127 3.684zM22.853 17.491c-1.86-0.417-3.498-0.447-4.91-0.221-0.303-0.777-0.62-1.514-0.94-2.207 1.623-0.642 3.218-1.676 4.527-3.305 0.921 1.186 1.475 2.67 1.475 4.285 0 0.496-0.053 0.98-0.152 1.448z"></path>
</svg>
