<!-- Generated by IcoMoon.io -->
<svg version="1.1" xmlns="http://www.w3.org/2000/svg" width="32" height="32" viewBox="0 0 32 32">
<title>dropper</title>
<path d="M0.862 31.138c0.575 0.576 1.332 0.863 2.088 0.863s1.513-0.288 2.088-0.863l0.959-0.958c1.952 0.482 4.009-0.081 5.431-1.504l8.426-8.425c0.195-0.195 0.195-0.512 0-0.707s-0.512-0.195-0.707 0l-8.426 8.425c-1.233 1.232-3.046 1.683-4.728 1.173-0.177-0.053-0.368-0.005-0.498 0.125l-1.164 1.164c-0.762 0.762-2 0.762-2.762 0-0.367-0.367-0.569-0.857-0.569-1.381s0.202-1.014 0.569-1.381l1.163-1.164c0.131-0.13 0.179-0.322 0.125-0.498-0.509-1.684-0.059-3.495 1.174-4.728l8.426-8.426c0.195-0.195 0.195-0.512 0-0.707s-0.512-0.195-0.707 0l-8.426 8.426c-1.423 1.422-1.985 3.479-1.504 5.432l-0.958 0.958c-1.151 1.151-1.151 3.025 0 4.176zM29.988 2.012c-2.688-2.688-7.064-2.687-9.751 0l-4.787 4.787-0.141-0.141c-0.938-0.938-2.574-0.938-3.512 0-0.968 0.968-0.968 2.543 0 3.512l10.033 10.033c0.469 0.469 1.093 0.728 1.756 0.728s1.287-0.258 1.756-0.728c0.968-0.968 0.968-2.543 0-3.512l-0.141-0.141 4.788-4.788c2.688-2.688 2.688-7.062-0.001-9.75zM24.635 19.496c-0.561 0.561-1.537 0.561-2.098 0l-10.033-10.033c-0.578-0.578-0.578-1.52 0-2.098 0.28-0.28 0.652-0.435 1.049-0.435s0.769 0.154 1.049 0.435l10.033 10.033c0.578 0.579 0.578 1.52 0 2.098zM29.281 11.056l-4.788 4.788-8.337-8.337 4.788-4.788c2.297-2.296 6.036-2.299 8.337 0 2.299 2.298 2.299 6.038 0 8.337z"></path>
</svg>
