<!-- Generated by IcoMoon.io -->
<svg version="1.1" xmlns="http://www.w3.org/2000/svg" width="32" height="32" viewBox="0 0 32 32">
<title>ellipsis-horizontal</title>
<path d="M10.189 18.168c1.378 0 2.5-1.122 2.5-2.5s-1.122-2.5-2.5-2.5-2.5 1.122-2.5 2.5 1.122 2.5 2.5 2.5zM10.189 14.168c0.827 0 1.5 0.673 1.5 1.5s-0.673 1.5-1.5 1.5-1.5-0.673-1.5-1.5 0.673-1.5 1.5-1.5zM16.189 18.168c1.378 0 2.5-1.122 2.5-2.5s-1.122-2.5-2.5-2.5-2.5 1.122-2.5 2.5 1.122 2.5 2.5 2.5zM16.189 14.168c0.827 0 1.5 0.673 1.5 1.5s-0.673 1.5-1.5 1.5-1.5-0.673-1.5-1.5 0.673-1.5 1.5-1.5zM19.689 15.668c0 1.378 1.122 2.5 2.5 2.5s2.5-1.122 2.5-2.5-1.122-2.5-2.5-2.5-2.5 1.122-2.5 2.5zM23.689 15.668c0 0.827-0.673 1.5-1.5 1.5s-1.5-0.673-1.5-1.5 0.673-1.5 1.5-1.5 1.5 0.673 1.5 1.5z"></path>
</svg>
