<!-- Generated by IcoMoon.io -->
<svg version="1.1" xmlns="http://www.w3.org/2000/svg" width="32" height="32" viewBox="0 0 32 32">
<title>emo-normal</title>
<path d="M10.246 14.413c1.486 0 2.696-1.209 2.696-2.696s-1.21-2.696-2.696-2.696-2.696 1.208-2.696 2.695 1.21 2.697 2.696 2.697zM10.246 10.020c0.936 0 1.696 0.761 1.696 1.696s-0.761 1.696-1.696 1.696-1.696-0.76-1.696-1.696 0.761-1.696 1.696-1.696zM21.769 14.398c1.479 0 2.682-1.203 2.682-2.682s-1.203-2.682-2.682-2.682-2.682 1.203-2.682 2.682c0 1.479 1.203 2.682 2.682 2.682zM21.769 10.035c0.928 0 1.682 0.754 1.682 1.682s-0.754 1.682-1.682 1.682-1.682-0.754-1.682-1.682c0-0.928 0.754-1.682 1.682-1.682zM16 32c8.822 0 16-7.178 16-16s-7.178-16-16-16-16 7.178-16 16 7.178 16 16 16zM16 1c8.271 0 15 6.729 15 15s-6.729 15-15 15-15-6.729-15-15 6.729-15 15-15zM9.5 21.5c0 0.276 0.224 0.5 0.5 0.5h11c0.276 0 0.5-0.224 0.5-0.5s-0.224-0.5-0.5-0.5h-11c-0.276 0-0.5 0.224-0.5 0.5z"></path>
</svg>
