<!-- Generated by IcoMoon.io -->
<svg version="1.1" xmlns="http://www.w3.org/2000/svg" width="32" height="32" viewBox="0 0 32 32">
<title>emo-smile</title>
<path d="M16 32c8.822 0 16-7.178 16-16s-7.178-16-16-16-16 7.178-16 16 7.178 16 16 16zM16 1c8.271 0 15 6.729 15 15s-6.729 15-15 15-15-6.729-15-15 6.729-15 15-15zM10.36 14.337c1.444 0 2.62-1.176 2.62-2.621s-1.176-2.621-2.62-2.621c-1.445 0-2.621 1.176-2.621 2.621s1.176 2.621 2.621 2.621zM10.36 10.096c0.894 0 1.62 0.727 1.62 1.621s-0.727 1.621-1.62 1.621-1.621-0.727-1.621-1.621c0-0.894 0.728-1.621 1.621-1.621zM21.486 14.323c1.438 0 2.606-1.169 2.606-2.607s-1.169-2.606-2.606-2.606-2.607 1.169-2.607 2.606c0 1.438 1.17 2.607 2.607 2.607zM21.486 10.11c0.886 0 1.606 0.721 1.606 1.606s-0.721 1.607-1.606 1.607c-0.887 0-1.607-0.721-1.607-1.607s0.721-1.606 1.607-1.606zM9.651 20.465c-0.163-0.224-0.477-0.27-0.699-0.106s-0.27 0.477-0.105 0.699c1.876 2.546 4.369 3.948 7.021 3.948 2.671 0 5.177-1.419 7.058-3.996 0.162-0.223 0.113-0.536-0.109-0.699s-0.535-0.114-0.699 0.109c-1.687 2.312-3.906 3.586-6.249 3.586-2.327-0.001-4.535-1.258-6.218-3.541z"></path>
</svg>
