<!-- Generated by IcoMoon.io -->
<svg version="1.1" xmlns="http://www.w3.org/2000/svg" width="32" height="32" viewBox="0 0 32 32">
<title>emo-sad</title>
<path d="M12.199 11.716c0-1.487-1.21-2.696-2.696-2.696s-2.696 1.209-2.696 2.696 1.21 2.696 2.696 2.696 2.696-1.209 2.696-2.696zM7.807 11.716c0-0.936 0.761-1.696 1.696-1.696s1.696 0.761 1.696 1.696-0.761 1.696-1.696 1.696-1.696-0.76-1.696-1.696zM21.025 9.035c-1.479 0-2.682 1.203-2.682 2.682s1.203 2.682 2.682 2.682c1.479 0 2.683-1.203 2.683-2.682s-1.203-2.682-2.683-2.682zM21.025 13.398c-0.928 0-1.682-0.754-1.682-1.682 0-0.927 0.754-1.682 1.682-1.682s1.683 0.754 1.683 1.682c0 0.928-0.755 1.682-1.683 1.682zM16 0c-8.822 0-16 7.178-16 16s7.178 16 16 16 16-7.178 16-16-7.178-16-16-16zM16 31c-8.271 0-15-6.729-15-15s6.729-15 15-15 15 6.729 15 15-6.729 15-15 15zM16.133 19.472c-2.692 0-5.218 1.43-7.111 4.028-0.162 0.223-0.113 0.536 0.109 0.698 0.089 0.065 0.192 0.096 0.295 0.096 0.154 0 0.306-0.071 0.404-0.206 1.7-2.332 3.938-3.617 6.303-3.617 2.348 0 4.574 1.269 6.271 3.571 0.164 0.224 0.476 0.27 0.699 0.106 0.222-0.164 0.27-0.477 0.105-0.699-1.89-2.564-4.402-3.977-7.075-3.977z"></path>
</svg>
