<!-- Generated by IcoMoon.io -->
<svg version="1.1" xmlns="http://www.w3.org/2000/svg" width="47" height="32" viewBox="0 0 47 32">
<title>envelop</title>
<path d="M45.5 0h-44c-0.827 0-1.5 0.673-1.5 1.5v29c0 0.827 0.673 1.5 1.5 1.5h44c0.827 0 1.5-0.673 1.5-1.5v-29c0-0.827-0.673-1.5-1.5-1.5zM1.5 1h44c0.275 0 0.5 0.225 0.5 0.5v2.119l-19.053 18.543c-1.654 1.566-4.243 1.568-5.897-0.005l-20.050-18.546v-2.111c0-0.275 0.225-0.5 0.5-0.5zM45.5 31h-44c-0.275 0-0.5-0.225-0.5-0.5v-25.526l19.366 17.913c1.019 0.967 2.325 1.45 3.633 1.45 1.309 0 2.619-0.484 3.641-1.454l18.36-17.869v25.486c0 0.275-0.225 0.5-0.5 0.5zM12.394 18.058l-5.628 5.636c-0.195 0.195-0.195 0.512 0 0.707 0.098 0.098 0.226 0.146 0.354 0.146s0.256-0.049 0.354-0.146l5.628-5.636c0.195-0.195 0.195-0.512 0-0.707s-0.513-0.196-0.708 0zM35.93 17.2c-0.195-0.195-0.512-0.195-0.707 0s-0.195 0.512 0 0.707l6.274 6.276c0.098 0.098 0.226 0.146 0.354 0.146s0.256-0.049 0.354-0.146c0.195-0.195 0.195-0.512 0-0.707l-6.275-6.276z"></path>
</svg>
