<!-- Generated by IcoMoon.io -->
<svg version="1.1" xmlns="http://www.w3.org/2000/svg" width="32" height="32" viewBox="0 0 32 32">
<title>facebook</title>
<path d="M16-0.035c-8.841 0-16.035 7.194-16.035 16.035s7.194 16.035 16.035 16.035 16.035-7.194 16.035-16.035-7.194-16.035-16.035-16.035zM16 30.965c-8.252 0-14.965-6.713-14.965-14.965s6.713-14.965 14.965-14.965 14.965 6.713 14.965 14.965-6.713 14.965-14.965 14.965zM19.5 7h-2.668c-3.18 0-3.832 1.737-3.832 4.345l0.002 1.655h-1.502c-0.276 0-0.5 0.224-0.5 0.5v3c0 0.276 0.224 0.5 0.5 0.5h1.5v7.5c0 0.276 0.224 0.5 0.5 0.5h3.058c0.276 0 0.5-0.224 0.5-0.5l0.002-7.5h2.44c0.276 0 0.5-0.224 0.5-0.5v-3c0-0.276-0.224-0.5-0.5-0.5h-2.441l0.003-1.396c0-0.673 0-0.673 0.629-0.674l1.789 0.070c0.127 0.004 0.268-0.045 0.366-0.139s0.154-0.225 0.154-0.361v-3c0-0.276-0.224-0.5-0.5-0.5zM19 9.98l-1.289-0.050c-1.521 0-1.648 0.827-1.648 1.672l-0.004 1.896c0 0.133 0.052 0.26 0.146 0.354 0.093 0.095 0.22 0.148 0.353 0.148h2.442v2h-2.44c-0.276 0-0.5 0.224-0.5 0.5l-0.002 7.5h-2.058v-7.5c0-0.276-0.224-0.5-0.5-0.5h-1.5v-2h1.503c0.133 0 0.26-0.053 0.354-0.147s0.146-0.221 0.146-0.354l-0.003-2.155c0-2.265 0.424-3.344 2.832-3.344h2.168v1.98z"></path>
</svg>
