<!-- Generated by IcoMoon.io -->
<svg version="1.1" xmlns="http://www.w3.org/2000/svg" width="31" height="32" viewBox="0 0 31 32">
<title>file-cabinet</title>
<path d="M12.469 0c-0.81 0-1.469 0.659-1.469 1.469v29.062c0 0.81 0.659 1.469 1.469 1.469h7.062c0.81 0 1.469-0.659 1.469-1.469v-29.062c0-0.81-0.659-1.469-1.469-1.469h-7.062zM20 15h-8v-9h8v9zM20 30.531c0 0.259-0.21 0.469-0.469 0.469h-7.062c-0.259 0-0.469-0.21-0.469-0.469v-14.531h8v14.531zM20 1.469v3.531h-8v-3.531c0-0.259 0.21-0.469 0.469-0.469h7.062c0.259 0 0.469 0.21 0.469 0.469zM16.127 28c1.103 0 2-0.897 2-2s-0.897-2-2-2-2 0.897-2 2 0.897 2 2 2zM16.127 25c0.552 0 1 0.449 1 1s-0.448 1-1 1-1-0.449-1-1 0.448-1 1-1zM23.5 31.5c0 0.276 0.224 0.5 0.5 0.5h5.5c0.827 0 1.5-0.673 1.5-1.5v-29c0-0.827-0.673-1.5-1.5-1.5h-5.5c-0.276 0-0.5 0.224-0.5 0.5s0.224 0.5 0.5 0.5h5.5c0.275 0 0.5 0.224 0.5 0.5v3.5h-4c-0.276 0-0.5 0.224-0.5 0.5s0.224 0.5 0.5 0.5h4v9h-4c-0.276 0-0.5 0.224-0.5 0.5s0.224 0.5 0.5 0.5h4v14.5c0 0.276-0.225 0.5-0.5 0.5h-5.5c-0.276 0-0.5 0.224-0.5 0.5zM28.5 26c0-1.103-0.897-2-2-2s-2 0.897-2 2 0.897 2 2 2 2-0.897 2-2zM25.5 26c0-0.551 0.448-1 1-1s1 0.449 1 1-0.448 1-1 1-1-0.449-1-1zM1.5 32h6.5c0.276 0 0.5-0.224 0.5-0.5s-0.224-0.5-0.5-0.5h-6.5c-0.275 0-0.5-0.224-0.5-0.5v-14.5h4c0.276 0 0.5-0.224 0.5-0.5s-0.224-0.5-0.5-0.5h-4v-9h4c0.276 0 0.5-0.224 0.5-0.5s-0.224-0.5-0.5-0.5h-4v-3.5c0-0.276 0.225-0.5 0.5-0.5h6.5c0.276 0 0.5-0.224 0.5-0.5s-0.224-0.5-0.5-0.5h-6.5c-0.827 0-1.5 0.673-1.5 1.5v29c0 0.827 0.673 1.5 1.5 1.5zM3.5 26c0 1.103 0.897 2 2 2s2-0.897 2-2-0.897-2-2-2-2 0.897-2 2zM6.5 26c0 0.551-0.448 1-1 1s-1-0.449-1-1 0.448-1 1-1 1 0.449 1 1z"></path>
</svg>
