<!-- Generated by IcoMoon.io -->
<svg version="1.1" xmlns="http://www.w3.org/2000/svg" width="27" height="32" viewBox="0 0 27 32">
<title>file</title>
<path d="M0 8.383v22.117c0 0.827 0.673 1.5 1.5 1.5h24c0.827 0 1.5-0.673 1.5-1.5v-29c0-0.827-0.673-1.5-1.5-1.5h-15.756c-0.119 0-0.234 0.042-0.325 0.119l-9.243 7.883c-0.112 0.096-0.176 0.234-0.176 0.381zM25.5 1c0.276 0 0.5 0.225 0.5 0.5v29c0 0.275-0.224 0.5-0.5 0.5h-24c-0.276 0-0.5-0.225-0.5-0.5v-20.5h9.5c0.276 0 0.5-0.224 0.5-0.5v-8.5h14.5zM1 8.613l8.928-7.613h0.072v8h-9v-0.387zM5.5 13.5c0 0.276 0.224 0.5 0.5 0.5h16c0.276 0 0.5-0.224 0.5-0.5s-0.224-0.5-0.5-0.5h-16c-0.276 0-0.5 0.224-0.5 0.5zM22 18h-16c-0.276 0-0.5 0.224-0.5 0.5s0.224 0.5 0.5 0.5h16c0.276 0 0.5-0.224 0.5-0.5s-0.224-0.5-0.5-0.5zM22 23h-16c-0.276 0-0.5 0.224-0.5 0.5s0.224 0.5 0.5 0.5h16c0.276 0 0.5-0.224 0.5-0.5s-0.224-0.5-0.5-0.5z"></path>
</svg>
