<!-- Generated by IcoMoon.io -->
<svg version="1.1" xmlns="http://www.w3.org/2000/svg" width="28" height="32" viewBox="0 0 28 32">
<title>files</title>
<path d="M21.5 0h-13.815c-0.125 0-0.245 0.047-0.337 0.131l-0.086 0.078c-0.144 0.070-0.284 0.157-0.41 0.281l-2.488 2.367-4.201 3.837c-0.104 0.095-0.163 0.229-0.163 0.369v18.437c0 0.827 0.673 1.5 1.5 1.5h20c0.827 0 1.5-0.673 1.5-1.5v-24c0-0.827-0.673-1.5-1.5-1.5zM1.463 6.996l3.584-3.41 2.755-2.516c0.060-0.019 0.12-0.039 0.198-0.049v5.979h-6.541c0.001-0.001 0.003-0.003 0.004-0.004zM22 25.5c0 0.275-0.224 0.5-0.5 0.5h-20c-0.276 0-0.5-0.225-0.5-0.5v-17.5h7.5c0.276 0 0.5-0.224 0.5-0.5v-6.5h12.5c0.276 0 0.5 0.225 0.5 0.5v24zM26.5 31h-20c-0.276 0-0.5-0.225-0.5-0.5v-0.604c0-0.276-0.224-0.5-0.5-0.5s-0.5 0.224-0.5 0.5v0.604c0 0.827 0.673 1.5 1.5 1.5h20c0.827 0 1.5-0.673 1.5-1.5v-24c0-0.827-0.673-1.5-1.5-1.5h-0.792c-0.276 0-0.5 0.224-0.5 0.5s0.224 0.5 0.5 0.5h0.792c0.276 0 0.5 0.225 0.5 0.5v24c0 0.275-0.224 0.5-0.5 0.5zM18 11h-13c-0.276 0-0.5 0.224-0.5 0.5s0.224 0.5 0.5 0.5h13c0.276 0 0.5-0.224 0.5-0.5s-0.224-0.5-0.5-0.5zM18 15h-13c-0.276 0-0.5 0.224-0.5 0.5s0.224 0.5 0.5 0.5h13c0.276 0 0.5-0.224 0.5-0.5s-0.224-0.5-0.5-0.5zM18 19h-13c-0.276 0-0.5 0.224-0.5 0.5s0.224 0.5 0.5 0.5h13c0.276 0 0.5-0.224 0.5-0.5s-0.224-0.5-0.5-0.5z"></path>
</svg>
