<!-- Generated by IcoMoon.io -->
<svg version="1.1" xmlns="http://www.w3.org/2000/svg" width="32" height="32" viewBox="0 0 32 32">
<title>film</title>
<path d="M1.5 32h29c0.827 0 1.5-0.673 1.5-1.5v-29c0-0.827-0.673-1.5-1.5-1.5h-29c-0.827 0-1.5 0.673-1.5 1.5v29c0 0.827 0.673 1.5 1.5 1.5zM31 30.5c0 0.276-0.225 0.5-0.5 0.5h-3.5v-5h4v4.5zM31 25h-4v-5h4v5zM31 19h-4v-6h4v6zM31 12h-4v-5h4v5zM30.5 1c0.275 0 0.5 0.224 0.5 0.5v4.5h-4v-5h3.5zM26 1v30h-20v-30h20zM1 1.5c0-0.276 0.225-0.5 0.5-0.5h3.5v5h-4v-4.5zM1 7h4v5h-4v-5zM1 13h4v6h-4v-6zM1 20h4v5h-4v-5zM1 26h4v5h-3.5c-0.275 0-0.5-0.224-0.5-0.5v-4.5zM15.502 18.944c0.279 0 0.555-0.080 0.795-0.231l3.494-2.192c0.44-0.276 0.702-0.751 0.702-1.271s-0.262-0.994-0.702-1.271l-3.494-2.192c-0.24-0.151-0.516-0.231-0.795-0.231-0.828 0-1.502 0.674-1.502 1.502v4.384c0 0.828 0.674 1.502 1.502 1.502zM15 13.058c0-0.31 0.261-0.502 0.502-0.502 0.093 0 0.181 0.026 0.264 0.078l3.494 2.192c0.211 0.133 0.233 0.341 0.233 0.424s-0.022 0.291-0.233 0.424l-3.494 2.192c-0.297 0.186-0.766 0.006-0.766-0.424v-4.384z"></path>
</svg>
