<!-- Generated by IcoMoon.io -->
<svg version="1.1" xmlns="http://www.w3.org/2000/svg" width="32" height="32" viewBox="0 0 32 32">
<title>finger-print</title>
<path d="M7.016 2.608c-0.226 0.16-0.279 0.472-0.12 0.698s0.47 0.28 0.697 0.12c0.078-0.055 7.929-5.459 17.528 0.026 0.078 0.045 0.164 0.066 0.247 0.066 0.174 0 0.342-0.090 0.435-0.252 0.137-0.24 0.054-0.546-0.186-0.682-10.146-5.798-18.517-0.034-18.601 0.024zM30.11 12.55c0.093 0 0.187-0.026 0.271-0.080 0.232-0.15 0.299-0.459 0.149-0.692-3.053-4.731-8.288-7.556-14.001-7.556-5.587 0-10.759 2.729-13.833 7.299-0.154 0.229-0.094 0.54 0.135 0.694 0.229 0.156 0.541 0.094 0.694-0.135 2.889-4.294 7.75-6.858 13.004-6.858 5.373 0 10.293 2.653 13.162 7.098 0.094 0.149 0.255 0.23 0.419 0.23zM25.741 27.685c-8.373 0-8.704-6.741-8.714-7.029-0.009-0.276-0.253-0.511-0.516-0.483-0.276 0.009-0.492 0.239-0.484 0.514 0.002 0.080 0.352 7.998 9.713 7.998 0.289-0.002 0.565-0.205 0.564-0.502-0.001-0.276-0.225-0.498-0.5-0.498-0.036-0.015-0.042-0.001-0.063 0zM28.114 22.966c0.927-1.812 0.724-4.361-0.587-7.372-1.353-3.107-4.374-6.188-8.076-7.148-2.64-0.685-6.67-0.827-10.868 2.384-8.033 6.145-3.632 15.72-3.587 15.817 0.118 0.25 0.414 0.357 0.666 0.238 0.25-0.118 0.356-0.417 0.238-0.666-0.042-0.089-4.108-8.934 3.29-14.594 3.877-2.967 7.583-2.84 10.010-2.21 3.95 1.025 6.38 4.217 7.409 6.58 1.17 2.688 1.389 5.002 0.614 6.516-0.463 0.906-0.874 1.134-1.96 1.37-0.849 0.184-1.619 0.057-2.286-0.376-1.077-0.7-1.905-2.206-2.33-4.241-0.459-2.193-2.4-3.264-4.119-3.352-2.039-0.102-3.73 1.014-4.315 2.849-0.952 2.989-0.415 9.594 8.439 13.204 0.061 0.023 0.125 0.035 0.188 0.035 0.197 0 0.384-0.117 0.463-0.312 0.105-0.255-0.018-0.548-0.274-0.652-10.219-4.166-7.964-11.656-7.863-11.973 0.537-1.687 2.118-2.229 3.311-2.153 1.239 0.063 2.818 0.771 3.192 2.558 0.487 2.331 1.443 4.017 2.765 4.875 0.899 0.584 1.923 0.757 3.042 0.515 1.373-0.298 2.039-0.723 2.638-1.892zM13.224 13.536c2.619-1.054 5.7-0.597 7.166 0.455 0.834 0.598 3.552 2.839 3.552 6.574 0 0.277 0.224 0.5 0.5 0.5s0.5-0.224 0.5-0.5c0-4.212-3.038-6.719-3.969-7.387-1.662-1.193-5.072-1.8-8.122-0.57-1.819 0.733-4.132 2.391-4.824 6.132-1.391 7.519 4.169 12.501 4.406 12.71 0.095 0.083 0.212 0.124 0.33 0.124 0.139 0 0.277-0.058 0.376-0.171 0.182-0.208 0.161-0.524-0.046-0.706-0.054-0.047-5.371-4.809-4.082-11.776 0.608-3.293 2.626-4.746 4.213-5.385z"></path>
</svg>
