<!-- Generated by IcoMoon.io -->
<svg version="1.1" xmlns="http://www.w3.org/2000/svg" width="24" height="32" viewBox="0 0 24 32">
<title>finger-index</title>
<path d="M21.271 15.483l-8.271-3.32v-8.616c0-1.956-1.57-3.547-3.5-3.547s-3.5 1.591-3.5 3.547v19.953c0 0.276 0.224 0.5 0.5 0.5s0.5-0.224 0.5-0.5v-19.953c0-1.404 1.121-2.547 2.5-2.547s2.5 1.143 2.5 2.547v8.922c0 0.027 0 0.052 0 0.078v4.933c0 0.276 0.224 0.5 0.5 0.5s0.5-0.224 0.5-0.5v-4.242l7.903 3.176c1.531 0.604 2.365 2.125 2.136 3.698l-1.188 7.894c-0.248 1.707-1.827 2.994-3.621 2.994h-12.445c-0.492 0-0.96-0.225-1.253-0.602l-3.226-4.153c-0.2-0.259-0.306-0.565-0.306-0.887v-5.361c0-0.394 0.16-0.766 0.451-1.046l1.524-1.472c0.198-0.192 0.204-0.509 0.012-0.707-0.19-0.198-0.507-0.204-0.707-0.013l-1.523 1.472c-0.482 0.464-0.757 1.108-0.757 1.766v5.361c0 0.538 0.184 1.070 0.518 1.5l3.225 4.153c0.48 0.619 1.243 0.989 2.042 0.989h12.445c2.287 0 4.253-1.655 4.573-3.85l1.226-7.894c0.296-2.035-0.794-3.997-2.758-4.773z"></path>
</svg>
