<!-- Generated by IcoMoon.io -->
<svg version="1.1" xmlns="http://www.w3.org/2000/svg" width="32" height="32" viewBox="0 0 32 32">
<title>folder</title>
<path d="M32 6.5c0-0.827-0.673-1.5-1.5-1.5h-16.434c-0.175 0-0.339-0.093-0.429-0.243l-2.417-4.030c-0.27-0.448-0.763-0.727-1.286-0.727h-8.434c-0.827 0-1.5 0.673-1.5 1.5v7.5c0 0.093 0.032 0.175 0.077 0.25-0.045 0.075-0.077 0.157-0.077 0.25v21c0 0.827 0.673 1.5 1.5 1.5h29c0.827 0 1.5-0.673 1.5-1.5v-21c0-0.093-0.032-0.175-0.077-0.25 0.045-0.075 0.077-0.157 0.077-0.25v-2.5zM31 30.5c0 0.276-0.224 0.5-0.5 0.5h-29c-0.276 0-0.5-0.224-0.5-0.5v-20.5h30v20.5zM1 9v-7.5c0-0.276 0.224-0.5 0.5-0.5h8.434c0.175 0 0.339 0.093 0.429 0.243l2.417 4.030c0.27 0.448 0.763 0.727 1.286 0.727h16.434c0.276 0 0.5 0.224 0.5 0.5v2.5h-30z"></path>
</svg>
