<!-- Generated by IcoMoon.io -->
<svg version="1.1" xmlns="http://www.w3.org/2000/svg" width="35" height="32" viewBox="0 0 35 32">
<title>footer</title>
<path d="M33.5 19h-32c-0.827 0-1.5 0.673-1.5 1.5v10c0 0.827 0.673 1.5 1.5 1.5h32c0.827 0 1.5-0.673 1.5-1.5v-10c0-0.827-0.673-1.5-1.5-1.5zM34 30.5c0 0.275-0.225 0.5-0.5 0.5h-32c-0.275 0-0.5-0.225-0.5-0.5v-10c0-0.275 0.225-0.5 0.5-0.5h32c0.275 0 0.5 0.225 0.5 0.5v10zM4 1.5v15c0 0.276 0.224 0.5 0.5 0.5s0.5-0.224 0.5-0.5v-15c0-0.275 0.221-0.5 0.492-0.5h25.016c0.271 0 0.492 0.225 0.492 0.5v15c0 0.276 0.224 0.5 0.5 0.5s0.5-0.224 0.5-0.5v-15c0-0.827-0.669-1.5-1.492-1.5h-25.016c-0.823 0-1.492 0.673-1.492 1.5zM25.5 17c0.276 0 0.5-0.224 0.5-0.5v-5.917c0-0.873-0.648-1.583-1.445-1.583h-13.11c-0.797 0-1.445 0.71-1.445 1.583v5.917c0 0.276 0.224 0.5 0.5 0.5s0.5-0.224 0.5-0.5v-5.917c0-0.316 0.204-0.583 0.445-0.583h13.109c0.242 0 0.446 0.267 0.446 0.583v5.917c0 0.276 0.224 0.5 0.5 0.5z"></path>
</svg>
