<!-- Generated by IcoMoon.io -->
<svg version="1.1" xmlns="http://www.w3.org/2000/svg" width="38" height="32" viewBox="0 0 38 32">
<title>form</title>
<path d="M36.5 0h-35c-0.827 0-1.5 0.673-1.5 1.5v29c0 0.827 0.673 1.5 1.5 1.5h35c0.827 0 1.5-0.673 1.5-1.5v-29c0-0.827-0.673-1.5-1.5-1.5zM37 30.5c0 0.275-0.225 0.5-0.5 0.5h-35c-0.275 0-0.5-0.225-0.5-0.5v-29c0-0.275 0.225-0.5 0.5-0.5h35c0.275 0 0.5 0.225 0.5 0.5v29zM31.5 14h-25c-0.827 0-1.5 0.673-1.5 1.5v10c0 0.827 0.673 1.5 1.5 1.5h25c0.827 0 1.5-0.673 1.5-1.5v-10c0-0.827-0.673-1.5-1.5-1.5zM32 25.5c0 0.275-0.225 0.5-0.5 0.5h-25c-0.275 0-0.5-0.225-0.5-0.5v-10c0-0.275 0.225-0.5 0.5-0.5h25c0.275 0 0.5 0.225 0.5 0.5v10zM31.5 5h-25c-0.827 0-1.5 0.673-1.5 1.5v3c0 0.827 0.673 1.5 1.5 1.5h25c0.827 0 1.5-0.673 1.5-1.5v-3c0-0.827-0.673-1.5-1.5-1.5zM32 9.5c0 0.275-0.225 0.5-0.5 0.5h-25c-0.275 0-0.5-0.225-0.5-0.5v-3c0-0.275 0.225-0.5 0.5-0.5h25c0.275 0 0.5 0.225 0.5 0.5v3z"></path>
</svg>
