<!-- Generated by IcoMoon.io -->
<svg version="1.1" xmlns="http://www.w3.org/2000/svg" width="44" height="32" viewBox="0 0 44 32">
<title>forward</title>
<path d="M26.679 0.389c-0.275-0.23-0.621-0.352-0.999-0.352-0.797 0-1.658 0.574-1.657 1.524l0.285 6.438c-1.514 0.037-5.67 0.418-10.33 3.232-6.407 3.87-11.088 10.615-13.912 20.047-0.074 0.246 0.051 0.508 0.289 0.605 0.062 0.026 0.126 0.038 0.19 0.038 0.18 0 0.353-0.098 0.442-0.265 0.015-0.028 1.535-2.829 5.178-5.59 3.299-2.5 9.055-5.472 17.849-5.581l0.009 9.182c0 0.928 0.86 1.502 1.657 1.502 0.38 0 0.741-0.129 1.013-0.363l16.687-14.247c0.363-0.311 0.578-0.772 0.575-1.233-0.003-0.417-0.177-0.792-0.494-1.057l-16.782-13.88zM42.73 15.799l-16.688 14.248c-0.118 0.102-0.262 0.123-0.363 0.123-0.311 0-0.657-0.206-0.657-0.502l-0.009-9.685c0-0.276-0.224-0.5-0.5-0.5-12.584 0-19.477 5.671-22.504 9.119 6.993-19.031 20.928-19.607 22.566-19.607 0.143 0 0.222 0.004 0.229 0.004 0.138 0.002 0.278-0.045 0.378-0.145s0.154-0.236 0.147-0.377l-0.307-6.939c0-0.296 0.347-0.502 0.658-0.502 0.098 0 0.24 0.021 0.359 0.121l16.782 13.879c0.088 0.074 0.133 0.173 0.134 0.294 0.001 0.17-0.085 0.349-0.225 0.469z"></path>
</svg>
