<!-- Generated by IcoMoon.io -->
<svg version="1.1" xmlns="http://www.w3.org/2000/svg" width="32" height="32" viewBox="0 0 32 32">
<title>gender</title>
<path d="M13.5 20.5c0.276 0 0.5-0.224 0.5-0.5v-9.5c0-0.827-0.673-1.5-1.5-1.5h-8c-0.827 0-1.5 0.673-1.5 1.5v9.5c0 0.276 0.224 0.5 0.5 0.5s0.5-0.224 0.5-0.5v-9.5c0-0.276 0.224-0.5 0.5-0.5h8c0.276 0 0.5 0.224 0.5 0.5v9.5c0 0.276 0.224 0.5 0.5 0.5zM30.85 19.867c0.263-0.082 0.41-0.363 0.328-0.626l-2.873-9.188c-0.197-0.63-0.772-1.053-1.432-1.053h-6.468c-0.66 0-1.251 0.442-1.438 1.074l-2.747 9.284c-0.078 0.265 0.073 0.543 0.337 0.622 0.048 0.014 0.096 0.020 0.143 0.020 0.216 0 0.415-0.141 0.479-0.358l2.747-9.284c0.063-0.211 0.26-0.358 0.479-0.358h6.468c0.22 0 0.411 0.141 0.477 0.351l2.873 9.188c0.082 0.264 0.361 0.409 0.627 0.328zM5.5 18.5c-0.276 0-0.5 0.224-0.5 0.5v11.5c0 0.827 0.673 1.5 1.5 1.5h4c0.827 0 1.5-0.673 1.5-1.5v-11.5c0-0.276-0.224-0.5-0.5-0.5s-0.5 0.224-0.5 0.5v11.5c0 0.276-0.224 0.5-0.5 0.5h-1.5v-10c0-0.276-0.224-0.5-0.5-0.5s-0.5 0.224-0.5 0.5v10h-1.5c-0.276 0-0.5-0.224-0.5-0.5v-11.5c0-0.276-0.224-0.5-0.5-0.5zM27 30.5v-7.5h1.817c0.156 0 0.303-0.073 0.397-0.197 0.095-0.124 0.126-0.285 0.084-0.436l-1.048-3.818c-0.073-0.267-0.351-0.423-0.614-0.35-0.266 0.073-0.423 0.348-0.35 0.614l0.876 3.187h-1.662c-0.276 0-0.5 0.224-0.5 0.5v8c0 0.276-0.224 0.5-0.5 0.5h-1.5v-9c0-0.276-0.224-0.5-0.5-0.5s-0.5 0.224-0.5 0.5v9h-1.5c-0.276 0-0.5-0.224-0.5-0.5v-8c0-0.276-0.224-0.5-0.5-0.5h-1.4l0.884-3.384c0.070-0.267-0.090-0.541-0.357-0.61-0.266-0.067-0.541 0.090-0.61 0.357l-1.048 4.010c-0.039 0.15-0.006 0.31 0.088 0.432 0.094 0.123 0.241 0.195 0.396 0.195h1.547v7.5c0 0.827 0.673 1.5 1.5 1.5h4c0.827 0 1.5-0.673 1.5-1.5zM11.683 3.5c0-1.93-1.57-3.5-3.5-3.5s-3.5 1.57-3.5 3.5 1.57 3.5 3.5 3.5 3.5-1.57 3.5-3.5zM5.683 3.5c0-1.378 1.122-2.5 2.5-2.5s2.5 1.122 2.5 2.5-1.122 2.5-2.5 2.5-2.5-1.122-2.5-2.5zM23.64 7c1.93 0 3.5-1.57 3.5-3.5s-1.57-3.5-3.5-3.5-3.5 1.57-3.5 3.5 1.57 3.5 3.5 3.5zM23.64 1c1.378 0 2.5 1.122 2.5 2.5s-1.121 2.5-2.5 2.5-2.5-1.122-2.5-2.5 1.122-2.5 2.5-2.5z"></path>
</svg>
