<!-- Generated by IcoMoon.io -->
<svg version="1.1" xmlns="http://www.w3.org/2000/svg" width="28" height="32" viewBox="0 0 28 32">
<title>gender-male</title>
<path d="M10.589 8.527c-2.803 0-5.471 1.125-7.513 3.166-2.148 2.148-3.267 5.129-3.067 8.177 0.2 3.060 1.719 5.894 4.169 7.776 1.784 1.37 4.033 2.125 6.333 2.125 2.525 0 4.963-0.885 6.864-2.493 4.015-3.395 4.973-8.798 2.399-13.267l3.749-3.606 0.339 0.348c0.285 0.292 0.665 0.453 1.069 0.454 0.683 0 1.281-0.46 1.455-1.119l1.576-5.976c0.12-0.453 0.025-0.925-0.26-1.295-0.366-0.475-1.004-0.692-1.584-0.534l-5.849 1.594c-0.518 0.141-0.912 0.534-1.053 1.052s-0.001 1.058 0.374 1.442l0.528 0.542-3.615 3.48c-1.76-1.222-3.795-1.866-5.914-1.866zM16.895 11.403l4.279-4.119c0.096-0.092 0.151-0.219 0.153-0.353s-0.049-0.262-0.142-0.357l-0.88-0.902c-0.18-0.185-0.147-0.398-0.125-0.481 0.023-0.083 0.102-0.283 0.351-0.351l5.849-1.594c0.198-0.054 0.406 0.019 0.529 0.18 0.056 0.072 0.141 0.223 0.086 0.43l-1.575 5.977c-0.068 0.258-0.294 0.374-0.488 0.374-0.094 0-0.231-0.026-0.354-0.152l-0.686-0.703c-0.191-0.196-0.506-0.201-0.705-0.011l-4.394 4.227c-0.17 0.164-0.203 0.425-0.078 0.625 2.562 4.101 1.745 9.168-1.986 12.323-1.721 1.456-3.929 2.257-6.219 2.257-2.081 0-4.114-0.681-5.724-1.918-2.222-1.707-3.6-4.276-3.781-7.048-0.181-2.761 0.832-5.46 2.776-7.405 1.853-1.853 4.27-2.873 6.806-2.873 2.041 0 3.997 0.662 5.658 1.915 0.198 0.146 0.473 0.128 0.65-0.041zM10.615 12.943c-1.673 0-3.247 0.651-4.43 1.835-1.184 1.183-1.835 2.757-1.835 4.43s0.651 3.247 1.835 4.43c1.183 1.184 2.757 1.835 4.43 1.835s3.247-0.652 4.431-1.835c2.443-2.443 2.443-6.417 0-8.86-1.184-1.183-2.757-1.835-4.431-1.835zM14.339 22.932c-0.995 0.995-2.317 1.542-3.724 1.542s-2.729-0.548-3.723-1.542-1.542-2.317-1.542-3.724 0.547-2.729 1.542-3.723 2.317-1.542 3.723-1.542c1.407 0 2.729 0.547 3.724 1.542 2.053 2.053 2.053 5.394 0 7.447z"></path>
</svg>
