<!-- Generated by IcoMoon.io -->
<svg version="1.1" xmlns="http://www.w3.org/2000/svg" width="32" height="32" viewBox="0 0 32 32">
<title>gender-female</title>
<path d="M18.027 4.352c-3.455 0-6.265 2.811-6.265 6.266s2.811 6.265 6.265 6.265c3.455 0 6.266-2.811 6.266-6.265 0-3.456-2.811-6.266-6.266-6.266zM18.027 15.882c-2.903 0-5.265-2.362-5.265-5.265s2.362-5.266 5.265-5.266 5.266 2.362 5.266 5.266-2.362 5.265-5.266 5.265zM18.015 0c-0.401 0-0.809 0.023-1.211 0.067-4.875 0.542-8.91 4.608-9.383 9.46-0.52 5.333 2.581 9.899 7.579 11.243v2.23h-1.324c-1.313 0-2.422 1.145-2.422 2.5s1.109 2.5 2.422 2.5h1.324v1.578c0 1.313 1.145 2.422 2.5 2.422s2.5-1.109 2.5-2.422v-1.578h1.363c1.313 0 2.422-1.145 2.422-2.5s-1.109-2.5-2.422-2.5h-1.363v-2.010c5.020-0.91 8.619-5.216 8.619-10.401 0-5.839-4.757-10.589-10.604-10.589zM19.431 20.069c-0.247 0.035-0.431 0.246-0.431 0.495v2.936c0 0.276 0.224 0.5 0.5 0.5h1.863c0.771 0 1.422 0.687 1.422 1.5s-0.651 1.5-1.422 1.5h-1.863c-0.276 0-0.5 0.224-0.5 0.5v2.078c0 0.771-0.687 1.422-1.5 1.422s-1.5-0.651-1.5-1.422v-2.078c0-0.276-0.224-0.5-0.5-0.5h-1.824c-0.771 0-1.422-0.687-1.422-1.5s0.651-1.5 1.422-1.5h1.824c0.276 0 0.5-0.224 0.5-0.5v-3.121c0-0.233-0.161-0.435-0.387-0.487-4.72-1.091-7.68-5.313-7.197-10.268 0.429-4.392 4.082-8.073 8.498-8.563 5.791-0.646 10.705 3.878 10.705 9.528 0 4.828-3.444 8.815-8.188 9.48z"></path>
</svg>
