<!-- Generated by IcoMoon.io -->
<svg version="1.1" xmlns="http://www.w3.org/2000/svg" width="42" height="32" viewBox="0 0 42 32">
<title>gender-sign</title>
<path d="M10.946 4.352c-3.455 0-6.266 2.811-6.266 6.266s2.811 6.265 6.266 6.265 6.266-2.811 6.266-6.265c0-3.456-2.811-6.266-6.266-6.266zM10.946 15.882c-2.903 0-5.266-2.362-5.266-5.265s2.362-5.266 5.266-5.266 5.266 2.362 5.266 5.266-2.362 5.265-5.266 5.265zM39.822 0.282l-5.85 1.594c-0.518 0.141-0.912 0.535-1.053 1.053-0.142 0.518-0.002 1.057 0.373 1.442l0.522 0.536-1.603 1.49c-1.757-1.222-3.791-1.865-5.909-1.865-2.031 0-3.994 0.588-5.715 1.707-1.867-4.119-6.302-6.676-10.864-6.172-4.932 0.548-8.861 4.527-9.343 9.461-0.52 5.327 2.599 9.893 7.62 11.242v2.23h-1.405c-1.313 0-2.422 1.145-2.422 2.5s1.109 2.5 2.422 2.5h1.405v1.578c0 1.313 1.145 2.422 2.5 2.422s2.5-1.109 2.5-2.422v-1.578h1.282c1.313 0 2.422-1.145 2.422-2.5s-1.109-2.5-2.422-2.5h-1.282v-1.999c1.53-0.236 2.583-0.719 3.676-1.443 0.727 1.626 1.81 3 3.227 4.088 1.784 1.37 4.032 2.125 6.329 2.125 2.521 0 4.958-0.885 6.858-2.493 4.012-3.392 4.968-8.792 2.397-13.261l1.737-1.617 0.344 0.353c0.285 0.292 0.665 0.453 1.069 0.453 0.683 0 1.28-0.46 1.454-1.118l1.575-5.976c0.12-0.453 0.025-0.925-0.26-1.295-0.365-0.476-1.003-0.693-1.584-0.535zM39.125 7.833c-0.068 0.258-0.294 0.373-0.487 0.373-0.094 0-0.231-0.026-0.353-0.151l-0.685-0.703c-0.19-0.195-0.5-0.203-0.699-0.017l-2.391 2.227c-0.175 0.163-0.21 0.428-0.083 0.63 2.562 4.103 1.748 9.169-1.981 12.323-1.721 1.456-3.927 2.257-6.213 2.257-2.079 0-4.11-0.681-5.72-1.918-1.435-1.102-2.492-2.527-3.143-4.236-0.055-0.145-0.174-0.255-0.323-0.3-0.148-0.045-0.309-0.018-0.435 0.071-1.296 0.925-2.344 1.466-4.169 1.679-0.253 0.029-0.443 0.243-0.443 0.496v2.936c0 0.276 0.224 0.5 0.5 0.5h1.782c0.771 0 1.422 0.687 1.422 1.5s-0.652 1.5-1.422 1.5h-1.782c-0.276 0-0.5 0.224-0.5 0.5v2.078c0 0.771-0.687 1.422-1.5 1.422s-1.5-0.651-1.5-1.422v-2.078c0-0.276-0.224-0.5-0.5-0.5h-1.905c-0.771 0-1.422-0.687-1.422-1.5s0.651-1.5 1.422-1.5h1.905c0.276 0 0.5-0.224 0.5-0.5v-3.121c0-0.233-0.161-0.435-0.387-0.487-4.744-1.097-7.72-5.319-7.237-10.268 0.436-4.466 3.993-8.067 8.458-8.563 4.415-0.494 8.522 2.083 10.064 6.117 0.056 0.146 0.176 0.257 0.326 0.301 0.149 0.045 0.311 0.016 0.437-0.077 1.668-1.224 3.62-1.872 5.643-1.872 2.037 0 3.989 0.661 5.647 1.911 0.192 0.145 0.463 0.132 0.641-0.033l2.279-2.119c0.099-0.092 0.156-0.219 0.16-0.354s-0.048-0.265-0.142-0.361l-0.88-0.902c-0.18-0.185-0.147-0.397-0.125-0.48 0.023-0.083 0.103-0.283 0.351-0.351l5.85-1.594c0.198-0.053 0.405 0.019 0.529 0.18 0.056 0.072 0.141 0.223 0.086 0.43l-1.575 5.976zM26.319 8.943c-1.673 0-3.247 0.651-4.43 1.835-1.184 1.183-1.835 2.757-1.835 4.43s0.652 3.247 1.835 4.43c1.183 1.184 2.757 1.835 4.43 1.835s3.247-0.652 4.43-1.835c1.184-1.183 1.835-2.757 1.835-4.43s-0.651-3.247-1.835-4.43c-1.183-1.183-2.757-1.835-4.43-1.835zM30.042 18.932c-0.995 0.995-2.317 1.542-3.723 1.542s-2.729-0.548-3.723-1.542-1.542-2.317-1.542-3.723 0.548-2.729 1.542-3.723 2.317-1.542 3.723-1.542 2.729 0.547 3.723 1.542 1.542 2.317 1.542 3.723-0.547 2.728-1.542 3.723z"></path>
</svg>
