<!-- Generated by IcoMoon.io -->
<svg version="1.1" xmlns="http://www.w3.org/2000/svg" width="28" height="32" viewBox="0 0 28 32">
<title>ghost</title>
<path d="M25 32c1.662 0 3-1.353 3-3.015v-14.906c0-7.988-6.596-14.451-14.68-14.062-7.513 0.353-13.32 6.698-13.32 14.445v14.523c0 1.662 1.338 3.015 3 3.015s3-1.353 3-3.015v-1.057c0-1.389 1.111-2.518 2.5-2.518s2.5 1.13 2.5 2.519v1.057c0 1.661 1.338 3.014 3 3.014s3-1.353 3-3.015v-1.057c0-1.389 1.111-2.518 2.5-2.518s2.5 1.13 2.5 2.519v1.057c0 1.661 1.338 3.014 3 3.014zM19.5 24.411c-1.939 0-3.5 1.578-3.5 3.518v1.057c0 1.111-0.889 2.014-2 2.014s-2-0.903-2-2.015v-1.057c0-1.939-1.561-3.518-3.5-3.518s-3.5 1.579-3.5 3.519v1.057c0 1.111-0.889 2.014-2 2.014s-2-0.903-2-2.015v-14.523c0-7.212 5.388-13.118 12.367-13.447 7.52-0.347 13.633 5.642 13.633 13.064v14.906c0 1.112-0.889 2.015-2 2.015s-2-0.903-2-2.015v-1.057c0-1.939-1.561-3.517-3.5-3.517zM20.458 16.409c-1.605 1.922-3.96 3.024-6.458 3.024s-4.853-1.103-6.458-3.024c-0.177-0.212-0.493-0.24-0.704-0.063-0.212 0.177-0.24 0.492-0.063 0.704 1.796 2.15 4.43 3.384 7.226 3.384s5.43-1.233 7.226-3.384c0.177-0.212 0.148-0.527-0.063-0.704-0.213-0.176-0.528-0.148-0.706 0.063zM10.417 13.052c1.087 0 1.972-0.885 1.972-1.972s-0.885-1.973-1.972-1.973c-1.088 0-1.973 0.885-1.973 1.973 0 1.087 0.885 1.972 1.973 1.972zM10.417 10.107c0.536 0 0.972 0.437 0.972 0.973s-0.436 0.972-0.972 0.972-0.973-0.436-0.973-0.972 0.437-0.973 0.973-0.973zM17.198 13.052c1.087 0 1.972-0.885 1.972-1.972s-0.885-1.973-1.972-1.973c-1.088 0-1.973 0.885-1.973 1.973 0.001 1.087 0.885 1.972 1.973 1.972zM17.198 10.107c0.536 0 0.972 0.437 0.972 0.973s-0.436 0.972-0.972 0.972-0.973-0.436-0.973-0.972 0.437-0.973 0.973-0.973z"></path>
</svg>
