<!-- Generated by IcoMoon.io -->
<svg version="1.1" xmlns="http://www.w3.org/2000/svg" width="32" height="32" viewBox="0 0 32 32">
<title>gift-box</title>
<path d="M30.5 7h-9.292c0.455 0 0.9-0.598 1.315-0.961 1.414-1.236 2.259-2.719 2.259-3.956 0-0.635-0.228-1.172-0.658-1.549-1.228-1.076-4.016-0.41-6.083 1.399-0.775 0.678-1.371 1.427-1.759 2.171-0.388-0.744-0.984-1.494-1.759-2.172-2.068-1.81-4.856-2.477-6.083-1.401-0.43 0.376-0.658 0.911-0.658 1.547 0 1.236 0.845 2.724 2.259 3.961 0.415 0.363 0.861 0.961 1.316 0.961h-9.857c-0.827 0-1.5 0.653-1.5 1.48v4c0 0.828 0.673 1.52 1.5 1.52h0.5v16.48c0 0.828 0.673 1.52 1.5 1.52h25.001c0.827 0 1.499-0.692 1.499-1.52v-16.48h0.5c0.827 0 1.5-0.692 1.5-1.52v-4c0-0.827-0.673-1.48-1.5-1.48zM18.699 2.684c1.201-1.050 2.641-1.704 3.758-1.704 0.434 0 0.782 0.105 1.009 0.303 0.21 0.185 0.316 0.451 0.316 0.795 0 0.925-0.753 2.181-1.917 3.199-1.2 1.050-2.641 1.703-3.757 1.703-0.435 0-0.783-0.105-1.010-0.303-0.21-0.184-0.316-0.451-0.316-0.795 0-0.923 0.753-2.179 1.917-3.198zM15 8h2v23h-2v-23zM10.699 5.277c-1.164-1.020-1.917-2.275-1.917-3.199 0-0.344 0.106-0.611 0.316-0.795 0.227-0.197 0.575-0.303 1.010-0.303 1.116 0 2.557 0.653 3.757 1.703 1.164 1.019 1.917 2.274 1.917 3.199 0 0.344-0.106 0.61-0.316 0.795-0.227 0.197-0.575 0.303-1.009 0.303-1.117 0-2.557-0.653-3.758-1.703zM3 30.48v-16.48h8.5c0.276 0 0.5-0.224 0.5-0.5s-0.224-0.5-0.5-0.5h-10c-0.275 0-0.5-0.244-0.5-0.52v-4c0-0.275 0.225-0.48 0.5-0.48h12.5v23h-10.5c-0.275 0-0.5-0.244-0.5-0.52zM31 12.48c0 0.275-0.225 0.52-0.5 0.52h-9.999c-0.276 0-0.5 0.224-0.5 0.5s0.224 0.5 0.5 0.5h8.499v16.48c0 0.275-0.224 0.52-0.499 0.52h-10.501v-23h12.5c0.275 0 0.5 0.205 0.5 0.48v4z"></path>
</svg>
