<!-- Generated by IcoMoon.io -->
<svg version="1.1" xmlns="http://www.w3.org/2000/svg" width="32" height="32" viewBox="0 0 32 32">
<title>globe2</title>
<path d="M0.034 16.668c0.354 8.511 7.369 15.332 15.966 15.332s15.612-6.821 15.966-15.332c0.019-0.053 0.034-0.108 0.034-0.168 0-0.036-0.013-0.067-0.020-0.1 0.003-0.134 0.020-0.265 0.020-0.4 0-8.822-7.178-16-16-16s-16 7.178-16 16c0 0.135 0.017 0.266 0.020 0.4-0.007 0.033-0.020 0.064-0.020 0.1 0 0.060 0.015 0.115 0.034 0.168zM24.921 22.741c-1.319-0.552-2.735-0.979-4.215-1.271 0.158-1.453 0.251-2.962 0.28-4.47h4.98c-0.091 2.055-0.456 3.994-1.045 5.741zM26.965 17h3.984c-0.186 2.806-1.138 5.402-2.662 7.578-0.759-0.533-1.577-1.018-2.457-1.44 0.644-1.869 1.041-3.942 1.135-6.138zM12.389 22.286c1.178-0.184 2.387-0.286 3.612-0.286s2.432 0.102 3.61 0.286c-0.695 5.335-2.211 8.714-3.611 8.714s-2.916-3.379-3.611-8.714zM13.908 30.664c-2.751-0.882-5.078-3.471-6.482-6.984 1.246-0.525 2.586-0.935 3.989-1.217 0.46 3.495 1.298 6.542 2.493 8.201zM12.275 10.709c1.216 0.188 2.464 0.291 3.725 0.291s2.509-0.103 3.725-0.291c0.173 1.62 0.275 3.388 0.275 5.291h-8c0-1.903 0.102-3.671 0.275-5.291zM19.985 17c-0.028 1.525-0.118 2.961-0.26 4.291-1.216-0.188-2.463-0.291-3.724-0.291-1.262 0-2.51 0.104-3.726 0.291-0.141-1.33-0.232-2.766-0.26-4.291h7.97zM20.585 22.463c1.404 0.282 2.743 0.692 3.989 1.217-1.404 3.513-3.731 6.102-6.482 6.985 1.195-1.66 2.033-4.707 2.493-8.202zM21 16c0-1.836-0.101-3.696-0.294-5.471 1.48-0.292 2.896-0.72 4.215-1.271 0.684 2.030 1.079 4.316 1.079 6.742h-5zM20.585 9.537c-0.46-3.496-1.298-6.542-2.492-8.201 2.751 0.882 5.078 3.471 6.482 6.984-1.247 0.525-2.587 0.935-3.99 1.217zM19.611 9.714c-1.178 0.184-2.387 0.286-3.611 0.286s-2.433-0.102-3.611-0.286c0.695-5.335 2.211-8.714 3.611-8.714s2.916 3.379 3.611 8.714zM11.415 9.537c-1.403-0.281-2.743-0.692-3.989-1.217 1.404-3.513 3.731-6.102 6.482-6.984-1.195 1.659-2.033 4.706-2.493 8.201zM11.294 10.529c-0.192 1.775-0.294 3.635-0.294 5.471h-5c0-2.426 0.395-4.712 1.079-6.742 1.319 0.552 2.735 0.979 4.215 1.271zM11.014 17c0.029 1.508 0.122 3.017 0.28 4.471-1.48 0.293-2.896 0.72-4.215 1.271-0.589-1.747-0.954-3.687-1.045-5.742h4.98zM6.17 23.139c-0.88 0.422-1.697 0.907-2.457 1.44-1.524-2.176-2.476-4.772-2.662-7.579h3.984c0.094 2.196 0.491 4.27 1.135 6.139zM4.313 25.38c0.685-0.479 1.417-0.921 2.207-1.305 1.004 2.485 2.448 4.548 4.186 5.942-2.526-0.957-4.729-2.567-6.393-4.637zM21.294 30.017c1.738-1.394 3.182-3.458 4.186-5.943 0.79 0.384 1.522 0.826 2.207 1.305-1.664 2.070-3.867 3.681-6.393 4.638zM27 16c0-2.567-0.428-4.987-1.17-7.139 0.88-0.422 1.698-0.907 2.457-1.44 1.704 2.434 2.713 5.389 2.713 8.579h-4zM27.688 6.621c-0.685 0.479-1.417 0.921-2.207 1.305-1.004-2.485-2.449-4.549-4.186-5.943 2.525 0.957 4.728 2.567 6.393 4.638zM10.706 1.983c-1.738 1.394-3.182 3.458-4.187 5.943-0.79-0.384-1.522-0.826-2.207-1.306 1.665-2.070 3.868-3.68 6.394-4.637zM3.713 7.421c0.759 0.533 1.577 1.018 2.457 1.44-0.742 2.152-1.17 4.572-1.17 7.139h-4c0-3.19 1.009-6.145 2.713-8.579z"></path>
</svg>
