<!-- Generated by IcoMoon.io -->
<svg version="1.1" xmlns="http://www.w3.org/2000/svg" width="32" height="32" viewBox="0 0 32 32">
<title>globe3</title>
<path d="M12.675 4.263c-5.69-3.99-10.003-5.265-11.84-3.483-0.546 0.529-0.827 1.286-0.835 2.252-0.016 1.879 1.021 4.509 2.839 7.477-1.305 2.077-2.071 4.524-2.071 7.152 0 7.444 6.056 13.5 13.5 13.5 2.628 0 5.075-0.767 7.152-2.071 2.907 1.795 5.574 2.906 7.521 2.906 0.917 0 1.675-0.245 2.224-0.776 1.833-1.775 0.552-6.223-3.429-11.898-0.019-0.028-0.047-0.045-0.070-0.067 0.062-0.524 0.103-1.053 0.103-1.593 0-7.444-6.056-13.5-13.5-13.5-0.541-0.001-1.071 0.039-1.594 0.101zM1 3.041c0.006-0.688 0.185-1.207 0.53-1.542 1.318-1.276 5.084-0.094 9.735 3.010-3.173 0.724-5.915 2.569-7.804 5.095-1.573-2.635-2.475-4.946-2.461-6.563zM14.268 30.161c-6.893 0-12.5-5.607-12.5-12.5 0-2.262 0.613-4.379 1.668-6.212 1.921 2.944 4.551 6.165 7.675 9.298 2.973 2.982 6.276 5.717 9.369 7.746-1.833 1.055-3.951 1.668-6.212 1.668zM30.469 30.501c-1.141 1.106-4.186 0.39-8.181-2.006 2.551-1.894 4.413-4.656 5.137-7.854 3.183 4.738 4.38 8.566 3.044 9.86zM26.768 17.661c0 4.25-2.136 8.006-5.386 10.265-2.872-1.839-6.162-4.474-9.563-7.885-3.187-3.196-5.888-6.533-7.795-9.522 2.262-3.234 6.007-5.358 10.244-5.358 6.892 0 12.5 5.607 12.5 12.5zM12.053 11.273c0 1.378 1.122 2.5 2.5 2.5s2.5-1.122 2.5-2.5-1.122-2.5-2.5-2.5-2.5 1.122-2.5 2.5zM14.553 9.773c0.827 0 1.5 0.673 1.5 1.5s-0.673 1.5-1.5 1.5-1.5-0.673-1.5-1.5 0.673-1.5 1.5-1.5zM18.876 22.685c1.103 0 2-0.897 2-2s-0.897-2-2-2-2 0.897-2 2 0.897 2 2 2zM18.876 19.685c0.551 0 1 0.449 1 1s-0.449 1-1 1-1-0.449-1-1 0.449-1 1-1zM4.975 16.596c-1.103 0-2 0.897-2 2s0.897 2 2 2 2-0.897 2-2-0.897-2-2-2zM4.975 19.596c-0.551 0-1-0.449-1-1s0.449-1 1-1 1 0.449 1 1-0.449 1-1 1z"></path>
</svg>
