<!-- Generated by IcoMoon.io -->
<svg version="1.1" xmlns="http://www.w3.org/2000/svg" width="32" height="32" viewBox="0 0 32 32">
<title>globe1</title>
<path d="M1.276 31.983c2.005 0 5.971-2.809 9.897-6.113 1.46 0.717 3.094 1.13 4.827 1.13 6.065 0 11-4.935 11-11 0-1.73-0.412-3.361-1.127-4.818 1.166-1.392 2.213-2.724 3.101-3.955 3.589-4.976 3.247-6.309 2.678-6.877-0.365-0.367-1.479-1.484-8.153 3.625-0.219 0.168-0.261 0.481-0.093 0.701s0.483 0.261 0.701 0.093c4.882-3.736 6.615-3.938 6.838-3.712 0.007 0.007 0.63 0.857-2.781 5.586-0.81 1.123-1.761 2.336-2.81 3.598-1.94-3.138-5.402-5.241-9.354-5.241-6.065 0-11 4.935-11 11 0 3.955 2.105 7.419 5.247 9.358-5.321 4.417-8.673 6.11-9.191 5.586-0.22-0.219-0.028-1.922 3.606-6.7 0.167-0.22 0.125-0.534-0.095-0.701s-0.534-0.124-0.701 0.095c-4.979 6.549-3.879 7.65-3.518 8.013 0.227 0.227 0.541 0.332 0.928 0.332zM26 16c0 5.514-4.486 10-10 10-1.42 0-2.769-0.302-3.993-0.837 2.533-2.179 4.989-4.499 6.823-6.333 2.315-2.314 4.459-4.629 6.335-6.817 0.534 1.223 0.835 2.57 0.835 3.987zM6 16c0-5.514 4.486-10 10-10 3.712 0 6.95 2.037 8.676 5.047-1.92 2.259-4.144 4.667-6.553 7.075-2.608 2.608-4.974 4.775-7.070 6.557-3.013-1.723-5.053-4.964-5.053-8.679z"></path>
</svg>
