<!-- Generated by IcoMoon.io -->
<svg version="1.1" xmlns="http://www.w3.org/2000/svg" width="32" height="32" viewBox="0 0 32 32">
<title>globe4</title>
<path d="M28.498 13.832c0-4.589-2.339-8.835-6.045-11.341l1.009-1.74c0.139-0.239 0.057-0.545-0.182-0.684-0.241-0.14-0.545-0.058-0.684 0.182l-0.994 1.713c-0.624-0.358-1.279-0.67-1.965-0.928-0.257-0.1-0.547 0.034-0.644 0.292-0.097 0.259 0.034 0.547 0.292 0.644 0.634 0.238 1.239 0.527 1.816 0.857l-1.091 1.883c-1.53-0.872-3.296-1.378-5.18-1.378-5.79 0-10.5 4.71-10.5 10.5 0 3.594 1.817 6.769 4.578 8.663l-1.081 1.88c-0.443-0.294-0.874-0.606-1.28-0.957-0.209-0.181-0.525-0.158-0.706 0.051s-0.158 0.524 0.051 0.705c0.454 0.393 0.938 0.741 1.436 1.068l-0.865 1.505c-0.138 0.239-0.055 0.545 0.185 0.683 0.079 0.045 0.164 0.066 0.249 0.066 0.173 0 0.341-0.090 0.434-0.251l0.852-1.483c1.78 0.992 3.766 1.575 5.817 1.7v3.538h-3c-0.276 0-0.5 0.224-0.5 0.5s0.224 0.5 0.5 0.5h7c0.276 0 0.5-0.224 0.5-0.5s-0.224-0.5-0.5-0.5h-3v-3.509c7.457-0.092 13.498-6.18 13.498-13.659zM5.33 13.832c0-5.238 4.262-9.5 9.5-9.5s9.5 4.262 9.5 9.5-4.262 9.5-9.5 9.5c-1.83 0-3.534-0.529-4.986-1.429-0.005-0.003-0.008-0.009-0.013-0.012-0.004-0.002-0.009-0.002-0.013-0.004-2.689-1.679-4.488-4.657-4.488-8.055zM9.759 23.020c1.505 0.834 3.232 1.312 5.071 1.312 5.79 0 10.5-4.71 10.5-10.5 0-3.548-1.773-6.684-4.475-8.586l1.094-1.887c3.403 2.327 5.549 6.242 5.549 10.473 0 6.985-5.683 12.668-12.667 12.668-2.168 0-4.28-0.565-6.149-1.604l1.077-1.876z"></path>
</svg>
