<!-- Generated by IcoMoon.io -->
<svg version="1.1" xmlns="http://www.w3.org/2000/svg" width="32" height="32" viewBox="0 0 32 32">
<title>google</title>
<path d="M16-0.035c-8.842 0-16.034 7.194-16.034 16.035s7.192 16.035 16.034 16.035 16.034-7.194 16.034-16.035-7.192-16.035-16.034-16.035zM16 30.965c-8.252 0-14.966-6.713-14.966-14.965s6.714-14.965 14.966-14.965 14.966 6.713 14.966 14.965-6.714 14.965-14.966 14.965zM16.487 18.747c-0.038-0.096-0.095-0.185-0.187-0.248-0.848-0.573-1.323-1.183-1.413-1.811-0.1-0.696 0.308-1.206 0.333-1.236 0.045-0.053 0.076-0.113 0.097-0.176 1.036-0.623 1.718-1.647 1.718-2.808 0-0.969-0.476-1.843-1.235-2.469h1.2c0.276 0 0.5-0.224 0.5-0.5s-0.224-0.499-0.5-0.499h-4c-0.073 0-0.141 0.017-0.204 0.045-2.128 0.093-3.83 1.585-3.83 3.423 0 1.897 1.81 3.44 4.034 3.44 0.307 0 0.603-0.035 0.891-0.091-0.075 0.291-0.116 0.625-0.066 0.999 0.047 0.349 0.186 0.682 0.368 1.007-0.371-0.065-0.753-0.109-1.151-0.109-2.752 0-4.991 1.656-4.991 3.691s2.239 3.691 4.991 3.691c2.753 0 4.992-1.656 4.992-3.691 0-1.045-0.598-1.986-1.547-2.658zM10.034 12.469c0-1.308 1.331-2.372 2.966-2.372s2.966 1.064 2.966 2.372-1.331 2.371-2.966 2.371-2.966-1.064-2.966-2.371zM13.042 24.028c-2.163 0-3.923-1.176-3.923-2.622s1.76-2.622 3.923-2.622 3.924 1.176 3.924 2.622-1.761 2.622-3.924 2.622zM25 12h-2v-2c0-0.276-0.224-0.5-0.5-0.5s-0.5 0.224-0.5 0.5v2h-2c-0.276 0-0.5 0.224-0.5 0.5s0.224 0.5 0.5 0.5h2v2c0 0.276 0.224 0.5 0.5 0.5s0.5-0.224 0.5-0.5v-2h2c0.276 0 0.5-0.224 0.5-0.5s-0.224-0.5-0.5-0.5z"></path>
</svg>
