<!-- Generated by IcoMoon.io -->
<svg version="1.1" xmlns="http://www.w3.org/2000/svg" width="37" height="32" viewBox="0 0 37 32">
<title>graduation-cap</title>
<path d="M36.078 7.173l-16.202-6.827c-0.865-0.365-1.858-0.365-2.728 0l-16.226 6.837c-0.56 0.237-0.913 0.761-0.922 1.371-0.009 0.607 0.329 1.143 0.881 1.394l1.709 0.782c-0.052 0.079-0.090 0.168-0.090 0.27v9c0 0.005 0.003 0.010 0.003 0.016-1.172 0.207-2.066 1.226-2.066 2.456 0 1.111 0.733 2.043 1.736 2.368l-1.798 4.164c-0.271 0.629-0.206 1.326 0.18 1.912 0.447 0.679 1.232 1.084 2.101 1.084l0.289-0.014c0.813-0.066 1.539-0.481 1.941-1.111 0.344-0.537 0.418-1.182 0.203-1.767l-1.548-4.218c1.086-0.272 1.896-1.248 1.896-2.418 0-1.188-0.833-2.18-1.945-2.433 0.001-0.014 0.008-0.025 0.008-0.039v-8.853l4 1.833v7.020h0.010c0.103 2.257 5.827 3.439 11.49 3.439s11.387-1.182 11.49-3.439h0.010v-7.551l5.607-2.507c0.557-0.248 0.899-0.782 0.893-1.393s-0.359-1.139-0.922-1.376zM4.045 30.336c-0.235 0.368-0.677 0.613-1.186 0.654l-0.203 0.010c-0.531 0-1.005-0.236-1.266-0.634-0.2-0.304-0.234-0.647-0.097-0.966l1.533-3.552 1.323 3.604c0.11 0.294 0.072 0.609-0.104 0.884zM4.438 22.472c0 0.827-0.673 1.5-1.5 1.5s-1.5-0.673-1.5-1.5 0.673-1.5 1.5-1.5 1.5 0.673 1.5 1.5zM29.5 18.419c-1.898-1.305-6.219-1.98-10.5-1.98s-8.602 0.675-10.5 1.98v-7.278c0-1.097 3.185-2.641 10.266-2.641 7.004 0 10.734 1.57 10.734 2.703v7.216zM19 22.439c-6.409 0-10.5-1.48-10.5-2.5s4.091-2.5 10.5-2.5 10.5 1.48 10.5 2.5-4.091 2.5-10.5 2.5zM35.699 9.030l-5.199 2.324v-0.151c0-2.181-4.825-3.703-11.734-3.703-6.844 0-11.266 1.429-11.266 3.641v0.741l-6.203-2.844c-0.28-0.127-0.298-0.392-0.297-0.471s0.027-0.343 0.311-0.463l16.227-6.837c0.619-0.263 1.331-0.261 1.95 0l16.202 6.827c0.285 0.12 0.31 0.386 0.311 0.464 0 0.080-0.020 0.345-0.302 0.472z"></path>
</svg>
