<!-- Generated by IcoMoon.io -->
<svg version="1.1" xmlns="http://www.w3.org/2000/svg" width="40" height="32" viewBox="0 0 40 32">
<title>graph-bar</title>
<path d="M0.5 32h39c0.276 0 0.5-0.224 0.5-0.5s-0.224-0.5-0.5-0.5h-3v-23.5c0-0.827-0.673-1.5-1.5-1.5h-6c-0.827 0-1.5 0.673-1.5 1.5v23.5h-3v-29.5c0-0.827-0.673-1.5-1.5-1.5h-6c-0.827 0-1.5 0.673-1.5 1.5v29.5h-3v-15.5c0-0.827-0.673-1.5-1.5-1.5h-6c-0.827 0-1.5 0.673-1.5 1.5v15.5h-3c-0.276 0-0.5 0.224-0.5 0.5s0.224 0.5 0.5 0.5zM28.5 7.5c0-0.276 0.225-0.5 0.5-0.5h6c0.275 0 0.5 0.224 0.5 0.5v23.5h-7v-23.5zM16.5 1.5c0-0.276 0.225-0.5 0.5-0.5h6c0.275 0 0.5 0.224 0.5 0.5v29.5h-7v-29.5zM4.5 15.5c0-0.276 0.225-0.5 0.5-0.5h6c0.275 0 0.5 0.224 0.5 0.5v15.5h-7v-15.5z"></path>
</svg>
