<!-- Generated by IcoMoon.io -->
<svg version="1.1" xmlns="http://www.w3.org/2000/svg" width="32" height="32" viewBox="0 0 32 32">
<title>graph-pie</title>
<path d="M10.2 30.913c1.91 0.75 3.871 1.131 5.829 1.131 7.961 0 15.253-6.644 15.922-14.508 0.036-0.424-0.107-0.794-0.394-1.106-0.282-0.306-0.681-0.43-1.097-0.43h-0.247c-0.002-8-6.213-14.211-14.213-14.213v-0.246c0-0.826-0.625-1.497-1.457-1.497-0.015 0-0.092 0.004-0.107 0.006-4.542 0.393-8.902 3.063-11.685 7.143-2.742 4.020-3.503 8.748-2.155 13.312 1.389 4.702 4.982 8.593 9.604 10.408zM29.213 16h-12.615c-0.272 0-0.598-0.326-0.598-0.598v-12.615c7 0.002 13.211 6.213 13.213 13.213zM3.59 7.757c2.616-3.834 6.661-6.343 10.954-6.713 0.28 0 0.457 0.223 0.457 0.497v13.861c-0.001 0.824 0.773 1.598 1.597 1.598h13.862c0.139 0 0.267 0.005 0.361 0.107 0.099 0.107 0.146 0.222 0.134 0.37-0.628 7.368-7.463 13.58-14.926 13.58-1.832 0-3.67-0.363-5.464-1.068-4.336-1.704-7.702-5.356-9.004-9.764-1.261-4.271-0.54-8.701 2.029-12.468z"></path>
</svg>
