<!-- Generated by IcoMoon.io -->
<svg version="1.1" xmlns="http://www.w3.org/2000/svg" width="32" height="32" viewBox="0 0 32 32">
<title>grid-twist</title>
<path d="M30.208 0h-28.416c-0.988 0-1.792 0.804-1.792 1.792v28.416c0 0.988 0.804 1.792 1.792 1.792h28.417c0.987 0 1.791-0.804 1.791-1.792v-28.416c0-0.988-0.804-1.792-1.792-1.792zM20.614 31h-9.173c0.627-2.966 0.567-5.964 0.246-8.936 1.081-0.146 2.159-0.305 3.227-0.471 1.919-0.299 3.863-0.598 5.812-0.773 0.442 3.401 0.633 6.837-0.112 10.18zM14.76 20.604c-1.056 0.164-2.12 0.326-3.188 0.47-0.167-1.338-0.369-2.67-0.574-3.989-0.258-1.664-0.519-3.345-0.698-5.033 1.549-0.177 3.089-0.414 4.613-0.651 1.474-0.229 2.962-0.458 4.456-0.633 0.167 2.175 0.501 4.337 0.832 6.471 0.133 0.857 0.263 1.721 0.386 2.587-1.958 0.18-3.904 0.48-5.827 0.778zM1 11.852c1.609 0.34 3.226 0.486 4.845 0.486 1.155 0 2.308-0.082 3.46-0.191 0.182 1.71 0.445 3.411 0.706 5.094 0.203 1.309 0.404 2.632 0.569 3.958-3.206 0.387-6.434 0.519-9.58-0.182v-9.165zM11.192 1h9.135c-0.964 2.921-1.171 5.855-1.023 8.77-1.525 0.177-3.042 0.411-4.545 0.644-1.505 0.234-3.028 0.464-4.555 0.638-0.284-3.359-0.173-6.737 0.988-10.052zM21.189 17.086c-0.329-2.12-0.66-4.268-0.823-6.423 3.551-0.347 7.128-0.295 10.634 0.933v9.134c-3.137-1.036-6.288-1.195-9.414-0.983-0.126-0.891-0.26-1.779-0.397-2.661zM31 1.792v8.748c-3.566-1.178-7.152-1.222-10.696-0.877-0.142-2.899 0.078-5.804 1.079-8.663h8.826c0.436 0 0.791 0.355 0.791 0.792zM1.792 1h8.345c-1.119 3.385-1.216 6.789-0.927 10.159-2.753 0.262-5.512 0.269-8.21-0.333v-9.034c0-0.437 0.355-0.792 0.792-0.792zM1 30.208v-8.166c1.609 0.34 3.226 0.486 4.845 0.486 1.62 0 3.24-0.138 4.851-0.333 0.316 2.95 0.372 5.912-0.273 8.805h-8.631c-0.437 0-0.792-0.355-0.792-0.792zM30.208 31h-8.577c0.72-3.406 0.534-6.855 0.093-10.258 3.103-0.204 6.216-0.027 9.275 1.044v8.422c0.001 0.437-0.354 0.792-0.791 0.792z"></path>
</svg>
