<!-- Generated by IcoMoon.io -->
<svg version="1.1" xmlns="http://www.w3.org/2000/svg" width="32" height="32" viewBox="0 0 32 32">
<title>grid-even</title>
<path d="M30.208 0h-28.416c-0.988 0-1.792 0.804-1.792 1.792v28.416c0 0.988 0.804 1.792 1.792 1.792h28.417c0.987 0 1.791-0.804 1.791-1.792v-28.416c0-0.988-0.804-1.792-1.792-1.792zM1 11h9v10h-9v-10zM11 11h10v10h-10v-10zM22 11h9v10h-9v-10zM30.208 1c0.437 0 0.792 0.355 0.792 0.792v8.208h-9v-9h8.208zM21 1v9h-10v-9h10zM1 1.792c0-0.437 0.355-0.792 0.792-0.792h8.208v9h-9v-8.208zM1.792 31c-0.437 0-0.792-0.355-0.792-0.792v-8.208h9v9h-8.208zM11 31v-9h10v9h-10zM31 30.208c0 0.437-0.355 0.792-0.792 0.792h-8.208v-9h9v8.208z"></path>
</svg>
