<!-- Generated by IcoMoon.io -->
<svg version="1.1" xmlns="http://www.w3.org/2000/svg" width="32" height="32" viewBox="0 0 32 32">
<title>grid-masonry</title>
<path d="M30.208 0h-28.416c-0.988 0-1.792 0.804-1.792 1.792v28.416c0 0.988 0.804 1.792 1.792 1.792h28.417c0.987 0 1.791-0.804 1.791-1.792v-28.416c0-0.988-0.804-1.792-1.792-1.792zM21 1v15h-10v-15h10zM1.792 31c-0.437 0-0.792-0.355-0.792-0.792v-28.416c0-0.437 0.355-0.792 0.792-0.792h8.208v30h-8.208zM11 31v-14h10v14h-10zM31 30.208c0 0.437-0.355 0.792-0.792 0.792h-8.208v-30h8.208c0.437 0 0.792 0.355 0.792 0.792v28.416z"></path>
</svg>
