<!-- Generated by IcoMoon.io -->
<svg version="1.1" xmlns="http://www.w3.org/2000/svg" width="24" height="32" viewBox="0 0 24 32">
<title>hand</title>
<path d="M0.286 18.651l4.387 8.082c0.092 0.215 2.342 5.267 10.583 5.267 8.145 0 8.738-8.684 8.744-8.8v-15.541c0-1.431-1.085-2.595-2.497-2.595-0.593 0-1.503 0.214-1.503 0.558v-1.47c0-1.431-1.186-2.595-2.564-2.595-0.548 0-1.069 0.19-1.462 0.507-0.246-1.143-1.293-2.064-2.479-2.064-0.014 0-0.028 0-0.043 0s-0.028 0-0.042 0c-1.356 0-2.41 1.16-2.41 2.595v0.042c-0.436-0.387-0.972-0.637-1.546-0.637-0.001 0-0.002 0-0.003 0-0.042 0-0.985 0.068-1.7 0.719-0.499 0.454-0.751 1.277-0.751 2.146v11.135c0 0.276 0.224 0.5 0.5 0.5s0.5-0.224 0.5-0.5v-11.135c0-0.571 0.141-1.001 0.418-1.258 0.382-0.354 0.937-0.322 0.986-0.322 0.85 0 1.596 0.742 1.596 1.609v9.106c0 0.276 0.224 0.5 0.5 0.5s0.5-0.224 0.5-0.5v-11.405c0-0.889 0.636-1.586 1.452-1.595 0.84 0.010 1.548 0.735 1.548 1.595v12.405c0 0.276 0.224 0.5 0.5 0.5s0.5-0.224 0.5-0.5v-10.848c0-0.924 0.641-1.595 1.436-1.595 0.827 0.001 1.564 0.716 1.564 1.595v9.396c0 0.276 0.224 0.5 0.5 0.5s0.5-0.224 0.5-0.5v-5.857c0-0.011-0.058-0.020-0.058-0.031 0-0.879 0.668-1.595 1.529-1.595s1.529 0.715 1.529 1.594l0.001 15.512c-0.019 0.319-0.551 7.829-7.745 7.829-7.548 0-9.581-4.471-9.683-4.701l-4.39-8.087c-0.006-0.014-0.582-1.353 0.23-2.112 0.387-0.362 0.76-0.531 1.135-0.512 0.548 0.035 0.938 0.492 0.939 0.492l4.108 5.424c0.166 0.22 0.479 0.263 0.7 0.097 0.22-0.167 0.264-0.48 0.097-0.7l-4.117-5.436c-0.026-0.032-0.657-0.804-1.649-0.874-0.661-0.039-1.295 0.216-1.896 0.778-1.323 1.239-0.498 3.164-0.444 3.282z"></path>
</svg>
