<!-- Generated by IcoMoon.io -->
<svg version="1.1" xmlns="http://www.w3.org/2000/svg" width="19" height="32" viewBox="0 0 19 32">
<title>hand-watch</title>
<path d="M0 16.020c0 5.238 4.262 9.5 9.5 9.5s9.5-4.262 9.5-9.5-4.262-9.5-9.5-9.5-9.5 4.261-9.5 9.5zM9.5 7.52c4.687 0 8.5 3.813 8.5 8.5s-3.813 8.5-8.5 8.5-8.5-3.813-8.5-8.5 3.813-8.5 8.5-8.5zM5 25.5c-0.276 0-0.5 0.224-0.5 0.5v0.973c0 2.772 2.243 5.027 5 5.027s5-2.255 5-5.027c0-0.276-0.224-0.5-0.5-0.5s-0.5 0.224-0.5 0.5c0 2.22-1.794 4.027-4 4.027s-4-1.807-4-4.027v-0.973c0-0.276-0.224-0.5-0.5-0.5zM13.98 6.25c0.262-0.014 0.504-0.215 0.509-0.491l0.011-0.632c0-2.793-2.243-5.065-5-5.065s-5 2.216-5 4.94v0.998c0 0.276 0.224 0.5 0.5 0.5s0.5-0.224 0.5-0.5v-0.998c0-2.209 1.757-3.94 4-3.94 2.206 0 4 1.824 4 4.056l-0.011 0.623c-0.005 0.277 0.216 0.504 0.491 0.509zM9.322 16.743l3.452 1.75c0.072 0.037 0.149 0.054 0.226 0.054 0.183 0 0.358-0.1 0.446-0.274 0.125-0.247 0.026-0.547-0.22-0.672l-3.452-1.75c-0.169-0.086-0.274-0.257-0.274-0.446v-4.405c0-0.276-0.224-0.5-0.5-0.5s-0.5 0.224-0.5 0.5v4.405c0 0.568 0.315 1.081 0.822 1.338z"></path>
</svg>
