<!-- Generated by IcoMoon.io -->
<svg version="1.1" xmlns="http://www.w3.org/2000/svg" width="38" height="32" viewBox="0 0 38 32">
<title>hand-mike</title>
<path d="M6.502 22h1.498v-0.004c0 0.002 0.274 0.002 0.3 0.001 2.018-0.11 12.446-0.315 18.67 5.649 0.016 0.016 0.032 0.028 0.048 0.044 0.112 0.108 0.233 0.203 0.342 0.315 0.002 0.002 0.004 0.002 0.006 0.004 0.983 0.882 2.082 1.386 3.255 1.386 4.201 0 7.37-6.319 7.37-14.698 0-8.378-3.169-14.697-7.37-14.697-1.138 0-2.207 0.473-3.168 1.305-8.425 7.264-18.927 7.692-19.016 7.695h-1.965c-3.69 0-6.472 2.648-6.472 6.161v0.196c0 3.601 2.978 6.643 6.502 6.643zM36.991 14.698c0 7.553-2.857 13.698-6.37 13.698-3.577 0-6.599-6.273-6.599-13.698s3.022-13.698 6.599-13.698c3.512 0 6.37 6.145 6.37 13.698zM8.453 10c0.097 0 8.733-0.348 16.772-5.745-1.368 2.645-2.203 6.32-2.203 10.443 0 4.006 0.793 7.581 2.093 10.207-6.424-4.175-14.8-4.006-16.684-3.905h-1.062c-0.373-1.291-1.546-6-0.006-11h1.090zM1 15.161c0-2.894 2.281-5.076 5.324-5.147-1.402 4.784-0.456 9.308 0.001 10.977-2.904-0.101-5.325-2.637-5.325-5.635v-0.195zM25.5 11h-0.5c-0.276 0-0.5 0.224-0.5 0.5s0.224 0.5 0.5 0.5h0.5c1.425 0 2.5 1.032 2.5 2.429 0 1.418-1.122 2.571-2.5 2.571h-0.5c-0.276 0-0.5 0.224-0.5 0.5s0.224 0.5 0.5 0.5h0.5c1.93 0 3.5-1.602 3.5-3.599 0-1.907-1.538-3.401-3.5-3.401zM8.5 23.5c-0.276 0-0.5 0.224-0.5 0.5v3.951c0 2.233 1.794 4.049 4 4.049s4-1.816 4-4.049v-3.951c0-0.276-0.224-0.5-0.5-0.5s-0.5 0.224-0.5 0.5v3.951c0 1.681-1.346 3.049-3 3.049s-3-1.368-3-3.049v-3.951c0-0.276-0.224-0.5-0.5-0.5z"></path>
</svg>
