<!-- Generated by IcoMoon.io -->
<svg version="1.1" xmlns="http://www.w3.org/2000/svg" width="37" height="32" viewBox="0 0 37 32">
<title>headphone</title>
<path d="M0.5 29.5c0.276 0 0.5-0.224 0.5-0.5v-4h1v3c0 2.206 1.794 4 4 4s4-1.794 4-4v-7c0-2.206-1.794-4-4-4s-4 1.794-4 4v3h-1v-5.5c0-9.466 8.257-17.466 18.045-17.5 9.513 0.034 16.955 7.708 16.955 17.5v5.5h-1v-3c0-2.206-1.794-4-4-4s-4 1.794-4 4v7c0 2.206 1.794 4 4 4s4-1.794 4-4v-3h1v3c0 0.276 0.224 0.5 0.5 0.5s0.5-0.224 0.5-0.5v-9.5c0-10.323-7.836-18.5-17.868-18.5-0.008 0-0.017 0-0.024 0h-0.125c-0.008 0-0.017 0-0.024 0-10.293 0-18.959 8.521-18.959 18.5v10.5c0 0.276 0.224 0.5 0.5 0.5zM3 21c0-1.654 1.346-3 3-3s3 1.346 3 3v7c0 1.654-1.346 3-3 3s-3-1.346-3-3v-7zM34 28c0 1.654-1.346 3-3 3s-3-1.346-3-3v-7c0-1.654 1.346-3 3-3s3 1.346 3 3v7z"></path>
</svg>
