<!-- Generated by IcoMoon.io -->
<svg version="1.1" xmlns="http://www.w3.org/2000/svg" width="32" height="32" viewBox="0 0 32 32">
<title>headset</title>
<path d="M4.52 24.536c0.817 0 1.48-0.667 1.48-1.488v-8.022c0-0.932-0.892-1.662-1.811-1.451-2.504 0.563-4.185 2.759-4.185 5.462 0 2.704 1.682 4.899 4.186 5.463 0.109 0.024 0.22 0.036 0.33 0.036zM1.005 19.036c0-2.225 1.369-4.027 3.407-4.487 0.036-0.008 0.071-0.012 0.108-0.012 0.266 0 0.48 0.219 0.48 0.488v8.022c0 0.307-0.295 0.538-0.59 0.477-2.038-0.46-3.405-2.262-3.405-4.488zM31.995 19.036c0-2.704-1.68-4.899-4.184-5.462-0.921-0.214-1.811 0.519-1.811 1.451v8.022c0 0.821 0.663 1.488 1.48 1.488 0.11 0 0.22-0.012 0.33-0.037 2.504-0.562 4.185-2.758 4.185-5.462zM27.59 23.524c-0.295 0.062-0.59-0.17-0.59-0.477v-8.022c0-0.27 0.214-0.488 0.48-0.488 0.037 0 0.073 0.004 0.11 0.013 2.037 0.458 3.407 2.261 3.407 4.486s-1.369 4.028-3.407 4.488zM29.495 26.925c-0.276 0-0.5 0.261-0.5 0.538 0 0.869-0.69 1.538-1.641 1.538h-4.433c-0.261-1-1.247-1.962-2.427-1.962-1.379 0-2.5 1.102-2.5 2.481s1.121 2.528 2.5 2.528c1.233 0 2.254-1.047 2.457-2.047h4.402c1.506 0 2.641-1.113 2.641-2.538 0.001-0.277-0.223-0.538-0.499-0.538zM20.495 31c-0.827 0-1.5-0.673-1.5-1.5s0.673-1.5 1.5-1.5 1.5 0.673 1.5 1.5-0.673 1.5-1.5 1.5zM16 0c-6.065 0-11 4.71-11 10.5 0 0.276 0.224 0.5 0.5 0.5s0.5-0.224 0.5-0.5c0-5.238 4.486-9.5 10-9.5s10 4.262 10 9.5c0 0.276 0.224 0.5 0.5 0.5s0.5-0.224 0.5-0.5c0-5.79-4.935-10.5-11-10.5z"></path>
</svg>
