<!-- Generated by IcoMoon.io -->
<svg version="1.1" xmlns="http://www.w3.org/2000/svg" width="35" height="32" viewBox="0 0 35 32">
<title>header</title>
<path d="M33.5 0h-32c-0.827 0-1.5 0.673-1.5 1.5v10c0 0.827 0.673 1.5 1.5 1.5h32c0.827 0 1.5-0.673 1.5-1.5v-10c0-0.827-0.673-1.5-1.5-1.5zM34 11.5c0 0.275-0.224 0.5-0.5 0.5h-32c-0.276 0-0.5-0.225-0.5-0.5v-10c0-0.275 0.224-0.5 0.5-0.5h32c0.276 0 0.5 0.225 0.5 0.5v10zM4.5 14.5c-0.276 0-0.5 0.224-0.5 0.5v15.5c0 0.827 0.673 1.5 1.5 1.5h24c0.827 0 1.5-0.673 1.5-1.5v-14.5c0-0.276-0.224-0.5-0.5-0.5s-0.5 0.224-0.5 0.5v14.5c0 0.275-0.224 0.5-0.5 0.5h-24c-0.276 0-0.5-0.225-0.5-0.5v-15.5c0-0.276-0.224-0.5-0.5-0.5zM9.5 14.5c-0.276 0-0.5 0.224-0.5 0.5v5.5c0 0.827 0.673 1.5 1.5 1.5h14c0.827 0 1.5-0.673 1.5-1.5v-4.5c0-0.276-0.224-0.5-0.5-0.5s-0.5 0.224-0.5 0.5v4.5c0 0.275-0.224 0.5-0.5 0.5h-14c-0.276 0-0.5-0.225-0.5-0.5v-5.5c0-0.276-0.224-0.5-0.5-0.5z"></path>
</svg>
