<!-- Generated by IcoMoon.io -->
<svg version="1.1" xmlns="http://www.w3.org/2000/svg" width="37" height="32" viewBox="0 0 37 32">
<title>heart-beat</title>
<path d="M28.098 21.031l-9.771 9.763-9.425-9.354c-0.196-0.196-0.513-0.194-0.707 0.002s-0.193 0.513 0.002 0.707l9.778 9.706c0.097 0.096 0.225 0.145 0.352 0.145 0.128 0 0.256-0.049 0.354-0.146l10.124-10.115c0.195-0.195 0.195-0.512 0-0.707s-0.512-0.196-0.707-0.001zM20.253 2.862c-0.046 0.048-0.938 0.987-1.676 2.54-0.469-0.945-1.084-1.799-1.838-2.548-3.823-3.799-10.045-3.798-13.866 0-1.852 1.842-2.873 4.292-2.873 6.896s1.021 5.053 2.873 6.894c0.196 0.194 0.513 0.194 0.707-0.002s0.193-0.513-0.002-0.707c-1.662-1.653-2.578-3.849-2.578-6.185 0-2.337 0.916-4.534 2.578-6.187 3.433-3.412 9.021-3.412 12.456 0 0.938 0.933 1.638 1.942 2.079 3.206 0.070 0.2 0.259 0.231 0.472 0.231 0.001 0 0.001 0 0.002 0 0.214 0 0.403-0.033 0.472-0.235 0.682-2.008 1.903-3.25 1.907-3.254 3.433-3.412 9.021-3.386 12.456 0.026 1.662 1.653 2.578 3.863 2.578 6.2 0 2.336-0.916 4.539-2.578 6.191-0.195 0.194-0.196 0.514-0.002 0.71 0.098 0.099 0.226 0.149 0.354 0.149s0.255-0.048 0.353-0.145c1.852-1.84 2.873-4.288 2.873-6.892s-1.021-5.054-2.873-6.895c-3.823-3.801-10.045-3.798-13.874 0.007zM35.5 18h-11.069c-0.173 0-0.333 0.089-0.425 0.235l-1.99 3.194-2.534-8.739c-0.059-0.199-0.233-0.343-0.441-0.358-0.207-0.021-0.403 0.098-0.491 0.285l-3.272 6.962-1.942-3.947c-0.073-0.149-0.216-0.252-0.38-0.274-0.169-0.018-0.331 0.038-0.44 0.161l-2.226 2.481h-8.79c-0.276 0-0.5 0.224-0.5 0.5s0.224 0.5 0.5 0.5h9.014c0.143 0 0.277-0.090 0.372-0.195l1.878-2.126 2.074 4.158c0.084 0.171 0.258 0.163 0.448 0.163 0.001 0 0.003 0 0.005 0 0.191 0 0.366 0.003 0.447-0.171l3.151-6.587 2.478 8.542c0.056 0.189 0.217 0.328 0.412 0.355 0.022 0.003 0.046 0.005 0.068 0.005 0.171 0 0.332-0.088 0.425-0.235l2.436-3.909h10.792c0.276 0 0.5-0.224 0.5-0.5s-0.224-0.5-0.5-0.5z"></path>
</svg>
