<!-- Generated by IcoMoon.io -->
<svg version="1.1" xmlns="http://www.w3.org/2000/svg" width="36" height="32" viewBox="0 0 36 32">
<title>highlighter</title>
<path d="M34.892 6.616l-5.299-5.466c-1.331-1.372-3.406-1.543-4.95-0.391l-13.46 11.041c-0.213 0.175-0.244 0.49-0.069 0.704s0.489 0.244 0.704 0.070l13.441-11.027c1.119-0.833 2.64-0.708 3.615 0.3l5.299 5.465c0.987 1.018 1.109 2.605 0.313 3.744l-10.691 13.128c-0.175 0.214-0.143 0.529 0.072 0.704 0.093 0.075 0.204 0.112 0.316 0.112 0.145 0 0.289-0.063 0.388-0.184l10.713-13.157c1.092-1.561 0.927-3.681-0.392-5.043zM0.041 31.699c0.079 0.183 0.26 0.301 0.459 0.301h9.027c0.139 0 0.271-0.057 0.365-0.158l2.809-3.002c0.094 0.049 0.189 0.096 0.291 0.126l5.701 1.66c0.146 0.042 0.298 0.064 0.45 0.064 0.43 0 0.834-0.167 1.138-0.472l2.154-2.155c0.304-0.304 0.472-0.708 0.472-1.138s-0.168-0.834-0.472-1.138l-11.623-11.625c-0.607-0.607-1.668-0.607-2.275 0l-2.157 2.157c-0.414 0.414-0.57 1.020-0.409 1.583l1.544 5.37-7.38 7.886c-0.136 0.146-0.173 0.358-0.094 0.541zM7.087 17.026l2.157-2.157c0.23-0.23 0.631-0.23 0.861 0l11.624 11.625c0.115 0.115 0.179 0.269 0.179 0.431s-0.063 0.316-0.179 0.431l-2.154 2.156c-0.155 0.156-0.388 0.217-0.602 0.154l-5.702-1.661c-0.097-0.028-0.186-0.081-0.254-0.149-1.569-1.592-4.101-4.188-4.479-4.645l-1.606-5.585c-0.061-0.213-0.002-0.443 0.155-0.6zM8.053 24.161c0.496 0.549 1.572 1.674 3.888 4.028l-2.63 2.811h-7.659l6.401-6.839z"></path>
</svg>
