<!-- Generated by IcoMoon.io -->
<svg version="1.1" xmlns="http://www.w3.org/2000/svg" width="34" height="32" viewBox="0 0 34 32">
<title>home</title>
<path d="M5.24 18.179l2.974-2.486c0.212-0.177 0.24-0.493 0.063-0.705s-0.495-0.24-0.704-0.063l-2.975 2.487c-0.92 0.769-2.229 0.722-2.979-0.106-0.443-0.489-0.661-1.129-0.614-1.803 0.046-0.655 0.348-1.261 0.829-1.664l15.172-12.687 15.077 12.609c0.9 0.752 1.181 2.066 0.652 3.056-0.395 0.741-1.099 1.183-1.882 1.183-0.482 0-0.938-0.169-1.321-0.488l-3.015-2.521c-0.209-0.177-0.524-0.149-0.704 0.062-0.177 0.212-0.148 0.527 0.063 0.704l3.015 2.522c0.564 0.472 1.242 0.721 1.962 0.721 1.159 0 2.192-0.64 2.766-1.713 0.746-1.398 0.361-3.244-0.895-4.294l-15.398-12.877c-0.186-0.155-0.455-0.155-0.641 0l-15.491 12.956c-0.689 0.577-1.122 1.438-1.186 2.362-0.065 0.934 0.252 1.861 0.869 2.543 1.113 1.227 3.029 1.317 4.363 0.202zM5.5 20.5c-0.276 0-0.5 0.224-0.5 0.5v9.5c0 0.827 0.673 1.5 1.5 1.5h21c0.827 0 1.5-0.673 1.5-1.5v-9.5c0-0.276-0.224-0.5-0.5-0.5s-0.5 0.224-0.5 0.5v9.5c0 0.276-0.225 0.5-0.5 0.5h-21c-0.275 0-0.5-0.224-0.5-0.5v-9.5c0-0.276-0.224-0.5-0.5-0.5zM20.5 25c0.827 0 1.5-0.673 1.5-1.5v-6c0-0.827-0.673-1.5-1.5-1.5h-6c-0.827 0-1.5 0.673-1.5 1.5v6c0 0.827 0.673 1.5 1.5 1.5h6zM14 23.5v-6c0-0.276 0.225-0.5 0.5-0.5h6c0.275 0 0.5 0.224 0.5 0.5v6c0 0.276-0.225 0.5-0.5 0.5h-6c-0.275 0-0.5-0.224-0.5-0.5z"></path>
</svg>
