<!-- Generated by IcoMoon.io -->
<svg version="1.1" xmlns="http://www.w3.org/2000/svg" width="32" height="32" viewBox="0 0 32 32">
<title>hotdog</title>
<path d="M25.516 0c-1.739 0-3.369 0.673-4.59 1.895l-0.533 0.533c-1.126-0.961-2.539-1.489-4.035-1.489-1.664 0-3.229 0.648-4.406 1.825l-9.39 9.391c-1.177 1.177-1.825 2.741-1.825 4.405 0 1.496 0.527 2.909 1.488 4.035l-0.33 0.33c-2.531 2.531-2.531 6.65 0 9.181 1.221 1.221 2.851 1.894 4.589 1.894 1.739 0 3.369-0.673 4.59-1.895l0.331-0.331c1.159 0.987 2.596 1.486 4.035 1.486 1.595 0 3.191-0.607 4.406-1.821l9.39-9.391c1.177-1.177 1.825-2.742 1.825-4.406 0-1.496-0.528-2.909-1.489-4.034l0.533-0.533c2.531-2.531 2.531-6.65 0-9.181-1.221-1.221-2.851-1.894-4.589-1.894zM1.736 16.56c0-1.397 0.544-2.711 1.532-3.698l9.39-9.391c0.988-0.988 2.302-1.532 3.699-1.532 1.228 0 2.377 0.441 3.311 1.213l-16.719 16.718c-0.772-0.934-1.213-2.083-1.213-3.31zM30.062 15.643c0 1.397-0.544 2.711-1.532 3.699l-9.39 9.391c-1.919 1.918-4.956 2.008-7.009 0.317l16.718-16.717c0.771 0.933 1.213 2.082 1.213 3.31zM29.399 10.25l-0.868 0.75c0 0 0.469 0 0.469 0s0 0.238 0 0.239l-18.397 18.16c-1.032 1.033-2.529 1.601-4.001 1.601-1.471 0-2.91-0.568-3.942-1.602-2.141-2.141-2.17-5.625-0.029-7.767l0.649-0.664c0.001-0.001-0.005-0.001-0.005-0.002s-0.003-0.002-0.002-0.003l18.361-18.36c1.033-1.034 2.411-1.602 3.883-1.602s2.85 0.509 3.883 1.542c2.14 2.141 2.14 5.566-0.001 7.708zM24.38 7.161l-2.086 0.45c-1.198 0.259-1.806 1.263-1.625 2.687l0.083 0.652c0.052 0.408 0.042 0.966-0.296 1.304s-0.897 0.348-1.304 0.296c-1.14-0.144-1.792 0.236-2.137 0.581s-0.725 0.995-0.581 2.136c0.052 0.408 0.042 0.966-0.296 1.304-0.338 0.339-0.896 0.347-1.303 0.296-1.14-0.145-1.792 0.236-2.137 0.581s-0.725 0.995-0.581 2.136c0.052 0.408 0.042 0.966-0.296 1.304-0.338 0.339-0.896 0.347-1.303 0.296l-0.652-0.084c-1.425-0.176-2.427 0.428-2.687 1.625l-0.449 2.086c-0.058 0.271 0.114 0.536 0.383 0.595 0.036 0.007 0.071 0.011 0.106 0.011 0.23 0 0.438-0.16 0.488-0.395l0.449-2.086c0.182-0.84 0.961-0.924 1.583-0.844l0.653 0.083c1.136 0.142 1.792-0.236 2.137-0.581s0.725-0.995 0.581-2.136c-0.052-0.408-0.042-0.966 0.296-1.304 0.338-0.339 0.897-0.348 1.303-0.296 1.136 0.142 1.791-0.236 2.137-0.581 0.345-0.345 0.725-0.995 0.581-2.136-0.052-0.408-0.042-0.966 0.296-1.304s0.896-0.347 1.303-0.296c1.14 0.143 1.792-0.236 2.137-0.581s0.725-0.995 0.581-2.137l-0.083-0.653c-0.079-0.621 0.003-1.401 0.844-1.582l2.086-0.449c0.27-0.059 0.441-0.324 0.383-0.595-0.058-0.269-0.321-0.437-0.594-0.383z"></path>
</svg>
