<!-- Generated by IcoMoon.io -->
<svg version="1.1" xmlns="http://www.w3.org/2000/svg" width="19" height="32" viewBox="0 0 19 32">
<title>ice-cream</title>
<path d="M-0.247 10.322c0.006 0.919 0.366 1.796 0.828 2.605 0.383 0.672 1.233 1.073 2.065 1.073h13.722c0.82 0 1.538-0.396 1.92-1.062 0.479-0.836 0.712-1.696 0.712-2.628 0-2.521-1.709-4.665-4.12-5.249-0.178-2.821-2.531-5.061-5.398-5.061-2.847 0-5.188 2.208-5.392 5.056-0.083 0.020-0.158 0.057-0.239 0.081-0.069 0.021-0.136 0.046-0.204 0.069-0.267 0.092-0.523 0.201-0.768 0.331-0.029 0.015-0.058 0.031-0.087 0.047-0.746 0.411-1.374 0.986-1.847 1.679-0.016 0.024-0.032 0.049-0.048 0.073-0.148 0.225-0.278 0.459-0.391 0.705-0.037 0.081-0.075 0.161-0.108 0.244-0.049 0.121-0.096 0.243-0.136 0.369-0.065 0.2-0.118 0.406-0.159 0.615-0.016 0.082-0.026 0.165-0.038 0.248-0.035 0.238-0.308 0.48-0.311 0.727 0 0.013-0.253 0.026-0.253 0.039 0 0.004 0 0.008 0 0.012s0 0.010 0 0.015c-0.001 0.004 0.251 0.008 0.252 0.012zM9.482 1c2.431 0 4.408 1.976 4.407 4.448-0.012 0.253 0.168 0.475 0.418 0.516 2.14 0.349 3.693 2.177 3.693 4.346 0 0.753-0.189 1.45-0.58 2.132-0.204 0.355-0.588 0.558-1.053 0.558h-13.721c-0.475 0-0.865-0.207-1.071-0.569-0.378-0.662-0.57-1.379-0.573-2.131 0.001-0.299 0.031-0.59 0.088-0.872 0.001-0.008 0.004-0.014 0.005-0.022 0.058-0.278 0.142-0.547 0.25-0.804 0.003-0.006 0.006-0.012 0.009-0.019 0.673-1.573 2.236-2.678 4.054-2.678 2.432 0 4.409 1.976 4.409 4.403 0 0.276 0.224 0.5 0.5 0.5s0.5-0.224 0.5-0.5c0-2.979-2.427-5.403-5.409-5.403-0.097 0-0.191 0.010-0.286 0.015 0.242-2.198 2.093-3.92 4.36-3.92zM17.676 14.767c-0.251-0.104-0.547 0.011-0.655 0.267l-6.487 15.374c-0.153 0.37-0.484 0.592-0.888 0.592-0.319 0-0.728-0.161-0.914-0.613l-6.125-14.852c-0.104-0.256-0.396-0.378-0.652-0.271-0.256 0.104-0.377 0.397-0.271 0.652l6.124 14.851c0.312 0.76 1.017 1.233 1.838 1.233 0.811 0 1.505-0.465 1.811-1.209l6.485-15.369c0.108-0.254-0.011-0.548-0.266-0.655z"></path>
</svg>
