<!-- Generated by IcoMoon.io -->
<svg version="1.1" xmlns="http://www.w3.org/2000/svg" width="40" height="32" viewBox="0 0 40 32">
<title>image</title>
<path d="M10.459 15.294c2.757 0 5-2.243 5-5s-2.243-5-5-5-5 2.243-5 5 2.243 5 5 5zM10.459 6.294c2.206 0 4 1.794 4 4s-1.794 4-4 4-4-1.794-4-4 1.794-4 4-4zM40 30.5v-29c0-0.827-0.673-1.5-1.5-1.5h-37c-0.827 0-1.5 0.673-1.5 1.5v29c0 0.827 0.673 1.5 1.5 1.5h37c0.827 0 1.5-0.673 1.5-1.5zM1 30.5v-29c0-0.276 0.224-0.5 0.5-0.5h37c0.276 0 0.5 0.224 0.5 0.5v29c0 0.276-0.224 0.5-0.5 0.5h-37c-0.276 0-0.5-0.224-0.5-0.5zM27.73 11.086c-0.536-0.532-1.406-0.53-1.938 0.003l-11.146 11.146c-0.143 0.145-0.371 0.147-0.519 0.008l-2.583-2.429c-0.544-0.51-1.382-0.498-1.912 0.030l-6.986 6.99c-0.195 0.195-0.195 0.512 0 0.707 0.098 0.098 0.226 0.147 0.354 0.147s0.256-0.049 0.354-0.146l6.986-6.989c0.144-0.143 0.372-0.146 0.52-0.008l2.583 2.428c0.544 0.513 1.383 0.499 1.911-0.029l11.145-11.146c0.145-0.146 0.38-0.146 0.526-0.001l9.622 9.566c0.196 0.196 0.513 0.194 0.707-0.002s0.194-0.512-0.002-0.707l-9.622-9.568z"></path>
</svg>
