<!-- Generated by IcoMoon.io -->
<svg version="1.1" xmlns="http://www.w3.org/2000/svg" width="32" height="32" viewBox="0 0 32 32">
<title>jar</title>
<path d="M0.384 30.272c0.606 1.082 1.715 1.728 2.966 1.728h25.3c1.298 0 2.502-0.709 3.143-1.85 0.622-1.109 0.604-2.408-0.046-3.473l-8.522-14.106c-0.802-1.325-1.225-2.845-1.225-4.395v-5.176c0-0.276-0.224-0.5-0.5-0.5s-0.5 0.224-0.5 0.5v5.176c0 1.732 0.474 3.431 1.369 4.913l3.419 5.66c-1.772-0.531-5.42-1.175-10.163 0.409-6.129 2.048-9.029 0.102-9.078 0.068-0.074-0.053-0.157-0.075-0.242-0.083l3.273-5.292c0.931-1.503 1.422-3.231 1.422-4.997v-5.854c0-0.276-0.224-0.5-0.5-0.5s-0.5 0.224-0.5 0.5v5.854c0 1.581-0.439 3.126-1.271 4.471l-8.257 13.349c-0.678 1.108-0.711 2.487-0.088 3.598zM1.324 27.198l4.513-7.298c0.033 0.051 0.073 0.098 0.125 0.136 0.087 0.063 1.52 1.066 4.446 1.066 1.464 0 3.303-0.251 5.533-0.997 6.229-2.081 10.545-0.045 10.588-0.025 0.024 0.012 0.050 0.012 0.075 0.020l4.287 7.096c0.46 0.754 0.471 1.675 0.029 2.464-0.469 0.84-1.318 1.34-2.27 1.34h-25.3c-0.884 0-1.667-0.455-2.093-1.216-0.454-0.809-0.428-1.777 0.067-2.586zM23.5 0.5c0-0.276-0.224-0.5-0.5-0.5h-14c-0.276 0-0.5 0.224-0.5 0.5s0.224 0.5 0.5 0.5h14c0.276 0 0.5-0.224 0.5-0.5zM11.888 16.046c0 1.103 0.897 2 2 2s2-0.897 2-2-0.897-2-2-2-2 0.897-2 2zM14.888 16.046c0 0.551-0.449 1-1 1s-1-0.449-1-1 0.449-1 1-1 1 0.449 1 1zM16.194 8.989c0 0.827 0.673 1.5 1.5 1.5s1.5-0.673 1.5-1.5-0.673-1.5-1.5-1.5-1.5 0.673-1.5 1.5zM18.194 8.989c0 0.276-0.224 0.5-0.5 0.5s-0.5-0.224-0.5-0.5 0.224-0.5 0.5-0.5 0.5 0.224 0.5 0.5zM18.529 29.593c1.654 0 3-1.346 3-3s-1.346-3-3-3-3 1.346-3 3 1.346 3 3 3zM18.529 24.593c1.103 0 2 0.897 2 2s-0.897 2-2 2-2-0.897-2-2 0.897-2 2-2z"></path>
</svg>
