<!-- Generated by IcoMoon.io -->
<svg version="1.1" xmlns="http://www.w3.org/2000/svg" width="45" height="32" viewBox="0 0 45 32">
<title>laptop</title>
<path d="M4.5 32h36c2.481 0 4.5-2.019 4.5-4.5 0-0.276-0.224-0.5-0.5-0.5h-3.5v-24.5c0-1.378-1.122-2.5-2.5-2.5h-32c-1.378 0-2.5 1.122-2.5 2.5v24.5h-3.5c-0.276 0-0.5 0.224-0.5 0.5 0 2.481 2.019 4.5 4.5 4.5zM5 2.5c0-0.827 0.673-1.5 1.5-1.5h32c0.827 0 1.5 0.673 1.5 1.5v24.5h-35v-24.5zM43.964 28c-0.243 1.694-1.704 3-3.464 3h-36c-1.76 0-3.221-1.306-3.464-3h42.928zM35.5 4h-26c-0.827 0-1.5 0.673-1.5 1.5v17c0 0.827 0.673 1.5 1.5 1.5h26c0.827 0 1.5-0.673 1.5-1.5v-17c0-0.827-0.673-1.5-1.5-1.5zM36 22.5c0 0.276-0.224 0.5-0.5 0.5h-26c-0.276 0-0.5-0.224-0.5-0.5v-17c0-0.276 0.224-0.5 0.5-0.5h26c0.276 0 0.5 0.224 0.5 0.5v17z"></path>
</svg>
