<!-- Generated by IcoMoon.io -->
<svg version="1.1" xmlns="http://www.w3.org/2000/svg" width="33" height="32" viewBox="0 0 33 32">
<title>layer</title>
<path d="M33.004 22.403c0-0.557-0.304-1.067-0.794-1.331-0.242-0.131-0.546-0.040-0.678 0.203-0.131 0.243-0.040 0.546 0.203 0.678 0.243 0.13 0.269 0.358 0.269 0.45s-0.025 0.32-0.269 0.451l-14.541 7.832c-0.438 0.237-0.962 0.24-1.402 0.011l-14.52-7.54c-0.245-0.127-0.275-0.355-0.276-0.447-0.002-0.092 0.021-0.32 0.263-0.455 0.24-0.135 0.327-0.439 0.192-0.68-0.135-0.243-0.441-0.327-0.681-0.193-0.486 0.271-0.783 0.786-0.774 1.343 0.008 0.557 0.321 1.063 0.815 1.32l14.52 7.54c0.361 0.188 0.757 0.282 1.151 0.282 0.408 0 0.815-0.1 1.187-0.299l14.541-7.833c0.49-0.265 0.795-0.775 0.794-1.332zM0.811 17.637l14.521 7.54c0.361 0.188 0.757 0.282 1.151 0.282 0.408 0 0.815-0.1 1.187-0.299l14.541-7.833c0.49-0.264 0.795-0.774 0.794-1.332 0-0.557-0.304-1.067-0.794-1.331-0.242-0.131-0.546-0.040-0.678 0.203-0.131 0.243-0.040 0.546 0.203 0.678 0.243 0.13 0.269 0.358 0.269 0.45s-0.025 0.32-0.269 0.451l-14.541 7.832c-0.438 0.237-0.962 0.239-1.402 0.011l-14.521-7.54c-0.245-0.127-0.274-0.354-0.276-0.446-0.001-0.092 0.021-0.32 0.263-0.455 0.24-0.135 0.327-0.439 0.192-0.68s-0.44-0.327-0.681-0.193c-0.486 0.271-0.783 0.787-0.774 1.344 0.008 0.556 0.32 1.061 0.815 1.318zM0.812 11.229l14.52 7.54c0.354 0.184 0.752 0.281 1.151 0.281 0 0 0 0 0.001 0 0.412 0 0.822-0.104 1.186-0.299l14.541-7.833c0.49-0.264 0.795-0.774 0.794-1.332 0-0.557-0.304-1.067-0.794-1.331l-14.509-7.812c-0.735-0.397-1.672-0.391-2.403 0.018l-14.528 8.105c-0.487 0.272-0.784 0.787-0.775 1.344 0.008 0.557 0.321 1.063 0.816 1.319zM1.258 9.439l14.528-8.106c0.223-0.125 0.476-0.19 0.73-0.19 0.248 0 0.493 0.062 0.711 0.18l14.508 7.814c0.243 0.13 0.269 0.358 0.269 0.45s-0.025 0.32-0.269 0.451l-14.541 7.832c-0.218 0.118-0.464 0.18-0.711 0.18-0.001 0-0.001 0-0.001 0-0.239 0-0.478-0.058-0.69-0.169l-14.52-7.54c-0.245-0.127-0.275-0.355-0.276-0.447-0.002-0.091 0.022-0.32 0.262-0.455z"></path>
</svg>
