<!-- Generated by IcoMoon.io -->
<svg version="1.1" xmlns="http://www.w3.org/2000/svg" width="39" height="32" viewBox="0 0 39 32">
<title>lens</title>
<path d="M33.5 32c3.572 0 5.5-8.244 5.5-16s-1.928-16-5.5-16-5.5 8.244-5.5 16 1.928 16 5.5 16zM33.5 1c2.129 0 4.5 6.16 4.5 15s-2.371 15-4.5 15-4.5-6.16-4.5-15 2.371-15 4.5-15zM24.988 32c0.85 0 2.11-0.495 3.292-2.85 0.123-0.247 0.023-0.547-0.223-0.671s-0.548-0.026-0.672 0.223c-0.742 1.482-1.594 2.298-2.397 2.298-2.202 0-4.655-6.16-4.655-15s2.453-15 4.655-15c0.803 0 1.654 0.816 2.397 2.298 0.124 0.248 0.426 0.345 0.672 0.223 0.246-0.124 0.346-0.424 0.223-0.671-1.181-2.355-2.442-2.85-3.292-2.85-3.54 0-5.655 8.135-5.655 16s2.115 16 5.655 16zM15.322 32c0.85 0 2.11-0.495 3.292-2.85 0.123-0.247 0.023-0.547-0.223-0.671s-0.547-0.026-0.672 0.223c-0.742 1.482-1.594 2.298-2.397 2.298-2.202 0-4.655-6.16-4.655-15s2.453-15 4.655-15c0.803 0 1.654 0.816 2.397 2.298 0.125 0.248 0.426 0.345 0.672 0.223 0.246-0.124 0.346-0.424 0.223-0.671-1.181-2.355-2.442-2.85-3.292-2.85-3.54 0-5.655 8.135-5.655 16s2.115 16 5.655 16zM5.655 32c0.85 0 2.11-0.495 3.292-2.85 0.123-0.247 0.023-0.547-0.223-0.671s-0.548-0.026-0.672 0.223c-0.742 1.482-1.594 2.298-2.397 2.298-2.202 0-4.655-6.16-4.655-15s2.453-15 4.655-15c0.803 0 1.655 0.816 2.398 2.298 0.124 0.248 0.426 0.345 0.672 0.223 0.246-0.124 0.345-0.424 0.222-0.671-1.181-2.355-2.442-2.85-3.292-2.85-3.54 0-5.655 8.135-5.655 16s2.115 16 5.655 16z"></path>
</svg>
