<!-- Generated by IcoMoon.io -->
<svg version="1.1" xmlns="http://www.w3.org/2000/svg" width="32" height="32" viewBox="0 0 32 32">
<title>like</title>
<path d="M28.779 13.903l-6.535-1.167c-0.72-0.129-1.24-0.753-1.237-1.483l0.033-7.853c0-0.988-0.37-1.876-1.042-2.5-0.702-0.651-1.668-0.966-2.738-0.889-1.828 0.137-3.26 1.715-3.26 3.592v2.202c0 1.123-0.407 2.206-1.146 3.051l-1.37 1.564c-0.88 1.004-2.15 1.58-3.484 1.58-0.276 0-0.5 0.224-0.5 0.5s0.224 0.5 0.5 0.5c1.623 0 3.167-0.7 4.236-1.922l1.371-1.564c0.898-1.027 1.393-2.344 1.393-3.709v-2.202c0-1.356 1.025-2.496 2.334-2.593 0.786-0.062 1.488 0.163 1.984 0.623 0.472 0.438 0.722 1.050 0.722 1.766l-0.033 7.851c-0.005 1.217 0.861 2.257 2.061 2.472l6.535 1.167c0.72 0.13 1.361 0.558 1.759 1.173 0.393 0.607 0.514 1.321 0.343 2.013l-2.701 10.954c-0.29 1.159-1.319 1.971-2.504 1.971h-7.872l-7.168-1.981c-0.043-0.013-0.088-0.019-0.133-0.019h-2.327c-0.276 0-0.5 0.224-0.5 0.5s0.224 0.5 0.5 0.5h2.259l7.168 1.981c0.044 0.013 0.089 0.019 0.134 0.019h7.939c1.646 0 3.074-1.123 3.474-2.732l2.701-10.954c0.239-0.962 0.070-1.955-0.474-2.796-0.548-0.847-1.43-1.436-2.422-1.615zM2.5 11c-1.378 0-2.5 1.121-2.5 2.5v16c0 1.379 1.122 2.5 2.5 2.5s2.5-1.121 2.5-2.5v-16c0-1.379-1.122-2.5-2.5-2.5zM4 29.5c0 0.827-0.673 1.5-1.5 1.5s-1.5-0.673-1.5-1.5v-16c0-0.827 0.673-1.5 1.5-1.5s1.5 0.673 1.5 1.5v16z"></path>
</svg>
