<!-- Generated by IcoMoon.io -->
<svg version="1.1" xmlns="http://www.w3.org/2000/svg" width="32" height="32" viewBox="0 0 32 32">
<title>linkedin</title>
<path d="M12.5 12h-3c-0.276 0-0.5 0.224-0.5 0.5v11c0 0.276 0.224 0.5 0.5 0.5h3c0.276 0 0.5-0.224 0.5-0.5v-11c0-0.276-0.224-0.5-0.5-0.5zM12 23h-2v-10h2v10zM11 7c-1.103 0-2 0.897-2 2s0.897 2 2 2 2-0.897 2-2-0.897-2-2-2zM11 10c-0.552 0-1-0.449-1-1s0.448-1 1-1 1 0.449 1 1-0.448 1-1 1zM19.515 11.986c-0.534 0-1.097 0.119-1.554 0.32-0.075-0.18-0.254-0.306-0.461-0.306h-3c-0.276 0-0.5 0.224-0.5 0.5v11c0 0.276 0.224 0.5 0.5 0.5h3c0.276 0 0.5-0.224 0.5-0.5l-0.002-6.661c0-0.003-0.012-0.336 0.2-0.565 0.167-0.182 0.452-0.274 0.846-0.274 0.652 0 0.956 0.279 0.956 0.879v6.621c0 0.276 0.224 0.5 0.5 0.5h3c0.276 0 0.5-0.224 0.5-0.5v-6.842c0-3.448-2.416-4.672-4.485-4.672zM23 23h-2v-6.121c0-1.159-0.749-1.879-1.956-1.879-0.684 0-1.216 0.2-1.581 0.595-0.507 0.549-0.468 1.246-0.463 1.284v6.121h-2v-10h2v0.355c0 0.276 0.224 0.5 0.5 0.5 0.245 0 0.448-0.176 0.491-0.408 0.134-0.146 0.722-0.46 1.523-0.46 0.817 0 3.485 0.265 3.485 3.671v6.342zM16-0.035c-8.842 0-16.034 7.194-16.034 16.035s7.192 16.035 16.034 16.035 16.034-7.194 16.034-16.035-7.192-16.035-16.034-16.035zM16 30.965c-8.252 0-14.966-6.713-14.966-14.965s6.714-14.965 14.966-14.965 14.966 6.713 14.966 14.965-6.714 14.965-14.966 14.965z"></path>
</svg>
