<!-- Generated by IcoMoon.io -->
<svg version="1.1" xmlns="http://www.w3.org/2000/svg" width="32" height="32" viewBox="0 0 32 32">
<title>link</title>
<path d="M32 6.1c0-1.629-0.635-3.161-1.787-4.313s-2.684-1.787-4.313-1.787c-1.63 0-3.161 0.634-4.313 1.787l-5.008 5.008c-1.152 1.152-1.787 2.684-1.787 4.313 0 1.461 0.514 2.842 1.451 3.943l-1.192 1.192c-1.101-0.937-2.481-1.451-3.942-1.451-1.63 0-3.161 0.634-4.313 1.787l-5.008 5.008c-1.153 1.152-1.788 2.684-1.788 4.313s0.635 3.161 1.787 4.313 2.684 1.787 4.313 1.787c1.63 0 3.161-0.634 4.313-1.787l5.008-5.008c1.152-1.152 1.787-2.684 1.787-4.313 0-1.461-0.514-2.842-1.451-3.943l1.192-1.192c1.101 0.937 2.481 1.451 3.943 1.451 1.629 0 3.16-0.634 4.312-1.787l5.008-5.008c1.153-1.152 1.788-2.684 1.788-4.313zM16.208 20.892c0 1.362-0.53 2.643-1.494 3.606l-5.008 5.008c-0.963 0.964-2.244 1.494-3.606 1.494-1.361 0-2.643-0.53-3.605-1.494-0.965-0.963-1.495-2.244-1.495-3.606s0.53-2.643 1.494-3.606l5.008-5.008c0.963-0.963 2.244-1.494 3.606-1.494 1.192 0 2.309 0.427 3.218 1.175l-2.738 2.738c-0.195 0.195-0.195 0.512 0 0.707 0.098 0.098 0.226 0.146 0.354 0.146s0.256-0.049 0.354-0.146l2.738-2.738c0.747 0.909 1.174 2.026 1.174 3.218zM24.498 14.714c-0.963 0.963-2.244 1.494-3.605 1.494-1.193 0-2.31-0.427-3.219-1.175l2.356-2.356c0.195-0.195 0.195-0.512 0-0.707s-0.512-0.195-0.707 0l-2.356 2.356c-0.748-0.909-1.175-2.026-1.175-3.218 0-1.362 0.53-2.643 1.494-3.606l5.008-5.008c0.963-0.964 2.244-1.494 3.606-1.494 1.361 0 2.643 0.53 3.605 1.494 0.965 0.963 1.495 2.244 1.495 3.606s-0.53 2.643-1.494 3.606l-5.008 5.008z"></path>
</svg>
