<!-- Generated by IcoMoon.io -->
<svg version="1.1" xmlns="http://www.w3.org/2000/svg" width="26" height="32" viewBox="0 0 26 32">
<title>linux</title>
<path d="M11.092 6.703c0.827 0 1.5-0.673 1.5-1.5s-0.673-1.5-1.5-1.5-1.5 0.673-1.5 1.5 0.673 1.5 1.5 1.5zM11.092 4.703c0.276 0 0.5 0.224 0.5 0.5s-0.224 0.5-0.5 0.5-0.5-0.224-0.5-0.5 0.224-0.5 0.5-0.5zM14.928 6.703c0.827 0 1.5-0.673 1.5-1.5s-0.673-1.5-1.5-1.5-1.5 0.673-1.5 1.5 0.673 1.5 1.5 1.5zM14.928 4.703c0.276 0 0.5 0.224 0.5 0.5s-0.224 0.5-0.5 0.5-0.5-0.224-0.5-0.5 0.224-0.5 0.5-0.5zM12.542 12.933c0.084 0.056 0.181 0.084 0.277 0.084s0.193-0.028 0.277-0.084l3-2c0.139-0.093 0.223-0.249 0.223-0.416s-0.083-0.323-0.223-0.416l-3-2c-0.168-0.112-0.387-0.112-0.555 0l-3 2c-0.138 0.093-0.221 0.249-0.221 0.416s0.083 0.323 0.223 0.416l2.999 2zM12.82 9.118l2.099 1.399-2.099 1.399-2.099-1.399 2.099-1.399zM0.478 27.255c0 0.604 0.235 1.173 0.663 1.601 0.102 0.102 0.214 0.193 0.344 0.279 0.025 0.020 0.052 0.038 0.081 0.052l4.419 2.265c0.544 0.359 1.176 0.548 1.827 0.548 0.888 0 1.723-0.346 2.351-0.974 0.116-0.116 0.216-0.243 0.312-0.372 0.643-0.124 2.965-0.504 5.046-0.006 0.097 0.131 0.199 0.26 0.317 0.378 0.627 0.628 1.462 0.974 2.35 0.974 0 0 0 0 0 0 0.65 0 1.282-0.189 1.78-0.521l4.505-2.317c0.147-0.094 0.273-0.194 0.386-0.307 0.428-0.428 0.663-0.996 0.663-1.601s-0.235-1.173-0.663-1.601c-0.010-0.010-0.020-0.019-0.029-0.029 0.431-1.017 0.214-2.199-0.59-3.002-0.655-0.656-1.627-0.917-2.517-0.733 0.154-0.841 0.247-1.697 0.247-2.558 0-3.482-1.285-6.782-3.457-8.931 0.779-1.107 1.188-2.389 1.188-3.736 0.001-3.674-3.087-6.664-6.881-6.664s-6.882 2.99-6.882 6.666c0 1.384 0.449 2.739 1.274 3.863-2.123 2.17-3.332 5.35-3.332 8.805 0 0.845 0.079 1.695 0.23 2.529-0.842-0.12-1.735 0.146-2.35 0.761-0.804 0.803-1.021 1.985-0.59 3.002-0.010 0.010-0.020 0.019-0.029 0.029-0.428 0.427-0.663 0.995-0.663 1.6zM23.533 23.331c0.581 0.58 0.679 1.471 0.239 2.166-0.071 0.112-0.094 0.248-0.065 0.377s0.109 0.242 0.221 0.312c0.089 0.056 0.162 0.114 0.224 0.175 0.239 0.239 0.37 0.556 0.37 0.894s-0.131 0.655-0.37 0.894c-0.060 0.060-0.132 0.117-0.175 0.148l-4.512 2.32c-0.38 0.251-0.821 0.383-1.276 0.383v0c-0.621 0-1.205-0.242-1.644-0.681-0.776-0.776-0.901-2.004-0.271-2.967l2.272-4.426c0.054-0.084 0.109-0.154 0.169-0.214 0.478-0.477 1.309-0.479 1.788 0.001 0.060 0.060 0.117 0.132 0.172 0.222 0.071 0.112 0.183 0.192 0.313 0.222s0.266 0.006 0.378-0.064c0.672-0.425 1.604-0.326 2.167 0.238zM8.224 10.938c0.195-0.182 0.213-0.485 0.041-0.689-0.856-1.009-1.327-2.281-1.327-3.583 0-3.124 2.639-5.666 5.882-5.666s5.882 2.542 5.882 5.666c0 1.269-0.431 2.471-1.246 3.478-0.167 0.207-0.144 0.508 0.055 0.687 2.166 1.946 3.459 5.125 3.459 8.503 0 0.785-0.085 1.565-0.223 2.333-0.862-0.486-2.024-0.378-2.738 0.338-0.102 0.102-0.194 0.214-0.28 0.344-0.020 0.025-0.038 0.052-0.052 0.081l-2.265 4.42c-0.532 0.808-0.665 1.785-0.431 2.676-1.526-0.231-3.029-0.107-3.963 0.025 0.244-0.893 0.118-1.869-0.401-2.655l-2.319-4.506c-0.094-0.148-0.246-0.274-0.358-0.386-0.759-0.759-1.94-0.841-2.94-0.252 0-0.001 0-0.002 0-0.003 0-0.796-0.171-1.609-0.171-2.416 0-3.304 1.301-6.443 3.395-8.395zM1.848 26.361c0.062-0.061 0.134-0.119 0.224-0.175 0.112-0.071 0.192-0.183 0.221-0.312s0.006-0.265-0.065-0.377c-0.439-0.695-0.341-1.586 0.239-2.166 0.564-0.563 1.496-0.663 2.167-0.239 0.112 0.071 0.248 0.095 0.378 0.064 0.13-0.029 0.242-0.109 0.313-0.222 0.056-0.089 0.112-0.162 0.173-0.223 0.479-0.478 1.31-0.478 1.788 0.001 0.060 0.059 0.116 0.13 0.147 0.174l2.32 4.512c0.604 0.917 0.478 2.145-0.298 2.921-0.76 0.761-1.957 0.928-2.967 0.271l-4.426-2.272c-0.084-0.054-0.155-0.109-0.215-0.169-0.239-0.239-0.37-0.556-0.37-0.894s0.132-0.655 0.371-0.894z"></path>
</svg>
