<!-- Generated by IcoMoon.io -->
<svg version="1.1" xmlns="http://www.w3.org/2000/svg" width="38" height="32" viewBox="0 0 38 32">
<title>list</title>
<path d="M36.5 0h-27c-0.276 0-0.5 0.224-0.5 0.5s0.224 0.5 0.5 0.5h27c0.275 0 0.5 0.225 0.5 0.5v5c0 0.275-0.225 0.5-0.5 0.5h-27c-0.276 0-0.5 0.224-0.5 0.5s0.224 0.5 0.5 0.5h27c0.827 0 1.5-0.673 1.5-1.5v-5c0-0.827-0.673-1.5-1.5-1.5zM4 8c2.206 0 4-1.794 4-4s-1.794-4-4-4-4 1.794-4 4 1.794 4 4 4zM4 1c1.654 0 3 1.346 3 3s-1.346 3-3 3-3-1.346-3-3 1.346-3 3-3zM36.5 12h-27c-0.276 0-0.5 0.224-0.5 0.5s0.224 0.5 0.5 0.5h27c0.275 0 0.5 0.225 0.5 0.5v5c0 0.275-0.225 0.5-0.5 0.5h-27c-0.276 0-0.5 0.224-0.5 0.5s0.224 0.5 0.5 0.5h27c0.827 0 1.5-0.673 1.5-1.5v-5c0-0.827-0.673-1.5-1.5-1.5zM4 20c2.206 0 4-1.794 4-4s-1.794-4-4-4-4 1.794-4 4 1.794 4 4 4zM4 13c1.654 0 3 1.346 3 3s-1.346 3-3 3-3-1.346-3-3 1.346-3 3-3zM36.5 24h-27c-0.276 0-0.5 0.224-0.5 0.5s0.224 0.5 0.5 0.5h27c0.275 0 0.5 0.225 0.5 0.5v5c0 0.275-0.225 0.5-0.5 0.5h-27c-0.276 0-0.5 0.224-0.5 0.5s0.224 0.5 0.5 0.5h27c0.827 0 1.5-0.673 1.5-1.5v-5c0-0.827-0.673-1.5-1.5-1.5zM4 32c2.206 0 4-1.794 4-4s-1.794-4-4-4-4 1.794-4 4 1.794 4 4 4zM4 25c1.654 0 3 1.346 3 3s-1.346 3-3 3-3-1.346-3-3 1.346-3 3-3z"></path>
</svg>
