<!-- Generated by IcoMoon.io -->
<svg version="1.1" xmlns="http://www.w3.org/2000/svg" width="29" height="32" viewBox="0 0 29 32">
<title>location-pointer</title>
<path d="M1.045 27.731l13.303 4.245c0.049 0.016 0.101 0.024 0.152 0.024 0.053 0 0.106-0.009 0.157-0.025l13.312-4.407c0.626-0.208 1.031-0.765 1.031-1.423s-0.404-1.218-1.030-1.425l-7.733-2.56c-0.264-0.090-0.545 0.056-0.632 0.317-0.087 0.263 0.055 0.545 0.317 0.632l7.733 2.56c0.32 0.106 0.345 0.391 0.345 0.476 0 0.084-0.025 0.368-0.344 0.474l-13.159 4.356-13.147-4.197c-0.321-0.102-0.349-0.386-0.35-0.471-0.001-0.084 0.021-0.368 0.339-0.478l8.028-2.753c0.261-0.089 0.4-0.374 0.311-0.635s-0.375-0.401-0.635-0.311l-8.028 2.753c-0.623 0.214-1.022 0.776-1.015 1.434s0.417 1.213 1.045 1.414zM15.679 0.063c-5.869-0.658-10.862 3.919-10.862 9.642 0 2.24 0.729 4.23 2.355 6.442l6.31 9.121c0.249 0.359 0.658 0.574 1.096 0.574v0c0.441 0 0.853-0.218 1.098-0.577l4.173-5.993 2.344-3.568c1.655-2.094 2.361-4.718 1.988-7.388-0.6-4.294-4.176-7.765-8.502-8.253zM21.382 15.12l-2.362 3.592-4.168 5.986c-0.089 0.13-0.222 0.145-0.274 0.145s-0.185-0.014-0.274-0.143l-6.318-9.133c-1.5-2.041-2.169-3.85-2.169-5.862 0-4.8 3.917-8.705 8.731-8.705 0.335 0 0.675 0.019 1.018 0.058 3.88 0.437 7.086 3.548 7.624 7.397 0.335 2.397-0.298 4.751-1.808 6.665zM14.497 4.705c-2.757 0-5 2.243-5 5s2.243 5 5 5 5-2.243 5-5-2.244-5-5-5zM14.497 13.705c-2.206 0-4-1.794-4-4s1.794-4 4-4 4 1.794 4 4-1.795 4-4 4z"></path>
</svg>
