<!-- Generated by IcoMoon.io -->
<svg version="1.1" xmlns="http://www.w3.org/2000/svg" width="28" height="32" viewBox="0 0 28 32">
<title>lock</title>
<path d="M14.055 0h-0.188c-3.722 0-6.867 3.115-6.867 6.802v5.198h-5.5c-0.827 0-1.5 0.673-1.5 1.5v17c0 0.827 0.673 1.5 1.5 1.5h25c0.827 0 1.5-0.673 1.5-1.5v-17c0-0.827-0.673-1.5-1.5-1.5h-5.5v-5.198c0-3.687-3.181-6.802-6.945-6.802zM26.5 13c0.275 0 0.5 0.224 0.5 0.5v17c0 0.276-0.225 0.5-0.5 0.5h-25c-0.275 0-0.5-0.224-0.5-0.5v-17c0-0.276 0.225-0.5 0.5-0.5h25zM8 12v-5.198c0-3.145 2.687-5.802 5.867-5.802h0.188c3.222 0 5.945 2.657 5.945 5.802v5.198h-12zM13 25.996c0 0.001 0 0.003 0 0.004v3c0 0.276 0.224 0.5 0.5 0.5s0.5-0.224 0.5-0.5v-2.964c2.062-0.158 3.697-1.867 3.697-3.969 0-2.206-1.794-4-4-4s-4 1.794-4 4c0 1.967 1.303 3.597 3.303 3.929zM13.697 19.066c1.654 0 3 1.346 3 3s-1.346 3-3 3-3-1.346-3-3 1.346-3 3-3z"></path>
</svg>
