<!-- Generated by IcoMoon.io -->
<svg version="1.1" xmlns="http://www.w3.org/2000/svg" width="37" height="32" viewBox="0 0 37 32">
<title>love</title>
<path d="M33.582 2.483c-1.776-1.56-4.077-2.418-6.481-2.418-2.767 0-5.49 1.134-7.472 3.112l-0.781 0.778c-0.188 0.188-0.508 0.188-0.697 0l-1.027-1.024c-1.894-1.89-4.413-2.931-7.092-2.931-2.617 0-5.094 1-6.973 2.814-1.87 1.805-2.911 4.287-2.933 6.988-0.023 2.824 1.095 5.573 3.067 7.541l14.252 14.22c0.283 0.282 0.658 0.437 1.055 0.437s0.772-0.155 1.055-0.437l14.506-14.473c1.952-1.948 3.021-4.645 2.934-7.399-0.089-2.794-1.302-5.353-3.413-7.208zM33.355 16.382l-14.506 14.473c-0.188 0.188-0.51 0.188-0.697 0l-14.253-14.22c-1.784-1.779-2.794-4.267-2.773-6.824 0.020-2.431 0.953-4.66 2.627-6.277 1.692-1.634 3.922-2.534 6.279-2.534 2.413 0 4.681 0.938 6.387 2.64l1.026 1.024c0.565 0.564 1.545 0.564 2.11 0l0.78-0.778c1.796-1.792 4.263-2.82 6.766-2.82 2.161 0 4.228 0.77 5.821 2.169 1.902 1.67 2.993 3.974 3.073 6.488s-0.857 4.88-2.64 6.659z"></path>
</svg>
