<!-- Generated by IcoMoon.io -->
<svg version="1.1" xmlns="http://www.w3.org/2000/svg" width="32" height="32" viewBox="0 0 32 32">
<title>madel</title>
<path d="M13.789 23.766c-0.195 0.195-0.195 0.512 0 0.707s0.512 0.195 0.707 0l0.504-0.504v2.638c0 0.276 0.224 0.5 0.5 0.5s0.5-0.224 0.5-0.5v-3.846c0-0.202-0.122-0.385-0.309-0.462s-0.401-0.034-0.545 0.108l-1.357 1.359zM28.444 0.271c-0.086-0.167-0.257-0.271-0.444-0.271h-7.836c-0.162 0-0.313 0.078-0.407 0.21l-3.757 5.287-3.757-5.287c-0.094-0.132-0.245-0.21-0.407-0.21h-7.836c-0.188 0-0.358 0.104-0.444 0.271s-0.072 0.366 0.037 0.519l7.812 10.996c0.093 0.132 0.244 0.214 0.407 0.214h8.377c0.162 0 0.313-0.082 0.407-0.214l7.812-10.994c0.108-0.153 0.122-0.355 0.036-0.521zM12.353 11h-0.283l-7.101-10h6.609l7.101 10h-6.326zM19.931 11h-0.025l-3.292-4.636 3.808-5.364h6.609l-7.1 10zM22.796 15c0.276 0 0.5-0.224 0.5-0.5s-0.224-0.5-0.5-0.5h-14.989c-0.276 0-0.5 0.224-0.5 0.5s0.223 0.5 0.5 0.5h7.193v2.015c-3.992 0.16-7.193 3.451-7.193 7.485 0 4.136 3.362 7.5 7.495 7.5s7.495-3.364 7.495-7.5c0-3.9-2.991-7.111-6.797-7.465v-2.035h6.796zM21.797 24.5c0 3.584-2.914 6.5-6.495 6.5s-6.495-2.916-6.495-6.5 2.914-6.5 6.495-6.5 6.495 2.916 6.495 6.5z"></path>
</svg>
