<!-- Generated by IcoMoon.io -->
<svg version="1.1" xmlns="http://www.w3.org/2000/svg" width="24" height="32" viewBox="0 0 24 32">
<title>magnet</title>
<path d="M12 32c6.617 0 12-5.703 12-12.712v-8.288c0-0.276-0.224-0.5-0.5-0.5s-0.5 0.224-0.5 0.5v8.288c0 6.458-4.935 11.712-11 11.712s-11-5.254-11-11.712v-8.288c0-0.276-0.224-0.5-0.5-0.5s-0.5 0.224-0.5 0.5v8.288c0 7.009 5.383 12.712 12 12.712zM7 11c0-0.276-0.224-0.5-0.5-0.5s-0.5 0.224-0.5 0.5v8.288c0 3.704 2.636 6.606 6 6.606s6-2.902 6-6.606v-8.288c0-0.276-0.224-0.5-0.5-0.5s-0.5 0.224-0.5 0.5v8.288c0 3.144-2.196 5.606-5 5.606s-5-2.462-5-5.606v-8.288zM18.5 8h4c0.827 0 1.5-0.643 1.5-1.433v-5.067c0-0.827-0.673-1.5-1.5-1.5h-4c-0.827 0-1.5 0.673-1.5 1.5v5.067c0 0.79 0.673 1.433 1.5 1.433zM18 1.5c0-0.276 0.225-0.5 0.5-0.5h4c0.275 0 0.5 0.224 0.5 0.5v5.067c0 0.239-0.225 0.433-0.5 0.433h-4c-0.275 0-0.5-0.194-0.5-0.433v-5.067zM1.5 8h4c0.827 0 1.5-0.643 1.5-1.433v-5.067c0-0.827-0.673-1.5-1.5-1.5h-4c-0.827 0-1.5 0.673-1.5 1.5v5.067c0 0.79 0.673 1.433 1.5 1.433zM1 1.5c0-0.276 0.225-0.5 0.5-0.5h4c0.275 0 0.5 0.224 0.5 0.5v5.067c0 0.239-0.225 0.433-0.5 0.433h-4c-0.275 0-0.5-0.194-0.5-0.433v-5.067z"></path>
</svg>
