<!-- Generated by IcoMoon.io -->
<svg version="1.1" xmlns="http://www.w3.org/2000/svg" width="32" height="32" viewBox="0 0 32 32">
<title>map-pointer</title>
<path d="M0.943 28.222l9.371 3.742c0.061 0.025 0.124 0.036 0.186 0.036s0.126-0.012 0.186-0.036l9.823-3.923 9.48 3.441c0.166 0.061 0.339 0.090 0.512 0.090 0.304 0 0.604-0.092 0.86-0.271 0.4-0.28 0.64-0.74 0.64-1.229v-20.878c0-0.629-0.397-1.195-0.988-1.41l-5.997-2.177c-0.262-0.091-0.547 0.040-0.641 0.3-0.095 0.259 0.039 0.546 0.299 0.641l5.997 2.177c0.196 0.071 0.329 0.26 0.329 0.469v20.879c0 0.165-0.078 0.314-0.213 0.41-0.138 0.095-0.303 0.117-0.457 0.060l-9.33-3.387v-8.156c0-0.276-0.224-0.5-0.5-0.5s-0.5 0.224-0.5 0.5v8.167l-9 3.594v-10.761c0-0.276-0.224-0.5-0.5-0.5s-0.5 0.224-0.5 0.5v10.762l-8.686-3.468c-0.191-0.077-0.314-0.259-0.314-0.465v-20.853c0-0.168 0.080-0.319 0.22-0.414s0.309-0.113 0.466-0.050l3.24 1.294c0.255 0.104 0.547-0.023 0.649-0.279s-0.022-0.547-0.278-0.65l-3.24-1.294c-0.464-0.186-0.986-0.127-1.399 0.151-0.412 0.28-0.658 0.744-0.658 1.242v20.853c0 0.617 0.37 1.164 0.943 1.393zM14.057 22.467c0.23 0.334 0.611 0.533 1.017 0.533 0.409 0 0.791-0.202 1.019-0.536l3.696-5.308 2.074-3.156c1.475-1.868 2.104-4.207 1.771-6.586-0.534-3.829-3.722-6.923-7.58-7.358-5.233-0.58-9.681 3.494-9.681 8.595 0 1.997 0.648 3.77 2.096 5.738l5.588 8.078zM15.047 1c0.295 0 0.594 0.017 0.896 0.051 3.41 0.384 6.229 3.119 6.701 6.502 0.294 2.106-0.263 4.176-1.592 5.862l-2.092 3.18-3.691 5.301c-0.123 0.18-0.268 0.179-0.391 0.001l-5.596-8.089c-1.321-1.797-1.91-3.388-1.91-5.158 0.001-4.218 3.443-7.65 7.675-7.65zM15.002 11.651c1.654 0 3-1.346 3-3s-1.346-3-3-3-3 1.346-3 3 1.346 3 3 3zM15.002 6.651c1.103 0 2 0.897 2 2s-0.897 2-2 2-2-0.897-2-2 0.897-2 2-2z"></path>
</svg>
