<!-- Generated by IcoMoon.io -->
<svg version="1.1" xmlns="http://www.w3.org/2000/svg" width="32" height="32" viewBox="0 0 32 32">
<title>mbri-devices</title>
<path d="M4.267 11.733c0 0.589-0.478 1.067-1.067 1.067v0c-0.589 0-1.067-0.478-1.067-1.067v0c0-0.589 0.478-1.067 1.067-1.067v0c0.589 0 1.067 0.478 1.067 1.067v0zM8 23.467c-0.715 0-1.318 0.482-1.521 1.134l-2.833 0.473c-0.258 0.043-0.446 0.267-0.446 0.527v3.2c0 0.261 0.188 0.484 0.446 0.527l2.833 0.473c0.203 0.651 0.806 1.134 1.521 1.134h4.267c0.715 0 1.318-0.482 1.521-1.134l2.833-0.473c0.258-0.043 0.446-0.267 0.446-0.527v-3.2c0-0.261-0.188-0.484-0.446-0.527l-2.833-0.474c-0.203-0.65-0.806-1.133-1.521-1.133zM8 24.533h4.267c0.305 0 0.533 0.228 0.533 0.533v4.267c0 0.305-0.228 0.533-0.533 0.533h-4.267c-0.305 0-0.533-0.228-0.533-0.533v-4.267c0-0.305 0.228-0.533 0.533-0.533zM6.4 25.698v3.004l-2.133-0.354v-2.295zM13.867 25.698l2.133 0.354v2.295l-2.133 0.354zM5.867 3.2c-0.294 0-0.533 0.239-0.533 0.533v16c0 0.294 0.239 0.533 0.533 0.533h11.733c0.715 0 0.698-1.067 0-1.067h-11.2v-14.933h19.2v4.8c0 0.704 1.067 0.715 1.067 0v-5.333c0-0.294-0.239-0.533-0.533-0.533zM1.6 1.067c-0.877 0-1.6 0.723-1.6 1.6v18.133c0 0.877 0.723 1.6 1.6 1.6h16c0.715 0 0.704-1.067 0-1.067h-16c-0.305 0-0.533-0.228-0.533-0.533v-18.133c0-0.305 0.228-0.533 0.533-0.533h25.6c0.305 0 0.533 0.228 0.533 0.533v6.4c0 0.722 1.067 0.704 1.067 0v-6.4c0-0.877-0.723-1.6-1.6-1.6zM24 12.8h3.2c0.295 0 0.533 0.238 0.533 0.533s-0.238 0.533-0.533 0.533h-3.2c-0.295 0-0.533-0.238-0.533-0.533s0.238-0.533 0.533-0.533zM20.8 10.667c-0.877 0-1.6 0.723-1.6 1.6v17.067c0 0.877 0.723 1.6 1.6 1.6h9.6c0.877 0 1.6-0.723 1.6-1.6v-17.067c0-0.877-0.723-1.6-1.6-1.6zM20.8 11.733h9.6c0.305 0 0.533 0.228 0.533 0.533v17.067c0 0.305-0.228 0.533-0.533 0.533h-9.6c-0.305 0-0.533-0.228-0.533-0.533v-17.067c0-0.305 0.228-0.533 0.533-0.533zM25.6 26.667c0.591 0 1.067 0.476 1.067 1.067s-0.476 1.067-1.067 1.067-1.067-0.476-1.067-1.067 0.476-1.067 1.067-1.067z"></path>
</svg>
