<!-- Generated by IcoMoon.io -->
<svg version="1.1" xmlns="http://www.w3.org/2000/svg" width="32" height="32" viewBox="0 0 32 32">
<title>mbri-timer</title>
<path d="M10.133 11.733c-0.293 0-0.533 0.24-0.533 0.533v3.2c0 0.71 1.067 0.707 1.067 0v-1.918l4.407 4.411c0.501 0.523 1.274-0.251 0.752-0.752l-4.413-4.407 1.909-0.003c0.715 0 0.732-1.063 0-1.063zM15.467 13.867c-0.715 0-0.701 1.067 0 1.067 1.479 0 2.667 1.187 2.667 2.667s-1.187 2.667-2.667 2.667-2.667-1.187-2.667-2.667c0-0.709-1.067-0.697-1.067 0 0 2.055 1.678 3.733 3.733 3.733s3.733-1.678 3.733-3.733-1.678-3.733-3.733-3.733zM13.333 0c-0.295 0-0.533 0.238-0.533 0.533s0.238 0.533 0.533 0.533h1.6v3.733c0 0.295 0.238 0.533 0.533 0.533s0.533-0.238 0.533-0.533v-0.512c5.982 0.24 11.101 4.434 12.459 10.31 1.397 6.050-1.562 12.258-7.142 14.982-5.579 2.725-12.294 1.241-16.206-3.584-3.91-4.821-3.974-11.701-0.155-16.597 0.437-0.561-0.405-1.216-0.843-0.656-4.121 5.284-4.051 12.72 0.171 17.925 4.219 5.205 11.482 6.811 17.504 3.872 6.020-2.941 9.22-9.653 7.712-16.181-1.471-6.356-7.027-10.898-13.5-11.138v-2.155h1.6c0.295 0 0.533-0.238 0.533-0.533s-0.238-0.533-0.533-0.533h-4.267z"></path>
</svg>
