<!-- Generated by IcoMoon.io -->
<svg version="1.1" xmlns="http://www.w3.org/2000/svg" width="32" height="32" viewBox="0 0 32 32">
<title>mbri-home</title>
<path d="M16 2.133c-0.070 0.004-0.167 0.021-0.231 0.053l-15.47 7.46c-0.643 0.309-0.135 1.248 0.463 0.962l15.238-7.35 15.238 7.351c0.622 0.299 1.094-0.659 0.463-0.962l-15.47-7.461c-0.081-0.039-0.142-0.058-0.231-0.053zM2.667 11.733c-0.294 0.004-0.538 0.239-0.533 0.533v16c0 0.877 0.723 1.6 1.6 1.6h7.467c0.294 0 0.533-0.239 0.533-0.533v-7.997c0-2.371 1.893-4.265 4.267-4.265s4.267 1.893 4.267 4.265v7.997c0 0.294 0.239 0.533 0.533 0.533h7.467c0.877 0 1.6-0.723 1.6-1.6v-15.993c0-0.695-1.067-0.721-1.067 0v15.993c0 0.305-0.228 0.533-0.533 0.533h-6.933v-7.463c0-2.944-2.389-5.33-5.333-5.33s-5.333 2.386-5.333 5.33v7.463h-6.933c-0.305 0-0.533-0.228-0.533-0.533v-16c0.004-0.301-0.233-0.539-0.533-0.533z"></path>
</svg>
