<!-- Generated by IcoMoon.io -->
<svg version="1.1" xmlns="http://www.w3.org/2000/svg" width="32" height="32" viewBox="0 0 32 32">
<title>mbri-github</title>
<path d="M0 16c0 7.502 5.158 13.808 12.133 15.534 0.32 0.082 0.677-0.203 0.667-0.533v-7.001c0-0.355 0.21-0.695 0.601-0.9 0.395-0.197 0.299-0.913-0.133-0.999-2.027-0.405-3.755-1.219-4.967-2.301-1.211-1.083-1.9-2.398-1.9-3.799 0-0.976 0.349-1.913 0.966-2.767 0.064-0.087 0.098-0.192 0.1-0.299v-5.102l4.235 2.267c0.13 0.070 0.291 0.082 0.432 0.032 1.187-0.352 2.478-0.531 3.867-0.531s2.679 0.179 3.867 0.533c0.141 0.050 0.302 0.037 0.433-0.032l4.234-2.269v5.099c0.002 0.107 0.037 0.213 0.1 0.301 0.619 0.853 0.966 1.792 0.966 2.767 0 1.403-0.688 2.718-1.899 3.801-1.214 1.082-2.944 1.894-4.967 2.3-0.433 0.085-0.528 0.8-0.133 0.998 0.389 0.205 0.599 0.544 0.599 0.9v7.001c-0.011 0.331 0.348 0.615 0.667 0.533 6.976-1.724 12.133-8.031 12.133-15.532 0-8.83-7.17-16-16-16s-16 7.17-16 16zM16 1.067c8.254 0 14.933 6.679 14.933 14.933 0 6.752-4.523 12.317-10.667 14.165v-6.165c0-0.427-0.164-0.806-0.4-1.134 1.774-0.487 3.394-1.253 4.565-2.3 1.388-1.234 2.235-2.817 2.235-4.566 0-1.155-0.42-2.212-1.067-3.168v-5.899c0.003-0.373-0.476-0.654-0.8-0.466l-4.9 2.631c-1.216-0.331-2.517-0.565-3.9-0.565-1.381 0-2.685 0.233-3.9 0.565l-4.9-2.63c-0.324-0.188-0.803 0.093-0.8 0.466v5.899c-0.646 0.956-1.067 2.013-1.067 3.168 0 1.749 0.848 3.331 2.234 4.565 1.173 1.047 2.795 1.813 4.565 2.302-0.235 0.326-0.399 0.704-0.399 1.133v1.801c-1.163 0.433-1.927 0.526-2.4 0.433-0.51-0.1-0.785-0.363-1.099-0.8-0.631-0.878-1.251-2.496-3.301-3.025-0.698-0.187-0.933 0.853-0.267 1.035 1.609 0.416 1.925 1.545 2.699 2.624 0.388 0.539 0.945 1.038 1.769 1.2 0.686 0.134 1.517 0.032 2.599-0.334v3.232c-6.142-1.849-10.667-7.414-10.667-14.166 0-8.254 6.679-14.933 14.933-14.933z"></path>
</svg>
