<!-- Generated by IcoMoon.io -->
<svg version="1.1" xmlns="http://www.w3.org/2000/svg" width="32" height="32" viewBox="0 0 32 32">
<title>mbri-update</title>
<path d="M31.068 12.971l-3.887 3.883-3.853-3.883c-0.48-0.495-1.28 0.25-0.757 0.757l4.231 4.259c0.198 0.198 0.56 0.198 0.757 0l4.267-4.26c0.523-0.521-0.254-1.259-0.757-0.757zM16.565 4.279c-4.594-0.199-9.067 2.308-11.165 6.699-0.307 0.64 0.629 1.067 0.933 0.469 2.549-5.333 8.971-7.605 14.333-5.067 3.241 1.533 5.483 4.567 6 8.098 0.101 0.739 1.175 0.491 1.067-0.166-0.57-3.885-3.072-7.216-6.635-8.901-1.469-0.695-3.001-1.067-4.533-1.133zM0.933 19.033l3.887-3.883 3.853 3.883c0.48 0.495 1.28-0.25 0.757-0.757l-4.233-4.259c-0.198-0.198-0.56-0.198-0.757 0l-4.267 4.259c-0.523 0.521 0.254 1.259 0.757 0.757zM15.435 27.723c4.594 0.199 9.067-2.309 11.166-6.699 0.306-0.64-0.631-1.067-0.933-0.469-2.549 5.333-8.971 7.605-14.334 5.067-3.241-1.532-5.483-4.565-6-8.098-0.101-0.739-1.175-0.489-1.067 0.166 0.57 3.885 3.072 7.215 6.635 8.9 1.469 0.697 3.001 1.067 4.533 1.134z"></path>
</svg>
