<!-- Generated by IcoMoon.io -->
<svg version="1.1" xmlns="http://www.w3.org/2000/svg" width="32" height="32" viewBox="0 0 32 32">
<title>mbri-refresh</title>
<path d="M15.483 0c-0.478 0-0.719 0.576-0.375 0.909l3.876 3.883-3.876 3.883c-0.523 0.501 0.251 1.275 0.752 0.752l4.252-4.259c0.208-0.208 0.208-0.544 0-0.752l-4.252-4.26c-0.1-0.101-0.233-0.155-0.377-0.155zM16 4.267c-7.652 0-13.867 6.214-13.867 13.867s6.214 13.867 13.867 13.867 13.867-6.214 13.867-13.867v-0.533c0-0.697-1.067-0.713-1.067 0v0.533c0 7.075-5.725 12.8-12.8 12.8s-12.8-5.725-12.8-12.8 5.725-12.8 12.8-12.8h0.533c0.693 0 0.718-1.067 0-1.067z"></path>
</svg>
