<!-- Generated by IcoMoon.io -->
<svg version="1.1" xmlns="http://www.w3.org/2000/svg" width="32" height="32" viewBox="0 0 32 32">
<title>mbri-add-submenu</title>
<path d="M2.133 3.2c-1.173 0-2.133 0.96-2.133 2.133v2.133c0 1.173 0.96 2.133 2.133 2.133h22.4c1.173 0 2.133-0.96 2.133-2.133v-2.133c0-1.173-0.96-2.133-2.133-2.133zM2.133 4.267h22.4c0.601 0 1.067 0.466 1.067 1.067v2.133c0 0.601-0.466 1.067-1.067 1.067h-22.4c-0.601 0-1.067-0.466-1.067-1.067v-2.133c0-0.601 0.466-1.067 1.067-1.067zM2.133 22.933v2.133c0 0.279 0.254 0.533 0.533 0.533h7.267l-1.234 1.2c-0.512 0.53 0.299 1.234 0.734 0.768l2.133-2.133c0.206-0.199 0.206-0.57 0-0.768l-2.133-2.133c-0.423-0.423-1.216 0.286-0.734 0.768l1.233 1.232h-6.733v-1.6c0-0.709-1.067-0.687-1.067 0zM17.067 22.4c-1.173 0-2.133 0.96-2.133 2.133v2.133c0 1.173 0.96 2.133 2.133 2.133h12.8c1.173 0 2.133-0.96 2.133-2.133v-2.133c0-1.173-0.96-2.133-2.133-2.133zM17.067 23.467h12.8c0.601 0 1.067 0.466 1.067 1.067v2.133c0 0.601-0.466 1.067-1.067 1.067h-12.8c-0.601 0-1.067-0.466-1.067-1.067v-2.133c0-0.601 0.466-1.067 1.067-1.067zM2.133 12.8c-1.173 0-2.133 0.96-2.133 2.133v2.133c0 1.173 0.96 2.133 2.133 2.133h22.4c1.173 0 2.133-0.96 2.133-2.133v-2.133c0-1.173-0.96-2.133-2.133-2.133zM2.133 13.867h22.4c0.601 0 1.067 0.466 1.067 1.067v2.133c0 0.601-0.466 1.067-1.067 1.067h-22.4c-0.601 0-1.067-0.466-1.067-1.067v-2.133c0-0.601 0.466-1.067 1.067-1.067z"></path>
</svg>
