<!-- Generated by IcoMoon.io -->
<svg version="1.1" xmlns="http://www.w3.org/2000/svg" width="32" height="32" viewBox="0 0 32 32">
<title>mbri-file</title>
<path d="M9.067 20.267h13.867c0.295 0 0.533 0.238 0.533 0.533s-0.238 0.533-0.533 0.533h-13.867c-0.295 0-0.533-0.238-0.533-0.533s0.238-0.533 0.533-0.533zM9.067 16h13.867c0.295 0 0.533 0.238 0.533 0.533s-0.238 0.533-0.533 0.533h-13.867c-0.295 0-0.533-0.238-0.533-0.533s0.238-0.533 0.533-0.533zM9.067 11.733h13.867c0.295 0 0.533 0.238 0.533 0.533s-0.238 0.533-0.533 0.533h-13.867c-0.295 0-0.533-0.238-0.533-0.533s0.238-0.533 0.533-0.533zM19.733 2.133c-0.294 0.004-0.538 0.239-0.533 0.533v4.267c0 0.877 0.723 1.6 1.6 1.6h4.267c0.709 0 0.704-1.067 0-1.067h-4.267c-0.305 0-0.533-0.228-0.533-0.533v-4.267c0.004-0.301-0.233-0.538-0.533-0.533zM4.8 0c-0.877 0-1.6 0.723-1.6 1.6v28.8c0 0.877 0.723 1.6 1.6 1.6h22.4c0.877 0 1.6-0.723 1.6-1.6v-22.4c0-0.142-0.057-0.277-0.156-0.378l-7.467-7.467c-0.1-0.099-0.235-0.156-0.378-0.156zM4.8 1.067h15.779l7.154 7.154v22.179c0 0.305-0.228 0.533-0.533 0.533h-22.4c-0.305 0-0.533-0.228-0.533-0.533v-28.8c0-0.305 0.228-0.533 0.533-0.533z"></path>
</svg>
