<!-- Generated by IcoMoon.io -->
<svg version="1.1" xmlns="http://www.w3.org/2000/svg" width="32" height="32" viewBox="0 0 32 32">
<title>mbri-like</title>
<path d="M1.6 11.733c-0.877 0-1.6 0.723-1.6 1.6v16c0 0.877 0.723 1.6 1.6 1.6h7.467c0.877 0 1.6-0.723 1.6-1.6v-16c0-0.877-0.723-1.6-1.6-1.6zM1.6 12.8h7.467c0.305 0 0.533 0.228 0.533 0.533v16c0 0.305-0.228 0.533-0.533 0.533h-7.467c-0.305 0-0.533-0.228-0.533-0.533v-16c0-0.305 0.228-0.533 0.533-0.533zM18.667 1.067c-0.386 0-0.768 0.043-1.131 0.203-0.361 0.16-0.685 0.445-0.913 0.832-0.457 0.779-0.623 1.917-0.623 3.765 0 3.364-2.421 5.95-4.029 7.023-0.565 0.363 0.021 1.28 0.591 0.887 1.593-1.060 4.505-4.021 4.505-7.91 0-1.776 0.21-2.773 0.475-3.221 0.133-0.227 0.258-0.327 0.427-0.401 0.165-0.075 0.395-0.111 0.699-0.111 0.509 0 0.798 0.169 1.099 0.817 0.303 0.649 0.501 1.79 0.501 3.45 0 3.175-2.005 6.586-2.005 6.586-0.297 0.346-0.051 0.881 0.405 0.881h10.667c0.619 0 0.987 0.158 1.221 0.4s0.379 0.619 0.379 1.2c0 1.062-0.85 1.705-0.85 1.705-0.291 0.213-0.288 0.651 0.006 0.862 0 0 0.843 0.608 0.843 1.7 0 1.093-0.843 1.7-0.843 1.7-0.323 0.233-0.288 0.723 0.066 0.907 0 0 0.777 0.366 0.777 1.393s-0.777 1.394-0.777 1.394c-0.378 0.195-0.386 0.732-0.015 0.939 0 0 0.791 0.422 0.791 1.401 0 0.491-0.175 0.771-0.459 0.99-0.284 0.218-0.706 0.343-1.141 0.343h-17.067c-0.722 0-0.685 1.067 0 1.067h17.067c0.631 0 1.276-0.169 1.792-0.565 0.516-0.395 0.875-1.049 0.875-1.835 0-0.932-0.412-1.49-0.796-1.862 0.386-0.37 0.796-0.928 0.796-1.871 0-0.988-0.441-1.541-0.835-1.902 0.381-0.405 0.835-1.031 0.835-2.098 0-1.113-0.489-1.746-0.87-2.135 0.38-0.391 0.87-1.027 0.87-2.131 0-0.765-0.206-1.453-0.679-1.941s-1.173-0.725-1.987-0.725h-9.692c0.639-0.903 1.693-3.691 1.693-6.4 0-1.739-0.181-2.997-0.601-3.9s-1.195-1.434-2.066-1.434z"></path>
</svg>
