<!-- Generated by IcoMoon.io -->
<svg version="1.1" xmlns="http://www.w3.org/2000/svg" width="32" height="32" viewBox="0 0 32 32">
<title>mbri-print</title>
<path d="M21.867 11.733h2.133c0.295 0 0.533 0.238 0.533 0.533s-0.238 0.533-0.533 0.533h-2.133c-0.295 0-0.533-0.238-0.533-0.533s0.238-0.533 0.533-0.533zM27.2 11.733h2.133c0.295 0 0.533 0.238 0.533 0.533s-0.238 0.533-0.533 0.533h-2.133c-0.295 0-0.533-0.238-0.533-0.533s0.238-0.533 0.533-0.533zM9.067 24.533h13.867c0.295 0 0.533 0.238 0.533 0.533s-0.238 0.533-0.533 0.533h-13.867c-0.295 0-0.533-0.238-0.533-0.533s0.238-0.533 0.533-0.533zM9.067 21.333h13.867c0.295 0 0.533 0.238 0.533 0.533s-0.238 0.533-0.533 0.533h-13.867c-0.295 0-0.533-0.238-0.533-0.533s0.238-0.533 0.533-0.533zM3.733 18.133h24.533c0.295 0 0.533 0.238 0.533 0.533s-0.238 0.533-0.533 0.533h-24.533c-0.295 0-0.533-0.238-0.533-0.533s0.238-0.533 0.533-0.533zM1.6 9.6c-0.877 0-1.6 0.723-1.6 1.6v11.733c0 0.877 0.723 1.6 1.6 1.6h3.733v4.8c0 0.877 0.723 1.6 1.6 1.6h18.133c0.877 0 1.6-0.723 1.6-1.6v-4.8h3.733c0.877 0 1.6-0.723 1.6-1.6v-11.733c0-0.877-0.723-1.6-1.6-1.6zM1.6 10.667h28.8c0.305 0 0.533 0.228 0.533 0.533v11.733c0 0.305-0.228 0.533-0.533 0.533h-3.733v-2.667c0-0.708-1.067-0.708-1.067 0v3.115c-0.011 0.058-0.011 0.115 0 0.173v5.246c0 0.305-0.228 0.533-0.533 0.533h-18.133c-0.305 0-0.533-0.228-0.533-0.533v-5.248c0.011-0.058 0.011-0.115 0-0.173v-3.113c0.004-0.301-0.233-0.538-0.533-0.533-0.294 0.004-0.538 0.239-0.533 0.533v2.667h-3.733c-0.305 0-0.533-0.228-0.533-0.533v-11.733c0-0.305 0.228-0.533 0.533-0.533zM6.933 1.067c-0.877 0-1.6 0.723-1.6 1.6v4.267c0 0.718 1.067 0.7 1.067 0v-4.267c0-0.305 0.228-0.533 0.533-0.533h18.133c0.305 0 0.533 0.228 0.533 0.533v4.267c0 0.715 1.067 0.691 1.067 0v-4.267c0-0.877-0.723-1.6-1.6-1.6z"></path>
</svg>
