<!-- Generated by IcoMoon.io -->
<svg version="1.1" xmlns="http://www.w3.org/2000/svg" width="32" height="32" viewBox="0 0 32 32">
<title>mbri-tablet</title>
<path d="M5.867 6.4c0.295 0 0.533 0.238 0.533 0.533v18.133c0 0.295-0.238 0.533-0.533 0.533s-0.533-0.238-0.533-0.533v-18.133c0-0.295 0.238-0.533 0.533-0.533zM4.267 16c0 0.589-0.478 1.067-1.067 1.067s-1.067-0.478-1.067-1.067 0.478-1.067 1.067-1.067 1.067 0.478 1.067 1.067zM1.6 4.267c-0.877 0-1.6 0.723-1.6 1.6v20.267c0 0.877 0.723 1.6 1.6 1.6h28.8c0.877 0 1.6-0.723 1.6-1.6v-20.267c0-0.877-0.723-1.6-1.6-1.6zM1.6 5.333h28.8c0.305 0 0.533 0.228 0.533 0.533v20.267c0 0.305-0.228 0.533-0.533 0.533h-28.8c-0.305 0-0.533-0.228-0.533-0.533v-20.267c0-0.305 0.228-0.533 0.533-0.533z"></path>
</svg>
