<!-- Generated by IcoMoon.io -->
<svg version="1.1" xmlns="http://www.w3.org/2000/svg" width="32" height="32" viewBox="0 0 32 32">
<title>mbri-cart-add</title>
<path d="M27.2 3.2c-2.645 0-4.8 2.155-4.8 4.8s2.155 4.8 4.8 4.8 4.8-2.155 4.8-4.8-2.155-4.8-4.8-4.8zM27.2 4.267c2.069 0 3.733 1.664 3.733 3.733s-1.664 3.733-3.733 3.733-3.733-1.664-3.733-3.733 1.664-3.733 3.733-3.733zM27.2 5.333c-0.295 0-0.533 0.238-0.533 0.533v1.6h-1.6c-0.295 0-0.533 0.238-0.533 0.533s0.238 0.533 0.533 0.533h1.6v1.6c0 0.295 0.238 0.533 0.533 0.533s0.533-0.238 0.533-0.533v-1.6h1.6c0.295 0 0.533-0.238 0.533-0.533s-0.238-0.533-0.533-0.533h-1.6v-1.6c0-0.295-0.238-0.533-0.533-0.533zM11.2 17.067h13.867c0.295 0 0.533 0.238 0.533 0.533s-0.238 0.533-0.533 0.533h-13.867c-0.295 0-0.533-0.238-0.533-0.533s0.238-0.533 0.533-0.533zM10.133 12.8h12.8c0.295 0 0.533 0.238 0.533 0.533s-0.238 0.533-0.533 0.533h-12.8c-0.295 0-0.533-0.238-0.533-0.533s0.238-0.533 0.533-0.533zM22.933 23.467c-1.467 0-2.667 1.2-2.667 2.667s1.2 2.667 2.667 2.667 2.667-1.2 2.667-2.667-1.2-2.667-2.667-2.667zM22.933 24.533c0.89 0 1.6 0.71 1.6 1.6s-0.71 1.6-1.6 1.6-1.6-0.71-1.6-1.6 0.71-1.6 1.6-1.6zM12.267 23.467c-1.467 0-2.667 1.2-2.667 2.667s1.2 2.667 2.667 2.667 2.667-1.2 2.667-2.667-1.2-2.667-2.667-2.667zM12.267 24.533c0.89 0 1.6 0.71 1.6 1.6s-0.71 1.6-1.6 1.6-1.6-0.71-1.6-1.6 0.71-1.6 1.6-1.6zM0.542 4.267c-0.715 0-0.722 1.067 0 1.067h3.831c0.079 0.379 0.683 3.259 1.402 6.645 0.382 1.798 0.772 3.633 1.086 5.084 0.313 1.451 0.539 2.482 0.627 2.809 0.141 0.527 0.273 1.125 0.661 1.647 0.386 0.521 1.067 0.881 1.984 0.881h14.925c0.917 0 1.598-0.361 1.986-0.881 0.387-0.523 0.518-1.12 0.661-1.648 0.093-0.354 0.239-1.177 0.437-2.208 0.195-1.035 0.427-2.233 0.64-3.143 0.176-0.654-0.913-0.939-1.037-0.241-0.22 0.943-0.455 2.146-0.653 3.183-0.197 1.038-0.37 1.954-0.418 2.133-0.145 0.54-0.281 1.008-0.487 1.286-0.207 0.279-0.448 0.452-1.129 0.452h-14.926c-0.681 0-0.922-0.173-1.131-0.452-0.206-0.277-0.341-0.747-0.486-1.285-0.053-0.206-0.299-1.309-0.612-2.757-0.313-1.449-0.704-3.281-1.085-5.082-0.764-3.598-1.493-7.066-1.493-7.066-0.051-0.245-0.269-0.422-0.523-0.422zM9.069 8.533c-0.709 0-0.701 1.067 0 1.067h10.658c0.717 0 0.701-1.067 0-1.067z"></path>
</svg>
