<!-- Generated by IcoMoon.io -->
<svg version="1.1" xmlns="http://www.w3.org/2000/svg" width="32" height="32" viewBox="0 0 32 32">
<title>mbri-extension</title>
<path d="M25.131 0.465c-0.619-0.619-1.643-0.619-2.261 0l-6.404 6.404c-0.619 0.619-0.619 1.643 0 2.261l6.404 6.405c0.619 0.619 1.643 0.619 2.261 0l6.405-6.404c0.619-0.619 0.619-1.643 0-2.261l-6.405-6.405zM24.378 1.22l6.403 6.403c0.215 0.215 0.215 0.539 0 0.754l-6.403 6.404c-0.215 0.215-0.539 0.215-0.754 0l-6.404-6.404c-0.215-0.215-0.215-0.539 0-0.754l6.404-6.403c0.215-0.215 0.539-0.215 0.754 0zM17.6 19.2c-0.877 0-1.6 0.723-1.6 1.6v9.6c0 0.877 0.723 1.6 1.6 1.6h9.6c0.877 0 1.6-0.723 1.6-1.6v-9.6c0-0.877-0.723-1.6-1.6-1.6h-9.6zM17.6 20.267h9.6c0.305 0 0.533 0.228 0.533 0.533v9.6c0 0.305-0.228 0.533-0.533 0.533h-9.6c-0.305 0-0.533-0.228-0.533-0.533v-9.6c0-0.305 0.228-0.533 0.533-0.533zM1.6 3.2c-0.877 0-1.6 0.723-1.6 1.6v9.6c0 0.877 0.723 1.6 1.6 1.6h9.6c0.877 0 1.6-0.723 1.6-1.6v-9.6c0-0.877-0.723-1.6-1.6-1.6h-9.6zM1.6 4.267h9.6c0.305 0 0.533 0.228 0.533 0.533v9.6c0 0.305-0.228 0.533-0.533 0.533h-9.6c-0.305 0-0.533-0.228-0.533-0.533v-9.6c0-0.305 0.228-0.533 0.533-0.533zM1.6 19.2c-0.877 0-1.6 0.723-1.6 1.6v9.6c0 0.877 0.723 1.6 1.6 1.6h9.6c0.877 0 1.6-0.723 1.6-1.6v-9.6c0-0.877-0.723-1.6-1.6-1.6h-9.6zM1.6 20.267h9.6c0.305 0 0.533 0.228 0.533 0.533v9.6c0 0.305-0.228 0.533-0.533 0.533h-9.6c-0.305 0-0.533-0.228-0.533-0.533v-9.6c0-0.305 0.228-0.533 0.533-0.533z"></path>
</svg>
