<!-- Generated by IcoMoon.io -->
<svg version="1.1" xmlns="http://www.w3.org/2000/svg" width="32" height="32" viewBox="0 0 32 32">
<title>mbri-touch-swipe</title>
<path d="M22.649 10.724c-0.381 0.081-0.736 0.256-1.035 0.512-0.314 0.272-0.548 0.626-0.678 1.021-0.071 0.221-0.032 0.448-0.037 0.672-0.26-0.141-0.853-0.167-1.222-0.068-0.471 0.11-0.939 0.327-1.298 0.693-0.538 0.544-0.679 1.003-0.64 1.609-0.171-0.077-0.331-0.175-0.523-0.203-0.316-0.049-0.631-0.021-0.928 0.071-0.294 0.093-0.555 0.242-0.781 0.418-0.315 0.245-0.583 0.561-0.763 0.939-0.128 0.267-0.139 0.565-0.16 0.861l-2.391-2.177c-0.305-0.277-0.64-0.58-1.060-0.818-0.422-0.24-0.917-0.403-1.447-0.386-0.551 0.018-1.086 0.233-1.491 0.617-0.405 0.386-0.649 0.91-0.689 1.461-0.043 0.549 0.117 1.074 0.381 1.515 0.262 0.437 0.605 0.768 0.912 1.061l8.542 8.147h-1.869c-0.256 0-0.54 0-0.848 0.057-0.309 0.055-0.619 0.166-0.9 0.354-0.282 0.189-0.516 0.443-0.677 0.747-0.16 0.302-0.241 0.64-0.241 0.976 0 0.338 0.081 0.674 0.242 0.977 0.162 0.303 0.397 0.557 0.678 0.745 0.281 0.189 0.592 0.299 0.899 0.354 0.307 0.057 0.592 0.057 0.847 0.057h8.533c0.732 0 0.688-1.067 0-1.067h-8.533c-0.249 0-0.469-0.005-0.658-0.039-0.188-0.034-0.361-0.098-0.498-0.19-0.137-0.092-0.252-0.219-0.326-0.361s-0.117-0.309-0.117-0.477c0-0.165 0.043-0.335 0.117-0.477s0.19-0.269 0.326-0.361c0.139-0.092 0.309-0.156 0.498-0.19s0.41-0.039 0.658-0.039h3.2c0.48 0 0.717-0.587 0.369-0.917l-9.504-9.067c-0.299-0.288-0.565-0.555-0.734-0.838-0.167-0.279-0.256-0.599-0.233-0.887 0.021-0.286 0.155-0.574 0.358-0.768 0.203-0.192 0.499-0.313 0.789-0.322 0.285-0.009 0.597 0.085 0.887 0.249 0.29 0.164 0.571 0.409 0.87 0.681 1.568 1.422 3.138 2.843 4.704 4.267 0.483 0.439 1.197-0.329 0.742-0.762l-0.54-0.544c-0.224-0.227-0.423-0.434-0.559-0.646-0.133-0.21-0.22-0.444-0.239-0.669-0.021-0.224 0.025-0.462 0.123-0.669 0.099-0.208 0.259-0.4 0.457-0.555 0.141-0.109 0.292-0.192 0.442-0.239 0.147-0.046 0.305-0.060 0.45-0.037 0.143 0.023 0.294 0.082 0.432 0.171 0.139 0.092 0.282 0.228 0.444 0.388l1.433 1.413c0.503 0.48 1.227-0.198 0.747-0.693l-0.528-0.597c-0.261-0.294-0.518-0.538-0.661-0.804-0.144-0.265-0.207-0.565-0.171-0.835 0.032-0.27 0.171-0.541 0.373-0.738 0.205-0.198 0.489-0.343 0.796-0.416 0.41-0.109 0.779 0.087 1.042 0.349l1.6 1.6c0.503 0.482 1.237-0.252 0.755-0.754l-0.533-0.533c-0.222-0.224-0.421-0.429-0.569-0.64-0.147-0.21-0.253-0.437-0.299-0.661-0.045-0.224-0.032-0.462 0.036-0.67 0.066-0.208 0.195-0.403 0.361-0.546 0.157-0.134 0.352-0.231 0.557-0.274 0.203-0.043 0.427-0.036 0.64 0.021 0.211 0.055 0.427 0.164 0.624 0.309 0.199 0.145 0.393 0.336 0.603 0.546l6.345 6.377c0.501 0.523 1.278-0.252 0.754-0.754l-6.34-6.375c-0.213-0.213-0.448-0.445-0.733-0.653-0.285-0.207-0.608-0.381-0.975-0.48-0.367-0.096-0.757-0.115-1.138-0.034zM14.403 12.804c0.295-0.005 0.54-0.24 0.533-0.533v-3.2c0-0.294-0.238-0.533-0.533-0.533h-3.2c-0.69 0-0.719 1.067 0 1.067h1.909l-2.277 2.283c-0.347 0.338-0.107 0.917 0.369 0.917 0.139 0 0.288-0.066 0.384-0.165l2.283-2.29v1.92c-0.004 0.301 0.233 0.539 0.533 0.533zM2.67 16.004c-0.292 0.004-0.537 0.239-0.533 0.533v3.2c0 0.293 0.241 0.533 0.533 0.533h3.2c0.693 0 0.722-1.067 0-1.067h-1.906l2.278-2.283c0.348-0.339 0.119-0.917-0.369-0.917-0.139 0.003-0.286 0.064-0.384 0.163l-2.283 2.289v-1.92c0.005-0.299-0.233-0.538-0.533-0.533zM9.603 26.671c0 0.587-0.476 1.067-1.067 1.067-0.587 0-1.067-0.48-1.067-1.067 0-0.59 0.48-1.067 1.067-1.067 0.591 0 1.067 0.477 1.067 1.067zM6.937 3.204h3.2c0.297 0 0.533 0.237 0.533 0.533 0 0.294-0.237 0.533-0.533 0.533h-3.2c-0.294 0-0.533-0.239-0.533-0.533 0-0.297 0.239-0.533 0.533-0.533zM1.603 1.071c-0.875 0-1.6 0.722-1.6 1.6v25.6c0 0.877 0.725 1.6 1.6 1.6h9.6c0.722 0.011 0.722-1.077 0-1.067h-9.6c-0.303 0-0.533-0.229-0.533-0.533v-25.6c0-0.305 0.23-0.533 0.533-0.533h13.867c0.306 0 0.533 0.228 0.533 0.533v9.6c-0.009 0.72 1.077 0.72 1.067 0v-9.6c0-0.878-0.721-1.6-1.6-1.6z"></path>
</svg>
