<!-- Generated by IcoMoon.io -->
<svg version="1.1" xmlns="http://www.w3.org/2000/svg" width="32" height="32" viewBox="0 0 32 32">
<title>mbri-drag-n-drop</title>
<path d="M5.166 19.334l-3.883-3.887 3.883-3.853c0.495-0.48-0.25-1.28-0.757-0.757l-4.259 4.231c-0.199 0.198-0.199 0.56 0 0.757l4.259 4.267c0.521 0.523 1.259-0.254 0.757-0.757zM25.767 11.599l3.883 3.887-3.883 3.851c-0.495 0.483 0.25 1.282 0.757 0.759l4.26-4.231c0.199-0.198 0.199-0.56 0-0.757l-4.259-4.267c-0.521-0.523-1.259 0.254-0.757 0.757zM19.335 25.767l-3.888 3.883-3.851-3.883c-0.483-0.495-1.282 0.251-0.759 0.757l4.231 4.26c0.198 0.199 0.56 0.199 0.757 0l4.267-4.259c0.523-0.521-0.254-1.259-0.757-0.757zM11.598 5.166l3.887-3.883 3.853 3.883c0.48 0.495 1.28-0.251 0.757-0.757l-4.23-4.259c-0.198-0.199-0.56-0.199-0.757 0l-4.267 4.259c-0.523 0.521 0.254 1.259 0.757 0.757zM14.933 3.733v11.2h-11.2c-0.693 0-0.699 1.067 0 1.067h11.2v11.2c0 0.715 1.067 0.709 1.067 0v-11.2h11.2c0.711 0 0.709-1.067 0-1.067h-11.2v-11.2c0-0.727-1.067-0.681-1.067 0z"></path>
</svg>
