<!-- Generated by IcoMoon.io -->
<svg version="1.1" xmlns="http://www.w3.org/2000/svg" width="32" height="32" viewBox="0 0 32 32">
<title>mbri-change-style</title>
<path d="M4.8 23.467c-1.722 0-2.77 0.943-3.243 1.991-0.477 1.049-0.491 2.185-0.491 2.809 0 0.53-0.122 1.216-0.304 1.775-0.121 0.446-0.325 0.849-0.494 0.962-0.475 0.273-0.281 0.997 0.267 0.996h3.731c1.509 0 2.621-0.777 3.296-1.673 0.674-0.896 0.971-1.877 0.971-2.594 0-0.56-0.011-1.579-0.498-2.517-0.487-0.943-1.536-1.749-3.235-1.749zM4.8 24.533c1.394 0 1.948 0.517 2.287 1.173 0.339 0.655 0.38 1.502 0.38 2.027 0 0.368-0.235 1.253-0.757 1.952-0.528 0.699-1.287 1.248-2.443 1.248h-2.731c0.082-0.181 0.171-0.354 0.239-0.56 0.217-0.661 0.358-1.421 0.358-2.107 0-0.592 0.043-1.589 0.395-2.371 0.355-0.781 0.902-1.362 2.272-1.362zM31.386 0.002c-0.109-0.006-0.194 0.006-0.281 0.021-0.173 0.035-0.352 0.096-0.569 0.178-0.431 0.165-0.992 0.427-1.67 0.781-1.357 0.704-3.182 1.769-5.237 3.095-4.114 2.656-9.146 6.359-13.125 10.34-1.397 1.397-1.981 2.886-1.968 4.237 0.013 1.351 0.608 2.537 1.44 3.371 0.835 0.835 2.009 1.427 3.36 1.44s2.851-0.569 4.249-1.967c3.981-3.979 7.684-9.011 10.339-13.124 1.328-2.057 2.389-3.883 3.097-5.241 0.352-0.679 0.614-1.241 0.779-1.671 0.085-0.215 0.144-0.395 0.178-0.569 0.017-0.087 0.029-0.173 0.021-0.282-0.004-0.109-0.023-0.271-0.181-0.429-0.16-0.16-0.32-0.177-0.43-0.183zM30.701 1.3c-0.147 0.352-0.336 0.777-0.629 1.344-0.683 1.314-1.733 3.118-3.045 5.152-2.624 4.064-6.302 9.053-10.197 12.949-1.237 1.237-2.451 1.664-3.495 1.653-1.045-0.011-1.948-0.469-2.605-1.127-0.657-0.656-1.12-1.583-1.129-2.627-0.011-1.043 0.416-2.235 1.655-3.472 3.897-3.897 8.883-7.573 12.949-10.197 2.033-1.312 3.837-2.364 5.152-3.046 0.565-0.295 0.989-0.483 1.344-0.629z"></path>
</svg>
