<!-- Generated by IcoMoon.io -->
<svg version="1.1" xmlns="http://www.w3.org/2000/svg" width="32" height="32" viewBox="0 0 32 32">
<title>mbri-smile-face</title>
<path d="M20.8 10.667c0.295 0 0.533 0.238 0.533 0.533v3.2c0 0.295-0.238 0.533-0.533 0.533s-0.533-0.238-0.533-0.533v-3.2c0-0.295 0.238-0.533 0.533-0.533zM11.2 10.667c0.295 0 0.533 0.238 0.533 0.533v3.2c0 0.295-0.238 0.533-0.533 0.533s-0.533-0.238-0.533-0.533v-3.2c0-0.295 0.238-0.533 0.533-0.533zM10.133 21.333c-0.541 0-0.697 0.655-0.336 0.947 1.726 1.445 3.952 2.253 6.203 2.253s4.483-0.809 6.208-2.253c0.516-0.431-0.16-1.259-0.683-0.818-1.53 1.28-3.527 2.005-5.521 2.005-1.995 0-3.994-0.725-5.521-2.005-0.096-0.081-0.224-0.128-0.35-0.128zM16 0c-8.83 0-16 7.17-16 16s7.17 16 16 16c8.83 0 16-7.17 16-16s-7.17-16-16-16zM16 1.067c8.254 0 14.933 6.679 14.933 14.933s-6.679 14.933-14.933 14.933-14.933-6.679-14.933-14.933 6.679-14.933 14.933-14.933z"></path>
</svg>
