<!-- Generated by IcoMoon.io -->
<svg version="1.1" xmlns="http://www.w3.org/2000/svg" width="32" height="32" viewBox="0 0 32 32">
<title>mbri-sad-face</title>
<path d="M20.8 10.667c0.295 0 0.533 0.238 0.533 0.533v3.2c0 0.295-0.238 0.533-0.533 0.533s-0.533-0.238-0.533-0.533v-3.2c0-0.295 0.238-0.533 0.533-0.533zM11.2 10.667c0.295 0 0.533 0.238 0.533 0.533v3.2c0 0.295-0.238 0.533-0.533 0.533s-0.533-0.238-0.533-0.533v-3.2c0-0.295 0.238-0.533 0.533-0.533zM16 21.333c-2.244 0-4.465 0.806-6.185 2.244-0.578 0.427 0.158 1.305 0.681 0.811 1.523-1.274 3.517-1.988 5.504-1.988s3.981 0.715 5.504 1.988c0.51 0.48 1.254-0.388 0.681-0.811-1.719-1.438-3.94-2.244-6.185-2.244zM16 0c-8.83 0-16 7.17-16 16s7.17 16 16 16c8.83 0 16-7.17 16-16s-7.17-16-16-16zM16 1.067c8.254 0 14.933 6.679 14.933 14.933s-6.679 14.933-14.933 14.933-14.933-6.679-14.933-14.933 6.679-14.933 14.933-14.933z"></path>
</svg>
