<!-- Generated by IcoMoon.io -->
<svg version="1.1" xmlns="http://www.w3.org/2000/svg" width="32" height="32" viewBox="0 0 32 32">
<title>mbri-idea</title>
<path d="M25.067 4.267c0.476 0 0.715 0.579 0.373 0.911l-1.061 1.059c-0.477 0.497-1.244-0.274-0.749-0.749l1.059-1.060c0.1-0.101 0.235-0.16 0.378-0.16zM6.933 4.267c-0.476 0-0.715 0.579-0.373 0.911l1.061 1.059c0.477 0.497 1.248-0.27 0.749-0.749l-1.059-1.060c-0.1-0.101-0.235-0.161-0.378-0.161zM11.2 30.933h8.533c0.295 0 0.533 0.238 0.533 0.533s-0.238 0.533-0.533 0.533h-8.533c-0.295 0-0.533-0.238-0.533-0.533s0.238-0.533 0.533-0.533zM11.2 27.733h8.533c0.295 0 0.533 0.238 0.533 0.533s-0.238 0.533-0.533 0.533h-8.533c-0.295 0-0.533-0.238-0.533-0.533s0.238-0.533 0.533-0.533zM15.467 6.4c-1.971 0-3.729 1.136-4.96 2.88-1.232 1.747-1.973 4.115-1.973 6.72 0 2.606 0.741 4.974 1.973 6.72 1.231 1.744 2.989 2.88 4.96 2.88s3.729-1.136 4.96-2.88c1.232-1.747 1.973-4.115 1.973-6.72 0-2.606-0.741-4.974-1.973-6.72-1.231-1.743-2.989-2.88-4.96-2.88zM15.467 7.467c1.563 0 3.005 0.893 4.090 2.429 1.084 1.536 1.777 3.701 1.777 6.105 0 2.402-0.693 4.567-1.777 6.105-0.701 0.992-1.554 1.711-2.49 2.099-0.011-1.269-0.030-2.45 0.155-3.427 0.211-1.131 0.649-2.005 1.733-2.725 0.448-0.288 0.243-0.985-0.288-0.983-0.107 0-0.208 0.032-0.295 0.092-1.321 0.879-1.946 2.103-2.192 3.419-0.23 1.227-0.188 2.551-0.179 3.918-0.256 0.039-0.784 0.039-1.067 0 0.009-1.365 0.051-2.69-0.179-3.917-0.245-1.314-0.871-2.539-2.192-3.418-0.087-0.063-0.189-0.095-0.295-0.095-0.531 0-0.736 0.697-0.288 0.983 1.085 0.721 1.522 1.595 1.733 2.725 0.185 0.977 0.164 2.159 0.155 3.428-0.935-0.387-1.789-1.106-2.49-2.098-1.084-1.537-1.777-3.702-1.777-6.106 0-2.402 0.693-4.567 1.777-6.105 1.085-1.536 2.528-2.429 4.090-2.429zM26.133 14.933h2.133c0.295 0 0.533 0.238 0.533 0.533s-0.238 0.533-0.533 0.533h-2.133c-0.295 0-0.533-0.238-0.533-0.533s0.238-0.533 0.533-0.533zM16 0.533v2.133c0 0.295-0.238 0.533-0.533 0.533s-0.533-0.238-0.533-0.533v-2.133c0-0.295 0.238-0.533 0.533-0.533s0.533 0.238 0.533 0.533zM2.667 14.933h2.133c0.295 0 0.533 0.238 0.533 0.533s-0.238 0.533-0.533 0.533h-2.133c-0.295 0-0.533-0.238-0.533-0.533s0.238-0.533 0.533-0.533z"></path>
</svg>
