<!-- Generated by IcoMoon.io -->
<svg version="1.1" xmlns="http://www.w3.org/2000/svg" width="32" height="32" viewBox="0 0 32 32">
<title>mbri-more-vertical</title>
<path d="M19.2 28.8c0-1.757-1.435-3.2-3.2-3.2s-3.2 1.443-3.2 3.2 1.435 3.2 3.2 3.2 3.2-1.443 3.2-3.2zM18.133 28.8c0 1.182-0.945 2.133-2.133 2.133-1.187 0-2.133-0.951-2.133-2.133s0.945-2.133 2.133-2.133c1.188 0 2.133 0.951 2.133 2.133zM19.2 16c0-1.757-1.435-3.2-3.2-3.2s-3.2 1.443-3.2 3.2 1.435 3.2 3.2 3.2 3.2-1.443 3.2-3.2zM18.133 16c0 1.182-0.945 2.133-2.133 2.133-1.187 0-2.133-0.951-2.133-2.133s0.945-2.133 2.133-2.133c1.188 0 2.133 0.951 2.133 2.133zM19.2 3.2c0-1.757-1.435-3.2-3.2-3.2s-3.2 1.443-3.2 3.2 1.435 3.2 3.2 3.2 3.2-1.443 3.2-3.2zM18.133 3.2c0 1.182-0.945 2.133-2.133 2.133-1.187 0-2.133-0.951-2.133-2.133s0.945-2.133 2.133-2.133c1.188 0 2.133 0.951 2.133 2.133z"></path>
</svg>
