<!-- Generated by IcoMoon.io -->
<svg version="1.1" xmlns="http://www.w3.org/2000/svg" width="32" height="32" viewBox="0 0 32 32">
<title>mbri-globe-2</title>
<path d="M15.467 0c-8.535 0-15.467 6.931-15.467 15.467s6.931 15.467 15.467 15.467c8.535 0 15.467-6.931 15.467-15.467s-6.931-15.467-15.467-15.467zM15.467 1.067c2.359 0 4.539 1.455 6.194 3.923-3.915 1.867-8.473 1.867-12.388-0.002 1.653-2.467 3.837-3.921 6.194-3.921zM10.523 1.954c-0.816 0.693-1.554 1.553-2.203 2.537-0.403-0.233-0.797-0.487-1.184-0.762 1.037-0.736 2.174-1.331 3.387-1.775zM20.411 1.954c1.214 0.444 2.351 1.041 3.388 1.777-0.384 0.274-0.781 0.527-1.184 0.757-0.649-0.981-1.387-1.841-2.203-2.534zM6.245 4.405c0.494 0.365 1.003 0.697 1.525 0.996-1.525 2.718-2.437 6.225-2.437 10.065s0.913 7.346 2.437 10.063c-0.523 0.299-1.035 0.629-1.525 0.997-3.167-2.641-5.179-6.612-5.179-11.060s2.014-8.422 5.179-11.061zM24.688 4.405c3.165 2.638 5.179 6.613 5.179 11.061s-2.014 8.422-5.179 11.061c-0.494-0.365-1.003-0.697-1.525-0.996 1.525-2.718 2.437-6.225 2.437-10.065s-0.913-7.346-2.437-10.063c0.523-0.299 1.031-0.633 1.525-0.999zM8.717 5.901c4.258 2.069 9.244 2.069 13.502 0 1.426 2.537 2.315 5.883 2.315 9.566s-0.89 7.029-2.317 9.565c-2.123-1.031-4.427-1.561-6.735-1.563-2.319-0.002-4.634 0.527-6.767 1.563-1.426-2.535-2.315-5.882-2.315-9.565s0.89-7.029 2.317-9.565zM2.667 14.933c-0.295 0-0.533 0.238-0.533 0.533s0.238 0.533 0.533 0.533h1.067c0.295 0 0.533-0.238 0.533-0.533s-0.238-0.533-0.533-0.533h-1.067zM8 14.933c-0.295 0-0.533 0.238-0.533 0.533s0.238 0.533 0.533 0.533h14.933c0.295 0 0.533-0.238 0.533-0.533s-0.238-0.533-0.533-0.533h-14.933zM27.2 14.933c-0.295 0-0.533 0.238-0.533 0.533s0.238 0.533 0.533 0.533h1.067c0.295 0 0.533-0.238 0.533-0.533s-0.238-0.533-0.533-0.533h-1.067zM15.479 24.533c2.115 0.002 4.228 0.48 6.181 1.412-1.653 2.467-3.837 3.921-6.194 3.921s-4.54-1.454-6.194-3.921c1.963-0.937 4.082-1.414 6.208-1.412zM8.322 26.443c0.646 0.983 1.385 1.843 2.201 2.537-1.214-0.444-2.35-1.041-3.386-1.777 0.386-0.273 0.781-0.527 1.184-0.757zM22.612 26.443c0.403 0.233 0.798 0.486 1.184 0.759-1.037 0.736-2.173 1.333-3.387 1.777 0.816-0.693 1.554-1.553 2.202-2.535z"></path>
</svg>
