<!-- Generated by IcoMoon.io -->
<svg version="1.1" xmlns="http://www.w3.org/2000/svg" width="32" height="32" viewBox="0 0 32 32">
<title>mbri-mobirise</title>
<path d="M28.8 20.267c-0.533-0.002-0.743 0.683-0.295 0.973l1.6 1.067c0.565 0.39 1.175-0.512 0.591-0.887l-1.6-1.067c-0.087-0.061-0.189-0.085-0.295-0.085zM25.067 24.533c-0.429 0.002-0.67 0.497-0.444 0.825l1.067 1.6c0.391 0.608 1.297 0.003 0.887-0.591l-1.067-1.6c-0.098-0.154-0.262-0.235-0.444-0.235zM30.4 8.533c-0.102 0-0.211 0.032-0.295 0.090l-1.6 1.067c-0.576 0.37 0.034 1.271 0.591 0.887l1.6-1.067c0.423-0.273 0.242-0.977-0.295-0.977zM26.133 3.733c-0.176 0-0.349 0.090-0.444 0.238l-1.067 1.6c-0.384 0.555 0.512 1.175 0.887 0.591l1.067-1.6c0.247-0.359-0.003-0.829-0.444-0.829zM19.2 28.267v-2.133c0-0.295 0.238-0.533 0.533-0.533s0.533 0.238 0.533 0.533v2.133c0 0.295-0.238 0.533-0.533 0.533s-0.533-0.238-0.533-0.533zM19.2 4.8v-2.133c0-0.295 0.238-0.533 0.533-0.533s0.533 0.238 0.533 0.533v2.133c0 0.295-0.238 0.533-0.533 0.533s-0.533-0.238-0.533-0.533zM29.333 14.933h2.133c0.295 0 0.533 0.238 0.533 0.533s-0.238 0.533-0.533 0.533h-2.133c-0.295 0-0.533-0.238-0.533-0.533s0.238-0.533 0.533-0.533zM18.695 7.467c-0.741 0-0.741 1.067 0 1.067 3.819 0 6.905 3.097 6.905 6.933s-3.086 6.933-6.905 6.933c-0.725 0-0.75 1.067 0 1.067 4.398 0 7.971-3.589 7.971-8s-3.573-8-7.971-8zM9.6 26.667c0 0.589-0.478 1.067-1.067 1.067s-1.067-0.478-1.067-1.067 0.478-1.067 1.067-1.067 1.067 0.478 1.067 1.067zM6.933 4.267h3.2c0.295 0 0.533 0.238 0.533 0.533s-0.238 0.533-0.533 0.533h-3.2c-0.295 0-0.533-0.238-0.533-0.533s0.238-0.533 0.533-0.533zM1.6 2.133c-0.877 0-1.6 0.723-1.6 1.6v24.533c0 0.877 0.723 1.6 1.6 1.6h13.867c0.877 0 1.6-0.723 1.6-1.6v-24.533c0-0.877-0.723-1.6-1.6-1.6zM1.6 3.2h13.867c0.305 0 0.533 0.228 0.533 0.533v24.533c0 0.305-0.228 0.533-0.533 0.533h-13.867c-0.305 0-0.533-0.228-0.533-0.533v-24.533c0-0.305 0.228-0.533 0.533-0.533z"></path>
</svg>
