<!-- Generated by IcoMoon.io -->
<svg version="1.1" xmlns="http://www.w3.org/2000/svg" width="32" height="32" viewBox="0 0 32 32">
<title>mbri-setting</title>
<path d="M24 16c-0.877 0-1.6 0.723-1.6 1.6v0.837c-0.419 0.122-0.821 0.285-1.205 0.496l-0.334-0.335c-0.621-0.621-1.643-0.621-2.261 0-0.622 0.619-0.622 1.643 0 2.261l0.334 0.336c-0.213 0.384-0.378 0.785-0.501 1.205h-0.832c-0.877 0-1.6 0.723-1.6 1.6s0.723 1.6 1.6 1.6h0.837c0.122 0.419 0.285 0.821 0.496 1.205l-0.335 0.334c-0.621 0.621-0.621 1.643 0 2.261 0.619 0.622 1.643 0.622 2.261 0l0.336-0.334c0.384 0.213 0.785 0.378 1.205 0.501v0.832c0 0.877 0.723 1.6 1.6 1.6s1.6-0.723 1.6-1.6v-0.837c0.419-0.122 0.821-0.285 1.205-0.496l0.334 0.335c0.621 0.621 1.643 0.621 2.261 0 0.622-0.619 0.622-1.643 0-2.261l-0.334-0.336c0.213-0.384 0.378-0.785 0.501-1.205h0.832c0.877 0 1.6-0.723 1.6-1.6s-0.723-1.6-1.6-1.6h-0.837c-0.122-0.419-0.285-0.821-0.496-1.205l0.335-0.334c0.621-0.621 0.621-1.643 0-2.261-0.619-0.622-1.643-0.622-2.261 0l-0.336 0.334c-0.384-0.213-0.785-0.378-1.205-0.501v-0.832c0-0.877-0.723-1.6-1.6-1.6zM24 17.067c0.305 0 0.533 0.228 0.533 0.533v1.067c0 0.35 0.090 0.542 0.405 0.627 0.608 0.123 1.186 0.363 1.703 0.704 0.211 0.141 0.493 0.113 0.672-0.066l0.579-0.579c0.215-0.215 0.539-0.215 0.754 0s0.215 0.539 0 0.754l-0.579 0.579c-0.179 0.178-0.208 0.459-0.068 0.67 0.341 0.518 0.58 1.097 0.702 1.703 0.085 0.322 0.367 0.409 0.631 0.409h1.067c0.305 0 0.533 0.228 0.533 0.533s-0.228 0.533-0.533 0.533h-1.067c-0.42 0-0.563 0.169-0.627 0.405-0.123 0.608-0.363 1.186-0.704 1.703-0.141 0.211-0.113 0.493 0.066 0.672l0.579 0.579c0.215 0.215 0.215 0.539 0 0.754s-0.539 0.215-0.754 0l-0.579-0.579c-0.178-0.179-0.459-0.208-0.67-0.068-0.518 0.341-1.097 0.58-1.703 0.702-0.282 0.075-0.409 0.363-0.409 0.631v1.067c0 0.305-0.228 0.533-0.533 0.533s-0.533-0.228-0.533-0.533v-1.067c0-0.395-0.147-0.558-0.405-0.627-0.608-0.123-1.186-0.363-1.703-0.704-0.211-0.141-0.493-0.113-0.672 0.066l-0.579 0.579c-0.215 0.215-0.539 0.215-0.754 0s-0.215-0.539 0-0.754l0.579-0.579c0.179-0.178 0.208-0.459 0.068-0.67-0.341-0.518-0.58-1.097-0.702-1.703-0.053-0.269-0.279-0.409-0.631-0.409h-1.067c-0.305 0-0.533-0.228-0.533-0.533s0.228-0.533 0.533-0.533h1.067c0.475 0 0.559-0.153 0.627-0.405 0.123-0.608 0.363-1.186 0.704-1.703 0.141-0.211 0.113-0.493-0.066-0.672l-0.579-0.579c-0.215-0.215-0.215-0.539 0-0.754s0.539-0.215 0.754 0l0.579 0.579c0.178 0.179 0.459 0.208 0.67 0.068 0.518-0.341 1.097-0.58 1.703-0.702 0.429-0.098 0.409-0.433 0.409-0.631v-1.067c0-0.305 0.228-0.533 0.533-0.533zM24 21.333c-1.467 0-2.667 1.2-2.667 2.667s1.2 2.667 2.667 2.667 2.667-1.2 2.667-2.667-1.2-2.667-2.667-2.667zM24 22.4c0.89 0 1.6 0.71 1.6 1.6s-0.71 1.6-1.6 1.6-1.6-0.71-1.6-1.6 0.71-1.6 1.6-1.6zM13.333 8.533c-2.645 0-4.8 2.155-4.8 4.8s2.155 4.8 4.8 4.8 4.8-2.155 4.8-4.8-2.155-4.8-4.8-4.8zM13.333 9.6c2.069 0 3.733 1.664 3.733 3.733s-1.664 3.733-3.733 3.733-3.733-1.664-3.733-3.733 1.664-3.733 3.733-3.733zM12.267 0c-0.877 0-1.6 0.723-1.6 1.6v2.037c-0.814 0.224-1.594 0.544-2.327 0.96l-2-1.998c-0.621-0.621-1.643-0.621-2.265 0l-1.508 1.507c-0.619 0.619-0.619 1.643 0 2.261l2.013 2.013c-0.407 0.722-0.725 1.487-0.946 2.286h-2.033c-0.877 0-1.6 0.723-1.6 1.6v2.133c0 0.877 0.723 1.6 1.6 1.6h2.035c0.221 0.807 0.541 1.579 0.953 2.308l-2.020 2.019c-0.621 0.621-0.621 1.643 0 2.265l1.508 1.508c0.621 0.621 1.643 0.621 2.265 0l2.023-2.027c0.725 0.416 1.498 0.736 2.304 0.958v2.035c0 0.877 0.723 1.6 1.6 1.6h2.133c0.708 0 0.704-1.067 0-1.067h-2.133c-0.305 0-0.533-0.228-0.533-0.533v-2.383c0-0.25-0.171-0.466-0.416-0.523-0.992-0.226-1.941-0.619-2.805-1.163-0.209-0.132-0.482-0.101-0.658 0.073l-0.006 0.011-0.003 0.004-2.259 2.261c-0.213 0.213-0.541 0.213-0.757 0l-1.507-1.509c-0.213-0.215-0.213-0.542 0-0.757l2.271-2.269c0.173-0.176 0.203-0.448 0.071-0.657-0.542-0.864-0.932-1.813-1.157-2.805-0.055-0.245-0.272-0.416-0.523-0.416h-2.384c-0.305 0-0.533-0.228-0.533-0.533v-2.133c0-0.305 0.228-0.533 0.533-0.533h2.383c0.25 0 0.466-0.171 0.523-0.416 0.224-0.985 0.612-1.926 1.149-2.784 0.133-0.211 0.101-0.484-0.075-0.661l-2.259-2.256c-0.215-0.215-0.215-0.539 0-0.754l1.508-1.508c0.215-0.215 0.542-0.215 0.757 0l2.243 2.244c0.176 0.176 0.448 0.207 0.661 0.075 0.868-0.546 1.824-0.939 2.823-1.166 0.243-0.055 0.416-0.272 0.416-0.523v-2.384c0-0.305 0.228-0.533 0.533-0.533h2.133c0.305 0 0.533 0.228 0.533 0.533v2.383c0 0.25 0.171 0.466 0.416 0.523 0.992 0.226 1.938 0.619 2.801 1.162 0.21 0.131 0.484 0.1 0.661-0.075l2.24-2.24c0.215-0.215 0.539-0.215 0.754 0l1.508 1.508c0.215 0.215 0.215 0.539 0 0.754l-2.229 2.236c-0.176 0.175-0.207 0.448-0.075 0.661 0.54 0.864 0.928 1.81 1.152 2.805 0.057 0.243 0.273 0.416 0.523 0.416h2.385c0.305 0 0.533 0.228 0.533 0.533v2.133c0 0.713 1.067 0.695 1.067 0v-2.133c0-0.877-0.723-1.6-1.6-1.6h-2.035c-0.221-0.806-0.539-1.579-0.949-2.308l1.986-1.989c0.621-0.619 0.621-1.643 0-2.261l-1.508-1.509c-0.619-0.621-1.643-0.621-2.261 0l-1.995 1.995c-0.725-0.416-1.499-0.736-2.304-0.958v-2.035c0-0.877-0.723-1.6-1.6-1.6z"></path>
</svg>
