<!-- Generated by IcoMoon.io -->
<svg version="1.1" xmlns="http://www.w3.org/2000/svg" width="32" height="32" viewBox="0 0 32 32">
<title>mbri-numbered-list</title>
<path d="M31.467 5.344h-23.467c-0.715 0-0.693-1.067 0-1.067h23.467c0.704 0 0.715 1.067 0 1.067zM31.467 16.011h-23.467c-0.715 0-0.693-1.067 0-1.067h23.467c0.704 0 0.715 1.067 0 1.067zM31.467 26.677h-23.467c-0.715 0-0.693-1.067 0-1.067h23.467c0.704 0 0.715 1.067 0 1.067zM2.667 21.333c-1.468 0-2.667 1.199-2.667 2.667 0 0.765 1.067 0.645 1.067 0 0-0.896 0.704-1.6 1.6-1.6s1.6 0.704 1.6 1.6-0.704 1.6-1.6 1.6c-0.704 0-0.706 1.067 0 1.067 0.896 0 1.6 0.704 1.6 1.6s-0.704 1.6-1.6 1.6-1.6-0.704-1.6-1.6c0-0.685-1.067-0.72-1.067 0 0 1.468 1.199 2.667 2.667 2.667s2.667-1.199 2.667-2.667c0-0.875-0.412-1.647-1.067-2.133 0.645-0.487 1.067-1.265 1.067-2.133 0-1.468-1.199-2.667-2.667-2.667zM2.667 10.667c-1.467 0-2.667 1.2-2.667 2.667 0 0.734 1.067 0.693 1.067 0 0-0.89 0.71-1.6 1.6-1.6s1.6 0.71 1.6 1.6c0 0.452-0.181 0.837-0.533 1.248-0.352 0.409-0.86 0.811-1.401 1.266-1.079 0.91-2.333 2.055-2.333 3.886 0 0.279 0.254 0.533 0.533 0.533h4.267c0.722 0 0.695-1.067 0-1.067h-3.567c0.217-1.024 0.875-1.803 1.767-2.553 0.526-0.444 1.085-0.879 1.533-1.401 0.448-0.523 0.8-1.15 0.8-1.914 0-1.467-1.2-2.667-2.667-2.667zM2.3 0.147l-2.133 2.133c-0.506 0.506 0.272 1.227 0.734 0.768l1.233-1.235v7.253c0 0.779 1.067 0.651 1.067 0v-8.533c0-0.629-0.67-0.617-0.9-0.386z"></path>
</svg>
