<!-- Generated by IcoMoon.io -->
<svg version="1.1" xmlns="http://www.w3.org/2000/svg" width="32" height="32" viewBox="0 0 32 32">
<title>mbri-to-ftp</title>
<path d="M8 10.667c-0.294 0-0.533 0.239-0.533 0.533v6.4c0 0.704 1.067 0.713 1.067 0v-2.667h1.6c0.709 0 0.693-1.067 0-1.067h-1.6v-2.133h2.667c0.704 0.011 0.704-1.067 0-1.067zM21.867 10.667c-0.294 0-0.533 0.239-0.533 0.533v6.4c0 0.717 1.067 0.697 1.067 0v-2.667h0.533c0.887 0 1.566-0.22 2.022-0.629 0.459-0.409 0.644-0.981 0.644-1.504s-0.187-1.095-0.644-1.504c-0.457-0.41-1.135-0.629-2.022-0.629zM22.4 11.733h0.533c0.713 0 1.101 0.171 1.312 0.358 0.208 0.187 0.288 0.416 0.288 0.708 0 0.291-0.080 0.523-0.288 0.708-0.211 0.188-0.599 0.358-1.312 0.358h-0.533zM14.4 10.667c-0.704 0-0.704 1.067 0 1.067h1.6v5.867c0 0.715 1.067 0.709 1.067 0v-5.867h1.6c0.704 0.011 0.706-1.067 0-1.067zM16.533 20.267c-0.139 0.002-0.277 0.059-0.377 0.156l-4.26 4.261c-0.495 0.476 0.277 1.248 0.753 0.754l3.883-3.885 3.883 3.885c0.484 0.503 1.253-0.274 0.754-0.753l-4.26-4.26c-0.102-0.101-0.233-0.158-0.377-0.156zM16.533 23.467c0.295 0 0.533 0.238 0.533 0.533v7.467c0 0.295-0.238 0.533-0.533 0.533s-0.533-0.238-0.533-0.533v-7.467c0-0.295 0.238-0.533 0.533-0.533zM1.6 0c-0.877 0-1.6 0.723-1.6 1.6v24.533c0 0.877 0.723 1.6 1.6 1.6h7.467c0.711 0 0.704-1.067 0-1.067h-7.467c-0.305 0-0.533-0.228-0.533-0.533v-24.533c0-0.305 0.228-0.533 0.533-0.533h7.467c0.533 0 0.69 0.007 0.829 0.077 0.139 0.070 0.395 0.301 0.928 0.834l3.2 3.2c0.55 0.55 0.923 0.864 1.331 1.045 0.407 0.181 0.782 0.177 1.179 0.177h13.867c0.305 0 0.533 0.228 0.533 0.533v19.2c0 0.305-0.228 0.533-0.533 0.533h-6.4c-0.689 0-0.717 1.067 0 1.067h6.4c0.877 0 1.6-0.723 1.6-1.6v-19.2c0-0.877-0.723-1.6-1.6-1.6h-13.867c-0.398 0-0.555-0.002-0.747-0.087-0.194-0.085-0.491-0.304-1.009-0.823l-3.2-3.2c-0.533-0.533-0.813-0.836-1.205-1.033-0.396-0.197-0.772-0.19-1.306-0.19z"></path>
</svg>
