<!-- Generated by IcoMoon.io -->
<svg version="1.1" xmlns="http://www.w3.org/2000/svg" width="32" height="32" viewBox="0 0 32 32">
<title>mbri-hearth</title>
<path d="M8.507 2.133c-2.384 0.124-4.656 1.283-6.208 3.083-1.552 1.792-2.299 4.156-2.299 6.517 0 2.067 0.743 4.070 1.756 5.824 1.013 1.754 2.336 3.282 3.733 4.687 3.012 3.022 6.485 5.581 10.263 7.563 0.155 0.081 0.341 0.081 0.495 0 3.779-1.982 7.251-4.541 10.263-7.563 1.397-1.405 2.72-2.933 3.733-4.686 1.013-1.754 1.756-3.756 1.756-5.825 0-2.368-0.747-4.723-2.298-6.517-1.553-1.801-3.825-2.96-6.208-3.083-1.617-0.083-3.248 0.305-4.653 1.109-1.17 0.668-2.107 1.662-2.842 2.788-0.736-1.126-1.671-2.121-2.842-2.789-1.404-0.804-3.036-1.194-4.651-1.108zM8.56 3.2c1.408-0.073 2.843 0.267 4.067 0.966s2.247 1.762 2.901 3.012c0.198 0.384 0.745 0.384 0.944 0 0.653-1.25 1.675-2.313 2.901-3.012 1.223-0.7 2.656-1.039 4.066-0.966 2.071 0.107 4.093 1.133 5.456 2.709 1.365 1.582 2.037 3.691 2.037 5.824 0 1.845-0.67 3.659-1.613 5.291-0.944 1.637-2.202 3.098-3.565 4.465-2.865 2.877-6.174 5.307-9.756 7.217-3.582-1.909-6.891-4.341-9.756-7.217-1.363-1.367-2.621-2.827-3.565-4.464-0.943-1.633-1.613-3.446-1.613-5.292 0-2.133 0.672-4.243 2.037-5.824 1.363-1.575 3.385-2.603 5.456-2.709z"></path>
</svg>
