<!-- Generated by IcoMoon.io -->
<svg version="1.1" xmlns="http://www.w3.org/2000/svg" width="32" height="32" viewBox="0 0 32 32">
<title>mbri-setting3</title>
<path d="M14.4 0c-0.877 0-1.6 0.723-1.6 1.6v2.096c-1.139 0.293-2.227 0.741-3.243 1.333l-1.365-1.365c-0.621-0.619-1.643-0.619-2.265 0l-2.261 2.263c-0.622 0.621-0.622 1.643 0 2.265l1.367 1.369c-0.597 1.013-1.050 2.101-1.347 3.239h-2.086c-0.877 0-1.6 0.723-1.6 1.6v3.2c0 0.877 0.723 1.6 1.6 1.6h2.096c0.293 1.139 0.741 2.227 1.333 3.243l-1.365 1.365c-0.619 0.621-0.619 1.643 0 2.265l2.263 2.261c0.621 0.622 1.643 0.622 2.265 0l1.369-1.367c1.013 0.597 2.101 1.050 3.239 1.347v2.086c0 0.877 0.723 1.6 1.6 1.6h3.2c0.877 0 1.6-0.723 1.6-1.6v-2.096c1.139-0.293 2.227-0.741 3.243-1.333l1.365 1.365c0.621 0.619 1.643 0.619 2.265 0l2.261-2.263c0.622-0.621 0.622-1.643 0-2.265l-1.367-1.369c0.597-1.013 1.050-2.101 1.347-3.239h2.086c0.877 0 1.6-0.723 1.6-1.6v-3.2c0-0.877-0.723-1.6-1.6-1.6h-2.096c-0.293-1.139-0.741-2.227-1.333-3.243l1.365-1.365c0.619-0.621 0.619-1.643 0-2.265l-2.263-2.261c-0.621-0.622-1.643-0.622-2.265 0l-1.369 1.367c-1.013-0.597-2.101-1.050-3.239-1.347v-2.086c0-0.877-0.723-1.6-1.6-1.6h-3.2zM14.4 1.067h3.2c0.305 0 0.533 0.228 0.533 0.533v2.435c0 0 0 0 0 0 0 0.253 0.176 0.465 0.412 0.52l0.004 0.001c1.326 0.299 2.59 0.821 3.737 1.552 0.081 0.051 0.179 0.082 0.284 0.082 0.147 0 0.281-0.060 0.377-0.157v0l1.615-1.613c0.215-0.215 0.542-0.215 0.757 0l2.261 2.261c0.215 0.215 0.215 0.542 0 0.757l-1.607 1.606c-0.097 0.097-0.157 0.23-0.157 0.378 0 0.106 0.031 0.204 0.084 0.287l-0.001-0.002c0.725 1.148 1.245 2.413 1.536 3.739 0.054 0.242 0.267 0.419 0.521 0.419 0.001 0 0.001 0 0.002 0h2.443c0.305 0 0.533 0.228 0.533 0.533v3.2c0 0.305-0.228 0.533-0.533 0.533h-2.435c-0 0-0 0-0 0-0.253 0-0.465 0.176-0.52 0.412l-0.001 0.004c-0.299 1.326-0.821 2.59-1.552 3.737-0.051 0.081-0.082 0.179-0.082 0.284 0 0.147 0.060 0.281 0.157 0.377v0l1.613 1.615c0.215 0.215 0.215 0.542 0 0.757l-2.261 2.261c-0.215 0.215-0.542 0.215-0.757 0l-1.606-1.607c-0.097-0.097-0.23-0.157-0.378-0.157-0.106 0-0.204 0.031-0.287 0.084l0.002-0.001c-1.148 0.725-2.413 1.245-3.739 1.536-0.241 0.054-0.419 0.267-0.419 0.521 0 0.001 0 0.001 0 0.002v-0 2.443c0 0.305-0.228 0.533-0.533 0.533h-3.2c-0.305 0-0.533-0.228-0.533-0.533v-2.435c0-0 0-0 0-0 0-0.253-0.176-0.465-0.412-0.52l-0.004-0.001c-1.326-0.299-2.59-0.821-3.737-1.552-0.081-0.051-0.179-0.082-0.284-0.082-0.147 0-0.281 0.060-0.377 0.157v0l-1.615 1.613c-0.215 0.215-0.542 0.215-0.757 0l-2.261-2.261c-0.215-0.215-0.215-0.542 0-0.757l1.607-1.606c0.097-0.097 0.157-0.23 0.157-0.378 0-0.106-0.031-0.204-0.084-0.287l0.001 0.002c-0.725-1.148-1.245-2.413-1.536-3.739-0.054-0.241-0.267-0.419-0.521-0.419-0.001 0-0.001 0-0.002 0h-2.443c-0.305 0-0.533-0.228-0.533-0.533v-3.2c0-0.305 0.228-0.533 0.533-0.533h2.435c0 0 0 0 0 0 0.253 0 0.465-0.176 0.52-0.412l0.001-0.004c0.299-1.326 0.821-2.59 1.552-3.737 0.051-0.081 0.082-0.179 0.082-0.284 0-0.147-0.060-0.281-0.157-0.377v0l-1.613-1.616c-0.215-0.215-0.215-0.542 0-0.757l2.261-2.261c0.215-0.215 0.542-0.215 0.757 0l1.606 1.609c0.097 0.097 0.23 0.157 0.378 0.157 0.106 0 0.204-0.031 0.287-0.084l-0.002 0.001c1.148-0.725 2.413-1.245 3.739-1.536 0.242-0.054 0.419-0.267 0.419-0.521 0-0.001 0-0.001 0-0.002v0-2.443c0-0.305 0.228-0.533 0.533-0.533zM16 10.667c-2.94 0-5.333 2.394-5.333 5.333s2.394 5.333 5.333 5.333 5.333-2.394 5.333-5.333-2.394-5.333-5.333-5.333zM16 11.733c2.363 0 4.267 1.904 4.267 4.267s-1.904 4.267-4.267 4.267-4.267-1.904-4.267-4.267 1.904-4.267 4.267-4.267z"></path>
</svg>
