<!-- Generated by IcoMoon.io -->
<svg version="1.1" xmlns="http://www.w3.org/2000/svg" width="32" height="32" viewBox="0 0 32 32">
<title>mbri-database</title>
<path d="M1.6 0c-0.877 0-1.6 0.723-1.6 1.6v26.667c0 0.877 0.723 1.6 1.6 1.6h1.6v0.533c0 0.877 0.723 1.6 1.6 1.6h2.133c0.877 0 1.6-0.723 1.6-1.6v-0.533h14.933v0.533c0 0.877 0.723 1.6 1.6 1.6h2.133c0.877 0 1.6-0.723 1.6-1.6v-0.533h1.6c0.877 0 1.6-0.723 1.6-1.6v-26.667c0-0.877-0.723-1.6-1.6-1.6h-28.8zM1.6 1.067h28.8c0.305 0 0.533 0.228 0.533 0.533v26.667c0 0.305-0.228 0.533-0.533 0.533h-28.8c-0.305 0-0.533-0.228-0.533-0.533v-26.667c0-0.305 0.228-0.533 0.533-0.533zM5.333 4.267c-0.589 0-1.067 0.478-1.067 1.067s0.478 1.067 1.067 1.067 1.067-0.478 1.067-1.067-0.478-1.067-1.067-1.067zM9.6 4.267c-0.589 0-1.067 0.478-1.067 1.067s0.478 1.067 1.067 1.067 1.067-0.478 1.067-1.067-0.478-1.067-1.067-1.067zM13.867 4.267c-0.589 0-1.067 0.478-1.067 1.067s0.478 1.067 1.067 1.067 1.067-0.478 1.067-1.067-0.478-1.067-1.067-1.067zM3.733 9.6c-0.295 0-0.533 0.238-0.533 0.533s0.238 0.533 0.533 0.533h24.533c0.295 0 0.533-0.238 0.533-0.533s-0.238-0.533-0.533-0.533h-24.533zM9.6 13.867c-0.589 0-1.067 0.478-1.067 1.067s0.478 1.067 1.067 1.067 1.067-0.478 1.067-1.067-0.478-1.067-1.067-1.067zM13.867 13.867c-0.589 0-1.067 0.478-1.067 1.067s0.478 1.067 1.067 1.067 1.067-0.478 1.067-1.067-0.478-1.067-1.067-1.067zM18.133 13.867c-0.589 0-1.067 0.478-1.067 1.067s0.478 1.067 1.067 1.067 1.067-0.478 1.067-1.067-0.478-1.067-1.067-1.067zM3.733 19.2c-0.295 0-0.533 0.238-0.533 0.533s0.238 0.533 0.533 0.533h24.533c0.295 0 0.533-0.238 0.533-0.533s-0.238-0.533-0.533-0.533h-24.533zM5.333 23.467c-0.589 0-1.067 0.478-1.067 1.067s0.478 1.067 1.067 1.067 1.067-0.478 1.067-1.067-0.478-1.067-1.067-1.067zM9.6 23.467c-0.589 0-1.067 0.478-1.067 1.067s0.478 1.067 1.067 1.067 1.067-0.478 1.067-1.067-0.478-1.067-1.067-1.067zM13.867 23.467c-0.589 0-1.067 0.478-1.067 1.067s0.478 1.067 1.067 1.067 1.067-0.478 1.067-1.067-0.478-1.067-1.067-1.067zM4.267 29.867h3.2v0.533c0 0.305-0.228 0.533-0.533 0.533h-2.133c-0.305 0-0.533-0.228-0.533-0.533v-0.533zM24.533 29.867h3.2v0.533c0 0.305-0.228 0.533-0.533 0.533h-2.133c-0.305 0-0.533-0.228-0.533-0.533v-0.533z"></path>
</svg>
