<!-- Generated by IcoMoon.io -->
<svg version="1.1" xmlns="http://www.w3.org/2000/svg" width="32" height="32" viewBox="0 0 32 32">
<title>mbri-unlink</title>
<path d="M20.201 30.161l-2.139-4.288c-0.271-0.597-1.242-0.117-0.937 0.503l2.14 4.288c0.363 0.625 1.25 0.039 0.937-0.503zM11.798 30.161l2.141-4.288c0.271-0.597 1.242-0.117 0.937 0.503l-2.14 4.288c-0.363 0.625-1.25 0.039-0.939-0.503zM20.203 1.839l-2.139 4.288c-0.271 0.597-1.242 0.117-0.937-0.503l2.14-4.288c0.363-0.624 1.25-0.039 0.937 0.503zM11.801 1.839l2.141 4.288c0.271 0.597 1.242 0.117 0.937-0.503l-2.14-4.288c-0.363-0.624-1.25-0.039-0.939 0.503zM20.8 7.467c-0.701 0-0.701 1.067 0 1.067h2.667c4.146 0 7.467 3.321 7.467 7.467s-3.321 7.467-7.467 7.467h-2.667c-0.711 0-0.693 1.067 0 1.067h2.667c4.718 0 8.533-3.815 8.533-8.533s-3.815-8.533-8.533-8.533zM8.533 7.467c-4.718 0-8.533 3.815-8.533 8.533s3.815 8.533 8.533 8.533h2.667c0.709 0 0.704-1.067 0-1.067h-2.667c-4.146 0-7.467-3.321-7.467-7.467s3.321-7.467 7.467-7.467h2.667c0.702 0 0.715-1.067 0-1.067z"></path>
</svg>
