<!-- Generated by IcoMoon.io -->
<svg version="1.1" xmlns="http://www.w3.org/2000/svg" width="32" height="32" viewBox="0 0 32 32">
<title>mbri-mobile</title>
<path d="M17.067 28.8c0 0.589-0.478 1.067-1.067 1.067v0c-0.589 0-1.067-0.478-1.067-1.067v0c0-0.589 0.478-1.067 1.067-1.067v0c0.589 0 1.067 0.478 1.067 1.067v0zM14.4 2.133h3.2c0.295 0 0.533 0.238 0.533 0.533s-0.238 0.533-0.533 0.533h-3.2c-0.295 0-0.533-0.238-0.533-0.533s0.238-0.533 0.533-0.533zM8 0c-0.877 0-1.6 0.723-1.6 1.6v28.8c0 0.877 0.723 1.6 1.6 1.6h16c0.877 0 1.6-0.723 1.6-1.6v-28.8c0-0.877-0.723-1.6-1.6-1.6h-16zM8 1.067h16c0.305 0 0.533 0.228 0.533 0.533v28.8c0 0.305-0.228 0.533-0.533 0.533h-16c-0.305 0-0.533-0.228-0.533-0.533v-28.8c0-0.305 0.228-0.533 0.533-0.533z"></path>
</svg>
