<!-- Generated by IcoMoon.io -->
<svg version="1.1" xmlns="http://www.w3.org/2000/svg" width="32" height="32" viewBox="0 0 32 32">
<title>mbri-code</title>
<path d="M20.798 7.467c-0.194 0-0.373 0.107-0.466 0.277l-9.586 17.054c-0.35 0.619 0.578 1.143 0.928 0.525l9.585-17.056c0.209-0.354-0.048-0.8-0.461-0.8zM24.030 9.6c0.119 0.006 0.235 0.053 0.324 0.133l7.46 6.396c0.247 0.213 0.247 0.597 0 0.811l-7.46 6.395c-0.512 0.459-1.216-0.375-0.695-0.807l6.991-5.993-6.991-5.993c-0.393-0.329-0.141-0.941 0.371-0.941zM7.97 9.6c-0.119 0.006-0.235 0.053-0.324 0.133l-7.46 6.395c-0.247 0.213-0.247 0.597 0 0.811l7.46 6.395c0.512 0.459 1.216-0.375 0.695-0.807l-6.991-5.993 6.991-5.993c0.393-0.329 0.141-0.941-0.371-0.941z"></path>
</svg>
