<!-- Generated by IcoMoon.io -->
<svg version="1.1" xmlns="http://www.w3.org/2000/svg" width="32" height="32" viewBox="0 0 32 32">
<title>mbri-flag</title>
<path d="M6.933 1.067c-0.679 0-0.727 1.067 0 1.067h21.026c1.2 0.002 0.847 0.395 0.651 0.736l-0.011 0.014-3.962 5.333c-0.139 0.189-0.139 0.445 0 0.634l3.941 5.333c0.391 0.57 0.181 0.75-0.638 0.75h-21.008c-0.698 0-0.693 1.067 0 1.067h21.008c0.704 0 1.33-0.139 1.702-0.642 0.188-0.251 0.261-0.59 0.211-0.903-0.049-0.313-0.197-0.608-0.416-0.903l-3.711-5.018 3.716-5.003c0.393-0.496 0.574-1.147 0.269-1.685-0.305-0.542-0.954-0.779-1.754-0.779zM3.733 0c-0.877 0-1.6 0.723-1.6 1.6v28.8c0 0.877 0.723 1.6 1.6 1.6s1.6-0.723 1.6-1.6v-28.8c0-0.877-0.723-1.6-1.6-1.6zM3.733 1.067c0.305 0 0.533 0.228 0.533 0.533v28.8c0 0.305-0.228 0.533-0.533 0.533s-0.533-0.228-0.533-0.533v-28.8c0-0.305 0.228-0.533 0.533-0.533z"></path>
</svg>
