<!-- Generated by IcoMoon.io -->
<svg version="1.1" xmlns="http://www.w3.org/2000/svg" width="32" height="32" viewBox="0 0 32 32">
<title>mbri-touch</title>
<path d="M5.861 18.133c-0.137 0.004-0.271 0.057-0.367 0.155l-1.054 1.058c-0.518 0.498 0.249 1.267 0.747 0.747l1.054-1.056c0.343-0.337 0.094-0.903-0.379-0.903zM4.8 10.667c-0.475 0-0.715 0.572-0.373 0.902l1.056 1.058c0.496 0.519 1.263-0.25 0.745-0.747l-1.056-1.059c-0.097-0.101-0.227-0.155-0.371-0.155zM13.328 10.667c-0.137 0.004-0.271 0.057-0.367 0.155l-1.054 1.058c-0.518 0.498 0.249 1.267 0.747 0.747l1.054-1.056c0.343-0.337 0.094-0.903-0.379-0.903zM9.6 10.133v1.067c0 0.295-0.238 0.533-0.533 0.533s-0.533-0.238-0.533-0.533v-1.067c0-0.295 0.238-0.533 0.533-0.533s0.533 0.238 0.533 0.533zM3.733 14.933h1.067c0.295 0 0.533 0.238 0.533 0.533s-0.238 0.533-0.533 0.533h-1.067c-0.295 0-0.533-0.238-0.533-0.533s0.238-0.533 0.533-0.533zM22.645 10.72c-0.382 0.081-0.738 0.256-1.035 0.512-0.315 0.273-0.55 0.627-0.679 1.022-0.071 0.219-0.032 0.446-0.037 0.672-0.26-0.142-0.853-0.169-1.223-0.069-0.469 0.11-0.937 0.327-1.296 0.693-0.537 0.544-0.678 1.003-0.64 1.609-0.171-0.075-0.331-0.174-0.523-0.203-0.316-0.048-0.631-0.021-0.928 0.073-0.293 0.092-0.555 0.241-0.781 0.416-0.315 0.245-0.582 0.562-0.763 0.939-0.128 0.267-0.137 0.565-0.158 0.862l-2.394-2.173c-0.305-0.277-0.64-0.581-1.060-0.821-0.422-0.238-0.917-0.401-1.449-0.384-0.55 0.018-1.084 0.233-1.489 0.617s-0.649 0.909-0.69 1.461c-0.039 0.548 0.117 1.073 0.384 1.515 0.261 0.437 0.604 0.766 0.911 1.059l8.54 8.148h-1.869c-0.256 0-0.541 0-0.848 0.057-0.309 0.055-0.619 0.165-0.9 0.354-0.281 0.188-0.514 0.442-0.675 0.747-0.16 0.302-0.242 0.638-0.242 0.976s0.081 0.674 0.242 0.977c0.16 0.304 0.395 0.558 0.676 0.747 0.283 0.188 0.593 0.299 0.901 0.352 0.307 0.057 0.593 0.058 0.848 0.058h8.533c0.732 0 0.687-1.067 0-1.067h-8.533c-0.249 0-0.469-0.005-0.658-0.039-0.188-0.034-0.361-0.098-0.498-0.19-0.137-0.092-0.252-0.219-0.327-0.361-0.075-0.142-0.117-0.309-0.117-0.477 0-0.166 0.043-0.335 0.117-0.477s0.19-0.269 0.326-0.361c0.139-0.092 0.309-0.156 0.498-0.19 0.188-0.034 0.41-0.039 0.658-0.039h3.2c0.48 0 0.715-0.587 0.369-0.917l-9.504-9.067c-0.301-0.288-0.565-0.557-0.734-0.838-0.167-0.279-0.256-0.599-0.235-0.889 0.021-0.284 0.157-0.573 0.359-0.765 0.205-0.194 0.501-0.314 0.789-0.323 0.286-0.011 0.599 0.085 0.887 0.247 0.29 0.165 0.572 0.41 0.871 0.683 1.568 1.421 3.136 2.842 4.704 4.267 0.483 0.437 1.197-0.331 0.742-0.763l-0.54-0.544c-0.224-0.227-0.425-0.435-0.559-0.646-0.133-0.209-0.22-0.444-0.24-0.668-0.019-0.224 0.025-0.462 0.124-0.669 0.1-0.209 0.26-0.401 0.457-0.555 0.142-0.11 0.292-0.192 0.443-0.239 0.147-0.046 0.305-0.060 0.448-0.037 0.145 0.021 0.297 0.080 0.435 0.171s0.283 0.227 0.445 0.387l1.429 1.412v0.002c0.506 0.48 1.227-0.197 0.749-0.693l-0.529-0.597c-0.261-0.293-0.519-0.537-0.663-0.803-0.142-0.265-0.205-0.565-0.171-0.836 0.035-0.27 0.174-0.541 0.375-0.738 0.205-0.201 0.487-0.345 0.796-0.416 0.41-0.111 0.779 0.085 1.041 0.348l1.6 1.6c0.503 0.482 1.237-0.252 0.755-0.755l-0.533-0.533c-0.224-0.222-0.421-0.427-0.57-0.64-0.147-0.21-0.253-0.437-0.299-0.661-0.043-0.224-0.032-0.461 0.036-0.669 0.068-0.209 0.197-0.405 0.363-0.547 0.156-0.134 0.352-0.231 0.557-0.275 0.203-0.043 0.427-0.036 0.64 0.021 0.211 0.055 0.427 0.164 0.624 0.309 0.201 0.145 0.395 0.336 0.604 0.546l6.345 6.377c0.501 0.523 1.278-0.252 0.754-0.754l-6.341-6.377c-0.213-0.213-0.448-0.445-0.732-0.653-0.286-0.207-0.611-0.381-0.976-0.48-0.366-0.096-0.757-0.115-1.137-0.034zM9.6 26.667c0 0.589-0.478 1.067-1.067 1.067s-1.067-0.478-1.067-1.067 0.478-1.067 1.067-1.067 1.067 0.478 1.067 1.067zM6.933 3.2h3.2c0.295 0 0.533 0.238 0.533 0.533s-0.238 0.533-0.533 0.533h-3.2c-0.295 0-0.533-0.238-0.533-0.533s0.238-0.533 0.533-0.533zM1.6 1.067c-0.877 0-1.6 0.723-1.6 1.6v25.6c0 0.877 0.723 1.6 1.6 1.6h9.6c0.739 0 0.679-1.067 0-1.067h-9.6c-0.305 0-0.533-0.228-0.533-0.533v-25.6c0-0.305 0.228-0.533 0.533-0.533h13.867c0.305 0 0.533 0.228 0.533 0.533v9.6c-0.011 0.721 1.077 0.721 1.067 0v-9.6c0-0.877-0.723-1.6-1.6-1.6z"></path>
</svg>
