<!-- Generated by IcoMoon.io -->
<svg version="1.1" xmlns="http://www.w3.org/2000/svg" width="32" height="32" viewBox="0 0 32 32">
<title>mbri-globe</title>
<path d="M20.8 3.2c-0.563 0.011-0.732 0.787-0.265 1.010 0.275 0.139 0.514 0.373 0.651 0.651 0.139 0.275 0.186 0.608 0.13 0.91-0.053 0.294-0.206 0.601-0.414 0.896-0.21 0.297-0.453 0.591-0.725 0.921-0.273 0.331-0.555 0.704-0.747 1.156-0.194 0.459-0.292 0.996-0.156 1.538 0.11 0.433 0.354 0.797 0.649 1.082 0.291 0.284 0.625 0.486 0.956 0.644 0.661 0.315 1.303 0.471 1.81 0.733 0.499 0.256 0.964 0.653 1.474 1.065 0.512 0.413 1.086 0.85 1.796 1.099 0.453 0.158 0.759 0.213 1.082 0.326 0.16 0.055 0.301 0.124 0.41 0.203 0.107 0.079 0.189 0.174 0.231 0.263 0.061 0.124 0.075 0.303 0.025 0.462-0.051 0.164-0.165 0.331-0.32 0.459-0.313 0.263-0.69 0.393-1.216 0.433-0.531 0.043-1.134 0.006-1.783 0.109-0.324 0.051-0.659 0.141-0.981 0.299-0.325 0.16-0.633 0.393-0.864 0.707-0.325 0.439-0.431 0.907-0.549 1.273-0.059 0.181-0.117 0.341-0.19 0.473-0.070 0.13-0.156 0.235-0.241 0.299-0.122 0.096-0.334 0.169-0.608 0.245-0.281 0.078-0.637 0.166-0.971 0.42-0.354 0.267-0.565 0.64-0.674 1.017-0.11 0.371-0.105 0.736-0.105 1.069 0 1.050 0.427 2.074 1.056 2.915 0.629 0.841 1.51 1.483 2.502 1.829 0.672 0.233 1.008-0.779 0.35-1.009-0.789-0.274-1.497-0.795-1.998-1.461-0.501-0.669-0.843-1.493-0.843-2.327 0-0.267 0-0.51 0.061-0.715 0.059-0.201 0.171-0.371 0.295-0.467 0.124-0.094 0.336-0.166 0.612-0.243 0.279-0.080 0.638-0.171 0.973-0.427 0.238-0.181 0.403-0.409 0.527-0.635s0.203-0.448 0.269-0.655c0.132-0.409 0.233-0.75 0.393-0.965 0.112-0.153 0.279-0.286 0.477-0.384 0.199-0.096 0.431-0.162 0.681-0.203 0.499-0.078 1.072-0.047 1.699-0.096 0.636-0.050 1.35-0.197 1.926-0.683 0.291-0.245 0.427-0.567 0.546-0.96 0.122-0.397 0.113-0.839-0.079-1.239-0.135-0.281-0.237-0.499-0.461-0.661-0.224-0.163-0.459-0.27-0.688-0.349-0.453-0.158-0.864-0.217-1.187-0.331-0.505-0.175-0.985-0.523-1.475-0.917-0.491-0.397-1.008-0.853-1.653-1.184-0.661-0.341-1.314-0.497-1.839-0.747-0.261-0.126-0.494-0.272-0.672-0.446-0.178-0.173-0.306-0.38-0.357-0.581-0.064-0.253-0.021-0.565 0.103-0.859 0.128-0.299 0.339-0.595 0.587-0.896 0.249-0.301 0.537-0.612 0.8-0.983 0.262-0.373 0.475-0.809 0.567-1.318 0.096-0.535 0.015-1.092-0.228-1.579-0.243-0.487-0.613-0.885-1.099-1.127-0.090-0.042-0.161-0.055-0.25-0.055zM3.733 11.733c-0.693 0-0.715 1.067 0 1.067h1.067c0.262 0 0.474 0.017 0.617 0.075s0.281 0.174 0.373 0.32c0.096 0.149 0.171 0.371 0.258 0.64 0.090 0.277 0.203 0.637 0.508 0.943 0.306 0.305 0.667 0.418 0.942 0.508 0.269 0.087 0.491 0.162 0.64 0.258 0.146 0.093 0.262 0.23 0.32 0.373s0.075 0.354 0.075 0.617v1.813c0 0.267 0.003 0.604 0.16 0.958 0.16 0.356 0.442 0.635 0.789 0.794 0.341 0.155 0.898 0.166 1.18 0.169 0.277 0.002 0.265 0.005 0.4 0.043 0.109 0.028 0.221 0.090 0.311 0.176 0.092 0.085 0.171 0.203 0.227 0.336 0.111 0.26 0.133 0.638 0.133 1.045v4.8c0 0.333 0 0.691 0.070 1.075s0.209 0.772 0.448 1.12c0.24 0.346 0.569 0.633 0.96 0.813 0.395 0.181 0.755 0.188 1.188 0.188 0.718 0 0.711-1.058 0-1.058-0.224 0-0.535-0.005-0.741-0.1-0.207-0.096-0.395-0.256-0.529-0.45-0.137-0.196-0.228-0.441-0.277-0.704-0.047-0.263-0.053-0.557-0.053-0.883v-4.8c0-0.427-0.003-0.958-0.219-1.465-0.107-0.252-0.263-0.491-0.475-0.691-0.213-0.203-0.474-0.356-0.768-0.435-0.355-0.094-0.437-0.075-0.668-0.077-0.224-0.002-0.626-0.018-0.747-0.073-0.111-0.051-0.211-0.151-0.258-0.256-0.046-0.108-0.065-0.289-0.065-0.524v-1.813c0-0.291-0.003-0.645-0.153-1.013-0.149-0.371-0.414-0.672-0.736-0.875-0.314-0.203-0.627-0.291-0.885-0.373-0.25-0.082-0.431-0.164-0.515-0.25-0.085-0.085-0.167-0.267-0.249-0.516-0.082-0.256-0.171-0.571-0.373-0.885-0.203-0.32-0.503-0.587-0.875-0.736-0.368-0.149-0.722-0.151-1.013-0.151zM16 0c-8.83 0-16 7.17-16 16s7.17 16 16 16c8.83 0 16-7.17 16-16s-7.17-16-16-16zM16 1.067c8.254 0 14.933 6.679 14.933 14.933s-6.679 14.933-14.933 14.933-14.933-6.679-14.933-14.933 6.679-14.933 14.933-14.933z"></path>
</svg>
