<!-- Generated by IcoMoon.io -->
<svg version="1.1" xmlns="http://www.w3.org/2000/svg" width="32" height="32" viewBox="0 0 32 32">
<title>mbri-more-horizontal</title>
<path d="M28.8 12.8c-1.757 0-3.2 1.435-3.2 3.2s1.443 3.2 3.2 3.2 3.2-1.435 3.2-3.2-1.443-3.2-3.2-3.2zM28.8 13.867c1.182 0 2.133 0.945 2.133 2.133 0 1.187-0.951 2.133-2.133 2.133s-2.133-0.945-2.133-2.133c0-1.188 0.951-2.133 2.133-2.133zM16 12.8c-1.757 0-3.2 1.435-3.2 3.2s1.443 3.2 3.2 3.2 3.2-1.435 3.2-3.2-1.443-3.2-3.2-3.2zM16 13.867c1.182 0 2.133 0.945 2.133 2.133 0 1.187-0.951 2.133-2.133 2.133s-2.133-0.945-2.133-2.133c0-1.188 0.951-2.133 2.133-2.133zM3.2 12.8c-1.757 0-3.2 1.435-3.2 3.2s1.443 3.2 3.2 3.2 3.2-1.435 3.2-3.2-1.443-3.2-3.2-3.2zM3.2 13.867c1.182 0 2.133 0.945 2.133 2.133 0 1.187-0.951 2.133-2.133 2.133s-2.133-0.945-2.133-2.133c0-1.188 0.951-2.133 2.133-2.133z"></path>
</svg>
