<!-- Generated by IcoMoon.io -->
<svg version="1.1" xmlns="http://www.w3.org/2000/svg" width="32" height="32" viewBox="0 0 32 32">
<title>mbri-photos</title>
<path d="M17.067 9.6c-0.318 0-0.612 0.096-0.864 0.245-0.25 0.149-0.427 0.329-0.578 0.478l-3.2 3.129c-0.638 0.523-0.763 0.54-1.382 0l-1.065-1.009c-0.153-0.149-0.331-0.331-0.579-0.477-0.25-0.15-0.545-0.233-0.865-0.233-0.318 0-0.61 0.082-0.861 0.231-0.247 0.147-0.427 0.326-0.579 0.477l-3.725 3.712c-0.499 0.474 0.262 1.245 0.75 0.757l3.727-3.712c0.591-0.528 0.762-0.526 1.382 0l1.065 1.011c0.153 0.151 0.331 0.331 0.579 0.478 0.252 0.149 0.546 0.245 0.864 0.245s0.612-0.096 0.864-0.245c0.245-0.149 0.427-0.326 0.578-0.478l3.2-3.129c0.561-0.533 0.851-0.531 1.38 0l2.659 2.613c0.505 0.519 1.274-0.259 0.749-0.757l-2.659-2.615c-0.149-0.149-0.329-0.329-0.576-0.478-0.252-0.149-0.546-0.245-0.864-0.245zM27.2 6.4c-0.721-0.011-0.721 1.077 0 1.067h3.2c0.305 0 0.533 0.228 0.533 0.533v22.4c0 0.305-0.228 0.533-0.533 0.533h-22.4c-0.305 0-0.533-0.228-0.533-0.533v-3.2c0.011-0.721-1.077-0.721-1.067 0v3.2c0 0.877 0.723 1.6 1.6 1.6h22.4c0.877 0 1.6-0.723 1.6-1.6v-22.4c0-0.877-0.723-1.6-1.6-1.6zM6.933 4.267c-1.467 0-2.667 1.2-2.667 2.667s1.2 2.667 2.667 2.667 2.667-1.2 2.667-2.667-1.2-2.667-2.667-2.667zM6.933 5.333c0.89 0 1.6 0.71 1.6 1.6s-0.71 1.6-1.6 1.6-1.6-0.71-1.6-1.6 0.71-1.6 1.6-1.6zM3.733 20.267h18.133c0.295 0 0.533 0.238 0.533 0.533s-0.238 0.533-0.533 0.533h-18.133c-0.295 0-0.533-0.238-0.533-0.533s0.238-0.533 0.533-0.533zM1.6 0c-0.877 0-1.6 0.723-1.6 1.6v22.4c0 0.877 0.723 1.6 1.6 1.6h22.4c0.877 0 1.6-0.723 1.6-1.6v-22.4c0-0.877-0.723-1.6-1.6-1.6zM1.6 1.067h22.4c0.305 0 0.533 0.228 0.533 0.533v22.4c0 0.305-0.228 0.533-0.533 0.533h-22.4c-0.305 0-0.533-0.228-0.533-0.533v-22.4c0-0.305 0.228-0.533 0.533-0.533z"></path>
</svg>
