<!-- Generated by IcoMoon.io -->
<svg version="1.1" xmlns="http://www.w3.org/2000/svg" width="32" height="32" viewBox="0 0 32 32">
<title>mbri-briefcase</title>
<path d="M11.2 2.133c-0.877 0-1.6 0.723-1.6 1.6v2.133c0 0.715 1.077 0.704 1.067 0v-2.133c0-0.305 0.228-0.533 0.533-0.533h9.6c0.305 0 0.533 0.228 0.533 0.533v2.133c0 0.704 1.067 0.715 1.067 0v-2.133c0-0.877-0.723-1.6-1.6-1.6zM29.325 9.6c-0.158 0-0.304 0.062-0.398 0.19l-5.867 6.933c-0.491 0.578-0.805 0.943-1.088 1.135-0.177 0.121-0.384 0.186-0.64 0.227v-0.485c0-0.295-0.238-0.533-0.533-0.533s-0.533 0.238-0.533 0.533v0.533h-8.533v-0.533c0-0.295-0.238-0.533-0.533-0.533s-0.533 0.238-0.533 0.533v0.485c-0.256-0.043-0.463-0.107-0.64-0.227-0.283-0.192-0.597-0.557-1.088-1.135l-5.867-6.933c-0.102-0.126-0.242-0.192-0.405-0.19-0.448 0-0.704 0.535-0.405 0.877l5.867 6.933c0.484 0.574 0.829 1.009 1.299 1.329 0.35 0.238 0.754 0.377 1.239 0.432v0.562c0 0.295 0.238 0.533 0.533 0.533s0.533-0.238 0.533-0.533v-0.533h8.533v0.533c0 0.295 0.238 0.533 0.533 0.533s0.533-0.238 0.533-0.533v-0.562c0.485-0.055 0.89-0.194 1.239-0.432 0.469-0.32 0.815-0.755 1.301-1.329l5.867-6.933c0.288-0.29 0.043-0.877-0.416-0.877zM1.6 7.467c-0.877 0-1.6 0.723-1.6 1.6v19.2c0 0.877 0.723 1.6 1.6 1.6h28.8c0.877 0 1.6-0.723 1.6-1.6v-19.2c0-0.877-0.723-1.6-1.6-1.6zM1.6 8.533h28.8c0.305 0 0.533 0.228 0.533 0.533v19.2c0 0.305-0.228 0.533-0.533 0.533h-28.8c-0.305 0-0.533-0.228-0.533-0.533v-19.2c0-0.305 0.228-0.533 0.533-0.533z"></path>
</svg>
