<!-- Generated by IcoMoon.io -->
<svg version="1.1" xmlns="http://www.w3.org/2000/svg" width="32" height="32" viewBox="0 0 32 32">
<title>mbri-left-right</title>
<path d="M3.733 10.667h24.533c0.719 0 0.702-1.067 0-1.067h-24.533c-0.718 0-0.698 1.067 0 1.067zM5.167 6.266l-3.883 3.887 3.883 3.853c0.494 0.48-0.251 1.28-0.757 0.757l-4.26-4.231c-0.198-0.198-0.198-0.56 0-0.757l4.26-4.267c0.519-0.523 1.259 0.254 0.757 0.757zM28.267 21.333h-24.533c-0.718 0-0.701 1.067 0 1.067h24.533c0.719 0 0.699-1.067 0-1.067zM26.833 25.734l3.883-3.887-3.883-3.853c-0.494-0.48 0.251-1.28 0.757-0.757l4.26 4.231c0.198 0.198 0.198 0.56 0 0.757l-4.26 4.267c-0.519 0.523-1.259-0.254-0.757-0.757z"></path>
</svg>
