<!-- Generated by IcoMoon.io -->
<svg version="1.1" xmlns="http://www.w3.org/2000/svg" width="32" height="32" viewBox="0 0 32 32">
<title>mbri-shopping-basket</title>
<path d="M21.867 14.933c0.295 0 0.533 0.238 0.533 0.533v9.6c0 0.295-0.238 0.533-0.533 0.533s-0.533-0.238-0.533-0.533v-9.6c0-0.295 0.238-0.533 0.533-0.533zM15.467 14.933c0.295 0 0.533 0.238 0.533 0.533v9.6c0 0.295-0.238 0.533-0.533 0.533s-0.533-0.238-0.533-0.533v-9.6c0-0.295 0.238-0.533 0.533-0.533zM9.067 14.933c0.295 0 0.533 0.238 0.533 0.533v9.6c0 0.295-0.238 0.533-0.533 0.533s-0.533-0.238-0.533-0.533v-9.6c0-0.295 0.238-0.533 0.533-0.533zM19.761 1.067c0.139 0 0.27 0.062 0.366 0.16l6.389 6.4c0.471 0.475-0.277 1.232-0.754 0.755l-6.389-6.4c-0.343-0.339-0.155-0.915 0.388-0.915zM11.172 1.067c-0.139 0-0.27 0.062-0.366 0.16l-6.389 6.4c-0.471 0.475 0.277 1.232 0.754 0.755l6.389-6.4c0.346-0.339 0.156-0.915-0.387-0.915zM1.6 9.6c-0.442 0-0.85 0.171-1.158 0.461-0.309 0.29-0.518 0.747-0.433 1.231l3.2 18.133c0.066 0.373 0.217 0.736 0.483 1.024 0.267 0.286 0.668 0.484 1.109 0.484h21.333c0.442 0 0.843-0.198 1.109-0.485 0.267-0.288 0.416-0.649 0.482-1.024l3.2-18.133c0.085-0.483-0.125-0.939-0.433-1.23-0.31-0.29-0.718-0.461-1.159-0.461zM1.6 10.667h27.733c0.533 0 0.602 0.219 0.542 0.442l-3.2 18.133c-0.128 0.474-0.245 0.625-0.542 0.625h-21.333c-0.389 0-0.437-0.235-0.542-0.625l-3.2-18.133c-0.066-0.352 0.275-0.442 0.542-0.442z"></path>
</svg>
