<!-- Generated by IcoMoon.io -->
<svg version="1.1" xmlns="http://www.w3.org/2000/svg" width="32" height="32" viewBox="0 0 32 32">
<title>mbri-redo</title>
<path d="M32 9.067v5.333c0 0.279-0.254 0.533-0.533 0.533h-5.333c-0.719 0-0.707-1.067 0-1.067h4.8v-4.8c0-0.683 1.067-0.708 1.067 0zM17.867 6.381c4.377 0.186 8.693 2.051 11.867 5.533 0.442 0.498-0.325 1.235-0.8 0.699-5.955-6.533-16.096-6.923-22.635-0.966-3.323 3.031-5.232 7.332-5.232 11.834v0.519c0 0.73-1.067 0.69-1.067 0v-0.519c0-4.8 2.019-9.399 5.568-12.634 3.477-3.172 7.921-4.653 12.299-4.467z"></path>
</svg>
