<!-- Generated by IcoMoon.io -->
<svg version="1.1" xmlns="http://www.w3.org/2000/svg" width="32" height="32" viewBox="0 0 32 32">
<title>mbri-desktop</title>
<path d="M17.067 21.333c0 0.589-0.478 1.067-1.067 1.067v0c-0.589 0-1.067-0.478-1.067-1.067v0c0-0.589 0.478-1.067 1.067-1.067v0c0.589 0 1.067 0.478 1.067 1.067v0zM2.667 18.133h26.667c0.295 0 0.533 0.238 0.533 0.533s-0.238 0.533-0.533 0.533h-26.667c-0.295 0-0.533-0.238-0.533-0.533s0.238-0.533 0.533-0.533zM1.6 3.2c-0.877 0-1.6 0.723-1.6 1.6v18.133c0 0.877 0.723 1.6 1.6 1.6h11.2v3.2h-2.667c-0.295 0-0.533 0.238-0.533 0.533s0.238 0.533 0.533 0.533h11.733c0.295 0 0.533-0.238 0.533-0.533s-0.238-0.533-0.533-0.533h-2.667v-3.2h11.2c0.877 0 1.6-0.723 1.6-1.6v-18.133c0-0.877-0.723-1.6-1.6-1.6zM1.6 4.267h28.8c0.305 0 0.533 0.228 0.533 0.533v18.133c0 0.305-0.228 0.533-0.533 0.533h-28.8c-0.305 0-0.533-0.228-0.533-0.533v-18.133c0-0.305 0.228-0.533 0.533-0.533zM13.867 24.533h4.267v3.2h-4.267z"></path>
</svg>
