<!-- Generated by IcoMoon.io -->
<svg version="1.1" xmlns="http://www.w3.org/2000/svg" width="32" height="32" viewBox="0 0 32 32">
<title>mbri-unlock</title>
<path d="M11.2 17.067c-1.467 0-2.667 1.2-2.667 2.667 0 0.821 0.433 1.541 1.067 2.042v2.225c0 0.877 0.723 1.6 1.6 1.6s1.6-0.723 1.6-1.6v-2.227c0.634-0.501 1.067-1.219 1.067-2.039 0-1.467-1.2-2.667-2.667-2.667zM11.2 18.133c0.89 0 1.6 0.71 1.6 1.6 0 0.572-0.305 1.095-0.8 1.381-0.161 0.094-0.267 0.265-0.267 0.462 0 0 0 0.001 0 0.001v-0 2.421c0 0.305-0.228 0.533-0.533 0.533s-0.533-0.228-0.533-0.533v-2.421c0-0.196-0.106-0.368-0.264-0.46l-0.003-0.001c-0.495-0.284-0.8-0.81-0.8-1.382 0-0.89 0.71-1.6 1.6-1.6zM1.6 11.733c-0.877 0-1.6 0.723-1.6 1.6v16c0 0.877 0.723 1.6 1.6 1.6h19.2c0.877 0 1.6-0.723 1.6-1.6v-16c0-0.877-0.723-1.6-1.6-1.6h-19.2zM1.6 12.8h19.2c0.305 0 0.533 0.228 0.533 0.533v16c0 0.305-0.228 0.533-0.533 0.533h-19.2c-0.305 0-0.533-0.228-0.533-0.533v-16c0-0.305 0.228-0.533 0.533-0.533zM24 1.067c-4.412 0-8 3.588-8 8v1.067c0 0.717 1.067 0.701 1.067 0v-1.067c0-3.836 3.098-6.933 6.933-6.933s6.933 3.098 6.933 6.933v1.067c0 0.721 1.077 0.701 1.067 0v-1.067c0-4.412-3.588-8-8-8z"></path>
</svg>
