<!-- Generated by IcoMoon.io -->
<svg version="1.1" xmlns="http://www.w3.org/2000/svg" width="32" height="32" viewBox="0 0 32 32">
<title>mbri-gift</title>
<path d="M9.067 0c-1.062 0-2.089 0.587-2.767 1.394-0.678 0.803-0.966 1.771-0.966 2.873 0 0.697 0.249 1.402 0.608 2 0.282 0.469 0.653 0.871 1.082 1.2h-4.89c-1.173 0-2.133 0.96-2.133 2.133v4.267c0 1.173 0.96 2.133 2.133 2.133h27.733c1.173 0 2.133-0.96 2.133-2.133v-4.267c0-1.173-0.96-2.133-2.133-2.133h-6.231c0.295-0.305 0.53-0.668 0.683-1.067 0.207-0.539 0.26-1.12 0.181-1.679-0.093-0.64-0.363-1.264-0.825-1.749-0.466-0.492-1.101-0.838-1.808-0.838-0.686 0-1.317 0.235-1.827 0.587-0.505 0.35-0.898 0.782-1.259 1.19-0.843 0.96-1.621 1.973-2.359 3.017-0.644-1.207-1.342-2.387-2.13-3.506-0.589-0.836-1.244-1.685-2.112-2.352-0.875-0.672-1.943-1.069-3.113-1.069zM9.067 1.062c0.832 0 1.744 0.299 2.464 0.853 0.723 0.557 1.323 1.314 1.892 2.123 0.766 1.086 1.419 2.254 2.044 3.428h-4.267c-0.605 0-1.191-0.011-1.735-0.102-0.544-0.091-1.065-0.27-1.513-0.544-0.448-0.277-0.832-0.659-1.099-1.104-0.27-0.447-0.453-0.93-0.453-1.45 0-0.765 0.221-1.603 0.713-2.187 0.491-0.583 1.202-1.018 1.954-1.018zM21.867 3.2c0.405 0 0.75 0.203 1.035 0.505 0.29 0.303 0.48 0.725 0.544 1.166 0.057 0.388 0.016 0.791-0.121 1.147-0.135 0.354-0.377 0.676-0.677 0.909-0.299 0.235-0.675 0.391-1.074 0.469-0.401 0.077-0.832 0.081-1.307 0.073h-2.852c0.683-0.957 1.387-1.969 2.165-2.852 0.348-0.395 0.688-0.757 1.065-1.019 0.371-0.256 0.837-0.395 1.222-0.395zM2.133 8.533h27.733c0.601 0 1.067 0.466 1.067 1.067v4.267c0 0.601-0.466 1.067-1.067 1.067h-27.733c-0.601 0-1.067-0.466-1.067-1.067v-4.267c0-0.601 0.466-1.067 1.067-1.067zM14.4 9.6c-0.295 0-0.533 0.238-0.533 0.533v2.133c0 0.295 0.238 0.533 0.533 0.533s0.533-0.238 0.533-0.533v-2.133c0-0.295-0.238-0.533-0.533-0.533zM17.6 9.6c-0.295 0-0.533 0.238-0.533 0.533v2.133c0 0.295 0.238 0.533 0.533 0.533s0.533-0.238 0.533-0.533v-2.133c0-0.295-0.238-0.533-0.533-0.533zM3.725 17.058c-0.294 0.004-0.529 0.247-0.525 0.542v12.267c0 1.173 0.96 2.133 2.133 2.133h21.333c1.173 0 2.133-0.96 2.133-2.133v-12.267c0.011-0.721-1.077-0.721-1.067 0v12.267c0 0.601-0.466 1.067-1.067 1.067h-8.533v-13.333c0-0.295-0.238-0.533-0.533-0.533s-0.533 0.238-0.533 0.533v13.333h-2.133v-13.333c0-0.295-0.238-0.533-0.533-0.533s-0.533 0.238-0.533 0.533v13.333h-8.533c-0.601 0-1.067-0.466-1.067-1.067v-12.267c0.004-0.301-0.241-0.546-0.542-0.542z"></path>
</svg>
