<!-- Generated by IcoMoon.io -->
<svg version="1.1" xmlns="http://www.w3.org/2000/svg" width="32" height="32" viewBox="0 0 32 32">
<title>mbri-save</title>
<path d="M6.927 14.927c-0.48 0-0.715 0.583-0.371 0.917l8.533 8.533c0.201 0.198 0.521 0.208 0.732 0.021l9.6-8.533c0.583-0.469-0.175-1.323-0.708-0.797l-9.225 8.197-8.177-8.177c-0.101-0.103-0.239-0.162-0.384-0.162zM15.467 2.133c0.295 0 0.533 0.238 0.533 0.533v19.2c0 0.295-0.238 0.533-0.533 0.533s-0.533-0.238-0.533-0.533v-19.2c0-0.295 0.238-0.533 0.533-0.533zM0.533 23.467c-0.294 0.004-0.538 0.239-0.533 0.533v4.267c0 0.877 0.723 1.6 1.6 1.6h28.8c0.877 0 1.6-0.723 1.6-1.6v-4.267c0.011-0.704-1.067-0.701-1.067 0v4.267c0 0.305-0.228 0.533-0.533 0.533h-28.8c-0.305 0-0.533-0.228-0.533-0.533v-4.267c0.004-0.301-0.233-0.538-0.533-0.533z"></path>
</svg>
