<!-- Generated by IcoMoon.io -->
<svg version="1.1" xmlns="http://www.w3.org/2000/svg" width="32" height="32" viewBox="0 0 32 32">
<title>mbri-folder</title>
<path d="M1.6 2.133c-0.877 0-1.6 0.723-1.6 1.6v24.533c0 0.877 0.723 1.6 1.6 1.6h28.8c0.877 0 1.6-0.723 1.6-1.6v-19.2c0-0.877-0.723-1.6-1.6-1.6h-13.867c-0.398 0-0.555-0.002-0.747-0.087-0.194-0.085-0.491-0.304-1.009-0.823l-3.2-3.2c-0.533-0.533-0.813-0.836-1.205-1.033-0.396-0.197-0.772-0.19-1.306-0.19h-7.467zM1.6 3.2h7.467c0.533 0 0.69 0.007 0.829 0.077 0.139 0.070 0.395 0.301 0.928 0.834l3.2 3.2c0.55 0.55 0.923 0.864 1.331 1.045 0.407 0.181 0.782 0.177 1.179 0.177h13.867c0.305 0 0.533 0.228 0.533 0.533v19.2c0 0.305-0.228 0.533-0.533 0.533h-28.8c-0.305 0-0.533-0.228-0.533-0.533v-24.533c0-0.305 0.228-0.533 0.533-0.533z"></path>
</svg>
