<!-- Generated by IcoMoon.io -->
<svg version="1.1" xmlns="http://www.w3.org/2000/svg" width="32" height="32" viewBox="0 0 32 32">
<title>mbri-bookmark</title>
<path d="M6.933 13.867h18.133c0.295 0 0.533 0.238 0.533 0.533s-0.238 0.533-0.533 0.533h-18.133c-0.295 0-0.533-0.238-0.533-0.533s0.238-0.533 0.533-0.533zM6.933 9.6h18.133c0.295 0 0.533 0.238 0.533 0.533s-0.238 0.533-0.533 0.533h-18.133c-0.295 0-0.533-0.238-0.533-0.533s0.238-0.533 0.533-0.533zM6.933 5.333h18.133c0.295 0 0.533 0.238 0.533 0.533s-0.238 0.533-0.533 0.533h-18.133c-0.295 0-0.533-0.238-0.533-0.533s0.238-0.533 0.533-0.533zM2.682 0c-0.885 0-1.615 0.73-1.615 1.615v28.643c0 0.549 0.253 1.062 0.686 1.401 0.432 0.338 1.099 0.459 1.703 0.16l12.544-6.158 12.558 6.158c0.493 0.242 1.077 0.25 1.561-0.021 0.484-0.274 0.815-0.848 0.815-1.539v-28.658c0-0.877-0.723-1.6-1.6-1.6h-26.652zM2.682 1.067h26.652c0.32 0 0.533 0.213 0.533 0.533v28.658c0 0.39-0.128 0.526-0.273 0.608-0.146 0.083-0.367 0.093-0.565-0.005l-12.793-6.272c-0.069-0.034-0.149-0.054-0.235-0.054s-0.166 0.020-0.238 0.056l0.003-0.001-12.78 6.27c-0.272 0.133-0.416 0.082-0.576-0.043-0.16-0.124-0.277-0.366-0.277-0.56v-28.641c0-0.314 0.235-0.548 0.548-0.548z"></path>
</svg>
