<!-- Generated by IcoMoon.io -->
<svg version="1.1" xmlns="http://www.w3.org/2000/svg" width="32" height="32" viewBox="0 0 32 32">
<title>mbri-edit2</title>
<path d="M27.696 0.465c-0.621-0.619-1.643-0.619-2.261 0l-2.571 2.571c-0.619 0.619-0.619 1.641 0 2.261l3.84 3.84c0.619 0.619 1.643 0.619 2.261 0l2.571-2.571c0.619-0.619 0.619-1.643 0-2.261zM26.942 1.219l3.84 3.84c0.213 0.213 0.213 0.538 0 0.753l-2.571 2.569c-0.215 0.215-0.539 0.215-0.754 0l-3.838-3.84c-0.215-0.213-0.215-0.538 0-0.753l2.571-2.571c0.213-0.213 0.538-0.213 0.753 0zM21.079 5.347c-0.537 0.075-0.924 0.398-1.223 0.698l-18.635 18.649c-0.527 0.528-0.841 0.935-1.022 1.348-0.181 0.412-0.199 0.8-0.199 1.158v3.2c0 0.622 0.189 1.12 0.57 1.376 0.382 0.256 0.764 0.224 1.030 0.224h3.2c0.683 0 1.179-0.135 1.568-0.38 0.39-0.245 0.634-0.546 0.93-0.843l18.635-18.651c0.557-0.558 0.803-1.155 0.715-1.696-0.085-0.54-0.427-0.902-0.715-1.19l-3.194-3.197c-0.533-0.533-1.124-0.771-1.66-0.698zM21.225 6.403c0.165-0.023 0.373 0.006 0.762 0.395l3.195 3.198c0.245 0.245 0.391 0.461 0.416 0.608 0.023 0.149 0.003 0.352-0.416 0.771l-18.635 18.649c-0.333 0.331-0.535 0.562-0.743 0.693-0.208 0.13-0.446 0.217-1.003 0.217h-3.2c-0.487 0-0.533-0.174-0.533-0.533v-3.2c0-0.329 0.009-0.501 0.109-0.73 0.1-0.229 0.32-0.544 0.798-1.022l18.635-18.651c0.235-0.233 0.451-0.373 0.617-0.395z"></path>
</svg>
