<!-- Generated by IcoMoon.io -->
<svg version="1.1" xmlns="http://www.w3.org/2000/svg" width="32" height="32" viewBox="0 0 32 32">
<title>mbri-credit-card</title>
<path d="M24 20.267c-1.467 0-2.667 1.2-2.667 2.667s1.2 2.667 2.667 2.667c0.612 0 1.131-0.262 1.6-0.64 0.469 0.378 0.988 0.64 1.6 0.64 1.467 0 2.667-1.2 2.667-2.667s-1.2-2.667-2.667-2.667c-0.612 0-1.131 0.256-1.6 0.635-0.469-0.379-0.988-0.634-1.6-0.635zM24 21.333c0.459 0 0.896 0.198 1.2 0.544 0.213 0.24 0.587 0.24 0.8 0 0.304-0.346 0.74-0.544 1.2-0.544 0.89 0 1.6 0.71 1.6 1.6s-0.71 1.6-1.6 1.6c-0.459 0-0.896-0.198-1.2-0.544-0.213-0.24-0.587-0.24-0.8 0-0.304 0.346-0.74 0.544-1.2 0.544-0.89 0-1.6-0.71-1.6-1.6s0.71-1.6 1.6-1.6zM16.533 22.4h2.133c0.295 0 0.533 0.238 0.533 0.533s-0.238 0.533-0.533 0.533h-2.133c-0.295 0-0.533-0.238-0.533-0.533s0.238-0.533 0.533-0.533zM12.267 22.4h2.133c0.295 0 0.533 0.238 0.533 0.533s-0.238 0.533-0.533 0.533h-2.133c-0.295 0-0.533-0.238-0.533-0.533s0.238-0.533 0.533-0.533zM8 22.4h2.133c0.295 0 0.533 0.238 0.533 0.533s-0.238 0.533-0.533 0.533h-2.133c-0.295 0-0.533-0.238-0.533-0.533s0.238-0.533 0.533-0.533zM15.467 17.067h12.8c0.295 0 0.533 0.238 0.533 0.533s-0.238 0.533-0.533 0.533h-12.8c-0.295 0-0.533-0.238-0.533-0.533s0.238-0.533 0.533-0.533zM20.8 13.867h7.467c0.295 0 0.533 0.238 0.533 0.533s-0.238 0.533-0.533 0.533h-7.467c-0.295 0-0.533-0.238-0.533-0.533s0.238-0.533 0.533-0.533zM15.467 13.867h3.2c0.295 0 0.533 0.238 0.533 0.533s-0.238 0.533-0.533 0.533h-3.2c-0.295 0-0.533-0.238-0.533-0.533s0.238-0.533 0.533-0.533zM8 12.8c-0.294 0-0.533 0.239-0.533 0.533v5.333c0 0.294 0.239 0.533 0.533 0.533h4.267c0.294 0 0.533-0.239 0.533-0.533v-5.333c0-0.294-0.239-0.533-0.533-0.533zM8.533 13.867h3.2v4.267h-3.2zM6.933 10.667c-0.877 0-1.6 0.723-1.6 1.6v13.867c0 0.877 0.723 1.6 1.6 1.6h23.467c0.877 0 1.6-0.723 1.6-1.6v-13.867c0-0.877-0.723-1.6-1.6-1.6zM6.933 11.733h23.467c0.305 0 0.533 0.228 0.533 0.533v13.867c0 0.305-0.228 0.533-0.533 0.533h-23.467c-0.305 0-0.533-0.228-0.533-0.533v-13.867c0-0.305 0.228-0.533 0.533-0.533zM1.6 4.267c-0.877 0-1.6 0.723-1.6 1.6v13.867c0 0.877 0.723 1.6 1.6 1.6h2.133c0.717 0 0.697-1.067 0-1.067h-2.133c-0.305 0-0.533-0.228-0.533-0.533v-6.933h1.6c0.295 0 0.533-0.238 0.533-0.533s-0.238-0.533-0.533-0.533h-1.6v-3.2h25.6v0.533c0 0.717 1.067 0.701 1.067 0v-3.2c0-0.877-0.723-1.6-1.6-1.6zM1.6 5.333h24.533c0.305 0 0.533 0.228 0.533 0.533v1.6h-25.6v-1.6c0-0.305 0.228-0.533 0.533-0.533z"></path>
</svg>
