<!-- Generated by IcoMoon.io -->
<svg version="1.1" xmlns="http://www.w3.org/2000/svg" width="32" height="32" viewBox="0 0 32 32">
<title>mbri-target</title>
<path d="M15.467 10.667c-2.645 0-4.8 2.155-4.8 4.8s2.155 4.8 4.8 4.8 4.8-2.155 4.8-4.8-2.155-4.8-4.8-4.8zM15.467 11.733c2.069 0 3.733 1.664 3.733 3.733s-1.664 3.733-3.733 3.733-3.733-1.664-3.733-3.733 1.664-3.733 3.733-3.733zM15.467 0c-0.295 0-0.533 0.238-0.533 0.533v1.627c-6.93 0.277-12.497 5.843-12.773 12.773h-1.627c-0.295 0-0.533 0.238-0.533 0.533s0.238 0.533 0.533 0.533h1.627c0.277 6.93 5.843 12.497 12.773 12.773v1.627c0 0.295 0.238 0.533 0.533 0.533s0.533-0.238 0.533-0.533v-1.627c6.93-0.277 12.497-5.843 12.773-12.773h1.627c0.295 0 0.533-0.238 0.533-0.533s-0.238-0.533-0.533-0.533h-1.627c-0.277-6.93-5.843-12.497-12.773-12.773v-1.627c0-0.295-0.238-0.533-0.533-0.533zM14.933 3.227v1.573c0 0.295 0.238 0.533 0.533 0.533s0.533-0.238 0.533-0.533v-1.573c6.353 0.272 11.435 5.355 11.707 11.707h-1.573c-0.295 0-0.533 0.238-0.533 0.533s0.238 0.533 0.533 0.533h1.573c-0.272 6.353-5.355 11.435-11.707 11.707v-1.573c0-0.295-0.238-0.533-0.533-0.533s-0.533 0.238-0.533 0.533v1.573c-6.353-0.272-11.435-5.355-11.707-11.707h1.573c0.295 0 0.533-0.238 0.533-0.533s-0.238-0.533-0.533-0.533h-1.573c0.272-6.353 5.355-11.435 11.707-11.707z"></path>
</svg>
