<!-- Generated by IcoMoon.io -->
<svg version="1.1" xmlns="http://www.w3.org/2000/svg" width="32" height="32" viewBox="0 0 32 32">
<title>mbri-upload</title>
<path d="M16.533 17.067c-0.139 0.002-0.277 0.059-0.377 0.156l-4.26 4.261c-0.495 0.476 0.277 1.248 0.753 0.754l3.883-3.885 3.883 3.885c0.484 0.503 1.253-0.274 0.754-0.753l-4.26-4.26c-0.102-0.101-0.233-0.158-0.377-0.156zM16.533 20.267c0.295 0 0.533 0.238 0.533 0.533v7.467c0 0.295-0.238 0.533-0.533 0.533s-0.533-0.238-0.533-0.533v-7.467c0-0.295 0.238-0.533 0.533-0.533zM24 24.533h2.667c2.94 0 5.333-2.394 5.333-5.333 0-2.558-1.85-4.665-4.309-5.158 0.017-0.235 0.043-0.527 0.043-0.708 0-5.568-4.544-10.133-10.133-10.133-3.744 0.005-7.132 2.105-8.885 5.387-0.237-0.021-0.474-0.053-0.715-0.053-4.425 0-8 3.588-8 8s3.588 8 8 8h1.067c0.707 0 0.713-1.067 0-1.067h-1.067c-3.836 0-6.933-3.098-6.933-6.933 0-3.834 3.095-6.931 6.929-6.933 0.304 0.002 0.608 0.025 0.909 0.067 0.228 0.032 0.452-0.085 0.555-0.294 1.514-3.12 4.671-5.101 8.141-5.106 5.013 0 9.067 4.053 9.067 9.067-0.002 0.343-0.023 0.686-0.064 1.027-0.037 0.299 0.178 0.565 0.477 0.595 2.19 0.212 3.854 2.045 3.854 4.244 0 2.363-1.904 4.267-4.267 4.267h-2.667c-0.731 0-0.681 1.067 0 1.067z"></path>
</svg>
