<!-- Generated by IcoMoon.io -->
<svg version="1.1" xmlns="http://www.w3.org/2000/svg" width="32" height="32" viewBox="0 0 32 32">
<title>mbri-underline</title>
<path d="M5.333 0.533v12.299c0 5.874 4.77 10.635 10.667 10.635s10.667-4.762 10.667-10.635v-12.299c0-0.279-0.254-0.533-0.533-0.533h-4.267c-0.279 0-0.533 0.254-0.533 0.533v12.267c0 2.958-2.368 5.333-5.333 5.333s-5.333-2.375-5.333-5.333v-12.267c0-0.279-0.254-0.533-0.533-0.533h-4.267c-0.359 0-0.533 0.245-0.533 0.533zM6.4 1.067h3.2v11.733c0 3.531 2.864 6.4 6.4 6.4s6.4-2.869 6.4-6.4v-11.733h3.2v11.765c0 5.297-4.273 9.568-9.6 9.568s-9.6-4.271-9.6-9.568zM5.333 27.2v4.267c0 0.279 0.254 0.533 0.533 0.533h20.267c0.279 0 0.533-0.254 0.533-0.533v-4.267c0-0.279-0.254-0.533-0.533-0.533h-20.267c-0.335 0-0.533 0.267-0.533 0.533zM6.4 27.733h19.2v3.2h-19.2z"></path>
</svg>
