<!-- Generated by IcoMoon.io -->
<svg version="1.1" xmlns="http://www.w3.org/2000/svg" width="32" height="32" viewBox="0 0 32 32">
<title>mbri-image-slider</title>
<path d="M20.8 9.6c-0.525-0.004-0.977 0.258-1.165 0.501l-2.919 3.687c-0.181 0.222-0.587 0.078-0.775-0.032l-2.619-1.65c-0.309-0.203-0.661-0.373-1.054-0.373-0.405 0-0.838 0.122-1.143 0.463l-3.513 3.972c-0.475 0.531 0.32 1.244 0.796 0.713l3.514-3.972c0.233-0.25 0.571-0.053 0.816 0.090l2.637 1.662c0.326 0.203 0.693 0.269 1.054 0.273 0.363 0.004 0.757-0.029 1.051-0.384l2.951-3.733c0.231-0.281 0.57-0.149 0.794 0.043l2.404 1.801c0.562 0.509 1.285-0.4 0.661-0.832l-2.402-1.803c-0.285-0.224-0.646-0.425-1.087-0.425zM8 18.133h16c0.295 0 0.533 0.238 0.533 0.533s-0.238 0.533-0.533 0.533h-16c-0.295 0-0.533-0.238-0.533-0.533s0.238-0.533 0.533-0.533zM11.733 5.333c-1.173 0-2.133 0.96-2.133 2.133s0.96 2.133 2.133 2.133 2.133-0.96 2.133-2.133-0.96-2.133-2.133-2.133zM11.733 6.4c0.595 0 1.067 0.471 1.067 1.067s-0.471 1.067-1.067 1.067-1.067-0.471-1.067-1.067 0.471-1.067 1.067-1.067zM26.667 27.2c0 0.295-0.239 0.533-0.533 0.533v0c-0.295 0-0.533-0.239-0.533-0.533v0c0-0.295 0.239-0.533 0.533-0.533v0c0.295 0 0.533 0.239 0.533 0.533v0zM6.4 27.2c0 0.295-0.239 0.533-0.533 0.533v0c-0.295 0-0.533-0.239-0.533-0.533v0c0-0.295 0.239-0.533 0.533-0.533v0c0.295 0 0.533 0.239 0.533 0.533v0zM16 25.6c-1.173 0-2.133 0.96-2.133 2.133s0.96 2.133 2.133 2.133 2.133-0.96 2.133-2.133-0.96-2.133-2.133-2.133zM16 26.667c0.601 0 1.067 0.466 1.067 1.067s-0.466 1.067-1.067 1.067-1.067-0.466-1.067-1.067 0.466-1.067 1.067-1.067zM28.267 3.2c-0.709 0-0.691 1.067 0 1.067h2.133c0.305 0 0.533 0.228 0.533 0.533v14.933c0 0.305-0.228 0.533-0.533 0.533h-2.133c-0.698 0-0.704 1.067 0 1.067h2.133c0.877 0 1.6-0.723 1.6-1.6v-14.933c0-0.877-0.723-1.6-1.6-1.6zM1.6 3.2c-0.877 0-1.6 0.723-1.6 1.6v14.933c0 0.877 0.723 1.6 1.6 1.6h2.133c0.704 0 0.709-1.067 0-1.067h-2.133c-0.305 0-0.533-0.228-0.533-0.533v-14.933c0-0.305 0.228-0.533 0.533-0.533h2.133c0.704 0 0.704-1.067 0-1.067zM6.933 2.133c-0.877 0-1.6 0.723-1.6 1.6v17.067c0 0.877 0.723 1.6 1.6 1.6h18.133c0.877 0 1.6-0.723 1.6-1.6v-17.067c0-0.877-0.723-1.6-1.6-1.6zM6.933 3.2h18.133c0.305 0 0.533 0.228 0.533 0.533v17.067c0 0.305-0.228 0.533-0.533 0.533h-18.133c-0.305 0-0.533-0.228-0.533-0.533v-17.067c0-0.305 0.228-0.533 0.533-0.533z"></path>
</svg>
