<!-- Generated by IcoMoon.io -->
<svg version="1.1" xmlns="http://www.w3.org/2000/svg" width="32" height="32" viewBox="0 0 32 32">
<title>mbri-user2</title>
<path d="M16 0c-8.83 0-16 7.17-16 16s7.17 16 16 16c8.83 0 16-7.17 16-16s-7.17-16-16-16zM16 1.067c8.254 0 14.933 6.679 14.933 14.933s-6.679 14.933-14.933 14.933-14.933-6.679-14.933-14.933 6.679-14.933 14.933-14.933zM16 5.333c-2.427 0-3.875 1.235-4.576 2.704-0.699 1.469-0.757 3.139-0.757 4.229 0 3.111-2.938 4.875-2.938 4.875-0.299 0.177-0.352 0.589-0.107 0.836 0 0 1.207 1.222 3.044 1.222 1.468 0 2.492-0.659 3.2-1.307v0.773c0 0.21-0.068 0.379-0.235 0.565-0.163 0.189-0.433 0.379-0.784 0.537-0.701 0.316-1.71 0.499-2.715 0.498-2.459-0.002-4.8 2.155-4.8 4.8 0 0.708 1.067 0.708 1.067 0 0-1.991 1.925-3.733 3.733-3.733 1.129 0 2.253-0.188 3.152-0.592 0.448-0.203 0.846-0.461 1.148-0.804 0.303-0.341 0.501-0.786 0.501-1.269v-2.133c0.002-0.533-0.693-0.739-0.981-0.291 0 0-1.263 1.891-3.285 1.891-0.853 0-1.426-0.304-1.817-0.571 0.802-0.558 2.882-2.156 2.882-5.297 0-1.043 0.083-2.573 0.654-3.771s1.522-2.096 3.613-2.096 3.042 0.898 3.613 2.096c0.571 1.198 0.654 2.727 0.654 3.771 0 3.141 2.080 4.739 2.883 5.296-0.39 0.267-0.963 0.571-1.817 0.571-2.022 0-3.285-1.891-3.285-1.891-0.288-0.448-0.983-0.241-0.981 0.291v2.133c0 0.483 0.198 0.928 0.501 1.269 0.301 0.345 0.698 0.604 1.147 0.805 0.899 0.405 2.023 0.593 3.152 0.592 1.808 0 3.733 1.742 3.733 3.733 0 0.713 1.067 0.708 1.067 0 0-2.645-2.341-4.802-4.8-4.8-1.005 0-2.014-0.181-2.715-0.498-0.352-0.158-0.621-0.348-0.785-0.535-0.166-0.187-0.235-0.355-0.235-0.565v-0.773c0.708 0.647 1.732 1.307 3.2 1.307 1.837 0 3.044-1.222 3.044-1.222 0.245-0.247 0.192-0.659-0.107-0.836 0 0-2.938-1.763-2.938-4.875 0-1.090-0.059-2.761-0.757-4.229-0.701-1.47-2.149-2.705-4.575-2.705z"></path>
</svg>
