<!-- Generated by IcoMoon.io -->
<svg version="1.1" xmlns="http://www.w3.org/2000/svg" width="32" height="32" viewBox="0 0 32 32">
<title>mbri-website-theme</title>
<path d="M18.667 16c-0.85 0-1.553 0.335-2.005 0.846-0.452 0.512-0.661 1.171-0.661 1.821 0 0.832-0.606 1.513-0.864 1.714-0.397 0.314-0.176 0.951 0.331 0.953h2.667c0.838 0 1.618-0.245 2.21-0.706s0.99-1.163 0.99-1.961c0-0.729-0.206-1.408-0.672-1.904-0.469-0.496-1.17-0.763-1.995-0.763zM18.667 17.067c0.608 0 0.975 0.171 1.216 0.427 0.242 0.256 0.384 0.642 0.384 1.173 0 0.461-0.203 0.828-0.576 1.12-0.377 0.29-0.93 0.48-1.557 0.48h-1.518c0.253-0.427 0.45-0.96 0.45-1.6 0-0.416 0.139-0.823 0.393-1.113 0.256-0.288 0.622-0.487 1.207-0.487zM31.236 5.344c-0.134 0.016-0.249 0.051-0.375 0.096-0.254 0.085-0.547 0.224-0.894 0.399-0.693 0.352-1.575 0.867-2.507 1.456-1.867 1.177-3.904 2.621-4.951 3.667-0.997 0.996-1.724 1.903-2.065 2.813-0.341 0.909-0.198 1.895 0.51 2.603 0.709 0.709 1.696 0.853 2.605 0.512 0.91-0.341 1.817-1.069 2.813-2.065 1.045-1.049 2.491-3.086 3.669-4.949 0.589-0.934 1.104-1.818 1.456-2.51 0.176-0.346 0.313-0.64 0.4-0.894 0.043-0.128 0.077-0.241 0.092-0.375 0.014-0.134 0.050-0.349-0.178-0.576-0.228-0.229-0.441-0.192-0.576-0.178zM30.546 6.884c-0.327 0.643-0.832 1.51-1.408 2.421-1.152 1.827-2.624 3.87-3.52 4.766-0.947 0.946-1.79 1.579-2.435 1.821-0.644 0.24-1.018 0.189-1.475-0.267-0.455-0.459-0.507-0.832-0.267-1.476 0.243-0.644 0.875-1.487 1.824-2.432 0.896-0.896 2.938-2.368 4.764-3.52 0.913-0.578 1.779-1.083 2.423-1.41 0.143-0.038 0.139 0.023 0.096 0.096zM2.667 8.533h18.133c0.295 0 0.533 0.238 0.533 0.533s-0.238 0.533-0.533 0.533h-18.133c-0.295 0-0.533-0.238-0.533-0.533s0.238-0.533 0.533-0.533zM7.467 6.933c0 0.294-0.239 0.533-0.533 0.533s-0.533-0.239-0.533-0.533 0.239-0.533 0.533-0.533 0.533 0.239 0.533 0.533zM5.333 6.933c0 0.294-0.239 0.533-0.533 0.533s-0.533-0.239-0.533-0.533 0.239-0.533 0.533-0.533 0.533 0.239 0.533 0.533zM3.2 6.933c0 0.294-0.239 0.533-0.533 0.533s-0.533-0.239-0.533-0.533 0.239-0.533 0.533-0.533 0.533 0.239 0.533 0.533zM1.6 4.267c-0.877 0-1.6 0.723-1.6 1.6v20.267c0 0.877 0.723 1.6 1.6 1.6h26.667c0.877 0 1.6-0.723 1.6-1.6v-12.8c0-0.713-1.067-0.709-1.067 0v12.8c0 0.305-0.228 0.533-0.533 0.533h-26.667c-0.305 0-0.533-0.228-0.533-0.533v-20.267c0-0.305 0.228-0.533 0.533-0.533h26.667c0.709 0 0.701-1.067 0-1.067z"></path>
</svg>
