<!-- Generated by IcoMoon.io -->
<svg version="1.1" xmlns="http://www.w3.org/2000/svg" width="32" height="32" viewBox="0 0 32 32">
<title>mbri-cust-feedback</title>
<path d="M21.867 9.6s-0.32 0-0.427 0.213l-5.76 5.867-0.64 0.32c-0.213 0-0.427 0-0.64-0.32l-2.667-2.667c-0.64-0.533-1.387 0.213-0.853 0.747l2.56 2.56c0.427 0.427 1.067 0.64 1.493 0.64 0.533 0 1.067-0.213 1.493-0.64l5.973-5.653c0.213-0.427 0-1.067-0.533-1.067zM1.6 1.067c-0.853 0-1.6 0.747-1.6 1.6v20.267c0 0.853 0.747 1.6 1.6 1.6h3.733v4.8c0 0.32 0 0.64 0.213 1.067 0 0.213 0.427 0.427 0.64 0.533 0.64 0 1.067-0.213 1.707-0.747l5.653-5.653h16.853c0.853 0 1.6-0.747 1.6-1.6v-20.267c0-0.853-0.747-1.6-1.6-1.6zM1.6 2.133h28.8c0.32 0 0.533 0.213 0.533 0.533v20.267c0 0.32-0.213 0.533-0.533 0.533h-17.493l-5.76 6.080c-0.533 0.533-0.64 0-0.64-0.213v-5.333c0-0.32-0.213-0.533-0.533-0.533h-4.267c-0.32 0-0.533-0.213-0.533-0.533v-20.267c0-0.32 0.213-0.533 0.533-0.533z"></path>
</svg>
