<!-- Generated by IcoMoon.io -->
<svg version="1.1" xmlns="http://www.w3.org/2000/svg" width="32" height="32" viewBox="0 0 32 32">
<title>mbri-android</title>
<path d="M26.162 1.067c0.421 0 0.629 0.486 0.425 0.815l-3.195 5.326c-0.363 0.604-1.237 0.011-0.917-0.548l3.197-5.327c0.1-0.175 0.29-0.267 0.491-0.267zM5.838 1.067c-0.4 0.007-0.629 0.485-0.425 0.815l3.195 5.326c0.361 0.601 1.252 0.011 0.917-0.548l-3.198-5.326c-0.098-0.176-0.29-0.272-0.49-0.267zM20.8 13.867c-0.877 0-1.6 0.723-1.6 1.6v2.133c0 0.877 0.723 1.6 1.6 1.6s1.6-0.723 1.6-1.6v-2.133c0-0.877-0.723-1.6-1.6-1.6zM20.8 14.933c0.305 0 0.533 0.228 0.533 0.533v2.133c0 0.305-0.228 0.533-0.533 0.533s-0.533-0.228-0.533-0.533v-2.133c0-0.305 0.228-0.533 0.533-0.533zM11.2 13.867c-0.877 0-1.6 0.723-1.6 1.6v2.133c0 0.877 0.723 1.6 1.6 1.6s1.6-0.723 1.6-1.6v-2.133c0-0.877-0.723-1.6-1.6-1.6zM11.2 14.933c0.305 0 0.533 0.228 0.533 0.533v2.133c0 0.305-0.228 0.533-0.533 0.533s-0.533-0.228-0.533-0.533v-2.133c0-0.305 0.228-0.533 0.533-0.533zM1.6 23.467c-0.877 0-1.6 0.723-1.6 1.6v4.267c0 0.877 0.723 1.6 1.6 1.6h28.8c0.877 0 1.6-0.723 1.6-1.6v-4.267c0-0.877-0.723-1.6-1.6-1.6zM1.6 24.533h28.8c0.305 0 0.533 0.228 0.533 0.533v4.267c0 0.305-0.228 0.533-0.533 0.533h-28.8c-0.305 0-0.533-0.228-0.533-0.533v-4.267c0-0.305 0.228-0.533 0.533-0.533zM16 7.467c-7.534 0.011-14.11 5.008-15.934 12.135l-0.003 0.013s-0.164 0.634 0.034 1.33c0.099 0.348 0.303 0.731 0.672 1.013 0.37 0.281 0.88 0.441 1.515 0.441h27.426c0.635 0 1.147-0.16 1.515-0.442 0.371-0.282 0.576-0.665 0.674-1.013 0.199-0.695 0.039-1.33 0.039-1.33l-0.004-0.014c-1.822-7.126-8.399-12.126-15.934-12.133zM16 8.533c7.061 0.006 13.195 4.678 14.898 11.321 0 0.002 0.083 0.43-0.023 0.8-0.053 0.186-0.139 0.336-0.293 0.454-0.157 0.117-0.409 0.224-0.87 0.224h-27.424c-0.464 0-0.715-0.107-0.87-0.224-0.156-0.119-0.239-0.27-0.291-0.455-0.105-0.367-0.025-0.785-0.023-0.794 1.703-6.643 7.837-11.315 14.898-11.326z"></path>
</svg>
