<!-- Generated by IcoMoon.io -->
<svg version="1.1" xmlns="http://www.w3.org/2000/svg" width="32" height="32" viewBox="0 0 32 32">
<title>mbri-music</title>
<path d="M27.031-0.050c-0.164 0-0.333 0.023-0.501 0.069-3.998 1.071-7.236 2.138-11.2 3.2-0.868 0.231-1.504 0.581-1.926 1.050-0.422 0.469-0.604 1.045-0.604 1.598 0 6.037 0.035 17.246 0.039 18.613-1.067-1.269-2.859-2.080-4.839-2.080-3.177 0-5.867 2.083-5.867 4.8s2.69 4.8 5.867 4.8 5.867-2.083 5.867-4.8v-21.333c0-0.338 0.085-0.612 0.331-0.881 0.242-0.27 0.674-0.542 1.408-0.738 3.996-1.071 7.234-2.138 11.2-3.2 0.387-0.103 0.518-0.032 0.661 0.131s0.267 0.51 0.267 0.955v18.042c-1.072-1.245-2.841-2.042-4.8-2.042-3.177 0-5.867 2.083-5.867 4.8s2.69 4.8 5.867 4.8 5.867-2.083 5.867-4.8v-20.8c0-0.622-0.143-1.218-0.533-1.661-0.292-0.331-0.742-0.523-1.235-0.523zM26.121 6.398c-0.048 0.002-0.096 0.011-0.142 0.025l-10.667 3.2c-0.704 0.194-0.299 1.225 0.309 1.024l10.667-3.2c0.597-0.173 0.455-1.047-0.167-1.047zM22.933 19.2c2.715 0 4.8 1.739 4.8 3.733s-2.085 3.733-4.8 3.733-4.8-1.739-4.8-3.733 2.085-3.733 4.8-3.733zM8 23.467c2.715 0 4.8 1.739 4.8 3.733s-2.085 3.733-4.8 3.733-4.8-1.739-4.8-3.733 2.085-3.733 4.8-3.733z"></path>
</svg>
