<!-- Generated by IcoMoon.io -->
<svg version="1.1" xmlns="http://www.w3.org/2000/svg" width="32" height="32" viewBox="0 0 32 32">
<title>mbri-plus</title>
<path d="M17.067 15.467c0-0.32 0.213-0.533 0.533-0.533h12.8c0.32 0 0.533 0.213 0.533 0.533s-0.213 0.533-0.533 0.533h-12.8c-0.32 0-0.533-0.213-0.533-0.533zM0 15.467c0-0.32 0.213-0.533 0.533-0.533h12.8c0.32 0 0.533 0.213 0.533 0.533s-0.213 0.533-0.533 0.533h-12.8c-0.32 0-0.533-0.213-0.533-0.533zM15.467 0c0.32 0 0.533 0.213 0.533 0.533v29.867c0 0.32-0.213 0.533-0.533 0.533s-0.533-0.213-0.533-0.533v-29.867c0-0.32 0.213-0.533 0.533-0.533z"></path>
</svg>
