<!-- Generated by IcoMoon.io -->
<svg version="1.1" xmlns="http://www.w3.org/2000/svg" width="32" height="32" viewBox="0 0 32 32">
<title>mbri-calendar</title>
<path d="M14.4 20.267h3.2c0.295 0 0.533 0.238 0.533 0.533s-0.238 0.533-0.533 0.533h-3.2c-0.295 0-0.533-0.238-0.533-0.533s0.238-0.533 0.533-0.533zM22.933 20.267h3.2c0.295 0 0.533 0.238 0.533 0.533s-0.238 0.533-0.533 0.533h-3.2c-0.295 0-0.533-0.238-0.533-0.533s0.238-0.533 0.533-0.533zM5.867 20.267h3.2c0.295 0 0.533 0.238 0.533 0.533s-0.238 0.533-0.533 0.533h-3.2c-0.295 0-0.533-0.238-0.533-0.533s0.238-0.533 0.533-0.533zM14.4 13.867h3.2c0.295 0 0.533 0.238 0.533 0.533s-0.238 0.533-0.533 0.533h-3.2c-0.295 0-0.533-0.238-0.533-0.533s0.238-0.533 0.533-0.533zM22.933 13.867h3.2c0.295 0 0.533 0.238 0.533 0.533s-0.238 0.533-0.533 0.533h-3.2c-0.295 0-0.533-0.238-0.533-0.533s0.238-0.533 0.533-0.533zM5.867 13.867h3.2c0.295 0 0.533 0.238 0.533 0.533s-0.238 0.533-0.533 0.533h-3.2c-0.295 0-0.533-0.238-0.533-0.533s0.238-0.533 0.533-0.533zM25.067 3.2c0.295 0 0.533 0.238 0.533 0.533v4.267c0 0.295-0.238 0.533-0.533 0.533s-0.533-0.238-0.533-0.533v-4.267c0-0.295 0.238-0.533 0.533-0.533zM6.933 3.2c0.295 0 0.533 0.238 0.533 0.533v4.267c0 0.295-0.238 0.533-0.533 0.533s-0.533-0.238-0.533-0.533v-4.267c0-0.295 0.238-0.533 0.533-0.533zM1.6 5.333c-0.877 0-1.6 0.723-1.6 1.6v20.267c0 0.877 0.723 1.6 1.6 1.6h28.8c0.877 0 1.6-0.723 1.6-1.6v-20.267c0-0.877-0.723-1.6-1.6-1.6h-3.2c-0.7 0-0.708 1.067 0 1.067h3.2c0.305 0 0.533 0.228 0.533 0.533v20.267c0 0.305-0.228 0.533-0.533 0.533h-28.8c-0.305 0-0.533-0.228-0.533-0.533v-20.267c0-0.305 0.228-0.533 0.533-0.533h3.2c0.717 0 0.704-1.067 0-1.067zM9.067 5.333c-0.693 0-0.704 1.067 0 1.067h13.867c0.7 0 0.713-1.067 0-1.067z"></path>
</svg>
