<!-- Generated by IcoMoon.io -->
<svg version="1.1" xmlns="http://www.w3.org/2000/svg" width="32" height="32" viewBox="0 0 32 32">
<title>mbri-zoom-out</title>
<path d="M16.533 9.6h9.6c0.74 0 0.668 1.067 0 1.067h-9.6c-0.707 0-0.704-1.067 0-1.067zM10.833 18.293l-10.15 10.135c-0.956 0.953-0.828 2.275-0.112 2.997 0.715 0.719 2.041 0.848 2.997-0.11l10.123-10.123c0.525-0.503-0.267-1.261-0.753-0.755l-10.123 10.123c-0.619 0.619-1.141 0.459-1.489 0.111-0.348-0.35-0.501-0.881 0.109-1.49l10.151-10.137c0.464-0.463-0.267-1.242-0.754-0.754zM21.333 0c-5.885 0-10.667 4.782-10.667 10.667s4.782 10.667 10.667 10.667 10.667-4.782 10.667-10.667-4.782-10.667-10.667-10.667zM21.333 1.067c5.308 0 9.6 4.291 9.6 9.6 0 5.308-4.292 9.6-9.6 9.6s-9.6-4.292-9.6-9.6c0-5.309 4.292-9.6 9.6-9.6z"></path>
</svg>
