<!-- Generated by IcoMoon.io -->
<svg version="1.1" xmlns="http://www.w3.org/2000/svg" width="32" height="32" viewBox="0 0 32 32">
<title>mbri-photo</title>
<path d="M22.578 12.8c-0.429 0-0.811 0.221-1.088 0.512l-6.393 6.716c-0.277 0.309-0.579 0.286-0.845 0l-3.196-3.467c-0.32-0.346-0.732-0.555-1.181-0.561-0.45-0.005-0.868 0.219-1.189 0.579l-5.316 5.966c-0.512 0.512 0.277 1.291 0.786 0.727l5.318-5.966c0.379-0.437 0.668-0.164 0.828 0.019l3.196 3.467c0.318 0.347 0.732 0.541 1.175 0.541s0.853-0.199 1.175-0.54l6.393-6.717c0.331-0.338 0.659-0.173 0.845 0l4.786 4.945c0.501 0.531 1.277-0.256 0.754-0.766l-4.787-4.944c-0.361-0.373-0.817-0.512-1.264-0.512zM3.733 25.6h24.533c0.295 0 0.533 0.238 0.533 0.533s-0.238 0.533-0.533 0.533h-24.533c-0.295 0-0.533-0.238-0.533-0.533s0.238-0.533 0.533-0.533zM9.067 6.4c-1.467 0-2.667 1.2-2.667 2.667s1.2 2.667 2.667 2.667 2.667-1.2 2.667-2.667-1.2-2.667-2.667-2.667zM9.067 7.467c0.89 0 1.6 0.71 1.6 1.6s-0.71 1.6-1.6 1.6-1.6-0.71-1.6-1.6 0.71-1.6 1.6-1.6zM1.6 0c-0.877 0-1.6 0.723-1.6 1.6v28.8c0 0.877 0.723 1.6 1.6 1.6h28.8c0.877 0 1.6-0.723 1.6-1.6v-28.8c0-0.877-0.723-1.6-1.6-1.6zM1.6 1.067h28.8c0.305 0 0.533 0.228 0.533 0.533v28.8c0 0.305-0.228 0.533-0.533 0.533h-28.8c-0.305 0-0.533-0.228-0.533-0.533v-28.8c0-0.305 0.228-0.533 0.533-0.533z"></path>
</svg>
