<!-- Generated by IcoMoon.io -->
<svg version="1.1" xmlns="http://www.w3.org/2000/svg" width="32" height="32" viewBox="0 0 32 32">
<title>mbri-mobile2</title>
<path d="M9.067 27.733h13.867c0.32 0 0.533-0.213 0.533-0.533s-0.213-0.533-0.533-0.533h-13.867c-0.32 0-0.533 0.213-0.533 0.533s0.213 0.533 0.533 0.533zM14.4 29.867h3.2c0.32 0 0.533-0.213 0.533-0.533s-0.213-0.533-0.533-0.533h-3.2c-0.32 0-0.533 0.213-0.533 0.533s0.213 0.533 0.533 0.533zM9.067 4.267h13.867c0.32 0 0.533 0.213 0.533 0.533s-0.213 0.533-0.533 0.533h-13.867c-0.32 0-0.533-0.213-0.533-0.533s0.213-0.533 0.533-0.533zM14.4 2.133h3.2c0.32 0 0.533 0.213 0.533 0.533s-0.213 0.533-0.533 0.533h-3.2c-0.32 0-0.533-0.213-0.533-0.533s0.213-0.533 0.533-0.533zM8 0c-0.853 0-1.6 0.747-1.6 1.6v28.8c0 0.853 0.747 1.6 1.6 1.6h16c0.853 0 1.6-0.747 1.6-1.6v-28.8c0-0.853-0.747-1.6-1.6-1.6h-16zM8 1.067h16c0.32 0 0.533 0.213 0.533 0.533v28.8c0 0.32-0.213 0.533-0.533 0.533h-16c-0.32 0-0.533-0.213-0.533-0.533v-28.8c0-0.32 0.213-0.533 0.533-0.533z"></path>
</svg>
