<!-- Generated by IcoMoon.io -->
<svg version="1.1" xmlns="http://www.w3.org/2000/svg" width="32" height="32" viewBox="0 0 32 32">
<title>mbri-sites</title>
<path d="M13.333 19.2h13.867c0.295 0 0.533 0.238 0.533 0.533s-0.238 0.533-0.533 0.533h-13.867c-0.295 0-0.533-0.238-0.533-0.533s0.238-0.533 0.533-0.533zM13.333 16h13.867c0.295 0 0.533 0.238 0.533 0.533s-0.238 0.533-0.533 0.533h-13.867c-0.295 0-0.533-0.238-0.533-0.533s0.238-0.533 0.533-0.533zM5.867 13.867c-0.877 0-1.6 0.723-1.6 1.6v5.333c0 0.877 0.723 1.6 1.6 1.6h3.2c0.877 0 1.6-0.723 1.6-1.6v-5.333c0-0.877-0.723-1.6-1.6-1.6h-3.2zM5.867 14.933h3.2c0.305 0 0.533 0.228 0.533 0.533v5.333c0 0.305-0.228 0.533-0.533 0.533h-3.2c-0.305 0-0.533-0.228-0.533-0.533v-5.333c0-0.305 0.228-0.533 0.533-0.533zM2.667 8.533h26.667c0.295 0 0.533 0.238 0.533 0.533s-0.238 0.533-0.533 0.533h-26.667c-0.295 0-0.533-0.238-0.533-0.533s0.238-0.533 0.533-0.533zM7.467 6.933c0 0.295-0.239 0.533-0.533 0.533v0c-0.295 0-0.533-0.239-0.533-0.533v0c0-0.295 0.239-0.533 0.533-0.533v0c0.295 0 0.533 0.239 0.533 0.533v0zM5.333 6.933c0 0.295-0.239 0.533-0.533 0.533v0c-0.295 0-0.533-0.239-0.533-0.533v0c0-0.295 0.239-0.533 0.533-0.533v0c0.295 0 0.533 0.239 0.533 0.533v0zM3.2 6.933c0 0.295-0.239 0.533-0.533 0.533v0c-0.295 0-0.533-0.239-0.533-0.533v0c0-0.295 0.239-0.533 0.533-0.533v0c0.295 0 0.533 0.239 0.533 0.533v0zM1.6 4.267c-0.877 0-1.6 0.723-1.6 1.6v20.267c0 0.877 0.723 1.6 1.6 1.6h28.8c0.877 0 1.6-0.723 1.6-1.6v-20.267c0-0.877-0.723-1.6-1.6-1.6h-28.8zM1.6 5.333h28.8c0.305 0 0.533 0.228 0.533 0.533v20.267c0 0.305-0.228 0.533-0.533 0.533h-28.8c-0.305 0-0.533-0.228-0.533-0.533v-20.267c0-0.305 0.228-0.533 0.533-0.533z"></path>
</svg>
