<!-- Generated by IcoMoon.io -->
<svg version="1.1" xmlns="http://www.w3.org/2000/svg" width="32" height="32" viewBox="0 0 32 32">
<title>mbri-video-play</title>
<path d="M29.333 19.2c-0.295 0-0.533 0.238-0.533 0.533v3.2c0 0.295 0.238 0.533 0.533 0.533s0.533-0.238 0.533-0.533v-3.2c0-0.295-0.238-0.533-0.533-0.533zM29.333 13.867c-0.295 0-0.533 0.238-0.533 0.533v3.2c0 0.295 0.238 0.533 0.533 0.533s0.533-0.238 0.533-0.533v-3.2c0-0.295-0.238-0.533-0.533-0.533zM31.467 24.533h-2.133c-0.295 0-0.533 0.238-0.533 0.533s0.238 0.533 0.533 0.533h2.133c0.295 0 0.533-0.238 0.533-0.533s-0.238-0.533-0.533-0.533zM29.333 8.533c-0.295 0-0.533 0.238-0.533 0.533v3.2c0 0.295 0.238 0.533 0.533 0.533s0.533-0.238 0.533-0.533v-3.2c0-0.295-0.238-0.533-0.533-0.533zM31.467 6.4h-2.133c-0.295 0-0.533 0.238-0.533 0.533s0.238 0.533 0.533 0.533h2.133c0.295 0 0.533-0.238 0.533-0.533s-0.238-0.533-0.533-0.533zM2.667 19.2c0.295 0 0.533 0.238 0.533 0.533v3.2c0 0.295-0.238 0.533-0.533 0.533s-0.533-0.238-0.533-0.533v-3.2c0-0.295 0.238-0.533 0.533-0.533zM2.667 13.867c0.295 0 0.533 0.238 0.533 0.533v3.2c0 0.295-0.238 0.533-0.533 0.533s-0.533-0.238-0.533-0.533v-3.2c0-0.295 0.238-0.533 0.533-0.533zM0.533 24.533h2.133c0.295 0 0.533 0.238 0.533 0.533s-0.238 0.533-0.533 0.533h-2.133c-0.295 0-0.533-0.238-0.533-0.533s0.238-0.533 0.533-0.533zM2.667 8.533c0.295 0 0.533 0.238 0.533 0.533v3.2c0 0.295-0.238 0.533-0.533 0.533s-0.533-0.238-0.533-0.533v-3.2c0-0.295 0.238-0.533 0.533-0.533zM0.533 6.4h2.133c0.295 0 0.533 0.238 0.533 0.533s-0.238 0.533-0.533 0.533h-2.133c-0.295 0-0.533-0.238-0.533-0.533s0.238-0.533 0.533-0.533zM5.867 6.4c-0.877 0-1.6 0.723-1.6 1.6v16c0 0.877 0.723 1.6 1.6 1.6h20.267c0.877 0 1.6-0.723 1.6-1.6v-16c0-0.877-0.723-1.6-1.6-1.6h-20.267zM5.867 7.467h20.267c0.305 0 0.533 0.228 0.533 0.533v16c0 0.305-0.228 0.533-0.533 0.533h-20.267c-0.305 0-0.533-0.228-0.533-0.533v-16c0-0.305 0.228-0.533 0.533-0.533zM13.712 10.735c-0.539 0.174-0.912 0.725-0.912 1.331v7.866c0 0.612 0.378 1.167 0.917 1.338 0.544 0.171 1.155-0.004 1.681-0.434l3.799-3.113c0.624-0.512 1.067-1.058 1.069-1.723s-0.443-1.221-1.073-1.728c-0.672-0.54-2.528-2.073-3.795-3.111-0.53-0.434-1.147-0.599-1.685-0.427zM14.723 11.989c1.265 1.035 3.111 2.56 3.802 3.115 0.517 0.416 0.676 0.713 0.675 0.896 0 0.183-0.165 0.475-0.679 0.896l-3.797 3.113c-0.469 0.469-0.857 0.195-0.857-0.077v-7.866c0-0.579 0.508-0.427 0.857-0.077z"></path>
</svg>
