<!-- Generated by IcoMoon.io -->
<svg version="1.1" xmlns="http://www.w3.org/2000/svg" width="32" height="32" viewBox="0 0 32 32">
<title>mbri-bold</title>
<path d="M6.4 0.533v30.933c0 0.279 0.254 0.533 0.533 0.533h10.133c5.309 0 9.6-4.291 9.6-9.6 0-3.225-1.6-6.059-4.032-7.801 1.619-1.547 2.731-3.642 2.731-6.066 0-4.72-3.835-8.533-8.565-8.533h-9.867c-0.348 0-0.533 0.243-0.533 0.533zM16.8 1.067c4.16 0 7.499 3.323 7.499 7.467 0 2.329-1.067 4.397-2.731 5.766-0.267 0.207-0.25 0.681 0.032 0.867 2.395 1.505 4 4.174 4 7.233 0 4.736-3.797 8.537-8.533 8.533h-9.6v-29.867zM10.667 16.533v10.667c0 0.279 0.254 0.533 0.533 0.533h5.365c3.221 0 5.835-2.628 5.835-5.867s-2.613-5.867-5.835-5.867h-5.365c-0.323 0-0.533 0.254-0.533 0.533zM11.733 17.067h4.832c2.645 0 4.768 2.129 4.768 4.8s-2.125 4.8-4.768 4.8h-4.832zM10.667 4.8v7.467c0 0.279 0.254 0.533 0.533 0.533h5.867c2.354 0 4.267-1.913 4.267-4.267s-1.913-4.267-4.267-4.267h-5.867c-0.337 0-0.533 0.251-0.533 0.533zM11.733 5.333h5.333c1.781 0 3.2 1.419 3.2 3.2s-1.419 3.2-3.2 3.2h-5.333z"></path>
</svg>
