<!-- Generated by IcoMoon.io -->
<svg version="1.1" xmlns="http://www.w3.org/2000/svg" width="32" height="32" viewBox="0 0 32 32">
<title>mbri-pin</title>
<path d="M16 7.467c-2.94 0-5.333 2.394-5.333 5.333s2.394 5.333 5.333 5.333 5.333-2.394 5.333-5.333-2.394-5.333-5.333-5.333zM16 8.533c2.363 0 4.267 1.904 4.267 4.267s-1.904 4.267-4.267 4.267-4.267-1.904-4.267-4.267 1.904-4.267 4.267-4.267zM16 0c-7.061 0-12.8 5.739-12.8 12.8 0 4.213 2.481 8.932 5.263 12.651 1.39 1.861 2.861 3.467 4.169 4.624 0.654 0.578 1.266 1.043 1.821 1.376 0.555 0.331 1.039 0.549 1.547 0.549s0.992-0.218 1.547-0.55c0.555-0.331 1.168-0.797 1.822-1.376 1.308-1.155 2.779-2.763 4.169-4.622 2.783-3.718 5.264-8.438 5.264-12.652 0-7.061-5.739-12.8-12.8-12.8zM16 1.067c6.485 0 11.733 5.248 11.733 11.733 0 3.787-2.349 8.401-5.050 12.015-1.351 1.806-2.784 3.366-4.021 4.459-0.619 0.548-1.19 0.979-1.662 1.262-0.473 0.283-0.858 0.398-1.001 0.398s-0.528-0.115-1.001-0.398c-0.471-0.283-1.043-0.715-1.662-1.261-1.237-1.093-2.67-2.654-4.021-4.459-2.701-3.617-5.050-8.231-5.050-12.016 0-6.485 5.248-11.733 11.733-11.733z"></path>
</svg>
