<!-- Generated by IcoMoon.io -->
<svg version="1.1" xmlns="http://www.w3.org/2000/svg" width="32" height="32" viewBox="0 0 32 32">
<title>mbri-question</title>
<path d="M16.533 23.467c-0.878 0-1.6 0.722-1.6 1.6s0.722 1.6 1.6 1.6c0.877 0 1.6-0.722 1.6-1.6s-0.723-1.6-1.6-1.6zM16.533 24.533c0.301 0 0.533 0.233 0.533 0.533s-0.233 0.533-0.533 0.533c-0.301 0-0.533-0.233-0.533-0.533s0.233-0.533 0.533-0.533zM17.067 5.333c-2.118 0-4.058 1.321-5.013 2.701-0.56 0.809-0.316 1.792 0.288 2.276 0.301 0.242 0.695 0.384 1.109 0.345 0.416-0.039 0.83-0.271 1.131-0.661 0.731-0.951 1.472-1.46 2.485-1.46 0.295 0 0.976 0.219 1.41 0.601 0.455 0.4 0.723 0.86 0.723 1.533 0-0.067-0.058 0.252-0.349 0.64-0.294 0.393-0.785 0.896-1.316 1.429-0.533 0.531-1.117 1.103-1.618 1.771-0.497 0.663-0.985 1.507-0.985 2.56v3.725c-0.007 0.495 0.192 0.939 0.503 1.216 0.311 0.281 0.708 0.407 1.097 0.407s0.784-0.128 1.095-0.405c0.311-0.281 0.512-0.723 0.505-1.218v-3.725s0.057-0.252 0.348-0.64c0.294-0.393 0.785-0.896 1.316-1.429 0.531-0.531 1.117-1.103 1.617-1.771 0.497-0.663 0.986-1.507 0.986-2.56 0-1.653-0.785-3.035-1.811-3.936-1.012-0.887-2.26-1.397-3.521-1.397zM17.067 6.4c0.971 0 1.982 0.397 2.818 1.131 0.823 0.725 1.449 1.822 1.449 3.136 0 0.725-0.334 1.333-0.773 1.92-0.437 0.58-0.981 1.122-1.517 1.658-0.535 0.533-1.047 1.050-1.417 1.541-0.373 0.496-0.56 0.858-0.56 1.28v3.742c0.003 0.226-0.061 0.325-0.149 0.405-0.091 0.081-0.235 0.134-0.384 0.134s-0.293-0.053-0.384-0.133c-0.090-0.082-0.153-0.181-0.149-0.407v-3.74c0-0.725 0.334-1.333 0.772-1.92 0.437-0.58 0.981-1.122 1.517-1.658 0.535-0.533 1.049-1.050 1.417-1.541 0.373-0.496 0.561-0.858 0.561-1.28 0-0.983-0.459-1.781-1.086-2.333-0.651-0.573-1.44-0.868-2.114-0.868-1.589 0-2.675 1.022-3.332 1.877-0.149 0.192-0.27 0.239-0.384 0.25-0.111 0.011-0.235-0.030-0.341-0.115-0.213-0.171-0.356-0.437-0.079-0.837 0.926-1.334 2.458-2.241 4.137-2.241zM16 0c-8.83 0-16 7.17-16 16s7.17 16 16 16c8.83 0 16-7.17 16-16s-7.17-16-16-16zM16 1.067c8.254 0 14.933 6.679 14.933 14.933s-6.679 14.933-14.933 14.933-14.933-6.679-14.933-14.933 6.679-14.933 14.933-14.933z"></path>
</svg>
