<!-- Generated by IcoMoon.io -->
<svg version="1.1" xmlns="http://www.w3.org/2000/svg" width="32" height="32" viewBox="0 0 32 32">
<title>mbri-quote-left</title>
<path d="M8.019 26.667c1.523 0 3.021-0.657 4.121-1.731 1.103-1.074 1.727-2.523 1.727-4.133 0-1.483-0.657-2.851-1.421-4.017-0.762-1.163-1.662-2.165-2.411-3.225-0.433-0.611-0.817-1.242-1.088-1.904-0.273-0.661-0.432-1.373-0.414-2.054 0.034-1.305 0.777-2.59 1.884-3.281 0.477-0.297 0.199-1.088-0.382-0.977-2.823 0.533-5.433 2.080-7.253 4.304-1.818 2.224-2.782 5.077-2.782 7.952 0 2.133 0.683 4.466 2.096 6.217 0.707 0.875 1.594 1.614 2.613 2.119 1.018 0.506 2.161 0.731 3.31 0.731zM7.981 25.6c-0.96 0-1.931-0.19-2.798-0.621-0.869-0.431-1.643-1.067-2.259-1.831-1.232-1.526-1.857-3.442-1.857-5.548 0-2.615 0.885-5.25 2.542-7.275 1.188-1.453 2.816-2.439 4.558-3.147-0.425 0.727-0.678 1.568-0.7 2.421-0.021 0.864 0.178 1.692 0.494 2.461 0.316 0.766 0.743 1.463 1.205 2.112 0.794 1.124 1.683 2.123 2.386 3.195 0.701 1.070 1.248 2.242 1.248 3.431 0 1.235-0.512 2.5-1.404 3.371-0.896 0.875-2.151 1.427-3.415 1.427zM26.153 26.667c1.523 0 3.021-0.657 4.121-1.731 1.103-1.074 1.727-2.525 1.727-4.135 0-1.483-0.657-2.848-1.421-4.015-0.762-1.163-1.662-2.165-2.411-3.225-0.433-0.611-0.817-1.242-1.088-1.904-0.273-0.661-0.432-1.373-0.414-2.054 0.034-1.305 0.777-2.59 1.884-3.281 0.477-0.297 0.199-1.088-0.382-0.977-2.823 0.533-5.433 2.080-7.253 4.304-1.818 2.224-2.782 5.081-2.782 7.954 0 2.133 0.683 4.464 2.096 6.214 0.707 0.875 1.594 1.614 2.613 2.119 1.018 0.506 2.161 0.731 3.31 0.731zM26.114 25.6c-0.96 0-1.931-0.19-2.798-0.621-0.869-0.431-1.643-1.067-2.259-1.831-1.232-1.526-1.857-3.44-1.857-5.545 0-2.615 0.885-5.252 2.542-7.277 1.188-1.453 2.816-2.439 4.558-3.147-0.425 0.726-0.678 1.567-0.7 2.42-0.021 0.864 0.178 1.692 0.494 2.461 0.316 0.766 0.743 1.463 1.205 2.112 0.794 1.124 1.683 2.123 2.386 3.195 0.701 1.070 1.248 2.24 1.248 3.429 0 1.235-0.512 2.502-1.404 3.373-0.896 0.875-2.151 1.427-3.415 1.427z"></path>
</svg>
