<!-- Generated by IcoMoon.io -->
<svg version="1.1" xmlns="http://www.w3.org/2000/svg" width="32" height="32" viewBox="0 0 32 32">
<title>mbri-edit</title>
<path d="M29.856 6.866c-0.619-0.619-1.643-0.619-2.261 0l-0.462 0.461c-0.619 0.619-0.619 1.643 0 2.261l1.678 1.679c0.621 0.619 1.643 0.619 2.263 0l0.461-0.462c0.619-0.619 0.619-1.641 0-2.261l-1.679-1.678zM29.103 7.62l1.678 1.678c0.215 0.215 0.215 0.539 0 0.754l-0.462 0.462c-0.213 0.215-0.539 0.215-0.754 0l-1.678-1.678c-0.215-0.215-0.215-0.539 0-0.754l0.462-0.462c0.215-0.215 0.539-0.215 0.754 0zM25.466 9.604c-0.32-0.026-0.71 0.064-1.001 0.356l-10.976 10.995c-0.199 0.203-0.411 0.412-0.537 0.738-0.125 0.326-0.151 0.683-0.151 1.239v1.6c0 0.539 0.459 1.067 1.067 1.067h1.6c0.559 0 0.923-0.032 1.248-0.158 0.326-0.128 0.537-0.338 0.73-0.531l10.976-10.997c0.528-0.529 0.48-1.34 0-1.82l-2.133-2.133c-0.226-0.224-0.501-0.331-0.821-0.356zM25.532 10.714l2.133 2.133c0.041 0.041 0.081 0.233 0 0.314l-10.976 10.995c-0.192 0.192-0.249 0.249-0.359 0.292-0.112 0.043-0.354 0.085-0.864 0.085h-1.599v-1.6c0-0.512 0.041-0.752 0.082-0.859 0.041-0.107 0.096-0.163 0.295-0.363l10.976-10.997c0.096-0.096 0.263-0.048 0.311 0zM4.8 11.733h13.867c0.295 0 0.533 0.238 0.533 0.533s-0.238 0.533-0.533 0.533h-13.867c-0.295 0-0.533-0.238-0.533-0.533s0.238-0.533 0.533-0.533zM4.8 8.533h13.867c0.295 0 0.533 0.238 0.533 0.533s-0.238 0.533-0.533 0.533h-13.867c-0.295 0-0.533-0.238-0.533-0.533s0.238-0.533 0.533-0.533zM4.8 5.333h13.867c0.295 0 0.533 0.238 0.533 0.533s-0.238 0.533-0.533 0.533h-13.867c-0.295 0-0.533-0.238-0.533-0.533s0.238-0.533 0.533-0.533zM1.6 0c-0.877 0-1.6 0.723-1.6 1.6v28.8c0 0.877 0.723 1.6 1.6 1.6h20.267c0.877 0 1.6-0.723 1.6-1.6v-8.533c0-0.713-1.067-0.691-1.067 0v8.533c0 0.305-0.228 0.533-0.533 0.533h-20.267c-0.305 0-0.533-0.228-0.533-0.533v-28.8c0-0.305 0.228-0.533 0.533-0.533h20.267c0.305 0 0.533 0.228 0.533 0.533v7.467c0 0.717 1.067 0.691 1.067 0v-7.467c0-0.877-0.723-1.6-1.6-1.6z"></path>
</svg>
