<!-- Generated by IcoMoon.io -->
<svg version="1.1" xmlns="http://www.w3.org/2000/svg" width="32" height="32" viewBox="0 0 32 32">
<title>mbri-hot-cup</title>
<path d="M12.267 0c0.295 0 0.533 0.238 0.533 0.533v4.267c0 0.295-0.238 0.533-0.533 0.533s-0.533-0.238-0.533-0.533v-4.267c0-0.295 0.238-0.533 0.533-0.533zM17.6 0c0.295 0 0.533 0.238 0.533 0.533v4.267c0 0.295-0.238 0.533-0.533 0.533s-0.533-0.238-0.533-0.533v-4.267c0-0.295 0.238-0.533 0.533-0.533zM6.933 0c0.295 0 0.533 0.238 0.533 0.533v4.267c0 0.295-0.238 0.533-0.533 0.533s-0.533-0.238-0.533-0.533v-4.267c0-0.295 0.238-0.533 0.533-0.533zM3.733 9.6h17.067c0.295 0 0.533 0.238 0.533 0.533s-0.238 0.533-0.533 0.533h-17.067c-0.295 0-0.533-0.238-0.533-0.533s0.238-0.533 0.533-0.533zM26.133 8.533c-0.704 0-0.695 1.067 0 1.067h1.067c2.069 0 3.733 1.664 3.733 3.733s-1.664 3.733-3.733 3.733h-1.067c-0.701 0-0.7 1.067 0 1.067h1.067c2.645 0 4.8-2.155 4.8-4.8s-2.155-4.8-4.8-4.8zM0.533 6.4c-0.294 0.004-0.538 0.239-0.533 0.533v12.8c0 5.003 2.985 9.291 7.27 11.2h-6.737c-0.295 0-0.533 0.238-0.533 0.533s0.238 0.533 0.533 0.533h23.467c0.295 0 0.533-0.238 0.533-0.533s-0.238-0.533-0.533-0.533h-6.737c4.286-1.909 7.27-6.197 7.27-11.2v-12.8c0-0.695-1.067-0.715-1.067 0v12.8c0 6.214-4.986 11.2-11.2 11.2s-11.2-4.986-11.2-11.2v-12.8c0.004-0.301-0.233-0.538-0.533-0.533z"></path>
</svg>
