<!-- Generated by IcoMoon.io -->
<svg version="1.1" xmlns="http://www.w3.org/2000/svg" width="32" height="32" viewBox="0 0 32 32">
<title>mbri-error</title>
<path d="M12.282 13.867c-0.48 0-0.734 0.576-0.387 0.914l3.353 3.349-3.356 3.356c-0.485 0.465 0.272 1.255 0.754 0.754l3.355-3.355 3.356 3.355c0.482 0.501 1.239-0.288 0.754-0.754l-3.356-3.355 3.351-3.349c0.346-0.339 0.093-0.915-0.388-0.915-0.139 0.004-0.27 0.062-0.367 0.16l-3.35 3.349-3.351-3.349c-0.096-0.098-0.228-0.156-0.367-0.16zM2.667 8.533h26.667c0.295 0 0.533 0.238 0.533 0.533s-0.238 0.533-0.533 0.533h-26.667c-0.295 0-0.533-0.238-0.533-0.533s0.238-0.533 0.533-0.533zM7.467 6.933c0 0.295-0.239 0.533-0.533 0.533v0c-0.295 0-0.533-0.239-0.533-0.533v0c0-0.295 0.239-0.533 0.533-0.533v0c0.295 0 0.533 0.239 0.533 0.533v0zM5.333 6.933c0 0.295-0.239 0.533-0.533 0.533v0c-0.295 0-0.533-0.239-0.533-0.533v0c0-0.295 0.239-0.533 0.533-0.533v0c0.295 0 0.533 0.239 0.533 0.533v0zM3.2 6.933c0 0.295-0.239 0.533-0.533 0.533v0c-0.295 0-0.533-0.239-0.533-0.533v0c0-0.295 0.239-0.533 0.533-0.533v0c0.295 0 0.533 0.239 0.533 0.533v0zM1.6 4.267c-0.877 0-1.6 0.723-1.6 1.6v20.267c0 0.877 0.723 1.6 1.6 1.6h28.8c0.877 0 1.6-0.723 1.6-1.6v-20.267c0-0.877-0.723-1.6-1.6-1.6h-28.8zM1.6 5.333h28.8c0.305 0 0.533 0.228 0.533 0.533v20.267c0 0.305-0.228 0.533-0.533 0.533h-28.8c-0.305 0-0.533-0.228-0.533-0.533v-20.267c0-0.305 0.228-0.533 0.533-0.533z"></path>
</svg>
