<!-- Generated by IcoMoon.io -->
<svg version="1.1" xmlns="http://www.w3.org/2000/svg" width="32" height="32" viewBox="0 0 32 32">
<title>mbri-features</title>
<path d="M23.472 0c-0.207-0.002-0.397 0.112-0.489 0.294l-2.343 4.672-5.248 0.747c-0.441 0.064-0.617 0.597-0.297 0.902l4.059 3.634-1.017 5.131c-0.075 0.433 0.387 0.763 0.782 0.558l4.547-2.423 4.572 2.425c0.395 0.203 0.853-0.126 0.781-0.557l-1.005-5.131 4.021-3.635c0.32-0.305 0.145-0.839-0.297-0.902l-5.244-0.747-2.347-4.672c-0.090-0.178-0.274-0.293-0.477-0.295zM23.467 1.723l1.987 3.957c0.078 0.158 0.23 0.267 0.405 0.291l4.446 0.635-3.442 3.083c-0.128 0.119-0.185 0.294-0.155 0.465l0.867 4.352-3.857-2.055c-0.157-0.081-0.343-0.081-0.501 0l-3.829 2.054 0.878-4.352c0.030-0.171-0.029-0.347-0.155-0.467l-3.479-3.083 4.444-0.634c0.176-0.025 0.327-0.133 0.405-0.29zM17.6 19.2c-0.877 0-1.6 0.723-1.6 1.6v9.6c0 0.877 0.723 1.6 1.6 1.6h9.6c0.877 0 1.6-0.723 1.6-1.6v-9.6c0-0.877-0.723-1.6-1.6-1.6zM17.6 20.267h9.6c0.305 0 0.533 0.228 0.533 0.533v9.6c0 0.305-0.228 0.533-0.533 0.533h-9.6c-0.305 0-0.533-0.228-0.533-0.533v-9.6c0-0.305 0.228-0.533 0.533-0.533zM1.6 3.2c-0.877 0-1.6 0.723-1.6 1.6v9.6c0 0.877 0.723 1.6 1.6 1.6h9.6c0.877 0 1.6-0.723 1.6-1.6v-9.6c0-0.877-0.723-1.6-1.6-1.6zM1.6 4.267h9.6c0.305 0 0.533 0.228 0.533 0.533v9.6c0 0.305-0.228 0.533-0.533 0.533h-9.6c-0.305 0-0.533-0.228-0.533-0.533v-9.6c0-0.305 0.228-0.533 0.533-0.533zM1.6 19.2c-0.877 0-1.6 0.723-1.6 1.6v9.6c0 0.877 0.723 1.6 1.6 1.6h9.6c0.877 0 1.6-0.723 1.6-1.6v-9.6c0-0.877-0.723-1.6-1.6-1.6zM1.6 20.267h9.6c0.305 0 0.533 0.228 0.533 0.533v9.6c0 0.305-0.228 0.533-0.533 0.533h-9.6c-0.305 0-0.533-0.228-0.533-0.533v-9.6c0-0.305 0.228-0.533 0.533-0.533z"></path>
</svg>
