<!-- Generated by IcoMoon.io -->
<svg version="1.1" xmlns="http://www.w3.org/2000/svg" width="32" height="32" viewBox="0 0 32 32">
<title>mbri-windows</title>
<path d="M31.45 0c-0.020 0.001-0.038 0.002-0.056 0.005l0.003-0-16 2.133c-0.263 0.036-0.463 0.259-0.463 0.529 0 0 0 0 0 0v-0 11.733c0 0.295 0.239 0.533 0.533 0.533v0h16c0.295 0 0.533-0.239 0.533-0.533v0-13.867c0-0 0-0 0-0 0-0.295-0.239-0.533-0.533-0.533-0.006 0-0.012 0-0.018 0l0.001-0zM30.933 1.143v12.723h-14.933v-10.734l14.933-1.989zM15.467 17.067c-0.295 0-0.533 0.239-0.533 0.533v0 11.527c0 0.267 0.197 0.488 0.454 0.527l0.003 0 16 2.34c0.023 0.004 0.050 0.006 0.077 0.006 0.295 0 0.533-0.239 0.533-0.533 0-0 0-0 0-0v0-13.867c0-0.295-0.239-0.533-0.533-0.533v0h-16zM16 18.133h14.933v12.717l-14.933-2.183v-10.533zM0.533 17.067c-0.295 0-0.533 0.239-0.533 0.533v0 8.533c0 0 0 0 0 0 0 0.261 0.187 0.478 0.434 0.524l0.003 0.001 11.733 2.133c0.029 0.006 0.062 0.009 0.096 0.009 0.295 0 0.533-0.239 0.533-0.533 0-0 0-0 0-0v0-10.667c0-0.295-0.239-0.533-0.533-0.533v0h-11.733zM1.067 18.133h10.667v9.493l-10.667-1.939v-7.554zM12.25 3.2c-0.029 0.001-0.056 0.004-0.082 0.009l0.003-0.001-11.733 2.133c-0.25 0.047-0.437 0.264-0.437 0.525 0 0 0 0 0 0v0 8.533c0 0.295 0.239 0.533 0.533 0.533v0h11.733c0.295 0 0.533-0.239 0.533-0.533v0-10.667c0-0 0-0 0-0 0-0.295-0.239-0.533-0.533-0.533-0.006 0-0.012 0-0.018 0l0.001-0zM11.733 4.373v9.493h-10.667v-7.554l10.667-1.939z"></path>
</svg>
