<!-- Generated by IcoMoon.io -->
<svg version="1.1" xmlns="http://www.w3.org/2000/svg" width="32" height="32" viewBox="0 0 32 32">
<title>mbri-rocket</title>
<path d="M6.923 27.733c-0.139 0.004-0.27 0.061-0.366 0.16l-1.060 1.060c-0.521 0.501 0.25 1.269 0.75 0.75l1.060-1.060c0.346-0.337 0.105-0.91-0.384-0.91zM3.723 27.733c-0.139 0.004-0.27 0.061-0.366 0.16l-1.060 1.060c-0.521 0.501 0.25 1.269 0.75 0.75l1.060-1.060c0.346-0.337 0.093-0.91-0.384-0.91zM3.723 24.533c-0.139 0.004-0.27 0.061-0.366 0.16l-1.060 1.060c-0.521 0.501 0.25 1.269 0.75 0.75l1.060-1.060c0.346-0.337 0.098-0.91-0.384-0.91zM6.933 20.267c-0.293 0.004-0.537 0.24-0.533 0.533v0.533c0 2.35 1.917 4.267 4.267 4.267h0.533c0.725 0 0.683-1.067 0-1.067h-0.533c-1.774 0-3.2-1.426-3.2-3.2v-0.533c0.003-0.301-0.235-0.538-0.533-0.533zM22.4 5.333c-2.35 0-4.267 1.917-4.267 4.267s1.917 4.267 4.267 4.267c2.35 0 4.267-1.917 4.267-4.267s-1.917-4.267-4.267-4.267zM22.4 6.4c1.774 0 3.2 1.426 3.2 3.2s-1.426 3.2-3.2 3.2-3.2-1.426-3.2-3.2 1.426-3.2 3.2-3.2zM29.127 0.025c-0.873-0.059-1.909 0.035-3.057 0.265-2.295 0.459-5.042 1.466-7.669 2.982-5.26 3.036-8.967 7.641-11.951 14.105-0.544 1.18-2.144 2.963-3.427 3.641-0.642 0.339-1.109 0.378-1.376 0.208-0.268-0.169-0.58-0.715-0.58-2.025 0-1.191 0.512-3.175 1.221-4.785 0.354-0.805 0.757-1.525 1.139-2.011 0.382-0.487 0.736-0.672 0.839-0.672 0.282 0 0.434 0.075 0.571 0.198 0.139 0.122 0.25 0.309 0.331 0.523 0.158 0.423 0.165 0.879 0.165 0.879-0.011 0.721 1.077 0.721 1.067 0 0 0 0.007-0.611-0.235-1.254-0.119-0.32-0.306-0.666-0.619-0.944-0.314-0.277-0.762-0.469-1.28-0.469-0.697 0-1.209 0.482-1.677 1.079-0.469 0.597-0.898 1.376-1.278 2.24-0.757 1.724-1.312 3.74-1.312 5.216s0.334 2.455 1.075 2.925c0.741 0.469 1.643 0.26 2.446-0.164 1.609-0.848 3.211-2.65 3.897-4.139 2.922-6.334 6.47-10.713 11.516-13.625 2.525-1.458 5.184-2.429 7.346-2.861 1.081-0.215 2.037-0.295 2.773-0.245 0.736 0.049 1.227 0.247 1.419 0.439s0.389 0.681 0.439 1.417c0.048 0.736-0.032 1.694-0.247 2.773-0.432 2.163-1.403 4.821-2.861 7.347-2.912 5.045-7.292 8.593-13.627 11.517-1.487 0.687-3.289 2.288-4.137 3.895-0.425 0.803-0.635 1.703-0.164 2.445 0.469 0.741 1.451 1.075 2.925 1.075 1.475 0 3.491-0.555 5.216-1.312 0.861-0.38 1.643-0.811 2.238-1.278 0.597-0.469 1.079-0.981 1.079-1.677 0-0.518-0.192-0.966-0.469-1.28-0.277-0.313-0.622-0.499-0.943-0.619-0.643-0.242-1.254-0.235-1.254-0.235-0.721-0.011-0.721 1.077 0 1.067 0 0 0.455 0.007 0.879 0.166 0.213 0.080 0.401 0.192 0.523 0.331 0.123 0.135 0.198 0.288 0.198 0.57 0 0.103-0.185 0.459-0.672 0.839-0.485 0.382-1.205 0.785-2.010 1.139-1.611 0.709-3.595 1.221-4.785 1.221-1.312 0-1.856-0.313-2.025-0.579-0.171-0.267-0.131-0.736 0.208-1.376 0.677-1.285 2.461-2.884 3.639-3.428 6.464-2.983 11.069-6.691 14.106-11.95 1.517-2.627 2.523-5.374 2.981-7.669 0.228-1.15 0.322-2.187 0.263-3.058-0.060-0.871-0.256-1.602-0.751-2.097-0.495-0.496-1.227-0.691-2.097-0.751z"></path>
</svg>
