<!-- Generated by IcoMoon.io -->
<svg version="1.1" xmlns="http://www.w3.org/2000/svg" width="32" height="32" viewBox="0 0 32 32">
<title>mbri-success</title>
<path d="M0.533 14.933c-0.294 0.001-0.532 0.239-0.532 0.533 0 0.15 0.062 0.285 0.161 0.382l10.654 10.654c0.098 0.109 0.24 0.178 0.398 0.178 0.295 0 0.533-0.239 0.533-0.533 0-0.158-0.069-0.3-0.177-0.397l-0.001-0-10.654-10.654c-0.097-0.1-0.233-0.162-0.383-0.162-0 0-0.001 0-0.001 0h0zM31.456 5.333c-0.139 0.004-0.271 0.061-0.368 0.16l-18.114 18.112c-0.523 0.501 0.252 1.277 0.754 0.754l18.114-18.112c0.346-0.339 0.082-0.914-0.387-0.914z"></path>
</svg>
