<!-- Generated by IcoMoon.io -->
<svg version="1.1" xmlns="http://www.w3.org/2000/svg" width="32" height="32" viewBox="0 0 32 32">
<title>mbri-cart-full</title>
<path d="M19.168 2.133c-0.153 0.002-0.295 0.068-0.395 0.181l-3.381 3.883-2.258-1.806c-0.195-0.156-0.473-0.156-0.668 0l-2.676 2.126c-0.523 0.414 0.142 1.252 0.668 0.832l2.342-1.856 2.323 1.859c0.224 0.179 0.547 0.151 0.736-0.064l3.341-3.841 3.851 3.859c0.192 0.192 0.497 0.209 0.709 0.039l2.323-1.831 1.796 1.796c0.478 0.497 1.252-0.277 0.754-0.755l-2.133-2.133c-0.192-0.192-0.498-0.209-0.71-0.039l-2.323 1.83-3.917-3.925c-0.101-0.101-0.24-0.158-0.384-0.156zM10.133 13.867h17.067c0.295 0 0.533 0.238 0.533 0.533s-0.238 0.533-0.533 0.533h-17.067c-0.295 0-0.533-0.238-0.533-0.533s0.238-0.533 0.533-0.533zM0.523 5.333c-0.679 0-0.708 1.067 0 1.067h3.836c0.080 0.379 0.686 3.259 1.404 6.645 0.384 1.798 0.772 3.633 1.086 5.084s0.54 2.481 0.627 2.809c0.141 0.527 0.273 1.125 0.661 1.647 0.386 0.521 1.067 0.881 1.986 0.881h17.067c0.917 0 1.6-0.361 1.988-0.881 0.387-0.523 0.521-1.12 0.661-1.648 0.154-0.573 0.579-2.405 1.011-4.259s0.871-3.729 1.003-4.224c0.163-0.603 0.217-1.232 0.025-1.803-0.192-0.569-0.768-1.053-1.488-1.053h-21.333c-0.676 0-0.7 1.067 0 1.067h21.333c0.348 0 0.39 0.075 0.477 0.331 0.087 0.254 0.081 0.719-0.043 1.182-0.154 0.572-0.578 2.404-1.011 4.258s-0.873 3.73-1.005 4.224c-0.145 0.54-0.277 1.008-0.485 1.286-0.208 0.279-0.452 0.452-1.134 0.452h-17.067c-0.683 0-0.924-0.173-1.131-0.452-0.208-0.277-0.341-0.747-0.485-1.285-0.055-0.205-0.302-1.309-0.615-2.757-0.313-1.449-0.704-3.281-1.088-5.082-0.761-3.597-1.49-7.065-1.49-7.065-0.053-0.246-0.27-0.423-0.523-0.423zM11.2 18.133h14.933c0.295 0 0.533 0.238 0.533 0.533s-0.238 0.533-0.533 0.533h-14.933c-0.295 0-0.533-0.238-0.533-0.533s0.238-0.533 0.533-0.533zM25.067 24.533c-1.467 0-2.667 1.2-2.667 2.667s1.2 2.667 2.667 2.667 2.667-1.2 2.667-2.667-1.2-2.667-2.667-2.667zM25.067 25.6c0.89 0 1.6 0.71 1.6 1.6s-0.71 1.6-1.6 1.6-1.6-0.71-1.6-1.6 0.71-1.6 1.6-1.6zM12.267 24.533c-1.467 0-2.667 1.2-2.667 2.667s1.2 2.667 2.667 2.667 2.667-1.2 2.667-2.667-1.2-2.667-2.667-2.667zM12.267 25.6c0.89 0 1.6 0.71 1.6 1.6s-0.71 1.6-1.6 1.6-1.6-0.71-1.6-1.6 0.71-1.6 1.6-1.6z"></path>
</svg>
