<!-- Generated by IcoMoon.io -->
<svg version="1.1" xmlns="http://www.w3.org/2000/svg" width="32" height="32" viewBox="0 0 32 32">
<title>mbri-magic-stick</title>
<path d="M22.933 21.333c-0.403-0.003-0.655 0.409-0.473 0.765l1.056 2.116c0.299 0.672 1.295 0.174 0.942-0.469l-1.056-2.117c-0.085-0.179-0.271-0.292-0.469-0.293zM6.923 7.467c-0.512 0-0.747 0.77-0.241 1.009l2.125 1.050c0.646 0.352 1.147-0.64 0.473-0.939l-2.126-1.051c-0.078-0.041-0.142-0.069-0.23-0.069zM32 11.2c0 0.295-0.238 0.533-0.533 0.533h-2.133c-0.295 0-0.533-0.238-0.533-0.533s0.238-0.533 0.533-0.533h2.133c0.295 0 0.533 0.238 0.533 0.533zM18.667 0c0.295 0 0.533 0.238 0.533 0.533v2.133c0 0.295-0.238 0.533-0.533 0.533s-0.533-0.238-0.533-0.533v-2.133c0-0.295 0.238-0.533 0.533-0.533zM13.235 4.299c-0.267-0.053-0.573-0.059-0.857 0.107-0.283 0.163-0.429 0.437-0.508 0.699-0.080 0.26-0.107 0.533-0.11 0.829-0.007 0.591 0.077 1.269 0.173 1.956s0.207 1.379 0.267 1.941c0.107 1.018-0.197 1.295-0.8 1.809-0.441 0.378-1.052 0.754-1.63 1.165-0.578 0.41-1.143 0.826-1.575 1.239-0.215 0.207-0.399 0.412-0.537 0.645-0.139 0.235-0.245 0.53-0.167 0.853 0.078 0.324 0.302 0.539 0.529 0.688 0.229 0.149 0.487 0.256 0.774 0.35 0.574 0.188 1.269 0.32 1.975 0.444 0.706 0.122 1.422 0.231 1.998 0.355 1.015 0.219 1.237 0.541 1.557 1.298 0.221 0.523 0.419 1.198 0.645 1.856s0.459 1.303 0.736 1.829c0.139 0.262 0.284 0.498 0.469 0.695 0.188 0.198 0.439 0.378 0.764 0.405 0.325 0.027 0.599-0.109 0.817-0.272 0.219-0.163 0.405-0.368 0.587-0.604 0.366-0.471 0.711-1.069 1.052-1.679 0.339-0.611 0.672-1.232 0.969-1.722 0.437-0.885 0.971-0.966 1.771-1.024 0.589-0.025 1.312-0.014 2.031-0.017 0.718-0.004 1.426-0.021 2.027-0.111 0.299-0.045 0.572-0.107 0.821-0.213 0.251-0.11 0.507-0.281 0.64-0.585s0.082-0.614-0.013-0.868c-0.096-0.256-0.241-0.491-0.416-0.73-0.352-0.48-0.832-0.981-1.33-1.483-0.496-0.499-1.009-0.995-1.399-1.419-0.717-0.743-0.672-0.949-0.405-1.739 0.192-0.544 0.476-1.205 0.745-1.867 0.271-0.659 0.528-1.314 0.668-1.899 0.070-0.29 0.114-0.563 0.098-0.838-0.015-0.275-0.105-0.591-0.365-0.809-0.259-0.218-0.563-0.256-0.843-0.247-0.281 0.007-0.565 0.066-0.875 0.151-0.612 0.171-1.308 0.457-2.005 0.757-0.698 0.299-1.399 0.663-1.979 0.893-0.922 0.39-1.402 0.261-2.144-0.169-0.491-0.315-1.070-0.853-1.653-1.259-0.583-0.403-1.163-0.855-1.702-1.122-0.27-0.134-0.528-0.239-0.796-0.292zM13.558 5.547c0.442 0.219 0.998 0.651 1.57 1.045 0.571 0.395 1.154 0.939 1.685 1.28 0.53 0.338 0.955 0.621 1.483 0.666 0.531 0.045 1.010-0.16 1.63-0.405 0.619-0.245 1.323-0.608 2.009-0.903 0.683-0.294 1.355-0.565 1.87-0.71 0.667-0.22 0.73 0.070 0.659 0.469-0.112 0.467-0.352 1.095-0.619 1.743-0.262 0.646-0.549 1.315-0.761 1.909-0.211 0.597-0.405 0.931-0.272 1.483 0.125 0.523 0.476 0.88 0.9 1.339 0.422 0.459 0.939 0.957 1.423 1.447 0.486 0.491 0.944 0.974 1.227 1.362 0.444 0.561-0.1 0.668-0.331 0.71-0.491 0.075-1.169 0.094-1.873 0.098-0.704 0.003-1.433-0.007-2.069 0.018-0.635 0.025-1.143 0.032-1.603 0.299-0.459 0.267-0.715 0.704-1.035 1.237-0.323 0.53-0.656 1.157-0.988 1.755-0.334 0.597-0.67 1.166-0.964 1.547-0.433 0.464-0.603 0.378-0.848-0.067-0.221-0.422-0.45-1.038-0.672-1.681-0.221-0.643-0.435-1.319-0.658-1.897-0.222-0.576-0.395-1.049-0.802-1.391-0.407-0.341-0.907-0.434-1.527-0.565-0.622-0.13-1.344-0.241-2.035-0.363-0.693-0.121-1.355-0.265-1.824-0.407-0.711-0.217-0.397-0.563-0.192-0.752 0.352-0.331 0.885-0.736 1.451-1.138 0.565-0.401 1.163-0.807 1.664-1.189 0.498-0.382 0.907-0.672 1.124-1.165 0.215-0.491 0.149-0.987 0.087-1.6-0.064-0.612-0.178-1.308-0.273-1.979-0.096-0.672-0.171-1.323-0.163-1.794-0.029-0.48 0.247-0.614 0.73-0.4zM11.2 18.133c-0.139 0.004-0.27 0.062-0.366 0.16l-10.151 10.135c-0.955 0.953-0.828 2.276-0.112 2.997 0.717 0.719 2.041 0.848 2.997-0.11l10.123-10.123c0.525-0.503-0.267-1.261-0.753-0.755l-10.123 10.123c-0.619 0.619-1.141 0.459-1.489 0.111-0.347-0.35-0.501-0.881 0.109-1.49l10.153-10.137c0.347-0.339 0.089-0.914-0.388-0.914z"></path>
</svg>
