<!-- Generated by IcoMoon.io -->
<svg version="1.1" xmlns="http://www.w3.org/2000/svg" width="32" height="32" viewBox="0 0 32 32">
<title>mbri-tablet-vertical</title>
<path d="M6.933 25.6h18.133c0.715 0 0.693 1.067 0 1.067h-18.133c-0.693 0-0.706-1.067 0-1.067zM16 27.733c0.589 0 1.067 0.478 1.067 1.067s-0.478 1.067-1.067 1.067-1.067-0.478-1.067-1.067 0.478-1.067 1.067-1.067zM4.267 30.4c0 0.877 0.723 1.6 1.6 1.6h20.267c0.877 0 1.6-0.723 1.6-1.6v-28.8c0-0.877-0.723-1.6-1.6-1.6h-20.267c-0.877 0-1.6 0.723-1.6 1.6zM5.333 30.4v-28.8c0-0.305 0.228-0.533 0.533-0.533h20.267c0.305 0 0.533 0.228 0.533 0.533v28.8c0 0.305-0.228 0.533-0.533 0.533h-20.267c-0.305 0-0.533-0.228-0.533-0.533z"></path>
</svg>
