<!-- Generated by IcoMoon.io -->
<svg version="1.1" xmlns="http://www.w3.org/2000/svg" width="32" height="32" viewBox="0 0 32 32">
<title>mbri-italic</title>
<path d="M20.8 0c-1.467 0-2.667 1.2-2.667 2.667s1.2 2.667 2.667 2.667 2.667-1.2 2.667-2.667-1.2-2.667-2.667-2.667zM20.8 1.067c0.89 0 1.6 0.71 1.6 1.6s-0.71 1.6-1.6 1.6-1.6-0.71-1.6-1.6 0.71-1.6 1.6-1.6zM18.767 6.4c-1.796 0-3.25 1.181-4.267 2.3-1.018 1.12-1.477 1.917-1.632 2.234-0.306 0.617 0.547 1.158 0.931 0.501 0.178-0.306 0.544-1.021 1.468-2.035 0.356-0.391 0.784-0.725 1.233-1.033 0.459-0.316 0.614 0.217 0.666 0.533 0.075 0.466-0.090 1.358-0.467 2.432-0.755 2.15-2.288 5.103-3.733 8.067-1.445 2.965-2.816 5.925-3.232 8.267-0.21 1.171-0.224 2.208 0.267 3.034 0.487 0.826 1.476 1.301 2.766 1.301 1.795 0 3.364-1.189 4.498-2.3 1.135-1.111 1.655-1.938 1.835-2.234 0.389-0.643-0.494-1.082-0.867-0.565-0.203 0.277-0.69 1.010-1.733 2.032-0.324 0.316-0.678 0.64-1.067 0.9-0.32 0.21-0.427-0.235-0.469-0.501-0.073-0.464 0.134-1.329 0.533-2.4 0.802-2.141 2.374-5.086 3.802-8.032 1.427-2.949 2.734-5.888 3.033-8.235 0.149-1.173 0.058-2.261-0.533-3.067-0.587-0.805-1.629-1.2-3.028-1.2zM18.767 7.467c1.199 0 1.815 0.288 2.165 0.768 0.352 0.478 0.465 1.269 0.335 2.299-0.262 2.059-1.518 4.976-2.933 7.9-1.417 2.926-2.955 5.872-3.801 8.134-0.423 1.131-0.715 2.084-0.634 2.901 0.043 0.407 0.189 0.785 0.501 1.067-0.538 0.267-1.091 0.399-1.632 0.399-1.067 0-1.557-0.299-1.835-0.768-0.277-0.467-0.352-1.252-0.166-2.299 0.373-2.091 1.696-5.053 3.133-8 1.44-2.947 2.997-5.916 3.802-8.201 0.401-1.141 0.622-2.107 0.499-2.933-0.059-0.398-0.226-0.764-0.533-1.033 0.363-0.133 0.725-0.235 1.101-0.235z"></path>
</svg>
