<!-- Generated by IcoMoon.io -->
<svg version="1.1" xmlns="http://www.w3.org/2000/svg" width="32" height="32" viewBox="0 0 32 32">
<title>mbri-map-pin</title>
<path d="M3.733 11.733c-0.274 0-0.497 0.206-0.525 0.48l-2.131 18.123c-0.111 0.945 0.715 1.664 1.596 1.664h26.654c0.88 0 1.707-0.719 1.596-1.664l-2.131-18.123c-0.083-0.708-1.143-0.582-1.060 0.124l2.133 18.126c0.027 0.228-0.235 0.469-0.538 0.469h-26.654c-0.302 0-0.565-0.241-0.538-0.469l2.133-18.127c0.043-0.32-0.213-0.603-0.535-0.604zM16 4.267c-2.35 0-4.267 1.917-4.267 4.267s1.917 4.267 4.267 4.267c2.35 0 4.267-1.917 4.267-4.267s-1.917-4.267-4.267-4.267zM16 5.333c1.774 0 3.2 1.426 3.2 3.2s-1.426 3.2-3.2 3.2-3.2-1.426-3.2-3.2 1.426-3.2 3.2-3.2zM16 0c-4.706 0-8.533 3.827-8.533 8.533 0 3.387 1.731 7.043 3.605 9.893 0.935 1.426 1.909 2.645 2.749 3.525 0.419 0.439 0.8 0.793 1.143 1.050 0.341 0.258 0.597 0.465 1.035 0.465s0.693-0.207 1.035-0.465c0.343-0.256 0.725-0.61 1.145-1.050 0.838-0.879 1.813-2.099 2.75-3.525 1.875-2.85 3.605-6.507 3.605-9.893 0-4.706-3.827-8.533-8.533-8.533zM16 1.067c4.13 0 7.467 3.337 7.467 7.467 0 3.013-1.623 6.557-3.429 9.307-0.902 1.374-1.849 2.554-2.631 3.375-0.39 0.409-0.743 0.732-1.013 0.937-0.325 0.238-0.528 0.196-0.784 0-0.271-0.205-0.624-0.528-1.013-0.939-0.784-0.821-1.73-2-2.633-3.374-1.806-2.749-3.429-6.292-3.429-9.306 0-4.13 3.337-7.467 7.467-7.467z"></path>
</svg>
