<!-- Generated by IcoMoon.io -->
<svg version="1.1" xmlns="http://www.w3.org/2000/svg" width="32" height="32" viewBox="0 0 32 32">
<title>mbri-paper-plane</title>
<path d="M31.467 0c-0.147 0-0.273 0.053-0.378 0.156l-18.133 18.133c-0.235 0.235-0.389 0.253-0.64 0.222-0.249-0.032-0.567-0.173-0.885-0.325l-9.947-4.8c-0.292-0.143-0.414-0.352-0.416-0.587s0.080-0.459 0.369-0.565l24.881-9.067c0.701-0.256 0.194-1.209-0.367-1.003l-24.881 9.067c-0.691 0.251-1.076 0.94-1.070 1.569s0.369 1.233 1.021 1.547l9.948 4.8c0.323 0.157 0.73 0.361 1.216 0.422 0.484 0.062 1.075-0.075 1.525-0.525l16.383-16.382-10.628 28.16c-0.085 0.213-0.515 0.19-0.623-0.047l-5.028-10.21c-0.32-0.651-1.229-0.079-0.96 0.469l5.030 10.211c0.265 0.538 0.821 0.764 1.316 0.754 0.496-0.011 1.052-0.25 1.261-0.802l11.507-30.477c0.128-0.341-0.135-0.718-0.501-0.721z"></path>
</svg>
