<!-- Generated by IcoMoon.io -->
<svg version="1.1" xmlns="http://www.w3.org/2000/svg" width="32" height="32" viewBox="0 0 32 32">
<title>mbri-trash</title>
<path d="M19.733 12.8c0.314 0 0.56 0.262 0.53 0.576l-1.067 12.783c-0.058 0.739-1.125 0.651-1.060-0.087l1.067-12.783c0.017-0.279 0.25-0.489 0.529-0.489zM12.267 12.8c-0.314 0-0.56 0.262-0.53 0.576l1.067 12.783c0.058 0.739 1.125 0.651 1.060-0.087l-1.067-12.783c-0.017-0.279-0.25-0.489-0.529-0.489zM13.333 0c-0.877 0-1.6 0.723-1.6 1.6v2.667h-5.867c-0.295 0-0.533 0.238-0.533 0.533s0.238 0.533 0.533 0.533h20.267c0.295 0 0.533-0.238 0.533-0.533s-0.238-0.533-0.533-0.533h-5.867v-2.667c0-0.877-0.723-1.6-1.6-1.6zM13.333 1.067h5.333c0.305 0 0.533 0.228 0.533 0.533v2.667h-6.4v-2.667c0-0.305 0.228-0.533 0.533-0.533zM6.933 6.4c-0.879 0-1.685 0.718-1.598 1.65l2.133 22.4c0.077 0.811 0.719 1.55 1.598 1.55h13.867c0.879 0 1.521-0.738 1.598-1.55l2.133-22.4c0.087-0.932-0.719-1.65-1.598-1.65zM6.933 7.467h18.133c0.303 0 0.559 0.239 0.535 0.483l-2.133 22.4c-0.035 0.365-0.233 0.583-0.535 0.583h-13.867c-0.303 0-0.501-0.219-0.535-0.583l-2.133-22.4c-0.023-0.245 0.233-0.483 0.535-0.483z"></path>
</svg>
