<!-- Generated by IcoMoon.io -->
<svg version="1.1" xmlns="http://www.w3.org/2000/svg" width="32" height="32" viewBox="0 0 32 32">
<title>mbri-user</title>
<path d="M16 6.4c-1.653 0-3.002 0.838-3.91 1.899-0.909 1.065-1.423 2.341-1.423 3.435v2.667c0 0.711 0.356 1.229 0.623 1.629s0.444 0.683 0.444 1.038v1.067c0 0.651-0.066 1.252-0.798 1.67l-3.733 2.133c-0.853 0.487-1.357 0.96-1.619 1.51-0.26 0.55-0.25 1.088-0.25 1.619 0 0.715 1.067 0.704 1.067 0 0-0.533 0.009-0.873 0.146-1.161 0.137-0.288 0.433-0.613 1.184-1.043l3.733-2.133c1.137-0.649 1.337-1.813 1.337-2.596v-1.067c0-0.711-0.356-1.229-0.623-1.629s-0.444-0.683-0.444-1.038v-2.667c0-0.736 0.413-1.859 1.167-2.739 0.753-0.881 1.803-1.527 3.1-1.527 1.296 0 2.347 0.646 3.1 1.527 0.754 0.88 1.167 2.005 1.167 2.739v2.667c0 0.355-0.177 0.638-0.444 1.038s-0.623 0.917-0.623 1.629v1.067c0 0.784 0.201 1.948 1.335 2.596l3.733 2.133c0.752 0.43 1.049 0.755 1.184 1.043 0.139 0.288 0.147 0.626 0.147 1.161 0 0.715 1.067 0.717 1.067 0 0-0.533 0.011-1.069-0.25-1.619-0.262-0.549-0.768-1.024-1.619-1.51l-3.733-2.133c-0.732-0.418-0.798-1.020-0.798-1.67v-1.067c0-0.355 0.177-0.638 0.444-1.038s0.623-0.917 0.623-1.629v-2.667c0-1.094-0.514-2.371-1.423-3.435-0.909-1.059-2.257-1.899-3.91-1.899zM16 0c-8.83 0-16 7.17-16 16s7.17 16 16 16c8.83 0 16-7.17 16-16s-7.17-16-16-16zM16 1.067c8.254 0 14.933 6.679 14.933 14.933s-6.679 14.933-14.933 14.933-14.933-6.679-14.933-14.933 6.679-14.933 14.933-14.933z"></path>
</svg>
