<!-- Generated by IcoMoon.io -->
<svg version="1.1" xmlns="http://www.w3.org/2000/svg" width="32" height="32" viewBox="0 0 32 32">
<title>mbri-chat</title>
<path d="M4.785 16h10.697c0.288 0 0.518 0.231 0.518 0.518 0 0.288-0.231 0.518-0.518 0.518h-10.697c-0.288 0-0.518-0.23-0.518-0.518s0.231-0.518 0.518-0.518zM4.8 11.733h22.4c0.295 0 0.533 0.238 0.533 0.533s-0.238 0.533-0.533 0.533h-22.4c-0.295 0-0.533-0.238-0.533-0.533s0.238-0.533 0.533-0.533zM4.8 7.467h22.4c0.295 0 0.533 0.238 0.533 0.533s-0.238 0.533-0.533 0.533h-22.4c-0.295 0-0.533-0.238-0.533-0.533s0.238-0.533 0.533-0.533zM1.6 1.067c-0.877 0-1.6 0.723-1.6 1.6v20.267c0 0.877 0.723 1.6 1.6 1.6h3.733v4.8c0 0.371 0.053 0.69 0.196 0.969 0.141 0.277 0.399 0.512 0.702 0.592 0.606 0.16 1.148-0.175 1.616-0.654 1.627-1.664 4.509-4.518 5.707-5.707h16.846c0.877 0 1.6-0.723 1.6-1.6v-20.267c0-0.877-0.723-1.6-1.6-1.6zM1.6 2.133h28.8c0.305 0 0.533 0.228 0.533 0.533v20.267c0 0.305-0.228 0.533-0.533 0.533h-17.067c-0.141 0-0.275 0.055-0.375 0.155-1.131 1.12-4.188 4.149-5.872 5.872-0.589 0.589-0.686 0.211-0.686-0.16v-5.333c0-0.294-0.239-0.533-0.533-0.533h-4.267c-0.305 0-0.533-0.228-0.533-0.533v-20.267c0-0.305 0.228-0.533 0.533-0.533z"></path>
</svg>
