<!-- Generated by IcoMoon.io -->
<svg version="1.1" xmlns="http://www.w3.org/2000/svg" width="32" height="32" viewBox="0 0 32 32">
<title>mbri-help</title>
<path d="M0.533 17.067h3.2c0.295 0 0.533 0.238 0.533 0.533s-0.238 0.533-0.533 0.533h-3.2c-0.295 0-0.533-0.238-0.533-0.533s0.238-0.533 0.533-0.533zM0.533 11.733h3.2c0.295 0 0.533 0.238 0.533 0.533s-0.238 0.533-0.533 0.533h-3.2c-0.295 0-0.533-0.238-0.533-0.533s0.238-0.533 0.533-0.533zM0.533 6.4h3.2c0.295 0 0.533 0.238 0.533 0.533s-0.238 0.533-0.533 0.533h-3.2c-0.295 0-0.533-0.238-0.533-0.533s0.238-0.533 0.533-0.533zM8 2.133c-0.877 0-1.6 0.722-1.6 1.6v18.133c0 0.877 0.723 1.6 1.6 1.6h2.667v4.8c0 0.37 0.055 0.69 0.196 0.969 0.141 0.277 0.399 0.512 0.702 0.592 0.608 0.158 1.148-0.175 1.617-0.655 1.626-1.664 4.509-4.519 5.707-5.707h11.511c0.877 0 1.6-0.723 1.6-1.6v-18.133c0-0.878-0.723-1.6-1.6-1.6zM8 3.2h22.4c0.305 0 0.533 0.228 0.533 0.533v18.133c0 0.304-0.228 0.533-0.533 0.533h-11.733c-0.139 0-0.274 0.055-0.373 0.154-1.131 1.12-4.19 4.149-5.874 5.873-0.589 0.589-0.686 0.21-0.686-0.16v-5.333c0-0.294-0.238-0.533-0.533-0.533h-3.2c-0.305 0-0.533-0.229-0.533-0.533v-18.133c0-0.305 0.228-0.533 0.533-0.533z"></path>
</svg>
