<!-- Generated by IcoMoon.io -->
<svg version="1.1" xmlns="http://www.w3.org/2000/svg" width="32" height="32" viewBox="0 0 32 32">
<title>mbri-info</title>
<path d="M16 6.4c-1.173 0-2.133 0.96-2.133 2.133s0.96 2.133 2.133 2.133 2.133-0.96 2.133-2.133-0.96-2.133-2.133-2.133zM16 7.467c0.601 0 1.067 0.466 1.067 1.067s-0.466 1.067-1.067 1.067-1.067-0.466-1.067-1.067 0.466-1.067 1.067-1.067zM16 0c-8.83 0-16 7.17-16 16s7.17 16 16 16c8.83 0 16-7.17 16-16s-7.17-16-16-16zM16 1.067c8.254 0 14.933 6.679 14.933 14.933s-6.679 14.933-14.933 14.933-14.933-6.679-14.933-14.933 6.679-14.933 14.933-14.933zM16 11.733c-1.173 0-2.133 0.96-2.133 2.133v9.6c0 1.173 0.96 2.133 2.133 2.133s2.133-0.96 2.133-2.133v-9.6c0-1.173-0.96-2.133-2.133-2.133zM16 12.8c0.601 0 1.067 0.466 1.067 1.067v9.6c0 0.601-0.466 1.067-1.067 1.067s-1.067-0.466-1.067-1.067v-9.6c0-0.601 0.466-1.067 1.067-1.067z"></path>
</svg>
