<!-- Generated by IcoMoon.io -->
<svg version="1.1" xmlns="http://www.w3.org/2000/svg" width="32" height="32" viewBox="0 0 32 32">
<title>mbri-key</title>
<path d="M8.533 0c-4.706 0-8.533 3.827-8.533 8.533s3.827 8.533 8.533 8.533c1.248 0 2.139-0.267 2.965-0.565l14.257 14.276c0.623 0.623 1.49 1.222 2.511 1.222h2.133c0.451 0 0.818-0.219 1.099-0.501 0.283-0.281 0.501-0.647 0.501-1.099v-2.133c0-1.021-0.601-1.888-1.222-2.511l-1.067-1.067c-0.1-0.1-0.235-0.156-0.378-0.156h-1.6v-1.6c0-0.142-0.055-0.277-0.156-0.378l-2.133-2.133c-0.1-0.099-0.235-0.156-0.378-0.156h-1.6v-1.6c0-0.142-0.057-0.277-0.156-0.378l-2.133-2.133c-0.1-0.099-0.235-0.156-0.378-0.156h-1.6v-1.6c0-0.142-0.057-0.277-0.156-0.378l-2.567-2.566c0.345-0.941 0.59-1.92 0.59-2.923 0-4.706-3.827-8.533-8.533-8.533zM8.533 1.067c4.13 0 7.467 3.337 7.467 7.467 0 0.996-0.199 1.982-0.587 2.901-0.082 0.198-0.037 0.429 0.117 0.582l2.603 2.603v1.914c0 0.294 0.239 0.533 0.533 0.533h1.913l1.821 1.821v1.913c0 0.294 0.239 0.533 0.533 0.533h1.913l1.821 1.821v1.913c0 0.294 0.239 0.533 0.533 0.533h1.913l0.91 0.911c0.501 0.501 0.911 1.186 0.911 1.756v2.133c0 0.053-0.064 0.218-0.19 0.343-0.126 0.128-0.291 0.19-0.343 0.19h-2.133c-0.57 0-1.254-0.409-1.756-0.911l-14.5-14.499c-0.154-0.155-0.384-0.199-0.587-0.115-0.914 0.388-1.899 0.589-2.891 0.592-4.13 0-7.467-3.337-7.467-7.467s3.337-7.467 7.467-7.467zM6.4 4.267c-1.173 0-2.133 0.96-2.133 2.133s0.96 2.133 2.133 2.133 2.133-0.96 2.133-2.133-0.96-2.133-2.133-2.133zM6.4 5.333c0.595 0 1.067 0.471 1.067 1.067s-0.471 1.067-1.067 1.067-1.067-0.471-1.067-1.067 0.471-1.067 1.067-1.067z"></path>
</svg>
