<!-- Generated by IcoMoon.io -->
<svg version="1.1" xmlns="http://www.w3.org/2000/svg" width="32" height="32" viewBox="0 0 32 32">
<title>mbri-sale</title>
<path d="M9.067 18.133h9.6c0.295 0 0.533 0.238 0.533 0.533s-0.238 0.533-0.533 0.533h-9.6c-0.295 0-0.533-0.238-0.533-0.533s0.238-0.533 0.533-0.533zM13.867 20.267c-1.173 0-2.133 0.96-2.133 2.133s0.96 2.133 2.133 2.133 2.133-0.96 2.133-2.133-0.96-2.133-2.133-2.133zM13.867 21.333c0.595 0 1.067 0.471 1.067 1.067s-0.471 1.067-1.067 1.067-1.067-0.471-1.067-1.067 0.471-1.067 1.067-1.067zM13.867 12.8c-1.173 0-2.133 0.96-2.133 2.133s0.96 2.133 2.133 2.133 2.133-0.96 2.133-2.133-0.96-2.133-2.133-2.133zM13.867 13.867c0.595 0 1.067 0.471 1.067 1.067s-0.471 1.067-1.067 1.067-1.067-0.471-1.067-1.067 0.471-1.067 1.067-1.067zM26.667 3.2c-1.173 0-2.133 0.96-2.133 2.133s0.96 2.133 2.133 2.133 2.133-0.96 2.133-2.133-0.96-2.133-2.133-2.133zM26.667 4.267c0.595 0 1.067 0.471 1.067 1.067s-0.471 1.067-1.067 1.067-1.067-0.471-1.067-1.067 0.471-1.067 1.067-1.067zM0.476 16.715c-0.626 0.619-0.622 1.645 0 2.266l12.544 12.544c0.619 0.621 1.645 0.626 2.265 0l15.494-15.684c0.263-0.267 0.567-0.512 0.819-0.913 0.251-0.401 0.401-0.928 0.401-1.647v-11.68c0-0.878-0.723-1.6-1.6-1.6h-11.733c-1.235 0-1.946 0.666-2.507 1.221zM1.226 17.474l15.681-15.494c0.569-0.561 0.862-0.913 1.76-0.913h11.733c0.304 0 0.533 0.228 0.533 0.533v11.682c0 0.583-0.099 0.859-0.239 1.081-0.139 0.224-0.367 0.42-0.672 0.73l-15.499 15.68c-0.21 0.213-0.533 0.213-0.75-0.002l-12.544-12.544c-0.217-0.217-0.219-0.542-0.004-0.753z"></path>
</svg>
