<!-- Generated by IcoMoon.io -->
<svg version="1.1" xmlns="http://www.w3.org/2000/svg" width="32" height="32" viewBox="0 0 32 32">
<title>mbri-sun</title>
<path d="M26.133 4.267c0.475 0 0.715 0.572 0.373 0.902l-1.056 1.058c-0.496 0.519-1.263-0.25-0.745-0.747l1.056-1.059c0.098-0.102 0.228-0.155 0.371-0.155zM4.8 4.267c-0.475 0-0.715 0.572-0.373 0.902l1.056 1.058c0.496 0.519 1.263-0.25 0.745-0.747l-1.056-1.059c-0.097-0.101-0.227-0.155-0.371-0.155zM27.733 15.467c0-0.295 0.238-0.533 0.533-0.533h2.133c0.295 0 0.533 0.238 0.533 0.533s-0.238 0.533-0.533 0.533h-2.133c-0.295 0-0.533-0.238-0.533-0.533zM0 15.467c0-0.295 0.238-0.533 0.533-0.533h2.133c0.295 0 0.533 0.238 0.533 0.533s-0.238 0.533-0.533 0.533h-2.133c-0.295 0-0.533-0.238-0.533-0.533zM15.467 27.733c0.295 0 0.533 0.238 0.533 0.533v2.133c0 0.295-0.238 0.533-0.533 0.533s-0.533-0.238-0.533-0.533v-2.133c0-0.295 0.238-0.533 0.533-0.533zM15.467 0c0.295 0 0.533 0.238 0.533 0.533v2.133c0 0.295-0.238 0.533-0.533 0.533s-0.533-0.238-0.533-0.533v-2.133c0-0.295 0.238-0.533 0.533-0.533zM15.467 5.333c-5.589 0-10.133 4.544-10.133 10.133s4.544 10.133 10.133 10.133 10.133-4.544 10.133-10.133-4.544-10.133-10.133-10.133zM15.467 6.4c5.013 0 9.067 4.053 9.067 9.067s-4.053 9.067-9.067 9.067-9.067-4.053-9.067-9.067 4.053-9.067 9.067-9.067zM26.133 26.667c0.475 0 0.715-0.572 0.373-0.902l-1.056-1.058c-0.496-0.519-1.263 0.25-0.745 0.747l1.056 1.059c0.098 0.102 0.228 0.155 0.371 0.155zM4.8 26.667c-0.475 0-0.715-0.572-0.373-0.902l1.056-1.058c0.496-0.519 1.263 0.25 0.745 0.747l-1.056 1.059c-0.098 0.102-0.228 0.155-0.371 0.155z"></path>
</svg>
