<!-- Generated by IcoMoon.io -->
<svg version="1.1" xmlns="http://www.w3.org/2000/svg" width="32" height="32" viewBox="0 0 32 32">
<title>mbri-responsive</title>
<path d="M26.667 26.133c0 0.294-0.239 0.533-0.533 0.533s-0.533-0.239-0.533-0.533 0.239-0.533 0.533-0.533 0.533 0.239 0.533 0.533zM25.067 12.8h2.133c0.295 0 0.533 0.238 0.533 0.533s-0.238 0.533-0.533 0.533h-2.133c-0.295 0-0.533-0.238-0.533-0.533s0.238-0.533 0.533-0.533zM21.867 10.667c-0.877 0-1.6 0.723-1.6 1.6v14.933c0 0.877 0.723 1.6 1.6 1.6h8.533c0.877 0 1.6-0.723 1.6-1.6v-14.933c0-0.877-0.723-1.6-1.6-1.6zM21.867 11.733h8.533c0.305 0 0.533 0.228 0.533 0.533v14.933c0 0.305-0.228 0.533-0.533 0.533h-8.533c-0.305 0-0.533-0.228-0.533-0.533v-14.933c0-0.305 0.228-0.533 0.533-0.533zM14.933 20.8c0 0.294-0.239 0.533-0.533 0.533s-0.533-0.239-0.533-0.533 0.239-0.533 0.533-0.533 0.533 0.239 0.533 0.533zM1.6 3.2c-0.877 0-1.6 0.723-1.6 1.6v17.067c0 0.877 0.723 1.6 1.6 1.6h10.133v2.133h-1.6c-0.295 0-0.533 0.238-0.533 0.533s0.238 0.533 0.533 0.533h8.533c0.295 0 0.533-0.238 0.533-0.533s-0.238-0.533-0.533-0.533h-1.6v-2.133h1.6c0.713 0 0.7-1.067 0-1.067h-17.067c-0.305 0-0.533-0.228-0.533-0.533v-2.667h17.6c0.295 0 0.533-0.238 0.533-0.533s-0.238-0.533-0.533-0.533h-17.6v-13.333c0-0.305 0.228-0.533 0.533-0.533h25.6c0.305 0 0.533 0.228 0.533 0.533v4.267c0 0.709 1.067 0.701 1.067 0v-4.267c0-0.877-0.723-1.6-1.6-1.6zM12.8 23.467h3.2v2.133h-3.2z"></path>
</svg>
