<!-- Generated by IcoMoon.io -->
<svg version="1.1" xmlns="http://www.w3.org/2000/svg" width="32" height="32" viewBox="0 0 32 32">
<title>mbri-setting2</title>
<path d="M21.867 12.8h2.133c0.295 0 0.533 0.238 0.533 0.533s-0.238 0.533-0.533 0.533h-2.133c-0.295 0-0.533-0.238-0.533-0.533s0.238-0.533 0.533-0.533zM22.933 14.933c0.295 0 0.533 0.238 0.533 0.533v8.533c0 0.295-0.238 0.533-0.533 0.533s-0.533-0.238-0.533-0.533v-8.533c0-0.295 0.238-0.533 0.533-0.533zM22.933 7.467c0.295 0 0.533 0.238 0.533 0.533v3.2c0 0.295-0.238 0.533-0.533 0.533s-0.533-0.238-0.533-0.533v-3.2c0-0.295 0.238-0.533 0.533-0.533zM14.4 19.2h2.133c0.295 0 0.533-0.238 0.533-0.533s-0.238-0.533-0.533-0.533h-2.133c-0.295 0-0.533 0.238-0.533 0.533s0.238 0.533 0.533 0.533zM15.467 17.067c0.295 0 0.533-0.238 0.533-0.533v-8.533c0-0.295-0.238-0.533-0.533-0.533s-0.533 0.238-0.533 0.533v8.533c0 0.295 0.238 0.533 0.533 0.533zM15.467 24.533c0.295 0 0.533-0.238 0.533-0.533v-3.2c0-0.295-0.238-0.533-0.533-0.533s-0.533 0.238-0.533 0.533v3.2c0 0.295 0.238 0.533 0.533 0.533zM6.933 12.8h2.133c0.295 0 0.533 0.238 0.533 0.533s-0.238 0.533-0.533 0.533h-2.133c-0.295 0-0.533-0.238-0.533-0.533s0.238-0.533 0.533-0.533zM8 14.933c0.295 0 0.533 0.238 0.533 0.533v8.533c0 0.295-0.238 0.533-0.533 0.533s-0.533-0.238-0.533-0.533v-8.533c0-0.295 0.238-0.533 0.533-0.533zM8 7.467c0.295 0 0.533 0.238 0.533 0.533v3.2c0 0.295-0.238 0.533-0.533 0.533s-0.533-0.238-0.533-0.533v-3.2c0-0.295 0.238-0.533 0.533-0.533zM1.6 0c-0.877 0-1.6 0.723-1.6 1.6v28.8c0 0.877 0.723 1.6 1.6 1.6h27.733c0.877 0 1.6-0.723 1.6-1.6v-28.8c0-0.877-0.723-1.6-1.6-1.6zM1.6 1.067h27.733c0.305 0 0.533 0.228 0.533 0.533v28.8c0 0.305-0.228 0.533-0.533 0.533h-27.733c-0.305 0-0.533-0.228-0.533-0.533v-28.8c0-0.305 0.228-0.533 0.533-0.533z"></path>
</svg>
