<!-- Generated by IcoMoon.io -->
<svg version="1.1" xmlns="http://www.w3.org/2000/svg" width="32" height="32" viewBox="0 0 32 32">
<title>mbri-opened-folder</title>
<path d="M5.093 11.733c-0.885 0-1.637 0.651-1.839 1.517l-3.212 13.792c-0.1 0.433-0.028 0.881 0.22 1.218s0.666 0.54 1.109 0.54h25.536c0.883 0 1.636-0.651 1.838-1.517l3.211-13.792c0.1-0.433 0.028-0.881-0.22-1.218s-0.666-0.54-1.109-0.54zM5.093 12.8h25.536c0.369 0 0.343 0.24 0.288 0.45l-3.211 13.792c-0.085 0.358-0.507 0.691-0.8 0.691h-25.536c-0.337 0-0.354-0.199-0.288-0.45l3.211-13.792c0.083-0.355 0.508-0.691 0.8-0.691zM1.6 3.2c-0.877 0-1.6 0.723-1.6 1.6v14.933c-0.011 0.721 1.077 0.721 1.067 0v-14.933c0-0.305 0.228-0.533 0.533-0.533h7.246l4.11 4.111c0.1 0.099 0.235 0.156 0.378 0.156h13.867c0.305 0 0.533 0.228 0.533 0.533v1.067c-0.011 0.721 1.077 0.721 1.067 0v-1.067c0-0.877-0.723-1.6-1.6-1.6h-13.646l-4.11-4.111c-0.1-0.099-0.235-0.156-0.378-0.156z"></path>
</svg>
