<!-- Generated by IcoMoon.io -->
<svg version="1.1" xmlns="http://www.w3.org/2000/svg" width="32" height="32" viewBox="0 0 32 32">
<title>mbri-quote-right</title>
<path d="M24 5.333c-1.525 0-3.040 0.661-4.139 1.733-1.104 1.077-1.728 2.523-1.728 4.133 0 1.483 0.657 2.851 1.421 4.017 0.762 1.163 1.662 2.165 2.411 3.225 0.433 0.611 0.817 1.241 1.088 1.903 0.273 0.661 0.432 1.373 0.414 2.054-0.034 1.305-0.777 2.59-1.884 3.281-0.477 0.297-0.199 1.088 0.382 0.977 2.823-0.533 5.433-2.080 7.253-4.304 1.818-2.223 2.782-5.079 2.782-7.953 0-2.133-0.683-4.463-2.096-6.214-0.707-0.875-1.594-1.614-2.613-2.119-1.017-0.506-2.143-0.733-3.291-0.733zM24 6.4c0.962 0 1.949 0.192 2.816 0.623 0.869 0.431 1.643 1.067 2.259 1.831 1.233 1.527 1.858 3.442 1.858 5.546 0 2.615-0.885 5.252-2.542 7.277-1.188 1.453-2.816 2.439-4.558 3.147 0.425-0.729 0.677-1.568 0.7-2.423 0.021-0.864-0.178-1.692-0.494-2.461-0.316-0.768-0.743-1.465-1.205-2.114-0.794-1.122-1.683-2.119-2.386-3.193-0.701-1.070-1.248-2.24-1.248-3.431 0-1.235 0.512-2.5 1.404-3.371 0.896-0.875 2.133-1.429 3.396-1.429zM5.867 5.333c-1.525 0-3.040 0.661-4.139 1.733-1.104 1.077-1.728 2.523-1.728 4.133 0 1.483 0.657 2.851 1.421 4.017 0.762 1.163 1.662 2.165 2.411 3.225 0.433 0.611 0.817 1.241 1.088 1.903 0.273 0.661 0.432 1.373 0.414 2.054-0.034 1.305-0.777 2.59-1.884 3.281-0.477 0.297-0.199 1.088 0.382 0.977 2.823-0.533 5.433-2.080 7.253-4.304 1.818-2.223 2.782-5.079 2.782-7.953 0-2.133-0.683-4.463-2.096-6.214-0.707-0.875-1.594-1.614-2.613-2.119-1.017-0.506-2.143-0.733-3.291-0.733zM5.867 6.4c0.962 0 1.949 0.192 2.816 0.623 0.869 0.431 1.643 1.067 2.259 1.831 1.233 1.527 1.858 3.442 1.858 5.546 0 2.615-0.885 5.252-2.542 7.277-1.188 1.453-2.816 2.439-4.558 3.147 0.425-0.729 0.677-1.568 0.7-2.423 0.021-0.864-0.178-1.692-0.494-2.461-0.316-0.768-0.743-1.465-1.205-2.114-0.794-1.122-1.683-2.119-2.386-3.193-0.701-1.071-1.248-2.241-1.248-3.433 0-1.235 0.512-2.5 1.404-3.371 0.896-0.875 2.133-1.429 3.396-1.429z"></path>
</svg>
