<!-- Generated by IcoMoon.io -->
<svg version="1.1" xmlns="http://www.w3.org/2000/svg" width="32" height="32" viewBox="0 0 32 32">
<title>mbri-pages</title>
<path d="M20.8 2.133c-0.294 0.004-0.538 0.239-0.533 0.533v4.267c0 0.869 0.7 1.6 1.568 1.6h4.299c0.715 0 0.698-1.067 0-1.067h-4.299c-0.277 0-0.501-0.221-0.501-0.533v-4.267c0.004-0.301-0.233-0.538-0.533-0.533zM9.035 0c-0.867 0-1.568 0.731-1.568 1.6v24.533c0 0.869 0.7 1.6 1.568 1.6h18.197c0.868 0 1.568-0.731 1.568-1.6v-19.2c0-0.142-0.057-0.277-0.156-0.378l-6.4-6.4c-0.1-0.099-0.235-0.156-0.378-0.156zM9.035 1.067h12.611l6.087 6.087v18.979c0 0.313-0.224 0.533-0.501 0.533h-18.197c-0.277 0-0.501-0.221-0.501-0.533v-24.533c0-0.313 0.224-0.533 0.501-0.533zM4.768 4.267c-0.867 0-1.568 0.731-1.568 1.6v24.533c0 0.869 0.7 1.6 1.568 1.6h18.197c0.868 0 1.568-0.731 1.568-1.6v-1.067c0.011-0.721-1.077-0.721-1.067 0v1.067c0 0.313-0.224 0.533-0.501 0.533h-18.197c-0.277 0-0.501-0.221-0.501-0.533v-24.533c0-0.313 0.224-0.533 0.501-0.533h1.131c0.72 0.011 0.72-1.077 0-1.067z"></path>
</svg>
