<!-- Generated by IcoMoon.io -->
<svg version="1.1" xmlns="http://www.w3.org/2000/svg" width="32" height="32" viewBox="0 0 32 32">
<title>mbri-link</title>
<path d="M20.8 7.467c-0.701 0-0.701 1.067 0 1.067h2.667c4.146 0 7.467 3.321 7.467 7.467s-3.321 7.467-7.467 7.467h-2.133c-4.146 0-7.467-3.321-7.467-7.467v-0.533c0-0.717-1.067-0.691-1.067 0v0.533c0 4.718 3.815 8.533 8.533 8.533h2.133c4.718 0 8.533-3.815 8.533-8.533s-3.815-8.533-8.533-8.533zM8.533 7.467c-4.718 0-8.533 3.815-8.533 8.533s3.815 8.533 8.533 8.533h2.667c0.709 0 0.704-1.067 0-1.067h-2.667c-4.146 0-7.467-3.321-7.467-7.467s3.321-7.467 7.467-7.467h2.133c4.146 0 7.467 3.321 7.467 7.467v0.533c0 0.721 1.067 0.7 1.067 0v-0.533c0-4.718-3.815-8.533-8.533-8.533z"></path>
</svg>
