<!-- Generated by IcoMoon.io -->
<svg version="1.1" xmlns="http://www.w3.org/2000/svg" width="32" height="32" viewBox="0 0 32 32">
<title>mbri-sun2</title>
<path d="M6.889 11.123l-4.619-2.667c-0.602-0.347-0.085-1.28 0.533-0.924l4.619 2.667c0.608 0.352 0.077 1.277-0.533 0.924zM28.13 23.388l-4.619-2.667c-0.602-0.348-0.085-1.28 0.533-0.924l4.619 2.667c0.608 0.352 0.077 1.276-0.533 0.924zM10.206 7.415l-2.667-4.619c-0.348-0.602 0.565-1.152 0.924-0.533l2.667 4.619c0.352 0.608-0.572 1.143-0.924 0.533zM22.469 28.657l-2.667-4.619c-0.347-0.602 0.565-1.152 0.924-0.533l2.667 4.619c0.352 0.608-0.571 1.143-0.923 0.533zM19.803 6.881l2.667-4.619c0.348-0.601 1.28-0.085 0.924 0.533l-2.667 4.619c-0.35 0.61-1.275 0.078-0.923-0.533zM7.539 28.124l2.667-4.619c0.347-0.602 1.28-0.085 0.924 0.533l-2.667 4.619c-0.352 0.608-1.276 0.077-0.924-0.533zM23.511 10.197l4.619-2.667c0.602-0.347 1.152 0.567 0.533 0.925l-4.619 2.667c-0.608 0.352-1.143-0.572-0.533-0.924zM2.27 22.464l4.619-2.667c0.601-0.347 1.152 0.565 0.533 0.924l-4.619 2.667c-0.608 0.352-1.143-0.572-0.533-0.924zM25.067 14.933h5.333c0.693 0 0.715 1.067 0 1.067h-5.333c-0.704 0-0.704-1.067 0-1.067zM0.533 14.933h5.333c0.693 0 0.715 1.067 0 1.067h-5.333c-0.704 0-0.704-1.067 0-1.067zM16 25.067v5.333c0 0.693-1.067 0.715-1.067 0v-5.333c0-0.704 1.067-0.704 1.067 0zM16 0.533v5.333c0 0.693-1.067 0.715-1.067 0v-5.333c0-0.704 1.067-0.704 1.067 0zM15.467 8.533c-3.823 0-6.933 3.11-6.933 6.933s3.11 6.933 6.933 6.933 6.933-3.11 6.933-6.933-3.11-6.933-6.933-6.933zM15.467 9.6c3.246 0 5.867 2.621 5.867 5.867 0 3.247-2.621 5.867-5.867 5.867s-5.867-2.62-5.867-5.867c0-3.246 2.621-5.867 5.867-5.867z"></path>
</svg>
