<!-- Generated by IcoMoon.io -->
<svg version="1.1" xmlns="http://www.w3.org/2000/svg" width="32" height="32" viewBox="0 0 32 32">
<title>mbri-shopping-bag</title>
<path d="M12.267 7.467h7.467c0.295 0 0.533 0.238 0.533 0.533s-0.238 0.533-0.533 0.533h-7.467c-0.295 0-0.533-0.238-0.533-0.533s0.238-0.533 0.533-0.533zM4.8 7.467c-0.879 0-1.517 0.74-1.598 1.547l-2.133 21.333c-0.094 0.939 0.719 1.653 1.598 1.653h26.667c0.879 0 1.692-0.717 1.598-1.653l-2.133-21.333c-0.081-0.805-0.719-1.547-1.598-1.547h-3.2c-0.715 0-0.693 1.067 0 1.067h3.2c0.303 0 0.498 0.218 0.535 0.587l2.133 21.333c0.025 0.24-0.233 0.48-0.535 0.48h-26.667c-0.303 0-0.56-0.24-0.535-0.48l2.133-21.333c0.037-0.369 0.233-0.587 0.535-0.587h3.2c0.715 0 0.698-1.067 0-1.067zM16 0c-3.529 0-6.4 2.871-6.4 6.4v4.8c0 0.709 1.067 0.709 1.067 0v-4.8c0-2.951 2.382-5.333 5.333-5.333s5.333 2.382 5.333 5.333v4.8c0 0.709 1.067 0.701 1.067 0v-4.8c0-3.529-2.871-6.4-6.4-6.4z"></path>
</svg>
