<!-- Generated by IcoMoon.io -->
<svg version="1.1" xmlns="http://www.w3.org/2000/svg" width="32" height="32" viewBox="0 0 32 32">
<title>mbri-layers</title>
<path d="M27.2 6.4c-0.704 0-0.691 1.067 0 1.067h3.2c0.305 0 0.533 0.228 0.533 0.533v22.4c0 0.305-0.228 0.533-0.533 0.533h-22.4c-0.305 0-0.533-0.228-0.533-0.533v-3.2c0-0.704-1.067-0.708-1.067 0v3.2c0 0.877 0.723 1.6 1.6 1.6h22.4c0.877 0 1.6-0.723 1.6-1.6v-22.4c0-0.877-0.723-1.6-1.6-1.6zM1.6 0c-0.877 0-1.6 0.723-1.6 1.6v22.4c0 0.877 0.723 1.6 1.6 1.6h22.4c0.877 0 1.6-0.723 1.6-1.6v-22.4c0-0.877-0.723-1.6-1.6-1.6zM1.6 1.067h22.4c0.305 0 0.533 0.228 0.533 0.533v22.4c0 0.305-0.228 0.533-0.533 0.533h-22.4c-0.305 0-0.533-0.228-0.533-0.533v-22.4c0-0.305 0.228-0.533 0.533-0.533z"></path>
</svg>
