<!-- Generated by IcoMoon.io -->
<svg version="1.1" xmlns="http://www.w3.org/2000/svg" width="32" height="32" viewBox="0 0 32 32">
<title>mbri-users</title>
<path d="M10.133 9.6c-1.774 0-3.042 0.935-3.781 2.116-0.739 1.182-1.019 2.594-1.019 3.75 0 1.483-0.455 2.863-1.895 3.823-0.439 0.292-0.233 0.977 0.295 0.977 0.683 0 1.521-0.013 2.375-0.327 0.318-0.117 0.821-0.382 1.131-0.597-0.094 0.391-0.299 0.962-0.462 1.177-0.427 0.557-1.020 0.815-1.978 0.815-0.701 0-0.704 1.067 0 1.067 1.175 0 2.182-0.395 2.822-1.233 0.64-0.837 0.911-2.025 0.911-3.567 0-0.547-0.723-0.74-0.996-0.267-0.539 0.934-1.152 1.365-1.797 1.604-0.235 0.085-0.482 0.057-0.725 0.096 0.867-1.074 1.386-2.306 1.386-3.567 0-0.977 0.26-2.231 0.857-3.183 0.594-0.953 1.458-1.617 2.877-1.617s2.283 0.665 2.877 1.617c0.597 0.951 0.857 2.206 0.857 3.183 0 1.261 0.517 2.493 1.387 3.567-0.243-0.039-0.491-0.011-0.725-0.096-0.647-0.238-1.259-0.67-1.798-1.604-0.273-0.474-0.997-0.281-0.996 0.267 0 1.542 0.272 2.694 0.736 3.506 0.467 0.811 1.179 1.294 1.931 1.294 0.713 0 0.701-1.067 0-1.067-0.315 0-0.67-0.174-1.003-0.757-0.139-0.239-0.377-0.843-0.451-1.376 0.331 0.241 0.869 0.613 1.212 0.739 0.853 0.315 1.694 0.327 2.375 0.327 0.528 0 0.736-0.685 0.295-0.977-1.44-0.96-1.895-2.34-1.895-3.823 0-1.156-0.279-2.569-1.019-3.75-0.739-1.181-2.007-2.116-3.781-2.116zM22.4 7.467c-2.019 0-3.413 0.905-4.229 2.019-0.816 1.114-1.104 2.397-1.104 3.314v2.133c0 0.949 0.316 1.661 0.597 2.181 0.283 0.521 0.469 0.858 0.469 1.019v1.6c0 0.528-0.363 1.109-1.333 1.67-1.062 0.613-2.662 1.515-3.733 2.133-0.64 0.37-1.003 0.898-1.171 1.387-0.167 0.491-0.162 0.943-0.162 1.21 0 0.717 1.067 0.701 1.067 0 0-0.267 0.005-0.573 0.105-0.864 0.098-0.288 0.269-0.56 0.695-0.806 1.062-0.613 2.662-1.515 3.733-2.133 1.163-0.672 1.867-1.579 1.867-2.596v-1.6c0-0.637-0.347-1.065-0.597-1.527-0.252-0.462-0.469-0.951-0.469-1.673v-2.133c0-0.683 0.245-1.799 0.896-2.686 0.651-0.885 1.657-1.581 3.371-1.581s2.72 0.695 3.371 1.581c0.651 0.885 0.896 2.005 0.896 2.686v2.133c0 0.721-0.218 1.211-0.469 1.673-0.251 0.463-0.597 0.891-0.597 1.527v1.6c0 0.386-0.011 0.836 0.166 1.312 0.176 0.473 0.553 0.928 1.167 1.284 0.617 0.355 1.136-0.578 0.533-0.926-0.452-0.261-0.608-0.485-0.7-0.731-0.091-0.245-0.1-0.553-0.1-0.939v-1.601c0-0.16 0.187-0.498 0.469-1.019 0.282-0.521 0.597-1.233 0.597-2.181v-2.133c0-0.917-0.288-2.201-1.104-3.314-0.816-1.115-2.21-2.019-4.229-2.019zM16 0c-8.83 0-16 7.17-16 16s7.17 16 16 16c8.83 0 16-7.17 16-16s-7.17-16-16-16zM16 1.067c8.254 0 14.933 6.679 14.933 14.933s-6.679 14.933-14.933 14.933-14.933-6.679-14.933-14.933 6.679-14.933 14.933-14.933z"></path>
</svg>
