<!-- Generated by IcoMoon.io -->
<svg version="1.1" xmlns="http://www.w3.org/2000/svg" width="32" height="32" viewBox="0 0 32 32">
<title>mbri-paperclip</title>
<path d="M25.859 0.009c-0.881 0.053-1.728 0.331-2.477 0.755-0.747 0.422-1.376 0.971-1.97 1.497l-17.914 15.843c-0.757 0.67-1.539 1.378-2.171 2.255-0.631 0.878-1.088 1.899-1.254 2.987-0.169 1.088-0.045 2.206 0.322 3.232 0.365 1.026 0.958 1.945 1.664 2.738 0.704 0.793 1.545 1.488 2.517 1.973 0.974 0.484 2.071 0.71 3.164 0.71 1.099 0 2.162-0.363 3.109-0.878 0.947-0.516 1.746-1.201 2.507-1.867l15.253-13.37c0.535-0.469-0.169-1.274-0.704-0.804l-15.253 13.371c-0.751 0.658-1.493 1.287-2.31 1.732-0.817 0.444-1.726 0.747-2.635 0.747-0.903 0-1.833-0.19-2.656-0.599-0.826-0.412-1.565-1.018-2.195-1.726-0.631-0.71-1.147-1.517-1.457-2.387-0.309-0.867-0.412-1.811-0.273-2.711s0.521-1.771 1.065-2.528c0.544-0.755 1.264-1.413 2.014-2.077l17.909-15.846c0.589-0.519 1.166-1.011 1.792-1.365 0.625-0.352 1.321-0.576 2.016-0.619 0.693-0.043 1.408 0.099 2.044 0.395 0.64 0.299 1.216 0.753 1.693 1.298 0.477 0.544 0.851 1.173 1.067 1.842 0.211 0.67 0.265 1.391 0.139 2.076-0.128 0.683-0.434 1.344-0.858 1.923s-0.978 1.093-1.561 1.617l-18.032 16.195c-0.407 0.366-0.8 0.704-1.216 0.935-0.418 0.235-0.88 0.373-1.338 0.395-0.459 0.019-0.932-0.080-1.36-0.279-0.429-0.199-0.825-0.501-1.178-0.86-0.341-0.347-0.625-0.731-0.807-1.145-0.181-0.41-0.261-0.864-0.219-1.296 0.043-0.43 0.211-0.859 0.469-1.23s0.623-0.708 1.021-1.056l15.353-13.461c0.537-0.469-0.167-1.275-0.704-0.805l-15.354 13.462c-0.405 0.355-0.841 0.745-1.191 1.25-0.352 0.507-0.594 1.101-0.657 1.734-0.062 0.633 0.055 1.263 0.305 1.829 0.249 0.565 0.619 1.049 1.026 1.463 0.422 0.429 0.915 0.811 1.486 1.077 0.576 0.269 1.214 0.41 1.858 0.382 0.646-0.028 1.264-0.224 1.811-0.529s0.994-0.701 1.408-1.074l18.035-16.192c0.59-0.529 1.203-1.090 1.709-1.781 0.507-0.693 0.885-1.493 1.045-2.361 0.16-0.864 0.094-1.76-0.171-2.592-0.267-0.832-0.721-1.579-1.283-2.221-0.563-0.64-1.25-1.191-2.043-1.561-0.794-0.37-1.678-0.547-2.56-0.495z"></path>
</svg>
