<!-- Generated by IcoMoon.io -->
<svg version="1.1" xmlns="http://www.w3.org/2000/svg" width="32" height="32" viewBox="0 0 32 32">
<title>mbri-cash</title>
<path d="M5.867 5.333c-0.699 0-0.704 1.077 0 1.067h23.467c0.305 0 0.533 0.228 0.533 0.533v13.867c0 0.704 1.067 0.704 1.067 0v-13.867c0-0.877-0.723-1.6-1.6-1.6h-23.467zM3.733 7.467c-0.698 0-0.698 1.067 0 1.067h23.467c0.305 0 0.533 0.228 0.533 0.533v13.867c0 0.709 1.077 0.704 1.067 0v-13.867c0-0.877-0.723-1.6-1.6-1.6h-23.467zM1.6 9.6c-0.877 0-1.6 0.723-1.6 1.6v12.8c0 0.877 0.723 1.6 1.6 1.6h23.467c0.877 0 1.6-0.723 1.6-1.6v-12.8c0-0.877-0.723-1.6-1.6-1.6h-23.467zM1.6 10.667h23.467c0.305 0 0.533 0.228 0.533 0.533v12.8c0 0.305-0.228 0.533-0.533 0.533h-23.467c-0.305 0-0.533-0.228-0.533-0.533v-12.8c0-0.305 0.228-0.533 0.533-0.533zM2.667 11.733c-0.294 0-0.533 0.239-0.533 0.533v2.133c0 0.717 1.067 0.7 1.067 0v-1.6h1.6c0.717 0 0.7-1.067 0-1.067h-2.133zM13.333 11.733c-3.234 0-5.867 2.633-5.867 5.867s2.633 5.867 5.867 5.867 5.867-2.633 5.867-5.867-2.633-5.867-5.867-5.867zM21.867 11.733c-0.7 0-0.717 1.067 0 1.067h1.6v1.6c0 0.7 1.067 0.717 1.067 0v-2.133c0-0.294-0.239-0.533-0.533-0.533h-2.133zM13.333 12.8c2.656 0 4.8 2.144 4.8 4.8s-2.144 4.8-4.8 4.8-4.8-2.144-4.8-4.8 2.144-4.8 4.8-4.8zM13.333 13.867c-0.295 0-0.533 0.238-0.533 0.533v0.634c-0.617 0.224-1.067 0.811-1.067 1.5 0 0.875 0.725 1.6 1.6 1.6 0.299 0 0.533 0.226 0.533 0.533s-0.235 0.533-0.533 0.533h-1.067c-0.361-0.005-0.533 0.265-0.533 0.533s0.173 0.539 0.533 0.533h0.533v0.533c0 0.295 0.238 0.533 0.533 0.533s0.533-0.238 0.533-0.533v-0.634c0.617-0.224 1.067-0.811 1.067-1.5 0-0.875-0.725-1.6-1.6-1.6-0.299 0-0.533-0.226-0.533-0.533s0.235-0.533 0.533-0.533h1.067c0.361 0.005 0.533-0.265 0.533-0.533s-0.173-0.539-0.533-0.533h-0.533v-0.533c0-0.295-0.238-0.533-0.533-0.533zM2.667 20.269c-0.267-0.002-0.533 0.173-0.533 0.531v2.133c0 0.294 0.239 0.533 0.533 0.533h2.133c0.7 0 0.717-1.067 0-1.067h-1.6v-1.6c0-0.35-0.267-0.529-0.533-0.531zM24 20.269c-0.267 0.002-0.533 0.181-0.533 0.531v1.6h-1.6c-0.717 0-0.7 1.067 0 1.067h2.133c0.294 0 0.533-0.239 0.533-0.533v-2.133c0-0.358-0.267-0.533-0.533-0.531z"></path>
</svg>
