<!-- Generated by IcoMoon.io -->
<svg version="1.1" xmlns="http://www.w3.org/2000/svg" width="32" height="32" viewBox="0 0 32 32">
<title>mbri-play</title>
<path d="M3.733 0c-0.512 0-0.738 0.715-0.279 0.988l23.467 14.4c0.587 0.358 0.811 0.773 0.813 1.146 0 0.373-0.219 0.789-0.809 1.143l-21.867 13.173c-0.448 0.258-0.791-0.087-0.791-0.61v-26.507c0-0.698-1.067-0.704-1.067 0v26.507c0 0.789 0.397 1.397 0.917 1.625 0.523 0.228 1.069 0.155 1.491-0.1l21.867-13.175c0.826-0.498 1.327-1.257 1.325-2.057s-0.503-1.553-1.321-2.054l-23.467-14.4c-0.091-0.057-0.171-0.078-0.279-0.078z"></path>
</svg>
