<!-- Generated by IcoMoon.io -->
<svg version="1.1" xmlns="http://www.w3.org/2000/svg" width="32" height="32" viewBox="0 0 32 32">
<title>mbri-protect</title>
<path d="M21.867 10.667c-0.139 0-0.284 0.064-0.381 0.162l-5.865 5.865c-0.263 0.263-0.495 0.356-0.693 0.357-0.196 0-0.412-0.085-0.685-0.357l-2.659-2.656c-0.484-0.507-1.253 0.274-0.753 0.755l2.659 2.656c0.418 0.418 0.91 0.672 1.44 0.669 0.528-0.003 1.039-0.262 1.444-0.668l5.867-5.867c0.331-0.325 0.115-0.917-0.373-0.917zM15.701 0.053c-0.141 0.062-0.352 0.195-0.599 0.347-0.249 0.151-0.733 0.459-1.205 0.717-0.947 0.512-2.133 1.019-3.23 1.019-1.173 0-2.051-0.245-2.867-0.509-0.815-0.263-1.575-0.56-2.466-0.56-0.826 0-1.628 0.13-2.247 0.643-0.622 0.514-0.953 1.401-0.953 2.557v8.533c0 1.259-0.203 5.618 2.202 9.865 1.415 2.498 3.861 4.795 6.163 6.498 1.152 0.851 2.266 1.552 3.211 2.046 0.944 0.494 1.653 0.791 2.291 0.791 0.64 0 1.347-0.299 2.291-0.791 0.945-0.494 2.059-1.195 3.211-2.046 2.302-1.703 4.747-4 6.163-6.498 2.404-4.245 2.202-8.606 2.202-9.865v-8.533c0-1.156-0.331-2.043-0.953-2.557-0.619-0.512-1.422-0.643-2.247-0.643-0.89 0-1.651 0.297-2.467 0.558-0.814 0.263-1.693 0.509-2.866 0.509-1.099 0-2.291-0.506-3.237-1.019-0.474-0.256-0.949-0.546-1.205-0.717-0.259-0.171-0.473-0.277-0.599-0.347-0.149-0.068-0.435-0.068-0.591 0zM16 1.163c0.098 0 0.185 0.053 0.323 0.141 0.318 0.199 0.752 0.474 1.262 0.75 1.020 0.553 2.347 1.147 3.748 1.147 1.325 0 2.347-0.288 3.191-0.558 0.843-0.272 1.5-0.509 2.142-0.509 0.706 0 1.237 0.128 1.568 0.4 0.331 0.273 0.565 0.768 0.565 1.733v8.533c0 1.362 0.178 5.381-2.065 9.339-1.291 2.281-3.648 4.523-5.869 6.167-1.109 0.821-2.187 1.497-3.068 1.958-0.883 0.462-1.637 0.669-1.798 0.669-0.16 0-0.915-0.207-1.798-0.669-0.882-0.462-1.957-1.136-3.069-1.958-2.221-1.643-4.576-3.887-5.867-6.167-2.245-3.957-2.066-7.977-2.066-9.339v-8.533c0-0.965 0.235-1.461 0.565-1.733s0.861-0.4 1.568-0.4c0.642 0 1.298 0.237 2.142 0.509 0.843 0.27 1.867 0.558 3.191 0.558 1.401 0 2.72-0.595 3.74-1.149 0.51-0.277 0.944-0.55 1.262-0.75 0.139-0.085 0.233-0.142 0.331-0.142z"></path>
</svg>
