<!-- Generated by IcoMoon.io -->
<svg version="1.1" xmlns="http://www.w3.org/2000/svg" width="32" height="32" viewBox="0 0 32 32">
<title>mbri-undo</title>
<path d="M0 9.067v5.333c0 0.279 0.254 0.533 0.533 0.533h5.333c0.719 0 0.707-1.067 0-1.067h-4.8v-4.8c0-0.702-1.067-0.708-1.067 0zM14.133 6.381c-4.377 0.186-8.693 2.051-11.867 5.534-0.442 0.498 0.325 1.235 0.8 0.699 5.955-6.533 16.096-6.923 22.635-0.966 3.323 3.030 5.232 7.331 5.232 11.833v0.519c0 0.73 1.067 0.69 1.067 0v-0.519c0-4.8-2.019-9.399-5.568-12.634-3.479-3.173-7.922-4.654-12.299-4.467z"></path>
</svg>
