<!-- Generated by IcoMoon.io -->
<svg version="1.1" xmlns="http://www.w3.org/2000/svg" width="32" height="32" viewBox="0 0 32 32">
<title>mbri-letter</title>
<path d="M2.667 7.467c-0.533 0-0.731 0.7-0.288 0.983l12.622 8.299c0.64 0.421 1.461 0.427 2.101 0l12.509-8.288c0.617-0.377-0.011-1.301-0.587-0.89l-12.51 8.288c-0.349 0.233-0.576 0.23-0.928 0l-12.618-8.302c-0.091-0.059-0.193-0.091-0.302-0.091zM1.6 5.333c-0.877 0-1.6 0.723-1.6 1.6v18.133c0 0.877 0.723 1.6 1.6 1.6h28.8c0.877 0 1.6-0.723 1.6-1.6v-18.133c0-0.877-0.723-1.6-1.6-1.6h-28.8zM1.6 6.4h28.8c0.305 0 0.533 0.228 0.533 0.533v18.133c0 0.305-0.228 0.533-0.533 0.533h-28.8c-0.305 0-0.533-0.228-0.533-0.533v-18.133c0-0.305 0.228-0.533 0.533-0.533z"></path>
</svg>
