<!-- Generated by IcoMoon.io -->
<svg version="1.1" xmlns="http://www.w3.org/2000/svg" width="32" height="32" viewBox="0 0 32 32">
<title>mbri-drag-n-drop2</title>
<path d="M14.933 13.319c0.004-0.139 0.062-0.269 0.16-0.366l1.067-1.065c0.209-0.208 0.546-0.208 0.754 0l1.067 1.065c0.48 0.48-0.288 1.216-0.754 0.753l-0.689-0.688-0.69 0.688c-0.339 0.346-0.914 0.092-0.914-0.387zM14.933 21.881c0.004 0.139 0.062 0.269 0.16 0.366l1.067 1.065c0.209 0.208 0.546 0.208 0.754 0l1.067-1.065c0.48-0.48-0.288-1.216-0.754-0.753l-0.689 0.688-0.69-0.688c-0.339-0.346-0.914-0.092-0.914 0.387zM20.814 16c0.139 0.004 0.269 0.062 0.366 0.16l1.065 1.067c0.208 0.209 0.208 0.546 0 0.754l-1.065 1.067c-0.48 0.48-1.216-0.288-0.753-0.754l0.688-0.689-0.688-0.69c-0.346-0.339-0.092-0.914 0.387-0.914zM12.253 16c-0.139 0.004-0.269 0.062-0.366 0.16l-1.065 1.067c-0.208 0.209-0.208 0.546 0 0.754l1.065 1.067c0.48 0.48 1.216-0.288 0.753-0.754l-0.688-0.689 0.688-0.69c0.346-0.339 0.092-0.914-0.387-0.914zM16.533 13.867c-0.295 0-0.533 0.238-0.533 0.533v2.667h-2.667c-0.295 0-0.533 0.238-0.533 0.533s0.238 0.533 0.533 0.533h2.667v2.667c0 0.295 0.238 0.533 0.533 0.533s0.533-0.238 0.533-0.533v-2.667h2.667c0.295 0 0.533-0.238 0.533-0.533s-0.238-0.533-0.533-0.533h-2.667v-2.667c0-0.295-0.238-0.533-0.533-0.533zM2.667 8.533h26.667c0.295 0 0.533 0.238 0.533 0.533s-0.238 0.533-0.533 0.533h-26.667c-0.295 0-0.533-0.238-0.533-0.533s0.238-0.533 0.533-0.533zM7.467 6.933c0 0.295-0.239 0.533-0.533 0.533v0c-0.295 0-0.533-0.239-0.533-0.533v0c0-0.295 0.239-0.533 0.533-0.533v0c0.295 0 0.533 0.239 0.533 0.533v0zM5.333 6.933c0 0.295-0.239 0.533-0.533 0.533v0c-0.295 0-0.533-0.239-0.533-0.533v0c0-0.295 0.239-0.533 0.533-0.533v0c0.295 0 0.533 0.239 0.533 0.533v0zM3.2 6.933c0 0.295-0.239 0.533-0.533 0.533v0c-0.295 0-0.533-0.239-0.533-0.533v0c0-0.295 0.239-0.533 0.533-0.533v0c0.295 0 0.533 0.239 0.533 0.533v0zM1.6 4.267c-0.877 0-1.6 0.723-1.6 1.6v20.267c0 0.877 0.723 1.6 1.6 1.6h28.8c0.877 0 1.6-0.723 1.6-1.6v-20.267c0-0.877-0.723-1.6-1.6-1.6h-28.8zM1.6 5.333h28.8c0.305 0 0.533 0.228 0.533 0.533v20.267c0 0.305-0.228 0.533-0.533 0.533h-28.8c-0.305 0-0.533-0.228-0.533-0.533v-20.267c0-0.305 0.228-0.533 0.533-0.533z"></path>
</svg>
