<!-- Generated by IcoMoon.io -->
<svg version="1.1" xmlns="http://www.w3.org/2000/svg" width="32" height="32" viewBox="0 0 32 32">
<title>mbri-speed</title>
<path d="M12.267 0c-0.698 0-0.693 1.067 0 1.067h7.298c0.768 0 0.779 0.435 0.591 0.821l-4.096 8c-0.183 0.356 0.075 0.779 0.474 0.779h7.543c0.16 0 0.345 0.099 0.416 0.265 0.075 0.165 0.101 0.473-0.307 1.013l-13.167 17.463 1.775-10.654c0.053-0.325-0.197-0.622-0.527-0.621h-4.224c-0.594 0-0.64-0.175-0.539-0.996l2.091-15.467c0.096-0.704-0.963-0.847-1.056-0.141l-2.093 15.467c-0.080 0.593-0.064 1.118 0.217 1.557 0.282 0.441 0.819 0.646 1.379 0.646h3.593l-2.028 12.179c-0.092 0.55 0.617 0.853 0.951 0.409l14.48-19.2c0.559-0.74 0.686-1.5 0.433-2.080-0.256-0.58-0.821-0.907-1.395-0.907h-6.671l3.698-7.221c0.201-0.393 0.337-0.913 0.128-1.451-0.21-0.542-0.836-0.929-1.668-0.929z"></path>
</svg>
