<!-- Generated by IcoMoon.io -->
<svg version="1.1" xmlns="http://www.w3.org/2000/svg" width="32" height="32" viewBox="0 0 32 32">
<title>mbri-menu</title>
<path d="M0.533 25.606h30.933c0.295 0 0.533 0.238 0.533 0.533s-0.238 0.533-0.533 0.533h-30.933c-0.295 0-0.533-0.238-0.533-0.533s0.238-0.533 0.533-0.533zM0.533 14.937h30.933c0.295 0 0.533 0.238 0.533 0.533s-0.238 0.533-0.533 0.533h-30.933c-0.295 0-0.533-0.238-0.533-0.533s0.238-0.533 0.533-0.533zM0.533 4.267h30.933c0.295 0 0.533 0.238 0.533 0.533s-0.238 0.533-0.533 0.533h-30.933c-0.295 0-0.533-0.238-0.533-0.533s0.238-0.533 0.533-0.533z"></path>
</svg>
