<!-- Generated by IcoMoon.io -->
<svg version="1.1" xmlns="http://www.w3.org/2000/svg" width="32" height="32" viewBox="0 0 32 32">
<title>mbri-wifi</title>
<path d="M16 5.333c-6.086 0-12.085 2.894-15.872 7.657-0.082 0.093-0.132 0.217-0.132 0.352 0 0.295 0.239 0.533 0.533 0.533 0.178 0 0.336-0.088 0.433-0.222l0.001-0.002c3.577-4.497 9.291-7.253 15.040-7.253s11.463 2.756 15.040 7.253c0.098 0.139 0.257 0.229 0.438 0.229 0.295 0 0.533-0.239 0.533-0.533 0-0.138-0.052-0.263-0.138-0.358l0 0c-3.79-4.763-9.787-7.657-15.875-7.657zM16 11.733c-4.155 0-8.219 2.139-10.571 5.562-0.064 0.087-0.102 0.196-0.102 0.313 0 0.295 0.239 0.533 0.533 0.533 0.187 0 0.351-0.096 0.446-0.241l0.001-0.002c2.144-3.119 5.905-5.099 9.692-5.099s7.549 1.98 9.692 5.099c0.097 0.147 0.261 0.243 0.447 0.243 0.295 0 0.533-0.239 0.533-0.533 0-0.118-0.038-0.227-0.103-0.315l0.001 0.002c-2.352-3.424-6.416-5.562-10.571-5.562zM16 18.133c-1.956 0-3.876 0.851-5.187 2.302-0.099 0.097-0.16 0.232-0.16 0.381 0 0.295 0.239 0.533 0.533 0.533 0.168 0 0.317-0.077 0.415-0.198l0.001-0.001c1.102-1.22 2.754-1.952 4.398-1.952 1.643 0 3.296 0.732 4.397 1.952 0.099 0.122 0.248 0.199 0.416 0.199 0.295 0 0.533-0.239 0.533-0.533 0-0.149-0.061-0.284-0.16-0.381l-0-0c-1.309-1.451-3.229-2.302-5.186-2.302zM17.067 24.533c0 0.589-0.478 1.067-1.067 1.067v0c-0.589 0-1.067-0.478-1.067-1.067v0c0-0.589 0.478-1.067 1.067-1.067v0c0.589 0 1.067 0.478 1.067 1.067v0z"></path>
</svg>
