<!-- Generated by IcoMoon.io -->
<svg version="1.1" xmlns="http://www.w3.org/2000/svg" width="32" height="32" viewBox="0 0 32 32">
<title>mbri-lock</title>
<path d="M15.467 0c-4.412 0-8 3.588-8 8v3.2c0 0.701 1.067 0.713 1.067 0v-3.2c0-3.836 3.098-6.933 6.933-6.933s6.933 3.098 6.933 6.933v3.2c0 0.721 1.067 0.687 1.067 0v-3.2c0-4.412-3.588-8-8-8zM15.467 18.133c-1.467 0-2.667 1.2-2.667 2.667 0 0.821 0.433 1.541 1.067 2.042v2.225c0 0.877 0.723 1.6 1.6 1.6s1.6-0.723 1.6-1.6v-2.227c0.634-0.501 1.067-1.219 1.067-2.039 0-1.467-1.2-2.667-2.667-2.667zM15.467 19.2c0.89 0 1.6 0.71 1.6 1.6 0 0.572-0.305 1.095-0.8 1.381-0.165 0.096-0.267 0.272-0.267 0.463v2.421c0 0.305-0.228 0.533-0.533 0.533s-0.533-0.228-0.533-0.533v-2.421c0-0.19-0.101-0.367-0.267-0.462-0.495-0.286-0.8-0.811-0.8-1.383 0-0.89 0.71-1.6 1.6-1.6zM5.867 12.8c-0.877 0-1.6 0.723-1.6 1.6v16c0 0.877 0.723 1.6 1.6 1.6h19.2c0.877 0 1.6-0.723 1.6-1.6v-16c0-0.877-0.723-1.6-1.6-1.6zM5.867 13.867h19.2c0.305 0 0.533 0.228 0.533 0.533v16c0 0.305-0.228 0.533-0.533 0.533h-19.2c-0.305 0-0.533-0.228-0.533-0.533v-16c0-0.305 0.228-0.533 0.533-0.533z"></path>
</svg>
