<!-- Generated by IcoMoon.io -->
<svg version="1.1" xmlns="http://www.w3.org/2000/svg" width="32" height="32" viewBox="0 0 32 32">
<title>mbri-image-gallery</title>
<path d="M11.2 5.333c-0.078 0-0.149 0.016-0.221 0.048l-10.094 4.592c-0.786 0.357-1.102 1.309-0.733 2.075l6.626 13.744c0.37 0.766 1.323 1.141 2.098 0.708l3.65-2.034c0.627-0.318 0.047-1.259-0.518-0.931l-3.652 2.033c-0.209 0.117-0.498 0.011-0.619-0.239l-0.442-0.914 2.011-1.006c0.645-0.324 0.083-1.237-0.48-0.954l-1.995 0.997-5.718-11.869c-0.121-0.249-0.025-0.531 0.213-0.64l10.095-4.592c0.517-0.237 0.306-1.019-0.221-1.019zM16.295 4.267c-0.203 0-0.402 0.037-0.589 0.111-0.373 0.146-0.691 0.434-0.864 0.827l-6.179 14.156c-0.341 0.786 0.021 1.717 0.807 2.059l14.162 6.183c0.786 0.341 1.717-0.021 2.059-0.807l6.181-14.162c0.341-0.786-0.025-1.717-0.811-2.059l-14.159-6.179c-0.196-0.085-0.403-0.128-0.608-0.128zM16.279 5.327c0.064 0.002 0.13 0.017 0.195 0.046l14.163 6.181c0.26 0.114 0.368 0.395 0.254 0.654l-5.141 11.783-15.072-6.577 5.143-11.787c0.085-0.194 0.265-0.305 0.459-0.301zM10.251 18.391l15.072 6.579-0.61 1.401c-0.114 0.26-0.395 0.37-0.654 0.256l-14.163-6.181c-0.26-0.114-0.37-0.395-0.256-0.656zM8 17.067c-0.235-0.002-0.435 0.142-0.507 0.365l-1.067 3.2c-0.207 0.622 0.782 1.031 1.013 0.337l1.067-3.2c0.119-0.345-0.142-0.7-0.507-0.702zM17.6 13.867c-0.080 0-0.166 0.021-0.238 0.057l-4.267 2.133c-0.636 0.285-0.099 1.269 0.476 0.954l3.845-1.922 1.873 2.807c0.149 0.224 0.441 0.301 0.683 0.181l3.844-1.922 1.873 2.807c0.375 0.583 1.269-0.035 0.887-0.591l-2.133-3.2c-0.149-0.224-0.441-0.301-0.683-0.181l-3.844 1.922-1.873-2.807c-0.1-0.151-0.262-0.241-0.444-0.238zM18.133 8.533c-1.173 0-2.133 0.96-2.133 2.133s0.96 2.133 2.133 2.133 2.133-0.96 2.133-2.133-0.96-2.133-2.133-2.133zM18.133 9.6c0.601 0 1.067 0.466 1.067 1.067s-0.466 1.067-1.067 1.067-1.067-0.466-1.067-1.067 0.466-1.067 1.067-1.067zM6.4 11.733c-1.173 0-2.133 0.96-2.133 2.133s0.96 2.133 2.133 2.133 2.133-0.96 2.133-2.133-0.96-2.133-2.133-2.133zM6.4 12.8c0.601 0 1.067 0.466 1.067 1.067s-0.466 1.067-1.067 1.067-1.067-0.466-1.067-1.067 0.466-1.067 1.067-1.067z"></path>
</svg>
