<!-- Generated by IcoMoon.io -->
<svg version="1.1" xmlns="http://www.w3.org/2000/svg" width="32" height="32" viewBox="0 0 32 32">
<title>mbri-login</title>
<path d="M9.067 0c-0.877 0-1.6 0.723-1.6 1.6v6.4c0 0.709 1.067 0.715 1.067 0v-6.4c0-0.305 0.228-0.533 0.533-0.533h21.333c0.305 0 0.533 0.228 0.533 0.533v28.8c0 0.305-0.228 0.533-0.533 0.533h-21.333c-0.305 0-0.533-0.228-0.533-0.533v-7.467c0-0.704-1.067-0.698-1.067 0v7.467c0 0.877 0.723 1.6 1.6 1.6h21.333c0.877 0 1.6-0.723 1.6-1.6v-28.8c0-0.877-0.723-1.6-1.6-1.6zM14.4 10.667c-0.48 0-0.687 0.601-0.378 0.911l3.89 3.889-3.89 3.889c-0.471 0.454 0.271 1.237 0.755 0.755l4.267-4.267c0.208-0.209 0.208-0.546 0-0.755l-4.267-4.267c-0.101-0.103-0.235-0.156-0.378-0.156zM0.533 14.933h14.933c0.295 0 0.533 0.238 0.533 0.533s-0.238 0.533-0.533 0.533h-14.933c-0.295 0-0.533-0.238-0.533-0.533s0.238-0.533 0.533-0.533z"></path>
</svg>
