<!-- Generated by IcoMoon.io -->
<svg version="1.1" xmlns="http://www.w3.org/2000/svg" width="32" height="32" viewBox="0 0 32 32">
<title>mbri-alert</title>
<path d="M14.4 28.8c-0.294 0.004-0.538 0.239-0.533 0.533v0.533c0 1.173 0.96 2.133 2.133 2.133s2.133-0.96 2.133-2.133v-0.533c0-0.355-0.267-0.533-0.533-0.533s-0.533 0.173-0.533 0.533v0.533c0 0.601-0.466 1.067-1.067 1.067s-1.067-0.466-1.067-1.067v-0.533c0.004-0.301-0.233-0.538-0.533-0.533zM16 0c-1.76 0-3.2 1.44-3.2 3.2v0.533c0 0.693 1.067 0.704 1.067 0v-0.533c0-1.184 0.949-2.133 2.133-2.133s2.133 0.949 2.133 2.133v0.533c0 0.698 1.067 0.704 1.067 0v-0.533c0-1.76-1.44-3.2-3.2-3.2zM24 3.2c3.236 0 5.867 2.633 5.867 5.867 0 0.709-1.067 0.709-1.067 0 0-2.656-2.14-4.8-4.8-4.8-0.711 0-0.707-1.067 0-1.067zM8 3.2c-3.234 0-5.867 2.633-5.867 5.867 0 0.709 1.067 0.709 1.067 0 0-2.656 2.144-4.8 4.8-4.8 0.713 0 0.709-1.067 0-1.067zM16 5.333c-4.608 0-7.134 1.931-8.361 4.375s-1.239 5.327-1.239 7.358c0 2.133 0 6.205-3.072 9.786-0.080 0.093-0.129 0.215-0.129 0.348 0 0.295 0.239 0.533 0.533 0.533 0 0 0.001 0 0.001 0h24.533c0 0 0.001 0 0.001 0 0.295 0 0.533-0.239 0.533-0.533 0-0.133-0.049-0.255-0.13-0.348l0.001 0.001c-3.072-3.581-3.072-7.652-3.072-9.786 0-2.031-0.014-4.913-1.239-7.358-1.227-2.445-3.753-4.375-8.361-4.375zM16 6.4c4.324 0 6.333 1.646 7.406 3.787 1.074 2.144 1.127 4.862 1.127 6.88 0 1.975 0.114 5.938 2.758 9.6h-22.583c2.645-3.662 2.758-7.625 2.758-9.6 0-2.019 0.053-4.736 1.127-6.88 1.073-2.14 3.083-3.787 7.406-3.787z"></path>
</svg>
