<!-- Generated by IcoMoon.io -->
<svg version="1.1" xmlns="http://www.w3.org/2000/svg" width="32" height="32" viewBox="0 0 32 32">
<title>mbri-bulleted-list</title>
<path d="M3.733 22.4c-2.055 0-3.733 1.678-3.733 3.733s1.678 3.733 3.733 3.733 3.733-1.678 3.733-3.733-1.678-3.733-3.733-3.733zM3.733 23.467c1.479 0 2.667 1.187 2.667 2.667s-1.187 2.667-2.667 2.667-2.667-1.187-2.667-2.667 1.187-2.667 2.667-2.667zM3.733 11.733c-2.055 0-3.733 1.678-3.733 3.733s1.678 3.733 3.733 3.733 3.733-1.678 3.733-3.733-1.678-3.733-3.733-3.733zM3.733 12.8c1.479 0 2.667 1.187 2.667 2.667s-1.187 2.667-2.667 2.667-2.667-1.187-2.667-2.667 1.187-2.667 2.667-2.667zM3.733 1.067c-2.055 0-3.719 1.678-3.719 3.733s1.664 3.733 3.719 3.733 3.719-1.678 3.719-3.733-1.663-3.733-3.719-3.733zM3.733 2.133c1.479 0 2.681 1.187 2.681 2.667s-1.202 2.667-2.681 2.667-2.681-1.187-2.681-2.667 1.201-2.667 2.681-2.667zM31.467 5.333h-21.333c-0.715 0-0.693-1.067 0-1.067h21.333c0.704 0 0.715 1.067 0 1.067zM31.467 16h-21.333c-0.715 0-0.693-1.067 0-1.067h21.333c0.704 0 0.715 1.067 0 1.067zM31.467 26.667h-21.333c-0.715 0-0.693-1.067 0-1.067h21.333c0.704 0 0.715 1.067 0 1.067z"></path>
</svg>
