<!-- Generated by IcoMoon.io -->
<svg version="1.1" xmlns="http://www.w3.org/2000/svg" width="32" height="32" viewBox="0 0 32 32">
<title>mbri-shopping-cart</title>
<path d="M11.2 18.133h14.933c0.297 0 0.533 0.238 0.533 0.533s-0.237 0.533-0.533 0.533h-14.933c-0.294 0-0.533-0.238-0.533-0.533s0.239-0.533 0.533-0.533zM10.133 13.867h17.067c0.297 0 0.533 0.238 0.533 0.533s-0.237 0.533-0.533 0.533h-17.067c-0.294 0-0.533-0.238-0.533-0.533s0.239-0.533 0.533-0.533zM0.533 5.333c-0.697 0-0.715 1.067 0 1.067h3.84c0.083 0.369 0.683 2.997 1.399 6.118 0.765 3.334 1.549 7.808 1.713 8.419 0.141 0.527 0.272 1.125 0.661 1.647 0.386 0.521 1.067 0.881 1.986 0.881h17.067c0.917 0 1.6-0.361 1.987-0.881 0.388-0.523 0.519-1.12 0.661-1.648 0.283-1.059 1.728-7.407 2.016-8.482 0.162-0.604 0.215-1.233 0.023-1.803s-0.768-1.054-1.488-1.054h-21.333c-0.697 0-0.704 1.067 0 1.067h21.333c0.347 0 0.39 0.075 0.477 0.331 0.085 0.254 0.081 0.719-0.043 1.182-0.285 1.058-1.728 7.408-2.016 8.483-0.144 0.54-0.279 1.008-0.486 1.286-0.207 0.279-0.448 0.452-1.131 0.452h-17.067c-0.683 0-0.924-0.173-1.131-0.452-0.208-0.277-0.343-0.747-0.489-1.285-0.122-0.454-0.939-5.047-1.701-8.38-0.765-3.333-1.493-6.533-1.493-6.533-0.053-0.244-0.27-0.415-0.521-0.415zM25.067 24.533c-1.465 0-2.667 1.2-2.667 2.667s1.202 2.667 2.667 2.667c1.468 0 2.667-1.2 2.667-2.667s-1.198-2.667-2.667-2.667zM25.067 25.6c0.892 0 1.6 0.71 1.6 1.6s-0.708 1.6-1.6 1.6c-0.889 0-1.6-0.71-1.6-1.6s0.711-1.6 1.6-1.6zM12.267 24.533c-1.463 0-2.667 1.2-2.667 2.667s1.202 2.667 2.667 2.667c1.468 0 2.667-1.2 2.667-2.667s-1.198-2.667-2.667-2.667zM12.267 25.6c0.892 0 1.6 0.71 1.6 1.6s-0.708 1.6-1.6 1.6c-0.889 0-1.6-0.71-1.6-1.6s0.711-1.6 1.6-1.6z"></path>
</svg>
