<!-- Generated by IcoMoon.io -->
<svg version="1.1" xmlns="http://www.w3.org/2000/svg" width="32" height="32" viewBox="0 0 32 32">
<title>mbri-clock</title>
<path d="M14.933 28.267v-1.067c0-0.32 0.213-0.533 0.533-0.533s0.533 0.213 0.533 0.533v1.067c0 0.32-0.213 0.533-0.533 0.533s-0.533-0.213-0.533-0.533zM14.933 3.733v-1.067c0-0.32 0.213-0.533 0.533-0.533s0.533 0.213 0.533 0.533v1.067c0 0.32-0.213 0.533-0.533 0.533s-0.533-0.213-0.533-0.533zM2.667 14.933h1.067c0.32 0 0.533 0.213 0.533 0.533s-0.213 0.533-0.533 0.533h-1.067c-0.32 0-0.533-0.213-0.533-0.533s0.213-0.533 0.533-0.533zM27.2 14.933h1.067c0.32 0 0.533 0.213 0.533 0.533s-0.213 0.533-0.533 0.533h-1.067c-0.32 0-0.533-0.213-0.533-0.533s0.213-0.533 0.533-0.533zM15.467 5.333c-0.32 0-0.533 0.213-0.533 0.533v6.933c-1.067 0.32-2.133 1.387-2.133 2.667 0 1.493 1.067 2.667 2.667 2.667 1.28 0 2.347-1.067 2.56-2.133h4.8c0.32 0 0.533-0.213 0.533-0.533s-0.213-0.533-0.533-0.533h-4.693c-0.32-1.067-1.067-1.813-2.133-2.133v-6.827c0-0.32-0.213-0.533-0.533-0.533zM15.467 13.867c0.853 0 1.6 0.747 1.6 1.6s-0.747 1.6-1.6 1.6-1.6-0.747-1.6-1.6 0.747-1.6 1.6-1.6zM15.467 0c-8.533 0-15.467 6.933-15.467 15.467s6.933 15.467 15.467 15.467 15.467-6.933 15.467-15.467-6.933-15.467-15.467-15.467zM15.467 1.067c8 0 14.4 6.4 14.4 14.4s-6.4 14.4-14.4 14.4-14.4-6.4-14.4-14.4 6.4-14.4 14.4-14.4z"></path>
</svg>
