<!-- Generated by IcoMoon.io -->
<svg version="1.1" xmlns="http://www.w3.org/2000/svg" width="32" height="32" viewBox="0 0 32 32">
<title>mbri-growing-chart</title>
<path d="M29.316 12.8c-0.144 0.005-0.273 0.066-0.366 0.162l-0 0-9.062 9.156c-0.046 0.046-0.228 0.128-0.425 0.128s-0.369-0.079-0.41-0.122l-4.267-4.455c-0.326-0.341-0.764-0.452-1.182-0.451-0.416 0-0.851 0.113-1.181 0.445l-10.131 10.22c-0.095 0.096-0.154 0.229-0.154 0.375 0 0.295 0.239 0.534 0.534 0.534 0.149 0 0.283-0.061 0.38-0.159l0-0 10.129-10.222c0.046-0.047 0.228-0.128 0.425-0.128 0.196-0.002 0.37 0.079 0.411 0.122l4.267 4.455c0.327 0.341 0.765 0.452 1.182 0.451 0.418 0 0.853-0.113 1.181-0.445l9.063-9.157c0.098-0.097 0.158-0.231 0.158-0.379 0-0.295-0.239-0.533-0.533-0.533-0.006 0-0.012 0-0.018 0l0.001-0zM28.267 10.667c-0.708 0-0.695 1.067 0 1.067h2.667v2.667c0 0.717 1.067 0.695 1.067 0v-3.2c0-0.294-0.239-0.533-0.533-0.533zM0.533 0c-0.294 0.004-0.538 0.239-0.533 0.533v30.933c0 0.294 0.239 0.533 0.533 0.533h30.933c0.721 0.011 0.721-1.077 0-1.067h-30.4v-30.4c0.004-0.301-0.233-0.538-0.533-0.533z"></path>
</svg>
