<!-- Generated by IcoMoon.io -->
<svg version="1.1" xmlns="http://www.w3.org/2000/svg" width="32" height="32" viewBox="0 0 32 32">
<title>mbri-search</title>
<path d="M11.2 18.133c-0.139 0.004-0.27 0.062-0.367 0.16l-10.15 10.135c-0.956 0.953-0.828 2.276-0.112 2.997 0.715 0.719 2.041 0.848 2.997-0.11l10.123-10.123c0.525-0.503-0.267-1.261-0.753-0.755l-10.123 10.123c-0.619 0.619-1.141 0.459-1.489 0.111-0.348-0.35-0.501-0.881 0.109-1.49l10.151-10.137c0.348-0.339 0.090-0.914-0.387-0.914zM20.213 2.208c-1.711 0.227-3.356 0.971-4.683 2.201-0.523 0.483 0.224 1.248 0.725 0.783 2.325-2.155 5.751-2.608 8.557-1.131 0.619 0.354 1.123-0.643 0.496-0.944-1.6-0.843-3.381-1.135-5.094-0.909zM21.333 0c-5.885 0-10.667 4.782-10.667 10.667s4.782 10.667 10.667 10.667 10.667-4.782 10.667-10.667-4.782-10.667-10.667-10.667zM21.333 1.067c5.308 0 9.6 4.292 9.6 9.6s-4.292 9.6-9.6 9.6-9.6-4.292-9.6-9.6 4.292-9.6 9.6-9.6z"></path>
</svg>
