<!-- Generated by IcoMoon.io -->
<svg version="1.1" xmlns="http://www.w3.org/2000/svg" width="32" height="32" viewBox="0 0 32 32">
<title>mbri-preview</title>
<path d="M15.439 10.669c-1.173 0-2.301 0.493-3.164 1.275-0.987 0.896-1.609 2.183-1.609 3.514 0 0.709 1.067 0.734 1.067 0.026 0-1.029 0.497-2.059 1.261-2.752 0.669-0.608 1.568-0.969 2.473-0.996 0.699 0 0.717-1.065-0.028-1.065zM16 8.533c-4.117 0-7.467 3.349-7.467 7.467s3.349 7.467 7.467 7.467 7.467-3.349 7.467-7.467-3.349-7.467-7.467-7.467zM16 9.6c3.541 0 6.4 2.859 6.4 6.4s-2.859 6.4-6.4 6.4-6.4-2.859-6.4-6.4 2.859-6.4 6.4-6.4zM16 6.4c-5.209 0-9.2 2.083-11.872 4.288-1.338 1.102-2.347 2.235-3.033 3.166-0.341 0.466-0.603 0.881-0.785 1.227-0.181 0.347-0.309 0.555-0.309 0.919 0 0.363 0.128 0.573 0.309 0.917 0.183 0.348 0.444 0.763 0.786 1.229 0.685 0.931 1.696 2.064 3.031 3.166 2.671 2.205 6.662 4.288 11.872 4.288 5.209 0 9.2-2.083 11.872-4.288 1.338-1.102 2.347-2.235 3.033-3.166 0.341-0.466 0.603-0.881 0.785-1.227 0.181-0.347 0.309-0.555 0.309-0.919 0-0.363-0.128-0.573-0.309-0.917-0.183-0.348-0.444-0.763-0.786-1.229-0.685-0.931-1.696-2.064-3.031-3.166-2.671-2.205-6.662-4.288-11.872-4.288zM16 7.467c4.925 0 8.667 1.961 11.194 4.043 1.264 1.043 2.221 2.116 2.852 2.976 0.316 0.43 0.549 0.809 0.7 1.092 0.187 0.349 0.145 0.587 0 0.845-0.157 0.281-0.384 0.661-0.7 1.092-0.631 0.86-1.589 1.933-2.852 2.976-2.528 2.080-6.269 4.043-11.194 4.043s-8.667-1.961-11.194-4.043c-1.264-1.043-2.221-2.116-2.852-2.976-0.316-0.43-0.544-0.811-0.7-1.092-0.149-0.267-0.181-0.517 0-0.845 0.155-0.282 0.384-0.661 0.7-1.092 0.631-0.86 1.589-1.933 2.852-2.976 2.528-2.080 6.269-4.043 11.194-4.043z"></path>
</svg>
