<!-- Generated by IcoMoon.io -->
<svg version="1.1" xmlns="http://www.w3.org/2000/svg" width="32" height="32" viewBox="0 0 32 32">
<title>mbri-up-down</title>
<path d="M10.667 3.733v24.533c0 0.719-1.067 0.701-1.067 0v-24.533c0-0.718 1.067-0.698 1.067 0zM6.266 5.166l3.887-3.883 3.853 3.883c0.48 0.495 1.28-0.25 0.757-0.757l-4.231-4.259c-0.198-0.199-0.56-0.199-0.757 0l-4.267 4.259c-0.523 0.521 0.254 1.259 0.757 0.757zM21.333 28.267v-24.533c0-0.719 1.067-0.701 1.067 0v24.533c0 0.718-1.067 0.698-1.067 0zM25.734 26.833l-3.887 3.883-3.853-3.883c-0.48-0.495-1.28 0.25-0.757 0.757l4.231 4.26c0.198 0.198 0.56 0.198 0.757 0l4.267-4.26c0.523-0.521-0.254-1.259-0.757-0.757z"></path>
</svg>
