<!-- Generated by IcoMoon.io -->
<svg version="1.1" xmlns="http://www.w3.org/2000/svg" width="32" height="32" viewBox="0 0 32 32">
<title>mbri-watch</title>
<path d="M12.267 19.2c0.32 0 0.533 0.213 0.533 0.533s-0.213 0.533-0.533 0.533-0.533-0.213-0.533-0.533 0.213-0.533 0.533-0.533zM19.733 19.2c0.32 0 0.533 0.213 0.533 0.533s-0.213 0.533-0.533 0.533-0.533-0.213-0.533-0.533 0.213-0.533 0.533-0.533zM19.733 11.733c0.32 0 0.533 0.213 0.533 0.533s-0.213 0.533-0.533 0.533-0.533-0.213-0.533-0.533 0.213-0.533 0.533-0.533zM12.267 11.733c0.32 0 0.533 0.213 0.533 0.533s-0.213 0.533-0.533 0.533-0.533-0.213-0.533-0.533 0.213-0.533 0.533-0.533zM20.267 14.933c0.64 0 1.067 0.427 1.067 1.067s-0.427 1.067-1.067 1.067-1.067-0.427-1.067-1.067 0.427-1.067 1.067-1.067zM11.733 14.933c0.64 0 1.067 0.427 1.067 1.067s-0.427 1.067-1.067 1.067-1.067-0.427-1.067-1.067 0.427-1.067 1.067-1.067zM17.067 20.267c0 0.64-0.427 1.067-1.067 1.067s-1.067-0.427-1.067-1.067 0.427-1.067 1.067-1.067 1.067 0.427 1.067 1.067zM17.067 11.733c0 0.64-0.427 1.067-1.067 1.067s-1.067-0.427-1.067-1.067 0.427-1.067 1.067-1.067 1.067 0.427 1.067 1.067zM16 13.867c-1.067 0-2.133 1.067-2.133 2.133s1.067 2.133 2.133 2.133 2.133-1.067 2.133-2.133-1.067-2.133-2.133-2.133zM16 14.933c0.64 0 1.067 0.427 1.067 1.067s-0.427 1.067-1.067 1.067-1.067-0.427-1.067-1.067 0.427-1.067 1.067-1.067zM9.067 7.467c-0.853 0-1.6 0.747-1.6 1.6v0.533l-5.973 1.067c-0.32 0-0.747 0.213-1.067 0.533-0.213 0.213-0.427 0.64-0.427 1.067v7.467c0 0.427 0.213 0.853 0.533 1.067 0.213 0.32 0.64 0.427 1.067 0.533l5.867 1.067v0.533c0 0.853 0.747 1.6 1.6 1.6h13.867c0.853 0 1.6-0.747 1.6-1.6v-0.533l5.973-1.067c0.32 0 0.747-0.213 1.067-0.533 0.213-0.213 0.427-0.64 0.427-1.067v-7.467c0-0.427-0.213-0.853-0.533-1.067-0.213-0.32-0.64-0.427-1.067-0.533l-5.867-1.067v-0.533c0-0.853-0.747-1.6-1.6-1.6zM23.467 22.933c0 0.32-0.213 0.533-0.533 0.533h-13.867c-0.32 0-0.533-0.213-0.533-0.533v-13.867c0-0.32 0.213-0.533 0.533-0.533h13.867c0.32 0 0.533 0.213 0.533 0.533zM7.467 10.667v10.667l-5.76-1.067c-0.427 0-0.64-0.213-0.64-0.533v-7.467c0-0.32 0.213-0.427 0.64-0.533zM24.533 10.667l5.76 1.067c0.533 0 0.64 0.32 0.64 0.533v7.467c0 0.32-0.213 0.427-0.64 0.533l-5.76 1.067z"></path>
</svg>
