<!-- Generated by IcoMoon.io -->
<svg version="1.1" xmlns="http://www.w3.org/2000/svg" width="32" height="32" viewBox="0 0 32 32">
<title>mbri-align-left</title>
<path d="M0.533 24.533h18.133c0.725 0 0.69 1.067 0 1.067h-18.133c-0.688 0-0.718-1.067 0-1.067zM0.533 18.133h30.933c0.718 0 0.698 1.067 0 1.067h-30.933c-0.693 0-0.715-1.067 0-1.067zM0.533 11.733h18.133c0.693 0 0.725 1.067 0 1.067h-18.133c-0.699 0-0.71-1.067 0-1.067zM0.533 5.333h30.933c0.704 0 0.704 1.067 0 1.067h-30.933c-0.697 0-0.709-1.067 0-1.067z"></path>
</svg>
