<!-- Generated by IcoMoon.io -->
<svg version="1.1" xmlns="http://www.w3.org/2000/svg" width="32" height="32" viewBox="0 0 32 32">
<title>mbri-star</title>
<path d="M16 1.067c-0.405 0-0.738 0.196-1.027 0.444-0.288 0.247-0.553 0.57-0.817 0.942-0.526 0.743-1.045 1.702-1.553 2.686-0.507 0.985-1.003 1.993-1.447 2.8-0.446 0.809-0.907 1.427-1.065 1.54-0.16 0.112-0.91 0.35-1.837 0.514-0.926 0.163-2.059 0.311-3.174 0.478-1.116 0.167-2.21 0.352-3.097 0.611-0.444 0.13-0.835 0.275-1.165 0.467-0.331 0.192-0.629 0.441-0.757 0.828-0.13 0.386-0.037 0.765 0.115 1.111 0.153 0.348 0.384 0.691 0.665 1.051 0.561 0.72 1.333 1.501 2.137 2.276 0.802 0.774 1.632 1.542 2.283 2.206 0.649 0.663 1.111 1.291 1.169 1.461 0.057 0.174 0.059 0.942-0.067 1.851-0.126 0.91-0.335 2.005-0.517 3.093-0.181 1.088-0.338 2.163-0.359 3.070-0.011 0.453 0.011 0.864 0.096 1.233 0.085 0.37 0.239 0.729 0.571 0.963 0.331 0.235 0.715 0.263 1.099 0.229 0.38-0.034 0.783-0.139 1.219-0.288 0.875-0.301 1.871-0.779 2.874-1.284 1.003-0.505 2.009-1.035 2.855-1.434 0.848-0.399 1.597-0.64 1.798-0.64 0.203 0 0.949 0.241 1.798 0.64 0.847 0.399 1.853 0.928 2.855 1.434 1.003 0.505 2 0.983 2.874 1.283 0.437 0.149 0.839 0.256 1.22 0.288 0.384 0.035 0.768 0.006 1.099-0.228s0.485-0.593 0.572-0.962c0.085-0.368 0.107-0.779 0.096-1.232-0.021-0.907-0.179-1.982-0.361-3.069-0.181-1.088-0.391-2.185-0.517-3.093-0.126-0.91-0.124-1.678-0.066-1.851 0.059-0.173 0.523-0.8 1.171-1.461 0.651-0.665 1.479-1.433 2.283-2.208 0.8-0.774 1.574-1.555 2.137-2.274 0.283-0.358 0.512-0.702 0.666-1.050 0.153-0.347 0.245-0.725 0.117-1.111-0.128-0.387-0.429-0.636-0.759-0.828s-0.721-0.337-1.163-0.466c-0.887-0.258-1.982-0.443-3.098-0.61-1.115-0.166-2.249-0.315-3.174-0.48-0.928-0.163-1.677-0.401-1.835-0.512-0.16-0.114-0.619-0.733-1.067-1.541-0.445-0.807-0.939-1.815-1.446-2.8-0.508-0.983-1.027-1.941-1.554-2.688-0.267-0.371-0.529-0.693-0.818-0.941-0.287-0.252-0.621-0.448-1.026-0.448zM16.334 2.321c0.181 0.156 0.405 0.416 0.64 0.747 0.465 0.658 0.975 1.589 1.476 2.56s0.995 1.982 1.461 2.827c0.464 0.843 0.838 1.511 1.38 1.895 0.544 0.384 1.305 0.523 2.27 0.693s2.101 0.32 3.202 0.484c1.101 0.164 2.167 0.352 2.955 0.581 0.395 0.114 0.719 0.242 0.928 0.363 0.331 0.147 0.288 0.41 0.201 0.589-0.096 0.217-0.277 0.505-0.527 0.823-0.498 0.637-1.248 1.399-2.039 2.165-0.791 0.764-1.625 1.534-2.302 2.226-0.678 0.693-1.212 1.239-1.422 1.871-0.209 0.631-0.107 1.385 0.025 2.336 0.132 0.949 0.341 2.050 0.521 3.122 0.181 1.072 0.327 2.119 0.347 2.918 0.011 0.4-0.013 0.738-0.066 0.966-0.089 0.378-0.313 0.378-0.535 0.369-0.243-0.021-0.581-0.102-0.971-0.235-0.775-0.267-1.749-0.73-2.738-1.227-0.99-0.499-1.998-1.035-2.882-1.449-0.882-0.416-1.586-0.74-2.251-0.74s-1.369 0.324-2.251 0.74c-0.885 0.416-1.893 0.949-2.883 1.447-0.989 0.499-1.963 0.962-2.739 1.227-0.389 0.134-0.727 0.215-0.971 0.237-0.336 0.009-0.462-0.117-0.537-0.369-0.053-0.228-0.077-0.565-0.066-0.966 0.019-0.8 0.166-1.845 0.346-2.918 0.178-1.072 0.387-2.173 0.519-3.123 0.132-0.949 0.235-1.703 0.023-2.336-0.211-0.629-0.745-1.178-1.423-1.87-0.677-0.693-1.51-1.461-2.302-2.227-0.789-0.765-1.541-1.527-2.039-2.165-0.249-0.318-0.432-0.606-0.527-0.821-0.135-0.261 0.018-0.483 0.201-0.589 0.209-0.122 0.533-0.25 0.928-0.363 0.787-0.231 1.854-0.418 2.955-0.582 1.101-0.165 2.237-0.313 3.202-0.483s1.728-0.309 2.269-0.693c0.541-0.384 0.915-1.053 1.38-1.897 0.465-0.845 0.96-1.856 1.461-2.827s1.010-1.902 1.476-2.56c0.235-0.331 0.457-0.591 0.64-0.747 0.333-0.277 0.482-0.188 0.666 0z"></path>
</svg>
