<!-- Generated by IcoMoon.io -->
<svg version="1.1" xmlns="http://www.w3.org/2000/svg" width="32" height="32" viewBox="0 0 32 32">
<title>mbri-share</title>
<path d="M23.973 2.133c-0.293 0.005-0.507 0.249-0.507 0.533v3.844c-2.541 0.142-4.686 1.124-6.14 2.827-1.564 1.83-2.394 4.358-2.394 7.196 0 0.547 0.723 0.74 0.996 0.267 2.141-3.709 5.378-3.911 7.537-3.932v3.665c0 0.465 0.555 0.708 0.896 0.391l7.467-6.933c0.228-0.211 0.228-0.572 0-0.783l-7.467-6.933c-0.107-0.098-0.245-0.144-0.389-0.142zM24.533 3.889l6.15 5.711-6.15 5.711v-3.044c0-0.294-0.239-0.533-0.533-0.533-1.835 0-5.189 0.26-7.731 3.042 0.274-1.85 0.832-3.531 1.871-4.747 1.37-1.602 3.332-2.562 5.86-2.562 0.294 0 0.533-0.239 0.533-0.533zM1.6 7.467c-0.877 0-1.6 0.723-1.6 1.6v19.2c0 0.877 0.723 1.6 1.6 1.6h27.733c0.877 0 1.6-0.723 1.6-1.6v-11.733c0-0.704-1.067-0.685-1.067 0v11.733c0 0.305-0.228 0.533-0.533 0.533h-27.733c-0.305 0-0.533-0.228-0.533-0.533v-19.2c0-0.305 0.228-0.533 0.533-0.533h12.8c0.698 0 0.715-1.067 0-1.067z"></path>
</svg>
