<!-- Generated by IcoMoon.io -->
<svg version="1.1" xmlns="http://www.w3.org/2000/svg" width="32" height="32" viewBox="0 0 32 32">
<title>mbri-camera</title>
<path d="M16 10.667c-4.117 0-7.467 3.349-7.467 7.467s3.349 7.467 7.467 7.467 7.467-3.349 7.467-7.467-3.349-7.467-7.467-7.467zM16 11.733c3.541 0 6.4 2.859 6.4 6.4s-2.859 6.4-6.4 6.4-6.4-2.859-6.4-6.4 2.859-6.4 6.4-6.4zM4.8 3.2c-0.877 0-1.6 0.723-1.6 1.6v1.067c0 0.721 1.067 0.693 1.067 0v-1.067c0-0.305 0.228-0.533 0.533-0.533h5.333c0.305 0 0.533 0.228 0.533 0.533v1.067c0 0.704 1.067 0.704 1.067 0v-1.067c0-0.877-0.723-1.6-1.6-1.6zM25.067 9.6c-0.877 0-1.6 0.723-1.6 1.6s0.723 1.6 1.6 1.6h3.2c0.877 0 1.6-0.723 1.6-1.6s-0.723-1.6-1.6-1.6zM25.067 10.667h3.2c0.305 0 0.533 0.228 0.533 0.533s-0.228 0.533-0.533 0.533h-3.2c-0.305 0-0.533-0.228-0.533-0.533s0.228-0.533 0.533-0.533zM1.6 7.467c-0.877 0-1.6 0.723-1.6 1.6v18.133c0 0.877 0.723 1.6 1.6 1.6h28.8c0.877 0 1.6-0.723 1.6-1.6v-18.133c0-0.877-0.723-1.6-1.6-1.6zM1.6 8.533h28.8c0.305 0 0.533 0.228 0.533 0.533v18.133c0 0.305-0.228 0.533-0.533 0.533h-28.8c-0.305 0-0.533-0.228-0.533-0.533v-18.133c0-0.305 0.228-0.533 0.533-0.533z"></path>
</svg>
