<!-- Generated by IcoMoon.io -->
<svg version="1.1" xmlns="http://www.w3.org/2000/svg" width="32" height="32" viewBox="0 0 32 32">
<title>mbri-laptop</title>
<path d="M0.533 23.467c-0.294 0-0.533 0.239-0.533 0.533 0 2.012 1.379 3.733 3.2 3.733h25.6c1.821 0 3.2-1.722 3.2-3.733 0-0.294-0.239-0.533-0.533-0.533zM1.246 24.533h29.508c-0.226 1.211-0.979 2.133-1.954 2.133h-25.6c-0.975 0-1.728-0.923-1.954-2.133zM5.867 6.4c-0.877 0-1.6 0.723-1.6 1.6v13.867c0 0.294 0.239 0.533 0.533 0.533h22.4c0.294 0 0.533-0.239 0.533-0.533v-13.867c0-0.877-0.723-1.6-1.6-1.6zM5.867 7.467h20.267c0.305 0 0.533 0.228 0.533 0.533v13.333h-21.333v-13.333c0-0.305 0.228-0.533 0.533-0.533zM4.8 4.267c-1.468 0-2.667 1.199-2.667 2.667v14.933c-0.011 0.721 1.077 0.721 1.067 0v-14.933c0-0.896 0.704-1.6 1.6-1.6h22.4c0.896 0 1.6 0.704 1.6 1.6v14.933c-0.011 0.721 1.077 0.721 1.067 0v-14.933c0-1.468-1.199-2.667-2.667-2.667z"></path>
</svg>
