<!-- Generated by IcoMoon.io -->
<svg version="1.1" xmlns="http://www.w3.org/2000/svg" width="32" height="32" viewBox="0 0 32 32">
<title>mbri-contact-form</title>
<path d="M13.333 16h13.867c0.295 0 0.533 0.238 0.533 0.533s-0.238 0.533-0.533 0.533h-13.867c-0.295 0-0.533-0.238-0.533-0.533s0.238-0.533 0.533-0.533zM13.333 19.2h13.867c0.295 0 0.533 0.238 0.533 0.533s-0.238 0.533-0.533 0.533h-13.867c-0.295 0-0.533-0.238-0.533-0.533s0.238-0.533 0.533-0.533zM13.333 12.8h13.867c0.295 0 0.533 0.238 0.533 0.533s-0.238 0.533-0.533 0.533h-13.867c-0.295 0-0.533-0.238-0.533-0.533s0.238-0.533 0.533-0.533zM4.8 11.733c-0.877 0-1.6 0.723-1.6 1.6v6.4c0 0.877 0.723 1.6 1.6 1.6h4.267c0.877 0 1.6-0.723 1.6-1.6v-6.4c0-0.877-0.723-1.6-1.6-1.6zM4.8 12.8h4.267c0.305 0 0.533 0.228 0.533 0.533v6.4c0 0.305-0.228 0.533-0.533 0.533h-4.267c-0.305 0-0.533-0.228-0.533-0.533v-6.4c0-0.305 0.228-0.533 0.533-0.533zM6.933 2.133c0.295 0 0.533 0.238 0.533 0.533v4.267c0 0.295-0.238 0.533-0.533 0.533s-0.533-0.238-0.533-0.533v-4.267c0-0.295 0.238-0.533 0.533-0.533zM25.067 2.133c0.295 0 0.533 0.238 0.533 0.533v4.267c0 0.295-0.238 0.533-0.533 0.533s-0.533-0.238-0.533-0.533v-4.267c0-0.295 0.238-0.533 0.533-0.533zM1.6 4.267c-0.877 0-1.6 0.723-1.6 1.6v21.333c0 0.877 0.723 1.6 1.6 1.6h28.8c0.877 0 1.6-0.723 1.6-1.6v-21.333c0-0.877-0.723-1.6-1.6-1.6h-3.2c-0.704 0-0.708 1.067 0 1.067h3.2c0.305 0 0.533 0.228 0.533 0.533v21.333c0 0.305-0.228 0.533-0.533 0.533h-28.8c-0.305 0-0.533-0.228-0.533-0.533v-21.333c0-0.305 0.228-0.533 0.533-0.533h3.2c0.715 0 0.698-1.067 0-1.067zM9.067 4.267c-0.672 0-0.729 1.067 0 1.067h13.867c0.704 0 0.704-1.067 0-1.067z"></path>
</svg>
