<!-- Generated by IcoMoon.io -->
<svg version="1.1" xmlns="http://www.w3.org/2000/svg" width="32" height="32" viewBox="0 0 32 32">
<title>mbri-delivery</title>
<path d="M16.512 12.8c-0.139 0.004-0.272 0.062-0.37 0.162l-2.814 2.805-1.733-1.728c-0.485-0.506-1.269 0.275-0.763 0.759l2.115 2.11c0.21 0.21 0.551 0.21 0.763 0l3.195-3.186c0.352-0.341 0.093-0.923-0.391-0.923zM0.533 17.067h3.2c0.295 0 0.533 0.238 0.533 0.533s-0.238 0.533-0.533 0.533h-3.2c-0.295 0-0.533-0.238-0.533-0.533s0.238-0.533 0.533-0.533zM0.533 12.8h3.2c0.295 0 0.533 0.238 0.533 0.533s-0.238 0.533-0.533 0.533h-3.2c-0.295 0-0.533-0.238-0.533-0.533s0.238-0.533 0.533-0.533zM0.533 8.533h3.2c0.295 0 0.533 0.238 0.533 0.533s-0.238 0.533-0.533 0.533h-3.2c-0.295 0-0.533-0.238-0.533-0.533s0.238-0.533 0.533-0.533zM26.133 20.267c-1.467 0-2.667 1.2-2.667 2.667s1.2 2.667 2.667 2.667 2.667-1.2 2.667-2.667-1.2-2.667-2.667-2.667zM26.133 21.333c0.89 0 1.6 0.71 1.6 1.6s-0.71 1.6-1.6 1.6-1.6-0.71-1.6-1.6 0.71-1.6 1.6-1.6zM12.267 20.267c-1.467 0-2.667 1.2-2.667 2.667s1.2 2.667 2.667 2.667 2.667-1.2 2.667-2.667-1.2-2.667-2.667-2.667zM12.267 21.333c0.89 0 1.6 0.71 1.6 1.6s-0.71 1.6-1.6 1.6-1.6-0.71-1.6-1.6 0.71-1.6 1.6-1.6zM6.933 6.4c-0.877 0-1.6 0.723-1.6 1.6v11.733c0 0.877 0.723 1.6 1.6 1.6h2.133c0.721 0.011 0.721-1.077 0-1.067h-2.133c-0.305 0-0.533-0.228-0.533-0.533v-11.733c0-0.305 0.228-0.533 0.533-0.533h13.867c0.305 0 0.533 0.228 0.533 0.533v12.267h-5.867c-0.704 0-0.691 1.077 0 1.067h7.467c0.704 0 0.698-1.067 0-1.067h-0.533v-9.6h4.509l4.025 6.289v2.778c0 0.305-0.228 0.533-0.533 0.533h-1.067c-0.698 0-0.698 1.067 0 1.067h1.067c0.877 0 1.6-0.723 1.6-1.6v-2.933c0-0.101-0.029-0.203-0.083-0.288l-4.267-6.667c-0.098-0.153-0.267-0.245-0.45-0.245h-4.8v-1.6c0-0.877-0.723-1.6-1.6-1.6z"></path>
</svg>
