<!-- Generated by IcoMoon.io -->
<svg version="1.1" xmlns="http://www.w3.org/2000/svg" width="32" height="32" viewBox="0 0 32 32">
<title>mbri-to-local-drive</title>
<path d="M16.533 20.267h-0.533l-4.053 4.267c-0.533 0.64 0.213 1.387 0.747 0.853l3.733-3.84 3.84 3.84c0.64 0.533 1.387-0.213 0.853-0.747l-4.267-4.267h-0.32zM16.533 23.467c0.32 0 0.533 0.213 0.533 0.533v7.467c0 0.32-0.213 0.533-0.533 0.533s-0.533-0.213-0.533-0.533v-7.467c0-0.32 0.213-0.533 0.533-0.533zM1.6 0c-0.853 0-1.6 0.747-1.6 1.6v24.533c0 0.853 0.747 1.6 1.6 1.6h7.467c0.747 0 0.747-1.067 0-1.067h-7.467c-0.32 0-0.533-0.213-0.533-0.533v-24.533c0-0.32 0.213-0.533 0.533-0.533h8.32l0.853 1.067 3.2 3.2c0.747 0.427 1.067 0.747 1.493 0.853 0.427 0.213 0.747 0.213 1.067 0.213h13.867c0.427 0 0.64 0.213 0.64 0.533v19.2c0 0.32-0.213 0.533-0.533 0.533h-6.4c-0.64 0-0.747 1.067 0 1.067h6.4c0.853 0 1.6-0.747 1.6-1.6v-19.2c0-0.853-0.747-1.6-1.6-1.6h-14.72l-4.267-4.267-1.067-0.853c-0.533-0.213-0.853-0.213-1.493-0.213z"></path>
</svg>
