<!-- Generated by IcoMoon.io -->
<svg version="1.1" xmlns="http://www.w3.org/2000/svg" width="32" height="32" viewBox="0 0 32 32">
<title>measurement</title>
<path d="M25.492 1.171c-0.609-0.61-1.674-0.61-2.283 0l-18.94 18.94c-0.053 0.052-0.093 0.116-0.118 0.186l-3.82 10.733c-0.064 0.182-0.019 0.385 0.118 0.521 0.095 0.095 0.223 0.146 0.354 0.146 0.056 0 0.113-0.009 0.167-0.028l10.733-3.82c0.004-0.002 0.007-0.006 0.011-0.008 0.065-0.025 0.126-0.061 0.175-0.111l18.94-18.939c0.305-0.305 0.473-0.71 0.473-1.142s-0.168-0.837-0.473-1.142l-5.337-5.336zM11.447 26.759c-3.785-1.995-5.525-4.771-6.099-5.899-0.056-0.11-0.099-0.2-0.136-0.279l14.793-14.793 6.207 6.207-14.765 14.764zM4.696 21.749c0.746 1.31 2.43 3.676 5.613 5.535l-8.683 3.090 3.070-8.625zM30.122 8.084l-3.203 3.204-6.206-6.206 3.204-3.203c0.232-0.232 0.637-0.232 0.869 0l5.337 5.337c0.116 0.116 0.18 0.271 0.18 0.435s-0.065 0.317-0.181 0.433zM20.653 8.504c-0.195-0.195-0.512-0.195-0.707 0l-12.22 12.22c-0.195 0.195-0.195 0.512 0 0.707 0.098 0.098 0.226 0.146 0.354 0.146s0.256-0.049 0.354-0.146l12.22-12.22c0.194-0.195 0.194-0.511-0.001-0.707zM23.7 11.15c-0.195-0.195-0.512-0.195-0.707 0l-12.417 12.417c-0.195 0.195-0.195 0.512 0 0.707 0.098 0.098 0.226 0.146 0.354 0.146s0.256-0.049 0.354-0.146l12.416-12.417c0.196-0.195 0.196-0.512 0-0.707zM7.607 0.447c-0.596-0.596-1.564-0.597-2.16 0l-5 5c-0.596 0.595-0.596 1.564 0 2.16l6.66 6.66c0.098 0.098 0.226 0.146 0.354 0.146s0.256-0.049 0.354-0.146c0.195-0.195 0.195-0.512 0-0.707l-1.705-1.705 3.175-3.175c0.195-0.195 0.195-0.512 0-0.707s-0.512-0.195-0.707 0l-3.175 3.175-1.717-1.716 1.757-1.758c0.195-0.195 0.195-0.512 0-0.707s-0.512-0.195-0.707 0l-1.757 1.758-1.825-1.825c-0.206-0.206-0.206-0.54 0-0.746l5-5c0.207-0.205 0.54-0.204 0.746 0l6.661 6.661c0.195 0.195 0.512 0.195 0.707 0s0.195-0.512 0-0.707l-6.661-6.661zM24.893 17.733c-0.195-0.195-0.512-0.195-0.707 0s-0.195 0.512 0 0.707l6.66 6.66c0.206 0.206 0.206 0.54 0 0.746l-5 5c-0.206 0.206-0.539 0.205-0.746 0l-1.637-1.637 3.175-3.175c0.195-0.195 0.195-0.512 0-0.707s-0.512-0.195-0.707 0l-3.175 3.175-1.716-1.716 1.758-1.758c0.195-0.195 0.195-0.512 0-0.707s-0.512-0.195-0.707 0l-1.758 1.758-1.893-1.893c-0.195-0.195-0.512-0.195-0.707 0s-0.195 0.512 0 0.707l6.66 6.66c0.298 0.298 0.689 0.447 1.080 0.447s0.782-0.149 1.080-0.447l5-5c0.596-0.595 0.596-1.564 0-2.16l-6.66-6.66z"></path>
</svg>
