<!-- Generated by IcoMoon.io -->
<svg version="1.1" xmlns="http://www.w3.org/2000/svg" width="18" height="32" viewBox="0 0 18 32">
<title>microphone1</title>
<path d="M9 31.5c0.276 0 0.5-0.224 0.5-0.5v-2h2.109c0.245 0 0.455-0.178 0.493-0.421l2.092-12.999c0.043-0.272-0.143-0.529-0.415-0.573-0.27-0.041-0.529 0.142-0.573 0.415l-2.022 12.578h-3.969l-2.022-12.243c-0.044-0.273-0.308-0.459-0.574-0.412-0.272 0.045-0.457 0.302-0.412 0.574l2.091 12.662c0.040 0.242 0.248 0.419 0.493 0.419h1.709v2c0 0.276 0.224 0.5 0.5 0.5zM9.5 26v-3c0-0.276-0.224-0.5-0.5-0.5s-0.5 0.224-0.5 0.5v3c0 0.276 0.224 0.5 0.5 0.5s0.5-0.224 0.5-0.5zM17.5 7c0.276 0 0.5-0.224 0.5-0.5s-0.224-0.5-0.5-0.5h-1.379c-0.486-3.386-3.4-6-6.921-6s-6.434 2.614-6.92 6h-1.78c-0.276 0-0.5 0.224-0.5 0.5s0.224 0.5 0.5 0.5h1.7c0.002 3.856 3.142 6.992 7 6.992s6.998-3.137 7-6.992h1.3zM9.2 1c2.968 0 5.433 2.167 5.91 5h-11.82c0.477-2.833 2.942-5 5.91-5zM9.2 12.992c-3.307 0-5.998-2.687-6-5.992h12c-0.002 3.305-2.693 5.992-6 5.992z"></path>
</svg>
