<!-- Generated by IcoMoon.io -->
<svg version="1.1" xmlns="http://www.w3.org/2000/svg" width="19" height="32" viewBox="0 0 19 32">
<title>microphone2</title>
<path d="M19 16.5v-5.5c0-0.276-0.224-0.5-0.5-0.5s-0.5 0.224-0.5 0.5v5.5c0 4.687-3.813 8.5-8.5 8.5s-8.5-3.813-8.5-8.5v-5.5c0-0.276-0.224-0.5-0.5-0.5s-0.5 0.224-0.5 0.5v5.5c0 5.071 3.997 9.215 9.005 9.475 0 0.009-0.005 0.016-0.005 0.025v5h-8c-0.276 0-0.5 0.224-0.5 0.5s0.224 0.5 0.5 0.5h17c0.276 0 0.5-0.224 0.5-0.5s-0.224-0.5-0.5-0.5h-8v-5c0-0.009-0.005-0.016-0.005-0.025 5.008-0.26 9.005-4.404 9.005-9.475zM9.5 22c3.032 0 5.5-2.468 5.5-5.5v-11c0-3.032-2.468-5.5-5.5-5.5s-5.5 2.468-5.5 5.5v5.494c0 0.001 0 0.002 0 0.002v5.504c0 3.032 2.468 5.5 5.5 5.5zM9.5 21c-2.481 0-4.5-2.019-4.5-4.5v-5.147c1.061-0.355 4.793-1.378 9 0.012v5.135c0 2.481-2.019 4.5-4.5 4.5zM9.5 1c2.481 0 4.5 2.019 4.5 4.5v4.815c-4.037-1.238-7.561-0.457-9-0.015v-4.8c0-2.481 2.019-4.5 4.5-4.5z"></path>
</svg>
