<!-- Generated by IcoMoon.io -->
<svg version="1.1" xmlns="http://www.w3.org/2000/svg" width="32" height="32" viewBox="0 0 32 32">
<title>money-bag</title>
<path d="M32 8.5c0-0.827-0.673-1.5-1.5-1.5h-4.5v-5.092c0-0.743-0.222-1.282-0.658-1.603-0.486-0.355-1.176-0.396-2.041-0.123l-22.942 6.701c-0.24 0.070-0.378 0.306-0.345 0.547-0.003 0.024-0.014 0.045-0.014 0.070v23c0 0.827 0.673 1.5 1.5 1.5h29c0.827 0 1.5-0.673 1.5-1.5v-22zM31 24h-9.5c-0.275 0-0.5-0.224-0.5-0.5v-8c0-0.276 0.225-0.5 0.5-0.5h9.5v9zM23.592 1.139c0.538-0.169 0.951-0.181 1.158-0.028 0.207 0.152 0.25 0.517 0.25 0.797v5.092h-21.474l20.066-5.861zM30.5 31h-29c-0.275 0-0.5-0.224-0.5-0.5v-22.5h29.5c0.275 0 0.5 0.224 0.5 0.5v5.5h-9.5c-0.827 0-1.5 0.673-1.5 1.5v8c0 0.827 0.673 1.5 1.5 1.5h9.5v5.5c0 0.276-0.225 0.5-0.5 0.5zM25.351 21.605c1.193 0 2.165-0.971 2.165-2.164s-0.972-2.165-2.165-2.165-2.164 0.971-2.164 2.165 0.97 2.164 2.164 2.164zM25.351 18.277c0.643 0 1.165 0.522 1.165 1.165s-0.522 1.164-1.165 1.164c-0.642 0-1.164-0.522-1.164-1.164s0.522-1.165 1.164-1.165z"></path>
</svg>
