<!-- Generated by IcoMoon.io -->
<svg version="1.1" xmlns="http://www.w3.org/2000/svg" width="40" height="32" viewBox="0 0 40 32">
<title>money</title>
<path d="M38.5 11h-8.5v-9.5c0-0.827-0.673-1.5-1.5-1.5h-27c-0.827 0-1.5 0.673-1.5 1.5v19c0 0.827 0.673 1.5 1.5 1.5h7.5v8.5c0 0.827 0.673 1.5 1.5 1.5h28c0.827 0 1.5-0.673 1.5-1.5v-18c0-0.827-0.673-1.5-1.5-1.5zM1 20.5v-19c0-0.276 0.225-0.5 0.5-0.5h27c0.275 0 0.5 0.224 0.5 0.5v19c0 0.276-0.225 0.5-0.5 0.5h-27c-0.275 0-0.5-0.224-0.5-0.5zM39 30.5c0 0.276-0.225 0.5-0.5 0.5h-28c-0.275 0-0.5-0.224-0.5-0.5v-8.5h18.5c0.827 0 1.5-0.673 1.5-1.5v-8.5h8.5c0.275 0 0.5 0.224 0.5 0.5v18zM7.36 5h-3c-0.276 0-0.5 0.224-0.5 0.5s0.224 0.5 0.5 0.5h3c0.276 0 0.5-0.224 0.5-0.5s-0.223-0.5-0.5-0.5zM7.36 16h-3c-0.276 0-0.5 0.224-0.5 0.5s0.224 0.5 0.5 0.5h3c0.276 0 0.5-0.224 0.5-0.5s-0.223-0.5-0.5-0.5zM22.36 6h3c0.276 0 0.5-0.224 0.5-0.5s-0.223-0.5-0.5-0.5h-3c-0.276 0-0.5 0.224-0.5 0.5s0.224 0.5 0.5 0.5zM22.36 17h3c0.276 0 0.5-0.224 0.5-0.5s-0.224-0.5-0.5-0.5h-3c-0.276 0-0.5 0.224-0.5 0.5s0.224 0.5 0.5 0.5zM15 15.5c2.481 0 4.5-2.019 4.5-4.5s-2.019-4.5-4.5-4.5-4.5 2.019-4.5 4.5 2.019 4.5 4.5 4.5zM15 7.5c1.93 0 3.5 1.57 3.5 3.5s-1.57 3.5-3.5 3.5-3.5-1.57-3.5-3.5 1.57-3.5 3.5-3.5z"></path>
</svg>
