<!-- Generated by IcoMoon.io -->
<svg version="1.1" xmlns="http://www.w3.org/2000/svg" width="42" height="32" viewBox="0 0 42 32">
<title>monitor</title>
<path d="M40.5 0h-39c-0.827 0-1.5 0.673-1.5 1.5v24c0 0.827 0.673 1.5 1.5 1.5h15.5v4h-2c-0.276 0-0.5 0.224-0.5 0.5s0.224 0.5 0.5 0.5h13c0.276 0 0.5-0.224 0.5-0.5s-0.224-0.5-0.5-0.5h-2v-4h14.5c0.827 0 1.5-0.673 1.5-1.5v-24c0-0.827-0.673-1.5-1.5-1.5zM25 31h-7v-4h7v4zM41 25.5c0 0.276-0.224 0.5-0.5 0.5h-39c-0.276 0-0.5-0.224-0.5-0.5v-24c0-0.276 0.224-0.5 0.5-0.5h39c0.276 0 0.5 0.224 0.5 0.5v24z"></path>
</svg>
