<!-- Generated by IcoMoon.io -->
<svg version="1.1" xmlns="http://www.w3.org/2000/svg" width="18" height="32" viewBox="0 0 18 32">
<title>mouse</title>
<path d="M9.628 3.5c0-0.976 0.311-1.693 0.876-2.021 0.466-0.271 1.057-0.241 1.617 0.078 0.931 0.531 2.013 1.030 2.975 0.713 0.628-0.207 1.114-0.719 1.489-1.567 0.112-0.252-0.002-0.548-0.255-0.66-0.252-0.111-0.549 0.002-0.659 0.255-0.254 0.575-0.545 0.909-0.888 1.022-0.468 0.152-1.134-0.042-2.166-0.631-0.866-0.494-1.843-0.523-2.616-0.075-0.886 0.514-1.373 1.539-1.373 2.886 0 0.276 0.224 0.5 0.5 0.5s0.5-0.224 0.5-0.5zM9 16.927c1.103 0 2-0.897 2-2v-3c0-1.103-0.897-2-2-2s-2 0.897-2 2v3c0 1.103 0.897 2 2 2zM8 11.927c0-0.551 0.448-1 1-1s1 0.449 1 1v3c0 0.551-0.448 1-1 1s-1-0.449-1-1v-3zM0 14v9c0 4.962 4.037 9 9 9s9-4.038 9-9v-9c0-4.962-4.037-9-9-9s-9 4.038-9 9zM9 6c4.411 0 8 3.589 8 8v9c0 4.411-3.589 8-8 8s-8-3.589-8-8v-9c0-4.411 3.589-8 8-8z"></path>
</svg>
