<!-- Generated by IcoMoon.io -->
<svg version="1.1" xmlns="http://www.w3.org/2000/svg" width="30" height="32" viewBox="0 0 30 32">
<title>muscle</title>
<path d="M23.246 20.658c0.107-0.255-0.012-0.548-0.267-0.655-0.253-0.104-0.548 0.012-0.655 0.267-0.725 1.719-2.395 2.829-4.253 2.829-1.023 0-1.992-0.329-2.801-0.95-0.219-0.17-0.533-0.126-0.701 0.092-0.168 0.22-0.127 0.533 0.092 0.701 0.986 0.757 2.166 1.157 3.411 1.157 2.261 0 4.292-1.351 5.174-3.441zM21.751 4.394c-0.106-0.102-2.649-2.513-5.84-3.569l-0.434-0.198c-2.836-1.295-6.209-0.522-8.202 1.88-0.305 0.367-0.447 0.832-0.401 1.308s0.274 0.904 0.643 1.206c0.053 0.043 0.076 0.115 0.057 0.181-0.033 0.116-0.049 0.234-0.046 0.351 0.062 2.408 1.993 4.294 4.375 4.294v0c0.692-0.016 2.126-0.412 2.689-2.279 0.135-0.45 0.251-0.756 0.343-0.962 0.207 3.003 1.843 5.742 3.332 7.65-0.234-0.036-0.472-0.054-0.712-0.054-1.894 0-3.591 1.128-4.353 2.819-1.552-1.185-3.448-1.829-5.414-1.829-1.87 0-3.7 0.593-5.212 1.681-0.486-0.642-1.25-1.032-2.076-1.032-0.276 0-0.5 0.224-0.5 0.5s0.224 0.5 0.5 0.5c0.64 0 1.22 0.381 1.477 0.971 0.062 0.145 0.189 0.25 0.342 0.287 0.152 0.035 0.313 0 0.435-0.101 1.416-1.164 3.204-1.806 5.037-1.806 1.963 0 3.848 0.725 5.308 2.039 0.129 0.117 0.311 0.157 0.476 0.108 0.167-0.049 0.296-0.181 0.341-0.349 0.447-1.642 1.944-2.789 3.642-2.789 0.728 0 1.427 0.21 2.023 0.59 0.653 0.7 1.127 1.12 1.192 1.177 0.188 0.165 0.471 0.164 0.66-0.001 0.188-0.166 0.225-0.446 0.084-0.654-0.34-0.506-0.767-0.934-1.253-1.269-1.579-1.721-4.212-5.134-4.355-8.873-0.028-0.121-0.11-0.396-0.281-0.617-0.031-0.166-0.138-0.315-0.308-0.378-0.089-0.033-2.201-0.797-4.301 0.485-0.235 0.144-0.31 0.451-0.166 0.688 0.094 0.154 0.259 0.239 0.427 0.239 0.089 0 0.179-0.023 0.26-0.073 0.963-0.588 1.938-0.63 2.604-0.562-0.17 0.32-0.335 0.753-0.507 1.325-0.466 1.545-1.563 1.55-1.711 1.568-1.856 0-3.349-1.458-3.389-3.372 0.127-0.449-0.023-0.931-0.385-1.228-0.162-0.132-0.262-0.32-0.282-0.528-0.021-0.208 0.042-0.412 0.175-0.573 1.706-2.057 4.59-2.72 7.017-1.608l0.484 0.218c3.022 1.003 5.49 3.339 5.5 3.348 7.183 7.477 7.881 14.339 7.948 15.554-3.24 3.386-7.764 5.324-12.445 5.324-2.16 0-4.266-0.396-6.259-1.176-0.153-0.060-0.327 0.025-0.462 0.12-0.137 0.093-0.217 0.314-0.217 0.479-0.002 3.085-2.504 5.596-5.579 5.596-0.276 0-0.5 0.224-0.5 0.5s0.224 0.5 0.5 0.5c3.434 0 6.261-2.652 6.553-6.021 1.913 0.665 3.916 1.001 5.963 1.001 5.026 0 9.88-2.111 13.317-5.792 0.086-0.092 0.135-0.212 0.135-0.338 0.002-0.32-0.050-7.922-8.249-16.456z"></path>
</svg>
