<!-- Generated by IcoMoon.io -->
<svg version="1.1" xmlns="http://www.w3.org/2000/svg" width="29" height="32" viewBox="0 0 29 32">
<title>nuclear-circle</title>
<path d="M14.5 18.5c1.379 0 2.5-1.122 2.5-2.5s-1.121-2.5-2.5-2.5-2.5 1.122-2.5 2.5 1.121 2.5 2.5 2.5zM14.5 14.5c0.827 0 1.5 0.673 1.5 1.5s-0.673 1.5-1.5 1.5-1.5-0.673-1.5-1.5 0.673-1.5 1.5-1.5zM0.644 24c0.785 1.36 2.479 2.079 4.896 2.079 1.023 0 2.162-0.147 3.359-0.399 1.267 3.856 3.283 6.32 5.601 6.32s4.334-2.464 5.601-6.32c1.198 0.252 2.336 0.399 3.359 0.399 2.418 0 4.111-0.719 4.896-2.079 1.158-2.005 0.036-4.978-2.663-8 2.7-3.022 3.821-5.995 2.663-8-0.785-1.36-2.479-2.079-4.896-2.079-1.023 0-2.162 0.147-3.359 0.399-1.267-3.856-3.283-6.32-5.601-6.32s-4.334 2.464-5.601 6.32c-1.197-0.252-2.336-0.399-3.359-0.399-2.418 0-4.111 0.719-4.896 2.079-1.158 2.005-0.036 4.978 2.663 8-2.7 3.022-3.822 5.995-2.663 8zM14.5 31c-1.832 0-3.504-2.181-4.615-5.539 1.48-0.38 3.041-0.933 4.615-1.626 1.574 0.694 3.135 1.246 4.615 1.626-1.111 3.358-2.783 5.539-4.615 5.539zM8.5 16c0-1.155 0.061-2.28 0.166-3.369 0.89-0.635 1.834-1.25 2.834-1.828 0.992-0.573 1.998-1.086 3-1.544 1.002 0.458 2.008 0.971 3 1.544 1 0.578 1.944 1.193 2.834 1.828 0.105 1.089 0.166 2.214 0.166 3.369s-0.061 2.28-0.166 3.369c-0.89 0.635-1.834 1.25-2.834 1.828-0.992 0.573-1.998 1.086-3 1.544-1.002-0.458-2.008-0.971-3-1.544-1-0.578-1.944-1.193-2.834-1.828-0.105-1.089-0.166-2.214-0.166-3.369zM7.595 18.574c-1.085-0.841-2.062-1.708-2.907-2.574 0.844-0.866 1.821-1.733 2.907-2.574-0.057 0.838-0.095 1.693-0.095 2.574s0.038 1.736 0.095 2.574zM8.818 11.307c0.187-1.363 0.45-2.645 0.778-3.811 1.182 0.301 2.424 0.726 3.684 1.242-0.763 0.372-1.526 0.764-2.28 1.2-0.763 0.44-1.484 0.9-2.182 1.369zM15.719 8.738c1.26-0.516 2.502-0.941 3.684-1.242 0.329 1.166 0.592 2.448 0.778 3.811-0.698-0.469-1.419-0.929-2.182-1.369-0.753-0.436-1.516-0.828-2.28-1.2zM21.405 13.426c1.085 0.842 2.062 1.708 2.907 2.574-0.844 0.866-1.821 1.733-2.907 2.574 0.057-0.838 0.095-1.693 0.095-2.574s-0.038-1.736-0.095-2.574zM20.182 20.693c-0.187 1.363-0.45 2.645-0.778 3.811-1.182-0.301-2.424-0.726-3.684-1.242 0.764-0.372 1.527-0.765 2.281-1.2 0.762-0.44 1.483-0.9 2.181-1.369zM11 22.062c0.754 0.435 1.517 0.828 2.281 1.2-1.26 0.516-2.502 0.941-3.684 1.242-0.329-1.166-0.592-2.448-0.778-3.811 0.697 0.469 1.418 0.929 2.181 1.369zM27.491 23.5c-0.754 1.305-2.608 1.579-4.031 1.579-0.934 0-1.972-0.13-3.066-0.355 0.406-1.45 0.709-3.068 0.894-4.805 1.414-1.030 2.665-2.102 3.718-3.181 2.35 2.64 3.401 5.176 2.485 6.762zM23.46 6.921c1.423 0 3.277 0.274 4.031 1.579 0.916 1.586-0.135 4.122-2.485 6.761-1.054-1.078-2.305-2.151-3.718-3.181-0.185-1.737-0.488-3.355-0.894-4.805 1.094-0.224 2.132-0.354 3.066-0.354zM14.5 1c1.832 0 3.504 2.181 4.615 5.539-1.48 0.38-3.041 0.933-4.615 1.626-1.574-0.694-3.135-1.246-4.615-1.626 1.111-3.358 2.783-5.539 4.615-5.539zM1.509 8.5c0.754-1.305 2.608-1.579 4.031-1.579 0.934 0 1.972 0.13 3.066 0.355-0.406 1.45-0.709 3.068-0.894 4.805-1.414 1.030-2.665 2.102-3.718 3.181-2.35-2.64-3.401-5.176-2.485-6.762zM3.994 16.739c1.054 1.078 2.305 2.151 3.718 3.181 0.185 1.737 0.488 3.355 0.894 4.805-1.094 0.225-2.132 0.355-3.066 0.355-1.423 0-3.277-0.274-4.031-1.579-0.916-1.587 0.135-4.123 2.485-6.762z"></path>
</svg>
