<!-- Generated by IcoMoon.io -->
<svg version="1.1" xmlns="http://www.w3.org/2000/svg" width="33" height="32" viewBox="0 0 33 32">
<title>office-bag</title>
<path d="M32.5 19.5c-0.276 0-0.5 0.224-0.5 0.5v10.5c0 0.275-0.225 0.5-0.5 0.5h-12.5v-8c0-0.276-0.224-0.5-0.5-0.5s-0.5 0.224-0.5 0.5v8h-3v-8c0-0.276-0.224-0.5-0.5-0.5s-0.5 0.224-0.5 0.5v8h-12.5c-0.275 0-0.5-0.225-0.5-0.5v-10.5c0-0.276-0.224-0.5-0.5-0.5s-0.5 0.224-0.5 0.5v10.5c0 0.827 0.673 1.5 1.5 1.5h30c0.827 0 1.5-0.673 1.5-1.5v-10.5c0-0.276-0.224-0.5-0.5-0.5zM31.5 5h-8.5v-3.5c0-0.827-0.673-1.5-1.5-1.5h-10c-0.827 0-1.5 0.673-1.5 1.5v3.5h-8.5c-0.827 0-1.5 0.673-1.5 1.5v10c0 0.827 0.673 1.5 1.5 1.5h12.5v0.736c0 1.379 1.121 2.5 2.5 2.5s2.5-1.121 2.5-2.5v-0.736h12.5c0.827 0 1.5-0.673 1.5-1.5v-10c0-0.827-0.673-1.5-1.5-1.5zM11 1.5c0-0.275 0.225-0.5 0.5-0.5h10c0.275 0 0.5 0.225 0.5 0.5v3.5h-11v-3.5zM18 18.736c0 0.827-0.673 1.5-1.5 1.5s-1.5-0.673-1.5-1.5v-0.736h3v0.736zM32 16.5c0 0.275-0.225 0.5-0.5 0.5h-30c-0.275 0-0.5-0.225-0.5-0.5v-10c0-0.275 0.225-0.5 0.5-0.5h12.5v9c0 0.276 0.224 0.5 0.5 0.5s0.5-0.224 0.5-0.5v-9h3v9c0 0.276 0.224 0.5 0.5 0.5s0.5-0.224 0.5-0.5v-9h12.5c0.275 0 0.5 0.225 0.5 0.5v10z"></path>
</svg>
