<!-- Generated by IcoMoon.io -->
<svg version="1.1" xmlns="http://www.w3.org/2000/svg" width="33" height="32" viewBox="0 0 33 32">
<title>pacman</title>
<path d="M16.041 32c4.277 0 8.299-1.665 11.323-4.687 0.095-0.094 0.147-0.223 0.146-0.356s-0.056-0.262-0.151-0.355l-10.873-10.602 10.873-10.602c0.096-0.093 0.15-0.221 0.151-0.355s-0.052-0.262-0.146-0.356c-3.024-3.022-7.046-4.687-11.323-4.687s-8.299 1.665-11.323 4.687c-3.025 3.021-4.691 7.039-4.691 11.313s1.666 8.292 4.69 11.313c3.025 3.022 7.047 4.687 11.324 4.687zM5.425 5.394c2.836-2.833 6.605-4.394 10.616-4.394 3.841 0 7.462 1.432 10.252 4.042l-10.871 10.6c-0.097 0.094-0.151 0.223-0.151 0.358s0.055 0.264 0.151 0.358l10.871 10.601c-2.79 2.609-6.411 4.041-10.252 4.041-4.011 0-7.78-1.561-10.616-4.394s-4.398-6.599-4.398-10.606 1.562-7.773 4.398-10.606zM24.855 16c0 1.106-0.896 2.002-2.002 2.002s-2.002-0.896-2.002-2.002c0-1.106 0.896-2.002 2.002-2.002s2.002 0.896 2.002 2.002zM31.527 16c0 1.106-0.896 2.002-2.002 2.002s-2.002-0.896-2.002-2.002c0-1.106 0.896-2.002 2.002-2.002s2.002 0.896 2.002 2.002zM18.726 7.068c0 1.381-1.119 2.5-2.5 2.5s-2.5-1.119-2.5-2.5c0-1.381 1.119-2.5 2.5-2.5s2.5 1.119 2.5 2.5z"></path>
</svg>
