<!-- Generated by IcoMoon.io -->
<svg version="1.1" xmlns="http://www.w3.org/2000/svg" width="33" height="32" viewBox="0 0 33 32">
<title>paper-plane</title>
<path d="M0.004 10.895c0.001 0.722 0.446 1.325 1.135 1.539l12.019 3.724c0.192 0.060 0.329 0.229 0.349 0.43l1.361 13.949c0.094 0.962 0.889 1.466 1.625 1.466 0.612 0 1.147-0.328 1.432-0.878l14.892-28.771c0.261-0.504 0.241-1.093-0.052-1.575-0.032-0.053-0.082-0.089-0.12-0.138-0.014-0.024-0.020-0.050-0.038-0.072-0.025-0.030-0.057-0.048-0.086-0.071-0.418-0.419-1.039-0.606-1.618-0.425l-29.767 9.281c-0.688 0.214-1.132 0.82-1.132 1.541zM17.035 30.665c-0.151 0.293-0.405 0.337-0.543 0.337-0.276 0-0.592-0.176-0.629-0.563l-1.361-13.949c-0.012-0.124-0.048-0.241-0.089-0.355l17.573-14.41c-0.011 0.054-0.027 0.11-0.057 0.169l-14.894 28.771zM1.434 10.309l29.768-9.281c0.024-0.008 0.048-0.007 0.072-0.011l-17.493 14.342c-0.103-0.062-0.209-0.121-0.327-0.157l-12.018-3.723c-0.4-0.125-0.432-0.479-0.432-0.585 0-0.218 0.113-0.487 0.43-0.585z"></path>
</svg>
