<!-- Generated by IcoMoon.io -->
<svg version="1.1" xmlns="http://www.w3.org/2000/svg" width="32" height="32" viewBox="0 0 32 32">
<title>paper</title>
<path d="M21.5 12c0.276 0 0.5-0.224 0.5-0.5v-6c0-0.276-0.224-0.5-0.5-0.5h-16c-0.276 0-0.5 0.224-0.5 0.5v6c0 0.276 0.224 0.5 0.5 0.5h16zM6 6h15v5h-15v-5zM4.5 16.5c0 0.276 0.224 0.5 0.5 0.5h16c0.276 0 0.5-0.224 0.5-0.5s-0.224-0.5-0.5-0.5h-16c-0.276 0-0.5 0.224-0.5 0.5zM5 22h16c0.276 0 0.5-0.224 0.5-0.5s-0.224-0.5-0.5-0.5h-16c-0.276 0-0.5 0.224-0.5 0.5s0.224 0.5 0.5 0.5zM5 26h16c0.276 0 0.5-0.224 0.5-0.5s-0.224-0.5-0.5-0.5h-16c-0.276 0-0.5 0.224-0.5 0.5s0.224 0.5 0.5 0.5zM30.5 7h-2.104c-0.276 0-0.5 0.224-0.5 0.5s0.224 0.5 0.5 0.5h2.104c0.276 0 0.5 0.225 0.5 0.5v22c0 0.275-0.224 0.5-0.5 0.5h-4.5v-29.5c0-0.827-0.673-1.5-1.5-1.5h-23c-0.827 0-1.5 0.673-1.5 1.5v28.359c0 1.181 0.96 2.141 2.141 2.141h18.859c0.276 0 0.5-0.224 0.5-0.5s-0.224-0.5-0.5-0.5h-18.859c-0.629 0-1.141-0.512-1.141-1.141v-28.359c0-0.275 0.224-0.5 0.5-0.5h23c0.276 0 0.5 0.225 0.5 0.5v30c0 0.276 0.224 0.5 0.5 0.5h5c0.827 0 1.5-0.673 1.5-1.5v-22c0-0.827-0.673-1.5-1.5-1.5z"></path>
</svg>
