<!-- Generated by IcoMoon.io -->
<svg version="1.1" xmlns="http://www.w3.org/2000/svg" width="27" height="32" viewBox="0 0 27 32">
<title>pen</title>
<path d="M22.699 13.001c0.413 0 0.829-0.054 1.24-0.164 1.274-0.341 2.339-1.174 2.996-2.346 0.136-0.241 0.050-0.545-0.19-0.681-0.243-0.136-0.547-0.050-0.681 0.191-0.525 0.934-1.371 1.598-2.384 1.869-0.991 0.265-2.022 0.12-2.909-0.405l-8.826-5.241c-1.86-1.105-2.498-3.563-1.422-5.48 0.136-0.241 0.050-0.545-0.19-0.681-0.243-0.136-0.547-0.050-0.681 0.191-0.969 1.726-0.805 3.8 0.232 5.341-3.26 6.531-9.564 10.125-9.629 10.161-0.208 0.117-0.305 0.364-0.231 0.59 2.467 7.623 2.661 15.089 2.663 15.164 0.006 0.273 0.229 0.49 0.5 0.49 0.004 0 0.008 0 0.011 0 0.007 0 0.012-0.004 0.018-0.004s0.010 0.004 0.016 0.004c0 0 0 0 0 0h0.001c0.081 0 0.164-0.020 0.24-0.062 0.064-0.036 6.593-3.595 14.411-5.223 0.226-0.047 0.39-0.242 0.398-0.472 0.002-0.066 0.272-6.661 3.737-11.219 0.167-0.22 0.124-0.534-0.096-0.701s-0.533-0.125-0.701 0.095c-3.201 4.212-3.81 9.858-3.918 11.397-5.581 1.211-10.454 3.349-12.808 4.485l3.574-6.223c0.138-0.239 0.055-0.545-0.185-0.683-0.237-0.137-0.544-0.056-0.683 0.185l-3.608 6.283c-0.19-2.591-0.769-7.938-2.498-13.441 1.393-0.851 6.468-4.244 9.482-9.993 0.258 0.244 0.54 0.468 0.856 0.655l8.826 5.241c0.754 0.448 1.591 0.677 2.439 0.677zM10.687 15.525c-1.070 0-2.066 0.575-2.601 1.5-0.401 0.694-0.508 1.502-0.3 2.276 0.207 0.774 0.703 1.421 1.397 1.822 0.456 0.263 0.974 0.402 1.497 0.402 1.070 0 2.066-0.575 2.602-1.5 0.826-1.433 0.333-3.271-1.099-4.097-0.455-0.264-0.973-0.403-1.496-0.403zM12.416 19.525c-0.531 0.918-1.808 1.267-2.732 0.732-0.463-0.267-0.793-0.698-0.932-1.214s-0.067-1.055 0.199-1.517c0.356-0.617 1.021-1 1.735-1 0.348 0 0.693 0.093 0.997 0.269 0.955 0.549 1.284 1.775 0.733 2.73z"></path>
</svg>
