<!-- Generated by IcoMoon.io -->
<svg version="1.1" xmlns="http://www.w3.org/2000/svg" width="32" height="32" viewBox="0 0 32 32">
<title>pencil</title>
<path d="M1.673 20.297c-0.053 0.050-0.096 0.107-0.123 0.173-0.145 0.204-0.255 0.431-0.285 0.68l-1.339 10.924 10.924-1.339c0.257-0.031 0.492-0.147 0.701-0.3 0.037-0.017 0.066-0.043 0.098-0.069 0.027-0.024 0.062-0.037 0.088-0.062l19.82-19.821c0.59-0.59 0.59-1.55 0-2.14l-7.899-7.899c-0.569-0.571-1.567-0.572-2.141 0l-19.82 19.82c-0.010 0.009-0.015 0.023-0.024 0.033zM16.181 7.193l1.782 1.782-13.931 13.931c-0.744-0.986-1.194-1.754-1.41-2.154l13.559-13.559zM11.271 29.355c-0.767-0.467-1.479-0.947-2.132-1.432l13.886-13.886 1.782 1.782-13.536 13.536zM8.414 27.234c-0.026 0.026-0.039 0.057-0.058 0.087-1.579-1.267-2.792-2.531-3.698-3.627l14.012-14.012 3.648 3.648-13.904 13.904zM10.123 29.817l-5.575 0.683c-1.894-0.283-2.865-2.485-3.057-2.974l0.68-5.551c1.026 1.671 3.442 4.941 7.952 7.842zM1.277 29.269c0.331 0.503 0.776 1.040 1.349 1.467l-1.552 0.19 0.203-1.657zM22.224 1.151c0.096-0.098 0.226-0.151 0.363-0.151 0.138 0 0.267 0.053 0.363 0.15l7.9 7.9c0.2 0.2 0.2 0.526 0 0.726l-5.336 5.336-8.626-8.626 5.336-5.335z"></path>
</svg>
