<!-- Generated by IcoMoon.io -->
<svg version="1.1" xmlns="http://www.w3.org/2000/svg" width="32" height="32" viewBox="0 0 32 32">
<title>pendrive</title>
<path d="M24.5 11c-0.276 0-0.5 0.224-0.5 0.5v11.531c0 4.394-3.648 7.969-8 7.969s-8-3.575-8-7.969v-11.531c0-0.276-0.224-0.5-0.5-0.5s-0.5 0.224-0.5 0.5v11.531c0 4.946 4.097 8.969 9 8.969s9-4.023 9-8.969v-11.531c0-0.276-0.224-0.5-0.5-0.5zM24.392 8h-3.392v-6.5c0-0.827-0.673-1.5-1.5-1.5h-7c-0.827 0-1.5 0.673-1.5 1.5v6.5h-3.392c-0.276 0-0.5 0.224-0.5 0.5s0.224 0.5 0.5 0.5h16.783c0.276 0 0.5-0.224 0.5-0.5s-0.223-0.5-0.499-0.5zM12 1.5c0-0.275 0.225-0.5 0.5-0.5h7c0.275 0 0.5 0.225 0.5 0.5v6.5h-8v-6.5zM15.082 5.293c0 0.552-0.448 1-1 1s-1-0.448-1-1c0-0.552 0.448-1 1-1s1 0.448 1 1zM18.918 5.293c0 0.552-0.448 1-1 1s-1-0.448-1-1c0-0.552 0.448-1 1-1s1 0.448 1 1z"></path>
</svg>
