<!-- Generated by IcoMoon.io -->
<svg version="1.1" xmlns="http://www.w3.org/2000/svg" width="31" height="32" viewBox="0 0 31 32">
<title>pillar</title>
<path d="M6.5 13c3.584 0 6.5-2.916 6.5-6.5 0-0.276-0.224-0.5-0.5-0.5s-0.5 0.224-0.5 0.5c0 3.033-2.468 5.5-5.5 5.5s-5.5-2.467-5.5-5.5 2.468-5.5 5.5-5.5h18c3.032 0 5.5 2.467 5.5 5.5s-2.468 5.5-5.5 5.5-5.5-2.467-5.5-5.5c0-0.276-0.224-0.5-0.5-0.5s-0.5 0.224-0.5 0.5c0 3.584 2.916 6.5 6.5 6.5s6.5-2.916 6.5-6.5-2.916-6.5-6.5-6.5h-18c-3.584 0-6.5 2.916-6.5 6.5s2.916 6.5 6.5 6.5zM18 12.5c0-0.276-0.224-0.5-0.5-0.5h-4c-0.276 0-0.5 0.224-0.5 0.5s0.224 0.5 0.5 0.5h4c0.276 0 0.5-0.224 0.5-0.5zM5.5 16v16c0 0.276 0.224 0.5 0.5 0.5s0.5-0.224 0.5-0.5v-16c0-0.276-0.224-0.5-0.5-0.5s-0.5 0.224-0.5 0.5zM11.5 16v16c0 0.276 0.224 0.5 0.5 0.5s0.5-0.224 0.5-0.5v-16c0-0.276-0.224-0.5-0.5-0.5s-0.5 0.224-0.5 0.5zM18 32.5c0.276 0 0.5-0.224 0.5-0.5v-16c0-0.276-0.224-0.5-0.5-0.5s-0.5 0.224-0.5 0.5v16c0 0.276 0.224 0.5 0.5 0.5zM23.5 16v16c0 0.276 0.224 0.5 0.5 0.5s0.5-0.224 0.5-0.5v-16c0-0.276-0.224-0.5-0.5-0.5s-0.5 0.224-0.5 0.5zM4.069 6.5c0 0.276 0.224 0.5 0.5 0.5s0.5-0.224 0.5-0.5c0-0.827 0.673-1.5 1.5-1.5 0.276 0 0.5-0.224 0.5-0.5s-0.223-0.5-0.5-0.5c-1.379 0-2.5 1.122-2.5 2.5zM23.069 6.5c0-0.827 0.673-1.5 1.5-1.5 0.276 0 0.5-0.224 0.5-0.5s-0.223-0.5-0.5-0.5c-1.379 0-2.5 1.122-2.5 2.5 0 0.276 0.224 0.5 0.5 0.5s0.5-0.224 0.5-0.5z"></path>
</svg>
