<!-- Generated by IcoMoon.io -->
<svg version="1.1" xmlns="http://www.w3.org/2000/svg" width="13" height="32" viewBox="0 0 13 32">
<title>pin-man</title>
<path d="M0 15.502v4.138c0 2.247 1.895 4.166 4.223 4.373l1.285 6.834c0.111 0.646 0.739 1.153 1.43 1.153 0.685 0 1.286-0.496 1.4-1.169l0.943-6.821c2.149-0.218 3.719-2.023 3.719-4.37v-3.886c0-2.507-1.177-4.711-3.064-5.866 1.48-1.035 2.396-2.691 2.396-4.432 0-3.009-2.42-5.456-5.394-5.456-2.992 0-5.426 2.447-5.426 5.456 0 1.835 0.735 3.413 2.007 4.39-2.137 1.174-3.519 3.347-3.519 5.656zM4.747 10.374c0.186-0.071 0.311-0.246 0.319-0.444s-0.102-0.384-0.28-0.471c-1.424-0.694-2.274-2.191-2.274-4.003 0-2.457 1.986-4.456 4.426-4.456 2.464 0 4.394 1.957 4.394 4.456 0 1.662-1.042 3.238-2.656 4.015-0.178 0.086-0.29 0.269-0.283 0.467s0.129 0.373 0.313 0.447c2.001 0.805 3.294 2.912 3.294 5.369v3.886c0 1.934-1.357 3.392-3.157 3.392-0.25 0-0.461 0.185-0.495 0.432l-0.998 7.215c-0.030 0.176-0.215 0.321-0.412 0.321-0.204 0-0.415-0.153-0.445-0.33l-1.359-7.231c-0.044-0.236-0.25-0.407-0.491-0.407-1.941 0-3.643-1.585-3.643-3.392v-4.138c0-2.164 1.541-4.273 3.747-5.128z"></path>
</svg>
