<!-- Generated by IcoMoon.io -->
<svg version="1.1" xmlns="http://www.w3.org/2000/svg" width="19" height="32" viewBox="0 0 19 32">
<title>pin-man-range</title>
<path d="M3.5 13.964v3.896c0 2.060 1.598 3.76 3.643 3.968l1.063 6.097c0.109 0.623 0.653 1.075 1.294 1.075s1.185-0.452 1.294-1.076l1.063-6.097c2.044-0.207 3.643-1.907 3.643-3.968v-3.67c0-2.176-1.171-4.191-2.992-5.277 1.26-0.924 2.035-2.396 2.035-3.964 0-2.728-2.262-4.948-5.043-4.948s-5.043 2.22-5.043 4.948c0 1.578 0.748 3.019 2 3.942-1.823 1.045-2.957 2.948-2.957 5.074zM7.69 9.411c0.187-0.071 0.314-0.247 0.322-0.447s-0.104-0.386-0.284-0.472c-1.401-0.67-2.272-2.027-2.272-3.544 0.001-2.177 1.815-3.948 4.044-3.948s4.043 1.771 4.043 3.948c0 1.504-0.9 2.898-2.293 3.554-0.181 0.085-0.293 0.269-0.287 0.468s0.131 0.377 0.316 0.449c1.926 0.759 3.22 2.676 3.22 4.771v3.67c0 1.648-1.375 2.989-3.067 2.989-0.243 0-0.451 0.175-0.493 0.414l-1.131 6.489c-0.050 0.287-0.567 0.287-0.617 0l-1.131-6.489c-0.042-0.239-0.253-0.414-0.496-0.414-1.689 0-3.064-1.341-3.064-2.989v-3.896c0-2.030 1.252-3.818 3.19-4.553zM19 29.418c0-1.595-3.727-2.198-5.948-2.416-0.276-0.013-0.52 0.175-0.546 0.449s0.174 0.52 0.449 0.547c3.76 0.368 5.014 1.17 5.045 1.419-0.053 0.437-2.747 1.583-8.5 1.583s-8.447-1.146-8.5-1.581c0.032-0.246 1.257-1.035 4.922-1.409 0.274-0.027 0.475-0.273 0.447-0.548s-0.266-0.472-0.549-0.446c-2.174 0.22-5.82 0.828-5.82 2.402 0 2.042 6.214 2.582 9.5 2.582s9.5-0.54 9.5-2.582z"></path>
</svg>
