<!-- Generated by IcoMoon.io -->
<svg version="1.1" xmlns="http://www.w3.org/2000/svg" width="23" height="32" viewBox="0 0 23 32">
<title>pin</title>
<path d="M5.96 18.695c0.107-0.254-0.011-0.547-0.266-0.655-0.252-0.106-0.548 0.010-0.655 0.266l-4.936 11.656c-0.263 0.69-0.008 1.414 0.634 1.801 0.263 0.16 0.551 0.237 0.834 0.237 0.437 0 0.863-0.185 1.175-0.539l8.131-9.388c0.181-0.208 0.158-0.524-0.051-0.705-0.207-0.181-0.524-0.159-0.705 0.051l-8.128 9.384c-0.235 0.265-0.546 0.221-0.74 0.104-0.108-0.065-0.344-0.253-0.223-0.572l4.93-11.64zM22.996 6.057c0.041-0.535-0.227-1.034-0.698-1.3l-8.070-4.572c-0.577-0.327-1.333-0.189-1.759 0.303-0.262 0.303-0.375 0.689-0.318 1.088l0.587 4.080c0.024 0.164-0.065 0.322-0.221 0.394l-11.821 5.436c-0.437 0.25-0.697 0.698-0.696 1.197s0.263 0.945 0.702 1.194l15.782 8.939c0.212 0.12 0.452 0.184 0.693 0.184 0.755 0 1.369-0.584 1.396-1.375l-0.682-12.505c-0.008-0.163 0.092-0.312 0.25-0.373l3.964-1.508c0.509-0.192 0.85-0.646 0.891-1.182zM21.75 6.305l-3.965 1.508c-0.566 0.216-0.925 0.763-0.892 1.361l0.681 12.459c-0.009 0.23-0.209 0.367-0.397 0.367-0.069 0-0.137-0.018-0.2-0.054l-15.782-8.94c-0.175-0.099-0.195-0.261-0.195-0.326 0-0.064 0.019-0.226 0.154-0.306l11.781-5.417c0.562-0.258 0.88-0.839 0.793-1.445l-0.587-4.079c-0.020-0.138 0.035-0.234 0.084-0.291 0.077-0.089 0.193-0.142 0.31-0.142 0.069 0 0.136 0.019 0.2 0.055l8.070 4.572c0.191 0.108 0.199 0.284 0.194 0.354s-0.041 0.245-0.249 0.324z"></path>
</svg>
