<!-- Generated by IcoMoon.io -->
<svg version="1.1" xmlns="http://www.w3.org/2000/svg" width="46" height="32" viewBox="0 0 46 32">
<title>plane</title>
<path d="M9.159 23h5.341c0.006 0 0.010-0.003 0.016-0.003 1.011 5.152 4.522 8.969 8.698 8.969s7.685-3.816 8.697-8.966h4.172c-0.881 0.636-1.462 1.666-1.462 2.833 0 1.93 1.57 3.5 3.5 3.5s3.5-1.57 3.5-3.5c0-1.167-0.58-2.197-1.462-2.833h5.341c0.276 0 0.5-0.224 0.5-0.5s-0.224-0.5-0.5-0.5h-13.426c0.085-0.663 0.139-1.34 0.139-2.034 0-2.598-0.629-4.999-1.686-6.966h5.973c0.276 0 0.5-0.224 0.5-0.5s-0.224-0.5-0.5-0.5h-6c-0.177 0-0.324 0.097-0.413 0.235-1.594-2.516-3.949-4.138-6.587-4.25v-6.985c0-0.276-0.224-0.5-0.5-0.5s-0.5 0.224-0.5 0.5v7c0 0.005 0.003 0.009 0.003 0.014-2.382 0.25-4.501 1.986-6.002 3.986 0 0-0.001 0-0.001 0h-6c-0.276 0-0.5 0.224-0.5 0.5s0.224 0.5 0.5 0.5h5.4c-1.057 1.966-1.686 4.368-1.686 6.966 0 0.695 0.054 1.372 0.139 2.034h-13.853c-0.276 0-0.5 0.224-0.5 0.5s0.224 0.5 0.5 0.5h4.583c-0.881 0.636-1.462 1.666-1.462 2.833 0 1.93 1.57 3.5 3.5 3.5s3.5-1.57 3.5-3.5c0-1.167-0.58-2.197-1.462-2.833zM40.621 25.833c0 1.379-1.122 2.5-2.5 2.5s-2.5-1.121-2.5-2.5 1.122-2.5 2.5-2.5 2.5 1.121 2.5 2.5zM23.214 8.966c4.411 0 8 4.935 8 11s-3.589 11-8 11-8-4.935-8-11 3.589-11 8-11zM7.121 28.333c-1.378 0-2.5-1.121-2.5-2.5s1.122-2.5 2.5-2.5 2.5 1.121 2.5 2.5-1.121 2.5-2.5 2.5zM20.5 16h5c0.276 0 0.5-0.224 0.5-0.5s-0.224-0.5-0.5-0.5h-5c-0.276 0-0.5 0.224-0.5 0.5s0.224 0.5 0.5 0.5z"></path>
</svg>
