<!-- Generated by IcoMoon.io -->
<svg version="1.1" xmlns="http://www.w3.org/2000/svg" width="32" height="32" viewBox="0 0 32 32">
<title>play-button</title>
<path d="M16 0c-8.822 0-16 7.178-16 16s7.178 16 16 16 16-7.178 16-16-7.178-16-16-16zM16 31c-8.271 0-15-6.729-15-15s6.729-15 15-15 15 6.729 15 15-6.729 15-15 15zM19.609 14.802l-5.293-4.002c-0.263-0.197-0.567-0.302-0.88-0.302-0.805 0-1.436 0.66-1.436 1.502v8c0 0.842 0.635 1.502 1.445 1.502 0.313 0 0.619-0.104 0.885-0.304l5.258-3.998c0.382-0.287 0.611-0.742 0.611-1.218-0.001-0.47-0.216-0.901-0.59-1.18zM18.985 16.401l-5.258 3.998c-0.293 0.223-0.727 0.054-0.727-0.399v-8c0-0.326 0.225-0.502 0.437-0.502 0.096 0 0.19 0.034 0.279 0.101l5.293 4.002c0.165 0.123 0.19 0.292 0.19 0.382-0.001 0.164-0.077 0.317-0.214 0.418z"></path>
</svg>
