<!-- Generated by IcoMoon.io -->
<svg version="1.1" xmlns="http://www.w3.org/2000/svg" width="30" height="32" viewBox="0 0 30 32">
<title>play-store</title>
<path d="M27.881 12.934l-21.973-12.457c-0.548-0.312-1.324-0.477-1.966-0.477-2.091 0-3.942 1.589-3.942 3.542v24.916c0 1.953 1.839 3.542 3.916 3.542 0.638 0 1.339-0.165 1.885-0.476l22.106-12.459c1.102-0.628 1.777-1.757 1.777-3.019 0.001-1.298-0.662-2.461-1.803-3.112zM5.413 1.346l15.606 8.848-4.785 5.076-13.24-14.044c0.353-0.143 0.727-0.226 1.097-0.226 0.474 0 0.919 0.116 1.322 0.346zM1 28.458v-24.916c0-0.728 0.484-1.337 0.978-1.779l13.495 14.237-13.536 14.241c-0.491-0.443-0.937-1.053-0.937-1.783zM5.381 30.654c-0.402 0.23-0.845 0.346-1.317 0.346-0.362 0-0.729-0.081-1.075-0.22l13.245-14.050 4.798 5.089-15.651 8.835zM27.45 18.195l-5.521 3.117-5.007-5.312 4.994-5.297 5.47 3.101c0.825 0.47 1.317 1.308 1.317 2.242 0 0.899-0.469 1.702-1.253 2.149z"></path>
</svg>
