<!-- Generated by IcoMoon.io -->
<svg version="1.1" xmlns="http://www.w3.org/2000/svg" width="34" height="32" viewBox="0 0 34 32">
<title>playing-card</title>
<path d="M18.5 0h-17c-0.827 0-1.5 0.673-1.5 1.5v29c0 0.827 0.673 1.5 1.5 1.5h17c0.827 0 1.5-0.673 1.5-1.5v-29c0-0.827-0.673-1.5-1.5-1.5zM19 30.5c0 0.276-0.224 0.5-0.5 0.5h-17c-0.276 0-0.5-0.224-0.5-0.5v-29c0-0.276 0.224-0.5 0.5-0.5h17c0.276 0 0.5 0.224 0.5 0.5v29zM22 31.5c0 0.276 0.224 0.5 0.5 0.5h10c0.827 0 1.5-0.673 1.5-1.5v-29c0-0.827-0.673-1.5-1.5-1.5h-10c-0.276 0-0.5 0.224-0.5 0.5s0.224 0.5 0.5 0.5h10c0.276 0 0.5 0.224 0.5 0.5v29c0 0.276-0.224 0.5-0.5 0.5h-10c-0.276 0-0.5 0.224-0.5 0.5zM4 2c-1.103 0-2 0.897-2 2s0.897 2 2 2 2-0.897 2-2-0.897-2-2-2zM4 5c-0.551 0-1-0.449-1-1s0.449-1 1-1 1 0.449 1 1-0.449 1-1 1zM16 26c-1.103 0-2 0.897-2 2s0.897 2 2 2 2-0.897 2-2-0.897-2-2-2zM16 29c-0.551 0-1-0.449-1-1s0.449-1 1-1 1 0.449 1 1-0.449 1-1 1zM32 28c0-1.103-0.897-2-2-2s-2 0.897-2 2 0.897 2 2 2 2-0.897 2-2zM29 28c0-0.551 0.449-1 1-1s1 0.449 1 1-0.449 1-1 1-1-0.449-1-1zM24.018 19.446c-0.35-0.437-0.907-1.092-1.592-1.761-0.197-0.192-0.513-0.189-0.707 0.009s-0.189 0.514 0.009 0.707c1.102 1.075 1.875 2.262 1.883 2.273 0.093 0.13 0.242 0.326 0.401 0.326 0.001 0 0.003 0 0.004 0 0.158 0 0.306-0.192 0.401-0.318 1.746-2.339 3.935-4.027 3.957-4.043 0.125-0.093 0.2-0.267 0.203-0.423 0.002-0.155-0.067-0.318-0.189-0.415-1.382-1.098-3.025-2.855-3.882-3.8-0.010-0.011-0.080-0.091-0.092-0.101-0.099-0.091-0.229-0.142-0.364-0.133-0.134 0.007-0.26 0.067-0.349 0.168-1.201 1.365-1.944 2.011-1.952 2.018-0.208 0.181-0.231 0.496-0.051 0.705 0.179 0.208 0.495 0.231 0.705 0.051 0.029-0.025 0.646-0.561 1.677-1.698 0.812 0.882 2.046 2.167 3.2 3.157-0.7 0.574-2.027 1.741-3.262 3.278zM12.123 13.069c-0.757 0-1.461 0.341-1.938 0.9-0.478-0.56-1.181-0.9-1.938-0.9-1.413 0-2.562 1.162-2.562 2.589 0 0.661 0.248 1.291 0.708 1.784l3.42 3.478c0.094 0.096 0.222 0.149 0.356 0.149v0c0.134 0 0.262-0.054 0.356-0.149l3.218-3.262c0.404-0.409 0.942-1.062 0.942-2-0.001-1.428-1.15-2.589-2.562-2.589zM13.030 16.956l-2.862 2.901-3.054-3.107c-0.277-0.297-0.43-0.685-0.43-1.092 0-0.876 0.701-1.589 1.562-1.589 0.655 0 1.245 0.422 1.467 1.051 0.142 0.399 0.801 0.399 0.942 0 0.223-0.629 0.812-1.051 1.467-1.051 0.861 0 1.562 0.713 1.562 1.589 0 0.446-0.195 0.833-0.654 1.298z"></path>
</svg>
