<!-- Generated by IcoMoon.io -->
<svg version="1.1" xmlns="http://www.w3.org/2000/svg" width="32" height="32" viewBox="0 0 32 32">
<title>plus-gap</title>
<path d="M16 0c-4.274 0-8.292 1.664-11.313 4.687-3.022 3.021-4.687 7.040-4.687 11.313s1.665 8.292 4.687 11.313c3.021 3.023 7.039 4.687 11.313 4.687s8.292-1.664 11.313-4.687c3.022-3.021 4.687-7.040 4.687-11.313s-1.665-8.292-4.687-11.313c-3.021-3.023-7.039-4.687-11.313-4.687zM26.606 26.606c-2.833 2.833-6.599 4.394-10.606 4.394s-7.773-1.561-10.606-4.394-4.394-6.599-4.394-10.606 1.561-7.773 4.394-10.606 6.599-4.394 10.606-4.394 7.773 1.561 10.606 4.394 4.394 6.599 4.394 10.606-1.561 7.773-4.394 10.606zM16.5 16.5c-0.276 0-0.5 0.224-0.5 0.5v6c0 0.276 0.224 0.5 0.5 0.5s0.5-0.224 0.5-0.5v-6c0-0.276-0.224-0.5-0.5-0.5zM16.5 7.5c-0.276 0-0.5 0.224-0.5 0.5v6c0 0.276 0.224 0.5 0.5 0.5s0.5-0.224 0.5-0.5v-6c0-0.276-0.224-0.5-0.5-0.5zM15 15h-6c-0.276 0-0.5 0.224-0.5 0.5s0.224 0.5 0.5 0.5h6c0.276 0 0.5-0.224 0.5-0.5s-0.224-0.5-0.5-0.5zM24 15h-6c-0.276 0-0.5 0.224-0.5 0.5s0.224 0.5 0.5 0.5h6c0.276 0 0.5-0.224 0.5-0.5s-0.224-0.5-0.5-0.5z"></path>
</svg>
