<!-- Generated by IcoMoon.io -->
<svg version="1.1" xmlns="http://www.w3.org/2000/svg" width="28" height="32" viewBox="0 0 28 32">
<title>power</title>
<path d="M14 32c7.72 0 14-6.249 14-13.929 0-5.768-3.644-11.007-9.066-13.040-0.261-0.096-0.547 0.034-0.644 0.293-0.098 0.258 0.034 0.546 0.292 0.644 5.035 1.886 8.418 6.751 8.418 12.103 0 7.129-5.832 12.929-13 12.929s-13-5.8-13-12.929c0-5.372 3.252-10.103 8.284-12.052 0.258-0.1 0.386-0.389 0.285-0.647-0.098-0.258-0.389-0.383-0.646-0.286-5.42 2.1-8.923 7.197-8.923 12.985 0 7.68 6.28 13.929 14 13.929zM12 2.563v6.874c0 1.413 1.121 2.563 2.5 2.563s2.5-1.15 2.5-2.563v-6.874c0-1.413-1.121-2.563-2.5-2.563s-2.5 1.15-2.5 2.563zM16 2.563v6.874c0 0.862-0.673 1.563-1.5 1.563s-1.5-0.701-1.5-1.563v-6.874c0-0.862 0.673-1.563 1.5-1.563s1.5 0.701 1.5 1.563z"></path>
</svg>
