<!-- Generated by IcoMoon.io -->
<svg version="1.1" xmlns="http://www.w3.org/2000/svg" width="32" height="32" viewBox="0 0 32 32">
<title>quote</title>
<path d="M20.845 8.93c-1.099 0-2.158 0.324-3.065 0.938-0.229 0.155-0.289 0.466-0.134 0.694s0.466 0.289 0.694 0.134c0.741-0.502 1.607-0.767 2.505-0.767 2.471 0 4.481 2.016 4.481 4.494 0 1.215-0.478 2.354-1.374 3.243l-5.030 5.043c-0.281 0.283-0.772 0.284-1.058-0.001-0.293-0.293-0.293-0.771 0-1.064l2.653-2.66-0.834-0.224c-0.502-0.136-0.974-0.356-1.404-0.657-0.225-0.156-0.537-0.104-0.696 0.124-0.158 0.226-0.103 0.538 0.124 0.696 0.295 0.206 0.607 0.383 0.934 0.526l-1.483 1.487c-0.683 0.684-0.683 1.795 0 2.479 0.331 0.331 0.771 0.514 1.236 0.514 0.468 0 0.906-0.183 1.236-0.514l5.054-5.073c1.060-1.042 1.643-2.435 1.643-3.919-0.001-3.028-2.46-5.493-5.482-5.493zM12.291 12.061c-1.34 0-2.43 1.092-2.43 2.435s1.090 2.435 2.43 2.435 2.43-1.092 2.43-2.435-1.090-2.435-2.43-2.435zM12.291 15.93c-0.788 0-1.43-0.644-1.43-1.435s0.642-1.435 1.43-1.435 1.43 0.644 1.43 1.435-0.642 1.435-1.43 1.435zM12.291 8.93c-3.022 0-5.481 2.465-5.481 5.494 0 2.198 1.313 4.161 3.277 5.026l-1.483 1.487c-0.683 0.684-0.683 1.795-0.001 2.478 0.331 0.332 0.77 0.515 1.237 0.515 0.466 0 0.905-0.183 1.236-0.514l5.054-5.073c1.060-1.044 1.643-2.436 1.643-3.919-0.001-3.029-2.46-5.494-5.482-5.494zM15.398 17.667l-5.029 5.042c-0.285 0.285-0.775 0.285-1.059 0-0.293-0.293-0.293-0.771 0-1.064l2.653-2.66-0.834-0.224c-1.955-0.526-3.32-2.31-3.32-4.337 0-2.479 2.011-4.494 4.481-4.494s4.481 2.016 4.481 4.494c0.001 1.214-0.476 2.352-1.373 3.243zM23.149 14.495c0-1.343-1.090-2.435-2.43-2.435s-2.43 1.092-2.43 2.435 1.090 2.435 2.43 2.435 2.43-1.092 2.43-2.435zM19.29 14.495c0-0.791 0.642-1.435 1.43-1.435s1.43 0.644 1.43 1.435-0.642 1.435-1.43 1.435-1.43-0.644-1.43-1.435zM16 0c-8.822 0-16 7.178-16 16s7.178 16 16 16 16-7.178 16-16-7.178-16-16-16zM16 31c-8.271 0-15-6.729-15-15s6.729-15 15-15 15 6.729 15 15-6.729 15-15 15z"></path>
</svg>
