<!-- Generated by IcoMoon.io -->
<svg version="1.1" xmlns="http://www.w3.org/2000/svg" width="32" height="32" viewBox="0 0 32 32">
<title>radar</title>
<path d="M0 16c0 8.822 7.178 16 16 16s16-7.178 16-16-7.178-16-16-16-16 7.178-16 16zM16 1c8.271 0 15 6.729 15 15s-6.729 15-15 15-15-6.729-15-15 6.729-15 15-15zM7.868 24.132c2.242 2.242 5.187 3.363 8.132 3.363s5.89-1.121 8.132-3.363c4.484-4.484 4.484-11.779 0-16.264-0.195-0.195-0.512-0.195-0.707 0s-0.195 0.512 0 0.707c4.094 4.094 4.094 10.756 0 14.85s-10.756 4.094-14.85 0c-3.974-3.975-4.078-10.363-0.335-14.478l2.828 2.828c-1.011 1.177-1.568 2.657-1.568 4.225 0 1.736 0.677 3.368 1.904 4.596s2.86 1.904 4.596 1.904 3.368-0.677 4.596-1.904 1.904-2.86 1.904-4.596-0.677-3.368-1.904-4.596c-0.195-0.195-0.512-0.195-0.707 0s-0.195 0.512 0 0.707c1.039 1.039 1.611 2.42 1.611 3.889s-0.572 2.85-1.611 3.889-2.42 1.611-3.889 1.611-2.85-0.572-3.889-1.611-1.611-2.42-1.611-3.889c0-1.299 0.47-2.515 1.292-3.501l2.124 2.124c-0.262 0.396-0.416 0.868-0.416 1.377 0 1.379 1.121 2.5 2.5 2.5s2.5-1.121 2.5-2.5-1.121-2.5-2.5-2.5c-0.509 0-0.981 0.154-1.377 0.416l-7.416-7.416c-0.195-0.195-0.512-0.195-0.707 0s-0.195 0.512 0 0.707l1.033 1.033c-4.133 4.506-4.030 11.527 0.335 15.892zM16 14.5c0.827 0 1.5 0.673 1.5 1.5s-0.673 1.5-1.5 1.5-1.5-0.673-1.5-1.5 0.673-1.5 1.5-1.5z"></path>
</svg>
