<!-- Generated by IcoMoon.io -->
<svg version="1.1" xmlns="http://www.w3.org/2000/svg" width="32" height="32" viewBox="0 0 32 32">
<title>radiation</title>
<path d="M16 17.69c0.932 0 1.69-0.758 1.69-1.69s-0.758-1.69-1.69-1.69-1.69 0.758-1.69 1.69 0.758 1.69 1.69 1.69zM16 15.31c0.38 0 0.69 0.31 0.69 0.69s-0.31 0.69-0.69 0.69-0.69-0.31-0.69-0.69 0.31-0.69 0.69-0.69zM16 32c8.822 0 16-7.178 16-16s-7.178-16-16-16-16 7.178-16 16 7.178 16 16 16zM16 1c8.271 0 15 6.729 15 15s-6.729 15-15 15-15-6.729-15-15 6.729-15 15-15zM18.131 18.753c-0.138-0.238-0.44-0.32-0.68-0.185-0.959 0.544-2.071 0.515-2.988-0.046-0.115-0.070-0.253-0.092-0.384-0.058s-0.243 0.118-0.31 0.234l-4.099 7.099c-0.208 0.361-0.257 0.797-0.133 1.196 0.125 0.402 0.414 0.736 0.794 0.917 1.781 0.85 3.688 1.281 5.67 1.281 1.938 0 3.807-0.413 5.555-1.227 0.383-0.178 0.676-0.512 0.803-0.915 0.127-0.401 0.079-0.84-0.131-1.204l-4.097-7.092zM21.404 26.75c-0.043 0.138-0.14 0.248-0.271 0.309-3.268 1.52-7.12 1.503-10.372-0.050-0.131-0.062-0.227-0.173-0.27-0.312-0.042-0.135-0.026-0.278 0.044-0.4l3.858-6.683c0.985 0.445 2.105 0.465 3.104 0.043l3.861 6.688c0.073 0.125 0.089 0.268 0.046 0.405zM3.192 15.534c0.277 0.3 0.69 0.466 1.163 0.466h8.193c0.267 0 0.487-0.21 0.5-0.477 0.040-0.849 0.644-1.777 1.47-2.259 0.115-0.067 0.198-0.177 0.231-0.305 0.034-0.128 0.015-0.265-0.052-0.379l-4.114-7.050c-0.417-0.724-1.453-0.926-2.171-0.431-3.368 2.325-5.236 5.493-5.555 9.419-0.031 0.388 0.088 0.749 0.335 1.016zM8.979 5.922c0.103-0.071 0.225-0.11 0.343-0.11 0.101 0 0.285 0.028 0.396 0.22l3.879 6.648c-0.757 0.586-1.307 1.443-1.488 2.32h-7.754c-0.188 0-0.344-0.053-0.429-0.144-0.058-0.062-0.082-0.147-0.072-0.257 0.292-3.612 2.017-6.531 5.125-8.677zM17.39 13.192c0.848 0.455 1.52 1.458 1.562 2.333 0.013 0.266 0.233 0.476 0.5 0.476h8.192c0.481 0 0.898-0.164 1.173-0.462 0.244-0.265 0.357-0.61 0.325-0.999-0.325-3.955-2.282-7.254-5.66-9.54-0.696-0.47-1.734-0.209-2.158 0.523l-4.128 6.974c-0.069 0.118-0.088 0.258-0.051 0.389s0.125 0.242 0.245 0.306zM22.188 6.028c0.148-0.255 0.501-0.357 0.734-0.2 3.118 2.11 4.924 5.151 5.223 8.793 0.013 0.156-0.045 0.218-0.064 0.239-0.081 0.088-0.244 0.14-0.437 0.14h-7.756c-0.193-0.911-0.795-1.825-1.585-2.41l3.885-6.562z"></path>
</svg>
