<!-- Generated by IcoMoon.io -->
<svg version="1.1" xmlns="http://www.w3.org/2000/svg" width="36" height="32" viewBox="0 0 36 32">
<title>recycle</title>
<path d="M0.542 27.529c0.832 1.547 2.336 2.471 4.025 2.471h12.485l-1.368 1.112c-0.214 0.174-0.247 0.489-0.072 0.703 0.099 0.122 0.243 0.185 0.388 0.185 0.111 0 0.222-0.037 0.315-0.112l2.459-2c0.104-0.084 0.17-0.207 0.182-0.341 0.013-0.134-0.029-0.267-0.115-0.369l-2.14-2.539c-0.178-0.211-0.493-0.236-0.705-0.061-0.211 0.179-0.238 0.494-0.060 0.705l1.448 1.717h-12.817c-1.314 0-2.49-0.727-3.145-1.944-0.676-1.258-0.626-2.749 0.127-3.889l3.411-5.043c0.155-0.229 0.095-0.54-0.134-0.694-0.229-0.157-0.54-0.095-0.694 0.134l-3.414 5.048c-0.959 1.45-1.027 3.335-0.176 4.917zM35.58 27.476c0.833-1.55 0.769-3.326-0.176-4.753l-6.124-9.092 2.087 0.417c0.271 0.057 0.534-0.121 0.588-0.393s-0.122-0.534-0.393-0.588l-3.41-0.681c-0.27-0.058-0.534 0.121-0.588 0.393l-0.681 3.41c-0.054 0.271 0.122 0.534 0.392 0.588 0.033 0.007 0.066 0.010 0.099 0.010 0.233 0 0.442-0.164 0.49-0.402l0.473-2.365 6.236 9.258c0.735 1.112 0.782 2.504 0.126 3.725-0.673 1.25-1.894 1.997-3.266 1.997h-7.433c-0.276 0-0.5 0.224-0.5 0.5s0.224 0.5 0.5 0.5h7.433c1.72 0 3.31-0.967 4.147-2.524zM18 1c1.217 0 2.344 0.605 3.015 1.62l3.901 5.898c0.152 0.23 0.462 0.295 0.693 0.142 0.23-0.152 0.293-0.463 0.141-0.692l-3.901-5.898c-0.857-1.297-2.296-2.070-3.849-2.070s-2.992 0.773-3.843 2.061l-6.809 9.836-0.454-2.259c-0.055-0.271-0.318-0.448-0.589-0.392-0.27 0.055-0.446 0.318-0.391 0.589l0.685 3.409c0.026 0.13 0.103 0.244 0.213 0.317 0.083 0.056 0.179 0.084 0.277 0.084 0.033 0 0.066-0.003 0.099-0.010l3.409-0.686c0.271-0.055 0.446-0.318 0.392-0.589s-0.317-0.446-0.589-0.392l-2.192 0.442 6.777-9.79c0.671-1.015 1.798-1.62 3.015-1.62z"></path>
</svg>
