<!-- Generated by IcoMoon.io -->
<svg version="1.1" xmlns="http://www.w3.org/2000/svg" width="35" height="32" viewBox="0 0 35 32">
<title>refresh-time</title>
<path d="M30.146 27.454c0.368-0.359 0.722-0.74 1.054-1.132 0.178-0.211 0.152-0.526-0.059-0.705-0.21-0.178-0.527-0.15-0.705 0.059-0.311 0.368-0.644 0.726-0.989 1.063-0.197 0.192-0.201 0.509-0.008 0.707 0.098 0.1 0.228 0.15 0.358 0.15 0.125 0.001 0.251-0.046 0.349-0.142zM8.831 28.376c0.093 0.076 0.205 0.113 0.316 0.113 0.145 0 0.288-0.062 0.387-0.183 0.175-0.214 0.144-0.529-0.070-0.704-0.806-0.661-1.544-1.407-2.196-2.219-0.174-0.216-0.488-0.251-0.703-0.077-0.215 0.173-0.25 0.487-0.077 0.702 0.696 0.867 1.484 1.663 2.343 2.368zM26.998 28.676c-0.881 0.559-1.822 1.025-2.797 1.388-0.259 0.097-0.391 0.384-0.294 0.644 0.075 0.201 0.266 0.325 0.469 0.325 0.058 0 0.117-0.010 0.174-0.031 1.040-0.387 2.043-0.885 2.983-1.481 0.233-0.147 0.303-0.456 0.155-0.689-0.147-0.235-0.456-0.304-0.69-0.156zM14.712 31.426c0.044 0.012 0.089 0.018 0.133 0.018 0.219 0 0.42-0.146 0.481-0.367 0.073-0.267-0.083-0.542-0.349-0.615-1.001-0.275-1.979-0.659-2.906-1.14-0.247-0.13-0.548-0.031-0.674 0.213-0.127 0.245-0.032 0.547 0.213 0.674 0.99 0.513 2.033 0.922 3.102 1.217zM18.058 30.973c-0.275-0.024-0.513 0.193-0.529 0.47-0.017 0.275 0.194 0.512 0.469 0.528 0.323 0.019 0.648 0.029 0.976 0.029 0.787 0 1.578-0.058 2.351-0.171 0.273-0.041 0.462-0.295 0.422-0.568-0.041-0.272-0.294-0.457-0.567-0.422-1.028 0.152-2.092 0.195-3.122 0.134zM5.119 23.457c0.076 0 0.152-0.017 0.224-0.054 0.247-0.124 0.346-0.425 0.222-0.671-0.215-0.427-0.413-0.872-0.587-1.323-0.1-0.258-0.389-0.388-0.647-0.285-0.257 0.1-0.385 0.389-0.286 0.646 0.186 0.48 0.397 0.956 0.626 1.411 0.089 0.175 0.265 0.276 0.448 0.276zM18.974 0c-8.466 0-15.398 6.614-15.947 14.943l-2.109-2.664c-0.172-0.215-0.485-0.254-0.703-0.081-0.215 0.17-0.252 0.485-0.081 0.701l3.003 3.794c0.099 0.124 0.245 0.189 0.393 0.189 0.108 0 0.218-0.035 0.31-0.108l3.794-3.003c0.216-0.171 0.253-0.485 0.082-0.702-0.171-0.215-0.484-0.254-0.703-0.081l-3.008 2.38c0.335-7.977 6.911-14.368 14.969-14.368 8.271 0 15 6.729 15 15 0 2.432-0.595 4.846-1.72 6.98-0.129 0.244-0.035 0.547 0.209 0.676 0.074 0.039 0.154 0.058 0.232 0.058 0.18 0 0.354-0.097 0.443-0.267 1.201-2.279 1.835-4.854 1.835-7.447 0.001-8.822-7.177-16-15.999-16zM19 5.5c-0.276 0-0.5 0.224-0.5 0.5v6.975c-1.469 0.23-2.6 1.493-2.6 3.025 0 1.694 1.378 3.073 3.073 3.073 0.976 0 1.837-0.466 2.401-1.178l5.352 3.047c0.078 0.044 0.163 0.065 0.247 0.065 0.174 0 0.343-0.091 0.435-0.253 0.137-0.239 0.053-0.545-0.187-0.682l-5.363-3.052c0.114-0.321 0.187-0.661 0.187-1.020 0-1.514-1.103-2.769-2.546-3.020v-6.98c0.001-0.276-0.223-0.5-0.499-0.5zM21.046 16c0 1.144-0.93 2.073-2.073 2.073s-2.073-0.929-2.073-2.073 0.93-2.073 2.073-2.073 2.073 0.929 2.073 2.073z"></path>
</svg>
