<!-- Generated by IcoMoon.io -->
<svg version="1.1" xmlns="http://www.w3.org/2000/svg" width="44" height="32" viewBox="0 0 44 32">
<title>reply</title>
<path d="M30.045 11.231c-4.661-2.814-8.816-3.196-10.33-3.232l0.285-6.46c0-0.928-0.86-1.502-1.658-1.502-0.378 0-0.724 0.122-0.997 0.35l-16.785 13.884c-0.315 0.263-0.489 0.638-0.492 1.055-0.003 0.461 0.212 0.922 0.575 1.234l16.686 14.246c0.273 0.235 0.633 0.364 1.014 0.364 0.797 0 1.657-0.574 1.657-1.501l0.009-9.183c16.978 0.209 22.968 11.061 23.027 11.171 0.089 0.167 0.262 0.265 0.442 0.265 0.063 0 0.128-0.012 0.19-0.038 0.237-0.098 0.362-0.359 0.289-0.605-2.825-9.433-7.505-16.178-13.912-20.048zM38.507 25.304c-3.487-2.656-9.614-5.822-18.998-5.822-0.276 0-0.5 0.224-0.5 0.5l-0.009 9.685c0 0.296-0.346 0.502-0.657 0.502-0.1 0-0.244-0.021-0.363-0.124l-16.687-14.245c-0.14-0.121-0.227-0.3-0.226-0.468 0.001-0.122 0.046-0.221 0.132-0.292l16.786-13.884c0.117-0.098 0.259-0.119 0.357-0.119 0.311 0 0.658 0.206 0.658 0.48l-0.307 6.961c-0.006 0.141 0.047 0.277 0.147 0.377 0.095 0.093 0.222 0.145 0.353 0.145 0.016 0-0.060-0.005 0.255-0.005 1.164 0 5.33 0.223 10.080 3.092 5.487 3.314 9.672 8.843 12.467 16.458-0.844-0.965-1.992-2.101-3.488-3.241z"></path>
</svg>
