<!-- Generated by IcoMoon.io -->
<svg version="1.1" xmlns="http://www.w3.org/2000/svg" width="30" height="32" viewBox="0 0 30 32">
<title>responsive-device</title>
<path d="M1.5 32h11.5c0.276 0 0.5-0.224 0.5-0.5s-0.224-0.5-0.5-0.5h-11.5c-0.276 0-0.5-0.224-0.5-0.5v-29c0-0.276 0.224-0.5 0.5-0.5h20c0.276 0 0.5 0.224 0.5 0.5v3.5c0 0.276 0.224 0.5 0.5 0.5s0.5-0.224 0.5-0.5v-3.5c0-0.827-0.673-1.5-1.5-1.5h-20c-0.827 0-1.5 0.673-1.5 1.5v29c0 0.827 0.673 1.5 1.5 1.5zM10 4c-0.276 0-0.5 0.224-0.5 0.5s0.224 0.5 0.5 0.5h3c0.276 0 0.5-0.224 0.5-0.5s-0.224-0.5-0.5-0.5h-3zM15 8.5v22c0 0.827 0.673 1.5 1.5 1.5h12c0.827 0 1.5-0.673 1.5-1.5v-22c0-0.827-0.673-1.5-1.5-1.5h-12c-0.827 0-1.5 0.673-1.5 1.5zM29 8.5v22c0 0.276-0.224 0.5-0.5 0.5h-12c-0.276 0-0.5-0.224-0.5-0.5v-22c0-0.276 0.224-0.5 0.5-0.5h12c0.276 0 0.5 0.224 0.5 0.5zM22.301 25.65c-0.931 0-1.688 0.757-1.688 1.688s0.757 1.688 1.688 1.688 1.688-0.757 1.688-1.688-0.758-1.688-1.688-1.688zM22.301 28.026c-0.379 0-0.688-0.309-0.688-0.688s0.309-0.688 0.688-0.688 0.688 0.309 0.688 0.688-0.309 0.688-0.688 0.688zM21 11h3c0.276 0 0.5-0.224 0.5-0.5s-0.224-0.5-0.5-0.5h-3c-0.276 0-0.5 0.224-0.5 0.5s0.224 0.5 0.5 0.5z"></path>
</svg>
