<!-- Generated by IcoMoon.io -->
<svg version="1.1" xmlns="http://www.w3.org/2000/svg" width="32" height="32" viewBox="0 0 32 32">
<title>rocket2</title>
<path d="M10.243 11.992c-3.463-0.443-6.97 0.737-9.439 3.206-0.128 0.128-0.253 0.26-0.374 0.392-0.472 0.519-0.563 1.248-0.233 1.859 0.334 0.618 1.004 0.945 1.703 0.833 2.389-0.383 4.799 0.086 6.857 1.299-0.978 1.159-1.669 2.526-1.976 4.012-0.093 0.45 0.048 0.916 0.379 1.247 0.263 0.264 0.613 0.406 0.972 0.406 0.091 0 0.184-0.009 0.275-0.028 1.487-0.308 2.854-0.999 4.012-1.976 1.214 2.059 1.681 4.469 1.3 6.857-0.112 0.701 0.215 1.37 0.833 1.704 0.242 0.133 0.505 0.197 0.766 0.197 0.392 0 0.78-0.146 1.091-0.43 0.133-0.12 0.263-0.245 0.392-0.373 2.315-2.316 3.608-5.875 3.136-9.388 1.412-0.973 2.749-2.074 3.967-3.292 4.526-4.527 7.399-10.519 8.087-16.872 0.049-0.445-0.108-0.886-0.43-1.207s-0.761-0.475-1.207-0.43c-6.353 0.689-12.345 3.562-16.872 8.089-1.198 1.198-2.28 2.512-3.239 3.895zM30.462 1.003c0.139-0.020 0.286 0.036 0.392 0.143s0.158 0.249 0.143 0.393c-0.674 6.216-3.371 11.843-7.8 16.272-1.068 1.068-2.24 2.030-3.465 2.904-0.438-1.802-1.365-3.557-2.893-5.085-0.195-0.195-0.512-0.195-0.707 0s-0.195 0.512 0 0.707c3.469 3.469 4.403 9.712-0.038 14.152-0.117 0.117-0.236 0.23-0.357 0.341-0.304 0.279-0.621 0.143-0.711 0.094-0.19-0.103-0.374-0.332-0.321-0.666 0.451-2.824-0.168-5.684-1.744-8.052-0.009-0.014-0.024-0.021-0.034-0.034-0.009-0.011-0.012-0.024-0.022-0.034-0.012-0.012-0.028-0.017-0.040-0.028-0.030-0.025-0.060-0.047-0.094-0.065-0.023-0.012-0.045-0.021-0.070-0.029-0.038-0.013-0.075-0.021-0.115-0.024-0.023-0.002-0.046-0.002-0.069 0-0.040 0.002-0.078 0.009-0.117 0.021-0.025 0.008-0.047 0.018-0.071 0.029-0.020 0.010-0.042 0.012-0.061 0.025-0.016 0.010-0.024 0.026-0.038 0.038-0.010 0.008-0.023 0.011-0.032 0.021-1.108 1.071-2.49 1.803-3.995 2.114-0.177 0.034-0.293-0.062-0.336-0.106s-0.142-0.165-0.106-0.337c0.311-1.504 1.042-2.886 2.114-3.995 0.013-0.013 0.017-0.030 0.028-0.044 0.008-0.010 0.021-0.015 0.029-0.026 0.011-0.017 0.013-0.036 0.022-0.053 0.015-0.029 0.027-0.058 0.036-0.089 0.009-0.032 0.014-0.063 0.017-0.096 0.003-0.031 0.003-0.061-0.001-0.093s-0.010-0.062-0.020-0.093c-0.009-0.030-0.021-0.058-0.036-0.087-0.016-0.029-0.035-0.055-0.056-0.082-0.012-0.014-0.017-0.032-0.031-0.045-0.012-0.011-0.027-0.015-0.039-0.025s-0.019-0.023-0.032-0.032c-2.367-1.574-5.227-2.194-8.050-1.744-0.336 0.058-0.563-0.13-0.666-0.32-0.048-0.090-0.185-0.405 0.093-0.711 0.11-0.121 0.223-0.239 0.34-0.356 2.313-2.314 5.623-3.402 8.863-2.903 0.006 0.001 0.010-0.003 0.015-0.003 0.003 0 0.007 0 0.010 0 0.008 0 0.015 0.003 0.022 0.004 0.056 0.006 0.112 0.008 0.167-0.005 0.025-0.006 0.047-0.018 0.071-0.027 0.035-0.014 0.070-0.025 0.101-0.047 0.030-0.021 0.052-0.048 0.076-0.075 0.017-0.019 0.039-0.031 0.054-0.053 0.964-1.424 2.076-2.768 3.302-3.994 4.366-4.366 10.144-7.136 16.272-7.8zM22.14 12.859c0.801 0 1.555-0.312 2.122-0.878 1.169-1.17 1.169-3.073 0-4.243-1.134-1.133-3.11-1.133-4.243 0-1.17 1.17-1.17 3.073 0 4.243 0.566 0.567 1.32 0.878 2.121 0.878zM20.726 8.445c0.378-0.378 0.88-0.586 1.414-0.586s1.037 0.208 1.415 0.586c0.779 0.78 0.779 2.049 0 2.829-0.756 0.754-2.074 0.754-2.829 0-0.78-0.78-0.78-2.048 0-2.829zM5.442 25.851l-1.659 1.66c-0.195 0.195-0.195 0.512 0 0.707 0.098 0.098 0.226 0.146 0.354 0.146s0.256-0.049 0.354-0.146l1.659-1.66c0.195-0.195 0.195-0.512 0-0.707s-0.513-0.196-0.708 0zM5.438 20.862l-4.152 4.151c-0.195 0.195-0.195 0.512 0 0.707 0.098 0.098 0.226 0.146 0.354 0.146s0.256-0.049 0.354-0.146l4.152-4.151c0.195-0.195 0.195-0.512 0-0.707s-0.513-0.195-0.708 0zM6.172 30.606c0.098 0.098 0.226 0.146 0.354 0.146s0.256-0.049 0.354-0.146l4.152-4.151c0.195-0.195 0.195-0.512 0-0.707s-0.512-0.195-0.707 0l-4.152 4.151c-0.196 0.196-0.196 0.512-0.001 0.707z"></path>
</svg>
