<!-- Generated by IcoMoon.io -->
<svg version="1.1" xmlns="http://www.w3.org/2000/svg" width="32" height="32" viewBox="0 0 32 32">
<title>rocket1</title>
<path d="M15.537 9.612l8.61-8.612h6.853v6.853l-8.612 8.61c-0.195 0.195-0.195 0.512 0 0.707 0.098 0.098 0.226 0.146 0.354 0.146s0.256-0.049 0.354-0.146l8.758-8.756c0.093-0.094 0.146-0.221 0.146-0.354v-7.56c0-0.276-0.224-0.5-0.5-0.5h-7.56c-0.133 0-0.26 0.053-0.354 0.146l-8.756 8.759c-0.195 0.195-0.195 0.512 0 0.707s0.512 0.195 0.707 0zM16.959 28.646c0.095 0.095 0.222 0.146 0.354 0.146 0.037 0 0.074-0.004 0.11-0.012 0.167-0.038 0.304-0.159 0.361-0.32l3.336-9.382c0.092-0.26-0.043-0.546-0.304-0.639-0.261-0.094-0.546 0.043-0.639 0.304l-3.071 8.637-5.808-5.808 5.59-5.777c0.192-0.198 0.187-0.515-0.012-0.707s-0.515-0.188-0.707 0.012l-5.579 5.765-5.97-5.972 8.638-3.071c0.26-0.093 0.396-0.378 0.304-0.639s-0.379-0.396-0.639-0.304l-9.383 3.337c-0.162 0.058-0.283 0.194-0.32 0.361s0.013 0.342 0.134 0.463l13.605 13.606zM0.5 32c0.069 0 0.138-0.014 0.203-0.043l9.645-4.289c0.252-0.112 0.366-0.408 0.254-0.66s-0.408-0.365-0.66-0.254l-8.456 3.76 3.761-8.455c0.112-0.252-0.001-0.548-0.254-0.66-0.252-0.112-0.547 0.001-0.66 0.254l-4.29 9.644c-0.084 0.189-0.043 0.41 0.104 0.557 0.095 0.095 0.223 0.146 0.353 0.146zM28.596 5.389c0-1.161-0.944-2.105-2.105-2.105s-2.105 0.944-2.105 2.105c0 1.161 0.944 2.105 2.105 2.105s2.105-0.944 2.105-2.105zM25.385 5.389c0-0.609 0.496-1.105 1.105-1.105s1.105 0.496 1.105 1.105-0.495 1.106-1.104 1.106-1.106-0.496-1.106-1.106z"></path>
</svg>
