<!-- Generated by IcoMoon.io -->
<svg version="1.1" xmlns="http://www.w3.org/2000/svg" width="32" height="32" viewBox="0 0 32 32">
<title>rss</title>
<path d="M16-0.035c-8.841 0-16.035 7.194-16.035 16.035s7.194 16.035 16.035 16.035 16.035-7.194 16.035-16.035-7.194-16.035-16.035-16.035zM16 30.965c-8.252 0-14.965-6.713-14.965-14.965s6.713-14.965 14.965-14.965 14.965 6.713 14.965 14.965-6.713 14.965-14.965 14.965zM11.999 18.881c-1.121 0-2.034 0.914-2.034 2.036 0 1.121 0.913 2.033 2.034 2.033 1.123 0 2.036-0.912 2.036-2.034s-0.914-2.035-2.036-2.035zM11.999 21.881c-0.532 0-0.964-0.432-0.964-0.964 0-0.533 0.433-0.967 0.964-0.967 0.533 0 0.966 0.434 0.966 0.967s-0.433 0.964-0.966 0.964zM10.501 13.951c-0.295 0-0.535 0.239-0.535 0.535s0.239 0.535 0.535 0.535c2.253 0 4.14 0.697 5.455 2.015 1.314 1.318 2.009 3.208 2.009 5.465 0 0.295 0.239 0.534 0.535 0.535 0.295 0 0.535-0.239 0.535-0.535 0-2.546-0.802-4.697-2.322-6.22-1.52-1.525-3.668-2.33-6.212-2.33zM10.505 9.027c-0.295 0-0.535 0.239-0.535 0.535s0.239 0.535 0.535 0.535c7.139 0 12.523 5.333 12.523 12.404 0 0.295 0.239 0.535 0.535 0.535s0.535-0.239 0.535-0.535c-0.001-7.682-5.845-13.474-13.593-13.474z"></path>
</svg>
