<!-- Generated by IcoMoon.io -->
<svg version="1.1" xmlns="http://www.w3.org/2000/svg" width="44" height="32" viewBox="0 0 44 32">
<title>safety-cap</title>
<path d="M42.5 22h-2.033c0.019-0.052 0.033-0.107 0.033-0.166 0-8.315-5.535-15.573-13.5-17.803v-2.531c0-0.827-0.673-1.5-1.5-1.5h-8c-0.827 0-1.5 0.673-1.5 1.5v2.841c-7.49 2.564-12.5 9.542-12.5 17.493 0 0.059 0.015 0.114 0.033 0.166h-2.033c-0.827 0-1.5 0.673-1.5 1.5v7c0 0.827 0.673 1.5 1.5 1.5h41c0.827 0 1.5-0.673 1.5-1.5v-7c0-0.827-0.673-1.5-1.5-1.5zM4.5 21.834c0-7.406 4.597-13.915 11.5-16.43v0.596c0 0.276 0.224 0.5 0.5 0.5s0.5-0.224 0.5-0.5v-4.5c0-0.276 0.225-0.5 0.5-0.5h3.5v5c0 0.276 0.224 0.5 0.5 0.5s0.5-0.224 0.5-0.5v-5h3.5c0.275 0 0.5 0.224 0.5 0.5v4.5c0 0.276 0.224 0.5 0.5 0.5s0.5-0.224 0.5-0.5v-0.925c7.389 2.198 12.5 8.989 12.5 16.759 0 0.059 0.015 0.114 0.033 0.166h-35.066c0.018-0.052 0.033-0.107 0.033-0.166zM43 30.5c0 0.276-0.225 0.5-0.5 0.5h-41c-0.275 0-0.5-0.224-0.5-0.5v-7c0-0.276 0.225-0.5 0.5-0.5h41c0.275 0 0.5 0.224 0.5 0.5v7z"></path>
</svg>
