<!-- Generated by IcoMoon.io -->
<svg version="1.1" xmlns="http://www.w3.org/2000/svg" width="32" height="32" viewBox="0 0 32 32">
<title>safety-kit</title>
<path d="M32 16c0-1.285-0.96-2.695-2.298-2.948-1.053-5.365-5.203-9.431-10.724-10.512-0.116-1.463-1.617-2.54-2.978-2.54s-2.862 1.077-2.978 2.54c-5.448 1.069-9.413 5.034-10.482 10.482-1.463 0.116-2.54 1.617-2.54 2.978s1.077 2.862 2.54 2.978c1.067 5.448 5.032 9.413 10.482 10.482 0.116 1.463 1.617 2.54 2.978 2.54 1.285 0 2.695-0.96 2.948-2.298 5.436-1.067 9.69-5.32 10.755-10.755 1.337-0.252 2.297-1.662 2.297-2.947zM31 16c0 0.925-0.749 2-1.715 2h-6.037c0.176-0.638 0.278-1.307 0.278-2s-0.102-1.362-0.278-2h6.037c0.966 0 1.715 1.075 1.715 2zM16 22.526c-3.599 0-6.526-2.928-6.526-6.526s2.927-6.526 6.526-6.526 6.526 2.928 6.526 6.526-2.927 6.526-6.526 6.526zM28.67 13h-5.67c-0.033 0-0.061 0.013-0.092 0.019-0.761-1.756-2.171-3.166-3.926-3.926 0.005-0.032 0.018-0.060 0.018-0.093v-5.435c4.926 1.046 8.634 4.664 9.67 9.435zM16 1c0.925 0 2 0.749 2 1.715v6.037c-0.638-0.176-1.307-0.278-2-0.278s-1.362 0.102-2 0.278v-6.037c0-0.966 1.075-1.715 2-1.715zM13 3.565v5.435c0 0.033 0.013 0.061 0.019 0.092-1.756 0.761-3.166 2.171-3.926 3.926-0.032-0.005-0.060-0.018-0.093-0.018h-5.435c1.035-4.856 4.579-8.4 9.435-9.435zM1 16c0-0.925 0.749-2 1.715-2h6.037c-0.176 0.638-0.278 1.307-0.278 2s0.102 1.362 0.278 2h-6.037c-0.966 0-1.715-1.075-1.715-2zM3.565 19h5.435c0.033 0 0.061-0.013 0.092-0.019 0.761 1.756 2.171 3.166 3.926 3.926-0.005 0.032-0.018 0.060-0.018 0.093v5.435c-4.857-1.035-8.401-4.579-9.435-9.435zM16 31c-0.925 0-2-0.749-2-1.715v-6.037c0.638 0.176 1.307 0.278 2 0.278s1.362-0.102 2-0.278v6.037c0 0.966-1.075 1.715-2 1.715zM19 28.67v-5.67c0-0.033-0.013-0.061-0.019-0.092 1.756-0.761 3.166-2.171 3.926-3.926 0.032 0.005 0.060 0.018 0.093 0.018h5.67c-1.048 4.837-4.831 8.622-9.67 9.67z"></path>
</svg>
