<!-- Generated by IcoMoon.io -->
<svg version="1.1" xmlns="http://www.w3.org/2000/svg" width="26" height="32" viewBox="0 0 26 32">
<title>sand-watch</title>
<path d="M2.5 24.226v6.774h-2c-0.276 0-0.5 0.224-0.5 0.5s0.224 0.5 0.5 0.5h25c0.276 0 0.5-0.224 0.5-0.5s-0.224-0.5-0.5-0.5h-2v-6.774c0-3.781-2.128-7.187-5.507-8.951 3.379-1.765 5.507-5.171 5.507-8.952v-5.323h2c0.276 0 0.5-0.224 0.5-0.5s-0.224-0.5-0.5-0.5h-25c-0.276 0-0.5 0.224-0.5 0.5s0.224 0.5 0.5 0.5h2v5.323c0 3.78 2.128 7.187 5.507 8.952-3.379 1.764-5.507 5.17-5.507 8.951zM5.676 31c0-6 6.634-7.744 7.432-7.906 0.775 0.092 6.968 0.853 7.514 7.906h-14.946zM13.007 12.975c-2.966-1.022-4.268-2.966-4.764-3.975h9.525c-1.238 2.693-4.101 3.76-4.761 3.975zM9.39 15.739c0.19-0.076 0.315-0.26 0.315-0.465s-0.124-0.389-0.315-0.464c-3.578-1.422-5.89-4.754-5.89-8.487v-5.323h19v5.323c0 3.733-2.312 7.065-5.89 8.487-0.19 0.076-0.315 0.26-0.315 0.465s0.125 0.389 0.315 0.465c3.578 1.421 5.89 4.752 5.89 8.486v6.774h-0.883c-0.546-7.174-6.783-8.546-8.186-8.761 0.040-0.072 0.069-0.15 0.069-0.239v-8c0-0.045-0.014-0.085-0.025-0.126 1.076-0.367 4.368-1.75 5.5-5.219 0.050-0.152 0.024-0.319-0.070-0.449s-0.245-0.206-0.405-0.206h-11c-0.157 0-0.305 0.074-0.399 0.199s-0.125 0.288-0.081 0.439c0.043 0.151 1.102 3.627 5.509 5.22-0.014 0.046-0.029 0.092-0.029 0.142v8c0 0.016 0.008 0.030 0.009 0.046-1.769 0.563-7.833 2.943-7.833 8.954h-1.176v-6.774c0-3.734 2.312-7.065 5.89-8.487z"></path>
</svg>
