<!-- Generated by IcoMoon.io -->
<svg version="1.1" xmlns="http://www.w3.org/2000/svg" width="33" height="32" viewBox="0 0 33 32">
<title>scale</title>
<path d="M12.5 31c-0.276 0-0.5 0.224-0.5 0.5s0.224 0.5 0.5 0.5h7c0.276 0 0.5-0.224 0.5-0.5s-0.224-0.5-0.5-0.5h-7zM4.648 6.995l-3.876 12.355c-0.008 0.026-0.004 0.052-0.008 0.079-0.003 0.024-0.014 0.046-0.014 0.071 0 0.012 0.003 0.023 0.003 0.035 0.001 0.009 0.001 0.017 0.003 0.026 0.032 2.493 1.991 4.439 4.494 4.439s4.462-1.946 4.494-4.439c0.001-0.009 0.002-0.017 0.003-0.026 0-0.012 0.003-0.023 0.003-0.034 0-0.025-0.011-0.047-0.014-0.071-0.004-0.026 0-0.053-0.008-0.079l-3.92-12.495 9.692-1.364v23.508h-2c-0.276 0-0.5 0.224-0.5 0.5s0.224 0.5 0.5 0.5h5c0.276 0 0.5-0.224 0.5-0.5s-0.224-0.5-0.5-0.5h-2v-23.456l11.187 1.329-3.915 12.477c-0.008 0.026-0.004 0.052-0.008 0.079-0.004 0.024-0.014 0.046-0.014 0.071 0 0.012 0.003 0.023 0.003 0.035 0.001 0.009 0.001 0.017 0.003 0.026 0.032 2.493 1.991 4.439 4.494 4.439s4.462-1.946 4.494-4.439c0.001-0.009 0.002-0.017 0.003-0.026 0-0.012 0.003-0.023 0.003-0.034 0-0.025-0.011-0.047-0.014-0.071-0.004-0.026 0-0.053-0.008-0.079l-3.875-12.351h2.647c0.276 0 0.5-0.224 0.5-0.5s-0.224-0.5-0.5-0.5l-2.69 0.003-12.31-1.466v-3.537c0-0.276-0.224-0.5-0.5-0.5s-0.5 0.224-0.5 0.5v3.482l-10.75 1.518h-4.25c-0.276 0-0.5 0.224-0.5 0.5s0.224 0.5 0.5 0.5l4.148-0.005zM28.25 8.42l3.319 10.58h-6.637l3.318-10.58zM28.25 23c-1.793 0-3.23-1.282-3.466-3h6.932c-0.236 1.718-1.673 3-3.466 3zM5.25 23c-1.793 0-3.23-1.282-3.466-3h6.932c-0.236 1.718-1.673 3-3.466 3zM1.931 19l3.319-10.58 3.319 10.58h-6.638z"></path>
</svg>
