<!-- Generated by IcoMoon.io -->
<svg version="1.1" xmlns="http://www.w3.org/2000/svg" width="32" height="32" viewBox="0 0 32 32">
<title>scanner</title>
<path d="M4.5 2c-0.827 0-1.5 0.673-1.5 1.5v6.5c0 0.276 0.224 0.5 0.5 0.5s0.5-0.224 0.5-0.5v-6.5c0-0.276 0.225-0.5 0.5-0.5h5.5c0.276 0 0.5-0.224 0.5-0.5s-0.224-0.5-0.5-0.5h-5.5zM29.5 30c0.827 0 1.5-0.673 1.5-1.5v-5.5c0-0.276-0.224-0.5-0.5-0.5s-0.5 0.224-0.5 0.5v5.5c0 0.276-0.225 0.5-0.5 0.5h-6.5c-0.276 0-0.5 0.224-0.5 0.5s0.224 0.5 0.5 0.5h6.5zM3.5 21.5c-0.276 0-0.5 0.224-0.5 0.5v6.5c0 0.827 0.673 1.5 1.5 1.5h5.5c0.276 0 0.5-0.224 0.5-0.5s-0.224-0.5-0.5-0.5h-5.5c-0.275 0-0.5-0.224-0.5-0.5v-6.5c0-0.276-0.224-0.5-0.5-0.5zM30.5 10.5c0.276 0 0.5-0.224 0.5-0.5v-6.5c0-0.827-0.673-1.5-1.5-1.5h-5.5c-0.276 0-0.5 0.224-0.5 0.5s0.224 0.5 0.5 0.5h5.5c0.275 0 0.5 0.224 0.5 0.5v6.5c0 0.276 0.224 0.5 0.5 0.5zM32 16h-31c-0.276 0-0.5 0.224-0.5 0.5s0.224 0.5 0.5 0.5h31c0.276 0 0.5-0.224 0.5-0.5s-0.224-0.5-0.5-0.5z"></path>
</svg>
