<!-- Generated by IcoMoon.io -->
<svg version="1.1" xmlns="http://www.w3.org/2000/svg" width="35" height="32" viewBox="0 0 35 32">
<title>scissor</title>
<path d="M5.299 11.619c-2.81 0-5.096-2.286-5.096-5.095s2.286-5.096 5.096-5.096 5.096 2.286 5.096 5.096-2.287 5.095-5.096 5.095zM5.299 2.428c-2.259 0-4.096 1.837-4.096 4.096s1.837 4.095 4.096 4.095 4.096-1.837 4.096-4.095-1.837-4.096-4.096-4.096zM5.299 28.639c-2.81 0-5.096-2.286-5.096-5.096s2.286-5.095 5.096-5.095 5.096 2.286 5.096 5.095-2.287 5.096-5.096 5.096zM5.299 19.448c-2.259 0-4.096 1.837-4.096 4.095s1.837 4.096 4.096 4.096 4.096-1.837 4.096-4.096-1.837-4.095-4.096-4.095zM33.313 31.938c-0.031 0-0.063-0.001-0.096-0.003-1.889-0.117-4.669-0.645-7.189-2.494-4.312-3.163-11.033-9.008-11.101-9.066-0.102-0.087-2.564-2.232-3.12-5.509-0.357-2.11-1.781-3.733-1.796-3.75-0.184-0.207-0.164-0.522 0.042-0.706s0.522-0.165 0.706 0.042c0.066 0.075 1.629 1.857 2.034 4.247 0.493 2.911 2.765 4.9 2.788 4.92 0.069 0.060 6.759 5.878 11.038 9.016 2.325 1.706 4.905 2.193 6.66 2.302 0.298 0.026 0.443-0.224 0.475-0.299 0.067-0.162 0.069-0.398-0.128-0.574l-16.328-14.56c-0.206-0.184-0.224-0.5-0.040-0.706s0.498-0.225 0.706-0.040l16.328 14.56c0.485 0.433 0.636 1.103 0.385 1.705-0.235 0.563-0.764 0.915-1.364 0.915zM20.32 14.751c-0.138 0-0.274-0.057-0.373-0.167-0.184-0.206-0.166-0.522 0.040-0.706l13.393-11.938c0.205-0.183 0.198-0.425 0.123-0.59-0.035-0.077-0.177-0.325-0.506-0.284-2.146 0.273-5.475 1.22-9.151 4.178-6.51 5.235-8.996 7.706-9.021 7.73-0.195 0.195-0.512 0.195-0.707 0s-0.195-0.512 0-0.707c0.101-0.101 2.539-2.524 9.101-7.802 3.859-3.104 7.379-4.101 9.651-4.391 0.664-0.081 1.266 0.254 1.543 0.861 0.28 0.615 0.136 1.302-0.367 1.75l-13.393 11.939c-0.095 0.085-0.215 0.127-0.333 0.127zM8.694 20.866c-0.103 0-0.206-0.031-0.296-0.097-0.223-0.163-0.271-0.476-0.107-0.699l1.781-2.432c0.163-0.223 0.476-0.271 0.699-0.108s0.271 0.476 0.107 0.699l-1.781 2.432c-0.097 0.134-0.249 0.205-0.403 0.205z"></path>
</svg>
