<!-- Generated by IcoMoon.io -->
<svg version="1.1" xmlns="http://www.w3.org/2000/svg" width="32" height="32" viewBox="0 0 32 32">
<title>screen</title>
<path d="M7 17.421c0.104 0 0.209-0.032 0.298-0.1l6.631-4.946 3.023 4.578c0.080 0.121 0.208 0.201 0.352 0.221 0.143 0.021 0.289-0.025 0.397-0.122l7.299-6.463v1.411c0 0.276 0.224 0.5 0.5 0.5s0.5-0.224 0.5-0.5v-2.5c0-0.276-0.224-0.5-0.5-0.5h-2.5c-0.276 0-0.5 0.224-0.5 0.5s0.224 0.5 0.5 0.5h1.157l-6.687 5.922-2.997-4.54c-0.076-0.115-0.196-0.193-0.332-0.217-0.134-0.024-0.275 0.009-0.385 0.092l-7.055 5.264c-0.222 0.165-0.267 0.479-0.102 0.699 0.098 0.132 0.249 0.201 0.401 0.201zM0 4.5c0 1.379 1.122 2.5 2.5 2.5h0.5v16h-1c-0.276 0-0.5 0.224-0.5 0.5s0.224 0.5 0.5 0.5h13v2.166l-11.692 4.872c-0.255 0.106-0.375 0.399-0.269 0.654 0.107 0.256 0.399 0.372 0.654 0.27l11.307-4.712v2.75c0 0.276 0.224 0.5 0.5 0.5s0.5-0.224 0.5-0.5v-2.772l12.32 4.739c0.059 0.022 0.12 0.033 0.18 0.033 0.201 0 0.39-0.122 0.467-0.32 0.099-0.258-0.030-0.547-0.287-0.646l-12.68-4.878v-2.156h14c0.276 0 0.5-0.224 0.5-0.5s-0.224-0.5-0.5-0.5h-1v-16h0.5c1.378 0 2.5-1.121 2.5-2.5s-1.122-2.5-2.5-2.5h-13.5v-1c0-0.276-0.224-0.5-0.5-0.5s-0.5 0.224-0.5 0.5v1h-12.5c-1.378 0-2.5 1.121-2.5 2.5zM28 23h-24v-16h24v16zM2.5 3h27c0.827 0 1.5 0.673 1.5 1.5s-0.673 1.5-1.5 1.5h-27c-0.827 0-1.5-0.673-1.5-1.5s0.673-1.5 1.5-1.5z"></path>
</svg>
