<!-- Generated by IcoMoon.io -->
<svg version="1.1" xmlns="http://www.w3.org/2000/svg" width="31" height="32" viewBox="0 0 31 32">
<title>search</title>
<path d="M13.025 26.614c2.117 0 4.208-0.524 6.070-1.519l5.606 5.766c0.688 0.703 1.608 1.090 2.59 1.090s1.901-0.387 2.59-1.090c1.42-1.448 1.42-3.806 0-5.254l-5.542-5.652c1.157-2.033 1.767-4.331 1.767-6.672 0-7.352-5.868-13.332-13.081-13.332-7.212 0-13.081 5.98-13.081 13.332 0 7.351 5.868 13.331 13.081 13.331zM13.025 0.951c6.661 0 12.081 5.532 12.081 12.332 0 2.293-0.632 4.541-1.828 6.502-0.113 0.185-0.085 0.418 0.055 0.582 0.027 0.031 0.057 0.059 0.090 0.082l5.744 5.857c1.042 1.063 1.042 2.792 0 3.855-0.999 1.018-2.755 1.017-3.75 0.001l-5.875-6.043c-0.103-0.105-0.23-0.163-0.358-0.163-0.095 0-0.191 0.032-0.276 0.1-1.787 1.020-3.821 1.558-5.882 1.558-6.661 0-12.081-5.531-12.081-12.331s5.419-12.332 12.080-12.332zM13.025 21.532c4.465 0 8.098-3.7 8.098-8.249s-3.633-8.25-8.098-8.25c-4.465 0-8.098 3.701-8.098 8.25s3.633 8.249 8.098 8.249zM13.025 6.033c3.914 0 7.098 3.252 7.098 7.25 0 3.997-3.184 7.249-7.098 7.249s-7.098-3.252-7.098-7.249c0-3.998 3.184-7.25 7.098-7.25z"></path>
</svg>
