<!-- Generated by IcoMoon.io -->
<svg version="1.1" xmlns="http://www.w3.org/2000/svg" width="35" height="32" viewBox="0 0 35 32">
<title>server</title>
<path d="M17 23.898c-0.276 0-0.5 0.224-0.5 0.5v2.652c-1 0.232-1.75 1.242-1.75 2.449 0 1.378 1.247 2.5 2.625 2.5s2.312-1.122 2.312-2.5c0-1.207-0.188-2.217-2.188-2.449v-2.652c0.001-0.276-0.223-0.5-0.499-0.5zM19 29.5c0 0.827-0.673 1.5-1.5 1.5s-1.5-0.673-1.5-1.5 0.673-1.5 1.5-1.5 1.5 0.673 1.5 1.5zM33 29.5c0-0.276-0.224-0.5-0.5-0.5h-10c-0.276 0-0.5 0.224-0.5 0.5s0.224 0.5 0.5 0.5h10c0.276 0 0.5-0.224 0.5-0.5zM12.5 29h-10c-0.276 0-0.5 0.224-0.5 0.5s0.224 0.5 0.5 0.5h10c0.276 0 0.5-0.224 0.5-0.5s-0.224-0.5-0.5-0.5zM0 4.5c0 2.481 2.087 4.5 4.652 4.5h25.696c2.565 0 4.652-2.019 4.652-4.5s-2.087-4.5-4.652-4.5h-25.696c-2.565 0-4.652 2.019-4.652 4.5zM4.652 1h25.696c2.014 0 3.652 1.57 3.652 3.5s-1.638 3.5-3.652 3.5h-25.696c-2.014 0-3.652-1.57-3.652-3.5s1.638-3.5 3.652-3.5zM4.843 6.589c1.103 0 2-0.897 2-2s-0.897-2-2-2-2 0.897-2 2 0.897 2 2 2zM4.843 3.589c0.551 0 1 0.449 1 1s-0.449 1-1 1-1-0.449-1-1 0.449-1 1-1zM22.049 5h7c0.276 0 0.5-0.224 0.5-0.5s-0.224-0.5-0.5-0.5h-7c-0.276 0-0.5 0.224-0.5 0.5s0.223 0.5 0.5 0.5zM4.652 22h25.696c2.565 0 4.652-2.019 4.652-4.5s-2.087-4.5-4.652-4.5h-25.696c-2.565 0-4.652 2.019-4.652 4.5s2.087 4.5 4.652 4.5zM4.652 14h25.696c2.014 0 3.652 1.57 3.652 3.5s-1.638 3.5-3.652 3.5h-25.696c-2.014 0-3.652-1.57-3.652-3.5s1.638-3.5 3.652-3.5zM4.843 19.437c1.103 0 2-0.897 2-2s-0.897-2-2-2-2 0.897-2 2 0.897 2 2 2zM4.843 16.437c0.551 0 1 0.449 1 1s-0.449 1-1 1-1-0.449-1-1 0.449-1 1-1zM22.049 18h7c0.276 0 0.5-0.224 0.5-0.5s-0.224-0.5-0.5-0.5h-7c-0.276 0-0.5 0.224-0.5 0.5s0.223 0.5 0.5 0.5z"></path>
</svg>
