<!-- Generated by IcoMoon.io -->
<svg version="1.1" xmlns="http://www.w3.org/2000/svg" width="31" height="32" viewBox="0 0 31 32">
<title>share</title>
<path d="M19.711 9.281c0.058-0.028 0.107-0.067 0.149-0.112 0.825 1.337 2.157 2.329 3.736 2.679 0.454 0.101 0.914 0.152 1.368 0.152 1.829 0 3.535-0.819 4.681-2.247s1.572-3.294 1.167-5.12c-0.494-2.229-2.252-3.988-4.481-4.482-2.283-0.507-4.619 0.313-6.048 2.095-1.146 1.429-1.572 3.295-1.167 5.121 0.075 0.338 0.188 0.66 0.318 0.973-0.051 0.007-0.101 0.014-0.15 0.037l-8.159 3.876c-0.053 0.025-0.096 0.062-0.135 0.102-0.838-1.223-2.112-2.135-3.585-2.462-2.281-0.501-4.618 0.314-6.048 2.096-1.146 1.428-1.572 3.294-1.167 5.12 0.497 2.243 2.35 4.055 4.611 4.509 0.411 0.083 0.827 0.125 1.238 0.125 1.959 0 3.785-0.973 4.902-2.559 0.040 0.054 0.091 0.101 0.152 0.136l7.371 4.198c-0.537 1.184-0.686 2.526-0.393 3.85 0.494 2.228 2.253 3.987 4.482 4.481 0.451 0.1 0.911 0.151 1.365 0.151 1.829 0 3.535-0.819 4.681-2.247s1.572-3.294 1.167-5.12c-0.494-2.229-2.252-3.988-4.481-4.482-2.284-0.508-4.619 0.312-6.048 2.095-0.103 0.128-0.193 0.264-0.284 0.399l-7.366-4.195c-0.059-0.034-0.123-0.054-0.187-0.062 0.583-1.178 0.779-2.486 0.526-3.818-0.093-0.488-0.259-0.951-0.468-1.392 0.032-0.008 0.065-0.007 0.095-0.022l8.158-3.875zM21.062 2.873c0.956-1.19 2.377-1.873 3.901-1.873 0.381 0 0.768 0.043 1.15 0.128 1.823 0.404 3.318 1.899 3.722 3.722 0.339 1.528-0.015 3.087-0.97 4.277-1.194 1.488-3.141 2.169-5.052 1.745-1.823-0.404-3.318-1.899-3.722-3.722-0.339-1.527 0.015-3.087 0.971-4.277zM20.016 22.873c0.956-1.19 2.378-1.873 3.901-1.873 0.381 0 0.768 0.043 1.15 0.128 1.823 0.404 3.318 1.899 3.722 3.722 0.339 1.528-0.015 3.087-0.97 4.277-1.194 1.488-3.14 2.169-5.052 1.745-1.823-0.404-3.318-1.899-3.722-3.722-0.338-1.527 0.016-3.087 0.971-4.277zM4.996 20.638c-1.879-0.377-3.418-1.882-3.831-3.745-0.339-1.528 0.015-3.087 0.97-4.277s2.377-1.873 3.902-1.873c0.381 0 0.768 0.043 1.15 0.128 1.885 0.418 3.394 1.98 3.756 3.887 0.231 1.219 0.036 2.417-0.564 3.466-1.062 1.853-3.243 2.84-5.383 2.414z"></path>
</svg>
