<!-- Generated by IcoMoon.io -->
<svg version="1.1" xmlns="http://www.w3.org/2000/svg" width="30" height="32" viewBox="0 0 30 32">
<title>shield</title>
<path d="M14.898 8.269c-4.149 0-7.524 3.375-7.524 7.524 0 4.148 3.375 7.523 7.524 7.523 4.148 0 7.523-3.375 7.523-7.523 0-4.149-3.375-7.524-7.523-7.524zM14.898 22.316c-3.597 0-6.524-2.926-6.524-6.523s2.927-6.524 6.524-6.524 6.523 2.927 6.523 6.524-2.926 6.523-6.523 6.523zM26.239 24.755c2.531-2.96 3.761-5.885 3.761-8.946v-15.274c0-0.201-0.12-0.382-0.305-0.46-0.184-0.077-0.398-0.039-0.542 0.101-2.001 1.933-4.58 2.998-7.26 2.998-2.391 0-4.772-0.88-6.531-2.414-0.188-0.164-0.469-0.164-0.657 0-1.758 1.534-4.16 2.414-6.591 2.414-3.81 0-7.247-3.016-7.281-3.047-0.147-0.13-0.358-0.162-0.537-0.083-0.18 0.081-0.296 0.259-0.296 0.456v15.309c0 4.603 2.541 8.863 7.349 12.319 3.589 2.581 7.123 3.795 7.271 3.845 0.052 0.018 0.107 0.027 0.161 0.027 0.051 0 0.102-0.008 0.15-0.023 0.287-0.091 7.074-2.274 11.308-7.222zM14.787 30.971c-1.53-0.563-13.787-5.389-13.787-15.162v-14.277c1.322 0.965 4.060 2.641 7.113 2.641 2.521 0 5.018-0.865 6.919-2.386 1.901 1.521 4.376 2.386 6.86 2.386 2.575 0 5.060-0.892 7.107-2.532v14.168c0 2.812-1.152 5.525-3.521 8.295-3.699 4.325-9.653 6.51-10.691 6.867zM17.39 12.993l-3.371 3.805-1.593-2.057c-0.169-0.219-0.483-0.263-0.701-0.094s-0.258 0.472-0.089 0.691l1.962 2.51c0.092 0.118 0.231 0.152 0.38 0.152 0.005 0 0.011 0 0.016 0 0.143 0 0.279-0.019 0.375-0.127l3.771-4.216c0.183-0.207 0.164-0.523-0.043-0.706-0.206-0.182-0.522-0.164-0.707 0.042z"></path>
</svg>
