<!-- Generated by IcoMoon.io -->
<svg version="1.1" xmlns="http://www.w3.org/2000/svg" width="23" height="32" viewBox="0 0 23 32">
<title>shopping-bag1</title>
<path d="M1.5 32h20c0.827 0 1.5-0.673 1.5-1.5v-20c0-0.827-0.673-1.5-1.5-1.5h-2.5c-0.276 0-0.5 0.224-0.5 0.5s0.224 0.5 0.5 0.5h2.5c0.275 0 0.5 0.224 0.5 0.5v20c0 0.276-0.225 0.5-0.5 0.5h-20c-0.275 0-0.5-0.224-0.5-0.5v-20c0-0.276 0.225-0.5 0.5-0.5h2.5c0.276 0 0.5-0.224 0.5-0.5s-0.224-0.5-0.5-0.5h-2.5c-0.827 0-1.5 0.673-1.5 1.5v20c0 0.827 0.673 1.5 1.5 1.5zM6.5 13.5c0.276 0 0.5-0.224 0.5-0.5v-7.236c0-2.627 2.019-4.764 4.5-4.764s4.5 2.137 4.5 4.764v7.236c0 0.276 0.224 0.5 0.5 0.5s0.5-0.224 0.5-0.5v-7.236c0-3.178-2.468-5.764-5.5-5.764s-5.5 2.586-5.5 5.764v7.236c0 0.276 0.224 0.5 0.5 0.5zM9 9c-0.276 0-0.5 0.224-0.5 0.5s0.224 0.5 0.5 0.5h5c0.276 0 0.5-0.224 0.5-0.5s-0.224-0.5-0.5-0.5h-5z"></path>
</svg>
