<!-- Generated by IcoMoon.io -->
<svg version="1.1" xmlns="http://www.w3.org/2000/svg" width="36" height="32" viewBox="0 0 36 32">
<title>shopping-cart-emply</title>
<path d="M35.5 9h-20.5c-0.276 0-0.5 0.224-0.5 0.5s0.224 0.5 0.5 0.5h19.898l-2.228 12h-20.927l-5.933-21.632c-0.060-0.218-0.257-0.368-0.483-0.368h-4.327c-0.276 0-0.5 0.224-0.5 0.5s0.224 0.5 0.5 0.5h3.946l5.934 21.632c0.059 0.218 0.257 0.368 0.482 0.368h21.724c0.241 0 0.447-0.172 0.491-0.409l2.414-13c0.027-0.146-0.012-0.296-0.106-0.41-0.096-0.115-0.237-0.181-0.385-0.181zM16.712 29.115c0-1.591-1.294-2.885-2.885-2.885s-2.885 1.294-2.885 2.885 1.294 2.885 2.885 2.885 2.885-1.294 2.885-2.885zM11.942 29.115c0-1.039 0.846-1.885 1.885-1.885s1.885 0.846 1.885 1.885-0.846 1.885-1.885 1.885-1.885-0.846-1.885-1.885zM29.327 26.23c-1.591 0-2.885 1.294-2.885 2.885s1.294 2.885 2.885 2.885 2.885-1.294 2.885-2.885-1.294-2.885-2.885-2.885zM29.327 31c-1.039 0-1.885-0.846-1.885-1.885s0.846-1.885 1.885-1.885 1.885 0.846 1.885 1.885-0.846 1.885-1.885 1.885zM19 19v-6c0-0.276-0.224-0.5-0.5-0.5s-0.5 0.224-0.5 0.5v6c0 0.276 0.224 0.5 0.5 0.5s0.5-0.224 0.5-0.5zM26 19v-6c0-0.276-0.224-0.5-0.5-0.5s-0.5 0.224-0.5 0.5v6c0 0.276 0.224 0.5 0.5 0.5s0.5-0.224 0.5-0.5z"></path>
</svg>
