<!-- Generated by IcoMoon.io -->
<svg version="1.1" xmlns="http://www.w3.org/2000/svg" width="32" height="32" viewBox="0 0 32 32">
<title>shopping-bag4</title>
<path d="M1.683 32h28.635c0.442 0 0.86-0.194 1.146-0.531 0.286-0.338 0.407-0.782 0.334-1.218l-3.538-21c-0.123-0.725-0.745-1.251-1.481-1.251h-4.779v-2c0-3.309-2.691-6-6-6s-6 2.691-6 6v2h-4.779c-0.736 0-1.358 0.526-1.48 1.251l-3.538 21c-0.073 0.436 0.048 0.88 0.334 1.218 0.286 0.337 0.703 0.531 1.146 0.531zM11 6c0-2.757 2.243-5 5-5s5 2.243 5 5v2h-10v-2zM4.728 9.417c0.040-0.242 0.248-0.417 0.493-0.417h4.779v4c0 0.276 0.224 0.5 0.5 0.5s0.5-0.224 0.5-0.5v-4h10v4c0 0.276 0.224 0.5 0.5 0.5s0.5-0.224 0.5-0.5v-4h4.779c0.245 0 0.453 0.175 0.493 0.417l3.538 21c0.025 0.147-0.015 0.292-0.111 0.406s-0.232 0.177-0.382 0.177h-28.634c-0.149 0-0.285-0.063-0.382-0.177s-0.136-0.258-0.111-0.406l3.538-21z"></path>
</svg>
