<!-- Generated by IcoMoon.io -->
<svg version="1.1" xmlns="http://www.w3.org/2000/svg" width="27" height="32" viewBox="0 0 27 32">
<title>shopping-bag3</title>
<path d="M0 30.5c0 0.827 0.673 1.5 1.5 1.5h24c0.827 0 1.5-0.673 1.5-1.5v-25c0-0.148-0.067-0.278-0.169-0.369l-3.355-4.192c-0.477-0.597-1.189-0.939-1.952-0.939h-16.069c-0.764 0-1.475 0.342-1.952 0.938l-3.399 4.25c-0.014 0.017-0.014 0.039-0.025 0.058-0.025 0.041-0.042 0.084-0.054 0.131-0.009 0.036-0.020 0.067-0.021 0.104-0.001 0.007-0.004 0.012-0.004 0.019v25zM26 30.5c0 0.275-0.224 0.5-0.5 0.5h-24c-0.276 0-0.5-0.225-0.5-0.5v-24.5h25v24.5zM4.284 1.563c0.286-0.358 0.713-0.563 1.171-0.563h16.069c0.458 0 0.885 0.205 1.171 0.563l2.75 3.437h-23.91l2.749-3.437zM13.001 17c0.008 0 0.017 0 0.025 0 0.021 0 0.042 0 0.062 0 0.008 0 0.017 0 0.025 0 2.838 0 4.887-2.070 4.887-4.854v-2.146c0-0.276-0.224-0.5-0.5-0.5s-0.5 0.224-0.5 0.5v2.146c0 2.259-1.62 3.84-3.942 3.854-2.353-0.015-4.058-1.631-4.058-3.854v-2.146c0-0.276-0.224-0.5-0.5-0.5s-0.5 0.224-0.5 0.5v2.146c0 2.74 2.144 4.854 5.001 4.854z"></path>
</svg>
