<!-- Generated by IcoMoon.io -->
<svg version="1.1" xmlns="http://www.w3.org/2000/svg" width="31" height="32" viewBox="0 0 31 32">
<title>shopping-bag2</title>
<path d="M15.5 0c-3.309 0-6 2.697-6 6.014v1.986h-4.553c-0.726 0-1.34 0.523-1.459 1.246l-3.467 21.020c-0.072 0.435 0.050 0.877 0.335 1.213 0.281 0.331 0.69 0.521 1.123 0.521h28.041c0.433 0 0.843-0.19 1.124-0.521 0.285-0.336 0.407-0.778 0.335-1.213l-3.467-21.021c-0.119-0.722-0.733-1.245-1.459-1.245h-4.553v-1.986c0-3.317-2.691-6.014-6-6.014zM26.053 9c0.234 0 0.433 0.172 0.473 0.408l3.467 21.020c0.024 0.146-0.017 0.292-0.111 0.403-0.053 0.064-0.172 0.169-0.361 0.169h-28.042c-0.19 0-0.308-0.105-0.362-0.169-0.094-0.111-0.135-0.258-0.111-0.403l3.468-21.019c0.040-0.237 0.238-0.409 0.473-0.409h4.553v4.5c0 0.276 0.224 0.5 0.5 0.5s0.5-0.224 0.5-0.5v-7.486c0-2.765 2.243-5.014 5-5.014s5 2.249 5 5.014v7.486c0 0.276 0.224 0.5 0.5 0.5s0.5-0.224 0.5-0.5v-4.5h4.553zM18.5 8h-6c-0.276 0-0.5 0.224-0.5 0.5s0.224 0.5 0.5 0.5h6c0.276 0 0.5-0.224 0.5-0.5s-0.224-0.5-0.5-0.5z"></path>
</svg>
