<!-- Generated by IcoMoon.io -->
<svg version="1.1" xmlns="http://www.w3.org/2000/svg" width="35" height="32" viewBox="0 0 35 32">
<title>shopping-cart-full</title>
<path d="M33.225 9h-18.725c-0.276 0-0.5 0.224-0.5 0.5s0.224 0.5 0.5 0.5h18.725c0.196 0 0.319 0.113 0.376 0.181 0.102 0.122 0.144 0.279 0.116 0.433l-1.932 10.802c-0.053 0.283-0.306 0.584-0.493 0.584h-19.072c-0.121 0-0.391-0.275-0.481-0.602l-5.335-19.332c-0.176-0.637-0.758-1.066-1.446-1.066h-4.458c-0.276 0-0.5 0.224-0.5 0.5s0.224 0.5 0.5 0.5h4.458c0.237 0 0.426 0.131 0.482 0.332l5.335 19.333c0.18 0.647 0.747 1.335 1.445 1.335h19.072c0.764 0 1.35-0.715 1.476-1.407l1.932-10.802c0.081-0.444-0.040-0.9-0.332-1.251-0.286-0.343-0.703-0.54-1.143-0.54zM13.756 26.268c-1.542 0-2.796 1.254-2.796 2.796s1.254 2.796 2.796 2.796 2.796-1.254 2.796-2.796-1.254-2.796-2.796-2.796zM13.756 30.859c-0.991 0-1.796-0.806-1.796-1.796s0.806-1.796 1.796-1.796 1.796 0.806 1.796 1.796-0.805 1.796-1.796 1.796zM28.682 26.268c-1.542 0-2.796 1.254-2.796 2.796s1.254 2.796 2.796 2.796c1.542 0 2.796-1.254 2.796-2.796s-1.254-2.796-2.796-2.796zM28.682 30.859c-0.99 0-1.796-0.806-1.796-1.796s0.806-1.796 1.796-1.796c0.991 0 1.796 0.806 1.796 1.796s-0.805 1.796-1.796 1.796zM18.5 19v-6c0-0.276-0.224-0.5-0.5-0.5s-0.5 0.224-0.5 0.5v6c0 0.276 0.224 0.5 0.5 0.5s0.5-0.224 0.5-0.5zM25.5 19v-6c0-0.276-0.224-0.5-0.5-0.5s-0.5 0.224-0.5 0.5v6c0 0.276 0.224 0.5 0.5 0.5s0.5-0.224 0.5-0.5zM32 6.5c0.276 0 0.5-0.224 0.5-0.5v-2.563c0-0.723-0.416-1.294-1.057-1.454l-7.108-1.797c-0.444-0.11-0.904-0.016-1.261 0.264-0.196 0.153-0.343 0.351-0.44 0.573l-6.082 2.081c-0.62 0.206-1.052 0.791-1.052 1.421v1.475c0 0.276 0.224 0.5 0.5 0.5s0.5-0.224 0.5-0.5v-1.475c0-0.204 0.155-0.403 0.372-0.477l5.628-1.925v3.877c0 0.276 0.224 0.5 0.5 0.5s0.5-0.224 0.5-0.5v-4.359c0-0.162 0.069-0.31 0.189-0.403 0.115-0.090 0.259-0.116 0.401-0.082l7.108 1.797c0.273 0.067 0.302 0.36 0.302 0.484v2.563c0 0.276 0.224 0.5 0.5 0.5z"></path>
</svg>
