<!-- Generated by IcoMoon.io -->
<svg version="1.1" xmlns="http://www.w3.org/2000/svg" width="32" height="32" viewBox="0 0 32 32">
<title>shutter1</title>
<path d="M16 32c4.309 0 8.218-1.72 11.098-4.5 0.059-0.031 0.1-0.077 0.143-0.13 2.935-2.903 4.759-6.926 4.759-11.37 0-7.346-4.983-13.536-11.742-15.407-0.066-0.035-0.137-0.052-0.213-0.055-1.295-0.339-2.646-0.538-4.045-0.538-4.142 0-7.909 1.596-10.754 4.187-0.080 0.039-0.144 0.102-0.195 0.178-3.101 2.92-5.051 7.050-5.051 11.635 0 8.822 7.178 16 16 16zM1.407 19.413c0.004-0.003 0.010-0.004 0.014-0.008l6.274-5.167 3.245 15.864c-4.738-1.705-8.371-5.72-9.533-10.689zM21.537 10.522l1.686 7.916-5.425 4.931-7.771-2.717-1.459-7.134 6.327-5.211 6.642 2.215zM12.032 30.45l-1.771-8.656 15.621 5.462c-2.642 2.323-6.095 3.744-9.882 3.744-1.375 0-2.702-0.202-3.968-0.55zM26.708 26.485l-7.836-2.74 11.825-10.75c0.198 0.971 0.303 1.976 0.303 3.005 0 4.079-1.641 7.778-4.292 10.485zM30.416 11.899l-6.336 5.76-3.386-15.896c4.694 1.552 8.361 5.359 9.722 10.136zM19.606 1.457l1.689 7.931-14.843-4.948c2.596-2.147 5.924-3.44 9.548-3.44 1.245 0 2.449 0.169 3.606 0.457zM5.604 5.211l8.173 2.724-12.582 10.362c-0.116-0.751-0.195-1.514-0.195-2.297 0-4.235 1.772-8.059 4.604-10.789z"></path>
</svg>
