<!-- Generated by IcoMoon.io -->
<svg version="1.1" xmlns="http://www.w3.org/2000/svg" width="30" height="32" viewBox="0 0 30 32">
<title>sign-out</title>
<path d="M0 30.5c0 0.827 0.673 1.5 1.5 1.5h21c0.827 0 1.5-0.673 1.5-1.5v-8.5c0-0.276-0.224-0.5-0.5-0.5s-0.5 0.224-0.5 0.5v8.5c0 0.275-0.224 0.5-0.5 0.5h-21c-0.276 0-0.5-0.225-0.5-0.5v-29c0-0.275 0.224-0.5 0.5-0.5h21c0.276 0 0.5 0.225 0.5 0.5v8.5c0 0.276 0.224 0.5 0.5 0.5s0.5-0.224 0.5-0.5v-8.5c0-0.827-0.673-1.5-1.5-1.5h-21c-0.827 0-1.5 0.673-1.5 1.5v29zM25.799 20.085c0.098 0.098 0.226 0.146 0.354 0.146s0.256-0.049 0.354-0.146l3.231-3.231c0.195-0.195 0.195-0.512 0-0.707l-3.231-3.231c-0.195-0.195-0.512-0.195-0.707 0s-0.195 0.512 0 0.707l2.377 2.377h-14.177c-0.276 0-0.5 0.224-0.5 0.5s0.224 0.5 0.5 0.5h14.177l-2.378 2.378c-0.195 0.195-0.195 0.512 0 0.707z"></path>
</svg>
