<!-- Generated by IcoMoon.io -->
<svg version="1.1" xmlns="http://www.w3.org/2000/svg" width="30" height="32" viewBox="0 0 30 32">
<title>sign-in</title>
<path d="M22.558 0h-21c-0.827 0-1.558 0.673-1.558 1.5v29c0 0.827 0.731 1.5 1.558 1.5h21c0.827 0 1.442-0.673 1.442-1.5v-8.5c0-0.276-0.224-0.5-0.5-0.5s-0.5 0.224-0.5 0.5v8.5c0 0.275-0.166 0.5-0.442 0.5h-21c-0.276 0-0.558-0.225-0.558-0.5v-29c0-0.275 0.282-0.5 0.558-0.5h21c0.276 0 0.442 0.225 0.442 0.5v8.5c0 0.276 0.224 0.5 0.5 0.5s0.5-0.224 0.5-0.5v-8.5c0-0.827-0.615-1.5-1.442-1.5zM29.5 16.5c0-0.276-0.224-0.5-0.5-0.5h-13.793l2.378-2.378c0.195-0.195 0.195-0.512 0-0.707s-0.512-0.195-0.707 0l-3.231 3.231c-0.046 0.046-0.083 0.102-0.109 0.163-0.051 0.122-0.051 0.26 0 0.382 0.025 0.062 0.062 0.117 0.109 0.163l3.231 3.231c0.098 0.098 0.226 0.146 0.354 0.146s0.256-0.049 0.354-0.146c0.195-0.195 0.195-0.512 0-0.707l-2.379-2.378h13.793c0.276 0 0.5-0.224 0.5-0.5z"></path>
</svg>
