<!-- Generated by IcoMoon.io -->
<svg version="1.1" xmlns="http://www.w3.org/2000/svg" width="44" height="32" viewBox="0 0 44 32">
<title>slider-image</title>
<path d="M1.311 2.557c0.177-0.079 0.46-0.097 0.678 0.103l2.172 2.006c0.202 0.186 0.518 0.176 0.707-0.028 0.188-0.202 0.175-0.519-0.028-0.706l-2.173-2.007c-0.47-0.434-1.16-0.547-1.757-0.284-0.561 0.245-0.91 0.762-0.91 1.35v26.018c0 0.588 0.349 1.105 0.91 1.351 0.214 0.095 0.441 0.14 0.665 0.14 0.4 0 0.792-0.146 1.093-0.424l2.172-2.006c0.203-0.188 0.215-0.504 0.028-0.706-0.187-0.205-0.504-0.216-0.707-0.028l-2.172 2.006c-0.216 0.199-0.5 0.183-0.678 0.103-0.094-0.043-0.311-0.167-0.311-0.436v-26.018c0-0.269 0.217-0.393 0.311-0.434zM43.090 1.641c-0.597-0.264-1.288-0.149-1.757 0.284l-2.172 2.006c-0.203 0.188-0.215 0.504-0.028 0.706 0.188 0.205 0.503 0.216 0.707 0.028l2.172-2.006c0.217-0.197 0.501-0.181 0.678-0.103 0.093 0.042 0.31 0.166 0.31 0.435v26.018c0 0.27-0.217 0.394-0.311 0.435-0.177 0.078-0.46 0.098-0.678-0.103l-2.172-2.006c-0.203-0.188-0.519-0.177-0.707 0.028-0.188 0.202-0.175 0.519 0.028 0.706l2.172 2.006c0.302 0.278 0.693 0.424 1.093 0.424 0.224 0 0.45-0.046 0.665-0.14 0.562-0.245 0.91-0.763 0.91-1.351v-26.017c0-0.588-0.349-1.105-0.91-1.35zM35.5 0h-27c-0.827 0-1.5 0.673-1.5 1.5v29c0 0.827 0.673 1.5 1.5 1.5h27c0.827 0 1.5-0.673 1.5-1.5v-29c0-0.827-0.673-1.5-1.5-1.5zM36 30.5c0 0.275-0.224 0.5-0.5 0.5h-27c-0.276 0-0.5-0.225-0.5-0.5v-29c0-0.275 0.224-0.5 0.5-0.5h27c0.276 0 0.5 0.225 0.5 0.5v29zM28.521 12.102c-0.189-0.203-0.542-0.203-0.731 0l-8.276 8.881-3.47-3.724c-0.189-0.203-0.542-0.203-0.731 0l-4.513 4.843c-0.188 0.202-0.177 0.519 0.025 0.707 0.096 0.090 0.219 0.134 0.341 0.134 0.134 0 0.267-0.054 0.366-0.159l4.147-4.45 3.47 3.724c0.189 0.203 0.542 0.203 0.731 0l8.276-8.881 4.643 4.982c0.189 0.202 0.505 0.212 0.707 0.025s0.213-0.505 0.025-0.707l-5.010-5.375zM14.775 11.732c1.93 0 3.5-1.57 3.5-3.5s-1.57-3.5-3.5-3.5-3.5 1.57-3.5 3.5 1.571 3.5 3.5 3.5zM14.775 5.732c1.378 0 2.5 1.121 2.5 2.5s-1.122 2.5-2.5 2.5-2.5-1.121-2.5-2.5 1.122-2.5 2.5-2.5z"></path>
</svg>
