<!-- Generated by IcoMoon.io -->
<svg version="1.1" xmlns="http://www.w3.org/2000/svg" width="46" height="32" viewBox="0 0 46 32">
<title>slider-video</title>
<path d="M20.502 19.929c0.26 0 0.519-0.070 0.748-0.203l4.203-2.427c0.47-0.271 0.75-0.756 0.75-1.299s-0.28-1.028-0.75-1.299l-4.203-2.427c-0.229-0.133-0.488-0.203-0.748-0.203-0.828 0-1.502 0.674-1.502 1.502v4.854c0 0.828 0.674 1.502 1.502 1.502zM20 13.573c0-0.31 0.261-0.502 0.502-0.502 0.086 0 0.17 0.023 0.248 0.068l4.203 2.427c0.226 0.131 0.25 0.347 0.25 0.434s-0.024 0.303-0.25 0.434l-4.203 2.426c-0.297 0.173-0.75-0.013-0.75-0.433v-4.854zM7 1.5v29c0 0.827 0.673 1.5 1.5 1.5h29c0.827 0 1.5-0.673 1.5-1.5v-29c0-0.827-0.673-1.5-1.5-1.5h-29c-0.827 0-1.5 0.673-1.5 1.5zM38 1.5v29c0 0.275-0.225 0.5-0.5 0.5h-29c-0.275 0-0.5-0.225-0.5-0.5v-29c0-0.275 0.225-0.5 0.5-0.5h29c0.275 0 0.5 0.225 0.5 0.5zM5.374 26.168c-0.184-0.208-0.501-0.225-0.706-0.042l-2.836 2.521c-0.225 0.201-0.467 0.114-0.537 0.083s-0.295-0.157-0.295-0.457v-24.546c0-0.3 0.226-0.425 0.295-0.456 0.070-0.031 0.312-0.118 0.537 0.083l2.836 2.521c0.205 0.181 0.522 0.163 0.706-0.043s0.164-0.522-0.042-0.706l-2.836-2.521c-0.447-0.398-1.065-0.49-1.61-0.247-0.546 0.246-0.886 0.77-0.886 1.369v24.547c0 0.599 0.34 1.123 0.886 1.368 0.201 0.090 0.411 0.135 0.62 0.135 0.357 0 0.708-0.131 0.99-0.382l2.836-2.521c0.206-0.184 0.226-0.5 0.042-0.706zM45.114 2.358c-0.546-0.244-1.163-0.151-1.61 0.247l-2.836 2.521c-0.206 0.184-0.226 0.5-0.042 0.706s0.501 0.224 0.706 0.042l2.836-2.521c0.225-0.201 0.468-0.114 0.537-0.083s0.295 0.157 0.295 0.457v24.547c0 0.3-0.226 0.425-0.295 0.456s-0.312 0.118-0.537-0.083l-2.836-2.521c-0.205-0.183-0.522-0.166-0.706 0.042-0.184 0.206-0.164 0.522 0.042 0.706l2.836 2.521c0.282 0.251 0.633 0.382 0.99 0.382 0.209 0 0.419-0.045 0.62-0.135 0.546-0.246 0.886-0.77 0.886-1.369v-24.546c0-0.599-0.34-1.123-0.886-1.369z"></path>
</svg>
