<!-- Generated by IcoMoon.io -->
<svg version="1.1" xmlns="http://www.w3.org/2000/svg" width="36" height="32" viewBox="0 0 36 32">
<title>slider</title>
<path d="M10 1.5v29c0 0.827 0.673 1.5 1.5 1.5h13c0.827 0 1.5-0.673 1.5-1.5v-29c0-0.827-0.673-1.5-1.5-1.5h-13c-0.827 0-1.5 0.673-1.5 1.5zM25 1.5v29c0 0.275-0.224 0.5-0.5 0.5h-13c-0.276 0-0.5-0.225-0.5-0.5v-29c0-0.275 0.224-0.5 0.5-0.5h13c0.276 0 0.5 0.225 0.5 0.5zM7.5 27.5c0-0.276-0.224-0.5-0.5-0.5h-5.5c-0.276 0-0.5-0.225-0.5-0.5v-20c0-0.275 0.224-0.5 0.5-0.5h5.5c0.276 0 0.5-0.224 0.5-0.5s-0.224-0.5-0.5-0.5h-5.5c-0.827 0-1.5 0.673-1.5 1.5v20c0 0.827 0.673 1.5 1.5 1.5h5.5c0.276 0 0.5-0.224 0.5-0.5zM34.5 5h-6.5c-0.276 0-0.5 0.224-0.5 0.5s0.224 0.5 0.5 0.5h6.5c0.276 0 0.5 0.225 0.5 0.5v20c0 0.275-0.224 0.5-0.5 0.5h-6.5c-0.276 0-0.5 0.224-0.5 0.5s0.224 0.5 0.5 0.5h6.5c0.827 0 1.5-0.673 1.5-1.5v-20c0-0.827-0.673-1.5-1.5-1.5zM7.127 12.425l-2.823 2.923c-0.187 0.194-0.187 0.501 0 0.695l2.823 2.923c0.098 0.102 0.229 0.152 0.36 0.152 0.125 0 0.25-0.047 0.347-0.141 0.199-0.191 0.204-0.508 0.013-0.707l-2.488-2.575 2.488-2.575c0.191-0.199 0.186-0.516-0.013-0.707s-0.515-0.186-0.707 0.012zM28.166 18.978c0.097 0.094 0.222 0.141 0.347 0.141 0.131 0 0.262-0.051 0.36-0.152l2.823-2.923c0.187-0.194 0.187-0.501 0-0.695l-2.823-2.923c-0.191-0.198-0.509-0.203-0.707-0.012-0.199 0.191-0.204 0.508-0.013 0.707l2.488 2.575-2.488 2.575c-0.191 0.199-0.186 0.515 0.013 0.707z"></path>
</svg>
