<!-- Generated by IcoMoon.io -->
<svg version="1.1" xmlns="http://www.w3.org/2000/svg" width="29" height="32" viewBox="0 0 29 32">
<title>slider-range</title>
<path d="M6.5 17.5c0.276 0 0.5-0.224 0.5-0.5v-14c0-0.276-0.224-0.5-0.5-0.5s-0.5 0.224-0.5 0.5v14c0 0.276 0.224 0.5 0.5 0.5zM1.5 0c-0.827 0-1.5 0.673-1.5 1.5v29c0 0.827 0.673 1.5 1.5 1.5h26c0.827 0 1.5-0.673 1.5-1.5v-29c0-0.827-0.673-1.5-1.5-1.5h-26zM28 1.5v29c0 0.275-0.225 0.5-0.5 0.5h-26c-0.275 0-0.5-0.225-0.5-0.5v-29c0-0.275 0.225-0.5 0.5-0.5h26c0.275 0 0.5 0.225 0.5 0.5zM6.5 19.156c-1.654 0-3 1.346-3 3 0 1.483 1.084 2.71 2.5 2.949v3.895c0 0.276 0.224 0.5 0.5 0.5s0.5-0.224 0.5-0.5v-3.894c1.416-0.24 2.5-1.466 2.5-2.949 0-1.655-1.346-3.001-3-3.001zM6.5 24.156c-1.103 0-2-0.897-2-2s0.897-2 2-2 2 0.897 2 2-0.897 2-2 2zM14.5 14.5c-0.276 0-0.5 0.224-0.5 0.5v14c0 0.276 0.224 0.5 0.5 0.5s0.5-0.224 0.5-0.5v-14c0-0.276-0.224-0.5-0.5-0.5zM14.956 7.202c0.027-0.062 0.044-0.13 0.044-0.202v-4c0-0.276-0.224-0.5-0.5-0.5s-0.5 0.224-0.5 0.5v4c0 0.072 0.017 0.14 0.044 0.202-1.437 0.222-2.544 1.456-2.544 2.954 0 1.654 1.346 3 3 3s3-1.346 3-3c0-1.498-1.107-2.732-2.544-2.954zM14.5 12.156c-1.103 0-2-0.897-2-2s0.897-2 2-2 2 0.897 2 2-0.897 2-2 2zM22.5 17.5c0.276 0 0.5-0.224 0.5-0.5v-14c0-0.276-0.224-0.5-0.5-0.5s-0.5 0.224-0.5 0.5v14c0 0.276 0.224 0.5 0.5 0.5zM22.5 19.156c-1.654 0-3 1.346-3 3 0 1.483 1.084 2.71 2.5 2.949v3.895c0 0.276 0.224 0.5 0.5 0.5s0.5-0.224 0.5-0.5v-3.894c1.416-0.24 2.5-1.466 2.5-2.949 0-1.655-1.346-3.001-3-3.001zM22.5 24.156c-1.103 0-2-0.897-2-2s0.897-2 2-2 2 0.897 2 2-0.897 2-2 2z"></path>
</svg>
