<!-- Generated by IcoMoon.io -->
<svg version="1.1" xmlns="http://www.w3.org/2000/svg" width="44" height="32" viewBox="0 0 44 32">
<title>slider-doc</title>
<path d="M36.5 0h-29c-0.827 0-1.5 0.673-1.5 1.5v29c0 0.827 0.673 1.5 1.5 1.5h29c0.827 0 1.5-0.673 1.5-1.5v-29c0-0.827-0.673-1.5-1.5-1.5zM37 30.5c0 0.275-0.224 0.5-0.5 0.5h-29c-0.276 0-0.5-0.225-0.5-0.5v-29c0-0.275 0.224-0.5 0.5-0.5h29c0.276 0 0.5 0.225 0.5 0.5v29zM14.5 17h6c0.827 0 1.5-0.673 1.5-1.5v-6c0-0.827-0.673-1.5-1.5-1.5h-6c-0.827 0-1.5 0.673-1.5 1.5v6c0 0.827 0.673 1.5 1.5 1.5zM14 9.5c0-0.275 0.224-0.5 0.5-0.5h6c0.276 0 0.5 0.225 0.5 0.5v6c0 0.275-0.224 0.5-0.5 0.5h-6c-0.276 0-0.5-0.225-0.5-0.5v-6zM32 8h-6c-0.276 0-0.5 0.224-0.5 0.5s0.224 0.5 0.5 0.5h6c0.276 0 0.5-0.224 0.5-0.5s-0.224-0.5-0.5-0.5zM32 12h-6c-0.276 0-0.5 0.224-0.5 0.5s0.224 0.5 0.5 0.5h6c0.276 0 0.5-0.224 0.5-0.5s-0.224-0.5-0.5-0.5zM32 16h-6c-0.276 0-0.5 0.224-0.5 0.5s0.224 0.5 0.5 0.5h6c0.276 0 0.5-0.224 0.5-0.5s-0.224-0.5-0.5-0.5zM32 20h-19c-0.276 0-0.5 0.224-0.5 0.5s0.224 0.5 0.5 0.5h19c0.276 0 0.5-0.224 0.5-0.5s-0.224-0.5-0.5-0.5zM32 24h-19c-0.276 0-0.5 0.224-0.5 0.5s0.224 0.5 0.5 0.5h19c0.276 0 0.5-0.224 0.5-0.5s-0.224-0.5-0.5-0.5zM43.187 2.213c-0.492-0.267-1.066-0.243-1.538 0.060l-2.42 1.565c-0.232 0.15-0.298 0.46-0.148 0.691 0.15 0.232 0.459 0.296 0.691 0.148l2.42-1.565c0.229-0.149 0.438-0.063 0.517-0.021 0.182 0.099 0.291 0.288 0.291 0.506v24.862c0 0.223-0.113 0.413-0.301 0.511-0.083 0.042-0.299 0.121-0.526-0.038l-2.254-1.601c-0.226-0.16-0.538-0.107-0.697 0.118s-0.107 0.537 0.118 0.696l2.254 1.601c0.265 0.188 0.566 0.283 0.871 0.283 0.235 0 0.471-0.057 0.693-0.171 0.519-0.268 0.842-0.804 0.842-1.399v-24.862c0-0.581-0.312-1.112-0.813-1.384zM1.234 3.029c0.185-0.088 0.421-0.065 0.572 0.057l2.378 1.932c0.216 0.176 0.53 0.14 0.704-0.073 0.174-0.215 0.142-0.529-0.073-0.703l-2.378-1.932c-0.455-0.369-1.095-0.44-1.633-0.184-0.504 0.24-0.804 0.718-0.804 1.278v25.191c0 0.533 0.292 0.99 0.779 1.223 0.224 0.106 0.47 0.158 0.714 0.158 0.372 0 0.739-0.12 1.025-0.353l2.296-1.865c0.214-0.174 0.247-0.488 0.073-0.703-0.173-0.213-0.489-0.248-0.703-0.073l-2.297 1.865c-0.172 0.141-0.464 0.171-0.68 0.067-0.186-0.088-0.207-0.224-0.207-0.318v-25.192c0-0.175 0.079-0.301 0.234-0.375z"></path>
</svg>
