<!-- Generated by IcoMoon.io -->
<svg version="1.1" xmlns="http://www.w3.org/2000/svg" width="27" height="32" viewBox="0 0 27 32">
<title>slider-filter</title>
<path d="M3 0.5v8c0 0.276 0.224 0.5 0.5 0.5s0.5-0.224 0.5-0.5v-8c0-0.276-0.224-0.5-0.5-0.5s-0.5 0.224-0.5 0.5zM3 17.949v13.551c0 0.276 0.224 0.5 0.5 0.5s0.5-0.224 0.5-0.5v-13.551c2-0.245 2.953-1.691 2.953-3.449 0-1.93-1.594-3.5-3.523-3.5s-3.465 1.57-3.465 3.5c0 1.758 1.035 3.204 3.035 3.449zM3.406 12c1.378 0 2.5 1.122 2.5 2.5s-1.121 2.5-2.5 2.5-2.5-1.122-2.5-2.5 1.122-2.5 2.5-2.5zM13 1v15c0 0.276 0.224 0.5 0.5 0.5s0.5-0.224 0.5-0.5v-15c0-0.276-0.224-0.5-0.5-0.5s-0.5 0.224-0.5 0.5zM13.010 24.95c-0.002 0.018-0.010 0.032-0.010 0.050v7c0 0.276 0.224 0.5 0.5 0.5s0.5-0.224 0.5-0.5v-7c0-0.018-0.008-0.032-0.010-0.050 1.696-0.241 3.010-1.688 3.010-3.45 0-1.93-1.57-3.5-3.5-3.5s-3.5 1.57-3.5 3.5c0 1.762 1.314 3.209 3.010 3.45zM13.5 19c1.378 0 2.5 1.122 2.5 2.5s-1.122 2.5-2.5 2.5-2.5-1.122-2.5-2.5 1.122-2.5 2.5-2.5zM24 5v-4c0-0.276-0.224-0.5-0.5-0.5s-0.5 0.224-0.5 0.5v4c0 0.276 0.224 0.5 0.5 0.5s0.5-0.224 0.5-0.5zM27.094 10.5c0-1.93-1.57-3.5-3.5-3.5s-3.5 1.57-3.5 3.5c0 1.73 1.266 3.162 2.918 3.441-0.003 0.020-0.012 0.038-0.012 0.059v18c0 0.276 0.224 0.5 0.5 0.5s0.5-0.224 0.5-0.5v-18c0-0.014-0.007-0.026-0.008-0.040 1.74-0.201 3.102-1.667 3.102-3.46zM23.594 13c-1.378 0-2.5-1.122-2.5-2.5s1.122-2.5 2.5-2.5 2.5 1.122 2.5 2.5-1.122 2.5-2.5 2.5z"></path>
</svg>
