<!-- Generated by IcoMoon.io -->
<svg version="1.1" xmlns="http://www.w3.org/2000/svg" width="32" height="32" viewBox="0 0 32 32">
<title>smart-watch</title>
<path d="M0 8.542c0 0.408 0.159 0.792 0.447 1.080l2.976 2.976-1.311 1.311c-0.596 0.596-0.596 1.564 0 2.16l13.79 13.79c0.288 0.289 0.672 0.448 1.080 0.448s0.792-0.159 1.080-0.448l1.311-1.311 2.975 2.975c0.298 0.298 0.688 0.447 1.080 0.447s0.782-0.149 1.080-0.447l7.044-7.043c0.289-0.289 0.448-0.672 0.448-1.081s-0.159-0.792-0.447-1.080l-2.976-2.976 1.311-1.311c0.289-0.289 0.447-0.672 0.447-1.080s-0.158-0.792-0.447-1.080l-8.227-8.228c0.288-0.289 0.447-0.672 0.447-1.081s-0.158-0.792-0.447-1.080l-1.364-1.365c-0.576-0.577-1.584-0.577-2.16 0l-0.002 0.002-2.037-2.037c-0.576-0.577-1.584-0.577-2.16 0l-1.311 1.311-2.976-2.976c-0.596-0.596-1.564-0.596-2.16 0l-7.044 7.044c-0.289 0.288-0.447 0.672-0.447 1.080zM30.846 23.027c0.1 0.099 0.154 0.231 0.154 0.372s-0.055 0.273-0.154 0.373l-7.044 7.044c-0.205 0.206-0.541 0.206-0.746 0l-2.975-2.975 7.79-7.79 2.975 2.976zM14.645 2.79c0.1-0.1 0.232-0.155 0.373-0.155s0.273 0.055 0.373 0.155l2.744 2.744 0.709-0.708c0.199-0.199 0.547-0.199 0.746 0l1.364 1.365c0.1 0.1 0.154 0.232 0.154 0.373s-0.055 0.273-0.155 0.374l-0.707 0.709 8.935 8.935c0.1 0.1 0.154 0.232 0.154 0.373s-0.055 0.273-0.154 0.373l-11.826 11.824c-0.199 0.199-0.547 0.199-0.746 0l-13.79-13.79c-0.206-0.206-0.206-0.541 0-0.746l11.826-11.826zM1.154 8.169l7.044-7.043c0.205-0.206 0.541-0.206 0.746 0l2.975 2.975-7.79 7.79-2.975-2.976c-0.099-0.1-0.154-0.232-0.154-0.373s0.055-0.273 0.154-0.373zM11.158 18.809c0.667 0 1.295-0.26 1.768-0.732s0.732-1.1 0.732-1.768-0.26-1.296-0.732-1.768c-0.945-0.945-2.592-0.944-3.535 0-0.473 0.472-0.732 1.1-0.732 1.768s0.26 1.296 0.732 1.768c0.471 0.471 1.099 0.732 1.767 0.732zM10.098 15.248c0.283-0.283 0.659-0.439 1.061-0.439 0.4 0 0.777 0.156 1.061 0.439s0.439 0.66 0.439 1.061c0 0.4-0.156 0.777-0.439 1.061-0.567 0.567-1.556 0.566-2.121 0-0.283-0.283-0.439-0.66-0.439-1.061-0.002-0.401 0.154-0.778 0.438-1.061zM18.686 18.295c0.473 0.472 1.101 0.732 1.768 0.732s1.296-0.26 1.769-0.732c0.975-0.975 0.975-2.561 0-3.536-0.943-0.943-2.59-0.945-3.536 0-0.975 0.976-0.975 2.561-0.001 3.536zM19.393 15.467c0.283-0.283 0.66-0.439 1.061-0.439s0.778 0.156 1.062 0.439c0.585 0.585 0.585 1.537 0 2.122-0.565 0.566-1.555 0.567-2.122 0-0.585-0.586-0.585-1.537-0.001-2.122zM15.696 14.222c0.668 0 1.295-0.26 1.768-0.732 0.975-0.975 0.975-2.561 0-3.536-0.945-0.944-2.59-0.944-3.535 0-0.975 0.975-0.975 2.561 0 3.536 0.472 0.472 1.099 0.732 1.767 0.732zM14.636 10.662c0.283-0.283 0.66-0.439 1.061-0.439s0.777 0.156 1.061 0.439c0.585 0.585 0.585 1.537 0 2.122-0.566 0.566-1.555 0.566-2.121 0-0.586-0.586-0.586-1.537-0.001-2.122zM13.929 19.518c-0.473 0.472-0.732 1.1-0.732 1.768s0.26 1.296 0.732 1.768c0.473 0.472 1.1 0.732 1.768 0.732s1.295-0.26 1.768-0.732c0.473-0.472 0.732-1.1 0.732-1.768s-0.26-1.296-0.732-1.768c-0.946-0.945-2.591-0.945-3.536 0zM16.757 22.346c-0.566 0.566-1.555 0.566-2.121 0-0.283-0.283-0.439-0.66-0.439-1.061s0.156-0.777 0.439-1.061 0.66-0.439 1.061-0.439 0.777 0.156 1.061 0.439 0.439 0.66 0.439 1.061-0.157 0.777-0.44 1.061z"></path>
</svg>
