<!-- Generated by IcoMoon.io -->
<svg version="1.1" xmlns="http://www.w3.org/2000/svg" width="37" height="32" viewBox="0 0 37 32">
<title>spa-stone-flower</title>
<path d="M34.336 22.003c0.545-1.344 0.435-2.578-0.333-3.028-0.748-0.44-1.888 0.076-2.753 1.21-0.865-1.134-2.005-1.65-2.753-1.21-0.142 0.083-0.254 0.201-0.351 0.334-0.959-0.651-2.109-1.227-3.415-1.699 2.131-1.143 3.431-2.702 3.431-4.448 0-2.121-1.916-4.016-5.166-5.202 1.303-0.836 2.078-1.909 2.078-3.094 0-2.728-4.095-4.866-9.324-4.866-5.228 0-9.323 2.138-9.323 4.866 0 1.185 0.774 2.258 2.077 3.094-3.25 1.186-5.166 3.081-5.166 5.202 0 1.744 1.297 3.301 3.424 4.444-4.099 1.472-6.512 3.839-6.512 6.472 0 4.442 6.809 7.922 15.5 7.922 5.136 0 9.832-1.263 12.716-3.379 0.011 0.007 0.020 0.018 0.031 0.025 0.747 0.44 1.888-0.076 2.753-1.21 0.65 0.853 1.44 1.375 2.13 1.375 0.228 0 0.438-0.055 0.623-0.165 0.768-0.451 0.878-1.684 0.333-3.028 1.419-0.194 2.414-0.908 2.414-1.807s-0.995-1.614-2.414-1.808zM7.427 4.866c0-2.095 3.811-3.866 8.323-3.866s8.324 1.771 8.324 3.866-3.812 3.866-8.324 3.866-8.323-1.77-8.323-3.866zM4.338 13.162c0-1.824 2.063-3.559 5.386-4.558 1.615 0.706 3.708 1.128 6.026 1.128 2.319 0 4.412-0.422 6.027-1.128 3.323 0.998 5.385 2.733 5.385 4.557 0 2.924-5.227 5.394-11.412 5.394s-11.412-2.469-11.412-5.393zM1.25 24.078c0-2.348 2.618-4.582 6.839-5.858 2.097 0.838 4.743 1.336 7.661 1.336 2.916 0 5.56-0.498 7.657-1.335 1.759 0.531 3.274 1.248 4.427 2.083-0.024 0.503 0.081 1.087 0.33 1.699-1.419 0.194-2.414 0.908-2.414 1.807s0.995 1.613 2.414 1.807c-0.332 0.819-0.417 1.593-0.263 2.178-2.681 1.979-7.277 3.205-12.151 3.205-7.859 0-14.5-3.17-14.5-6.922zM33.563 24.67c-0.177 0-0.341 0.095-0.431 0.249-0.089 0.153-0.090 0.342-0.003 0.497 0.708 1.255 0.613 2.223 0.367 2.368-0.292 0.174-1.2-0.432-1.813-1.501-0.089-0.156-0.254-0.252-0.434-0.252s-0.345 0.096-0.434 0.252c-0.613 1.069-1.519 1.671-1.813 1.501-0.246-0.145-0.341-1.112 0.367-2.368 0.087-0.155 0.086-0.344-0.003-0.497-0.090-0.153-0.254-0.248-0.431-0.249-1.314-0.004-2.187-0.521-2.187-0.86s0.872-0.855 2.187-0.86c0.177 0 0.341-0.095 0.431-0.249 0.089-0.153 0.090-0.342 0.003-0.497-0.494-0.876-0.593-1.605-0.527-2.019 0.002-0.006 0.001-0.012 0.003-0.018 0.030-0.169 0.085-0.288 0.157-0.331 0.299-0.17 1.201 0.432 1.813 1.501 0.178 0.312 0.689 0.312 0.867 0 0.612-1.070 1.518-1.676 1.813-1.501 0.246 0.145 0.341 1.112-0.367 2.368-0.087 0.155-0.086 0.344 0.003 0.497 0.090 0.153 0.254 0.248 0.431 0.249 1.314 0.004 2.187 0.521 2.187 0.86s-0.871 0.856-2.186 0.86zM13.312 2.309c-2.744 0.309-4.237 1.926-4.299 1.995-0.186 0.204-0.17 0.519 0.034 0.704 0.096 0.087 0.216 0.13 0.336 0.13 0.136 0 0.271-0.055 0.369-0.162 0.014-0.014 1.318-1.409 3.671-1.673 0.274-0.031 0.472-0.279 0.441-0.553-0.031-0.276-0.297-0.474-0.552-0.441zM11.341 10.309c-2.744 0.309-4.237 1.926-4.299 1.995-0.186 0.204-0.17 0.519 0.034 0.704 0.096 0.087 0.216 0.13 0.336 0.13 0.136 0 0.271-0.055 0.369-0.162 0.014-0.014 1.318-1.409 3.671-1.673 0.274-0.031 0.472-0.279 0.441-0.553-0.031-0.276-0.3-0.474-0.552-0.441zM9.897 20.158c-3.527 0.614-5.331 2.813-5.406 2.906-0.173 0.215-0.139 0.528 0.076 0.702 0.092 0.075 0.203 0.111 0.313 0.111 0.146 0 0.29-0.063 0.389-0.185 0.017-0.020 1.659-2.003 4.8-2.549 0.271-0.047 0.454-0.306 0.406-0.578-0.046-0.273-0.312-0.452-0.578-0.407z"></path>
</svg>
