<!-- Generated by IcoMoon.io -->
<svg version="1.1" xmlns="http://www.w3.org/2000/svg" width="25" height="32" viewBox="0 0 25 32">
<title>spa-face</title>
<path d="M23.92 17.774c1.42-3.653 1.896-7.274-1.415-9.918-3.477-2.777-5.737-4.801-6.888-6.17-0.053-0.074-0.108-0.136-0.163-0.205-0.074-0.093-0.159-0.193-0.222-0.279-0.007-0.010-0.020-0.014-0.028-0.023-0.329-0.359-0.669-0.626-0.994-0.765-0.646-0.274-1.274-0.413-1.866-0.413-1.779 0-3.032 1.2-4.12 2.497-0.946 1.126-3.162 3.010-4.78 4.383-0.853 0.724-1.59 1.352-1.962 1.713-1.647 1.599-2.741 5.179 1.407 13.127 0.002 0.005 0.008 0.007 0.010 0.011 0.309 0.639 4.935 10.072 9.086 10.262 0.086 0.004 0.172 0.006 0.258 0.006 4.327 0 7.329-5.009 9.47-9.405l0.271-0.555c0.671-1.372 1.362-2.795 1.916-4.214 0.009-0.018 0.014-0.034 0.020-0.052zM21.882 8.637c2.541 2.029 2.471 4.787 1.479 7.764-1.326-1.997-3.902-3.945-4.030-4.040-0.22-0.164-0.533-0.121-0.7 0.1-0.165 0.221-0.12 0.534 0.101 0.7 0.033 0.025 3.248 2.453 4.178 4.463-0.353 0.881-0.761 1.774-1.19 2.668-0.791-1.117-2.317-2.806-4.168-4.389-0.016-0.014-0.030-0.030-0.049-0.042-1.223-1.041-2.585-2.032-3.969-2.779 3.336-2.412 3.656-5.524 3.53-7.231-0.040-0.532-0.138-1.038-0.263-1.524 1.269 1.182 2.954 2.612 5.081 4.31zM2.179 9.307c0.347-0.339 1.072-0.954 1.911-1.666 1.737-1.475 3.899-3.31 4.899-4.501 0.933-1.112 1.985-2.14 3.355-2.14 0.463 0 0.945 0.109 1.476 0.334 0.132 0.056 0.277 0.166 0.425 0.298-0.072 0.192-0.144 0.378-0.218 0.587-0.631 1.781-1.414 3.995-4.555 5.663-3.060 1.625-5.165 5.471-5.253 5.634-0.132 0.243-0.041 0.546 0.201 0.678 0.242 0.128 0.547 0.042 0.678-0.202 0.021-0.037 2.048-3.742 4.843-5.227 3.485-1.85 4.378-4.371 5.029-6.211 0.002-0.005 0.003-0.010 0.005-0.015 0.529 0.847 0.992 2.042 1.092 3.386 0.146 1.951-0.394 4.712-3.784 6.791-5.518 3.382-7.977 6.354-8.913 7.734-2.698-5.436-3.112-9.28-1.191-11.143zM20.814 22.157c-2.049 4.208-4.888 9.049-8.784 8.838-2.916-0.133-6.75-6.693-8.131-9.498 0.337-0.574 1.493-2.305 4.188-4.566 0.258-0.086 1.091-0.317 1.752 0.013 0.072 0.036 0.148 0.053 0.224 0.053 0.183 0 0.359-0.101 0.447-0.276 0.123-0.247 0.023-0.547-0.224-0.671-0.26-0.13-0.529-0.198-0.793-0.236 0.892-0.671 1.913-1.374 3.078-2.098 1.079 0.529 2.138 1.218 3.13 1.975-0.69 0.104-1.027 0.385-1.081 0.434-0.2 0.181-0.215 0.483-0.040 0.689 0.097 0.115 0.238 0.174 0.38 0.174 0.112 0 0.226-0.037 0.318-0.11 0.005-0.004 0.512-0.379 1.714-0.139 2.123 1.837 3.74 3.771 4.217 4.604-0.042 0.085-0.083 0.171-0.125 0.256l-0.27 0.558zM13.733 24.252c-0.469 0-0.847 0.123-1.078 0.222-0.34-0.122-0.686-0.184-1.028-0.184-1.386 0-2.264 1.004-2.301 1.046-0.16 0.188-0.16 0.465 0.001 0.652 1.012 1.174 2.115 1.769 3.28 1.769 1.966 0 3.322-1.716 3.379-1.789 0.15-0.193 0.139-0.467-0.027-0.646-0.818-0.884-1.662-1.070-2.226-1.070zM12.607 26.758c-0.742 0-1.476-0.356-2.186-1.059 0.418-0.297 1.245-0.577 2.056-0.22 0.146 0.065 0.323 0.052 0.463-0.031 0.003-0.002 0.332-0.196 0.793-0.196 0.402 0 0.79 0.146 1.154 0.435-0.429 0.415-1.269 1.071-2.28 1.071z"></path>
</svg>
