<!-- Generated by IcoMoon.io -->
<svg version="1.1" xmlns="http://www.w3.org/2000/svg" width="37" height="32" viewBox="0 0 37 32">
<title>spa-stone</title>
<path d="M36.75 23.811c0-0.899-0.995-1.612-2.414-1.807 0.545-1.345 0.434-2.578-0.333-3.028-0.748-0.439-1.888 0.076-2.753 1.21-0.865-1.134-2.005-1.649-2.753-1.21-0.142 0.083-0.254 0.201-0.35 0.334-0.959-0.651-2.109-1.228-3.415-1.699 2.13-1.143 3.43-2.702 3.43-4.448 0-2.121-1.916-4.015-5.165-5.202 1.303-0.836 2.077-1.909 2.077-3.094 0-2.729-4.095-4.867-9.324-4.867-5.228 0-9.323 2.138-9.323 4.866 0 1.185 0.774 2.258 2.077 3.094-3.25 1.187-5.166 3.081-5.166 5.202 0 1.745 1.297 3.302 3.424 4.444-4.099 1.471-6.512 3.838-6.512 6.471 0 4.443 6.809 7.923 15.5 7.923 5.136 0 9.832-1.263 12.716-3.38 0.011 0.007 0.020 0.018 0.031 0.025 0.747 0.441 1.888-0.076 2.753-1.21 0.65 0.853 1.44 1.375 2.13 1.375 0.228 0 0.438-0.056 0.623-0.165 0.767-0.45 0.878-1.684 0.333-3.028 1.419-0.194 2.414-0.907 2.414-1.806zM7.427 4.866c0-2.095 3.811-3.866 8.323-3.866s8.324 1.771 8.324 3.866-3.812 3.866-8.324 3.866-8.323-1.77-8.323-3.866zM4.338 13.162c0-1.824 2.063-3.559 5.385-4.558 1.615 0.706 3.708 1.128 6.027 1.128s4.413-0.422 6.027-1.128c3.322 0.999 5.385 2.734 5.385 4.558 0 2.924-5.227 5.395-11.412 5.395s-11.412-2.471-11.412-5.395zM1.25 24.077c0-2.348 2.617-4.582 6.837-5.857 2.098 0.838 4.744 1.337 7.663 1.337 2.917 0 5.561-0.498 7.658-1.335 1.755 0.531 3.271 1.247 4.427 2.081-0.024 0.503 0.081 1.088 0.329 1.701-1.419 0.194-2.414 0.907-2.414 1.807s0.995 1.612 2.414 1.807c-0.332 0.819-0.417 1.593-0.262 2.178-2.682 1.978-7.278 3.204-12.152 3.204-7.859 0-14.5-3.17-14.5-6.923zM33.563 24.67c-0.177 0.001-0.341 0.095-0.43 0.248-0.090 0.153-0.091 0.343-0.004 0.497 0.708 1.257 0.613 2.224 0.367 2.369-0.295 0.169-1.2-0.432-1.813-1.502-0.089-0.156-0.254-0.252-0.434-0.252s-0.345 0.096-0.434 0.252c-0.613 1.070-1.481 1.666-1.773 1.502-0.029-0.018-0.042-0.049-0.042-0.091 0-0.001 0-0.001 0-0.002 0-0.301-0.208-1.177 0.411-2.276 0.087-0.154 0.066-0.344-0.024-0.497-0.089-0.153-0.263-0.247-0.44-0.248-1.314-0.004-2.192-0.521-2.192-0.859s0.87-0.855 2.184-0.859c0.177-0.001 0.34-0.095 0.428-0.248 0.090-0.153 0.090-0.343 0.003-0.497-0.495-0.878-0.594-1.607-0.527-2.021 0.002-0.006 0.001-0.011 0.002-0.017 0.030-0.169 0.085-0.289 0.157-0.331 0.296-0.166 1.201 0.432 1.813 1.502 0.178 0.312 0.689 0.312 0.867 0 0.612-1.071 1.515-1.673 1.813-1.502 0.246 0.146 0.341 1.112-0.367 2.369-0.087 0.154-0.086 0.344 0.004 0.497s0.253 0.247 0.43 0.248c1.314 0.004 2.187 0.521 2.187 0.859s-0.871 0.855-2.186 0.859zM13.312 2.309c-2.744 0.31-4.237 1.926-4.299 1.994-0.186 0.205-0.17 0.521 0.034 0.706 0.096 0.087 0.216 0.13 0.336 0.13 0.136 0 0.271-0.056 0.37-0.164 0.013-0.015 1.298-1.404 3.67-1.672 0.274-0.031 0.472-0.278 0.441-0.553s-0.297-0.469-0.552-0.441zM11.341 10.309c-2.744 0.31-4.237 1.926-4.299 1.994-0.186 0.205-0.17 0.521 0.034 0.706 0.096 0.087 0.216 0.13 0.336 0.13 0.136 0 0.271-0.056 0.37-0.164 0.013-0.015 1.298-1.404 3.67-1.672 0.274-0.031 0.472-0.278 0.441-0.553s-0.3-0.469-0.552-0.441zM9.897 20.158c-3.527 0.612-5.331 2.813-5.406 2.906-0.173 0.215-0.139 0.528 0.076 0.702 0.092 0.074 0.203 0.11 0.313 0.11 0.146 0 0.29-0.063 0.389-0.185 0.017-0.021 1.659-2.004 4.8-2.55 0.271-0.047 0.454-0.306 0.406-0.578-0.046-0.27-0.304-0.46-0.578-0.405z"></path>
</svg>
