<!-- Generated by IcoMoon.io -->
<svg version="1.1" xmlns="http://www.w3.org/2000/svg" width="30" height="32" viewBox="0 0 30 32">
<title>spark</title>
<path d="M6.653 31.947c0.082 0.051 0.174 0.076 0.265 0.076 0.129 0 0.256-0.050 0.353-0.146l18.082-18.023c0.143-0.143 0.187-0.358 0.109-0.545s-0.26-0.309-0.462-0.309h-5.912l3.507-12.34c0.063-0.221-0.033-0.457-0.233-0.571s-0.452-0.078-0.61 0.089l-17.114 17.977c-0.138 0.145-0.177 0.358-0.097 0.542 0.078 0.184 0.259 0.303 0.459 0.303h5.699l-4.253 12.361c-0.076 0.22 0.010 0.463 0.207 0.586zM11.873 18.663c0.053-0.153 0.028-0.321-0.065-0.453-0.095-0.132-0.246-0.21-0.408-0.21h-5.233l14.913-15.665-3.135 11.028c-0.043 0.151-0.013 0.313 0.082 0.438s0.243 0.199 0.399 0.199h5.364l-15.697 15.646 3.78-10.983z"></path>
</svg>
