<!-- Generated by IcoMoon.io -->
<svg version="1.1" xmlns="http://www.w3.org/2000/svg" width="35" height="32" viewBox="0 0 35 32">
<title>speaker-on</title>
<path d="M9.348 9.765l14.143-8.757c0.087-0.053 0.216-0.106 0.314-0.050 0.090 0.051 0.195 0.206 0.195 0.477v29.043c0 0.273-0.108 0.429-0.201 0.479-0.106 0.056-0.236-0.002-0.324-0.061l-13.253-8.891c-0.229-0.155-0.54-0.093-0.693 0.137-0.154 0.229-0.093 0.54 0.137 0.693l13.255 8.892c0.253 0.168 0.522 0.253 0.785 0.253 0.196 0 0.388-0.047 0.567-0.143 0.455-0.244 0.727-0.752 0.727-1.358v-29.044c0-0.597-0.264-1.101-0.705-1.349-0.401-0.225-0.884-0.201-1.328 0.069l-14.146 8.759c-0.235 0.146-0.307 0.454-0.162 0.689 0.146 0.234 0.454 0.307 0.689 0.162zM7 21.5v-10c0-0.827-0.673-1.5-1.5-1.5h-4c-0.827 0-1.5 0.673-1.5 1.5v10c0 0.827 0.673 1.5 1.5 1.5h4c0.827 0 1.5-0.673 1.5-1.5zM1 21.5v-10c0-0.276 0.224-0.5 0.5-0.5h4c0.276 0 0.5 0.224 0.5 0.5v10c0 0.276-0.224 0.5-0.5 0.5h-4c-0.276 0-0.5-0.224-0.5-0.5zM29 9h-1c-0.276 0-0.5 0.224-0.5 0.5s0.224 0.5 0.5 0.5h1c3.038 0 5 2.202 5 5.611v0.138c0 3.563-2.149 6.251-5 6.251h-1c-0.276 0-0.5 0.224-0.5 0.5s0.224 0.5 0.5 0.5h1c3.42 0 6-3.118 6-7.251v-0.138c0-3.954-2.411-6.611-6-6.611zM28.571 19h-0.571c-0.276 0-0.5 0.224-0.5 0.5s0.224 0.5 0.5 0.5h0.571c2.019 0 3.429-1.637 3.429-4.036 0-2.334-1.41-3.964-3.429-3.964h-0.571c-0.276 0-0.5 0.224-0.5 0.5s0.224 0.5 0.5 0.5h0.571c1.793 0 2.429 1.597 2.429 3.018 0 1.484-0.751 2.982-2.429 2.982z"></path>
</svg>
