<!-- Generated by IcoMoon.io -->
<svg version="1.1" xmlns="http://www.w3.org/2000/svg" width="29" height="32" viewBox="0 0 29 32">
<title>speaker-off</title>
<path d="M21.355 12.052c-0.195-0.195-0.512-0.195-0.707 0s-0.195 0.512 0 0.707l3.146 3.146-3.146 3.146c-0.195 0.195-0.195 0.512 0 0.707 0.098 0.098 0.226 0.146 0.354 0.146s0.256-0.049 0.354-0.146l3.146-3.146 3.146 3.146c0.098 0.098 0.226 0.146 0.354 0.146s0.256-0.049 0.354-0.146c0.195-0.195 0.195-0.512 0-0.707l-3.146-3.146 3.146-3.146c0.195-0.195 0.195-0.512 0-0.707s-0.512-0.195-0.707 0l-3.146 3.146-3.148-3.146zM24 20v10.479c0 0.27-0.184 0.398-0.264 0.44s-0.288 0.126-0.513-0.024l-13.378-8.891c-0.231-0.154-0.541-0.090-0.693 0.14-0.153 0.23-0.090 0.541 0.14 0.693l13.379 8.891c0.251 0.167 0.54 0.251 0.83 0.251 0.243 0 0.487-0.059 0.709-0.179 0.487-0.261 0.79-0.768 0.79-1.321v-10.479c0-0.276-0.224-0.5-0.5-0.5s-0.5 0.224-0.5 0.5zM8.844 9.767l14.396-8.759c0.224-0.137 0.427-0.052 0.504-0.009s0.256 0.172 0.256 0.436v10.565c0 0.276 0.224 0.5 0.5 0.5s0.5-0.224 0.5-0.5v-10.565c0-0.55-0.286-1.039-0.766-1.308-0.479-0.27-1.044-0.259-1.514 0.026l-14.395 8.759c-0.236 0.144-0.311 0.451-0.168 0.687s0.452 0.312 0.687 0.168zM1.5 23h4c0.827 0 1.5-0.673 1.5-1.5v-10c0-0.827-0.673-1.5-1.5-1.5h-4c-0.827 0-1.5 0.673-1.5 1.5v10c0 0.827 0.673 1.5 1.5 1.5zM1 11.5c0-0.276 0.224-0.5 0.5-0.5h4c0.276 0 0.5 0.224 0.5 0.5v10c0 0.276-0.224 0.5-0.5 0.5h-4c-0.276 0-0.5-0.224-0.5-0.5v-10z"></path>
</svg>
