<!-- Generated by IcoMoon.io -->
<svg version="1.1" xmlns="http://www.w3.org/2000/svg" width="32" height="32" viewBox="0 0 32 32">
<title>steps</title>
<path d="M32 30.5v-29c0-0.827-0.677-1.5-1.509-1.5h-9.982c-0.832 0-1.509 0.673-1.509 1.5v5.147c0 0.276 0.224 0.5 0.5 0.5s0.5-0.224 0.5-0.5v-5.147c0-0.275 0.228-0.5 0.509-0.5h9.982c0.281 0 0.509 0.225 0.509 0.5v6.5h-19.474c-0.841 0-1.526 0.683-1.526 1.521v6.424c0 0.276 0.224 0.5 0.5 0.5s0.5-0.224 0.5-0.5v-6.424c0-0.287 0.236-0.521 0.526-0.521h19.474v9h-29.5c-0.827 0-1.5 0.673-1.5 1.5v11c0 0.827 0.673 1.5 1.5 1.5h29c0.827 0 1.5-0.673 1.5-1.5zM31 30.5c0 0.275-0.224 0.5-0.5 0.5h-29c-0.276 0-0.5-0.225-0.5-0.5v-11c0-0.275 0.224-0.5 0.5-0.5h29.5v11.5z"></path>
</svg>
