<!-- Generated by IcoMoon.io -->
<svg version="1.1" xmlns="http://www.w3.org/2000/svg" width="28" height="32" viewBox="0 0 28 32">
<title>stop-watch</title>
<path d="M12.926 32c6.675 0 12.334-5.194 12.883-11.825 0.023-0.275-0.182-0.517-0.457-0.54-0.254-0.019-0.516 0.182-0.539 0.457-0.507 6.116-5.729 10.908-11.887 10.908-6.576 0-11.926-5.338-11.926-11.9 0-4.816 2.879-9.129 7.334-10.988 0.255-0.106 0.375-0.399 0.27-0.654-0.108-0.255-0.403-0.375-0.655-0.269-4.829 2.015-7.949 6.69-7.949 11.911 0 7.113 5.799 12.9 12.926 12.9zM24.803 18.107c0.021 0.262 0.24 0.459 0.497 0.459 0.014 0 0.027 0 0.042-0.001 0.274-0.022 0.479-0.264 0.457-0.539-0.393-4.815-3.419-8.967-7.896-10.837-0.252-0.107-0.547 0.014-0.653 0.269s0.014 0.548 0.269 0.654c4.129 1.725 6.921 5.555 7.284 9.995zM8.938 1h8c0.275 0 0.5 0.224 0.5 0.5v2c0 0.276-0.225 0.5-0.5 0.5h-1c-0.827 0-1.5 0.673-1.5 1.5v3.5c0 0.276 0.224 0.5 0.5 0.5s0.5-0.224 0.5-0.5v-3.5c0-0.276 0.225-0.5 0.5-0.5h1c0.827 0 1.5-0.673 1.5-1.5v-2c0-0.827-0.673-1.5-1.5-1.5h-8c-0.827 0-1.5 0.673-1.5 1.5v2c0 0.827 0.673 1.5 1.5 1.5h1c0.275 0 0.5 0.224 0.5 0.5v3.5c0 0.276 0.224 0.5 0.5 0.5s0.5-0.224 0.5-0.5v-3.5c0-0.827-0.673-1.5-1.5-1.5h-1c-0.275 0-0.5-0.224-0.5-0.5v-2c0-0.276 0.224-0.5 0.5-0.5zM24.218 2.819c-0.195 0.195-0.195 0.512 0 0.707l1.11 1.108-2.751 2.746c-0.195 0.195-0.195 0.512 0 0.707 0.098 0.098 0.226 0.147 0.354 0.147s0.256-0.049 0.354-0.146l2.753-2.747 1.111 1.108c0.098 0.097 0.226 0.146 0.354 0.146s0.256-0.049 0.354-0.147c0.195-0.195 0.195-0.512 0-0.707l-2.929-2.923c-0.198-0.194-0.515-0.195-0.71 0.001zM13.938 20h6.5c0.276 0 0.5-0.224 0.5-0.5s-0.224-0.5-0.5-0.5h-6.5c-0.275 0-0.5-0.224-0.5-0.5v-7.5c0-0.276-0.224-0.5-0.5-0.5s-0.5 0.224-0.5 0.5v7.5c0 0.827 0.672 1.5 1.5 1.5z"></path>
</svg>
