<!-- Generated by IcoMoon.io -->
<svg version="1.1" xmlns="http://www.w3.org/2000/svg" width="40" height="32" viewBox="0 0 40 32">
<title>support</title>
<path d="M34.91 14.667c-0.067-3.497-1.359-6.884-3.691-9.549-2.84-3.248-6.938-5.111-11.242-5.111-4.311 0-8.408 1.859-11.242 5.1-2.355 2.693-3.63 6.121-3.673 9.651-2.922 0.5-5.084 2.941-5.124 5.919-0.012 0.042-0.018 0.086-0.018 0.13 0 3.415 2.752 6.193 6.135 6.193h4.539c2.056 3.030 5.527 5 9.383 5 5.647 0 10.476-4.221 11.229-9.819l0.758-5.633c0.466-3.458-0.585-6.948-2.882-9.574s-5.615-4.133-9.104-4.133-6.808 1.506-9.104 4.133-3.35 6.116-2.884 9.574l0.758 5.633c0.184 1.37 0.616 2.656 1.24 3.819h-2.069c-0.486-1.093-0.824-2.292-0.996-3.573l-0.758-5.631c-0.064-0.474-0.099-0.948-0.114-1.421 0.037-0.078 0.062-0.162 0.053-0.255-0.005-0.059-0.026-0.113-0.050-0.163-0.004-3.359 1.194-6.632 3.432-9.191 2.645-3.024 6.468-4.758 10.49-4.758 4.017 0 7.84 1.738 10.49 4.769 2.22 2.538 3.429 5.777 3.445 9.11-0.024 0.053-0.041 0.113-0.046 0.176-0.008 0.088 0.009 0.173 0.043 0.248-0.013 0.503-0.053 1.007-0.12 1.511l-0.758 5.661c-0.205 1.526-0.607 2.936-1.076 3.772-0.086 0.155-0.085 0.344 0.005 0.498 0.090 0.153 0.254 0.247 0.432 0.247h1.555c3.338 0 6.054-2.785 6.054-6.265 0-3.061-2.154-5.585-5.090-6.068zM9.738 22.047l-0.758-5.632c-0.426-3.172 0.537-6.373 2.645-8.782 2.106-2.409 5.15-3.791 8.352-3.791s6.245 1.382 8.352 3.791c2.107 2.41 3.070 5.61 2.645 8.782l-0.758 5.633c-0.689 5.103-5.090 8.952-10.239 8.952-3.272 0-6.238-1.557-8.145-4h3.168c0.018 0 0.032-0.008 0.049-0.010 0.229 1.144 1.24 2.010 2.451 2.010h4c1.379 0 2.5-1.122 2.5-2.5s-1.121-2.5-2.5-2.5h-4c-1.211 0-2.222 0.866-2.451 2.010-0.017-0.002-0.031-0.010-0.049-0.010h-3.853c-0.718-1.181-1.215-2.514-1.409-3.953zM16 26.5c0-0.827 0.673-1.5 1.5-1.5h4c0.827 0 1.5 0.673 1.5 1.5s-0.673 1.5-1.5 1.5h-4c-0.827 0-1.5-0.673-1.5-1.5zM6.836 26h-0.781c-2.804 0-5.091-2.285-5.134-5.111 0.010-0.041 0.016-0.083 0.016-0.125 0-2.472 1.75-4.516 4.145-4.996 0.022 0.387 0.041 0.774 0.093 1.162l0.758 5.631c0.163 1.219 0.471 2.369 0.903 3.439zM33.945 26h-0.767c0.37-0.917 0.673-2.12 0.842-3.384l0.758-5.661c0.058-0.425 0.097-0.851 0.117-1.275 2.376 0.465 4.105 2.548 4.105 5.112 0 2.872-2.268 5.208-5.055 5.208z"></path>
</svg>
