<!-- Generated by IcoMoon.io -->
<svg version="1.1" xmlns="http://www.w3.org/2000/svg" width="34" height="32" viewBox="0 0 34 32">
<title>tab</title>
<path d="M34 29.492v-26.984c0-1.383-1.125-2.508-2.508-2.508h-28.984c-1.383 0-2.508 1.125-2.508 2.508v26.984c0 1.383 1.125 2.508 2.508 2.508h28.984c1.383 0 2.508-1.125 2.508-2.508zM1 29.492v-26.984c0.016-0.823 0.685-1.492 1.508-1.508h28.984c0.823 0.016 1.492 0.685 1.508 1.508v26.984c-0.016 0.822-0.685 1.492-1.508 1.508h-28.984c-0.823-0.016-1.492-0.685-1.508-1.508zM28 4.492c0 0.823-0.837 1.508-1.659 1.508h-0.133c-0.822 0-1.208-0.685-1.208-1.508v-1.492h-1v1.492c0 1.383 0.825 2.508 2.208 2.508h0.133c1.383 0 2.659-1.125 2.659-2.508v-1.492h-1v1.492zM19 4.492c0 0.823-1.104 1.508-1.926 1.508h-0.133c-0.822 0-1.941-0.685-1.941-1.508v-1.492h-1v1.492c0 1.383 1.559 2.508 2.941 2.508h0.133c1.383 0 2.926-1.125 2.926-2.508v-1.492h-1v1.492zM9 4.492c0 0.823-0.37 1.508-1.192 1.508h-0.133c-0.823 0-1.675-0.685-1.675-1.508v-1.492h-1v1.492c0 1.383 1.292 2.508 2.675 2.508h0.133c1.382 0 2.192-1.125 2.192-2.508v-1.492h-1v1.492zM7.808 25h-0.133c-1.383 0-2.675 1.109-2.675 2.492v0.508h1v-0.508c0-0.822 0.852-1.492 1.675-1.492h0.133c0.822 0 1.192 0.67 1.192 1.492v0.508h1v-0.508c0-1.383-0.81-2.492-2.192-2.492zM17.074 25h-0.133c-1.382 0-2.941 1.109-2.941 2.492v0.508h1v-0.508c0-0.822 1.119-1.492 1.941-1.492h0.133c0.822 0 1.926 0.67 1.926 1.492v0.508h1v-0.508c0-1.383-1.543-2.492-2.926-2.492zM26.341 25h-0.133c-1.383 0-2.208 1.109-2.208 2.492v0.508h1v-0.508c0-0.822 0.386-1.492 1.208-1.492h0.133c0.822 0 1.659 0.67 1.659 1.492v0.508h1v-0.508c0-1.383-1.276-2.492-2.659-2.492z"></path>
</svg>
