<!-- Generated by IcoMoon.io -->
<svg version="1.1" xmlns="http://www.w3.org/2000/svg" width="34" height="32" viewBox="0 0 34 32">
<title>table-lamp</title>
<path d="M2.12 32h16.758c1.169 0 2.121-0.897 2.121-2s-0.952-2-2.121-2h-7.718l-4.312-14.189c1.102-0.444 1.884-1.52 1.884-2.78 0-0.47-0.118-0.909-0.311-1.305l7.446-5.026c0.039 0.065 0.066 0.134 0.11 0.196l0.876 1.256c-2.793 2.947-3.265 7.478-1.086 10.939l0.687 1.091c0.276 0.439 0.751 0.701 1.271 0.701 0.27 0 0.536-0.073 0.769-0.212l4.293-2.566c0.769 1 1.945 1.551 3.151 1.551 0.703 0 1.415-0.187 2.059-0.578 0.906-0.551 1.543-1.422 1.793-2.452 0.211-0.867 0.109-1.755-0.252-2.556l3.735-2.233c0.35-0.209 0.595-0.542 0.689-0.938s0.027-0.804-0.189-1.148l-0.893-1.415c-1.646-2.614-4.488-4.174-7.604-4.174-1.108 0-2.187 0.2-3.211 0.594l-0.959-1.401c-0.582-0.849-1.544-1.355-2.575-1.355-0.615 0-1.211 0.18-1.724 0.521-0.704 0.468-1.179 1.183-1.336 2.013-0.078 0.41-0.072 0.822 0.011 1.218l-7.635 5.155c-0.543-0.54-1.29-0.875-2.115-0.875-1.654 0-3 1.346-3 3s1.346 3 3 3c0.046 0 0.088-0.011 0.134-0.013l4.248 13.981h-7.994c-1.169 0-2.121 0.897-2.121 2s0.951 2 2.121 2zM28.816 14.39c-0.188 0.77-0.664 1.421-1.341 1.833-1.272 0.774-2.891 0.469-3.818-0.64l5.021-3.001c0.232 0.572 0.287 1.197 0.138 1.808zM16.454 2.721c0.107-0.563 0.429-1.049 0.907-1.366 0.348-0.232 0.753-0.355 1.17-0.355 0.701 0 1.354 0.344 1.75 0.92l1.188 1.734c0.137 0.199 0.394 0.271 0.614 0.175 1.010-0.443 2.084-0.668 3.193-0.668 2.77 0 5.296 1.386 6.757 3.708l0.891 1.415c0.072 0.115 0.095 0.25 0.063 0.383s-0.113 0.243-0.229 0.312l-14.778 8.833c-0.231 0.136-0.541 0.059-0.68-0.163l-0.687-1.091c-2.003-3.182-1.484-7.383 1.235-9.989 0.178-0.17 0.205-0.445 0.064-0.647l-1.115-1.598c-0.329-0.47-0.45-1.040-0.343-1.603zM3.732 11.032c0-1.103 0.897-2 2-2s2 0.897 2 2-0.897 2-2 2-2-0.897-2-2zM2.12 29h16.758c0.618 0 1.121 0.449 1.121 1s-0.503 1-1.121 1h-16.758c-0.618 0-1.121-0.449-1.121-1s0.502-1 1.121-1z"></path>
</svg>
