<!-- Generated by IcoMoon.io -->
<svg version="1.1" xmlns="http://www.w3.org/2000/svg" width="27" height="32" viewBox="0 0 27 32">
<title>tag</title>
<path d="M21.060-0.024c-2.2 0-4.060 2.539-4.060 5.543v0.481h-0.775c-0.378 0-0.733 0.137-1.003 0.386l-14.743 13.674c-0.307 0.285-0.482 0.689-0.479 1.109 0.002 0.42 0.182 0.822 0.491 1.104l10.262 9.319c0.272 0.248 0.624 0.383 0.99 0.384 0.388 0 0.754-0.15 1.032-0.422l13.773-13.479c0.288-0.281 0.452-0.673 0.452-1.076v-9.52c0-0.815-0.665-1.479-1.482-1.479h-0.416c0.011-0.165 0.018-0.332 0.018-0.501 0-3.031-1.821-5.523-4.060-5.523zM18 5.519c0-2.42 1.43-4.542 3.060-4.542 1.659 0 3.061 2.060 3.061 4.498 0 0.18-0.021 0.351-0.035 0.525h-6.086v-0.481zM25.518 7c0.27 0 0.482 0.21 0.482 0.479v9.519c0 0.136-0.055 0.268-0.15 0.361l-13.774 13.479c-0.173 0.171-0.469 0.178-0.651 0.013l-10.262-9.318c-0.104-0.095-0.162-0.226-0.163-0.369s0.056-0.275 0.159-0.371l14.742-13.673c0.107-0.099 0.235-0.12 0.324-0.12h7.706c-0.208 0.859-0.58 1.597-1.067 2.118-0.013-0.013-0.021-0.028-0.034-0.040-0.984-0.946-2.69-0.947-3.675 0-0.497 0.478-0.771 1.115-0.771 1.793s0.273 1.316 0.771 1.794c0.492 0.473 1.145 0.734 1.837 0.734 0.693 0 1.346-0.261 1.838-0.734 0.497-0.479 0.771-1.116 0.771-1.794 0-0.306-0.063-0.602-0.17-0.88 0.733-0.718 1.283-1.77 1.535-2.992h0.552zM22.6 10.872c0 0.404-0.164 0.786-0.464 1.074-0.608 0.586-1.678 0.587-2.288 0-0.3-0.288-0.464-0.669-0.464-1.074 0-0.186 0.039-0.367 0.106-0.536 0.649 0.624 1.57 0.664 1.656 0.664 0.002 0 0.004 0 0.005 0 0.502 0 0.981-0.136 1.424-0.374 0.013 0.081 0.025 0.162 0.025 0.246zM20.16 9.57c0.249-0.144 0.532-0.226 0.831-0.226 0.391 0 0.757 0.138 1.049 0.379-0.283 0.135-0.578 0.228-0.891 0.228-0.031 0-0.623-0.011-0.989-0.381z"></path>
</svg>
