<!-- Generated by IcoMoon.io -->
<svg version="1.1" xmlns="http://www.w3.org/2000/svg" width="32" height="32" viewBox="0 0 32 32">
<title>target</title>
<path d="M17.5 15.5c0 0.828-0.672 1.5-1.5 1.5s-1.5-0.672-1.5-1.5c0-0.828 0.672-1.5 1.5-1.5s1.5 0.672 1.5 1.5zM0 17h3.599c0.705 5.859 5.474 10.477 11.401 10.949v4.051c0 0.276 0.224 0.5 0.5 0.5s0.5-0.224 0.5-0.5v-4c6.384 0 11.657-4.813 12.401-11h2.599c0.276 0 0.5-0.224 0.5-0.5s-0.224-0.5-0.5-0.5h-2.525c0.007-0.167 0.025-0.331 0.025-0.5 0-6.893-5.607-12.5-12.5-12.5v-2c0-0.276-0.224-0.5-0.5-0.5s-0.5 0.224-0.5 0.5v2.051c-6.425 0.512-11.5 5.894-11.5 12.449 0 0.169 0.019 0.333 0.025 0.5h-3.525c-0.276 0-0.5 0.224-0.5 0.5s0.224 0.5 0.5 0.5zM4.5 15.5c0-6.003 4.626-10.94 10.5-11.449v4.949c0 0.276 0.224 0.5 0.5 0.5s0.5-0.224 0.5-0.5v-5c6.341 0 11.5 5.159 11.5 11.5 0 0.169-0.018 0.333-0.025 0.5h-4.475c-0.276 0-0.5 0.224-0.5 0.5s0.224 0.5 0.5 0.5h4.391c-0.739 5.633-5.56 10-11.391 10v-4c0-0.276-0.224-0.5-0.5-0.5s-0.5 0.224-0.5 0.5v3.949c-5.375-0.466-9.694-4.642-10.391-9.949h4.391c0.276 0 0.5-0.224 0.5-0.5s-0.224-0.5-0.5-0.5h-4.475c-0.007-0.167-0.025-0.331-0.025-0.5z"></path>
</svg>
