<!-- Generated by IcoMoon.io -->
<svg version="1.1" xmlns="http://www.w3.org/2000/svg" width="31" height="32" viewBox="0 0 31 32">
<title>target-arrow</title>
<path d="M23 4.5c-0.276 0-0.5 0.224-0.5 0.5v3.229l-2.295 2.26c-2.146-2.006-5.017-3.244-8.179-3.244-6.617 0-12 5.383-12 12 0 3.531 1.542 6.7 3.977 8.898l-2.355 3.024c-0.17 0.218-0.131 0.532 0.087 0.702 0.092 0.071 0.2 0.105 0.308 0.105 0.148 0 0.296-0.066 0.395-0.193l2.335-2.999c2.017 1.538 4.527 2.463 7.254 2.463 2.724 0 5.231-0.923 7.247-2.458l2.271 3.013c0.097 0.131 0.246 0.2 0.397 0.2 0.105 0 0.211-0.033 0.301-0.101 0.221-0.167 0.265-0.48 0.099-0.7l-2.299-3.051c2.438-2.198 3.982-5.37 3.982-8.903 0-3.096-1.188-5.912-3.12-8.043l2.238-2.202h3.357c0.276 0 0.5-0.224 0.5-0.5s-0.224-0.5-0.5-0.5h-2.342l1.016-1h3.326c0.276 0 0.5-0.224 0.5-0.5s-0.224-0.5-0.5-0.5h-2.311l1.016-1h3.295c0.276 0 0.5-0.224 0.5-0.5s-0.224-0.5-0.5-0.5h-3v-3c0-0.276-0.224-0.5-0.5-0.5s-0.5 0.224-0.5 0.5v3.291l-1 0.985v-2.276c0-0.276-0.224-0.5-0.5-0.5s-0.5 0.224-0.5 0.5v3.26l-1 0.985v-2.245c0-0.276-0.224-0.5-0.5-0.5zM23.025 19.246c0 6.065-4.935 11-11 11s-11-4.935-11-11 4.935-11 11-11c2.883 0 5.503 1.124 7.467 2.946l-2.137 2.105c-1.417-1.27-3.281-2.051-5.329-2.051-4.411 0-8 3.589-8 8s3.589 8 8 8 8-3.589 8-8c0-2.004-0.746-3.833-1.968-5.238l2.136-2.103c1.754 1.949 2.831 4.518 2.831 7.341zM15.025 19.246c0 1.654-1.346 3-3 3s-3-1.346-3-3 1.346-3 3-3c0.655 0 1.257 0.217 1.751 0.574l-2.101 2.069c-0.197 0.194-0.199 0.511-0.006 0.707 0.098 0.1 0.228 0.149 0.356 0.149s0.254-0.048 0.351-0.144l2.104-2.072c0.341 0.488 0.545 1.078 0.545 1.717zM14.489 16.118c-0.681-0.538-1.53-0.873-2.463-0.873-2.206 0-4 1.794-4 4s1.794 4 4 4 4-1.794 4-4c0-0.911-0.318-1.743-0.834-2.416l2.154-2.121c1.045 1.223 1.68 2.806 1.68 4.537 0 3.86-3.141 7-7 7s-7-3.14-7-7 3.141-7 7-7c1.769 0 3.383 0.665 4.617 1.752l-2.154 2.121z"></path>
</svg>
