<!-- Generated by IcoMoon.io -->
<svg version="1.1" xmlns="http://www.w3.org/2000/svg" width="32" height="32" viewBox="0 0 32 32">
<title>terminal</title>
<path d="M30.5 0h-29c-0.827 0-1.5 0.673-1.5 1.5v29c0 0.827 0.673 1.5 1.5 1.5h29c0.827 0 1.5-0.673 1.5-1.5v-29c0-0.827-0.673-1.5-1.5-1.5zM31 30.5c0 0.275-0.224 0.5-0.5 0.5h-29c-0.276 0-0.5-0.225-0.5-0.5v-29c0-0.275 0.224-0.5 0.5-0.5h29c0.276 0 0.5 0.225 0.5 0.5v29zM4.146 4.146c-0.195 0.195-0.195 0.512 0 0.707l3.66 3.66-3.66 3.66c-0.195 0.195-0.195 0.512 0 0.707 0.098 0.098 0.226 0.146 0.354 0.146s0.256-0.049 0.354-0.146l4.367-4.367-4.367-4.367c-0.196-0.195-0.512-0.195-0.708 0zM18 10h-7c-0.276 0-0.5 0.224-0.5 0.5s0.224 0.5 0.5 0.5h7c0.276 0 0.5-0.224 0.5-0.5s-0.224-0.5-0.5-0.5z"></path>
</svg>
