<!-- Generated by IcoMoon.io -->
<svg version="1.1" xmlns="http://www.w3.org/2000/svg" width="32" height="32" viewBox="0 0 32 32">
<title>tick</title>
<path d="M16 0c-8.822 0-16 7.178-16 16s7.178 16 16 16 16-7.178 16-16-7.178-16-16-16zM16 31c-8.271 0-15-6.729-15-15s6.729-15 15-15 15 6.729 15 15-6.729 15-15 15zM22.634 10.165l-8.546 9.21c-0.19 0.208-0.542 0.206-0.732 0l-3.989-4.299c-0.189-0.203-0.507-0.215-0.707-0.026-0.203 0.188-0.215 0.504-0.026 0.706l3.988 4.299c0.283 0.306 0.685 0.48 1.101 0.48s0.816-0.175 1.099-0.48l8.545-9.21c0.188-0.202 0.177-0.519-0.026-0.706-0.201-0.188-0.519-0.178-0.707 0.026z"></path>
</svg>
