<!-- Generated by IcoMoon.io -->
<svg version="1.1" xmlns="http://www.w3.org/2000/svg" width="45" height="32" viewBox="0 0 45 32">
<title>tie-knot</title>
<path d="M42.043 0.483c-1.749-0.837-3.726-0.583-5.294 0.681l-10.728 8.831c-0.076 0.063-0.12 0.145-0.149 0.233-0.727-0.754-1.743-1.228-2.872-1.228-1.108 0-2.111 0.454-2.836 1.184l-11.419-9.023c-1.598-1.288-3.77-1.523-5.671-0.613-1.896 0.908-3.074 2.75-3.074 4.809v21.286c0 2.059 1.178 3.901 3.074 4.809 0.769 0.367 1.581 0.548 2.382 0.548 1.181 0 2.335-0.392 3.284-1.156l10.958-8.591c0.722 1.053 1.932 1.747 3.302 1.747 1.384 0 2.604-0.707 3.323-1.777l10.43 8.617c0.955 0.77 2.064 1.164 3.182 1.164 0.712 0 1.428-0.161 2.108-0.486 1.824-0.873 2.957-2.741 2.957-4.875v-21.286c0-2.134-1.133-4.002-2.957-4.874zM8.118 30.061c-1.296 1.043-3.064 1.229-4.612 0.489-1.546-0.74-2.506-2.237-2.506-3.907v-21.286c0-1.67 0.96-3.167 2.506-3.907 1.548-0.741 3.317-0.555 4.616 0.492l11.443 9.042c-0.35 0.594-0.565 1.278-0.565 2.016v7c0 0.471 0.096 0.916 0.247 1.336l-11.129 8.725zM23 23c-1.654 0-3-1.346-3-3v-7c0-1.654 1.346-3 3-3s3 1.346 3 3v7c0 1.654-1.346 3-3 3zM44 26.643c0 1.745-0.915 3.267-2.389 3.972-1.392 0.666-2.975 0.458-4.227-0.55l-10.618-8.772c0.141-0.408 0.234-0.838 0.234-1.293v-7c0-0.784-0.235-1.511-0.627-2.129 0.1-0.007 0.2-0.035 0.283-0.103l10.724-8.829c1.26-1.013 2.841-1.219 4.231-0.554 1.474 0.705 2.389 2.227 2.389 3.972v21.286zM17 16h-7c-0.276 0-0.5 0.224-0.5 0.5s0.224 0.5 0.5 0.5h7c0.276 0 0.5-0.224 0.5-0.5s-0.224-0.5-0.5-0.5zM36 16h-7c-0.276 0-0.5 0.224-0.5 0.5s0.224 0.5 0.5 0.5h7c0.276 0 0.5-0.224 0.5-0.5s-0.224-0.5-0.5-0.5z"></path>
</svg>
