<!-- Generated by IcoMoon.io -->
<svg version="1.1" xmlns="http://www.w3.org/2000/svg" width="15" height="32" viewBox="0 0 15 32">
<title>tie</title>
<path d="M12.884 7.868l1.569-6c0.114-0.442 0.019-0.904-0.263-1.269-0.294-0.38-0.745-0.599-1.236-0.599h-10.908c-0.491 0-0.942 0.219-1.236 0.6-0.282 0.364-0.377 0.826-0.262 1.268l1.568 6c0.174 0.667 0.789 1.132 1.497 1.132h7.773c0.709 0 1.324-0.465 1.498-1.132zM3.083 7.616l-1.567-6c-0.051-0.191 0.031-0.336 0.085-0.405 0.103-0.134 0.266-0.211 0.445-0.211h10.908c0.179 0 0.342 0.077 0.445 0.211 0.054 0.069 0.136 0.214 0.086 0.405l-1.568 6c-0.060 0.226-0.277 0.384-0.53 0.384h-7.774c-0.253 0-0.47-0.158-0.53-0.384zM0.765 28.416l5.964 3.386c0.231 0.132 0.49 0.197 0.75 0.197s0.519-0.065 0.751-0.197l6.005-3.41c0.539-0.305 0.835-0.897 0.753-1.506l-1.939-15.448c-0.034-0.274-0.29-0.473-0.559-0.434-0.273 0.034-0.468 0.284-0.434 0.559l1.94 15.452c0.027 0.205-0.072 0.404-0.255 0.508l-6.005 3.409c-0.16 0.090-0.355 0.091-0.514 0.001l-5.964-3.386c-0.191-0.109-0.292-0.326-0.248-0.546l2.9-15.408c0.051-0.271-0.127-0.533-0.398-0.584-0.27-0.053-0.533 0.126-0.584 0.398l-2.899 15.404c-0.128 0.637 0.168 1.283 0.736 1.605zM10.418 21.158l-6 1c-0.272 0.045-0.457 0.303-0.411 0.575 0.041 0.245 0.253 0.418 0.492 0.418 0.027 0 0.056-0.002 0.083-0.007l6-1c0.272-0.045 0.457-0.303 0.411-0.575-0.046-0.273-0.308-0.46-0.575-0.411zM10.418 25.158l-6 1c-0.272 0.045-0.457 0.303-0.411 0.575 0.041 0.245 0.253 0.418 0.492 0.418 0.027 0 0.056-0.002 0.083-0.007l6-1c0.272-0.045 0.457-0.303 0.411-0.575-0.046-0.273-0.308-0.461-0.575-0.411zM10.418 17.158l-6 1c-0.272 0.045-0.457 0.303-0.411 0.575 0.041 0.245 0.253 0.418 0.492 0.418 0.027 0 0.056-0.002 0.083-0.007l6-1c0.272-0.045 0.457-0.303 0.411-0.575-0.046-0.273-0.308-0.459-0.575-0.411z"></path>
</svg>
