<!-- Generated by IcoMoon.io -->
<svg version="1.1" xmlns="http://www.w3.org/2000/svg" width="32" height="32" viewBox="0 0 32 32">
<title>tools</title>
<path d="M1.836 23.001c-1.042 0.891-1.672 2.188-1.728 3.559-0.056 1.37 0.467 2.714 1.435 3.687 0.935 0.939 2.179 1.457 3.504 1.457 1.424 0 2.778-0.613 3.716-1.681l6.626-7.474 7.739 7.739c0.916 0.916 2.134 1.421 3.429 1.421 1.296 0 2.514-0.505 3.43-1.421s1.421-2.134 1.421-3.43c0-1.295-0.505-2.513-1.421-3.429l-8.152-8.152 2.042-2.303c0.604 0.172 1.225 0.259 1.848 0.259 1.903 0 3.659-0.817 4.818-2.242 1.601-1.967 1.8-4.746 0.507-7.080-0.291-0.524-1.166-0.503-1.443 0.031l-1.473 2.837c-0.354 0.683-1.248 0.967-1.937 0.612l-1.502-0.782c-0.341-0.176-0.592-0.475-0.707-0.84s-0.082-0.754 0.094-1.094l1.66-3.188c0.133-0.256 0.124-0.556-0.025-0.804-0.146-0.242-0.401-0.39-0.75-0.392-1.903 0-3.66 0.816-4.819 2.241-1.285 1.579-1.679 3.691-1.079 5.712l-5.612 4.806-7.718-7.716c0.465-0.676 0.607-1.515 0.341-2.322-0.312-0.947-1.078-1.632-2.047-1.835l-2.063-0.433c-0.426-0.091-0.87 0.043-1.177 0.351-0.309 0.309-0.44 0.749-0.351 1.177l0.433 2.063c0.265 1.266 1.396 2.186 2.69 2.186 0.537 0 1.038-0.166 1.476-0.47l7.653 7.653-10.858 9.297zM3.565 5.538c-0.706 0-1.521-0.46-1.712-1.373l-0.432-2.029c-0.020-0.096 0.010-0.126 0.079-0.195 0.050-0.050 0.115 0.059 0.23 0.059 0.011 0 0.022 0 0.034 0l2.063 0.295c0.617 0.129 1.104 0.429 1.303 1.032 0.189 0.573 0.067 1.18-0.319 1.616l-0.168 0.173c-0.304 0.27-0.677 0.422-1.078 0.422zM29.279 24.137c0.728 0.727 1.128 1.693 1.128 2.722s-0.4 1.996-1.128 2.723c-1.452 1.455-3.99 1.455-5.444 0l-7.782-7.782 5.117-5.772 8.109 8.109zM20.118 8.242c-0.63-1.786-0.329-3.685 0.805-5.078 0.907-1.114 2.257-1.784 3.789-1.864l-1.518 2.914c-0.299 0.578-0.356 1.237-0.16 1.857s0.623 1.127 1.2 1.426l1.502 0.782c0.347 0.179 0.733 0.273 1.121 0.273 0.913 0 1.742-0.503 2.163-1.312l1.315-2.533c0.913 1.905 0.703 4.091-0.568 5.653-1.347 1.654-3.753 2.286-5.891 1.567-0.19-0.063-0.399-0.008-0.534 0.142l-15.329 17.291c-0.749 0.854-1.83 1.343-2.966 1.343-1.057 0-2.050-0.413-2.795-1.162-0.783-0.787-1.189-1.832-1.145-2.941s0.534-2.117 1.379-2.839l17.486-14.973c0.157-0.135 0.215-0.351 0.146-0.546zM19.877 21.033l6.026 6.026c0.098 0.098 0.226 0.146 0.354 0.146s0.256-0.049 0.354-0.146c0.195-0.195 0.195-0.512 0-0.707l-6.026-6.026c-0.195-0.195-0.512-0.195-0.707 0s-0.196 0.512-0.001 0.707zM5.065 24.769c-1.103 0-2 0.897-2 2s0.897 2 2 2 2-0.897 2-2-0.897-2-2-2zM5.065 27.769c-0.552 0-1-0.448-1-1s0.448-1 1-1 1 0.448 1 1-0.448 1-1 1z"></path>
</svg>
