<!-- Generated by IcoMoon.io -->
<svg version="1.1" xmlns="http://www.w3.org/2000/svg" width="19" height="32" viewBox="0 0 19 32">
<title>tree</title>
<path d="M8.5 23.664v7.336h-2c-0.276 0-0.5 0.224-0.5 0.5s0.224 0.5 0.5 0.5h5c0.276 0 0.5-0.224 0.5-0.5s-0.224-0.5-0.5-0.5h-2v-7.269c5.238 0 9.5-5.323 9.5-11.865 0-6.543-4.262-11.866-9.5-11.866s-9.5 5.323-9.5 11.866c0 6.12 3.73 11.171 8.5 11.798zM9.5 1c4.687 0 8.5 4.875 8.5 10.866s-3.813 10.865-8.5 10.865v-7.828l5.854-5.661c0.195-0.195 0.195-0.513 0-0.709s-0.512-0.198-0.708-0.003l-5.146 5.135v-4.665c0-0.276-0.224-0.5-0.5-0.5s-0.5 0.224-0.5 0.5v4.488l-4.116-4.95c-0.176-0.212-0.492-0.264-0.704-0.088s-0.241 0.445-0.064 0.657l4.884 5.768v7.774c-4.217-0.636-7.5-5.225-7.5-10.783 0-5.991 3.813-10.866 8.5-10.866z"></path>
</svg>
