<!-- Generated by IcoMoon.io -->
<svg version="1.1" xmlns="http://www.w3.org/2000/svg" width="32" height="32" viewBox="0 0 32 32">
<title>twitter</title>
<path d="M16-0.035c-8.841 0-16.035 7.194-16.035 16.035s7.194 16.035 16.035 16.035 16.035-7.194 16.035-16.035-7.194-16.035-16.035-16.035zM16 30.965c-8.252 0-14.965-6.713-14.965-14.965s6.713-14.965 14.965-14.965 14.965 6.713 14.965 14.965-6.713 14.965-14.965 14.965zM20.5 12h-3.5v-3.5c0-0.276-0.224-0.5-0.5-0.5h-2.581c-0.256 0-0.471 0.194-0.498 0.449-0.092 0.907-0.25 1.354-0.509 1.863-0.238 0.47-0.56 0.88-0.979 1.238-0.407 0.346-0.675 0.575-1.533 0.75-0.233 0.047-0.4 0.252-0.4 0.49v2.71c0 0.276 0.224 0.5 0.5 0.5h1.5v4.667c0 0.693 0.071 0.895 0.207 1.218l0.059 0.143c0.005 0.013 0.513 1.268 1.113 1.785 0.447 0.384 0.988 0.682 1.608 0.886 0.596 0.195 1.072 0.301 1.881 0.301 0.678 0 1.321-0.070 1.913-0.207 0.1-0.023 0.224-0.049 0.359-0.077 0.998-0.204 1.86-0.38 1.86-1.049v-2.406c0-0.175-0.092-0.337-0.242-0.428-0.15-0.090-0.336-0.096-0.491-0.014-0.981 0.517-1.172 0.576-1.857 0.576-0.366 0-0.679-0.081-0.961-0.25-0.105-0.062-0.449-0.461-0.449-2.986v-2.159h3.5c0.276 0 0.5-0.224 0.5-0.5v-3c0-0.276-0.224-0.5-0.5-0.5zM20 15h-3.5c-0.276 0-0.5 0.224-0.5 0.5v2.659c0 2.733 0.376 3.515 0.938 3.846 0.432 0.259 0.927 0.39 1.472 0.39 0.662 0 1.035-0.074 1.59-0.325v1.399c-0.253 0.102-0.803 0.215-1.060 0.268-0.147 0.030-0.281 0.057-0.387 0.083-0.516 0.118-1.084 0.18-1.685 0.18-0.679 0-1.061-0.084-1.569-0.251-0.495-0.163-0.921-0.396-1.268-0.694-0.288-0.248-0.669-0.981-0.836-1.397l-0.066-0.16c-0.096-0.229-0.129-0.307-0.129-0.831v-5.167c0-0.276-0.224-0.5-0.5-0.5h-1.5v-1.814c0.817-0.223 1.178-0.531 1.603-0.893 0.5-0.425 0.904-0.939 1.202-1.528 0.253-0.497 0.44-0.986 0.556-1.765h1.639v3.5c0 0.276 0.224 0.5 0.5 0.5h3.5v2z"></path>
</svg>
