<!-- Generated by IcoMoon.io -->
<svg version="1.1" xmlns="http://www.w3.org/2000/svg" width="39" height="32" viewBox="0 0 39 32">
<title>ufo</title>
<path d="M19.021 6c1.654 0 3-1.346 3-3s-1.346-3-3-3-3 1.346-3 3 1.346 3 3 3zM19.021 1c1.103 0 2 0.897 2 2s-0.897 2-2 2-2-0.897-2-2 0.897-2 2-2zM31.141 16.011c-0.009-0.002-0.017 0.116-0.026 0.115-1.313-4.914-5.781-8.126-11.596-8.126-0.006 0-0.013 0-0.019 0v-1c0-0.276-0.224-0.5-0.5-0.5s-0.5 0.224-0.5 0.5v0.814c-5.349 0.368-9.396 3.62-10.598 8.278-6.498 1.452-7.951 3.93-7.951 5.766 0 2.364 2.549 4.79 7.549 6.374v1.682c0 0.867 0.576 1.63 1.357 1.943 0.758 0.304 1.62 0.122 2.193-0.478l1.819-1.885c4.309 0.688 8.964 0.689 13.278 0l1.807 1.886c0.39 0.407 0.899 0.623 1.423 0.623 0.246 0 0.544-0.047 0.786-0.145 0.782-0.313 1.336-1.076 1.336-1.943v-1.685c5-1.584 7.569-4.009 7.569-6.373 0.001-2.77-2.698-4.737-7.927-5.846zM19.522 8.771c6.373 0 10.998 4.33 10.999 10.314 0 0.024 0.002 0.589-0.675 1.278-1.079 1.098-3.747 2.407-10.325 2.407-6.579 0-9.246-1.309-10.325-2.407-0.678-0.689-0.676-1.254-0.675-1.298 0-5.965 4.625-10.294 11.001-10.294zM30.799 27.393c-0.207 0.066-0.299 0.259-0.299 0.476v2.044c0 0.554-0.388 0.888-0.707 1.016-0.376 0.15-0.798 0.062-1.087-0.241l-1.996-2.076c-0.114-0.119-0.287-0.172-0.449-0.147-4.369 0.729-9.106 0.728-13.467 0-0.166-0.025-0.331 0.028-0.445 0.148l-1.984 2.075c-0.29 0.303-0.757 0.392-1.134 0.241-0.318-0.128-0.73-0.462-0.73-1.016v-2.043c0-0.217-0.070-0.41-0.277-0.476-4.418-1.42-7.237-3.593-7.237-5.536 0-2.005 2.378-3.658 6.676-4.69-0.095 0.605-0.149 1.224-0.149 1.866-0.006 0.097-0.027 0.977 0.898 1.96 1.191 1.267 4.087 2.776 11.108 2.776 7.020 0 9.915-1.509 11.106-2.776 0.925-0.983 0.9-1.863 0.895-1.93 0-0.683-0.067-1.342-0.173-1.983 3.14 0.716 6.698 2.112 6.698 4.776-0.001 1.942-2.831 4.115-7.247 5.536z"></path>
</svg>
