<!-- Generated by IcoMoon.io -->
<svg version="1.1" xmlns="http://www.w3.org/2000/svg" width="27" height="32" viewBox="0 0 27 32">
<title>umbralla</title>
<path d="M13.501 9c-4.018 0-7.619 2.548-8.961 6.34-0.092 0.261 0.044 0.546 0.304 0.639 0.055 0.020 0.112 0.028 0.167 0.028 0.206 0 0.399-0.128 0.471-0.333 1.202-3.394 4.424-5.674 8.019-5.674 0.276 0 0.5-0.224 0.5-0.5s-0.224-0.5-0.5-0.5zM13.5 3v-2c0-0.276-0.224-0.5-0.5-0.5s-0.5 0.224-0.5 0.5v2c0 0.276 0.224 0.5 0.5 0.5s0.5-0.224 0.5-0.5zM9 28.5c-0.276 0-0.5 0.224-0.5 0.5v0.5c0 1.379 1.122 2.5 2.5 2.5s2.5-1.121 2.5-2.5v-8.5c0-0.276-0.224-0.5-0.5-0.5s-0.5 0.224-0.5 0.5v8.5c0 0.827-0.673 1.5-1.5 1.5s-1.5-0.673-1.5-1.5v-0.5c0-0.276-0.224-0.5-0.5-0.5zM26.641 18.515c0.287-0.312 0.432-0.735 0.396-1.159-0.584-6.929-6.511-12.356-13.494-12.356s-12.912 5.427-13.495 12.355c-0.036 0.424 0.108 0.846 0.395 1.158 0.284 0.31 0.687 0.487 1.106 0.487h23.986c0.419 0 0.821-0.177 1.106-0.485zM1.179 17.837c-0.1-0.108-0.147-0.249-0.135-0.397 0.54-6.416 6.030-11.44 12.499-11.44 6.467 0 11.957 5.024 12.498 11.439 0.012 0.147-0.036 0.289-0.136 0.397-0.097 0.106-0.228 0.164-0.37 0.164h-23.986c-0.142 0-0.273-0.058-0.37-0.163z"></path>
</svg>
