<!-- Generated by IcoMoon.io -->
<svg version="1.1" xmlns="http://www.w3.org/2000/svg" width="28" height="32" viewBox="0 0 28 32">
<title>unlock</title>
<path d="M13 25.996c0 0.001 0 0.003 0 0.004v3c0 0.276 0.224 0.5 0.5 0.5s0.5-0.224 0.5-0.5v-2.964c2.062-0.158 3.697-1.867 3.697-3.969 0-2.206-1.794-4-4-4s-4 1.794-4 4c0 1.967 1.303 3.597 3.303 3.929zM13.697 19.066c1.654 0 3 1.346 3 3s-1.346 3-3 3-3-1.346-3-3 1.346-3 3-3zM14.907 1c3.134 0 5.684 2.586 5.684 5.765 0 0.276 0.224 0.5 0.5 0.5s0.5-0.224 0.5-0.5c0-3.73-2.998-6.765-6.733-6.765-3.717 0-6.858 3.177-6.858 6.938v5.062h-6.5c-0.827 0-1.5 0.673-1.5 1.5v17c0 0.827 0.673 1.5 1.5 1.5h25c0.827 0 1.5-0.673 1.5-1.5v-17c0-0.827-0.673-1.5-1.5-1.5h-17.5v-5.062c0-3.164 2.737-5.938 5.907-5.938zM26.5 13c0.275 0 0.5 0.224 0.5 0.5v17c0 0.276-0.225 0.5-0.5 0.5h-25c-0.275 0-0.5-0.224-0.5-0.5v-17c0-0.276 0.225-0.5 0.5-0.5h25z"></path>
</svg>
