<!-- Generated by IcoMoon.io -->
<svg version="1.1" xmlns="http://www.w3.org/2000/svg" width="27" height="32" viewBox="0 0 27 32">
<title>user-ID</title>
<path d="M8.853 16.702c-2.569 0.661-3.038 2.977-3.043 3-0.051 0.269 0.124 0.527 0.392 0.582 0.033 0.007 0.066 0.010 0.1 0.010 0.23 0 0.438-0.162 0.489-0.396 0.016-0.071 0.399-1.736 2.312-2.228 2.13-0.548 3.67-1.081 4.097-2.947 0.041-0.177-0.019-0.362-0.153-0.483-0.12-0.108-1.185-1.089-1.587-2.374-0.013-0.039-0.055-0.118-0.076-0.153-0.019-0.031-0.041-0.059-0.065-0.085-0.272-0.284-0.729-0.895-0.715-1.379 0.006-0.191 0.082-0.346 0.24-0.488 0.089-0.080 0.146-0.189 0.161-0.308 0.055-0.426 0.628-4.158 3.88-4.158 3.188 0 3.746 3.787 3.8 4.218 0.011 0.092 0.048 0.178 0.105 0.25 0.081 0.102 0.447 0.656-0.318 1.546-0.024 0.028-0.067 0.1-0.084 0.132-0.018 0.033-0.031 0.068-0.041 0.104-0.046 0.167-0.479 1.666-1.779 2.787-0.136 0.117-0.198 0.297-0.165 0.473 0.047 0.242 0.541 2.379 3.543 2.701 2.058 0.22 2.877 2.426 2.884 2.444 0.090 0.262 0.378 0.397 0.636 0.309 0.262-0.090 0.399-0.375 0.31-0.636-0.010-0.028-1.007-2.821-3.722-3.111-1.811-0.194-2.406-1.162-2.592-1.642 1.27-1.214 1.739-2.666 1.824-2.976 1.037-1.258 0.597-2.269 0.375-2.627-0.271-1.905-1.559-4.974-4.775-4.974-3.808 0-4.686 3.881-4.847 4.857-0.274 0.304-0.425 0.669-0.436 1.070-0.026 0.925 0.701 1.789 0.931 2.033 0.392 1.172 1.196 2.090 1.616 2.512-0.355 1.021-1.311 1.425-3.297 1.937zM4.5 23.5c0 0.276 0.224 0.5 0.5 0.5h18c0.276 0 0.5-0.224 0.5-0.5s-0.224-0.5-0.5-0.5h-18c-0.276 0-0.5 0.224-0.5 0.5zM20 27h-12c-0.276 0-0.5 0.224-0.5 0.5s0.224 0.5 0.5 0.5h12c0.276 0 0.5-0.224 0.5-0.5s-0.224-0.5-0.5-0.5zM18 31h-8c-0.276 0-0.5 0.224-0.5 0.5s0.224 0.5 0.5 0.5h8c0.276 0 0.5-0.224 0.5-0.5s-0.224-0.5-0.5-0.5zM25.5 0h-24c-0.827 0-1.5 0.673-1.5 1.5v29c0 0.827 0.673 1.5 1.5 1.5h5.5c0.276 0 0.5-0.224 0.5-0.5s-0.224-0.5-0.5-0.5h-5.5c-0.275 0-0.5-0.224-0.5-0.5v-29c0-0.276 0.225-0.5 0.5-0.5h24c0.275 0 0.5 0.224 0.5 0.5v29c0 0.276-0.225 0.5-0.5 0.5h-4.5c-0.276 0-0.5 0.224-0.5 0.5s0.224 0.5 0.5 0.5h4.5c0.827 0 1.5-0.673 1.5-1.5v-29c0-0.827-0.673-1.5-1.5-1.5z"></path>
</svg>
