<!-- Generated by IcoMoon.io -->
<svg version="1.1" xmlns="http://www.w3.org/2000/svg" width="38" height="32" viewBox="0 0 38 32">
<title>video-cam</title>
<path d="M27.493 32c0.831 0 1.507-0.673 1.507-1.5v-19c0-0.827-0.676-1.5-1.507-1.5h-2.043c-0.276 0-0.5 0.224-0.5 0.5s0.224 0.5 0.5 0.5h2.043c0.279 0 0.507 0.224 0.507 0.5v19c0 0.276-0.228 0.5-0.507 0.5h-25.986c-0.279 0-0.507-0.224-0.507-0.5v-19c0-0.276 0.228-0.5 0.507-0.5h2.043c0.276 0 0.5-0.224 0.5-0.5s-0.223-0.5-0.499-0.5h-2.044c-0.831 0-1.507 0.673-1.507 1.5v19c0 0.827 0.676 1.5 1.507 1.5h25.986zM37.161 12.621c-0.465-0.219-0.983-0.148-1.387 0.187l-4.594 3.822c-0.212 0.177-0.241 0.492-0.064 0.704 0.175 0.211 0.491 0.241 0.704 0.064l4.594-3.822c0.103-0.085 0.211-0.102 0.323-0.050 0.121 0.057 0.263 0.219 0.263 0.487v13.969c0 0.268-0.142 0.429-0.264 0.486-0.112 0.052-0.22 0.034-0.323-0.051l-4.594-3.815c-0.213-0.177-0.527-0.147-0.704 0.065-0.176 0.212-0.147 0.527 0.065 0.704l4.594 3.815c0.248 0.206 0.54 0.312 0.835 0.312 0.185 0 0.372-0.042 0.551-0.125 0.519-0.243 0.84-0.776 0.84-1.392v-13.968c0-0.616-0.322-1.149-0.839-1.392zM9.442 11c0.018 0 0.035-0.002 0.052-0.003 0.005 0 0.009 0.003 0.014 0.003h10.073c0.016 0 0.030-0.008 0.046-0.009 2.947-0.098 5.315-2.52 5.315-5.491 0-3.033-2.467-5.5-5.5-5.5-2.22 0-4.132 1.324-5 3.222-0.868-1.898-2.78-3.222-5-3.222-3.033 0-5.5 2.467-5.5 5.5s2.468 5.5 5.5 5.5zM12.595 10c0.798-0.561 1.438-1.327 1.848-2.222 0.409 0.895 1.050 1.662 1.848 2.222h-3.696zM19.442 1c2.481 0 4.5 2.019 4.5 4.5s-2.019 4.5-4.5 4.5-4.5-2.019-4.5-4.5 2.019-4.5 4.5-4.5zM9.442 1c2.481 0 4.5 2.019 4.5 4.5s-2.019 4.5-4.5 4.5-4.5-2.019-4.5-4.5 2.019-4.5 4.5-4.5z"></path>
</svg>
