<!-- Generated by IcoMoon.io -->
<svg version="1.1" xmlns="http://www.w3.org/2000/svg" width="37" height="32" viewBox="0 0 37 32">
<title>weather-cloud</title>
<path d="M30.966 13.633c-0.916-4.252-4.696-7.32-9.068-7.32-2.441 0-4.716 0.936-6.456 2.628-1.205-0.425-2.489-0.657-3.814-0.657-6.411-0.001-11.628 5.319-11.628 11.857 0 6.539 5.217 11.859 11.629 11.859h16.060c5.134 0 9.311-4.258 9.311-9.493 0-4.057-2.514-7.518-6.034-8.874zM21.898 7.312c3.707 0 6.942 2.471 7.956 5.971-0.696-0.17-1.419-0.27-2.165-0.27-2.104 0-4.048 0.715-5.609 1.92-1.203-2.514-3.208-4.462-5.62-5.583 1.507-1.316 3.409-2.038 5.438-2.038zM27.689 31h-16.060c-5.861 0-10.629-4.871-10.629-10.859s4.768-10.858 10.629-10.858c1.273 0 2.506 0.233 3.655 0.661 0.057 0.036 0.118 0.060 0.183 0.070 2.54 1.002 4.65 2.981 5.826 5.6-1.794 1.731-2.915 4.181-2.915 6.893 0 0.276 0.224 0.5 0.5 0.5s0.5-0.224 0.5-0.5c0-2.525 1.083-4.795 2.8-6.353 0.034-0.023 0.064-0.051 0.090-0.081 1.456-1.283 3.351-2.060 5.42-2.060 4.583 0 8.311 3.81 8.311 8.493s-3.728 8.494-8.31 8.494zM30.538 8.123c0.128 0 0.256-0.049 0.354-0.146l2.167-2.168c0.195-0.195 0.195-0.512 0-0.707s-0.512-0.195-0.707 0l-2.167 2.168c-0.195 0.195-0.195 0.512 0 0.707 0.097 0.097 0.225 0.146 0.353 0.146zM18.063 4.76c0.091 0.165 0.262 0.257 0.438 0.257 0.082 0 0.166-0.020 0.242-0.063 0.242-0.134 0.329-0.438 0.194-0.68l-1.421-2.558c-0.134-0.242-0.439-0.329-0.68-0.194-0.242 0.134-0.329 0.438-0.194 0.68l1.421 2.558zM26.482 0.319l-1.427 3.682c-0.1 0.257 0.028 0.547 0.286 0.647 0.060 0.023 0.121 0.034 0.181 0.034 0.2 0 0.39-0.121 0.466-0.319l1.427-3.682c0.1-0.257-0.028-0.547-0.286-0.647-0.257-0.101-0.547 0.028-0.647 0.285z"></path>
</svg>
