<!-- Generated by IcoMoon.io -->
<svg version="1.1" xmlns="http://www.w3.org/2000/svg" width="27" height="32" viewBox="0 0 27 32">
<title>webcam2</title>
<path d="M19 13c0-3.032-2.468-5.5-5.5-5.5s-5.5 2.468-5.5 5.5 2.468 5.5 5.5 5.5 5.5-2.468 5.5-5.5zM9 13c0-2.481 2.019-4.5 4.5-4.5s4.5 2.019 4.5 4.5-2.019 4.5-4.5 4.5-4.5-2.019-4.5-4.5zM0.226 30.753c0.376 0.769 1.14 1.247 1.994 1.247 0.338 0 0.665-0.076 0.977-0.228 0.047-0.022 4.757-2.305 10.873-2.305 3.526 0 6.786 0.768 9.69 2.283 1.058 0.547 2.445 0.103 2.991-0.951 0.562-1.088 0.138-2.434-0.946-3-2.496-1.301-5.188-2.143-8.031-2.536 5.072-1.773 8.726-6.594 8.726-12.263 0-7.168-5.832-13-13-13s-13 5.832-13 13c0 5.763 3.773 10.656 8.976 12.355-4.584 0.697-7.789 2.203-8.233 2.42-1.097 0.539-1.554 1.874-1.017 2.978zM1.5 13c0-6.617 5.383-12 12-12s12 5.383 12 12-5.383 12-12 12-12-5.383-12-12zM1.684 28.674c0.222-0.11 5.542-2.674 12.366-2.674 4.074 0 7.873 0.904 11.292 2.687 0.598 0.312 0.831 1.054 0.521 1.654-0.3 0.579-1.060 0.823-1.642 0.522-3.047-1.59-6.463-2.396-10.151-2.396-6.364 0-11.273 2.387-11.314 2.407-0.599 0.293-1.342 0.030-1.63-0.561-0.297-0.606-0.046-1.342 0.558-1.639zM15 13c0 0.828-0.672 1.5-1.5 1.5s-1.5-0.672-1.5-1.5c0-0.828 0.672-1.5 1.5-1.5s1.5 0.672 1.5 1.5z"></path>
</svg>
