<!-- Generated by IcoMoon.io -->
<svg version="1.1" xmlns="http://www.w3.org/2000/svg" width="24" height="32" viewBox="0 0 24 32">
<title>webcam1</title>
<path d="M12 0c-6.617 0-12 5.383-12 12s5.383 12 12 12 12-5.383 12-12-5.383-12-12-12zM12 23c-6.065 0-11-4.935-11-11s4.935-11 11-11 11 4.935 11 11-4.935 11-11 11zM12 6.5c-3.032 0-5.5 2.467-5.5 5.5s2.468 5.5 5.5 5.5 5.5-2.467 5.5-5.5-2.468-5.5-5.5-5.5zM12 16.5c-2.481 0-4.5-2.019-4.5-4.5s2.019-4.5 4.5-4.5 4.5 2.019 4.5 4.5-2.019 4.5-4.5 4.5zM11 9.455c-0.853 0-1.546 0.693-1.546 1.545 0 0.276 0.224 0.5 0.5 0.5s0.5-0.224 0.5-0.5c0-0.301 0.245-0.545 0.546-0.545 0.276 0 0.5-0.224 0.5-0.5s-0.224-0.5-0.5-0.5zM22.804 31.237c0.254-0.43 0.261-0.948 0.020-1.385l-2.536-4.594c-0.133-0.242-0.439-0.33-0.679-0.196-0.242 0.133-0.33 0.438-0.196 0.679l2.536 4.594c0.090 0.164 0.047 0.304-0.006 0.393-0.078 0.132-0.256 0.272-0.525 0.272h-18.836c-0.269 0-0.447-0.14-0.524-0.271-0.053-0.089-0.096-0.229-0.006-0.394l2.536-4.594c0.134-0.242 0.046-0.546-0.196-0.679-0.24-0.134-0.546-0.046-0.679 0.196l-2.536 4.594c-0.241 0.437-0.234 0.955 0.020 1.385 0.277 0.471 0.808 0.763 1.385 0.763h18.836c0.577 0 1.108-0.292 1.386-0.763z"></path>
</svg>
