<!-- Generated by IcoMoon.io -->
<svg version="1.1" xmlns="http://www.w3.org/2000/svg" width="32" height="32" viewBox="0 0 32 32">
<title>windows</title>
<path d="M16-0.035c-8.842 0-16.034 7.194-16.034 16.035s7.192 16.035 16.034 16.035 16.034-7.194 16.034-16.035-7.192-16.035-16.034-16.035zM16 30.965c-8.252 0-14.966-6.713-14.966-14.965s6.714-14.965 14.966-14.965 14.966 6.713 14.966 14.965-6.714 14.965-14.966 14.965zM13.432 7.54l-6 0.823c-0.247 0.033-0.432 0.245-0.432 0.495v5.642c0 0.276 0.224 0.5 0.5 0.5h6c0.276 0 0.5-0.224 0.5-0.5v-6.465c0-0.145-0.062-0.282-0.171-0.377s-0.249-0.141-0.397-0.118zM13 14h-5v-4.706l5-0.686v5.392zM13.5 16h-6c-0.276 0-0.5 0.224-0.5 0.5v5.368c0 0.25 0.186 0.462 0.434 0.496l6 0.809c0.021 0.003 0.044 0.004 0.066 0.004 0.12 0 0.237-0.043 0.329-0.124 0.109-0.095 0.171-0.232 0.171-0.376v-6.177c0-0.276-0.224-0.5-0.5-0.5zM13 22.105l-5-0.674v-4.431h5v5.105zM23.5 16h-8c-0.276 0-0.5 0.224-0.5 0.5v6.272c0 0.25 0.186 0.462 0.434 0.496l8 1.073c0.022 0.003 0.044 0.004 0.066 0.004 0.12 0 0.237-0.043 0.329-0.124 0.109-0.094 0.171-0.231 0.171-0.375v-7.346c0-0.276-0.224-0.5-0.5-0.5zM23 23.274l-7-0.939v-5.335h7v6.274zM23.433 6.35l-8 1.092c-0.248 0.035-0.433 0.246-0.433 0.496v6.562c0 0.276 0.224 0.5 0.5 0.5h8c0.276 0 0.5-0.224 0.5-0.5v-7.654c0-0.145-0.062-0.282-0.171-0.377s-0.253-0.136-0.396-0.119zM23 14h-7v-5.625l7-0.956v6.581z"></path>
</svg>
