<!-- Generated by IcoMoon.io -->
<svg version="1.1" xmlns="http://www.w3.org/2000/svg" width="27" height="32" viewBox="0 0 27 32">
<title>wine-glass</title>
<path d="M26.915 0.938c-0.23-0.57-0.776-0.938-1.391-0.938h-19.274c-0.044 0-0.087 0.006-0.128 0.017-0.041-0.011-0.084-0.017-0.127-0.017h-4.474c-0.612 0-1.141 0.35-1.38 0.914-0.24 0.563-0.125 1.187 0.298 1.625l12.061 12.679v13.782h-2c-0.276 0-0.5 0.224-0.5 0.5s0.224 0.5 0.5 0.5h5c0.276 0 0.5-0.224 0.5-0.5s-0.224-0.5-0.5-0.5h-2v-13.805l13.066-12.616c0.443-0.427 0.58-1.071 0.349-1.641zM25.871 1.86l-12.874 12.43-11.835-12.442c-0.214-0.222-0.131-0.472-0.1-0.543s0.153-0.305 0.459-0.305h4.28l4.052 3.673c0.205 0.186 0.521 0.171 0.706-0.034s0.17-0.521-0.034-0.706l-3.234-2.933h18.233c0.313 0 0.434 0.239 0.464 0.312s0.109 0.331-0.117 0.548zM8.5 31c-0.276 0-0.5 0.224-0.5 0.5s0.224 0.5 0.5 0.5h9c0.276 0 0.5-0.224 0.5-0.5s-0.224-0.5-0.5-0.5h-9z"></path>
</svg>
