<!-- Generated by IcoMoon.io -->
<svg version="1.1" xmlns="http://www.w3.org/2000/svg" width="31" height="32" viewBox="0 0 31 32">
<title>worker-cap</title>
<path d="M9.010 21c0 1.103 0.897 2 2 2s2-0.897 2-2-0.897-2-2-2-2 0.897-2 2zM11.010 20c0.552 0 1 0.448 1 1s-0.448 1-1 1-1-0.448-1-1 0.448-1 1-1zM17.919 21c0 1.103 0.897 2 2 2s2-0.897 2-2-0.897-2-2-2-2 0.897-2 2zM19.919 20c0.552 0 1 0.448 1 1s-0.448 1-1 1-1-0.448-1-1 0.448-1 1-1zM17.977 25c-0.276 0-0.5 0.224-0.5 0.5 0 0.827-0.897 1.5-2 1.5s-2-0.673-2-1.5c0-0.276-0.224-0.5-0.5-0.5s-0.5 0.224-0.5 0.5c0 1.379 1.346 2.5 3 2.5s3-1.121 3-2.5c0-0.276-0.224-0.5-0.5-0.5zM28.614 13.901c-0.786-5.103-4.356-9.268-9.23-10.779-0.388-1.782-1.99-3.122-3.906-3.122-1.922 0-3.53 1.348-3.912 3.138-4.846 1.523-8.397 5.683-9.18 10.763-1.327 0.071-2.386 1.186-2.386 2.547 0 1.407 1.13 2.552 2.52 2.552h0.98v0.738c0 6.761 5.383 12.262 12 12.262s12-5.501 12-12.262v-0.738h0.98c1.39 0 2.52-1.145 2.52-2.552 0-1.361-1.059-2.476-2.386-2.547zM26.5 19.738c0 6.21-4.935 11.262-11 11.262s-11-5.052-11-11.262v-0.738h22v0.738zM28.48 18h-25.96c-0.838 0-1.52-0.645-1.52-1.5s0.682-1.5 1.52-1.5h0.303c0.253 0 0.477-0.24 0.507-0.491 0.577-4.747 4.17-8.741 8.17-10.29v2.281c0 0.276 0.224 0.5 0.5 0.5s0.5-0.224 0.5-0.5v-2.544c0-0.123 0.011-0.24 0.026-0.359 0.003-0.017-0.002-0.033 0-0.050 0.204-1.435 1.442-2.547 2.954-2.547 1.504 0 2.74 1.1 2.954 2.524 0.001 0.024 0.013 0.046 0.018 0.069 0.015 0.12 0.048 0.239 0.048 0.364v2.543c0 0.276 0.224 0.5 0.5 0.5s0.5-0.224 0.5-0.5v-2.297c4 1.537 7.612 5.537 8.193 10.306 0.030 0.251 0.232 0.491 0.485 0.491h0.303c0.838 0 1.52 0.644 1.52 1.5s-0.683 1.5-1.521 1.5z"></path>
</svg>
