<!-- Generated by IcoMoon.io -->
<svg version="1.1" xmlns="http://www.w3.org/2000/svg" width="32" height="32" viewBox="0 0 32 32">
<title>youtube</title>
<path d="M16-0.035c-8.842 0-16.034 7.194-16.034 16.035s7.192 16.035 16.034 16.035 16.034-7.194 16.034-16.035-7.192-16.035-16.034-16.035zM16 30.965c-8.252 0-14.966-6.713-14.966-14.965s6.714-14.965 14.966-14.965 14.966 6.713 14.966 14.965-6.714 14.965-14.966 14.965zM19.525 15.616c-0.533-0.278-1.105-0.594-1.678-0.909-1.194-0.658-2.323-1.28-3.163-1.614-0.153-0.062-0.327-0.042-0.465 0.050-0.137 0.094-0.219 0.249-0.219 0.415v4.987c0 0.171 0.088 0.331 0.232 0.422 0.082 0.052 0.175 0.078 0.268 0.078 0.073 0 0.146-0.016 0.215-0.048 1.006-0.478 2.11-1.065 3.179-1.633 0.545-0.291 1.093-0.582 1.631-0.86 0.165-0.086 0.27-0.256 0.27-0.443s-0.105-0.358-0.27-0.445zM17.424 16.48c-0.809 0.43-1.638 0.871-2.424 1.264v-3.417c0.699 0.337 1.543 0.802 2.365 1.255 0.288 0.159 0.576 0.317 0.86 0.472-0.266 0.142-0.535 0.284-0.801 0.426zM22.304 10.626c-0.812-0.293-5-0.316-6.264-0.316-2.504 0-4.67 0.072-5.795 0.193-0.639 0.067-1.198 0.365-1.617 0.859-1.176 1.383-0.925 7.562-0.412 8.97 0.265 0.725 0.769 1.214 1.498 1.454 0.984 0.324 5.328 0.34 6.189 0.34 1.759 0 5.934-0.045 6.717-0.456 0.486-0.253 0.842-0.614 1.058-1.075 0.728-1.561 0.68-7.022 0.087-8.56-0.262-0.68-0.754-1.154-1.461-1.409zM22.771 20.172c-0.121 0.26-0.322 0.459-0.612 0.61-0.353 0.167-2.664 0.344-6.256 0.344-3.279 0-5.438-0.146-5.877-0.291-0.436-0.143-0.713-0.412-0.871-0.846-0.502-1.378-0.551-7.057 0.235-7.98 0.253-0.299 0.576-0.472 0.961-0.512 1.075-0.116 3.255-0.188 5.688-0.188 3.386 0 5.579 0.132 5.924 0.257 0.435 0.157 0.71 0.42 0.867 0.829 0.501 1.297 0.548 6.477-0.059 7.777z"></path>
</svg>
