<!-- Generated by IcoMoon.io -->
<svg version="1.1" xmlns="http://www.w3.org/2000/svg" width="32" height="32" viewBox="0 0 32 32">
<title>call</title>
<path d="M22.111 32c-0.231 0-0.465-0.023-0.697-0.069-0.007-0-0.013-0.002-0.019-0.003-0.335-0.057-8.295-1.483-14.279-7.466-4.824-4.824-6.452-11.015-6.931-13.492-0.090-0.294-0.141-0.601-0.153-0.913-0.004-0.034-0.005-0.069-0.003-0.104-0.009-0.973 0.363-1.884 1.050-2.571l2.034-2.034c0.119-0.119 0.281-0.186 0.449-0.186s0.33 0.067 0.449 0.186l6.583 6.583c0.248 0.248 0.248 0.649 0 0.898l-2.033 2.034c-0.052 0.052-0.104 0.101-0.158 0.149-0.95 0.844-1.135 2.321-0.427 3.436 0.678 1.071 1.447 2.037 2.283 2.873 0.99 0.989 2.165 1.887 3.492 2.665 1.085 0.637 2.48 0.433 3.393-0.496l2.056-2.056c0.247-0.248 0.649-0.248 0.897 0l6.583 6.583c0.248 0.248 0.248 0.65 0 0.898l-2.034 2.035c-0.68 0.681-1.591 1.052-2.534 1.052v0zM21.58 30.672c0.018 0.003 0.035 0.005 0.052 0.009 0.771 0.16 1.562-0.076 2.117-0.631l1.584-1.585-5.684-5.686-1.604 1.604c-1.317 1.341-3.35 1.629-4.937 0.698-1.42-0.833-2.681-1.796-3.747-2.863-0.902-0.902-1.729-1.942-2.458-3.092-1.036-1.634-0.753-3.813 0.658-5.066 0.036-0.032 0.069-0.064 0.103-0.098l1.584-1.584-5.686-5.686-1.585 1.585c-0.449 0.449-0.69 1.050-0.677 1.688 0.001 0.007 0.001 0.013 0.001 0.021 0.006 0.219 0.042 0.433 0.107 0.636 0.007 0.024 0.013 0.048 0.018 0.072 0.45 2.338 1.99 8.271 6.589 12.869 5.52 5.52 13.022 7.006 13.565 7.108v0zM31.336 17.608c-0.351 0-0.635-0.284-0.635-0.635 0-8.658-7.045-15.703-15.703-15.703-0.351 0-0.635-0.283-0.635-0.635 0-0.35 0.284-0.635 0.635-0.635 9.359 0 16.973 7.614 16.973 16.973 0 0.352-0.285 0.636-0.634 0.636v0zM27.397 17.608c-0.351 0-0.636-0.284-0.636-0.635 0-6.543-5.322-11.866-11.865-11.866-0.351 0-0.635-0.284-0.635-0.635s0.284-0.635 0.635-0.635c7.242 0 13.135 5.893 13.135 13.135-0 0.351-0.285 0.635-0.635 0.635v0zM23.468 17.608c-0.35 0-0.635-0.284-0.635-0.635 0-4.376-3.56-7.936-7.936-7.936-0.351 0-0.635-0.284-0.635-0.636s0.284-0.635 0.635-0.635c5.076 0 9.206 4.13 9.206 9.206 0 0.352-0.284 0.636-0.634 0.636v0z"></path>
</svg>
