<!-- Generated by IcoMoon.io -->
<svg version="1.1" xmlns="http://www.w3.org/2000/svg" width="32" height="32" viewBox="0 0 32 32">
<title>clicked</title>
<path d="M17.691 9.072c-0.006-0.737 0.338-1.313 0.667-1.87 0.438-0.74 0.893-1.505 0.578-2.558-0.32-0.966-0.929-1.441-1.468-1.859-0.727-0.564-1.248-0.972-0.977-2.514l0.025-0.134-0.782-0.138-0.025 0.132c-0.354 2.015 0.508 2.686 1.274 3.277 0.491 0.385 0.955 0.746 1.198 1.472 0.212 0.708-0.104 1.24-0.503 1.912-0.372 0.628-0.79 1.333-0.782 2.279-3.956 0.002-8 0.167-8 14.23 0 6.336 5.093 8.698 8.303 8.698 3.209 0 8.301-2.362 8.301-8.697 0-14.046-4.121-14.22-7.809-14.23v0zM17.197 31.207c-2.901 0-7.505-2.148-7.505-7.905 0-1.153 0.025-2.233 0.076-3.221 1.159 0.538 3.875 1.585 7.447 1.585 2.544 0 5.037-0.538 7.416-1.605 0.053 0.994 0.078 2.083 0.078 3.241 0 5.758-4.604 7.905-7.511 7.905v0zM17.596 20.869v-1.718c0.488-0.093 0.854-0.525 0.854-1.033v-5.181c0-0.505-0.366-0.938-0.854-1.030v-2.042c3.264 0.006 6.324 0.137 6.98 9.348-2.233 1.044-4.582 1.599-6.98 1.656v0zM17.657 18.117c0 0.146-0.116 0.262-0.262 0.262h-0.392c-0.145 0-0.262-0.116-0.262-0.262v-5.181c0-0.143 0.117-0.26 0.262-0.26h0.392c0.146 0 0.262 0.117 0.262 0.26v5.181zM16.515 10.309v1.598c-0.453 0.089-0.79 0.488-0.79 0.957v5.302c0 0.469 0.338 0.867 0.79 0.961v1.298c-3.34-0.081-5.782-1.195-6.41-1.509 0.607-8.473 3.409-8.601 6.41-8.607v0zM13.299 8.569l0.132-0.027-0.174-0.777-0.132 0.031c-4.724 1.061-5.149 5.548-5.151 5.593l-0.011 0.134 0.789 0.062 0.011-0.131c0.006-0.040 0.383-3.952 4.535-4.884v0zM11.835 7.106l0.132-0.028-0.175-0.776-0.129 0.030c-4.724 1.058-5.149 5.548-5.152 5.593l-0.011 0.133 0.79 0.062 0.011-0.133c0.006-0.037 0.38-3.949 4.535-4.881v0z"></path>
</svg>
