<!-- Generated by IcoMoon.io -->
<svg version="1.1" xmlns="http://www.w3.org/2000/svg" width="32" height="32" viewBox="0 0 32 32">
<title>custom-phone</title>
<path d="M26.329 32c-0.276 0-0.553-0.027-0.83-0.081-0.008-0.001-0.015-0.002-0.023-0.004-0.401-0.068-9.89-1.767-17.026-8.902-5.752-5.752-7.692-13.134-8.264-16.087-0.107-0.351-0.168-0.718-0.182-1.088-0.004-0.042-0.005-0.083-0.003-0.124-0.011-1.16 0.432-2.247 1.252-3.066l2.425-2.425c0.143-0.142 0.334-0.222 0.535-0.222s0.394 0.080 0.535 0.222l7.849 7.849c0.296 0.296 0.296 0.774 0 1.070l-2.424 2.426c-0.062 0.062-0.125 0.121-0.188 0.177-1.133 1.007-1.353 2.767-0.509 4.096 0.809 1.277 1.725 2.429 2.722 3.427 1.181 1.18 2.581 2.25 4.163 3.177 1.294 0.759 2.957 0.517 4.046-0.591l2.452-2.453c0.295-0.296 0.774-0.296 1.070 0l7.848 7.849c0.296 0.296 0.296 0.775 0 1.070l-2.425 2.426c-0.811 0.813-1.898 1.255-3.023 1.255v0zM25.697 30.417c0.021 0.003 0.042 0.006 0.063 0.011 0.919 0.191 1.863-0.091 2.523-0.752l1.889-1.89-6.777-6.779-1.912 1.913c-1.572 1.599-3.995 1.942-5.886 0.831-1.694-0.993-3.197-2.142-4.468-3.413-1.075-1.075-2.060-2.316-2.931-3.686-1.236-1.948-0.897-4.546 0.785-6.040 0.043-0.038 0.082-0.076 0.122-0.116l1.889-1.889-6.779-6.78-1.891 1.891c-0.535 0.535-0.823 1.251-0.808 2.013 0.002 0.008 0.002 0.016 0.002 0.024 0.007 0.261 0.050 0.516 0.127 0.758 0.008 0.028 0.016 0.057 0.022 0.085 0.536 2.787 2.373 9.862 7.856 15.345 6.581 6.581 15.527 8.354 16.174 8.474v0z"></path>
</svg>
