<!-- Generated by IcoMoon.io -->
<svg version="1.1" xmlns="http://www.w3.org/2000/svg" width="32" height="32" viewBox="0 0 32 32">
<title>email-bounced</title>
<path d="M32 8.728c0-2.559-2.082-4.641-4.642-4.641-1.53 0-2.887 0.75-3.733 1.899h-20.103c-1.94 0-3.521 1.58-3.521 3.524v14.884c0 1.942 1.581 3.521 3.521 3.521h22.709c1.941 0 3.521-1.579 3.521-3.521v-11.695c1.346-0.815 2.248-2.287 2.248-3.97v0zM28.793 24.392c0 1.411-1.151 2.563-2.563 2.563h-22.709c-1.412 0-2.56-1.149-2.56-2.563v-14.883c0-1.414 1.148-2.562 2.56-2.562h19.553c-0.229 0.548-0.355 1.151-0.355 1.781 0 1.006 0.323 1.937 0.869 2.697l-7.119 7.119c-0.876 0.879-2.306 0.877-3.185 0l-9.688-9.688c-0.191-0.188-0.491-0.188-0.679 0-0.188 0.19-0.188 0.492 0 0.679l9.687 9.686c0.626 0.629 1.45 0.941 2.274 0.941 0.82 0 1.645-0.311 2.271-0.941l7.077-7.076c0.828 0.756 1.925 1.226 3.132 1.226 0.502 0 0.983-0.082 1.433-0.229v11.252h0.003zM27.358 12.409c-2.030 0-3.68-1.65-3.68-3.681s1.651-3.68 3.68-3.68c2.031 0 3.684 1.651 3.684 3.68s-1.654 3.681-3.684 3.681v0zM28.177 10.358c-0.652 0.687-1.141 1.030-1.465 1.030-0.18 0-0.33-0.091-0.453-0.274s-0.183-0.412-0.183-0.688c0-0.594 0.2-1.418 0.602-2.47l1.063-0.221h0.051l-0.419 1.31c-0.174 0.541-0.26 0.928-0.26 1.159 0 0.092 0.020 0.167 0.061 0.224 0.041 0.057 0.091 0.085 0.153 0.085 0.11 0 0.219-0.040 0.328-0.12 0.111-0.079 0.285-0.252 0.521-0.517v0.481zM28.093 6.097c0 0.67-0.245 1.005-0.739 1.005-0.241 0-0.447-0.073-0.616-0.218 0.162-0.245 0.288-0.521 0.377-0.829 0.221 0.136 0.398 0.205 0.532 0.205 0.151 0 0.3-0.055 0.447-0.163z"></path>
</svg>
