<!-- Generated by IcoMoon.io -->
<svg version="1.1" xmlns="http://www.w3.org/2000/svg" width="32" height="32" viewBox="0 0 32 32">
<title>email-opened</title>
<path d="M27.261 9.954v-4.029c0-1.302-1.072-2.373-2.373-2.373h-4.861l-4.027-3.553-4.028 3.553h-4.862c-1.301 0-2.372 1.071-2.372 2.373v4.029l-3.553 3.085v16.59c0 1.302 1.065 2.372 2.373 2.372h24.881c1.308 0 2.373-1.070 2.373-2.372v-16.59l-3.553-3.085zM27.261 11.499l1.776 1.54-1.776 1.539v-3.079zM16 1.54l2.252 2.013h-4.625l2.373-2.013zM5.926 5.926c0-0.712 0.474-1.186 1.185-1.186h17.777c0.59 0 1.186 0.596 1.186 1.186v9.6l-7.823 6.991h-4.625l-7.701-6.874v-9.716zM4.739 11.499v3.2l-1.776-1.66 1.776-1.54zM2.725 30.456c-0.237-0.238-0.353-0.476-0.353-0.828v-15.403l9.479 8.291-9.126 7.94zM4.149 30.814l8.299-7.112h7.105l8.298 7.112h-23.701zM29.627 21.927v7.701c0 0.352-0.115 0.591-0.352 0.828l-9.126-7.94 9.477-8.291v7.702z"></path>
</svg>
