<!-- Generated by IcoMoon.io -->
<svg version="1.1" xmlns="http://www.w3.org/2000/svg" width="32" height="32" viewBox="0 0 32 32">
<title>leads</title>
<path d="M24.279 19.213c1.224-1.66 1.898-3.749 1.898-5.963 0-5.041-3.499-9.141-7.799-9.141-0.83 0-1.629 0.156-2.38 0.439-0.751-0.282-1.55-0.439-2.379-0.439-4.301 0-7.798 4.1-7.798 9.141 0 2.214 0.674 4.303 1.897 5.963-4.708 1.512-7.718 4.696-7.718 8.238v0.549h32v-0.549c0-3.541-3.012-6.723-7.721-8.238zM18.38 4.988c3.814 0 6.919 3.705 6.919 8.262 0 2.239-0.74 4.337-2.087 5.907 0 0-0.002 0.001-0.005 0.003-0.083 0.049-1.456 0.841-2.123 0.655-0.499-0.219-1.015-0.426-1.563-0.602 1.224-1.66 1.898-3.749 1.898-5.963 0-3.541-1.729-6.61-4.246-8.127 0.393-0.083 0.795-0.135 1.207-0.135zM6.699 13.25c0-4.556 3.104-8.262 6.921-8.262 0.412 0 0.813 0.051 1.206 0.135 0.405 0.085 0.796 0.214 1.173 0.38 2.644 1.162 4.54 4.191 4.54 7.748 0 2.239-0.74 4.338-2.087 5.907-0.711 0.827-1.547 1.444-2.451 1.841-0.383 0.168-0.776 0.297-1.18 0.381-0.393 0.082-0.793 0.131-1.2 0.131-0.976 0-1.921-0.25-2.79-0.709-0.297-0.157-0.584-0.337-0.861-0.544-0.421-0.314-0.819-0.677-1.181-1.101-1.348-1.57-2.090-3.668-2.090-5.908zM5.657 27h-4.76c0.251-3 3.095-5.771 7.414-7.063 0.069 0.075 0.142 0.142 0.21 0.213 0.086 0.088 0.172 0.177 0.261 0.261 0.11 0.101 0.221 0.195 0.332 0.288 0.011 0.010 0.023 0.020 0.034 0.029 0.078 0.067 0.157 0.136 0.24 0.198 0.116 0.088 0.236 0.17 0.356 0.249 0.056 0.038 0.113 0.075 0.169 0.113 0.038 0.026 0.075 0.052 0.114 0.076 0.127 0.077 0.255 0.143 0.384 0.212 0.097 0.049 0.191 0.105 0.29 0.152 0.133 0.062 0.271 0.116 0.408 0.169 0.097 0.038 0.194 0.081 0.292 0.116 0.146 0.052 0.294 0.090 0.44 0.129 0.095 0.026 0.187 0.058 0.281 0.079 0.165 0.037 0.332 0.063 0.5 0.086 0.082 0.012 0.161 0.030 0.242 0.041 0.249 0.028 0.502 0.043 0.755 0.043s0.506-0.015 0.755-0.043c0.084-0.009 0.165-0.028 0.249-0.041 0.165-0.026 0.33-0.049 0.493-0.086 0.097-0.021 0.191-0.053 0.287-0.081 0.146-0.038 0.29-0.077 0.433-0.127 0.055-0.019 0.108-0.042 0.162-0.064 0.045-0.018 0.092-0.036 0.136-0.054 0.136-0.053 0.268-0.105 0.401-0.167 0.101-0.047 0.198-0.103 0.296-0.157 0.116-0.061 0.233-0.124 0.347-0.191 0.009-0.006 0.018-0.011 0.029-0.015 0.099-0.062 0.193-0.128 0.288-0.193 0.12-0.079 0.238-0.159 0.354-0.247 0.094-0.071 0.184-0.15 0.276-0.227 0.112-0.093 0.223-0.187 0.331-0.286 0.088-0.084 0.174-0.172 0.259-0.258 0.071-0.073 0.144-0.137 0.212-0.213 0.8 0.239 1.548 0.527 2.239 0.858 0.32 0.152 0.622 0.313 0.915 0.483 2.509 1.448 4.076 3.718 4.26 5.718h-20.688zM27.217 27c-0.011-0.157-0.027-0.311-0.049-0.465-0.328-2.305-1.887-4.311-4.319-5.812-0.161-0.099-0.333-0.189-0.501-0.284l0.898-0.43c4.049 1.211 7.191 3.658 7.775 6.431 0.038 0.184 0.067 0.371 0.082 0.558h-3.886z"></path>
</svg>
