<!-- Generated by IcoMoon.io -->
<svg version="1.1" xmlns="http://www.w3.org/2000/svg" width="32" height="32" viewBox="0 0 32 32">
<title>mailbox</title>
<path d="M31.126 31.017c-9.985 0-19.943 0-29.959 0 0-0.153 0-0.296 0-0.437 0-3.811-0.007-7.62 0.001-11.431 0.008-4.309 3.296-7.584 7.598-7.585 1.799 0 3.597 0 5.396 0 0.143 0 0.287 0 0.479 0 0-1.781 0-3.521 0-5.262 0-1.728 0-3.456 0-5.206 3.51 0 6.969 0 10.464 0 0 1.982 0 3.956 0 5.968-2.478 0-4.937 0-7.423 0 0 1.51 0 2.98 0 4.499 0.137 0 0.266 0 0.395 0 1.825 0.001 3.65-0.003 5.476 0.002 3.827 0.014 6.868 2.594 7.499 6.371 0.069 0.418 0.092 0.849 0.092 1.274 0.008 3.797 0.005 7.593 0.003 11.391-0.001 0.13-0.013 0.26-0.021 0.416zM13.098 28.029c0.014-0.077 0.027-0.116 0.027-0.155-0.002-3.036 0.043-6.074-0.023-9.11-0.060-2.695-2.764-4.705-5.394-4.104-2.171 0.496-3.547 2.263-3.554 4.59-0.008 2.798-0.002 5.596-0.001 8.393 0 0.127 0.012 0.255 0.018 0.387 2.992-0.001 5.946-0.001 8.927-0.001z"></path>
</svg>
