<!-- Generated by IcoMoon.io -->
<svg version="1.1" xmlns="http://www.w3.org/2000/svg" width="32" height="32" viewBox="0 0 32 32">
<title>ring</title>
<path d="M22.841 31.452h-13.184c-0.989 0-1.795-0.811-1.795-1.806v-27.291c0-0.996 0.805-1.806 1.795-1.806h13.184c0.989 0 1.795 0.81 1.795 1.806v27.291c0 0.996-0.805 1.806-1.794 1.806zM9.657 1.548c-0.438 0-0.795 0.361-0.795 0.806v27.291c0 0.445 0.357 0.806 0.795 0.806h13.183c0.439 0 0.795-0.362 0.795-0.806v-27.291c0-0.445-0.357-0.806-0.795-0.806h-13.184zM21.709 27.219h-10.919c-0.549 0-0.995-0.466-0.995-1.038v-21.55c0-0.572 0.447-1.038 0.995-1.038h10.919c0.55 0 0.997 0.466 0.997 1.038v21.55c0 0.572-0.447 1.038-0.997 1.038zM10.79 4.593l0.005 21.587 10.897 0.038 0.015-21.588-10.916-0.037zM17.448 29.916h-2.397c-0.539 0-0.976-0.439-0.976-0.98v-0.145c0-0.541 0.438-0.98 0.976-0.98h2.397c0.538 0 0.977 0.44 0.977 0.98v0.145c0 0.541-0.439 0.98-0.977 0.98zM17.424 28.792l-2.374 0.020 0.024 0.125 2.351-0.020v-0.125zM15.749 10.49h0.471c0.192 0 0.336 0.098 0.336 0.188v0.065c0 0.036-0.114 0.041-0.255 0.027-0.084-0.008-0.171-0.013-0.258-0.013-0.108 0-0.214 0.008-0.319 0.021-0.177 0.021-0.315 0.021-0.315-0.021v-0.079c0.001-0.090 0.148-0.189 0.34-0.189v0zM16.25 20.623c-0.296 0-0.597-0.047-0.867-0.137-0.451-0.156-0.563-0.487-0.524-0.724 0.040-0.242 0.263-0.526 0.758-0.526h1.264c0.494 0 0.718 0.283 0.759 0.526 0.040 0.236-0.072 0.567-0.515 0.721-0.269 0.091-0.57 0.14-0.875 0.14zM19.295 19.827h-6.021c-0.626 0-1.104-0.229-1.345-0.643-0.241-0.416-0.207-0.946 0.095-1.492 0.654-1.189 1.021-1.858 1.226-2.242 0.096-0.178 0.185-0.573 0.188-0.829l0.011-1.559c0-1.319 1.165-2.396 2.597-2.396 0.688 0 1.337 0.245 1.826 0.692 0.497 0.451 0.77 1.058 0.77 1.707v1.605c0 0.209 0.109 0.573 0.224 0.749l1.54 2.333c0.47 0.703 0.331 1.206 0.207 1.444-0.13 0.239-0.469 0.63-1.317 0.63zM16.044 11.667c-0.88 0-1.597 0.627-1.597 1.399l-0.011 1.563c-0.004 0.367-0.11 0.928-0.306 1.294-0.206 0.385-0.575 1.057-1.232 2.252-0.144 0.261-0.146 0.436-0.105 0.506 0.039 0.067 0.188 0.146 0.48 0.146h6.021c0.314 0 0.427-0.084 0.436-0.101 0.008-0.015 0.016-0.159-0.158-0.419l-1.543-2.337c-0.221-0.339-0.389-0.896-0.389-1.299v-1.605c0-0.364-0.157-0.707-0.444-0.967-0.306-0.278-0.715-0.431-1.154-0.431zM27.689 20.527l-0.706-0.708c2.169-2.162 2.186-5.697 0.041-7.882l0.713-0.7c2.53 2.575 2.509 6.743-0.047 9.29zM29.125 22.804l-0.706-0.708c3.416-3.409 3.444-8.98 0.061-12.42l0.713-0.701c3.767 3.829 3.736 10.033-0.068 13.829zM4.311 20.527c-2.556-2.547-2.578-6.715-0.048-9.291l0.713 0.7c-2.146 2.185-2.128 5.72 0.040 7.882l-0.706 0.709zM2.874 22.804c-3.804-3.796-3.834-10-0.068-13.829l0.713 0.701c-3.383 3.439-3.356 9.011 0.061 12.42l-0.706 0.708z"></path>
</svg>
