<!-- Generated by IcoMoon.io -->
<svg version="1.1" xmlns="http://www.w3.org/2000/svg" width="32" height="32" viewBox="0 0 32 32">
<title>tag</title>
<path d="M5.558 11.225h20.884v1h-20.884v-1zM5.558 18.997h20.884v1h-20.884v-1zM19.516 5.506h1v20.987h-1v-20.987zM11.484 5.506h1v20.987h-1v-20.987zM30.467 32h-28.934c-0.845 0-1.533-0.673-1.533-1.5v-29c0-0.827 0.688-1.5 1.533-1.5h28.933c0.846 0 1.534 0.673 1.534 1.5v29c0 0.827-0.688 1.5-1.533 1.5zM1.533 1c-0.293 0-0.533 0.224-0.533 0.5v29c0 0.276 0.239 0.5 0.533 0.5h28.933c0.294 0 0.534-0.224 0.534-0.5v-29c0-0.276-0.239-0.5-0.533-0.5h-28.934z"></path>
</svg>
