<!-- Generated by IcoMoon.io -->
<svg version="1.1" xmlns="http://www.w3.org/2000/svg" width="32" height="32" viewBox="0 0 32 32">
<title>unsubscribed</title>
<path d="M19.748 19.25c1.239-1.678 1.919-3.792 1.919-6.031 0-5.097-3.54-9.243-7.886-9.243-4.349 0-7.886 4.146-7.886 9.243 0 2.239 0.682 4.352 1.918 6.031-4.761 1.53-7.805 4.748-7.805 8.331v0.445h27.547v-0.445c-0-3.582-3.046-6.799-7.807-8.331v0zM13.781 4.864c3.857 0 6.996 3.747 6.996 8.354 0 2.264-0.747 4.386-2.11 5.975-1.318 1.534-3.053 2.38-4.886 2.38s-3.569-0.846-4.885-2.38c-1.362-1.588-2.112-3.71-2.112-5.974 0-4.608 3.138-8.354 6.997-8.354v0zM0.915 27.135c0.254-3.087 3.131-5.841 7.497-7.148 0.070 0.076 0.143 0.14 0.213 0.212 0.088 0.089 0.173 0.177 0.264 0.262 0.112 0.102 0.223 0.197 0.337 0.291 0.091 0.075 0.183 0.155 0.278 0.227 0.117 0.089 0.238 0.172 0.36 0.251 0.095 0.066 0.19 0.134 0.286 0.192 0.129 0.078 0.258 0.145 0.389 0.215 0.098 0.050 0.192 0.108 0.293 0.154 0.134 0.063 0.274 0.116 0.412 0.172 0.098 0.039 0.194 0.081 0.295 0.117 0.148 0.052 0.296 0.091 0.444 0.131 0.097 0.026 0.19 0.058 0.284 0.079 0.168 0.038 0.335 0.064 0.506 0.087 0.082 0.012 0.162 0.031 0.244 0.041 0.252 0.029 0.507 0.044 0.763 0.044s0.513-0.015 0.764-0.044c0.085-0.008 0.168-0.029 0.252-0.041 0.166-0.026 0.334-0.049 0.499-0.087 0.097-0.021 0.192-0.053 0.29-0.082 0.148-0.039 0.293-0.078 0.438-0.128 0.104-0.035 0.203-0.081 0.303-0.119 0.136-0.053 0.271-0.106 0.406-0.169 0.1-0.047 0.198-0.104 0.297-0.159 0.129-0.067 0.256-0.134 0.38-0.208 0.101-0.063 0.196-0.131 0.291-0.195 0.121-0.079 0.241-0.16 0.358-0.25 0.096-0.073 0.188-0.153 0.282-0.23 0.11-0.093 0.223-0.189 0.332-0.288 0.088-0.085 0.176-0.174 0.263-0.261 0.070-0.074 0.145-0.138 0.215-0.215 4.367 1.306 7.243 4.060 7.497 7.148h-25.732zM27 21.692c-2.817 0-5.109-2.293-5.109-5.11 0-2.818 2.292-5.111 5.109-5.111 2.818 0 5.111 2.293 5.111 5.111-0.001 2.817-2.293 5.11-5.111 5.11zM27 12.168c-2.433 0-4.414 1.98-4.414 4.415 0 2.433 1.981 4.414 4.414 4.414 2.434 0 4.413-1.981 4.413-4.414 0-2.434-1.98-4.415-4.413-4.415zM25.478 14.64l3.556 3.557-0.491 0.491-3.556-3.557 0.491-0.491zM28.548 14.643l0.491 0.493-3.563 3.549-0.491-0.493 3.563-3.549z"></path>
</svg>
