<?xml version="1.0" encoding="utf-8"?>
<!-- Generator: Adobe Illustrator 19.0.0, SVG Export Plug-In . SVG Version: 6.00 Build 0)  -->
<svg version="1.1" id="Layer_1" xmlns="http://www.w3.org/2000/svg" xmlns:xlink="http://www.w3.org/1999/xlink" x="0px" y="0px"
	 viewBox="0 0 40 40" style="enable-background:new 0 0 40 40;" xml:space="preserve">
<style type="text/css">
	.st0{fill:#8DC63F;}
</style>
<g id="XMLID_211_">
	<path id="XMLID_229_" class="st0" d="M9.5,5c7,0,14.1,0,21.1,0c1.4,0.5,1.6,0.9,1.6,2.4c0,7.4,0,14.9,0,22.3c0,1.1,0,2.3,0,3.4
		c0,0.7-0.3,1.2-0.9,1.6c-0.2,0.1-0.5,0.2-0.7,0.3c-7.1,0-14.1,0-21.2,0c-1.2-0.4-1.6-0.9-1.6-2.3c0-7.5,0-15.1,0-22.6
		c0-1.1,0-2.1,0-3.2c0-0.9,0.6-1.7,1.5-1.9C9.4,5,9.4,5,9.5,5z M9,20C9,20,9.1,20,9,20c0,4.3,0,8.6,0,12.9c0,0.6,0.2,0.8,0.8,0.8
		c1.3,0,2.7,0,4,0c5.4,0,10.9,0,16.3,0c0.5,0,0.8-0.2,0.8-0.8c0-0.5,0-1,0-1.4c0-8.2,0-16.3,0-24.5c0-0.7-0.2-0.9-0.9-0.9
		c-6.7,0-13.4,0-20.1,0C9.3,6.2,9,6.4,9,7.1C9,11.4,9,15.7,9,20z"/>
	<path id="XMLID_228_" class="st0" d="M22.5,31.9c-2.1,0-4.1,0-6.2,0c-0.1,0-0.2,0-0.2,0c-0.5,0-0.7-0.2-0.7-0.6
		c0-0.4,0.3-0.6,0.7-0.6c0.4,0,0.9,0,1.3,0c3.8,0,7.6,0,11.5,0c0.1,0,0.3,0,0.4,0c0.3,0.1,0.5,0.3,0.5,0.6c0,0.3-0.2,0.5-0.5,0.6
		c-0.1,0-0.3,0-0.4,0C26.7,31.9,24.6,31.9,22.5,31.9z"/>
	<path id="XMLID_227_" class="st0" d="M22.5,26.9c-2.1,0-4.2,0-6.2,0c-0.1,0-0.2,0-0.3,0c-0.3,0-0.6-0.3-0.6-0.6
		c0-0.3,0.2-0.6,0.5-0.6c0.1,0,0.1,0,0.2,0c4.3,0,8.6,0,12.9,0c0.4,0,0.6,0.2,0.7,0.5c0.1,0.4-0.2,0.8-0.6,0.8c-0.4,0-0.9,0-1.3,0
		C26,26.9,24.2,26.9,22.5,26.9z"/>
	<path id="XMLID_226_" class="st0" d="M22.5,20.6c2.1,0,4.3,0,6.4,0c0.4,0,0.7,0.2,0.7,0.6c0,0.4-0.2,0.7-0.7,0.7
		c-1.1,0-2.3,0-3.4,0c-3.2,0-6.3,0-9.5,0c-0.1,0-0.3,0-0.4,0c-0.3-0.1-0.4-0.4-0.4-0.6c0-0.3,0.3-0.5,0.6-0.5c0.1,0,0.2,0,0.3,0
		C18.3,20.6,20.4,20.6,22.5,20.6z"/>
	<path id="XMLID_225_" class="st0" d="M29.7,15c-2.1,0-4.1,0-6.2,0c0-1.1,0.5-2,1.5-2.6c1.1-0.7,2.2-0.7,3.3,0
		C29.2,13,29.6,13.9,29.7,15z"/>
	<path id="XMLID_224_" class="st0" d="M16.5,15c-2.1,0-4.1,0-6.2,0c0-1.1,0.5-2,1.4-2.6c1.1-0.7,2.2-0.7,3.3,0
		C16,12.9,16.5,13.8,16.5,15z"/>
	<path id="XMLID_221_" class="st0" d="M14,26.9c-1.2,0-2.4,0-3.7,0c0-1.2,0-2.5,0-3.7c0.1,0,0.1,0,0.2,0c1.1,0,2.2,0,3.3,0
		c0.2,0,0.3,0,0.3,0.2c0,1.1,0,2.3,0,3.4C14.1,26.8,14,26.8,14,26.9z M12.8,25.6c0-0.4,0-0.8,0-1.2c-0.4,0-0.8,0-1.2,0
		c0,0.4,0,0.8,0,1.2C12,25.6,12.4,25.6,12.8,25.6z"/>
	<path id="XMLID_218_" class="st0" d="M10.3,31.9c0-1.3,0-2.5,0-3.7c1.2,0,2.5,0,3.7,0c0,1.2,0,2.5,0,3.7
		C12.8,31.9,11.6,31.9,10.3,31.9z M12.8,30.6c0-0.4,0-0.8,0-1.2c-0.4,0-0.8,0-1.2,0c0,0.4,0,0.8,0,1.2C12,30.6,12.4,30.6,12.8,30.6z
		"/>
	<path id="XMLID_215_" class="st0" d="M14,21.9c-1.2,0-2.5,0-3.7,0c0-1.2,0-2.5,0-3.7c1.2,0,2.4,0,3.7,0C14,19.4,14,20.6,14,21.9z
		 M12.8,20.6c0-0.4,0-0.8,0-1.2c-0.4,0-0.8,0-1.2,0c0,0.4,0,0.8,0,1.2C12,20.6,12.4,20.6,12.8,20.6z"/>
	<path id="XMLID_214_" class="st0" d="M15.3,9.4c0,1-0.9,1.9-1.9,1.8c-1,0-1.9-0.9-1.8-1.9c0-1,0.8-1.8,1.9-1.8
		C14.5,7.5,15.3,8.4,15.3,9.4z"/>
	<path id="XMLID_213_" class="st0" d="M28,9.4c0,1-0.9,1.9-1.9,1.8c-1,0-1.9-0.9-1.8-1.9c0-1,0.8-1.8,1.9-1.8
		C27.2,7.5,28,8.4,28,9.4z"/>
	<path id="XMLID_212_" class="st0" d="M18.4,12.2c0,0.4,0,0.8,0,1.1c-0.6-0.6-1.2-1.2-1.7-1.7c0.5-0.5,1.1-1.1,1.7-1.7
		c0,0.3,0,0.7,0,1.1c0.2,0,0.3,0,0.4,0c0.8,0,1.7,0,2.5,0c0.2,0,0.3-0.1,0.3-0.3c0-0.3,0-0.6,0-0.9c0.6,0.6,1.2,1.2,1.7,1.7
		c-0.6,0.6-1.1,1.1-1.7,1.7c0-0.3,0-0.7,0-1.1C20.5,12.2,19.5,12.2,18.4,12.2z"/>
</g>
</svg>
