<?xml version="1.0" encoding="utf-8"?>
<!-- Generator: Adobe Illustrator 22.1.0, SVG Export Plug-In . SVG Version: 6.00 Build 0)  -->
<svg version="1.1" id="Capa_1" xmlns="http://www.w3.org/2000/svg" xmlns:xlink="http://www.w3.org/1999/xlink" x="0px" y="0px"
	 viewBox="0 0 44 40" style="enable-background:new 0 0 44 40;" xml:space="preserve">
<g>
	<g>
		<g>
			<path d="M19.2,14.4h-4.7l-4.1-4.1c-0.1-0.1-0.3-0.2-0.5-0.2H1.4c-0.4,0-0.7,0.3-0.7,0.7v14.9c0,2,1.6,3.5,3.6,3.6h4.3
				c0.4,0,0.7,0.3,0.7,0.7v7.8c0,1.2,1,2.1,2.1,2.1h1.4c1.2,0,2.1-1,2.1-2.1v-9.2c0-2.7-2.2-5-5-5H9.2v-6.1l2.3,2.3
				c0.1,0.1,0.3,0.2,0.5,0.2h7.1c1.6,0,2.8-1.3,2.8-2.8S20.7,14.4,19.2,14.4z M19.2,18.7h-6.8L9,15.3c-0.3-0.3-0.7-0.3-1,0
				c-0.1,0.1-0.2,0.3-0.2,0.5v8.5c0,0.4,0.3,0.7,0.7,0.7h1.4c2,0,3.5,1.6,3.6,3.6v9.2c0,0.4-0.3,0.7-0.7,0.7h-1.4
				c-0.4,0-0.7-0.3-0.7-0.7v-7.8c0-1.2-1-2.1-2.1-2.1H4.2c-1.2,0-2.1-1-2.1-2.1V11.6h7.5l4.1,4.1c0.1,0.1,0.3,0.2,0.5,0.2h5
				c0.8,0,1.4,0.6,1.4,1.4C20.6,18.1,19.9,18.7,19.2,18.7z"/>
		</g>
	</g>
	<g>
		<g>
			<path d="M42.6,10.2h-8.5c-0.2,0-0.4,0.1-0.5,0.2l-4.1,4.1h-4.7c-1.6,0-2.8,1.3-2.8,2.8c0,1.6,1.3,2.8,2.8,2.8h7.1
				c0.2,0,0.4-0.1,0.5-0.2l2.3-2.3v6.1h-0.7c-2.7,0-5,2.2-5,5v9.2c0,1.2,1,2.1,2.1,2.1h1.4c1.2,0,2.1-1,2.1-2.1v-7.8
				c0-0.4,0.3-0.7,0.7-0.7h4.3c2,0,3.5-1.6,3.6-3.6V10.9C43.3,10.5,43,10.2,42.6,10.2z M41.9,25.8c0,1.2-1,2.1-2.1,2.1h-4.3
				c-1.2,0-2.1,1-2.1,2.1v7.8c0,0.4-0.3,0.7-0.7,0.7h-1.4c-0.4,0-0.7-0.3-0.7-0.7v-9.2c0-2,1.6-3.5,3.6-3.6h1.4
				c0.4,0,0.7-0.3,0.7-0.7v-8.5c0-0.4-0.3-0.7-0.7-0.7c-0.2,0-0.4,0.1-0.5,0.2l-3.3,3.3h-6.8c-0.8,0-1.4-0.6-1.4-1.4
				c0-0.8,0.6-1.4,1.4-1.4h5c0.2,0,0.4-0.1,0.5-0.2l4.1-4.1h7.5V25.8z"/>
		</g>
	</g>
	<g>
		<g>
			<path d="M30.5,21.5h-17c-0.4,0-0.7,0.3-0.7,0.7s0.3,0.7,0.7,0.7h7.8v15.6h-2.1c-0.4,0-0.7,0.3-0.7,0.7c0,0.4,0.3,0.7,0.7,0.7h5.7
				c0.4,0,0.7-0.3,0.7-0.7c0-0.4-0.3-0.7-0.7-0.7h-2.1V23h7.8c0.4,0,0.7-0.3,0.7-0.7S30.9,21.5,30.5,21.5z"/>
		</g>
	</g>
	<g>
		<path d="M5.8,8.8c-2.4,0-4.4-2-4.4-4.4S3.3,0,5.8,0s4.4,2,4.4,4.4S8.2,8.8,5.8,8.8z M5.8,1.3c-1.7,0-3.1,1.4-3.1,3.1
			s1.4,3.1,3.1,3.1s3.1-1.4,3.1-3.1S7.4,1.3,5.8,1.3z"/>
	</g>
	<g>
		<path d="M38.2,8.8c-2.4,0-4.4-2-4.4-4.4s2-4.4,4.4-4.4c2.4,0,4.4,2,4.4,4.4S40.6,8.8,38.2,8.8z M38.2,1.3c-1.7,0-3.1,1.4-3.1,3.1
			s1.4,3.1,3.1,3.1c1.7,0,3.1-1.4,3.1-3.1S39.8,1.3,38.2,1.3z"/>
	</g>
</g>
</svg>
