<?xml version="1.0" encoding="utf-8"?>
<!-- Generator: Adobe Illustrator 22.1.0, SVG Export Plug-In . SVG Version: 6.00 Build 0)  -->
<svg version="1.1" id="Layer_1" xmlns="http://www.w3.org/2000/svg" xmlns:xlink="http://www.w3.org/1999/xlink" x="0px" y="0px"
	 viewBox="0 0 128 128" style="enable-background:new 0 0 128 128;" xml:space="preserve">
<style type="text/css">
	.st0{fill:#8DC642;stroke:#8DC642;stroke-miterlimit:10;}
	.st1{fill:#8DC642;}
</style>
<path class="st1" d="M19,69.2c0-0.9,0-1.9,0-2.8c0-0.2,0.2-0.2,0.2-0.5c0.5-4.2,2.4-7.8,5.2-10.8C34.5,44.9,44.9,34.5,55,24.4
	c2.1-2.1,4.5-3.5,7.1-4.5c1.4-0.2,2.6-0.5,3.8-0.9c1.2,0,2.4,0,3.5,0c0.2,0,0.2,0.2,0.5,0.2c4,0.5,7.5,2.1,10.4,5.2
	C88,32.2,96,40.2,103.8,48c1.9,1.9,3.5,4.2,4.2,7.1c0.5,1.2,0.7,2.6,0.9,3.8c0,1.2,0,2.1,0,3.3c0,0.2-0.2,0.5-0.2,0.5
	c-0.5,4-2.4,7.5-5.2,10.4c-10.4,10.4-20.5,20.5-30.9,30.9c-1.9,1.9-4.2,3.5-6.8,4.2c-1.2,0.5-2.6,0.7-4,0.9c-1.2,0-2.4,0-3.5,0
	c-0.5,0-0.9-0.2-1.2-0.2c-3.8-0.7-6.8-2.4-9.4-4.9c-1.6-1.6-3.5-3.5-5.4-5.4c-0.2,0.2-0.5,0.7-0.7,0.9c-2.8,2.8-5.7,5.7-8.5,8.5
	c-0.9,0.9-1.6,0.9-2.6,0c-3.5-3.3-6.8-6.8-10.1-10.1c-0.9-0.9-0.9-1.6,0-2.6c2.8-2.8,5.7-5.7,8.7-8.7c0.2-0.2,0.5-0.5,0.9-0.5
	c-1.9-1.9-3.5-3.5-5.2-5.2c-2.1-2.1-3.8-4.7-4.7-7.8C19.5,71.8,19.2,70.4,19,69.2z M44.7,96.5c1.6,1.6,3.3,3.5,5.2,5.2
	c6.1,6.1,15.1,6.1,21.2,0c10.4-10.1,20.5-20.5,30.6-30.6c6.1-6.1,6.1-15.1,0-21.2c-7.8-7.8-15.5-15.5-23.3-23.3
	c-5.9-5.9-15.1-6.1-21,0C46.8,36.7,36.4,47,26.3,57.4c-4.9,4.9-5.7,12.3-2.1,18.1c0.5,0.7,0.9,1.4,1.6,2.1c1.9,1.9,4,4,5.9,5.7
	c0.7-0.7,1.4-1.2,1.9-1.6c-0.2,0-0.7,0-1.2-0.2c-0.5-0.2-0.9-0.7-0.7-1.4c0.2-0.9,0.9-1.4,1.6-1.2c0.9,0,1.9,0.2,2.8,0.7
	c1.4,0.7,2.6,1.6,3.8,2.6c3.5,2.8,6.6,6.1,9,10.1c0.5,0.9,0.7,1.9,0.9,2.8c0,0.9-0.9,1.9-1.6,1.6c-0.9-0.2-1.4-0.9-1.2-2.1
	c0,0,0,0,0-0.2C45.9,95.1,45.2,95.8,44.7,96.5z M36.4,83.1c-4.5,4.5-8.7,8.7-13.2,13.2c2.8,2.8,5.7,5.7,8.7,8.7
	c4.2-4.2,8.7-8.7,13-13C43.5,89.4,38.6,84.5,36.4,83.1z M75.8,82.8c-0.5-0.5-0.9-0.7-1.4-0.9C68,75.5,61.6,69.2,55.3,62.8
	c-3.1-3.1-6.1-6.1-9.4-9.4c-0.9-0.9-0.9-1.6,0-2.6c6.6-6.6,13.4-13.4,20-20c1.2-1.2,1.6-1.2,2.8,0c9.4,9.4,18.8,18.8,28.3,28.3
	c0.9,0.9,0.9,1.6,0,2.6c-6.8,6.8-13.4,13.4-20.3,20.3C76.7,82.4,76.3,82.6,75.8,82.8z M75.8,79.1c6.1-6.1,12.5-12.5,18.6-18.6
	c-9-9-17.9-17.9-26.6-26.6C61.6,40,55.3,46.3,49.2,52.5C57.9,61.2,66.8,70.1,75.8,79.1z M34.1,65.6c0.2-2.6,1.6-4.9,4.5-6.4
	c3.1-1.4,5.9-0.9,8.2,1.4c2.6,2.4,5.2,4.9,7.5,7.5c0.7,0.7,0.7,1.4,0,2.1c-2.8,2.8-5.9,5.9-8.7,8.7c-0.7,0.7-1.4,0.7-2.1,0
	c-2.6-2.6-4.9-4.9-7.5-7.5C34.5,69.9,34.1,68.2,34.1,65.6z M44.7,75.8c2.1-2.1,4.5-4.5,6.6-6.6c-2.1-2.1-4.2-4.5-6.6-6.6
	c-1.9-1.6-4.7-1.4-6.4,0.2c-1.9,1.6-2.1,4.7-0.5,6.4C40,71.5,42.3,73.7,44.7,75.8z M62.1,94.2c-2.4,0-4.2-0.7-5.4-1.9
	c-2.6-2.6-5.2-4.9-7.5-7.5c-0.7-0.7-0.7-1.4,0-2.1c2.8-2.8,5.7-5.7,8.7-8.7c0.7-0.7,1.4-0.7,2.1,0c2.4,2.4,4.9,4.7,7.3,7.3
	c2.4,2.4,2.8,5.2,1.6,8.2C67.5,92.5,65.2,93.9,62.1,94.2z M58.8,76.7c-2.1,2.4-4.5,4.5-6.6,6.8c2.1,2.1,4.2,4.5,6.6,6.6
	c1.9,1.6,4.7,1.4,6.6-0.5c1.6-1.9,1.9-4.7,0.2-6.4C63.3,81.2,61.2,78.8,58.8,76.7z M32.2,99.6c-2.1,0-3.8-1.9-3.8-3.8
	c0-2.1,1.9-3.8,3.8-3.5c2.1,0,3.8,1.9,3.5,3.8C36,97.9,34.3,99.6,32.2,99.6z M33.6,95.8c-0.5-0.5-0.9-0.9-1.2-0.9
	c-0.2,0-0.7,0.5-0.9,0.7c-0.2,0.5,0.2,0.9,0.9,0.9C32.7,96.5,33.1,96.3,33.6,95.8z M69.2,65.4c-2.6,0-5.2-1.6-6.1-4
	c-0.9-2.6-0.2-5.2,1.6-7.1c2.1-2.1,4.9-3.3,7.8-4.2c1.6-0.5,3.3-0.9,5.2-1.4c1.2-0.2,2.1,0.5,1.9,1.6c-0.7,4-1.9,8-4.2,11.3
	c-1.2,1.6-2.6,3.3-4.7,3.5C69.9,65.4,69.4,65.4,69.2,65.4z M76,52.2L75.8,52c-2.1,0.9-4.5,1.6-6.6,2.6c-0.9,0.5-2.1,1.2-2.8,1.9
	c-2.1,2.1-0.9,5.4,1.6,6.1c1.9,0.5,3.3-0.5,4.2-2.1C74.4,58.1,75.3,55.3,76,52.2z"/>
</svg>
