<?xml version="1.0" encoding="utf-8"?>
<!-- Generator: Adobe Illustrator 22.1.0, SVG Export Plug-In . SVG Version: 6.00 Build 0)  -->
<svg version="1.1" id="Layer_1" xmlns="http://www.w3.org/2000/svg" xmlns:xlink="http://www.w3.org/1999/xlink" x="0px" y="0px"
	 viewBox="0 0 128 128" style="enable-background:new 0 0 128 128;" xml:space="preserve">
<style type="text/css">
	.st0{fill:#8DC642;stroke:#8DC642;stroke-miterlimit:10;}
	.st1{fill:#8DC642;}
</style>
<g>
	<path class="st1" d="M106.7,79.5c3.5-8.1,1.3-11.6-7.6-11.9c-0.5,0-1.1-0.1-1.6-0.2c-1.3-5.5-1.2-5.8,3.2-8.7
		c3.7-2.4,5.3-7.2,4-11.5c-1.2-4-5.2-6.7-9.6-6.7c-4.3,0.1-8,2.7-9.2,6.6c-1.4,4.3,0,9.6,4,11.3c4.6,2,4.3,4.9,3.5,8.7
		c-4.9,0-9.7,0-14.8,0c2.7-7.2,3.4-14,0.9-20.9c-1.6-4.4-4.6-6.3-8.2-5.6c-3.5,0.7-5.4,3.7-5.2,8.4c0.1,1.1,0.2,2.2,0.2,3.4
		c-0.1,4.3-6.5,13.7-10.3,15.1c-0.3,0.1-0.6,0.3-0.8,0.2c-3.8-0.8-7.7-1.6-11.4-2.4c0-1.9,0-4,0-6c13.8-4,19.7-11.1,19.8-23.6
		c0-3.1,0-6.2,0-9.2c0-6.3-0.9-7.6-7-9.2c0.1-2.6-0.8-4.4-4.1-3.9c-3.4,0.5-5.4,2.1-5.6,5.6c-0.2,3.5,1.8,5.4,5,6.2
		c3.5,0.9,4.7-1.1,5.5-4.5c1.4,1.1,2.9,2.3,2.9,3.6c0.3,4.7,0.4,9.5,0,14.3C59.3,48.6,51.2,56,41.7,56c-9.3,0-17.7-7.3-18.3-16.3
		c-0.3-5-0.2-10.1,0-15.1c0.1-1.3,1.4-2.5,2.1-3.6c1.7,2,2.5,4,3.8,4.4c3.3,1.1,6.9-1.7,7.4-5c0.5-3.7-1.9-6.4-5.8-6.7
		c-4.4-0.4-3.8,4.9-7.4,5.1c-0.7,0-2.8,3.4-3.5,4.8c-0.1,0.2,0,0.6,0,0.8c0,4.8-0.1,9.5,0.1,14.3C20.4,48,27,56.1,36,58.5
		c1.3,0.3,2.6,0.7,4,1c0,2.2,0,4.1,0,6.6c-3.1,0.2-5.7,0.7-5.7,4.4c0,12.9-0.1,25.8,0.2,38.6c0,1.5,2.3,4.1,3.4,4.1
		c5.8-0.3,12,2.4,17.4-1.9c0.4-0.3,1.4-0.2,2,0.1c11.7,4.8,24,3,36.1,3.2c6.5,0.1,9.2-3.4,8-9.7c-0.2-0.8-0.3-2.1,0.1-2.5
		c3.3-2.8,3.2-6.2,1.9-10c4.2-2.9,5.9-6.4,3.1-11.1C106.3,80.9,106.4,80.1,106.7,79.5z M52.2,22.2c-1.4,0-2.5-1.1-2.5-2.5
		c0-1.4,1.1-2.5,2.5-2.5c1.4,0,2.5,1.1,2.5,2.5C54.6,21.1,53.5,22.2,52.2,22.2z M31.4,17.3c1.4,0,2.5,1.1,2.5,2.5
		c0,1.4-1.1,2.5-2.5,2.5c-1.4,0-2.5-1.1-2.5-2.5C28.9,18.4,30,17.3,31.4,17.3z M51.6,110.1c-4.5,0-8.9,0-13.7,0
		c0-13.4,0-26.7,0-40.4c4.7,0,9,0,13.7,0C51.6,83.1,51.6,96.5,51.6,110.1z M88.6,50.2c0.1-3.7,3.2-6.7,6.8-6.6
		c3.6,0.1,6.6,3.3,6.5,6.9c-0.1,3.7-3.1,6.5-6.9,6.5C91.3,56.9,88.5,54,88.6,50.2z M84.3,81.7c5.2,0.2,10.4,0.1,15.5,0.1
		c2.6,0,4.6,0.9,4.7,3.6c0.1,2.9-1.9,4.1-4.7,4.1c-5,0-10.1-0.1-15.1,0c-1.4,0-2.8,0.4-4.2,0.6c-0.1,0.5-0.1,0.9-0.2,1.4
		c1.2,0.4,2.4,1.1,3.7,1.2c3.8,0.2,7.6,0.1,11.3,0c3-0.1,5.7,0.4,5.7,3.9c-0.1,3.4-2.9,3.9-5.9,3.8c-3.8-0.1-7.6-0.2-11.3,0.1
		c-1.1,0.1-2.1,1.1-3.2,1.7c1.1,0.5,2.3,1.4,3.4,1.5c3.5,0.2,7-0.3,10.5,0.2c1.5,0.2,2.7,2.2,4,3.4c-1.3,1.4-2.6,3.9-3.9,3.9
		c-12.1-0.2-24.3,1.8-36.2-2.6c-2.6-1-3.4-2.1-3.3-4.7c0.2-9.4-0.1-18.8,0.2-28.1c0-1.8,1.2-3.8,2.4-5.2c2.8-3.3,6.6-5.9,8.7-9.6
		c1.8-3.2,2.3-7.3,2.7-11.1c0.2-2.4-0.4-5.1,2.6-5.8c3.1-0.8,4,2,4.8,4.2c2.5,6.8,1.1,13.2-2,19.4c-0.2,0.5-0.4,1-1,2.4
		c1.9,0.3,3.3,0.7,4.8,0.7c7.3,0.1,14.6,0.1,21.8,0c2.7,0,5,0.5,5.1,3.6c0.1,3.2-2.2,4.2-5.1,4.1c-5.3,0-10.6,0-16,0.1
		c-1.2,0-2.3,0.9-3.5,1.3C81.9,80.6,83.1,81.7,84.3,81.7z"/>
</g>
</svg>
