<?xml version="1.0" encoding="utf-8"?>
<!-- Generator: Adobe Illustrator 22.1.0, SVG Export Plug-In . SVG Version: 6.00 Build 0)  -->
<svg version="1.1" id="Layer_1" xmlns="http://www.w3.org/2000/svg" xmlns:xlink="http://www.w3.org/1999/xlink" x="0px" y="0px"
	 viewBox="0 0 128 128" style="enable-background:new 0 0 128 128;" xml:space="preserve">
<style type="text/css">
	.st0{fill:#8DC642;stroke:#8DC642;stroke-miterlimit:10;}
	.st1{fill:#8DC642;}
</style>
<path class="st1" d="M19,28.7c17.7-2.3,33.9-7.1,44.8-21.7c5.3,4,10,8.2,15.3,11.6c7.9,5.2,16.9,7.7,26.2,9.2
	c2.5,0.4,3.9,1.1,3.7,4.1c-1.2,17.9-3.9,35.5-11,52.1c-6.3,14.9-15.2,27.7-29.8,35.7c-2.7,1.5-4.9,1.4-7.6,0.1
	c-15.4-7.6-24.8-20.4-31.2-35.8c-5.8-14-8.7-28.7-9.6-43.7C19.5,36.6,19.3,32.9,19,28.7z M22.5,31.7c0.3,4.2,0.6,7.9,0.9,11.6
	c1.3,15.7,4.7,30.9,11.8,45.1c5.6,11.4,13.5,20.8,24.7,27.3c3.4,2,6,1.7,9.2-0.3c9.4-5.9,16.3-14,21.5-23.6
	c9.7-17.9,13.2-37.4,15-57.4c0.2-2.7-1.2-3.2-3.3-3.7C97,29.4,91.7,28.5,87,26.2c-7.9-3.9-15.4-8.7-23.4-13.4
	C53.4,24.4,38.8,29.3,22.5,31.7z"/>
<rect x="61.9" y="46.9" class="st1" width="4.2" height="32.3"/>
<rect x="47.8" y="61" class="st1" width="32.3" height="4.2"/>
</svg>
