<?xml version="1.0" encoding="utf-8"?>
<!-- Generator: Adobe Illustrator 22.1.0, SVG Export Plug-In . SVG Version: 6.00 Build 0)  -->
<svg version="1.1" id="Layer_1" xmlns="http://www.w3.org/2000/svg" xmlns:xlink="http://www.w3.org/1999/xlink" x="0px" y="0px"
	 viewBox="0 0 128 128" style="enable-background:new 0 0 128 128;" xml:space="preserve">
<style type="text/css">
	.st0{fill:#8DC642;stroke:#8DC642;stroke-miterlimit:10;}
	.st1{fill:#8DC642;}
</style>
<path class="st0" d="M92.8,61.1c0-1.6,0-3.1-0.2-4.5C91,45.2,82.2,37.5,70.9,37.5c-0.8,0-1.5,0-2.3,0.1c-9.8,0.9-17.8,9.3-18.6,19.2
	h3.3c1.7-9.7,8.8-16,18-16l0.1,0c9.3,0,16.7,7,17.7,16.6c0.6,6.2,0.4,12.5,0.3,18.6l-0.1,1.8c-0.1,2.2-2.9,4.2-4.8,4.5
	c-1.2,0.1-2.5,0.2-4.2,0.2c-0.9,0-1.8,0-2.6,0c-0.2,0-0.3,0-0.5,0v43.5h3.3V87.7v-2l5.4-0.4l3.3-1l3.6-3.7c0-6.4,0-12.7,0-18.9
	L92.8,61.1z"/>
<path class="st0" d="M56.5,17c0,8,6.5,14.5,14.5,14.6l0.2,0c4,0,7.7-1.5,10.5-4.3c2.8-2.8,4.3-6.6,4.3-10.7c0-8-6.5-14.6-14.5-14.6
	l-0.1,0c-4,0-7.7,1.5-10.4,4.3C58,9.2,56.4,13,56.5,17z M70.9,5.5c0.1,0,0.2,0,0.3,0c6.3,0,11.3,4.9,11.4,11.1c0.1,3-1.1,6-3.3,8.1
	c-2.2,2.2-5,3.4-8,3.4h0h0c-6,0-11.1-4.9-11.4-10.9c-0.1-3,1-5.9,3.1-8.1C65,6.9,67.8,5.6,70.9,5.5z"/>
<path class="st0" d="M45.2,67.9c2.1,0.4,4.1,1.1,6,1.7c-0.1-0.2-0.2-0.3-0.3-0.5c-1.1-1.7-2.2-3.3-3.6-4.2c-1.3-0.9-2.7-1.3-4.2-1.3
	c-4.4,0-7.8,4.1-7.8,9.4c-0.1,14.1,0,28.5,0,42.3l0,9.6c0,0.3,0,0.7,0.1,1h3.4l0-8.9c0-14.1,0-28,0-41.9c0-0.3,0-0.6,0-0.9
	c-0.1-1.3-0.2-3,0.8-4.2c1-1.3,3.1-2.2,4.8-2.2C44.6,67.9,44.9,67.9,45.2,67.9z"/>
<path class="st0" d="M62.6,82.4c-1.2,0-2.2,0-3.2,0c-0.2,0-0.5,0-0.7,0c-2.1,0-4.2,0-4.8-1.8c-0.6-1.6-1.2-1.6-1.6-1.6
	c-0.5,0-1.1,0.1-1.8,0.3c-0.2,0-0.4,0.1-0.6,0.1l1,4.9l2.7,1.6h6.6h2v2v38.2h3.1V82.3c-0.1,0-0.3,0-0.4,0
	C64.1,82.4,63.3,82.4,62.6,82.4z"/>
</svg>
