<?xml version="1.0" encoding="utf-8"?>
<!-- Generator: Adobe Illustrator 22.1.0, SVG Export Plug-In . SVG Version: 6.00 Build 0)  -->
<svg version="1.1" id="Layer_1" xmlns="http://www.w3.org/2000/svg" xmlns:xlink="http://www.w3.org/1999/xlink" x="0px" y="0px"
	 viewBox="0 0 128 128" style="enable-background:new 0 0 128 128;" xml:space="preserve">
<style type="text/css">
	.st0{fill:#8DC642;stroke:#8DC642;stroke-miterlimit:10;}
	.st1{fill:#8DC642;}
</style>
<g>
	<g>
		<path class="st0" d="M64.1,31.8c6.8-8.9,20.4-6.6,25.1,0.8c4.1,6.6,3.7,16-2.2,21.7c-4.6,4.5-10.1,8.1-15.2,12
			c-2.2,1.7-4.6,3.2-7,4.7c-0.7,0.4-1.9,0.5-2.5,0.2c-7.8-5.3-15.6-10.5-21.8-17.6c-6.7-7.8-5.6-18.2,2.4-24.6
			C49.4,23.6,58.4,24.8,64.1,31.8z M63.3,69.4c4.7-3.1,9.2-6.1,13.7-9.2c1.6-1.1,3.1-2.3,4.6-3.5c3.5-2.8,6.3-6,7.6-10.5
			c1.9-6.8-1.2-14.4-7-17c-6.8-3-13.1-0.9-17.2,5.7c-0.2,0.4-0.9,0.9-1.1,0.9c-0.5-0.3-1-0.7-1.1-1.2c-0.9-3.1-3-5.2-6-6.2
			c-4.7-1.5-9.2-0.9-13.1,2.4c-6.8,5.9-7.5,14.6-1.5,21.4C48.2,59.1,55.8,64.1,63.3,69.4z"/>
		<path class="st0" d="M92.4,78.1c0.8-1.6,1.9-3.7,3-5.8c2.1-3.9,6-5,9.8-6c2.5-0.6,4.8,2.6,3.5,4.9c-3.6,6.8-7.4,13.5-11.4,20.1
			c-0.8,1.3-2.7,2.2-4.3,2.7c-2.8,0.8-5.7,1.1-8.5,1.6c-4,0.6-7.3,2.2-9.6,5.7c-0.4,0.6-1.8,1-2.4,0.7c-7.2-3.1-7.2-3.2-3.8-10.2
			c1.4-2.9,3-5.7,4.6-8.5c1.3-2.1,3.3-3.3,5.8-3.6C83.4,79.4,87.7,78.7,92.4,78.1z M73.1,100.2c3.1-4.5,7.3-6.2,12.3-6.7
			c2.4-0.3,4.9-0.7,7.2-1.4c1.2-0.3,2.6-1.1,3.2-2.1c3.7-6.3,7.3-12.8,10.8-19.2c0.3-0.5,0.1-1.4-0.2-1.9c-0.2-0.3-1.1-0.4-1.6-0.3
			c-3.7,1-6.9,2.5-8.4,6.4c-1,2.6-1.9,5.2-3.1,7.7c-0.4,0.9-1.3,2.1-2.2,2.3c-2.6,0.6-5.3,0.9-8,1.2c-0.5,0.1-1.1-0.5-1.6-0.8
			c0.5-0.4,0.9-1.1,1.4-1.2c2.2-0.5,4.5-0.6,6.7-1.1c0.7-0.1,1.2-0.9,1.8-1.4c-0.7-0.4-1.5-1.1-2.2-1.1c-3.1,0.3-6.3,0.6-9.3,1.4
			c-1.8,0.5-3.9,1.5-4.8,3c-2.5,3.9-4.5,8.1-6.7,12.3C69.9,98.4,71.4,99.2,73.1,100.2z"/>
		<path class="st0" d="M19,70.3c0-2.9,2.2-4.4,4.7-3.8c5.3,1.3,8.9,4.3,10.7,9.4c0.6,1.8,1.4,2.5,3.7,2.6c4,0,8,0.7,11.9,1.6
			c1.6,0.4,3.5,1.7,4.3,3.1c2.7,4.4,4.9,9,7.2,13.7c0.3,0.5-0.3,1.7-0.8,2.3c-0.5,0.6-1.3,0.8-2,1.2c-1.4,0.7-2.8,2.1-4.1,2
			c-1.1-0.1-1.9-2.2-3.2-2.9c-2.5-1.4-5.2-2.7-7.9-3.7c-1.7-0.6-3.6-0.9-5.4-1c-4.8-0.3-7.7-2.8-9.8-7.1c-2.6-5.4-5.7-10.4-8.6-15.6
			C19.3,71.4,19.1,70.6,19,70.3z M59.8,97.3c-2.3-4.3-4.5-8.5-6.9-12.6c-0.7-1.2-2.1-2.3-3.4-2.6c-3.7-0.8-7.4-1.2-11.2-1.6
			c-0.5-0.1-1.2,0.7-1.7,1.1c0.5,0.5,0.9,1.3,1.5,1.4c2.2,0.5,4.5,0.7,6.7,1.1c0.6,0.1,1.1,0.8,1.7,1.2c-0.6,0.3-1.2,0.9-1.8,0.8
			c-2.5-0.2-5.1-0.5-7.5-1.1c-1-0.3-2-1.3-2.5-2.3c-1-2.1-1.6-4.3-2.5-6.5c-1.4-3.8-4-6.4-8-7.3c-0.9-0.2-1.9,0-2.9,0
			c0.2,0.9,0.1,1.9,0.5,2.6c2.3,4.4,5.2,8.6,7.1,13.1c2.4,5.6,6.3,8.2,12.2,8.5c5.4,0.3,10.3,1.9,13.6,6.9
			C56.5,99.2,58,98.4,59.8,97.3z"/>
	</g>
</g>
</svg>
