<?xml version="1.0" encoding="utf-8"?>
<!-- Generator: Adobe Illustrator 22.1.0, SVG Export Plug-In . SVG Version: 6.00 Build 0)  -->
<svg version="1.1" id="Layer_1" xmlns="http://www.w3.org/2000/svg" xmlns:xlink="http://www.w3.org/1999/xlink" x="0px" y="0px"
	 viewBox="0 0 128 128" style="enable-background:new 0 0 128 128;" xml:space="preserve">
<style type="text/css">
	.st0{fill:#8DC642;stroke:#8DC642;stroke-miterlimit:10;}
	.st1{fill:#8DC642;}
</style>
<g>
	<path class="st0" d="M64,109c-24.8,0-45-20.2-45-45s20.2-45,45-45s45,20.2,45,45S88.8,109,64,109z M64,21.7
		c-23.3,0-42.3,19-42.3,42.3c0,23.3,19,42.3,42.3,42.3s42.3-19,42.3-42.3C106.3,40.7,87.3,21.7,64,21.7z"/>
	<g>
		<path class="st1" d="M45.7,72c-4.4,0-8-3.6-8-8s3.6-8,8-8s8,3.6,8,8S50.1,72,45.7,72z M45.7,59.2c-2.6,0-4.8,2.2-4.8,4.8
			s2.2,4.8,4.8,4.8s4.8-2.2,4.8-4.8S48.4,59.2,45.7,59.2z"/>
		<path class="st1" d="M64,72c-4.4,0-8-3.6-8-8s3.6-8,8-8s8,3.6,8,8S68.4,72,64,72z M64,59.2c-2.6,0-4.8,2.2-4.8,4.8
			s2.2,4.8,4.8,4.8s4.8-2.2,4.8-4.8S66.6,59.2,64,59.2z"/>
		<path class="st1" d="M82.3,72c-4.4,0-8-3.6-8-8s3.6-8,8-8c4.4,0,8,3.6,8,8S86.7,72,82.3,72z M82.3,59.2c-2.6,0-4.8,2.2-4.8,4.8
			s2.2,4.8,4.8,4.8c2.6,0,4.8-2.2,4.8-4.8S84.9,59.2,82.3,59.2z"/>
	</g>
</g>
</svg>
