<?xml version="1.0" encoding="utf-8"?>
<!-- Generator: Adobe Illustrator 19.0.0, SVG Export Plug-In . SVG Version: 6.00 Build 0)  -->
<svg version="1.1" id="Layer_1" xmlns="http://www.w3.org/2000/svg" xmlns:xlink="http://www.w3.org/1999/xlink" x="0px" y="0px"
	 viewBox="0 0 40 40" style="enable-background:new 0 0 40 40;" xml:space="preserve">
<style type="text/css">
	.st0{fill:#8EC641;}
</style>
<path id="XMLID_25_" class="st0" d="M22.6,36.8c-5.4,0-10.8,0-16.2,0c-1.1-0.4-1.8-1.1-2.1-2.1c0-9.3,0-18.6,0-27.9
	C4.6,5.7,5.3,5,6.3,4.7c5.4,0,10.7,0,16.1,0C24,5.2,24.6,6.3,24.6,8c-0.1,3.3,0,6.6,0,9.9c0,0.2,0,0.5,0,0.7
	c1.9,0.6,2.5,1.5,2.5,3.5c0,1.5,0,3,0,4.5c0,1.1,0.7,1.9,1.8,1.9c1,0,1.7-0.7,1.7-1.9c0-2.5,0-5,0-7.5c0-0.2,0-0.4,0-0.6
	c-2.3-0.5-3.7-1.8-4.2-4c-0.2-0.8-0.1-1.7-0.1-2.5c0-1.7,0.3-2.2,1.9-2.8c0-0.1,0-0.2,0-0.2c0-0.5,0.2-0.8,0.7-0.8
	c0.5,0,0.7,0.4,0.7,0.8c0,0.6,0,1.3,0,1.9c0,0.2-0.2,0.5-0.4,0.6c-0.2,0.1-0.5,0-0.7-0.1c-0.2-0.1-0.2-0.4-0.4-0.8
	c-0.1,0.4-0.3,0.7-0.3,0.9c0,0.7,0,1.5,0,2.2c0.1,1.9,1.7,3.4,3.6,3.4c2,0,3.6-1.5,3.7-3.5c0-0.7,0-1.5,0-2.2c0-0.3-0.2-0.6-0.3-0.9
	c-0.2,0.2-0.1,0.4-0.2,0.5c-0.2,0.2-0.4,0.4-0.7,0.4c-0.2,0-0.6-0.3-0.6-0.5c-0.1-0.8-0.1-1.6,0-2.4c0-0.2,0.4-0.5,0.6-0.5
	c0.2,0,0.5,0.3,0.7,0.5c0.1,0.1,0,0.3,0.1,0.5c1,0.2,1.5,0.8,1.9,1.7c0,1.1,0,2.2,0,3.3c-0.1,0.2-0.1,0.4-0.2,0.5
	c-0.6,1.8-1.7,3.1-3.6,3.6C32.1,18.3,32,18.5,32,19c0,2.5,0,5.1,0,7.6c0,1-0.4,1.8-1.2,2.5c-1,0.8-2.1,0.9-3.2,0.4
	c-1.2-0.6-1.7-1.6-1.7-2.8c0-1.7,0-3.4,0-5c0-0.9-0.4-1.4-1.2-1.6c0,0.2,0,0.5,0,0.7c0,4.3,0,8.5,0,12.8
	C24.7,35.1,24.2,36.3,22.6,36.8z M23.3,18.5c0-2.5,0-4.9,0-7.3c-5.9,0-11.8,0-17.7,0c0,6.4,0,12.7,0,19.1c5.9,0,11.7,0,17.6,0
	c0-3.5,0-6.9,0-10.3c-0.6,0-1.1,0-1.6,0c-0.5,0-1.1,0-1.6,0c-0.9,2.5-2.2,3.5-4.2,3.2c-1.7-0.2-3-1.7-3.1-3.4
	c-0.1-1.8,1-3.4,2.7-3.9c1.9-0.5,3.5,0.4,4.5,2.5C21,18.5,22.1,18.5,23.3,18.5z M5.6,31.6c0,0.7,0,1.4,0,2.1c0,1.3,0.4,1.8,1.8,1.8
	c4.4,0,8.9,0,13.3,0c0.5,0,1,0,1.4,0c0.6,0,1.2-0.5,1.2-1.1c0.1-0.9,0-1.9,0-2.8C17.4,31.6,11.5,31.6,5.6,31.6z M23.3,9.7
	c0-0.1,0-0.1,0-0.2c0-0.6,0-1.3,0-1.9c0-1.2-0.5-1.6-1.6-1.6c-2.4,0-4.7,0-7.1,0c-2.5,0-5,0-7.5,0C6.3,6,5.7,6.4,5.6,7
	c-0.1,0.9,0,1.8,0,2.7C11.5,9.7,17.4,9.7,23.3,9.7z M16.2,17.1c-1.3,0-2.3,1-2.3,2.3c0,1.3,1,2.4,2.3,2.4c1.3,0,2.3-1.1,2.3-2.3
	C18.6,18.1,17.5,17.1,16.2,17.1z"/>
<path id="XMLID_3_" class="st0" d="M14.4,34.1c-0.4,0-0.7,0-1.1,0c-0.4,0-0.7-0.2-0.7-0.7c0-0.4,0.3-0.7,0.7-0.7c0.7,0,1.5,0,2.2,0
	c0.4,0,0.7,0.2,0.7,0.7c0,0.5-0.3,0.7-0.7,0.7C15.1,34.1,14.8,34.1,14.4,34.1z"/>
<path id="XMLID_2_" class="st0" d="M13,8.4c-0.4,0-0.8,0-1.1,0c-0.4,0-0.7-0.3-0.7-0.7c0-0.4,0.3-0.7,0.7-0.7c0.8,0,1.5,0,2.3,0
	c0.4,0,0.7,0.3,0.7,0.7c0,0.4-0.3,0.6-0.7,0.7C13.8,8.4,13.4,8.4,13,8.4z"/>
<path id="XMLID_1_" class="st0" d="M16.7,8.4c-0.5,0-0.9-0.1-1-0.7c0-0.5,0.3-0.7,1-0.7c0.6,0,0.9,0.3,0.9,0.7
	C17.5,8.4,17.1,8.5,16.7,8.4z"/>
</svg>
