<?xml version="1.0" encoding="utf-8"?>
<!-- Generator: Adobe Illustrator 19.0.0, SVG Export Plug-In . SVG Version: 6.00 Build 0)  -->
<svg version="1.1" id="Layer_1" xmlns="http://www.w3.org/2000/svg" xmlns:xlink="http://www.w3.org/1999/xlink" x="0px" y="0px"
	 viewBox="0 0 40 40" style="enable-background:new 0 0 40 40;" xml:space="preserve">
<style type="text/css">
	.st0{fill:#8DC63F;}
</style>
<g id="XMLID_233_">
	<path id="XMLID_240_" class="st0" d="M35.3,22.8c-0.2,0-0.3,0-0.5,0.1c0,0.8-0.2,1.6-0.8,2.2c-0.7,0.6-1.4,0.8-2.3,0.6
		c-0.4,1.6-1.4,2.3-3,2.3c-0.5,1.7-1.2,2.2-3.1,2.2c-0.1,0.2-0.2,0.5-0.4,0.7c-0.3,0.5-0.9,0.6-1.4,0.7c-1,0.1-1.9-0.1-2.8-0.4
		c-0.6-0.2-1.1-0.4-1.7-0.6c-0.1,0-0.1-0.1-0.2-0.1c-0.3,0.3-0.5,0.6-0.8,0.9c-1.2,1.2-3.2,0.8-3.9-0.8c0-0.1-0.1-0.1-0.1-0.2
		c-0.7,0.4-1.4,0.6-2.2,0.3c-0.8-0.3-1.3-0.8-1.5-1.6c-0.8,0.6-1.7,0.6-2.5,0.2c-0.9-0.4-1.3-1.2-1.4-2.1c-2.2,0.4-3.7-1.8-2.6-3.7
		c-0.5-0.3-1-0.5-1.5-0.8c-0.5-0.2-1.1-0.3-1.7-0.5c0.2-0.4,0.3-0.7,0.5-1.1c0.3-0.2,0.5-0.5,0.8-0.7c0,0,0,0,0,0
		c0.1,0.1,0.3,0.3,0.4,0.4c-0.1,0.2-0.1,0.4-0.2,0.6c0.8,0.4,1.6,0.8,2.4,1.2c0,0,0.1-0.1,0.1-0.1c0.3-0.4,0.6-0.8,0.9-1.2
		c0.9-1.2,2.7-1.2,3.7-0.1c0.2,0.2,0.4,0.5,0.6,0.8c0.2-0.2,0.4-0.5,0.6-0.7c1.1-1.4,3.4-1.1,4.1,0.5c0.1,0.3,0.2,0.6,0.3,1
		c0.7-0.1,1.4,0,1.9,0.5c0.6,0.5,0.9,1.1,0.9,1.8c0.1,0,0.1,0,0.1,0c1.1-0.1,2,0.3,2.5,1.3c0,0.1,0.1,0.1,0.2,0.2
		c1.6,0.8,3.2,1.7,4.9,2.5c0.6,0.3,1.6-0.1,1.9-0.7c0.1-0.4,0-0.7-0.3-0.9c-0.7-0.4-1.5-0.8-2.2-1.2c-1.2-0.7-2.4-1.4-3.6-2
		c-0.3-0.2-0.4-0.5-0.2-0.8c0.2-0.3,0.5-0.3,0.8-0.1c1.1,0.6,2.2,1.2,3.3,1.8c0.9,0.5,1.8,1,2.7,1.6c0.4,0.2,0.7,0.3,1.2,0.3
		c0.7-0.1,1.3-0.6,1.4-1.2c0.1-0.3-0.1-0.6-0.2-0.7c-2.1-1.2-4.3-2.5-6.4-3.7c-0.3-0.2-0.5-0.5-0.3-0.8c0.2-0.3,0.5-0.3,0.8-0.1
		c2.4,1.4,4.8,2.8,7.1,4.2c0.6,0.3,1.2,0.2,1.7-0.2c0.4-0.4,0.6-1.2,0.2-1.7c-0.1-0.2-0.3-0.4-0.4-0.5c-0.7-0.8-1.5-1.4-2.4-2
		c-1.4-1-2.8-1.9-4.2-2.8c-1-0.6-2.1-1.1-3.1-1.7c-0.3-0.1-0.4-0.1-0.7,0c-0.8,0.4-1.6,0.8-2.5,1.2c-0.1,0.1-0.2,0.1-0.3,0.3
		c-0.2,0.4-0.3,0.7-0.5,1.1c-0.2,0.3-0.4,0.5-0.6,0.7c-0.2-0.2-0.5-0.5-0.7-0.7c0,0,0-0.1,0-0.1c0.5-0.5,0.8-1.2,1-1.9
		c0.2-0.6,0.2-1.3,0.3-2c0-0.2,0.1-0.4,0.3-0.4c0.2-0.1,0.4-0.1,0.5,0.1c0.2,0.1,0.2,0.3,0.2,0.6c0,0.4-0.1,0.8-0.1,1.2
		c0,0,0,0,0.1,0.1c0.7-0.4,1.4-0.8,2.1-1.2c0.2-0.1,0.4-0.2,0.7-0.1c0.4,0.2,0.7,0.3,1.1,0.5c2.5,1.3,4.9,2.8,7.2,4.5
		c0.9,0.7,1.9,1.5,2.6,2.4c0,0.1,0.1,0.1,0.2,0.1c0.7,0.1,1.4,0,2-0.2c0.1,0,0.1,0,0.2,0C36.2,21.9,35.8,22.4,35.3,22.8z M7.9,27.1
		c0,0.6,0.4,1.1,0.9,1.3c0.5,0.2,1.1,0,1.5-0.5c0.3-0.4,0.7-0.9,1-1.3c0.8-1,1.6-2,2.4-3.1c0.3-0.4,0.3-0.9,0.1-1.4
		c-0.2-0.5-0.6-0.7-1.2-0.7c-0.5,0-0.8,0.2-1.1,0.5c-1,1.3-2.1,2.7-3.1,4C8.2,26.3,7.9,26.7,7.9,27.1z M11.6,28.4
		C11.6,28.4,11.6,28.4,11.6,28.4c0.1,0.9,0.9,1.5,1.7,1.3c0.4-0.1,0.7-0.4,1-0.8c0.8-1,1.6-2,2.3-3c0.1-0.2,0.2-0.4,0.2-0.6
		c0.1-0.6-0.3-1.1-0.8-1.4c-0.5-0.2-1.1-0.1-1.5,0.4c-0.2,0.2-0.4,0.4-0.5,0.7c-0.7,0.9-1.4,1.7-2,2.6
		C11.8,27.8,11.7,28.1,11.6,28.4z M18.6,26.1c-0.6,0-0.9,0.2-1.2,0.5c-0.4,0.5-0.7,0.9-1.1,1.4c-0.3,0.3-0.6,0.7-0.8,1
		c-0.3,0.6-0.1,1.3,0.5,1.7c0.5,0.3,1.3,0.2,1.7-0.3c0.6-0.8,1.2-1.5,1.8-2.3c0.3-0.4,0.4-0.9,0.1-1.4C19.4,26.4,19,26.1,18.6,26.1z
		 M9.2,22.9c0-0.7-0.4-1.2-0.9-1.4c-0.5-0.2-1.1,0-1.5,0.5c-0.5,0.6-1,1.2-1.4,1.9c-0.3,0.3-0.4,0.7-0.4,1.1c0.1,0.6,0.4,1,1,1.2
		c0.5,0.1,1.1,0,1.4-0.5c0.5-0.6,1-1.3,1.5-1.9C9,23.4,9.2,23.1,9.2,22.9z M19.8,29.6c0.5,0.2,0.9,0.3,1.4,0.5
		c0.8,0.2,1.6,0.5,2.5,0.4c0.2,0,0.4-0.1,0.6-0.2c0.3-0.2,0.3-0.6,0-0.8c-0.9-0.5-1.8-0.9-2.7-1.4c-0.2-0.1-0.5-0.2-0.7-0.4
		C20.8,28.5,20.3,29,19.8,29.6z"/>
	<path id="XMLID_239_" class="st0" d="M2.3,20.4C2.3,20.4,2.3,20.4,2.3,20.4C2.1,20.3,2,20.2,1.9,20c0.1-0.3,0.2-0.6,0.3-1
		c0.7-1.7,1.4-3.4,2-5.2c0.5-1.3,1-2.6,1.5-3.9c0-0.1,0.1-0.2,0.1-0.3c0.6,0.2,1.3,0.3,1.9,0.5c0.9,0.2,1.8,0.2,2.7,0.1
		c0.7-0.1,1.5-0.1,2.2-0.3c0.9-0.2,1.8-0.5,2.6-0.8c1.1-0.4,2.2-0.9,3.3-1.1c1-0.2,2-0.2,2.9,0c0.3,0.1,0.5,0.1,0.8,0.2
		c0.3,0,0.5-0.1,0.8-0.1c1.1-0.1,2.2,0,3.3,0.2c1.3,0.3,2.6,0.5,3.9,0.8c1,0.2,2,0.3,3,0.2c0.7,0,1.4-0.2,2.1-0.5
		c0.1,0,0.1,0,0.2-0.1c0.1,0.4,0.2,0.7,0.3,1.1c0.5,1.7,0.9,3.5,1.4,5.2c0.4,1.5,0.8,3,1.2,4.6c0,0.1,0,0.1,0,0.2
		c-0.2,0.2-0.4,0.4-0.6,0.6c-0.1-0.1-0.3-0.3-0.4-0.4c0-0.1-0.1-0.2-0.1-0.3c-0.8-2.9-1.5-5.8-2.3-8.7c-0.1-0.2-0.1-0.5-0.2-0.8
		c-1.1,0.3-2.3,0.3-3.4,0.2c-0.8-0.1-1.5-0.2-2.3-0.4c-1.4-0.3-2.8-0.5-4.3-0.8c-0.8-0.1-1.6-0.1-2.4,0.2c-1.3,0.4-2.6,1-3.8,1.8
		c-1.2,0.8-1.9,1.9-2.2,3.3c-0.1,0.5-0.1,0.9-0.1,1.4c0,0.1-0.1,0.2-0.1,0.3c-0.3-0.3-0.6-0.6-0.8-0.9c0,0,0-0.1,0-0.1
		c0-0.7,0.1-1.3,0.4-1.9c0.3-0.7,0.6-1.3,1.1-1.8c0.8-0.8,1.6-1.4,2.6-1.9c0.3-0.2,0.6-0.3,1-0.5c-0.3,0-0.5-0.1-0.8,0
		c-1.1,0.1-2.1,0.5-3.2,0.9c-0.9,0.3-1.8,0.7-2.8,1c-1.2,0.3-2.4,0.6-3.6,0.5c-0.7,0-1.5,0-2.2-0.1c-0.4,0-0.9-0.2-1.3-0.2
		c0,0.1-0.1,0.1-0.1,0.2c-0.3,0.7-0.6,1.5-0.9,2.2c-0.4,1.1-0.9,2.3-1.3,3.4c-0.3,0.9-0.7,1.7-1.1,2.6C2.9,19.8,2.6,20.1,2.3,20.4z"
		/>
	<path id="XMLID_238_" class="st0" d="M37.9,20.3c0.2-0.2,0.4-0.4,0.6-0.6c0.1,0.2,0.1,0.3,0.2,0.5c0.1,0.4,0.2,0.9,0.4,1.4
		c-0.3,0.1-0.6,0.3-1,0.4c-0.7,0.3-1.3,0.6-2,0.8c-0.2,0-0.5,0-0.7,0c0.4-0.4,0.9-0.9,1.3-1.3c0.2-0.1,0.4-0.2,0.6-0.3
		c0.4-0.2,0.4-0.2,0.3-0.6c0,0,0,0,0,0C37.7,20.5,37.8,20.4,37.9,20.3z"/>
	<path id="XMLID_237_" class="st0" d="M1.9,20c0.1,0.1,0.2,0.2,0.3,0.3c-0.3,0.2-0.5,0.5-0.8,0.7C1.6,20.8,1.8,20.4,1.9,20z"/>
	<path id="XMLID_236_" class="st0" d="M16.3,16.2c0,0.1,0,0.2,0,0.2c-0.2,0.6-0.4,1.2-0.6,1.8c-0.1,0.2,0,0.3,0.2,0.3
		c0.8,0.2,1.5,0.1,2.2-0.4c0.1,0,0.1-0.1,0.2-0.1c0.2,0.2,0.5,0.5,0.7,0.7c-0.3,0.2-0.6,0.5-0.9,0.6c-0.8,0.4-1.6,0.5-2.4,0.2
		c-0.9-0.3-1.2-0.7-1-1.7c0.1-0.5,0.3-1,0.4-1.4c0.1-0.4,0.3-0.8,0.4-1.2C15.7,15.6,16,15.9,16.3,16.2z"/>
	<path id="XMLID_235_" class="st0" d="M3.2,19.5c-0.2,0.5-0.4,0.9-0.5,1.4c-0.1-0.1-0.3-0.3-0.4-0.4C2.6,20.1,2.9,19.8,3.2,19.5z"/>
	<path id="XMLID_234_" class="st0" d="M37.6,20.5c0-0.2-0.1-0.4-0.1-0.6c0.1,0.1,0.3,0.3,0.4,0.4C37.8,20.4,37.7,20.5,37.6,20.5z"/>
</g>
</svg>
