<?xml version="1.0" encoding="utf-8"?>
<!-- Generator: Adobe Illustrator 19.0.0, SVG Export Plug-In . SVG Version: 6.00 Build 0)  -->
<svg version="1.1" id="Layer_1" xmlns="http://www.w3.org/2000/svg" xmlns:xlink="http://www.w3.org/1999/xlink" x="0px" y="0px"
	 viewBox="0 0 40 40" style="enable-background:new 0 0 40 40;" xml:space="preserve">
<style type="text/css">
	.st0{fill:#8DC63F;}
</style>
<g id="XMLID_196_">
	<path id="XMLID_200_" class="st0" d="M15.7,12.6c-0.6,0-1.1,0-1.7,0c0-2.5,0-5,0-7.6c4,0,8,0,12,0c0,2.5,0,5,0,7.6
		c-0.6,0-1.1,0-1.7,0c-0.2,1.2,0,1.8,1.1,2.1c0.3,0.1,0.7,0.2,1,0.3c0.7,0.3,1.2,0.8,1.5,1.5c0.1,0.3,0.1,0.6,0.1,0.8
		c0,4.5,0,8.9,0,13.4c0,0.5,0,1.1,0,1.6C27.9,34,26.8,35,25.3,35c-3.3,0-6.6,0-9.9,0c-0.3,0-0.7,0-1,0C13,34.9,12,33.8,12,32.5
		c0-0.6,0-1.3,0-1.9c0-2.4,0-4.8,0-7.2c0-2,0-3.9,0-5.9c0-1.4,0.8-2.3,2.1-2.7c0.4-0.1,0.8-0.2,1.2-0.5c0.3-0.2,0.4-0.5,0.5-0.9
		C15.8,13.2,15.7,12.9,15.7,12.6z M17.1,12.6c0,0.3,0,0.5,0,0.8c0,1.2-0.7,2.1-1.8,2.5c-0.4,0.1-0.8,0.3-1.2,0.4
		c-0.5,0.2-0.8,0.6-0.8,1.2c0,4.9,0,9.8,0,14.7c0,1,0.6,1.4,1.4,1.4c2.9,0,5.9,0,8.8,0c0.6,0,1.2,0,1.7,0c0.7,0,1.2-0.5,1.2-1.2
		c0-5,0-10,0-15c0-0.5-0.2-0.8-0.6-1c-0.3-0.1-0.7-0.3-1-0.4c-1.4-0.5-2.1-1.4-2.1-2.8c0-0.2,0-0.4,0-0.6
		C20.9,12.6,19.1,12.6,17.1,12.6z M15.4,6.4c0,1.6,0,3.2,0,4.8c3.1,0,6.1,0,9.2,0c0-1.6,0-3.2,0-4.8C21.5,6.4,18.5,6.4,15.4,6.4z"/>
	<path id="XMLID_199_" class="st0" d="M20.7,20.5c0,0.3,0,0.7,0,1c0,0.3,0,0.6,0,1c0.1,0,0.2,0,0.3,0c1.2,0,2.4,0,3.5,0
		c0.2,0,0.4,0.1,0.6,0.2c0.2,0.2,0.3,0.4,0.2,0.7c-0.1,0.3-0.4,0.5-0.7,0.5c-1,0-2,0-3,0c-0.3,0-0.5,0-0.8,0c0,0.1,0,0.2,0,0.3
		c0,1.2,0,2.4,0,3.5c0,0.6-0.5,0.9-1,0.7c-0.3-0.1-0.4-0.4-0.4-0.6c0-1.2,0-2.4,0-3.5c0-0.1,0-0.2,0-0.3c-0.2,0-0.3,0-0.4,0
		c-0.8,0-1.6,0-2.4,0c-0.1,0-0.2,0-0.3,0c0.4-0.4,0.9-0.9,1.3-1.3c0.1,0,0.3,0,0.4,0c0.5,0,0.9,0,1.4,0c0-0.1,0-0.2,0-0.3
		c0-1.2,0-2.4,0-3.6c0-0.6,0.5-0.9,1-0.6c0.2,0.1,0.3,0.3,0.4,0.5c0.1,0.3,0,0.6,0,1c-0.1,0.1-0.2,0.3-0.3,0.3
		c-0.2,0.2-0.2,0.3,0,0.4C20.4,20.3,20.5,20.4,20.7,20.5z"/>
	<path id="XMLID_198_" class="st0" d="M17.5,22.6c-0.4,0.4-0.9,0.9-1.3,1.3c-0.4,0.1-0.8,0.1-1.2-0.1c-0.3-0.2-0.4-0.5-0.3-0.7
		c0.1-0.3,0.4-0.5,0.7-0.5c0.6,0,1.3,0,1.9,0C17.3,22.5,17.4,22.6,17.5,22.6z"/>
	<path id="XMLID_197_" class="st0" d="M20.7,20.5c-0.1-0.1-0.2-0.3-0.4-0.4c-0.2-0.2-0.2-0.3,0-0.4c0.1-0.1,0.2-0.2,0.3-0.3
		C20.7,19.8,20.7,20.2,20.7,20.5z"/>
</g>
</svg>
