<?xml version="1.0" encoding="utf-8"?>
<!-- Generator: Adobe Illustrator 19.0.0, SVG Export Plug-In . SVG Version: 6.00 Build 0)  -->
<svg version="1.1" id="Layer_1" xmlns="http://www.w3.org/2000/svg" xmlns:xlink="http://www.w3.org/1999/xlink" x="0px" y="0px"
	 viewBox="0 0 40 40" style="enable-background:new 0 0 40 40;" xml:space="preserve">
<style type="text/css">
	.st0{fill:#8EC641;stroke:#8EC641;stroke-width:0.5;stroke-miterlimit:10;}
</style>
<path id="XMLID_20_" class="st0" d="M2.8,24.2c0.8-1,1.5-1.9,2.3-3c1,0.8,2.1,1.5,3.1,2.3c-0.2,0.2-0.3,0.4-0.5,0.6
	c-0.7-0.5-1.3-1-2-1.4c-0.2,1.4,1.1,4.7,2.6,6.6c2.4,3.1,5.6,5,9.5,5.6c7.9,1.1,15.5-4.7,16.3-13.2c0.2,0,0.5,0,0.7,0
	c-0.1,5.3-4.3,12.4-12.4,13.9c-8.1,1.5-16.4-4-17.8-12.7c-0.5,0.7-1,1.3-1.5,1.9c-0.2-0.1-0.4-0.2-0.6-0.3
	C2.8,24.3,2.8,24.2,2.8,24.2z"/>
<path id="XMLID_16_" class="st0" d="M36.9,17c-0.7,1.1-1.5,2.1-2.2,3.2c-1.1-0.7-2.1-1.5-3.2-2.2c0.1-0.2,0.3-0.4,0.4-0.6
	c0.7,0.5,1.4,1,2.2,1.5c-0.5-5.7-5.6-12.1-13.6-12.5C13,6.1,6.4,11.6,5.6,19.5c-0.2,0-0.5,0-0.7,0c0-4.7,4-11.8,11.8-13.6
	c8-1.8,16.7,3.5,18.2,12.6c0.5-0.7,0.9-1.3,1.3-1.9c0.2,0.1,0.4,0.2,0.7,0.3C36.9,16.9,36.9,16.9,36.9,17z"/>
<path id="XMLID_13_" class="st0" d="M22.7,18.6c1.1,0.4,2.3,0.8,3.3,1.3c0.8,0.4,1.3,1.2,1.4,2.1c0.3,2,0.4,4.1,0.6,6.2
	c-5.6,0-11,0-16.4,0c0-0.7,0-1.5,0-2.2c0.1-1,0.2-2.1,0.3-3.1c0.2-1.7,1-2.9,2.7-3.5c0.8-0.2,1.5-0.5,2.3-0.8c0.7,1.4,1.4,2.7,2.2,4
	c0.1,0.2,0.4,0.4,0.7,0.5c0.4,0.1,0.6-0.2,0.7-0.5C21.2,21.2,22,20,22.7,18.6z M16.6,19.5c-0.2,0.1-0.4,0.1-0.5,0.2
	c-2.4,0.5-3.5,1.9-3.5,4.4c0,1.1-0.1,2.2-0.2,3.3c0.8,0,1.4,0,2.1,0c0.1-0.9,0.1-1.8,0.2-2.7c0.3,0,0.5,0,0.8,0
	c0,0.9-0.1,1.7-0.1,2.6c3,0,6,0,9,0c0-0.9-0.1-1.7-0.1-2.6c0.3,0,0.5,0,0.8,0c0.1,0.9,0.1,1.7,0.2,2.6c0.7,0,1.3,0,2.1,0
	c-0.2-1.8-0.3-3.5-0.6-5.2c-0.1-0.8-0.6-1.4-1.4-1.8c-0.7-0.3-1.5-0.5-2.3-0.8c-0.6,1.1-1.2,2.2-1.7,3.3c-0.4,0.8-0.9,1.2-1.8,1.1
	c-0.4,0-0.7-0.2-0.9-0.6C18,22,17.3,20.8,16.6,19.5z"/>
<path id="XMLID_10_" class="st0" d="M19.8,18.3c-2.1,0-3.8-1.7-3.9-3.9c0-2,1.7-3.8,3.8-3.8c2.1,0,3.9,1.8,3.9,3.8
	C23.7,16.5,21.9,18.3,19.8,18.3z M19.8,11.5c-1.7,0-3,1.4-3.1,3c0,1.7,1.4,3,3.1,3c1.6,0,3-1.4,3-3C22.9,12.9,21.5,11.5,19.8,11.5z"
	/>
</svg>
