<?xml version="1.0" encoding="utf-8"?>
<!-- Generator: Adobe Illustrator 19.0.0, SVG Export Plug-In . SVG Version: 6.00 Build 0)  -->
<svg version="1.1" id="Layer_1" xmlns="http://www.w3.org/2000/svg" xmlns:xlink="http://www.w3.org/1999/xlink" x="0px" y="0px"
	 viewBox="0 0 40 40" style="enable-background:new 0 0 40 40;" xml:space="preserve">
<style type="text/css">
	.st0{fill:#8DC63F;}
</style>
<g id="XMLID_171_">
	<path id="XMLID_187_" class="st0" d="M17.2,16.8c1.3,0,2.6,0,3.9,0c0.5,0,0.7-0.2,0.7-0.7c0-0.5-0.2-0.6-0.6-0.6
		c-2.6,0-5.2,0-7.8,0c-0.4,0-0.6,0.1-0.6,0.6c0,0.5,0.2,0.7,0.7,0.7C14.7,16.8,16,16.8,17.2,16.8z"/>
	<path id="XMLID_186_" class="st0" d="M17.2,19.9c-1.3,0-2.6,0-3.9,0c-0.4,0-0.7,0.1-0.7,0.6c0,0.5,0.2,0.7,0.7,0.7
		c2.6,0,5.2,0,7.8,0c0.4,0,0.6-0.2,0.6-0.6c0-0.4-0.1-0.6-0.6-0.6C19.9,19.9,18.5,19.9,17.2,19.9z"/>
	<path id="XMLID_185_" class="st0" d="M15.9,25.4c0.9,0,1.9,0,2.8,0c0.4,0,0.5-0.2,0.5-0.6c0-0.3,0-0.6-0.4-0.6c-1.8,0-3.7,0-5.5,0
		c-0.4,0-0.5,0.3-0.5,0.6c0,0.4,0.1,0.6,0.5,0.6C14.1,25.4,15,25.4,15.9,25.4z"/>
	<path id="XMLID_184_" class="st0" d="M24.7,19.7c-0.2,0.2-0.4,0.3-0.5,0.5c-0.1,0.1,0,0.4,0.1,0.5c0.3,0.4,0.7,0.7,1,1.1
		c0.2,0.2,0.5,0.2,0.7,0c0.5-0.5,1-1.1,1.6-1.6c0.3-0.3,0.2-0.5,0-0.7c-0.2-0.2-0.5-0.3-0.7,0c-0.2,0.3-0.5,0.5-0.7,0.7
		c-0.3,0.3-0.5,0.3-0.8,0C25.1,20,24.9,19.8,24.7,19.7z"/>
	<path id="XMLID_183_" class="st0" d="M25.6,26.2c0.1-0.1,0.3-0.2,0.4-0.3c0.5-0.5,1-1,1.5-1.5c0.3-0.3,0.3-0.5,0-0.8
		c-0.3-0.3-0.5-0.3-0.8,0c-0.2,0.2-0.5,0.4-0.7,0.7c-0.3,0.4-0.6,0.4-0.9,0c-0.3-0.3-0.5-0.4-0.9,0c-0.3,0.3-0.2,0.6,0.1,0.8
		c0.3,0.3,0.6,0.6,0.8,0.8C25.3,26.1,25.4,26.1,25.6,26.2z"/>
	<path id="XMLID_182_" class="st0" d="M24.5,15.2c-0.1,0.2-0.3,0.4-0.4,0.7c0,0.1,0,0.4,0.1,0.5c0.3,0.4,0.7,0.7,1,1
		c0.2,0.3,0.4,0.2,0.7,0c0.5-0.5,1-1,1.5-1.5c0.3-0.3,0.4-0.5,0-0.8c-0.3-0.3-0.6-0.2-0.8,0c-0.2,0.2-0.4,0.4-0.6,0.6
		c-0.3,0.4-0.6,0.4-1,0C25,15.6,24.8,15.5,24.5,15.2z"/>
	<path id="XMLID_181_" class="st0" d="M9.4,34c-0.2-0.4-0.4-0.8-0.4-1.2c0-7.3,0-14.7,0-22c0-1,0.2-1.2,1.1-1.2c1.2,0,2.4,0,3.6,0
		c0.1,0.5,0.1,1,0.2,1.5c-0.9,0-1.6,0-2.4,0c-0.8,0-1,0.3-1,1c0,6.4,0,12.9,0,19.3c0,0.8,0.3,1,1.1,1c5.7,0,11.3,0,17,0
		c0.8,0,1.1-0.3,1.1-1c0-6.4,0-12.9,0-19.3c0-0.8-0.2-1.1-1.1-1.1c-0.8,0-1.5,0-2.4,0c0.1-0.5,0.1-1,0.2-1.5c1.4,0,2.8,0,4.1,0
		c0.2,0,0.4,0.3,0.6,0.5c0.1,0.2,0.1,0.4,0.1,0.7c0,7.3,0,14.7,0,22c0,0.5-0.1,0.9-0.6,1.2C23.5,34,16.4,34,9.4,34z"/>
	<path id="XMLID_178_" class="st0" d="M20.6,6c1,0.4,1.8,1,2,2.1c0,0.1,0.3,0.2,0.4,0.3c0.3,0,0.7,0,1,0c0.7,0,0.8,0.1,0.7,0.8
		c-0.1,0.8-0.2,1.6-0.4,2.4c0,0.2-0.4,0.5-0.6,0.5c-2.4,0-4.9,0-7.3,0c-0.4,0-0.6-0.2-0.6-0.6c-0.1-0.8-0.2-1.6-0.4-2.4
		c-0.1-0.7,0-0.8,0.7-0.8c0.1,0,0.2,0,0.3,0c0.7,0.1,1.1,0,1.3-0.8c0.2-0.9,1.1-1.3,1.9-1.5C19.9,6,20.2,6,20.6,6z M20.8,8.2
		c-0.1-0.5-0.3-0.8-0.8-0.8c-0.4,0-0.8,0.4-0.8,0.8C19.2,8.6,19.6,9,20,9C20.5,9,20.7,8.6,20.8,8.2z"/>
	<path id="XMLID_177_" class="st0" d="M17.2,16.8c-1.3,0-2.6,0-3.9,0c-0.5,0-0.7-0.2-0.7-0.7c0-0.5,0.2-0.6,0.6-0.6
		c2.6,0,5.2,0,7.8,0c0.5,0,0.6,0.1,0.6,0.6c0,0.5-0.2,0.7-0.7,0.7C19.8,16.8,18.5,16.8,17.2,16.8z"/>
	<path id="XMLID_176_" class="st0" d="M17.2,19.9c1.3,0,2.6,0,3.9,0c0.5,0,0.6,0.2,0.6,0.6c0,0.5-0.2,0.6-0.6,0.6
		c-2.6,0-5.2,0-7.8,0c-0.5,0-0.6-0.2-0.7-0.7c0-0.5,0.3-0.6,0.7-0.6C14.7,19.9,16,19.9,17.2,19.9z"/>
	<path id="XMLID_175_" class="st0" d="M15.9,25.4c-0.9,0-1.8,0-2.7,0c-0.4,0-0.5-0.2-0.5-0.6c0-0.3,0-0.6,0.5-0.6c1.8,0,3.7,0,5.5,0
		c0.5,0,0.4,0.3,0.4,0.6c0,0.3,0,0.6-0.5,0.6C17.8,25.4,16.9,25.4,15.9,25.4z"/>
	<path id="XMLID_174_" class="st0" d="M24.7,19.7c0.2,0.2,0.4,0.3,0.5,0.4c0.3,0.3,0.5,0.3,0.8,0c0.2-0.3,0.5-0.5,0.7-0.7
		c0.3-0.3,0.5-0.2,0.7,0c0.2,0.2,0.3,0.5,0,0.7c-0.5,0.5-1.1,1-1.6,1.6c-0.2,0.2-0.4,0.3-0.7,0c-0.3-0.4-0.7-0.7-1-1.1
		c-0.1-0.1-0.1-0.4-0.1-0.5C24.3,20,24.5,19.9,24.7,19.7z"/>
	<path id="XMLID_173_" class="st0" d="M25.6,26.2c-0.2-0.1-0.3-0.2-0.4-0.3c-0.3-0.3-0.6-0.6-0.8-0.8c-0.3-0.3-0.4-0.5-0.1-0.8
		c0.3-0.3,0.6-0.3,0.9,0c0.3,0.4,0.6,0.4,0.9,0c0.2-0.2,0.4-0.4,0.7-0.7c0.3-0.3,0.5-0.3,0.8,0c0.3,0.3,0.3,0.5,0,0.8
		c-0.5,0.5-1,1-1.5,1.5C25.9,26.1,25.7,26.1,25.6,26.2z"/>
	<path id="XMLID_172_" class="st0" d="M24.5,15.2c0.4,0.3,0.5,0.4,0.6,0.5c0.3,0.4,0.6,0.3,1,0c0.2-0.2,0.4-0.4,0.6-0.6
		c0.3-0.3,0.5-0.4,0.8,0c0.3,0.3,0.2,0.6,0,0.8c-0.5,0.5-1,1-1.5,1.5c-0.2,0.2-0.4,0.3-0.7,0c-0.3-0.3-0.7-0.7-1-1
		c-0.1-0.1-0.2-0.3-0.1-0.5C24.2,15.7,24.3,15.5,24.5,15.2z"/>
</g>
</svg>
