<?xml version="1.0" encoding="utf-8"?>
<!-- Generator: Adobe Illustrator 19.0.0, SVG Export Plug-In . SVG Version: 6.00 Build 0)  -->
<svg version="1.1" id="Layer_1" xmlns="http://www.w3.org/2000/svg" xmlns:xlink="http://www.w3.org/1999/xlink" x="0px" y="0px"
	 viewBox="0 0 40 40" style="enable-background:new 0 0 40 40;" xml:space="preserve">
<style type="text/css">
	.st0{fill:#8EC641;}
</style>
<path id="XMLID_16_" class="st0" d="M33.8,17.2c0,5.8,0,11.5,0,17.3c-9.4,0-18.8,0-28.1,0c0-5.8,0-11.5,0-17.3
	c0.3-0.2,0.6-0.4,0.8-0.6c1.3-0.9,2.7-1.8,4-2.7c0.3-0.2,0.4-0.4,0.4-0.8c0-2,0-3.9,0-5.9c0-0.3,0.2-0.6,0.3-0.9
	c5.6,0,11.3,0,16.9,0c0.1,0.3,0.3,0.6,0.3,0.9c0,1.9,0,3.9,0,5.8c0,0.4,0.1,0.6,0.5,0.9C30.6,15,32.2,16.1,33.8,17.2z M12.1,7.5
	c0,0.1,0,0.2,0,0.2c0,4.3,0,8.6,0,13c0,0.2,0.2,0.4,0.3,0.6c1.1,0.9,2.3,1.7,3.4,2.5c0.5,0.4,1,0.7,1.5,1.1c0.6-0.5,1.3-0.9,1.8-1.4
	c0.4-0.3,0.7-0.3,1,0c0.6,0.5,1.2,0.9,1.8,1.3c0.1-0.1,0.3-0.2,0.4-0.3c1.5-1.1,3-2.2,4.5-3.3c0.3-0.2,0.4-0.5,0.4-0.9
	c0-4.1,0-8.3,0-12.4c0-0.2,0-0.4,0-0.6C22.2,7.5,17.2,7.5,12.1,7.5z M24.1,28c0,0,0-0.1,0.1-0.1c-1.3-1-2.7-2-4-3
	c-0.3-0.2-0.5-0.2-0.8,0c-3.6,2.7-7.2,5.3-10.8,8c-0.1,0.1-0.2,0.2-0.4,0.3c7.8,0,15.4,0,23.2,0c-0.7-0.5-1.3-1-1.9-1.4
	c-0.3-0.2-0.6-0.3-0.9-0.3c-2.8,0-5.6,0-8.4,0c-0.4,0-0.7,0.1-1.1,0c-0.2-0.1-0.5-0.3-0.5-0.5c0-0.2,0.3-0.4,0.5-0.5
	c0.1-0.1,0.3,0,0.4,0c2.4,0,4.8,0,7.3,0c0.2,0,0.4,0,0.5,0c-0.3-0.3-0.5-0.5-0.8-0.7c-0.4-0.4-0.9-0.5-1.5-0.5c-1.3,0-2.7,0-4,0
	c-0.4,0-0.7-0.1-0.7-0.5c0-0.4,0.3-0.6,0.7-0.6c0.2,0,0.4,0,0.5,0C22.4,28,23.2,28,24.1,28z M6.9,32.7c3.2-2.4,6.3-4.7,9.5-7
	c-3.2-2.4-6.3-4.7-9.5-7C6.9,23.3,6.9,27.9,6.9,32.7z M32.6,32.7c0-4.7,0-9.3,0-14c-3.2,2.4-6.3,4.7-9.5,7
	C26.2,28,29.4,30.3,32.6,32.7z M10.9,20.2c0-1.8,0-3.4,0-5.1c-1.2,0.8-2.4,1.6-3.7,2.4C8.5,18.4,9.7,19.2,10.9,20.2z M28.5,20.2
	c1.3-0.9,2.4-1.8,3.7-2.7c-1.2-0.8-2.4-1.6-3.7-2.4C28.5,16.8,28.5,18.4,28.5,20.2z"/>
<path id="XMLID_3_" class="st0" d="M21,22.1c-1.6,0.2-3-0.2-4.2-1.3c-1.6-1.5-1.8-3.8-0.3-5.5c1.4-1.7,3.8-2.1,5.6-0.8
	c1.2,0.9,2.1,2.1,2,3.8c0,0.6-0.2,1.1-0.5,1.6c-0.3,0.6-0.9,0.7-1.5,0.4c-0.9-0.4-1.3-1.2-1.6-2.1c-0.1-0.3-0.2-0.7-0.4-1
	c-0.3-0.5-0.7-0.6-1.1-0.2c-0.3,0.3-0.7,0.8-0.7,1.2c-0.1,0.5,0.5,0.7,0.9,0.9c0.3,0.1,0.6,0.1,0.8,0.3c0.2,0.1,0.3,0.4,0.3,0.6
	c0,0.2-0.3,0.4-0.5,0.4c-1.2,0-2.6-1.3-2.5-2.5c0-1.2,0.9-2.1,2.1-2.2c1.1-0.1,1.9,0.6,2.2,1.7c0.1,0.5,0.3,1,0.5,1.5
	c0.1,0.2,0.4,0.4,0.7,0.3c0.1,0,0.3-0.4,0.4-0.6c0.2-1.4-1.2-3.4-2.6-3.8c-1.3-0.3-2.8,0.5-3.5,1.9c-0.6,1.2-0.4,2.4,0.7,3.3
	c0.8,0.7,1.6,1.1,2.7,1c0.7-0.1,1.5,0,2.2,0c0.4,0,0.8,0.1,0.8,0.6c0,0.5-0.3,0.6-0.8,0.6C22,22.1,21.5,22.1,21,22.1z"/>
<path id="XMLID_2_" class="st0" d="M19.4,11.6c1.8,0,3.5,0,5.3,0c0.4,0,0.7,0,0.8,0.5c0.1,0.4-0.2,0.7-0.6,0.7c-0.4,0-0.8,0-1.3,0
	c-3.1,0-6.2,0-9.3,0c-0.1,0-0.3,0-0.4,0c-0.4,0-0.7-0.2-0.7-0.6c0-0.4,0.3-0.6,0.7-0.6C15.8,11.6,17.6,11.6,19.4,11.6
	C19.4,11.6,19.4,11.6,19.4,11.6z"/>
<path id="XMLID_1_" class="st0" d="M19.4,10.4c-1.8,0-3.6,0-5.4,0c-0.4,0-0.7-0.1-0.7-0.6c0-0.5,0.3-0.6,0.8-0.6c2.2,0,4.4,0,6.5,0
	c1.4,0,2.8,0,4.2,0c0.4,0,0.8,0.1,0.8,0.6c0,0.5-0.4,0.5-0.8,0.5C23,10.4,21.2,10.4,19.4,10.4z"/>
</svg>
