<!-- Generated by IcoMoon.io -->
<svg version="1.1" xmlns="http://www.w3.org/2000/svg" width="32" height="32" viewBox="0 0 32 32">
<title>arthritis</title>
<path d="M9.12 0.48c3.2 3.28 6.32 6.64 9.52 9.92 0.64 0.72 0.88 1.2 0.24 2.080-0.32 0.48-0.32 1.36-0.16 1.92 0.24 0.72 0.96 0.72 1.76 0.64 2.16-0.32 2.48-1.040 1.12-2.96-2.080-2.88-4.24-5.68-6.32-8.64-0.32-0.48-0.4-1.12-0.64-1.68 0.48 0.32 1.040 0.64 1.36 1.12 2.080 2.72 4.080 5.44 6.080 8.16 0.48 0.72 0.96 1.52 1.2 2.4 0.4 1.36-0.48 2.48-1.92 2.48-0.8 0-1.68 0.24-2.32-0.080-1.68-0.72-1.92-2.16-0.8-4.48-2.56-2.64-5.12-5.36-7.68-8-0.56-0.56-1.2-1.12-1.68-1.76-0.24-0.24-0.16-0.72-0.24-1.12 0.16 0 0.32 0 0.48 0zM2.24 0.48c4.96 5.12 9.84 10.32 14.8 15.44 0.8 0.88 1.2 1.68 0.72 2.88-1.44 3.6-1.92 7.44-2.24 11.28-0.080 0.64-0.32 1.36-0.48 2-0.16 0-0.32 0-0.48 0 0-0.96 0-1.92 0.080-2.88 0.32-3.6 0.88-7.2 2.16-10.64 0.16-0.48 0-1.28-0.32-1.6-4.96-5.36-10-10.56-14.96-15.76zM21.2 32c0-0.48 0-0.96 0.16-1.44 1.44-4.16 2.8-8.4 4.32-12.48 0.72-1.92 0.48-3.6-0.56-5.28-2.32-3.6-4.56-7.28-6.8-10.96-0.24-0.4-0.16-0.96-0.32-1.36 0.16 0 0.32 0 0.48 0 2.56 4.16 5.12 8.32 7.68 12.4 1.2 1.92 0.96 3.84 0.24 5.84-1.6 4.4-3.040 8.8-4.48 13.2-0.24 0.080-0.48 0.080-0.72 0.080zM17.28 32c0-0.96-0.080-1.92 0.080-2.88 0.48-2.64 1.12-5.2 1.6-7.84 0.080-0.4 0.16-0.8 0-1.12-0.48-1.12-0.48-2.16 0.64-2.96 1.040-0.72 2.080-0.64 3.12 0.080s1.44 1.76 1.040 2.88c-0.8 2.32-1.68 4.56-2.56 6.88-0.080 0.24-0.48 0.32-0.72 0.48-0.080-0.24-0.24-0.56-0.16-0.72 0.72-2 1.36-4 2.16-6 0.56-1.44 0.32-2.72-0.96-2.96-0.48-0.080-1.12 0.16-1.52 0.48-0.24 0.24-0.16 0.88-0.16 1.36 0 0.64 0.16 1.28 0.080 1.84-0.56 3.2-1.28 6.32-1.92 9.52-0.080 0.32-0.24 0.72-0.32 1.040-0.080-0.080-0.24-0.080-0.4-0.080zM29.28 12.32c0.24 0.4 0.56 0.72 0.48 0.72-0.48 0.56-0.96 1.12-1.44 1.68-0.16-0.16-0.4-0.4-0.4-0.48 0.4-0.56 0.8-1.2 1.36-1.92zM29.84 19.28c-0.16 0.16-0.48 0.4-0.48 0.4-0.48-0.56-0.96-1.12-1.44-1.68 0 0 0.4-0.48 0.4-0.4 0.64 0.4 1.28 0.8 1.92 1.2-0.16 0.080-0.24 0.32-0.4 0.48zM29.28 16.96c-0.48-0.32-0.8-0.48-1.2-0.64 0.4-0.16 0.8-0.48 1.28-0.48 0.32 0 0.72 0.24 1.12 0.4-0.32 0.24-0.72 0.48-1.2 0.72z"></path>
</svg>
