<!-- Generated by IcoMoon.io -->
<svg version="1.1" xmlns="http://www.w3.org/2000/svg" width="32" height="32" viewBox="0 0 32 32">
<title>breast</title>
<path d="M8.8 31.76c-0.48-1.040-0.4-2.16-0.4-3.2 0-0.48 0.080-0.96 0.080-1.52-0.4-0.080-0.8-0.080-1.12-0.16-4.88-0.96-7.76-6.24-6.080-10.96 0.16-0.4 0.16-0.64-0.16-0.96-0.56-0.56-0.56-1.36-0.16-2s1.2-0.96 1.92-0.72c0.48 0.16 0.72 0 0.96-0.32 1.28-1.36 2.8-2.4 4.4-3.36 1.84-1.12 3.2-2.64 4.080-4.64 0.24-0.48 0.4-1.040 0.56-1.6 0.080-0.24 0.24-0.48 0.32-0.72 0.080 0 0.16 0 0.24 0 0 0.32 0.16 0.64 0.080 0.96-0.72 2.8-2.4 4.96-4.8 6.48-1.52 0.96-2.96 1.92-4.24 3.2-0.16 0.16-0.32 0.32-0.56 0.64 0.16 0.16 0.4 0.24 0.48 0.4s0.080 0.32 0.16 0.48c-0.16 0-0.4 0.080-0.48 0-0.32-0.16-0.56-0.48-0.8-0.64-0.56-0.4-1.2-0.32-1.6 0.16s-0.32 1.12 0.24 1.52c0.48 0.32 0.4 0.64 0.24 1.12-1.76 4.32 0.8 9.36 5.28 10.4 0.96 0.24 1.84 0.24 2.56-0.56s1.44-1.6 2.16-2.4c0.16-0.16 0.4-0.24 0.56-0.32 0 0.24 0 0.56-0.080 0.64-0.96 1.040-1.84 2-2.8 2.96-0.32 0.32-0.56 0.56-0.56 0.96 0 1.2 0.080 2.4 0.080 3.6 0 0.24-0.080 0.4-0.16 0.64-0.32-0.080-0.32-0.080-0.4-0.080zM9.12 32h-0.56l-0.080-0.080c-0.48-0.96-0.4-2-0.4-3.040v-0.32c0-0.32 0-0.64 0.080-1.040 0-0.080 0-0.24 0-0.32-0.080 0-0.16 0-0.16 0-0.24 0-0.48-0.080-0.72-0.080-2.4-0.48-4.4-2-5.6-4.16s-1.44-4.8-0.64-7.12c0.16-0.32 0.16-0.48-0.080-0.72-0.56-0.64-0.64-1.52-0.16-2.32 0.48-0.72 1.36-1.040 2.16-0.8 0.32 0.16 0.56 0.080 0.8-0.24 1.28-1.36 2.8-2.4 4.4-3.36 1.76-1.12 3.12-2.64 4-4.56 0.16-0.32 0.24-0.64 0.4-1.040 0.080-0.16 0.16-0.4 0.16-0.56 0-0.080 0.080-0.24 0.080-0.4l0.16-0.32h0.56v0.16c0 0.080 0 0.16 0 0.32 0 0.24 0.080 0.48 0 0.72-0.72 2.72-2.4 4.96-4.88 6.64l-0.32 0.16c-1.36 0.88-2.72 1.76-3.92 2.96-0.080 0.080-0.24 0.24-0.32 0.32l-0.080 0.080c0.16 0.080 0.24 0.16 0.32 0.32s0.080 0.32 0.16 0.4c0 0.080 0 0.080 0 0.16l0.080 0.24h-0.24c-0.080 0-0.080 0-0.16 0-0.16 0-0.32 0-0.48-0.080s-0.32-0.24-0.48-0.4c-0.080-0.080-0.24-0.16-0.32-0.24-0.48-0.32-0.96-0.32-1.28 0.080-0.16 0.16-0.24 0.4-0.16 0.64 0 0.24 0.16 0.4 0.4 0.56 0.56 0.4 0.48 0.88 0.32 1.36-0.8 2-0.72 4.32 0.32 6.32 0.96 1.92 2.72 3.36 4.8 3.84 1.12 0.24 1.76 0.080 2.4-0.56 0.64-0.72 1.36-1.44 2.16-2.4 0.16-0.16 0.32-0.24 0.48-0.24 0.080 0 0.16-0.080 0.16-0.080l0.32-0.16v0.4c0 0.080 0 0.16 0 0.24 0 0.16 0 0.4-0.16 0.56-1.040 1.2-2 2.080-2.88 2.96-0.32 0.32-0.48 0.48-0.48 0.8 0 1.2 0.080 2.32 0.080 3.6 0 0.16-0.080 0.32-0.080 0.48 0 0.080 0 0.16-0.080 0.16l-0.080 0.16zM2.32 12.4c-0.48 0-0.88 0.24-1.2 0.72-0.4 0.56-0.32 1.28 0.16 1.76 0.32 0.32 0.32 0.64 0.16 1.12-0.8 2.24-0.56 4.72 0.56 6.8 1.2 2 3.12 3.44 5.36 3.92 0.24 0.080 0.48 0.080 0.72 0.080 0.16 0 0.24 0 0.4 0.080h0.16v0.16c0 0.16 0 0.32-0.080 0.48 0 0.32-0.080 0.64-0.080 0.96v0.32c0 0.96 0 1.84 0.32 2.64 0-0.16 0.080-0.24 0.080-0.4 0-1.28 0-2.48-0.080-3.6 0-0.56 0.24-0.8 0.56-1.12 0.88-0.88 1.76-1.76 2.8-2.96 0 0 0-0.16 0-0.24-0.080 0.080-0.16 0.080-0.24 0.16-0.88 0.88-1.52 1.68-2.16 2.4-0.88 0.96-1.84 0.88-2.72 0.64-2.16-0.56-4-2-5.040-4.080s-1.2-4.48-0.32-6.64c0.16-0.4 0.16-0.64-0.16-0.88s-0.48-0.48-0.56-0.88 0.080-0.64 0.24-0.96c0.48-0.56 1.2-0.64 1.84-0.16 0.16 0.080 0.24 0.16 0.32 0.32 0.16 0.16 0.32 0.24 0.48 0.4 0 0 0.080 0 0.16 0 0-0.080 0-0.16-0.080-0.16-0.080-0.080-0.16-0.16-0.24-0.16s-0.16-0.080-0.16-0.16l-0.16-0.16 0.4-0.4c0.16-0.16 0.24-0.24 0.32-0.32 1.2-1.2 2.56-2.16 3.92-3.040l0.32-0.16c2.4-1.6 4-3.76 4.72-6.4 0.080-0.16 0-0.32 0-0.56-0.080 0.16-0.16 0.32-0.16 0.48-0.080 0.16-0.16 0.4-0.16 0.56-0.080 0.32-0.24 0.72-0.4 1.040-0.88 1.92-2.24 3.52-4.16 4.72-1.6 0.96-3.12 2-4.32 3.36-0.32 0.32-0.64 0.56-1.2 0.32 0 0-0.16 0-0.32 0zM27.6 1.68c0 0.72 0 1.36 0 2.080-0.16 4.4-0.32 8.72-0.4 13.12 0 0.32 0.24 0.8-0.32 0.8-0.48 0-0.32-0.56-0.32-0.8 0.080-4.32 0.24-8.72 0.4-13.040 0-0.72 0.24-1.44 0.32-2.16 0.080 0 0.24 0 0.32 0zM26.88 17.84c0 0-0.080 0 0 0-0.16 0-0.32-0.080-0.4-0.16-0.16-0.16-0.16-0.48-0.080-0.64 0-0.080 0-0.16 0-0.16 0.080-3.92 0.24-8.48 0.4-13.040 0-0.48 0.080-1.040 0.24-1.52 0.080-0.24 0.080-0.48 0.080-0.64v-0.16h0.72v0.88c0 0.48 0 0.96 0 1.44-0.16 4.4-0.32 8.72-0.4 13.12 0 0.080 0 0.16 0 0.24 0 0.24 0.080 0.48-0.080 0.64-0.24 0-0.32 0-0.48 0zM27.36 2c0 0.16-0.080 0.24-0.080 0.4-0.080 0.48-0.16 0.96-0.16 1.44-0.16 4.56-0.24 9.12-0.4 13.040 0 0.080 0 0.16 0 0.24s-0.080 0.32 0 0.32c0 0 0 0 0.080 0s0.080 0 0.080 0c0-0.080 0-0.24 0-0.32s0-0.16 0-0.24c0.16-4.4 0.32-8.72 0.4-13.12 0-0.48 0-0.96 0-1.44l0.080-0.32zM26 24.4c1.44 1.76 2.88 3.44 4.4 5.2-0.8 0.64-1.52 1.36-2.32 2-1.36-1.6-2.72-3.2-4.080-4.88-0.8 0.96-1.44 1.76-2.16 2.64-0.48 0.56-0.96 1.2-1.44 1.76-0.16 0.16-0.4 0.16-0.64 0.32 0.080-0.24 0-0.48 0.16-0.64 1.12-1.44 2.32-2.8 3.44-4.16 0.080-0.080 0.16-0.24 0.24-0.32-0.72-0.88-1.44-1.76-2.16-2.64-1.2-1.6-0.72-3.76 0.96-4.72 1.28-0.72 2.88-0.56 3.92 0.56s1.2 2.72 0.4 4c-0.16 0.16-0.4 0.48-0.72 0.88zM29.52 29.52c-0.16-0.24-0.32-0.4-0.48-0.56-1.68-2-3.36-4-5.040-6-0.8-0.88-1.6-1.76-1.68-3.12 0 0-0.080 0-0.080-0.080-1.040 0.96-1.12 2.4-0.080 3.6 1.92 2.32 3.76 4.56 5.68 6.88 0.080 0.16 0.16 0.32 0.32 0.48 0.48-0.4 0.88-0.8 1.36-1.2zM25.6 23.92c0.24-0.32 0.48-0.56 0.64-0.8 0.96-1.36 0.4-3.2-1.2-3.84-0.64-0.24-1.44-0.4-1.92 0.080s-0.16 1.28 0.24 1.84c0.72 0.88 1.44 1.76 2.24 2.72zM28.080 31.92l-4-4.88-2.4 2.96c-0.32 0.4-0.72 0.88-1.12 1.28-0.16 0.16-0.32 0.24-0.48 0.24-0.080 0-0.16 0.080-0.16 0.080l-0.32 0.16 0.080-0.4c0-0.080 0-0.16 0-0.24 0-0.16 0.080-0.4 0.16-0.56 0.8-1.040 1.68-2.080 2.48-3.040l0.96-1.12c0.080-0.080 0.080-0.16 0.16-0.24-0.16-0.24-0.4-0.48-0.56-0.72-0.48-0.56-1.040-1.2-1.52-1.84-0.56-0.8-0.8-1.76-0.64-2.72s0.8-1.76 1.68-2.32c1.36-0.8 3.12-0.56 4.16 0.56 1.12 1.2 1.28 2.88 0.4 4.24-0.16 0.24-0.32 0.48-0.48 0.64-0.080 0.080-0.080 0.16-0.16 0.24l4.4 5.28-2.64 2.4zM24.080 26.4l4.080 4.96 2-1.76-4.32-5.2 0.080-0.16c0.080-0.16 0.16-0.24 0.24-0.32 0.16-0.24 0.32-0.4 0.48-0.64 0.8-1.2 0.64-2.72-0.4-3.76-0.96-1.040-2.48-1.2-3.68-0.48-0.8 0.48-1.28 1.2-1.44 2-0.16 0.88 0 1.68 0.56 2.4 0.48 0.64 0.96 1.2 1.44 1.84 0.24 0.24 0.48 0.56 0.72 0.8l0.080 0.080-0.16 0.24c-0.080 0.080-0.080 0.16-0.16 0.24l-0.96 1.12c-0.88 1.040-1.68 2-2.48 3.040 0 0.080-0.080 0.16-0.080 0.24 0.080 0 0.16-0.080 0.24-0.080 0.4-0.4 0.72-0.88 1.040-1.28l2.72-3.28zM28.080 31.12l-0.16-0.24c0-0.080-0.080-0.080-0.080-0.16-0.080-0.080-0.080-0.16-0.16-0.24-0.72-0.88-1.52-1.84-2.24-2.72-1.12-1.36-2.32-2.8-3.44-4.16-1.040-1.28-0.96-2.8 0.16-3.84l0.080-0.080 0.16 0.080c0.080 0 0.16 0.080 0.24 0.24 0.080 1.12 0.72 1.92 1.44 2.8l0.16 0.16c1.28 1.52 2.56 3.040 3.84 4.56l1.2 1.44c0.080 0.16 0.24 0.24 0.32 0.4l0.32 0.32-1.84 1.44zM22.16 20.24c-0.72 0.88-0.72 2.080 0.080 3.12 1.12 1.36 2.32 2.8 3.44 4.16 0.72 0.88 1.52 1.84 2.24 2.72 0.080 0.080 0.16 0.16 0.16 0.32l1.040-0.96-0.080-0.080c-0.080-0.16-0.24-0.24-0.32-0.4l-1.2-1.44c-1.28-1.52-2.56-3.040-3.84-4.56l-0.16-0.16c-0.48-0.88-1.2-1.68-1.36-2.72zM25.6 24.24l-0.16-0.24c-0.24-0.32-0.48-0.56-0.72-0.88-0.56-0.64-1.040-1.28-1.52-1.92s-0.72-1.52-0.24-2.080c0.4-0.48 1.12-0.48 2.080-0.080 0.8 0.32 1.36 0.96 1.6 1.76s0.080 1.68-0.4 2.4c-0.080 0.16-0.24 0.32-0.4 0.48-0.080 0.080-0.16 0.16-0.24 0.32v0.24zM23.92 19.2c-0.24 0-0.48 0.080-0.64 0.24-0.4 0.4-0.16 1.12 0.24 1.6 0.48 0.64 0.96 1.28 1.52 1.92 0.16 0.24 0.4 0.4 0.56 0.64 0 0 0.080-0.080 0.080-0.080 0.16-0.16 0.24-0.32 0.4-0.48 0.4-0.64 0.56-1.36 0.32-2.080s-0.72-1.28-1.36-1.52c-0.4-0.16-0.72-0.24-1.12-0.24z"></path>
</svg>
