<!-- Generated by IcoMoon.io -->
<svg version="1.1" xmlns="http://www.w3.org/2000/svg" width="31" height="32" viewBox="0 0 31 32">
<title>colorectal</title>
<path d="M14.8 21.68c-2.24 0-4.4 0-6.56 0-0.48 1.84-1.6 3.040-3.52 3.12-1.52 0.080-2.72-0.64-3.44-2-0.88-1.6-0.56-3.040 0.64-4.4-0.64-0.72-1.040-1.6-1.040-2.64s0.4-1.92 1.12-2.72c-0.64-0.8-1.040-1.6-1.12-2.64 0-1.040 0.4-1.92 1.12-2.72-0.8-0.88-1.2-1.92-1.040-3.2 0.080-0.88 0.56-1.68 1.2-2.24 1.52-1.36 3.36-1.36 5.2 0.080 0.72-0.64 1.6-1.040 2.64-1.040s1.92 0.4 2.72 1.12c0.8-0.64 1.6-1.12 2.64-1.12s1.92 0.4 2.72 1.12c0.8-0.64 1.6-1.12 2.64-1.12s1.92 0.4 2.72 1.12c0.96-0.8 2-1.28 3.2-1.040 0.88 0.16 1.6 0.56 2.24 1.2 1.28 1.52 1.28 3.28-0.16 5.12 0.64 0.72 1.040 1.6 1.040 2.64s-0.4 1.92-1.12 2.72c0.64 0.72 1.040 1.6 1.12 2.64 0 1.040-0.4 1.92-1.12 2.72 0.8 0.96 1.2 2 1.040 3.2-0.16 0.88-0.56 1.6-1.2 2.24-1.52 1.28-3.36 1.28-4.96 0-0.96 0.4-1.84 0.8-2.8 1.2-0.16 1.84-1.28 3.040-3.2 3.52 0 0.88 0 1.76 0 2.64-0.32 0-0.64 0-1.040 0 0-1.040 0-2.16 0-3.2 0-0.16 0.32-0.48 0.56-0.48 1.6-0.080 2.8-1.6 2.64-3.040-0.080-0.48 0.16-0.72 0.72-0.72 1.040 0.080 1.92-0.24 2.56-1.12 0.4-0.48 0.64-0.4 1.12 0.16 0.8 0.88 1.92 1.2 3.040 0.8 1.040-0.4 1.76-1.44 1.68-2.56 0-0.8-0.4-1.52-1.040-2-0.56-0.48-0.56-0.64 0-1.12 1.36-1.2 1.36-3.040 0-4.24-0.48-0.48-0.48-0.64 0-1.12 1.36-1.2 1.44-3.040 0-4.24-0.56-0.48-0.56-0.64 0-1.12 1.28-1.040 1.36-2.8 0.24-3.92s-2.88-1.040-4 0.24c-0.48 0.56-0.72 0.56-1.12 0-1.12-1.36-3.040-1.36-4.16 0-0.48 0.56-0.72 0.56-1.12 0-1.2-1.36-3.040-1.36-4.16 0-0.48 0.56-0.72 0.56-1.12 0-1.2-1.36-3.040-1.36-4.16 0-0.48 0.56-0.72 0.56-1.2 0-1.040-1.2-2.88-1.28-3.92-0.16-1.12 1.12-1.040 2.88 0.24 3.92 0.56 0.48 0.56 0.64 0 1.2-1.28 1.12-1.28 2.96 0 4.16 0.64 0.56 0.64 0.64 0 1.2-1.28 1.12-1.28 2.96 0 4.080 0.64 0.56 0.64 0.72 0 1.2-1.2 1.040-1.28 2.8-0.24 3.92 1.040 1.040 2.8 1.040 3.84 0 1.12-1.12 0.96-2.88-0.24-3.92-0.64-0.56-0.64-0.72 0-1.2 1.28-1.12 1.28-2.96 0-4.16-0.56-0.48-0.56-0.64 0-1.2 1.36-1.12 1.36-2.96 0-4.16-0.64-0.56-0.64-0.72 0-1.2 0.96-0.8 0.96-0.8 1.92 0 1.12 0.96 2.8 0.88 3.76-0.24 0.56-0.64 0.72-0.64 1.28 0 1.12 1.28 2.96 1.28 4.080 0 0.56-0.56 0.72-0.56 1.2 0 1.12 1.28 2.96 1.28 4.080 0 0.56-0.64 0.72-0.64 1.2 0 0.24 0.32 0.72 0.64 0.72 1.040 0 0.32-0.48 0.64-0.72 0.96-0.96 1.12-0.8 2.8 0.32 3.76 0.64 0.56 0.64 0.72 0 1.2-1.28 1.12-1.28 2.96 0 4.16 0.56 0.48 0.56 0.72 0 1.2-0.96 0.88-0.96 0.88-1.92 0.080-0.88-0.72-1.84-0.88-2.88-0.4s-1.52 1.36-1.52 2.48c0 1.040 0 1.040-1.040 1.040-1.52 0-2.72 1.12-2.72 2.72 0 1.92 0 3.76 0 5.68 0 0.24 0 0.4 0 0.64-0.4 0-0.64 0-1.040 0 0-0.24 0-0.4 0-0.64 0-1.76 0-3.52 0-5.28-0.4-1.76 0.080-2.88 1.44-3.92zM12.72 8c-0.96 0.32-1.76 0.8-2.64 0.88-0.8 0.080-1.68-0.32-2.32-0.4 0.16 0.64 0.48 1.52 0.4 2.32s-0.56 1.6-0.88 2.56c1.28 1.84 1.28 3.040-0.080 5.12 0.32 0.56 0.64 1.12 0.8 1.68 0.16 0.4 0.32 0.48 0.72 0.48 2.48 0 5.040 0 7.52 0 0.16 0 0.32 0 0.48 0 0.24-0.56 0.4-1.040 0.56-1.52-2.080 0-4 0-6 0-0.8 0-1.44-0.32-1.84-1.12-0.64-1.2 0.32-2.64 1.76-2.64 2.64 0 5.28 0 7.92 0 0.96 0 1.36-0.24 1.36-0.8s-0.4-0.8-1.36-0.8c-2.64 0-5.28 0-7.92 0-1.040 0-1.84-0.72-1.92-1.68s0.56-1.84 1.52-2c0.24-0.080 0.56-0.080 0.88-0.080 3.28 0 6.56 0 9.84 0 0.24 0 0.56-0.080 0.64-0.24 0.24-0.48 0.4-0.96 0.48-1.28-0.8 0.16-1.68 0.48-2.48 0.4s-1.6-0.56-2.56-0.88c-1.68 1.28-3.2 1.28-4.88 0zM23.12 13.2c-0.32-0.64-0.64-1.12-0.8-1.68-0.16-0.4-0.32-0.56-0.72-0.56-3.36 0-6.72 0-10.080 0-0.72 0-1.040 0.24-1.040 0.8s0.4 0.8 1.040 0.8c2.64 0 5.36 0 8 0 1.28 0 2.16 0.72 2.080 1.84 0 1.12-0.88 1.84-2.16 1.84-2.64 0-5.2 0-7.84 0-0.8 0-1.2 0.24-1.2 0.8s0.4 0.8 1.2 0.8c2.080 0 4.16 0 6.24 0 0.48 0 0.88-0.080 1.36-0.24 1.040-0.4 2.080-0.32 3.12 0.16 0.16 0.080 0.32 0.16 0.64 0.32-1.2-1.76-1.12-3.36 0.16-4.88z"></path>
</svg>
