<!-- Generated by IcoMoon.io -->
<svg version="1.1" xmlns="http://www.w3.org/2000/svg" width="32" height="32" viewBox="0 0 32 32">
<title>copd</title>
<path d="M10.64 16.96c-0.72 0.72-1.44 1.52-2.24 2.24-0.080 0-0.24-0.16-0.56-0.24 0.32-0.48 0.64-0.96 0.96-1.36-1.12-0.24-1.84 0.24-2.4 1.6-0.24 0-0.4-0.080-0.64-0.080 0.24-1.6 1.44-2.48 3.12-2.24 0.48 0.080 0.96 0.080 1.28-0.48-1.44-0.32-2.8-0.64-4.24-0.88-0.8-0.16-1.6 0-2.24 0.72-0.16-0.080-0.32-0.24-0.56-0.32 0.72-0.96 1.76-1.12 2.88-1.12-0.48-0.64-0.88-1.2-1.36-1.84 0.24-0.16 0.4-0.24 0.64-0.32 0.88 1.6 2.16 2.56 3.84 2.88 1.68 0.4 3.28 0 4.96-0.48 0 3.68 0 7.28 0 10.96-0.24 0-0.4 0-0.64 0 0-3.36 0-6.64 0-10.080-0.72 0.24-1.36 0.48-1.92 0.64 0.48 1.040 1.040 1.92 1.36 2.96 0.88 2.88-0.56 5.040-3.6 5.52s-5.44-0.64-6.96-3.44c-1.44-2.56-1.84-5.36-1.52-8.24 0.16-1.44 0.4-2.88 0.96-4.24 1.12-2.88 3.68-4.48 6.56-4.4 0.72 0 1.44 0.24 2.080 0.48 1.28 0.48 1.92 1.52 2.080 2.88s-0.16 2.64-0.56 3.84c-0.080 0.16-0.080 0.4-0.16 0.64 0.16 0 0.24 0 0.32 0 1.44-0.16 1.44-0.16 1.44-1.6 0-0.88 0-1.76 0-2.72 0.24 0 0.4 0 0.72 0 0 1.44 0 2.8 0 4.24 0 0.080-0.16 0.32-0.24 0.32-1.2 0.4-2.32 0.72-3.6 0.48-0.32-0.080-0.72-0.16-0.96-0.4-0.96-0.64-1.92-1.12-3.12-1.2 0-0.24 0-0.4 0-0.72 0.64 0.080 1.2 0.24 1.84 0.32-0.080-0.48-0.080-1.040-0.16-1.6 0.24 0 0.48 0 0.72 0 0.080 0.4 0.080 0.8 0.16 1.12 0.24 1.040 0.88 1.68 1.92 1.76 0.16 0 0.4-0.16 0.48-0.24 0.32-1.2 0.72-2.48 0.8-3.68 0.080-1.92-1.12-3.12-3.12-3.28-2.56-0.24-4.48 0.88-5.84 3.040-0.8 1.36-1.2 2.88-1.28 4.48-0.24 2.48 0 4.88 0.96 7.28 0.64 1.6 1.6 2.96 3.28 3.68 1.52 0.72 3.12 0.64 4.72 0 1.28-0.48 1.92-1.52 1.92-2.88-0.32-1.36-1.040-3.12-2.080-4zM20.32 16.56c-0.56-0.16-1.2-0.4-1.92-0.64 0 3.44 0 6.72 0 10.080-0.24 0-0.4 0-0.64 0.080 0-3.6 0-7.2 0-10.96 0.56 0.16 1.12 0.24 1.68 0.4 2.080 0.4 4 0.24 5.76-1.12 0.56-0.48 0.96-1.040 1.52-1.68 0.080 0.080 0.32 0.080 0.56 0.24-0.48 0.64-0.88 1.2-1.36 1.84 1.040 0.080 2.080 0.080 2.8 1.12-0.16 0.16-0.32 0.24-0.56 0.4-1.040-0.96-2.24-0.8-3.36-0.56-1.040 0.24-2.080 0.56-3.12 0.88 0.32 0.4 0.72 0.48 1.28 0.4 1.68-0.24 2.8 0.56 3.12 2.24-0.16 0.080-0.4 0.080-0.48 0.080-0.48-0.56-0.8-1.040-1.2-1.44-0.32-0.24-0.8-0.24-1.28-0.32 0 0.080 0 0.080-0.080 0.16 0.32 0.4 0.64 0.88 0.96 1.36-0.24 0.16-0.4 0.24-0.48 0.32-0.8-0.8-1.52-1.52-2.32-2.32-1.2 1.52-1.92 3.040-1.68 4.8 0.16 1.12 0.88 1.84 1.92 2.24 2.72 1.040 5.52 0.16 7.12-2.32 1.12-1.68 1.52-3.6 1.68-5.52 0.16-2.24 0.080-4.48-0.8-6.64-1.040-2.48-3.2-4-5.68-4-2.8 0-4.080 1.36-3.76 4.080 0.16 1.040 0.48 2.080 0.72 3.12 1.68 0 2.24-0.64 2.56-2.88 0.16 0 0.4 0 0.64 0-0.080 0.56-0.16 1.040-0.16 1.6 0.56-0.080 1.2-0.24 1.84-0.32 0 0.32 0 0.48 0 0.72-1.2 0.16-2.24 0.64-3.2 1.28-1.2 0.72-2.48 0.48-3.76 0.080-1.040-0.32-1.040-0.32-1.040-1.36 0-1.12 0-2.24 0-3.36 0.24 0 0.4 0 0.72 0 0 0.88 0 1.76 0 2.64 0 1.52 0 1.52 1.68 1.68-0.24-0.88-0.48-1.68-0.56-2.56-0.080-0.64-0.16-1.36-0.080-2 0.16-1.36 0.8-2.32 2.080-2.88 2.48-1.12 5.6-0.32 7.44 1.92 1.2 1.44 1.76 3.12 2 4.96 0.4 2.72 0.24 5.36-0.72 7.92-0.4 1.2-1.040 2.32-2 3.28-2.16 2.24-5.36 2.16-7.6 1.040-1.76-0.88-2.4-2.96-1.6-5.12 0.4-1.2 0.88-2 1.36-2.96zM14.8 8.32c0.24 0 0.4 0 0.64 0 0 5.84 0 11.68 0 17.6-0.16 0-0.4 0-0.64 0.080 0-5.92 0-11.76 0-17.68zM17.040 25.92c-0.24 0-0.4 0-0.64 0 0-5.84 0-11.68 0-17.6 0.24 0 0.4 0 0.64 0 0 5.84 0 11.76 0 17.6z"></path>
</svg>
