<!-- Generated by IcoMoon.io -->
<svg version="1.1" xmlns="http://www.w3.org/2000/svg" width="32" height="32" viewBox="0 0 32 32">
<title>diabetes</title>
<path d="M0.88 17.44c0-0.32 0-0.64 0-0.96 0-0.080 0.080-0.080 0.080-0.16 0.16-1.44 0.8-2.64 1.76-3.68 3.44-3.44 6.96-6.96 10.4-10.4 0.72-0.72 1.52-1.2 2.4-1.52 0.48-0.080 0.88-0.16 1.28-0.32 0.4 0 0.8 0 1.2 0 0.080 0 0.080 0.080 0.16 0.080 1.36 0.16 2.56 0.72 3.52 1.76 2.64 2.64 5.36 5.36 8 8 0.64 0.64 1.2 1.44 1.44 2.4 0.16 0.4 0.24 0.88 0.32 1.28 0 0.4 0 0.72 0 1.12 0 0.080-0.080 0.16-0.080 0.16-0.16 1.36-0.8 2.56-1.76 3.52-3.52 3.52-6.96 6.96-10.48 10.48-0.64 0.64-1.44 1.2-2.32 1.44-0.4 0.16-0.88 0.24-1.36 0.32-0.4 0-0.8 0-1.2 0-0.16 0-0.32-0.080-0.4-0.080-1.28-0.24-2.32-0.8-3.2-1.68-0.56-0.56-1.2-1.2-1.84-1.84-0.080 0.080-0.16 0.24-0.24 0.32-0.96 0.96-1.92 1.92-2.88 2.88-0.32 0.32-0.56 0.32-0.88 0-1.2-1.12-2.32-2.32-3.44-3.44-0.32-0.32-0.32-0.56 0-0.88 0.96-0.96 1.92-1.92 2.96-2.96 0.080-0.080 0.16-0.16 0.32-0.16-0.64-0.64-1.2-1.2-1.76-1.76-0.72-0.72-1.28-1.6-1.6-2.64-0.24-0.4-0.32-0.88-0.4-1.28zM9.6 26.72c0.56 0.56 1.12 1.2 1.76 1.76 2.080 2.080 5.12 2.080 7.2 0 3.52-3.44 6.96-6.96 10.4-10.4 2.080-2.080 2.080-5.12 0-7.2-2.64-2.64-5.28-5.28-7.92-7.92-2-2-5.12-2.080-7.12 0-3.6 3.44-7.12 6.96-10.56 10.48-1.68 1.68-1.92 4.16-0.72 6.16 0.16 0.24 0.32 0.48 0.56 0.72 0.64 0.64 1.36 1.36 2 1.92 0.24-0.24 0.48-0.4 0.64-0.56-0.080 0-0.24 0-0.4-0.080s-0.32-0.24-0.24-0.48c0.080-0.32 0.32-0.48 0.56-0.4 0.32 0 0.64 0.080 0.96 0.24 0.48 0.24 0.88 0.56 1.28 0.88 1.2 0.96 2.24 2.080 3.040 3.44 0.16 0.32 0.24 0.64 0.32 0.96 0 0.32-0.32 0.64-0.56 0.56-0.32-0.080-0.48-0.32-0.4-0.72 0 0 0 0 0-0.080-0.4 0.24-0.64 0.48-0.8 0.72zM6.8 22.16c-1.52 1.52-2.96 2.96-4.48 4.48 0.96 0.96 1.92 1.92 2.96 2.96 1.44-1.44 2.96-2.96 4.4-4.4-0.48-0.88-2.16-2.56-2.88-3.040zM20.16 22.080c-0.16-0.16-0.32-0.24-0.48-0.32-2.16-2.16-4.32-4.32-6.48-6.48-1.040-1.040-2.080-2.080-3.2-3.2-0.32-0.32-0.32-0.56 0-0.88 2.24-2.24 4.56-4.56 6.8-6.8 0.4-0.4 0.56-0.4 0.96 0 3.2 3.2 6.4 6.4 9.6 9.6 0.32 0.32 0.32 0.56 0 0.88-2.32 2.32-4.56 4.56-6.88 6.88 0 0.16-0.16 0.24-0.32 0.32zM20.16 20.8c2.080-2.080 4.24-4.24 6.32-6.32-3.040-3.040-6.080-6.080-9.040-9.040-2.080 2.080-4.24 4.24-6.32 6.32 2.96 2.96 6 6 9.040 9.040zM6 16.24c0.080-0.88 0.56-1.68 1.52-2.16 1.040-0.48 2-0.32 2.8 0.48 0.88 0.8 1.76 1.68 2.56 2.56 0.24 0.24 0.24 0.48 0 0.72-0.96 0.96-2 2-2.96 2.96-0.24 0.24-0.48 0.24-0.72 0-0.88-0.88-1.68-1.68-2.56-2.56-0.48-0.56-0.64-1.12-0.64-2zM9.6 19.68c0.72-0.72 1.52-1.52 2.24-2.24-0.72-0.72-1.44-1.52-2.24-2.24-0.64-0.56-1.6-0.48-2.16 0.080-0.64 0.56-0.72 1.6-0.16 2.16 0.72 0.8 1.52 1.52 2.32 2.24zM15.52 25.92c-0.8 0-1.44-0.24-1.84-0.64-0.88-0.88-1.76-1.68-2.56-2.56-0.24-0.24-0.24-0.48 0-0.72 0.96-0.96 1.92-1.92 2.96-2.96 0.24-0.24 0.48-0.24 0.72 0 0.8 0.8 1.68 1.6 2.48 2.48 0.8 0.8 0.96 1.76 0.56 2.8-0.48 1.040-1.28 1.52-2.32 1.6zM14.4 20c-0.72 0.8-1.52 1.52-2.24 2.32 0.72 0.72 1.44 1.52 2.24 2.24 0.64 0.56 1.6 0.48 2.24-0.16 0.56-0.64 0.64-1.6 0.080-2.16-0.8-0.72-1.52-1.52-2.32-2.24zM5.36 27.76c-0.72 0-1.28-0.64-1.28-1.28 0-0.72 0.64-1.28 1.28-1.2 0.72 0 1.28 0.64 1.2 1.28 0.080 0.64-0.48 1.2-1.2 1.2zM5.84 26.48c-0.16-0.16-0.32-0.32-0.4-0.32s-0.24 0.16-0.32 0.24c-0.080 0.16 0.080 0.32 0.32 0.32 0.080 0 0.24-0.080 0.4-0.24zM17.92 16.16c-0.88 0-1.76-0.56-2.080-1.36-0.32-0.88-0.080-1.76 0.56-2.4 0.72-0.72 1.68-1.12 2.64-1.44 0.56-0.16 1.12-0.32 1.76-0.48 0.4-0.080 0.72 0.16 0.64 0.56-0.24 1.36-0.64 2.72-1.44 3.84-0.4 0.56-0.88 1.12-1.6 1.2-0.24 0.080-0.4 0.080-0.48 0.080zM20.24 11.68c0 0-0.080-0.080-0.080-0.080-0.72 0.32-1.52 0.56-2.24 0.88-0.32 0.16-0.72 0.4-0.96 0.64-0.72 0.72-0.32 1.84 0.56 2.080 0.64 0.16 1.12-0.16 1.44-0.72 0.72-0.8 1.040-1.76 1.28-2.8z"></path>
</svg>
