<!-- Generated by IcoMoon.io -->
<svg version="1.1" xmlns="http://www.w3.org/2000/svg" width="32" height="32" viewBox="0 0 32 32">
<title>eye-screening</title>
<path d="M13.36 24.16c0-1.36 0-2.8 0-4.16 0-0.4 0-0.72 0.48-0.8 0.080 0 0.16-0.16 0.24-0.32 0-0.16 0-0.32 0-0.48 0.080-0.64-0.080-0.88-0.8-0.96-4.16-0.8-7.36-3.12-10.080-6.32-0.4-0.48-0.8-0.96-1.12-1.44-0.16-0.24-0.16-0.64 0-0.8 2.64-3.68 5.92-6.56 10.4-7.68 4.24-1.040 8.080-0.080 11.68 2.32 2.080 1.36 3.76 3.2 5.2 5.2 0.24 0.32 0.32 0.64 0.080 0.96-2.4 3.28-5.28 6-9.2 7.28-0.72 0.24-1.44 0.4-2.24 0.56-0.32 0.080-0.48 0.16-0.48 0.56 0 0.24 0 0.56 0 0.8 0 0.16 0.16 0.32 0.24 0.32 0.48 0.080 0.48 0.4 0.48 0.8 0 2.8 0 5.6 0 8.48 0 1.52-1.040 2.56-2.4 2.56s-2.4-1.040-2.48-2.48c0-0.72 0-1.44 0-2.16 0-0.8 0-1.52 0-2.24 0 0 0 0 0 0zM16 1.84c-3.84-0.16-7.36 3.12-7.52 6.96-0.16 4.24 2.96 7.68 7.2 7.76 3.92 0.16 7.36-3.12 7.52-7.040 0.16-4.16-2.96-7.52-7.2-7.68zM17.2 20.16c-0.96 0-1.92 0-2.88 0 0 1.44 0 2.88 0 4.32 0 1.28 0 2.64 0 3.92 0 0.88 0.72 1.44 1.52 1.36 0.72 0 1.36-0.64 1.36-1.36 0-2.56 0-5.12-0.080-7.68 0.080-0.080 0.080-0.32 0.080-0.56zM21.92 15.12c2.8-1.44 4.88-3.52 6.64-5.92-1.76-2.4-3.84-4.4-6.56-5.84 3.040 3.92 3.040 7.76-0.080 11.76zM3.12 9.2c1.28 2.16 4.72 5.2 6.56 5.84-1.52-1.68-2.32-3.6-2.32-5.76s0.8-4.080 2.24-5.76c-2.72 1.28-4.72 3.28-6.48 5.68zM15.2 17.68c0 0.48 0 0.96 0 1.44 0.48 0 0.88 0 1.36 0 0-0.48 0-0.96 0-1.44-0.48 0-0.88 0-1.36 0zM20.56 9.28c0 2.64-2.16 4.72-4.72 4.72-2.64 0-4.72-2.16-4.72-4.88 0-2.56 2.16-4.64 4.72-4.64 2.64 0 4.72 2.16 4.72 4.8zM15.84 5.52c-2.080 0-3.76 1.6-3.76 3.68 0 2 1.6 3.68 3.68 3.68s3.76-1.6 3.76-3.68c0.080-2-1.6-3.68-3.68-3.68z"></path>
</svg>
