<!-- Generated by IcoMoon.io -->
<svg version="1.1" xmlns="http://www.w3.org/2000/svg" width="32" height="32" viewBox="0 0 32 32">
<title>heart</title>
<path d="M31.12 11.76c-0.080 0.48-0.080 0.88-0.16 1.36-0.16 0.96-0.4 1.92-0.88 2.88-0.4-0.16-0.72-0.32-1.12-0.48 0.24-0.72 0.48-1.36 0.56-2.080 0.4-1.92 0.48-3.84-0.4-5.6-1.28-2.56-3.36-3.92-6.24-4-3.040-0.080-5.28 1.36-6.72 4-0.16 0.4-0.4 0.72-0.56 1.12 0 0 0 0-0.080 0.080-0.16-0.32-0.32-0.64-0.48-0.96-0.56-1.28-1.44-2.32-2.64-3.12-4-2.64-10.16-0.72-11.040 4.8-0.32 2.16 0.16 4.16 1.040 6.080 0.4 0.88 0.88 1.68 1.36 2.48-0.32 0.24-0.64 0.4-1.040 0.72-0.32-0.64-0.72-1.2-1.040-1.76-1.040-1.92-1.68-4-1.68-6.24 0-4.16 3.28-7.92 7.44-8.4 3.2-0.4 5.84 0.88 7.84 3.36 0.080 0.080 0.16 0.24 0.24 0.4 0.080-0.16 0.16-0.24 0.24-0.4 1.44-1.84 3.28-3.040 5.6-3.36 3.44-0.48 6.080 0.88 8.16 3.6 0.88 1.2 1.36 2.48 1.52 3.92 0 0.080 0 0.16 0.080 0.24 0 0.48 0 0.96 0 1.36zM31.12 19.2c-0.16 0-0.24 0-0.4 0-2.72 0-5.44 0-8.16 0-0.24 0-0.4-0.080-0.48-0.32-0.64-1.6-1.28-3.12-1.84-4.64 0-0.080-0.080-0.16-0.16-0.32-1.52 4.4-3.040 8.64-4.56 12.96 0 0-0.080 0-0.080 0-1.040-2.96-2.16-6-3.2-9.040-0.080 0.24-0.16 0.4-0.24 0.56-0.4 1.040-0.8 2.080-1.2 3.12-0.080 0.16-0.080 0.24-0.32 0.24-2.16 0-4.32 0-6.56 0-0.080 0-0.080 0-0.16 0 0-0.4 0-0.8 0-1.28 0.080 0 0.24 0 0.32 0 1.76 0 3.6 0 5.36 0 0.24 0 0.32-0.080 0.4-0.32 0.72-1.92 1.44-3.84 2.16-5.68 0-0.080 0.080-0.24 0.16-0.4 1.040 3.040 2.16 5.92 3.2 8.88 0 0 0.080 0 0.080 0 1.44-4.24 2.96-8.4 4.48-12.72 0.080 0.16 0.16 0.32 0.16 0.4 0.88 2.32 1.84 4.56 2.72 6.88 0.080 0.24 0.24 0.32 0.56 0.32 2.48 0 4.88 0 7.36 0 0.080 0 0.16 0 0.24 0 0.16 0.48 0.16 0.96 0.16 1.36zM25.76 20.56c0.32 0.24 0.64 0.56 0.96 0.8-1.28 1.52-2.64 2.96-4.16 4.24-2.080 1.84-4.32 3.44-6.64 4.88-0.24 0.16-0.48 0.16-0.72 0-2.96-1.84-5.76-3.92-8.24-6.4-0.16-0.080-0.24-0.080-0.32-0.16 0.32-0.32 0.64-0.56 0.96-0.88 0.16 0.16 0.32 0.32 0.48 0.4 2.24 2.16 4.64 4 7.2 5.6 0.16 0.080 0.32 0.16 0.48 0 3.6-2.32 6.96-5.040 9.76-8.32 0.080-0.080 0.16-0.080 0.24-0.16zM8.4 12c-0.48 0-0.88 0-1.28 0 0-0.64 0-1.28 0-1.92-0.64 0-1.28 0-1.92 0 0-0.4 0-0.8 0-1.28 0.64 0 1.28 0 1.92 0 0-0.64 0-1.28 0-1.92 0.48 0 0.88 0 1.28 0 0 0.64 0 1.28 0 1.92 0.64 0 1.28 0 1.92 0 0 0.4 0 0.88 0 1.28-0.56 0-1.040 0-1.6 0-0.24 0-0.32 0.080-0.32 0.32 0 0.56 0 1.040 0 1.6zM2.56 21.76c-0.88 0-1.68 0-2.56 0 0-0.4 0-0.8 0-1.2 0.8 0 1.68 0 2.56 0 0 0.4 0 0.8 0 1.2z"></path>
</svg>
