<!-- Generated by IcoMoon.io -->
<svg version="1.1" xmlns="http://www.w3.org/2000/svg" width="32" height="32" viewBox="0 0 32 32">
<title>heart-failure</title>
<path d="M13.84 11.84c-2.64-3.040-2.56-6.32 0-8.24 2.16-1.6 5.040-1.12 6.56 1.12 1.84 2.72 0.88 5.76-2.48 7.76 2.16 0.72 3.12 2.48 4 4.4 0.8 1.76 1.68 3.36 2.56 5.040 0.16 0.4 0.32 0.8 0.4 1.2 0.16 0.8-0.080 1.52-0.8 2s-1.44 0.48-2.16 0.080c-0.88-0.48-1.68-1.12-2.56-1.68-0.24-0.16-0.48-0.32-0.8-0.56-0.56 3.040-0.72 6.080-1.28 8.96-0.080 0-0.24 0-0.32 0 0-0.24 0-0.56 0-0.8 0.32-2.48 0.64-4.88 1.040-7.36 0.16-0.88 0-1.44-0.72-1.92-1.12-0.8-1.44-1.84-1.040-3.040 0.48-1.52 2.16-2.24 3.6-1.36 0.72 0.4 1.28 1.040 1.92 1.52-0.080 0.080-0.16 0.16-0.16 0.24-0.16-0.080-0.32-0.16-0.48-0.24-0.4-0.32-0.8-0.72-1.2-0.96-0.96-0.72-2-0.56-2.72 0.16-0.72 0.8-0.8 2.16 0.080 2.8 1.68 1.36 3.44 2.56 5.28 3.76 0.4 0.24 1.2 0.080 1.6-0.16 0.32-0.24 0.48-0.96 0.56-1.44 0-0.32-0.16-0.72-0.4-1.12-0.96-2-2-4-3.040-6.080-0.96-2-2.56-3.12-4.8-3.36-1.68-0.16-3.36-0.48-5.040-0.64-2.56-0.24-4.56 1.040-5.36 3.44-1.2 2.8-2 5.52-2.88 8.32-0.32 0.88-0.080 1.68 0.64 2.24s1.44 0.48 2.24 0.080c2.64-1.44 5.28-2.8 7.92-4.24 0.88-0.48 1.28-1.2 1.2-2.16-0.16-1.52-1.52-2.24-2.88-1.6-2 1.040-4 2.080-6 3.2-0.24 0.16-0.56 0.16-0.88 0.080 0.080-0.080 0.16-0.24 0.24-0.32 0.24-0.080 0.48-0.16 0.72-0.32 1.52-0.56 2.64-1.44 2.8-3.2 0-0.16 0.16-0.4 0.24-0.56 0.080 0 0.24 0.080 0.32 0.080-0.16 0.72-0.32 1.44-0.56 2.24 0.96-0.48 1.84-0.96 2.64-1.44 1.44-0.72 2.8-0.48 3.52 0.8s0.32 2.88-1.12 3.6c-2.16 1.2-4.32 2.32-6.56 3.52-0.48 0.24-0.72 0.48-0.72 1.040-0.16 1.52-0.4 3.040-0.56 4.64 0 0.24-0.080 0.4-0.32 0.56-0.16-1.84 0.32-3.6 0.4-5.52-0.16 0.080-0.32 0.080-0.48 0.16-0.96 0.4-1.84 0.32-2.56-0.4-0.8-0.72-1.040-1.6-0.8-2.56 0.88-2.88 1.76-5.84 2.8-8.72 0.88-2.56 3.28-3.76 5.92-3.44 0.8 0.16 1.6 0.32 2.48 0.4zM20.8 7.6c0-2.48-1.92-4.48-4.24-4.48s-4.16 1.92-4.24 4.4c0 2.48 1.84 4.56 4.16 4.56 2.4 0 4.32-1.92 4.32-4.48zM5.92 32.4v-0.4c-0.080-1.12 0.080-2.24 0.16-3.36 0.080-0.64 0.16-1.28 0.24-1.92-0.080 0-0.080 0-0.16 0.080-1.040 0.4-2 0.32-2.8-0.4-0.88-0.72-1.12-1.76-0.8-2.8l0.080-0.4c0.8-2.72 1.68-5.6 2.72-8.4 0.96-2.56 3.36-3.92 6.16-3.52 0.56 0.080 1.12 0.16 1.68 0.24h0.32c-1.28-1.6-1.84-3.28-1.68-4.88 0.16-1.28 0.8-2.48 2-3.28 1.040-0.8 2.32-1.12 3.68-0.88 1.28 0.24 2.48 0.96 3.2 2.080 0.88 1.28 1.12 2.64 0.88 3.92-0.32 1.52-1.36 2.8-3.040 3.92 2 0.88 2.96 2.56 3.68 4.32 0.48 1.12 1.040 2.16 1.6 3.2 0.32 0.64 0.64 1.2 0.96 1.84 0.24 0.48 0.4 0.88 0.4 1.28 0.16 0.96-0.16 1.68-0.88 2.24s-1.6 0.56-2.4 0.080c-0.64-0.32-1.2-0.8-1.84-1.2-0.24-0.16-0.48-0.32-0.8-0.48l-0.56-0.4c-0.24 1.28-0.4 2.56-0.56 3.76-0.24 1.6-0.4 3.28-0.72 4.88v0.16l-0.64-0.080c0-0.080 0-0.16 0-0.24 0-0.16 0-0.4 0-0.56 0.080-0.56 0.16-1.2 0.24-1.76 0.24-1.84 0.48-3.76 0.8-5.6 0.16-0.8-0.080-1.28-0.64-1.76-0.56-0.4-0.96-0.88-1.2-1.44-0.24 0.72-0.72 1.36-1.44 1.76-1.92 1.040-4 2.16-6.56 3.52-0.64 0.16-0.8 0.4-0.8 0.88-0.16 1.2-0.32 2.4-0.48 3.6l-0.16 0.96c0 0.32-0.16 0.48-0.4 0.72l-0.24 0.32zM18.32 17.36c-0.24 0-0.48 0.080-0.72 0.16-0.64 0.24-1.12 0.8-1.36 1.44-0.4 1.12 0 2.080 0.96 2.8 0.8 0.56 1.040 1.12 0.88 2.080-0.32 1.84-0.56 3.76-0.8 5.6-0.080 0.56-0.16 1.2-0.24 1.76 0 0.16 0 0.24 0 0.4 0.32-1.44 0.48-2.96 0.64-4.48 0.16-1.36 0.32-2.72 0.56-4.080l0.080-0.32 1.12 0.72c0.24 0.16 0.48 0.32 0.8 0.48 0.56 0.4 1.2 0.8 1.76 1.12 0.64 0.4 1.36 0.32 1.92-0.080s0.8-1.040 0.72-1.84c-0.080-0.32-0.16-0.72-0.4-1.12-0.32-0.64-0.64-1.2-0.96-1.84-0.56-1.040-1.12-2.16-1.6-3.2-0.8-1.84-1.76-3.52-3.84-4.24l-0.4-0.16 0.4-0.24c0.32-0.16 0.64-0.4 0.88-0.64-0.64 0.4-1.44 0.56-2.16 0.56-1.2 0-2.32-0.48-3.12-1.44 0 0-0.080-0.080-0.080-0.080 0.24 0.32 0.48 0.64 0.72 0.96l0.32 0.4-1.28-0.16c-0.56-0.080-1.12-0.16-1.68-0.24-2.64-0.4-4.88 0.96-5.68 3.28-0.96 2.72-1.84 5.6-2.72 8.32l-0.080 0.32c-0.24 0.88 0 1.76 0.72 2.4s1.52 0.72 2.32 0.32c0.080-0.080 0.24-0.080 0.32-0.080s0.080 0 0.16 0l0.24-0.080v0.24c0 0.72-0.16 1.52-0.24 2.24-0.080 0.8-0.24 1.6-0.24 2.32l0.080-0.56c0.16-1.2 0.32-2.4 0.48-3.6 0.080-0.56 0.32-0.96 0.88-1.2 2.56-1.36 4.64-2.48 6.56-3.52 0.64-0.32 1.12-0.88 1.28-1.52s0.080-1.28-0.24-1.84c-0.64-1.12-1.92-1.44-3.2-0.72-0.56 0.32-1.12 0.64-1.76 0.96l-1.36 0.72 0.64-2.4c-0.080 0.080-0.16 0.24-0.16 0.32-0.16 1.6-1.12 2.72-2.96 3.36-0.24 0.080-0.48 0.24-0.64 0.32 0.16 0 0.24-0.080 0.4-0.080 0.88-0.48 1.68-0.88 2.56-1.36 1.12-0.64 2.32-1.2 3.44-1.84 0.72-0.4 1.44-0.4 2.080 0 0.64 0.32 1.040 0.96 1.12 1.76 0.080 1.040-0.32 1.84-1.28 2.32l-3.44 1.84c-1.52 0.8-2.96 1.6-4.48 2.4-0.88 0.48-1.76 0.48-2.4-0.16-0.8-0.64-1.040-1.52-0.72-2.48 0.24-0.8 0.48-1.6 0.8-2.48 0.56-1.92 1.2-3.84 1.84-5.76 0.88-2.48 2.96-3.84 5.6-3.6 0.8 0.080 1.6 0.16 2.32 0.32 0.88 0.16 1.76 0.24 2.64 0.32 2.32 0.24 3.92 1.36 4.96 3.44 0.56 1.2 1.2 2.4 1.76 3.6 0.4 0.8 0.8 1.68 1.28 2.48l0.080 0.16c0.16 0.32 0.4 0.72 0.32 1.12-0.080 0.8-0.24 1.36-0.64 1.6-0.4 0.32-1.36 0.48-1.84 0.16-1.92-1.2-3.68-2.48-5.28-3.76-0.4-0.32-0.64-0.72-0.64-1.28-0.080-0.64 0.16-1.28 0.56-1.84 0.8-0.88 1.92-0.96 2.96-0.24 0.24 0.16 0.48 0.4 0.72 0.56 0.16 0.16 0.32 0.32 0.56 0.4 0.080 0.080 0.16 0.080 0.24 0.16-0.16-0.16-0.32-0.24-0.4-0.4-0.4-0.4-0.88-0.72-1.28-1.040-0.56-0.16-0.96-0.24-1.36-0.24zM10.56 12.16c-2.16 0-3.84 1.2-4.56 3.36-0.64 1.92-1.28 3.84-1.84 5.76-0.24 0.8-0.48 1.6-0.8 2.48-0.24 0.8-0.080 1.52 0.64 2.080 0.56 0.48 1.2 0.48 2 0.080 1.52-0.8 2.96-1.6 4.48-2.4l3.44-1.84c0.8-0.4 1.2-1.12 1.12-1.92-0.080-0.64-0.4-1.2-0.88-1.44s-1.12-0.24-1.76 0c-1.12 0.56-2.32 1.2-3.44 1.84-0.88 0.48-1.68 0.88-2.56 1.36-0.32 0.080-0.64 0.16-1.040 0.080l-0.32-0.080 0.24-0.24c0 0 0.080-0.080 0.080-0.080 0.080-0.080 0.16-0.16 0.24-0.24 0.24-0.16 0.48-0.32 0.72-0.4 1.68-0.56 2.48-1.52 2.72-3.040 0-0.16 0.080-0.32 0.16-0.48 0-0.080 0.080-0.080 0.080-0.16l0.080-0.16 0.64 0.16-0.56 1.92 0.48-0.24c0.64-0.32 1.2-0.64 1.76-0.96 1.52-0.8 2.96-0.48 3.76 0.88 0.080 0.16 0.16 0.4 0.24 0.56 0-0.080 0-0.16 0.080-0.24 0.24-0.8 0.88-1.44 1.6-1.76 0.72-0.24 1.52-0.16 2.24 0.24 0.48 0.32 0.96 0.72 1.36 1.040 0.16 0.16 0.4 0.32 0.56 0.48l0.16 0.080-0.4 0.56-0.16-0.080c-0.080 0-0.080-0.080-0.16-0.080-0.16-0.080-0.24-0.080-0.4-0.24s-0.4-0.32-0.56-0.48c-0.24-0.16-0.48-0.4-0.64-0.56-0.88-0.64-1.84-0.56-2.4 0.16-0.32 0.4-0.56 0.96-0.48 1.52 0 0.32 0.16 0.72 0.48 0.96 1.6 1.28 3.36 2.48 5.28 3.68 0.24 0.16 1.040 0.080 1.36-0.16 0.16-0.080 0.32-0.4 0.48-1.28 0-0.24-0.16-0.56-0.32-0.88l-0.080-0.16c-0.4-0.8-0.8-1.68-1.28-2.48-0.56-1.2-1.2-2.4-1.76-3.6-0.96-2-2.48-3.040-4.64-3.28-0.88-0.080-1.76-0.24-2.64-0.32-0.8-0.080-1.52-0.24-2.32-0.32-0.080 0.32-0.32 0.32-0.48 0.32zM16.56 3.36c-2.24 0-4 1.84-4 4.24 0 1.2 0.4 2.24 1.12 3.040s1.76 1.28 2.8 1.28c1.040 0 2-0.4 2.8-1.12 0.8-0.8 1.28-1.92 1.28-3.12s-0.48-2.32-1.28-3.12c-0.72-0.8-1.68-1.2-2.72-1.2 0 0 0 0 0 0zM20.8 7.6h0.24c0 0.72-0.16 1.44-0.48 2.080 0.24-0.4 0.4-0.88 0.48-1.28 0.24-1.2 0-2.48-0.8-3.6-0.72-1.040-1.76-1.76-2.96-1.92s-2.4 0.080-3.36 0.8c-1.040 0.8-1.68 1.84-1.84 3.040-0.080 0.48 0 0.88 0.080 1.36 0-0.16 0-0.4 0-0.56 0-2.56 1.92-4.64 4.4-4.64 0 0 0 0 0 0 1.12 0 2.24 0.48 3.040 1.28 0.88 0.88 1.36 2.080 1.36 3.44h-0.16zM23.6 11.12c-0.64-0.24-1.28-0.56-2-0.88 1.76-1.36 3.36-2.72 5.040-4 0 0.16 0.080 0.16 0.16 0.24-0.32 0.56-0.64 1.12-0.96 1.68s-0.64 1.12-1.040 1.76c0.64 0.24 1.2 0.48 2 0.88-1.76 1.36-3.36 2.64-4.96 3.92-0.080-0.080-0.24-0.16-0.32-0.24 0.72-1.12 1.36-2.24 2.080-3.36zM22.56 10.080c0.64 0.24 1.2 0.48 1.76 0.72-0.4 0.72-0.8 1.44-1.2 2.080 0.080 0 0.080 0.080 0.16 0.080 0.88-0.72 1.76-1.36 2.64-2.16-0.64-0.24-1.2-0.48-1.76-0.72 0.48-0.8 0.8-1.44 1.2-2.16-0.080 0-0.080-0.080-0.16-0.080-0.8 0.8-1.68 1.52-2.64 2.24zM22.72 16.96c0.88-0.16 1.76-0.32 2.64-0.48-0.080-0.24-0.080-0.32-0.16-0.48-0.080-0.32-0.080-0.64-0.16-0.96 0.32 0 0.64 0 0.88 0.080 0.96 0.24 1.92 0.48 2.88 0.72 0.24 0.080 0.4 0.16 0.64 0.24 0 0.080 0 0.16 0 0.24-0.88 0.16-1.76 0.32-2.64 0.48 0.16 0.48 0.24 0.96 0.48 1.6-1.68-0.4-3.12-0.72-4.64-1.12 0.080-0.080 0.080-0.24 0.080-0.32zM24.64 17.12c0 0.080 0 0.080 0 0.16 0.64 0.16 1.2 0.32 1.84 0.48-0.080-0.48-0.24-1.040-0.080-1.28 0.24-0.24 0.8-0.24 1.44-0.4-0.8-0.16-1.44-0.32-2.16-0.48 0.16 0.48 0.24 0.88 0.4 1.28-0.56 0.080-0.96 0.16-1.44 0.24zM11.44 0.64c0.56 0.88 1.12 1.76 1.2 2.88 0.080 0.88-0.56 1.6-1.28 1.6-0.8 0-1.44-0.72-1.28-1.6 0.16-0.96 0.64-1.92 0.96-2.88 0.16-0.080 0.24-0.080 0.4 0zM11.44 1.52c-0.080 0-0.16 0-0.24 0-0.24 0.56-0.56 1.040-0.64 1.6-0.080 0.4 0.16 0.88 0.4 1.36 0.080 0.080 0.64 0.080 0.64 0 0.24-0.4 0.48-0.88 0.4-1.36 0-0.48-0.32-1.040-0.56-1.6z"></path>
</svg>
