<!-- Generated by IcoMoon.io -->
<svg version="1.1" xmlns="http://www.w3.org/2000/svg" width="32" height="32" viewBox="0 0 32 32">
<title>prostate</title>
<path d="M25.44 28.56c0.8 0.56 1.6 1.12 2.48 1.68 0.4-0.48 0.72-0.88 1.12-1.36 0.16 0.8-1.44 3.040-2.24 3.2 0.32-0.48 0.56-0.88 0.8-1.36-0.4-0.32-0.8-0.56-1.2-0.88s-0.8-0.56-1.28-0.88c-0.48 0.64-0.96 1.28-1.44 1.84-0.080-0.080-0.16-0.16-0.24-0.24 0.16-0.24 0.24-0.48 0.4-0.8-1.36-0.88-2.72-1.76-4-2.72-0.32-0.24-0.56-0.64-0.96-1.040-0.56 0.080-1.36 0.24-2.24 0.48-0.56 1.52-0.24 3.2-0.32 4.96-0.080 0-0.16 0-0.24 0-0.080-0.16-0.16-0.4-0.16-0.56 0.080-1.44 0.16-2.88 0.24-4.32 0-0.16 0.080-0.4 0-0.48-0.88-0.96-0.56-2.080-0.48-3.12 0.080-0.96-0.88-0.88-1.2-1.44-0.080 0-0.16 0-0.24 0.080 0 0.56 0.080 1.12 0.080 1.76 0 0.72-0.080 1.44-0.080 2.16 0 0.32 0 0.64 0.080 0.88 0.16 1.52 0.32 2.96 0.4 4.48 0 0.16-0.080 0.32-0.080 0.56-0.080 0-0.16 0-0.24 0-0.16-1.68-0.32-3.44-0.48-5.2-2.48 0.4-4.16-0.72-5.2-2.56-1.28-2.16-1.28-4.48-0.32-6.8 0.24-0.64 0.88-1.12 1.36-1.68-0.88-0.48-1.84-0.96-2.72-1.6-1.28-0.96-2.56-1.92-3.6-3.12-2.16-2.56-1.6-5.36 1.2-7.2 2.32-1.44 4.88-2.080 7.6-2.4 4.48-0.48 8.88 0 13.040 2 0.96 0.48 1.84 1.12 2.64 1.84 1.2 1.12 1.52 2.72 0.72 4.16-0.56 0.96-1.2 2-2.080 2.64-1.68 1.28-3.6 2.32-5.44 3.44-0.24 0.16-0.56 0.32-0.88 0.48 2.24 1.84 2.56 4.4 1.12 8.48 0.080 0.080 0.16 0.16 0.24 0.16 1.44 0.96 2.8 1.92 4.24 2.88 0.24-0.24 0.48-0.4 0.72-0.64 0.080 0.080 0.16 0.16 0.24 0.16-0.48 0.64-0.88 1.36-1.36 2.080zM15.68 21.84c0-1.12-0.080-2.16 0-3.2 0.080-1.84 1.28-3.040 3.12-3.28 0.16 0 0.4-0.080 0.56-0.16 2.24-0.96 4.48-2 6.4-3.6 0.88-0.72 1.68-1.6 2.32-2.56 0.96-1.44 0.72-2.88-0.56-4.080-0.8-0.72-1.68-1.28-2.56-1.76-4.4-1.84-8.96-2.24-13.6-1.6-2.32 0.32-4.64 0.96-6.56 2.32-2.56 1.68-2.96 3.92-1.040 6.24 2.080 2.56 4.8 4.24 7.92 5.2 1.2 0.4 2.080 1.12 2.4 2.32 0.16 0.64 0.16 1.36 0.16 2 0 1.44 0 1.44 1.44 2.16zM12.64 20.72c-0.72 0-1.44 0.080-2.24 0.16-0.64 0.080-0.88-0.24-0.88-0.88 0.16-2.16-0.48-2.080 2-2.080 0.8 0 1.040 0.16 0.96 0.96-0.16 0.96 0.32 1.28 1.12 1.6 0.24-1.2 0.24-2.32-0.4-3.28-0.64-1.040-1.6-1.44-2.72-1.36-1.040 0.080-1.6 0.72-1.92 1.6-0.72 2.16-0.72 4.32 0.56 6.32 0.8 1.2 1.84 2.080 3.28 2.16 1.040 0.080 1.44-0.32 1.44-1.36 0-0.8-0.16-1.6-0.16-2.32 0.080-0.88-0.24-1.44-1.040-1.52zM20.56 24c1.28-1.92 1.44-4 0.8-6.16-0.4-1.36-1.2-2-2.4-2-1.36 0-2.4 0.8-2.72 2.080-0.16 0.88 0 1.84-0.16 2.72-0.32 1.52 0.56 2.24 1.68 2.8 0.080 0 0.080 0 0.16 0 1.2-1.12 1.68 0.4 2.64 0.56zM25.6 27.36c-1.12-0.72-2.080-1.44-3.2-2.16-0.48 0.72-0.88 1.44-1.36 2.16 1.040 0.72 2 1.36 3.040 2 0.56-0.64 0.96-1.28 1.52-2zM22 24.96c-0.4-0.16-0.8-0.56-1.040-0.48-0.56 0.24-0.88-0.080-1.28-0.32-0.32-0.24-0.64-0.4-0.96-0.64-0.24 0.4-0.48 0.72-0.8 1.12 0.32 0.24 0.64 0.4 0.88 0.64 0.32 0.24 0.8 0.48 0.8 0.72 0 0.8 0.56 0.88 1.040 1.2 0.48-0.8 0.88-1.52 1.36-2.24zM18.64 25.68c-0.8-0.48-1.44-0.88-0.96-1.76-0.56-0.32-0.96-0.64-1.6-1.040-0.080 0.56-0.16 1.12-0.16 1.6-0.080 1.2 0.4 1.6 1.6 1.44 0.32 0 0.64-0.16 1.12-0.24zM12 19.28c0.24-0.64 0.16-1.040-0.64-0.88-0.4 0.080-1.040 0-1.28 0.24-0.24 0.32-0.080 0.88-0.080 1.36 0 0.16 0.080 0.4 0.16 0.4 0.64 0 1.2 0 1.84 0 0-0.080 0.080-0.16 0.080-0.24-0.32-0.24-0.72-0.4-1.040-0.64 0.080-0.080 0.16-0.16 0.24-0.24 0.24-0.080 0.48-0.080 0.72 0zM26.4 32.24l0.96-1.52-0.24-0.16c-0.24-0.16-0.56-0.4-0.8-0.56s-0.56-0.4-0.8-0.56l-0.24-0.16-1.52 1.92-0.56-0.4 0.4-0.8-0.96-0.64c-0.96-0.64-2-1.28-2.96-2-0.24-0.16-0.48-0.4-0.64-0.64-0.080-0.080-0.16-0.16-0.24-0.32l-2 0.32c-0.32 0.96-0.32 2-0.32 3.040 0 0.56 0 1.12 0 1.68v0.16l-0.56 0.080-0.080-0.16c0-0.080-0.080-0.080-0.080-0.16-0.080-0.16-0.16-0.32-0.16-0.48 0.080-1.12 0.080-2.24 0.16-3.44l0.080-0.88c0-0.080 0-0.16 0-0.16 0-0.080 0-0.16 0-0.16-0.8-0.88-0.64-1.84-0.56-2.8 0-0.16 0-0.32 0.080-0.48 0.080-0.48-0.24-0.64-0.56-0.8-0.16-0.080-0.32-0.16-0.4-0.24 0 0.080 0 0.16 0 0.24 0 0.4 0.080 0.8 0.080 1.2s0 0.88-0.080 1.28c0 0.32 0 0.56 0 0.88s0 0.56 0.080 0.88l0.16 1.6c0.080 0.96 0.16 1.92 0.24 2.88 0 0.16 0 0.32-0.080 0.48 0 0.080 0 0.080-0.080 0.16v0.16h-0.56l-0.48-5.12c-2.24 0.32-4-0.64-5.2-2.72-1.28-2.16-1.36-4.56-0.32-6.96 0.24-0.48 0.56-0.8 0.96-1.2 0.080-0.080 0.24-0.24 0.32-0.32-0.16-0.080-0.4-0.24-0.56-0.32-0.64-0.32-1.36-0.72-1.92-1.2l-0.24-0.16c-1.2-0.88-2.4-1.84-3.36-2.96-1.040-1.28-1.52-2.64-1.36-4s1.040-2.56 2.56-3.52c2.080-1.28 4.56-2.080 7.68-2.4 4.96-0.48 9.28 0.16 13.12 2 0.88 0.4 1.76 1.040 2.64 1.84 1.28 1.2 1.6 2.88 0.8 4.4-0.64 1.2-1.36 2.080-2.16 2.64-1.28 0.96-2.64 1.76-3.92 2.56-0.48 0.32-1.040 0.64-1.52 0.88-0.16 0.16-0.4 0.24-0.64 0.32 0 0 0 0 0 0 2.080 1.84 2.4 4.4 1.040 8.4 0 0 0.080 0.080 0.080 0.080 1.040 0.72 2.16 1.44 3.28 2.16l0.88 0.56 0.72-0.64 0.48 0.4-1.28 2 2.16 1.44 1.28-1.6 0.080 0.4c0.16 0.88-1.52 3.28-2.4 3.36l-0.48 0.24zM25.12 28.72l0.56 0.4c0.32 0.16 0.56 0.4 0.8 0.56s0.56 0.4 0.8 0.56l0.56 0.4-0.48 0.8c0.48-0.48 0.96-1.2 1.2-1.76l-0.72 0.88-2.8-1.92 1.2-1.92-0.4 0.48-1.12-0.8c-1.12-0.72-2.16-1.44-3.28-2.16-0.080-0.080-0.16-0.080-0.16-0.16l-0.16-0.16 0.080-0.16c0.16-0.48 0.32-1.040 0.48-1.44-0.16 0.64-0.48 1.2-0.88 1.76l-0.080 0.080h-0.16c-0.4-0.080-0.72-0.32-1.040-0.56s-0.56-0.4-0.8-0.4l0.4 0.32c0.24 0.16 0.48 0.32 0.72 0.48 0.080 0.080 0.16 0.080 0.16 0.16 0.32 0.24 0.48 0.32 0.88 0.16 0.24-0.080 0.56 0.080 0.88 0.24 0.080 0.080 0.24 0.16 0.32 0.24l0.24 0.080-1.6 2.48-0.16-0.16c-0.080-0.080-0.24-0.16-0.32-0.16-0.4-0.24-0.88-0.4-0.8-1.2 0-0.080-0.32-0.24-0.4-0.32s-0.24-0.16-0.32-0.16c-0.16-0.16-0.32-0.24-0.56-0.4l-0.4-0.32c0.080 0.24 0.48 0.48 0.96 0.8l0.48 0.24-0.48 0.080c-0.16 0.080-0.32 0.080-0.48 0.16-0.24 0.080-0.4 0.080-0.64 0.16-0.72 0.080-1.12 0-1.44-0.24s-0.4-0.72-0.4-1.36c0-0.32 0.080-0.64 0.080-1.040 0-0.16 0.080-0.32 0.080-0.56v-0.32l2 1.36v0.080c-0.16 0.24-0.16 0.4-0.16 0.56l0.96-1.28c-0.16 0.080-0.32 0.16-0.48 0.32l-0.080 0.080h-0.080c-0.080 0-0.16 0-0.16-0.080-1.040-0.56-2.16-1.28-1.84-3.040 0.080-0.4 0.080-0.88 0.080-1.28 0-0.48 0-0.96 0.080-1.44 0.24-1.36 1.44-2.24 2.88-2.24 0.72 0 1.36 0.24 1.84 0.72-0.24-0.24-0.48-0.48-0.8-0.72l-0.24-0.16 0.24-0.16c0.080-0.080 0.24-0.080 0.32-0.16 0.24-0.080 0.4-0.16 0.56-0.32 0.24-0.16 0.48-0.24 0.72-0.4-0.8 0.4-1.52 0.72-2.32 1.040-0.16 0.080-0.4 0.080-0.56 0.16-1.76 0.24-2.8 1.36-2.96 3.040 0 0.72 0 1.44 0 2.16 0 0.32 0 0.72 0 1.040v0.32l-0.32-0.16c-1.52-0.72-1.6-0.8-1.52-2.24 0-0.64 0-1.36-0.16-2-0.32-1.040-1.040-1.76-2.24-2.16-1.76-0.56-3.28-1.28-4.64-2.24l0.16 0.16c0.56 0.48 1.28 0.8 1.92 1.12 0.24 0.16 0.56 0.32 0.8 0.48l0.24 0.16-0.16 0.16c-0.16 0.16-0.32 0.32-0.48 0.56-0.32 0.32-0.64 0.72-0.88 1.040-1.12 2.32-1.040 4.56 0.16 6.64s2.88 2.88 5.040 2.48h0.24l0.48 4.96c0 0 0-0.080 0-0.080-0.080-0.96-0.16-1.92-0.24-2.88l-0.16-1.6c0-0.32-0.080-0.64-0.080-0.96 0-0.080 0-0.24 0-0.32-0.080 0.24-0.16 0.4-0.32 0.56-0.24 0.24-0.64 0.32-1.28 0.32-1.36-0.080-2.56-0.88-3.44-2.24-1.2-1.84-1.44-4.080-0.64-6.48 0.32-1.040 1.12-1.68 2.080-1.76 1.28-0.080 2.32 0.4 2.88 1.44 0.56 0.96 0.72 2 0.4 3.44l-0.080 0.24-0.080-0.16c-0.8-0.32-1.44-0.72-1.28-1.84 0.080-0.32 0-0.48-0.080-0.56s-0.32-0.16-0.64-0.16h-0.4c-0.72 0-1.2 0-1.36 0.16-0.080 0.080-0.080 0.32-0.080 0.72 0 0.24 0 0.64 0 1.040 0 0.24 0 0.48 0.16 0.56 0.080 0.080 0.32 0.16 0.56 0.16 0.48 0 0.96-0.080 1.44-0.080h-0.24c-0.48 0-0.96 0-1.44 0-0.24 0-0.4-0.4-0.4-0.56 0-0.080 0-0.24 0-0.32 0-0.4-0.080-0.8 0.16-1.12 0.16-0.24 0.56-0.24 0.88-0.24 0.16 0 0.32 0 0.48 0 0.4-0.080 0.64 0 0.8 0.16 0.24 0.24 0.16 0.64 0 0.96l-0.080 0.16-0.72-0.080 0.96 0.56-0.16 0.56h0.4c0.88 0.080 1.36 0.72 1.28 1.68 0 0.4 0 0.88 0.080 1.28 0 0.24 0.080 0.48 0.080 0.8 0-0.24 0-0.56 0-0.8 0-0.4 0-0.8-0.080-1.2 0-0.16 0-0.32-0.080-0.56v-0.16l0.48-0.16 0.080 0.080c0.080 0.16 0.24 0.24 0.48 0.32 0.4 0.16 0.88 0.48 0.8 1.2 0 0.16 0 0.32-0.080 0.48-0.080 0.88-0.24 1.76 0.48 2.56 0.080 0.16 0.080 0.32 0.080 0.48 0 0.080 0 0.080 0 0.16v0.56c0.080-0.24 0.16-0.48 0.24-0.8v-0.080l2.48-0.48 0.080 0.080c0.16 0.16 0.24 0.24 0.32 0.4 0.16 0.24 0.4 0.48 0.56 0.56 0.96 0.64 2 1.36 2.96 2l1.2 0.8-0.4 0.72 1.52-1.92zM16.080 29.92c0 0.32 0 0.72-0.080 1.040 0 0.080 0 0.080 0.080 0.16 0-0.4 0-0.8 0-1.2zM18.24 24.56l0.16 0.080c0.24 0.16 0.4 0.24 0.56 0.4 0.080 0.080 0.16 0.080 0.24 0.16 0.32 0.24 0.64 0.4 0.64 0.64 0 0.48 0.24 0.64 0.64 0.8 0.080 0 0.16 0.080 0.16 0.080l1.12-1.76c-0.080 0-0.16-0.080-0.16-0.16-0.16-0.080-0.4-0.24-0.48-0.24-0.56 0.24-0.96 0-1.28-0.24-0.080 0-0.080-0.080-0.16-0.080-0.24-0.16-0.48-0.32-0.72-0.48l-0.16-0.080-0.56 0.88zM16.32 23.2c0 0.080 0 0.16 0 0.24-0.080 0.4-0.080 0.72-0.080 1.040 0 0.56 0.080 0.88 0.24 1.12 0.16 0.16 0.56 0.24 1.12 0.16 0.16 0 0.32-0.080 0.56-0.16 0 0 0 0 0 0-0.4-0.24-0.72-0.48-0.8-0.88-0.080-0.24 0-0.48 0.080-0.72l-1.12-0.8zM10.8 16c-0.080 0-0.16 0-0.24 0-1.040 0.080-1.52 0.88-1.76 1.44-0.8 2.32-0.64 4.4 0.56 6.16 0.88 1.28 1.84 2 3.12 2.080 0.48 0 0.8 0 0.96-0.16s0.24-0.48 0.24-0.96c0-0.32-0.080-0.72-0.080-1.040-0.080-0.4-0.080-0.88-0.080-1.28 0-0.8-0.24-1.2-0.96-1.28h-0.56c-0.56 0-1.12 0.080-1.6 0.080-0.4 0-0.64-0.080-0.88-0.24-0.16-0.16-0.24-0.48-0.24-0.88s0-0.72 0-1.040c0-0.48 0-0.8 0.16-1.040 0.24-0.24 0.64-0.24 1.6-0.24h0.4c0.4 0 0.72 0 0.96 0.24 0.16 0.16 0.24 0.48 0.16 0.88-0.080 0.72 0.16 1.040 0.8 1.28 0.24-1.2 0.080-2.080-0.4-2.88-0.32-0.64-1.12-1.12-2.16-1.12zM18.8 22.88c0.4 0 0.72 0.24 0.96 0.48 0.24 0.16 0.48 0.4 0.72 0.4 1.12-1.68 1.36-3.6 0.72-5.92-0.32-1.2-1.040-1.84-2.080-1.84 0 0-0.080 0-0.080 0-1.28 0-2.24 0.8-2.48 1.92-0.080 0.4-0.080 0.88-0.080 1.36s0 0.96-0.080 1.36c-0.24 1.28 0.4 1.92 1.6 2.56 0.32-0.24 0.56-0.32 0.8-0.32zM15.28 1.52c-1.28 0-2.56 0.080-3.92 0.24-2.72 0.4-4.8 1.12-6.48 2.24-1.2 0.8-1.92 1.76-2.080 2.8s0.24 2.080 1.12 3.2c2 2.4 4.64 4.16 7.84 5.12 1.36 0.4 2.16 1.2 2.48 2.4 0.16 0.72 0.24 1.44 0.16 2.080 0 1.2 0 1.28 1.040 1.76 0-0.24 0-0.48 0-0.72 0-0.72 0-1.44 0-2.16 0.080-1.92 1.36-3.2 3.28-3.44 0.16 0 0.32-0.080 0.48-0.080 2.16-0.96 4.4-2 6.32-3.6 0.88-0.72 1.68-1.6 2.24-2.48 0.88-1.36 0.72-2.72-0.48-3.76-0.8-0.72-1.68-1.28-2.56-1.68-2.88-1.28-6-1.92-9.44-1.92zM21.12 16.72c0.16 0.32 0.32 0.64 0.48 1.040 0.32 1.28 0.4 2.4 0.24 3.52 0.4-1.92 0.16-3.36-0.72-4.56zM10.32 20.16c0.48 0 0.88 0 1.36 0h0.24l-1.040-0.64 0.4-0.56h0.64c0.080-0.32 0-0.4 0-0.4s-0.080-0.080-0.4 0c-0.16 0-0.4 0-0.56 0.080-0.16 0-0.56 0-0.56 0.080-0.16 0.16-0.080 0.56-0.080 0.88 0 0.16 0 0.24 0 0.4-0.080 0-0.080 0.080 0 0.16zM15.28 1.040c-0.96 0-2 0.080-3.040 0.16-2.96 0.32-5.44 1.040-7.44 2.32-1.36 0.88-2.24 2-2.4 3.2-0.24 1.28 0.16 2.48 1.2 3.68 0.48 0.56 1.040 1.12 1.6 1.6-0.56-0.48-1.12-1.040-1.6-1.68-0.96-1.2-1.36-2.32-1.2-3.52 0.16-1.12 0.88-2.16 2.24-3.12 1.76-1.2 3.92-2 6.72-2.32 5.040-0.72 9.52-0.080 13.6 1.76 0.88 0.4 1.84 1.040 2.64 1.76 1.36 1.2 1.52 2.8 0.56 4.32-0.56 0.88-1.44 1.84-2.32 2.56-0.080 0.080-0.16 0.080-0.24 0.16 0.24-0.16 0.56-0.4 0.8-0.56 0.72-0.56 1.36-1.36 2-2.56 0.72-1.36 0.48-2.8-0.72-3.92-0.88-0.8-1.68-1.36-2.56-1.76-2.96-1.36-6.24-2.080-9.84-2.080zM24.16 29.68l-3.36-2.24 1.52-2.48 3.52 2.32-1.68 2.4zM21.36 27.36l2.72 1.84 1.2-1.68-2.8-1.92-1.12 1.76z"></path>
</svg>
