<!-- Generated by IcoMoon.io -->
<svg version="1.1" xmlns="http://www.w3.org/2000/svg" width="32" height="32" viewBox="0 0 32 32">
<title>pulmonary</title>
<path d="M24.64 20.4c0.72 0.88 0.8 1.92 1.040 2.88 0.080 0.4 0.24 0.88 0.4 1.28 0.24 0.56 0.72 1.040 1.36 1.2 0.080 0 0.24 0.24 0.24 0.32 0 0.16-0.16 0.32-0.32 0.32s-0.4-0.080-0.56-0.16c-0.64-0.32-1.12-0.88-1.36-1.6-0.16-0.48-0.32-1.040-0.4-1.52 0-0.080-0.080-0.16-0.080-0.32-0.080 0-0.080 0-0.080 0-0.56 0.56-1.2 0.88-2 1.040-0.56 0.080-1.12 0.32-1.68 0.48-0.16 0.080-0.4 0.080-0.48-0.16s0-0.4 0.16-0.48c0.56-0.32 1.2-0.4 1.84-0.56 0.56-0.080 1.12-0.24 1.6-0.72s0.48-0.8 0.16-1.28c-0.32-0.48-0.64-0.88-1.2-0.96-0.72-0.16-1.28-0.56-1.76-1.040-0.64-0.56-1.2-1.2-1.76-1.76-0.72-0.72-1.52-1.2-2.56-1.36-0.4-0.080-0.88-0.24-1.2-0.4-0.48 0.16-0.96 0.32-1.52 0.4-0.88 0.16-1.6 0.64-2.24 1.28-0.4 0.4-0.8 0.88-1.28 1.28-0.72 0.72-1.44 1.28-2.4 1.6-0.72 0.24-1.12 0.72-1.44 1.36 0 0.080 0 0.24 0 0.32 0.24 0.64 0.72 0.96 1.36 1.12 0.48 0.080 1.040 0.16 1.52 0.32 0.32 0.080 0.56 0.24 0.8 0.32s0.32 0.32 0.16 0.48c-0.16 0.24-0.32 0.16-0.56 0.080-0.48-0.16-0.96-0.32-1.52-0.4-0.8-0.16-1.6-0.32-2.16-1.12-0.080 0.32-0.16 0.64-0.16 0.88-0.16 0.72-0.4 1.36-0.88 1.92-0.32 0.32-0.64 0.64-1.12 0.72-0.16 0-0.32 0-0.48 0-0.080 0-0.24-0.16-0.16-0.16 0-0.080 0.080-0.24 0.16-0.24 1.36-0.4 1.68-1.52 1.92-2.72 0.16-0.88 0.4-1.84 0.96-2.64-0.64-0.080-1.2-0.080-1.76-0.16-0.080 0-0.16 0-0.24 0-0.24 0-0.32-0.080-0.32-0.32s0.16-0.24 0.32-0.24c0.64 0 1.28 0 1.92-0.080 0.88-0.080 1.76-0.32 2.4-0.96-1.2-0.72-1.68-1.92-1.68-3.36-0.24 0.24-0.48 0.4-0.64 0.56-0.24 0.24-0.4 0.48-0.64 0.72-0.64 0.64-1.84 0.8-2.48 0.48-0.24-0.080-0.32-0.24-0.24-0.48s0.24-0.24 0.48-0.16c0.8 0.24 1.44-0.080 2-0.72 0.16-0.24 0.32-0.4 0.48-0.56s0.32-0.4 0.56-0.4c0.48-0.080 0.48-0.4 0.48-0.8 0-1.040 0.080-2 0.16-3.040 0-0.24 0.080-0.4 0.32-0.4s0.24 0.16 0.24 0.4c0 1.28 0 2.56 0 3.92 0 0.56 0.16 1.2 0.32 1.76s0.56 0.96 1.12 1.2c0.24 0.080 0.4 0.080 0.64-0.16 0.4-0.48 0.8-0.96 1.2-1.44 0.72-0.8 1.52-1.36 2.56-1.6 0.080 0 0.16 0 0.16-0.080 0.64-0.16 0.64-0.16 0.56-0.88 0-0.4 0-0.88 0-1.28-0.080-2.32-0.16-4.72-0.24-7.040 0-0.080 0-0.24 0-0.32 0.88 0 1.68 0 2.48 0 0 0.64 0 1.2 0 1.84-0.080 1.68-0.16 3.36-0.24 5.12 0 0.48 0.080 0.96 0.080 1.44 0 0.24 0 0.48-0.080 0.64-0.080 0.24 0 0.32 0.16 0.32 0.32 0.080 0.56 0.16 0.88 0.24 1.12 0.32 2 1.040 2.72 1.92 0.32 0.32 0.56 0.72 0.88 1.040 0.16 0.24 0.32 0.24 0.56 0.16 0.56-0.16 0.96-0.56 1.12-1.12 0.24-0.56 0.4-1.2 0.32-1.84 0-1.28 0-2.48 0-3.76 0-0.080 0-0.16 0-0.16 0.080-0.080 0.16-0.16 0.24-0.32 0.080 0.080 0.24 0.16 0.24 0.32 0 0.48-0.080 0.96-0.080 1.44 0 0.72 0 1.36 0.080 2.080 0 0.080 0.080 0.16 0.16 0.16 0.4 0.16 0.72 0.4 1.040 0.72 0.24 0.24 0.4 0.48 0.64 0.72 0.4 0.4 0.96 0.56 1.52 0.4 0.080 0 0.080 0 0.16 0 0.24-0.080 0.4 0 0.48 0.24s-0.080 0.4-0.32 0.48c-1.040 0.24-2-0.080-2.64-0.88-0.16-0.24-0.32-0.4-0.56-0.64-0.080-0.080-0.24-0.16-0.4-0.32-0.080 1.44-0.48 2.56-1.76 3.36 0.4 0.24 0.72 0.48 1.040 0.56 0.64 0.16 1.36 0.32 2 0.4 0.4 0.080 0.88 0 1.36 0.080 0.16 0 0.32 0.080 0.32 0.24 0 0.24-0.16 0.32-0.32 0.32-0.72 0.080-1.36 0.16-2.080 0.24zM18.8 13.92c-0.32-0.080-0.64-0.24-1.040-0.32 0.080-0.32 0.080-0.64 0.16-0.96 0.48-1.12 0.4-2.24 0.24-3.44-0.080-0.96-0.080-2 0.24-2.96 0.24-0.96 0.8-1.76 1.84-2 0.8-0.16 1.6-0.080 2.4 0.24 1.2 0.56 2.16 1.28 2.96 2.16 2.8 2.8 4.48 6.080 5.2 10 0.4 2.24 0.64 4.48 0.72 6.72 0 0.72-0.080 1.36-0.16 2.080 0 0.4 0 0.88-0.080 1.28-0.24 1.52-1.36 2.48-2.88 2.56-2.32 0.080-4.56 0-6.8-0.64-0.56-0.16-1.040-0.32-1.6-0.56-1.12-0.56-1.68-1.52-1.84-2.72-0.24-2.080-0.48-4.080-0.48-6.16 0-0.72 0-1.44 0-2.24 0.32 0.24 0.64 0.48 0.96 0.72 0.080 0.080 0.080 0.24 0.080 0.32 0 1.040 0 2.080 0.080 3.040 0.080 1.44 0.24 2.8 0.4 4.24 0.080 0.8 0.48 1.44 1.28 1.76 0.64 0.24 1.36 0.48 2.080 0.64 1.84 0.4 3.68 0.48 5.52 0.4 1.44 0 2.080-0.72 2.16-2.16 0.080-2.16 0-4.32-0.32-6.48-0.24-1.6-0.4-3.2-0.88-4.8-0.96-3.12-2.64-5.76-5.12-7.92-0.72-0.64-1.6-1.12-2.56-1.36-0.96-0.16-1.6 0.16-1.84 1.040-0.16 0.64-0.24 1.28-0.24 1.92 0 0.72 0.080 1.44 0.080 2.080 0 0.48 0 0.96-0.080 1.36-0.080 0.8-0.32 1.44-0.48 2.16zM14.16 16.96c-0.080 1.76-0.080 3.6-0.16 5.36-0.080 1.040-0.16 2.080-0.32 3.12-0.24 1.36-0.96 2.24-2.32 2.72-1.6 0.64-3.28 0.8-4.96 0.96-0.88 0.080-1.84 0.080-2.8 0.080-1.92-0.080-3.12-1.28-3.12-3.2 0-2.56 0.080-5.2 0.48-7.76 0.32-2.080 0.72-4.16 1.6-6.080 1.2-2.56 2.8-4.8 5.12-6.64 0.72-0.56 1.6-1.040 2.56-1.2 1.6-0.32 2.8 0.4 3.2 2 0.32 1.12 0.4 2.24 0.24 3.36s0 2.16 0.32 3.2c0.080 0.24 0.080 0.48 0.16 0.8-0.4 0.16-0.72 0.24-1.040 0.32-0.24-0.8-0.48-1.6-0.64-2.48-0.080-0.64 0-1.28 0.080-1.92 0.080-0.88 0.080-1.76-0.080-2.64-0.32-1.52-1.040-1.84-2.56-1.36-1.040 0.32-1.84 1.040-2.64 1.76-2.64 2.56-4.24 5.68-4.96 9.28-0.48 2.4-0.72 4.8-0.8 7.2 0 0.88 0 1.76 0.080 2.64 0.16 1.040 0.8 1.6 1.84 1.68 2.16 0.080 4.32-0.080 6.48-0.56 0.32-0.080 0.64-0.32 0.96-0.48 0 0 0.080 0 0.080 0 1.040-0.24 1.44-1.040 1.6-1.92 0.16-0.72 0.16-1.44 0.24-2.16 0.24-1.68 0.16-3.28 0.16-4.96 0-0.24 0.080-0.48 0.32-0.56 0.24-0.16 0.48-0.32 0.72-0.48 0.080-0.080 0.16-0.080 0.16-0.080z"></path>
</svg>
