<!-- Generated by IcoMoon.io -->
<svg version="1.1" xmlns="http://www.w3.org/2000/svg" width="32" height="32" viewBox="0 0 32 32">
<title>vaccine</title>
<path d="M9.52 24.8c-0.64 0.48-1.28 0.88-1.84 1.36-0.48 0.48-0.88 0.4-1.28-0.080-0.080-0.080-0.16-0.16-0.4-0.4-0.48 0.56-0.96 1.12-1.52 1.6-1.12 1.2-2.32 2.32-3.44 3.44-0.16 0.16-0.4 0.080-0.56 0.16 0.080-0.24 0-0.48 0.16-0.56 1.44-1.52 2.96-2.96 4.48-4.48 0.16-0.16 0.4-0.32 0.48-0.4-0.080-0.16-0.080-0.16-0.080-0.24-0.8-0.88-0.8-0.88-0.080-1.84 0.4-0.48 0.72-0.96 1.12-1.44 0-0.080-0.080-0.080-0.080-0.080-0.96-1.040-0.96-1.040 0.080-2 4.96-4.96 9.84-9.84 14.8-14.8 0.16-0.16 0.4-0.32 0.72-0.56-0.32-0.32-0.64-0.48-0.88-0.72-0.080-0.16-0.080-0.4-0.16-0.56 0.24 0.080 0.48 0 0.64 0.16 0.64 0.64 1.36 1.36 1.92 2 1.12-1.12 2.080-2.080 3.36-3.28-0.16-0.080-0.48-0.24-0.64-0.4-0.080-0.080-0.080-0.32-0.080-0.48 0.16 0 0.4 0 0.48 0.080 1.28 1.2 2.48 2.48 3.76 3.76 0.080 0.080 0.080 0.32 0.080 0.48-0.16 0-0.4 0-0.48-0.080-0.16-0.16-0.32-0.4-0.48-0.56-1.12 1.12-2.16 2.16-3.28 3.28 0.56 0.56 1.28 1.2 1.92 1.84 0.16 0.16 0.16 0.4 0.24 0.64-0.24-0.080-0.48-0.080-0.64-0.24-0.24-0.16-0.4-0.48-0.64-0.72-0.24 0.24-0.4 0.4-0.56 0.56-5.040 5.040-10.080 10.080-15.2 15.2-0.72 0.72-0.72 0.72-1.44 0-0.24-0.48-0.32-0.56-0.48-0.64zM22.4 4.88c-5.28 5.28-10.56 10.56-15.84 15.84 1.36 1.36 2.72 2.72 4.080 4.080 5.28-5.28 10.56-10.56 15.84-15.84-1.36-1.36-2.8-2.72-4.080-4.080zM27.28 2.56c-1.040 1.040-2.080 2.080-3.12 3.12 0.48 0.48 0.96 0.96 1.36 1.44 1.040-1.040 2.080-2.080 3.12-3.12-0.4-0.4-0.88-0.96-1.36-1.44zM9.040 24.32c-0.72-0.72-1.36-1.36-2.080-2.080-0.48 0.64-0.96 1.28-1.36 1.92 0.56 0.56 1.040 1.040 1.52 1.6 0.64-0.48 1.28-0.96 1.92-1.44zM16.48 17.28c-0.080 0.080-0.080 0.16-0.16 0.24-0.080 0-0.32 0-0.32 0-0.72-0.72-1.44-1.44-2.16-2.16-0.080-0.080-0.080-0.32 0-0.4 0-0.080 0.24-0.080 0.32-0.080 0.72 0.72 1.52 1.44 2.24 2.24 0 0.080 0.080 0.080 0.080 0.16zM21.76 12.24c-0.24 0-0.48 0.080-0.64 0-0.72-0.64-1.36-1.36-2-2-0.080-0.080 0-0.32 0-0.48 0.16 0 0.32-0.080 0.4 0 0.72 0.64 1.36 1.36 2.080 2.080 0 0.080 0 0.16 0.16 0.4zM8.8 20.080c0.16 0.080 0.32 0.16 0.4 0.24 0.64 0.56 1.2 1.2 1.76 1.84 0.080 0.16 0.080 0.4 0.16 0.56-0.16 0-0.4 0-0.56-0.080-0.64-0.56-1.28-1.2-1.84-1.84-0.080-0.080-0.16-0.32-0.16-0.48 0-0.080 0.16-0.16 0.24-0.24zM11.44 17.44c0.16 0.080 0.24 0.16 0.32 0.24 0.64 0.64 1.28 1.2 1.84 1.84 0.080 0.080 0.080 0.4 0.080 0.56-0.16 0-0.4 0-0.48-0.080-0.64-0.64-1.28-1.28-1.92-1.92-0.080-0.080-0.16-0.32-0.16-0.48 0.080 0 0.24-0.080 0.32-0.16zM16.64 12.24c0.16 0.080 0.24 0.16 0.32 0.24 0.64 0.64 1.28 1.2 1.84 1.84 0.080 0.080 0.080 0.4 0.080 0.56-0.16-0.080-0.4 0-0.48-0.16-0.64-0.64-1.28-1.28-1.92-1.92-0.080-0.080-0.16-0.32-0.16-0.48 0.080 0.080 0.24 0 0.32-0.080z"></path>
</svg>
